<?xml version="1.0" standalone="no"?><!-- Generator: Adobe Fireworks CS6, Export SVG Extension by Aaron Beall (http://fireworks.abeall.com) . Version: 0.6.1  --><!DOCTYPE svg PUBLIC "-//W3C//DTD SVG 1.1//EN" "http://www.w3.org/Graphics/SVG/1.1/DTD/svg11.dtd"><svg id="Untitled-Page%201" viewBox="0 0 727 380" style="background-color:#ffffff00" version="1.1"	xmlns="http://www.w3.org/2000/svg" xmlns:xlink="http://www.w3.org/1999/xlink" xml:space="preserve"	x="0px" y="0px" width="727px" height="380px">	<g id="Layer%201">		<g>			<path d="M 719.633 267.981 C 715.057 263.925 709.856 259.557 703.408 259.557 C 696.752 259.557 691.344 264.133 691.344 270.998 C 691.344 274.95 692.071 278.486 702.16 284.623 L 708.088 288.263 C 721.817 296.687 725.561 300.64 725.561 309.376 C 725.561 322.792 716.617 330.801 703.512 330.801 C 693.84 330.801 686.663 326.121 680.839 318.633 L 686.871 313.849 C 690.512 319.673 696.336 324.249 703.512 324.249 C 711.313 324.249 717.76 318.425 717.76 310.416 C 717.76 304.384 717.344 302.304 704.136 294.399 L 697.375 290.343 C 689.991 285.975 683.543 280.879 683.543 271.518 C 683.543 259.765 692.487 253.005 703.72 253.005 C 711.52 253.005 718.697 257.165 724.313 262.365 L 719.633 267.981 L 719.633 267.981 L 719.633 267.981 Z" fill="#000000"/>			<path d="M 691 267 L 691 266 L 682 266 L 682 267 L 685 267 L 685 268 L 694 268 L 694 267 L 691 267 L 691 267 Z" fill="#000000"/>			<path d="M 694 266 L 691 266 L 691 267 L 694 267 L 694 268 L 688 268 L 688 270 L 696 270 L 696 268 L 702 268 L 702 266 L 694 266 L 694 266 Z" fill="#ffffff"/>			<rect x="696" y="268" width="8" height="2" fill="#000000"/>			<path d="M 728 307 L 728 306 L 719 306 L 719 307 L 722 307 L 722 308 L 731 308 L 731 307 L 728 307 L 728 307 Z" fill="#000000"/>			<path d="M 731 306 L 728 306 L 728 307 L 731 307 L 731 308 L 725 308 L 725 310 L 733 310 L 733 308 L 739 308 L 739 306 L 731 306 L 731 306 Z" fill="#ffffff"/>			<rect x="733" y="308" width="8" height="2" fill="#000000"/>			<path d="M 719 307 L 719 306 L 710 306 L 710 307 L 713 307 L 713 308 L 722 308 L 722 307 L 719 307 L 719 307 Z" fill="#000000"/>			<path d="M 722 306 L 719 306 L 719 307 L 722 307 L 722 308 L 716 308 L 716 310 L 724 310 L 724 308 L 730 308 L 730 306 L 722 306 L 722 306 Z" fill="#ffffff"/>			<rect x="724" y="308" width="8" height="2" fill="#000000"/>		</g>		<g id="title-m">			<path d="M 110.026 28.008 L 88.705 28.008 L 88.705 96.339 L 80.905 96.339 L 80.905 28.008 L 60 28.008 L 60 21.456 L 110.026 21.456 L 110.026 28.008 L 110.026 28.008 L 110.026 28.008 Z" fill="#000000"/>			<path d="M 128.874 54.217 L 154.875 54.217 L 154.875 21.456 L 162.675 21.456 L 162.675 96.339 L 154.875 96.339 L 154.875 60.77 L 128.874 60.77 L 128.874 96.339 L 121.074 96.339 L 121.074 21.456 L 128.874 21.456 L 128.874 54.217 L 128.874 54.217 L 128.874 54.217 Z" fill="#000000"/>			<path d="M 225.945 28.008 L 194.848 28.008 L 194.848 54.633 L 217.209 54.633 L 217.209 61.185 L 194.848 61.185 L 194.848 89.786 L 226.673 89.786 L 226.673 96.338 L 187.047 96.338 L 187.047 21.456 L 225.944 21.456 L 225.944 28.008 L 225.945 28.008 L 225.945 28.008 Z" fill="#000000"/>			<path d="M 327.513 66.451 L 327.513 59.899 L 352.993 59.899 L 352.993 98.796 L 345.192 98.796 L 345.192 91.516 C 341.344 96.196 335.624 98.796 329.488 98.796 C 323.456 98.796 306.919 97.756 306.919 61.563 C 306.919 31.922 315.968 21.001 330.528 21.001 C 343.217 21.001 349.145 29.945 349.352 41.594 L 341.552 41.594 C 342.176 34.73 338.848 27.553 330.944 27.553 C 315.344 27.553 314.719 49.29 314.719 60.418 C 314.719 70.818 315.239 92.243 329.904 92.243 C 337.184 92.243 345.192 86.419 345.192 71.442 L 345.192 66.45 L 327.513 66.45 L 327.513 66.451 L 327.513 66.451 Z" fill="#000000"/>			<path d="M 412.7 33.013 L 381.603 33.013 L 381.603 59.638 L 403.963 59.638 L 403.963 66.19 L 381.603 66.19 L 381.603 94.791 L 413.428 94.791 L 413.428 101.343 L 373.803 101.343 L 373.803 26.461 L 412.7 26.461 L 412.7 33.013 L 412.7 33.013 L 412.7 33.013 Z" fill="#000000"/>			<path d="M 475.62 33.013 L 444.522 33.013 L 444.522 59.638 L 466.883 59.638 L 466.883 66.19 L 444.522 66.19 L 444.522 94.791 L 476.347 94.791 L 476.347 101.343 L 436.721 101.343 L 436.721 26.461 L 475.619 26.461 L 475.619 33.013 L 475.62 33.013 L 475.62 33.013 Z" fill="#000000"/>			<path d="M 506.401 59.43 C 511.809 58.806 524.602 45.805 531.881 25.525 L 539.578 29.581 L 533.441 39.877 C 523.56 56.414 518.464 60.574 513.68 63.59 L 546.025 101.343 L 535.625 101.343 L 507.024 66.086 L 506.4 66.086 L 506.4 101.343 L 498.599 101.343 L 498.599 26.461 L 506.4 26.461 L 506.4 59.43 L 506.401 59.43 L 506.401 59.43 Z" fill="#000000"/>			<path d="M 594.633 39.981 C 590.057 35.925 584.856 31.557 578.408 31.557 C 571.752 31.557 566.344 36.133 566.344 42.998 C 566.344 46.95 567.071 50.486 577.16 56.623 L 583.088 60.263 C 596.817 68.687 600.561 72.64 600.561 81.376 C 600.561 94.792 591.617 102.801 578.512 102.801 C 568.84 102.801 561.663 98.121 555.839 90.633 L 561.871 85.849 C 565.512 91.673 571.336 96.249 578.512 96.249 C 586.313 96.249 592.76 90.425 592.76 82.416 C 592.76 76.384 592.344 74.304 579.136 66.399 L 572.375 62.343 C 564.991 57.975 558.543 52.879 558.543 43.518 C 558.543 31.765 567.487 25.005 578.72 25.005 C 586.52 25.005 593.697 29.165 599.313 34.365 L 594.633 39.981 L 594.633 39.981 L 594.633 39.981 Z" fill="#000000"/>			<path d="M 79.956 139.795 C 101.797 139.795 102.941 164.756 102.941 178.692 C 102.941 188.676 103.669 217.589 79.956 217.589 C 56.867 217.589 56.971 189.3 56.971 178.692 C 56.971 147.387 67.372 139.795 79.956 139.795 L 79.956 139.795 L 79.956 139.795 ZM 95.141 178.692 C 95.141 171.828 96.181 146.347 79.956 146.347 C 63.315 146.347 64.771 174.324 64.771 178.692 C 64.771 187.22 64.355 211.037 79.956 211.037 C 87.756 211.037 95.141 205.838 95.141 178.692 L 95.141 178.692 L 95.141 178.692 Z" fill="#000000"/>			<path d="M 123.634 141.251 L 132.682 141.251 L 155.459 197.205 L 155.771 197.205 L 155.771 141.251 L 163.571 141.251 L 163.571 216.861 L 156.187 216.861 L 131.642 156.435 L 131.434 156.643 L 131.434 216.133 L 123.634 216.133 L 123.634 141.251 L 123.634 141.251 L 123.634 141.251 Z" fill="#000000"/>			<path d="M 290.775 147.803 L 269.454 147.803 L 269.454 216.134 L 261.654 216.134 L 261.654 147.803 L 240.749 147.803 L 240.749 141.251 L 290.775 141.251 L 290.775 147.803 L 290.775 147.803 L 290.775 147.803 Z" fill="#000000"/>			<path d="M 315.629 174.012 L 341.629 174.012 L 341.629 141.251 L 349.43 141.251 L 349.43 216.134 L 341.629 216.134 L 341.629 180.565 L 315.629 180.565 L 315.629 216.134 L 307.828 216.134 L 307.828 141.251 L 315.629 141.251 L 315.629 174.012 L 315.629 174.012 L 315.629 174.012 Z" fill="#000000"/>			<path d="M 413.701 147.803 L 382.604 147.803 L 382.604 174.428 L 404.964 174.428 L 404.964 180.981 L 382.604 180.981 L 382.604 209.583 L 414.429 209.583 L 414.429 216.135 L 374.804 216.135 L 374.804 141.252 L 413.701 141.252 L 413.701 147.803 L 413.701 147.803 L 413.701 147.803 Z" fill="#000000"/>			<path d="M 97.704 260.592 L 65.359 260.592 L 65.359 286.592 L 89.592 286.592 L 89.592 293.145 L 65.359 293.145 L 65.359 328.922 L 57.559 328.922 L 57.559 254.039 L 97.705 254.039 L 97.705 260.592 L 97.704 260.592 L 97.704 260.592 Z" fill="#000000"/>			<path d="M 118.294 254.039 L 137.743 254.039 C 156.464 254.039 158.128 270.888 158.128 275.256 C 158.128 282.952 155.216 290.025 144.816 295.953 L 164.993 328.922 L 155.529 328.922 L 137.328 297.721 C 133.584 297.824 129.84 297.824 126.095 297.929 L 126.095 328.922 L 118.295 328.922 L 118.295 254.039 L 118.294 254.039 L 118.294 254.039 ZM 133.478 291.272 C 144.086 291.272 150.327 285.864 150.327 274.839 C 150.327 264.855 146.167 260.591 133.79 260.591 L 126.094 260.591 L 126.094 291.272 L 133.478 291.272 L 133.478 291.272 L 133.478 291.272 Z" fill="#000000"/>			<path d="M 198.789 252.583 C 220.63 252.583 221.774 277.544 221.774 291.481 C 221.774 301.465 222.502 330.378 198.789 330.378 C 175.7 330.378 175.804 302.089 175.804 291.481 C 175.804 260.176 186.205 252.583 198.789 252.583 L 198.789 252.583 L 198.789 252.583 ZM 213.974 291.48 C 213.974 284.616 215.014 259.134 198.789 259.134 C 182.148 259.134 183.604 287.112 183.604 291.48 C 183.604 300.008 183.188 323.826 198.789 323.826 C 206.589 323.826 213.974 318.625 213.974 291.48 L 213.974 291.48 L 213.974 291.48 Z" fill="#000000"/>			<path d="M 242.468 254.039 L 251.516 254.039 L 274.293 309.993 L 274.605 309.993 L 274.605 254.039 L 282.405 254.039 L 282.405 329.65 L 275.021 329.65 L 250.476 269.223 L 250.268 269.431 L 250.268 328.921 L 242.468 328.921 L 242.468 254.039 L 242.468 254.039 L 242.468 254.039 Z" fill="#000000"/>			<path d="M 349.691 260.592 L 328.371 260.592 L 328.371 328.922 L 320.57 328.922 L 320.57 260.592 L 299.666 260.592 L 299.666 254.039 L 349.691 254.039 L 349.691 260.592 L 349.691 260.592 L 349.691 260.592 Z" fill="#000000"/>			<path d="M 442.267 322.369 L 474.716 322.369 L 474.716 328.922 L 434.467 328.922 L 434.467 254.039 L 442.267 254.039 L 442.267 322.369 L 442.267 322.369 L 442.267 322.369 Z" fill="#000000"/>			<path d="M 526.506 260.592 L 516.315 260.592 L 516.315 322.369 L 526.506 322.369 L 526.506 328.922 L 498.426 328.922 L 498.426 322.369 L 508.514 322.369 L 508.514 260.592 L 498.426 260.592 L 498.426 254.039 L 526.506 254.039 L 526.506 260.592 L 526.506 260.592 L 526.506 260.592 Z" fill="#000000"/>			<path d="M 556.145 254.039 L 565.193 254.039 L 587.969 309.993 L 588.281 309.993 L 588.281 254.039 L 596.082 254.039 L 596.082 329.65 L 588.697 329.65 L 564.152 269.223 L 563.944 269.431 L 563.944 328.921 L 556.144 328.921 L 556.144 254.039 L 556.145 254.039 L 556.145 254.039 Z" fill="#000000"/>			<path d="M 660.457 260.592 L 629.359 260.592 L 629.359 287.217 L 651.72 287.217 L 651.72 293.769 L 629.359 293.769 L 629.359 322.37 L 661.184 322.37 L 661.184 328.923 L 621.558 328.923 L 621.558 254.04 L 660.456 254.04 L 660.456 260.592 L 660.457 260.592 L 660.457 260.592 Z" fill="#000000"/>			<rect x="128" y="84" width="9" height="2" fill="#000000"/>			<rect x="128" y="76" width="3" height="5" fill="#000000"/>			<rect x="162" y="76" width="3" height="5" fill="#000000"/>			<rect x="194" y="76" width="3" height="5" fill="#000000"/>			<rect x="162" y="84" width="7" height="2" fill="#000000"/>			<rect x="154" y="84" width="8" height="2" fill="#ffffff"/>			<rect x="187" y="84" width="7" height="2" fill="#ffffff"/>			<rect x="153" y="76" width="4" height="5" fill="#ffffff"/>			<rect x="187" y="76" width="2" height="5" fill="#ffffff"/>			<rect x="121" y="84" width="7" height="2" fill="#ffffff"/>			<rect x="116" y="76" width="7" height="5" fill="#ffffff"/>			<path d="M 120 43 L 120 42 L 111 42 L 111 43 L 114 43 L 114 44 L 123 44 L 123 43 L 120 43 L 120 43 Z" fill="#000000"/>			<path d="M 153 43 L 153 42 L 144 42 L 144 43 L 147 43 L 147 44 L 156 44 L 156 43 L 153 43 L 153 43 Z" fill="#000000"/>			<path d="M 186 43 L 186 42 L 177 42 L 177 43 L 180 43 L 180 44 L 189 44 L 189 43 L 186 43 L 186 43 Z" fill="#000000"/>			<rect x="125" y="44" width="8" height="2" fill="#000000"/>			<path d="M 123 42 L 120 42 L 120 43 L 123 43 L 123 44 L 117 44 L 117 46 L 125 46 L 125 44 L 131 44 L 131 42 L 123 42 L 123 42 Z" fill="#ffffff"/>			<path d="M 157 42 L 154 42 L 154 43 L 157 43 L 157 44 L 151 44 L 151 46 L 159 46 L 159 44 L 165 44 L 165 42 L 157 42 L 157 42 Z" fill="#ffffff"/>			<path d="M 189 42 L 186 42 L 186 43 L 189 43 L 189 44 L 183 44 L 183 46 L 191 46 L 191 44 L 197 44 L 197 42 L 189 42 L 189 42 Z" fill="#ffffff"/>			<rect x="159" y="44" width="8" height="2" fill="#000000"/>			<rect x="191" y="44" width="8" height="2" fill="#000000"/>			<path d="M 313 37 L 313 36 L 304 36 L 304 37 L 307 37 L 307 38 L 316 38 L 316 37 L 313 37 L 313 37 Z" fill="#000000"/>			<path d="M 346 37 L 346 36 L 337 36 L 337 37 L 340 37 L 340 38 L 349 38 L 349 37 L 346 37 L 346 37 Z" fill="#000000"/>			<path d="M 379 37 L 379 36 L 370 36 L 370 37 L 373 37 L 373 38 L 382 38 L 382 37 L 379 37 L 379 37 Z" fill="#000000"/>			<rect x="318" y="38" width="8" height="2" fill="#000000"/>			<path d="M 316 36 L 313 36 L 313 37 L 316 37 L 316 38 L 310 38 L 310 40 L 318 40 L 318 38 L 324 38 L 324 36 L 316 36 L 316 36 Z" fill="#ffffff"/>			<path d="M 350 36 L 347 36 L 347 37 L 350 37 L 350 38 L 344 38 L 344 40 L 352 40 L 352 38 L 358 38 L 358 36 L 350 36 L 350 36 Z" fill="#ffffff"/>			<path d="M 382 36 L 379 36 L 379 37 L 382 37 L 382 38 L 376 38 L 376 40 L 384 40 L 384 38 L 390 38 L 390 36 L 382 36 L 382 36 Z" fill="#ffffff"/>			<rect x="352" y="38" width="8" height="2" fill="#000000"/>			<rect x="384" y="38" width="8" height="2" fill="#000000"/>			<path d="M 438 39 L 438 38 L 429 38 L 429 39 L 432 39 L 432 40 L 441 40 L 441 39 L 438 39 L 438 39 Z" fill="#000000"/>			<path d="M 504 39 L 504 38 L 495 38 L 495 39 L 498 39 L 498 40 L 507 40 L 507 39 L 504 39 L 504 39 Z" fill="#000000"/>			<rect x="443" y="40" width="8" height="2" fill="#000000"/>			<path d="M 441 38 L 438 38 L 438 39 L 441 39 L 441 40 L 435 40 L 435 42 L 443 42 L 443 40 L 449 40 L 449 38 L 441 38 L 441 38 Z" fill="#ffffff"/>			<path d="M 507 38 L 504 38 L 504 39 L 507 39 L 507 40 L 501 40 L 501 42 L 509 42 L 509 40 L 515 40 L 515 38 L 507 38 L 507 38 Z" fill="#ffffff"/>			<rect x="509" y="40" width="8" height="2" fill="#000000"/>			<path d="M 566 39 L 566 38 L 557 38 L 557 39 L 560 39 L 560 40 L 569 40 L 569 39 L 566 39 L 566 39 Z" fill="#000000"/>			<path d="M 569 38 L 566 38 L 566 39 L 569 39 L 569 40 L 563 40 L 563 42 L 571 42 L 571 40 L 577 40 L 577 38 L 569 38 L 569 38 Z" fill="#ffffff"/>			<rect x="571" y="40" width="8" height="2" fill="#000000"/>			<path d="M 313 77 L 313 76 L 304 76 L 304 77 L 307 77 L 307 78 L 316 78 L 316 77 L 313 77 L 313 77 Z" fill="#000000"/>			<path d="M 346 77 L 346 76 L 337 76 L 337 77 L 340 77 L 340 78 L 349 78 L 349 77 L 346 77 L 346 77 Z" fill="#000000"/>			<path d="M 379 77 L 379 76 L 370 76 L 370 77 L 373 77 L 373 78 L 382 78 L 382 77 L 379 77 L 379 77 Z" fill="#000000"/>			<rect x="318" y="78" width="8" height="2" fill="#000000"/>			<path d="M 316 76 L 313 76 L 313 77 L 316 77 L 316 78 L 310 78 L 310 80 L 318 80 L 318 78 L 324 78 L 324 76 L 316 76 L 316 76 Z" fill="#ffffff"/>			<path d="M 350 76 L 347 76 L 347 77 L 350 77 L 350 78 L 344 78 L 344 80 L 352 80 L 352 78 L 358 78 L 358 76 L 350 76 L 350 76 Z" fill="#ffffff"/>			<path d="M 382 76 L 379 76 L 379 77 L 382 77 L 382 78 L 376 78 L 376 80 L 384 80 L 384 78 L 390 78 L 390 76 L 382 76 L 382 76 Z" fill="#ffffff"/>			<rect x="352" y="78" width="8" height="2" fill="#000000"/>			<rect x="384" y="78" width="8" height="2" fill="#000000"/>			<path d="M 438 79 L 438 78 L 429 78 L 429 79 L 432 79 L 432 80 L 441 80 L 441 79 L 438 79 L 438 79 Z" fill="#000000"/>			<path d="M 504 79 L 504 78 L 495 78 L 495 79 L 498 79 L 498 80 L 507 80 L 507 79 L 504 79 L 504 79 Z" fill="#000000"/>			<rect x="443" y="80" width="8" height="2" fill="#000000"/>			<path d="M 441 78 L 438 78 L 438 79 L 441 79 L 441 80 L 435 80 L 435 82 L 443 82 L 443 80 L 449 80 L 449 78 L 441 78 L 441 78 Z" fill="#ffffff"/>			<path d="M 507 78 L 504 78 L 504 79 L 507 79 L 507 80 L 501 80 L 501 82 L 509 82 L 509 80 L 515 80 L 515 78 L 507 78 L 507 78 Z" fill="#ffffff"/>			<rect x="509" y="80" width="8" height="2" fill="#000000"/>			<path d="M 603 79 L 603 78 L 594 78 L 594 79 L 597 79 L 597 80 L 606 80 L 606 79 L 603 79 L 603 79 Z" fill="#000000"/>			<path d="M 606 78 L 603 78 L 603 79 L 606 79 L 606 80 L 600 80 L 600 82 L 608 82 L 608 80 L 614 80 L 614 78 L 606 78 L 606 78 Z" fill="#ffffff"/>			<rect x="608" y="80" width="8" height="2" fill="#000000"/>			<rect x="121" y="55" width="44" height="1" fill="#000000"/>			<rect x="188" y="55" width="31" height="1" fill="#ffffff"/>			<rect x="65" y="143" width="26" height="1" fill="#000000"/>			<rect x="55" y="160" width="8" height="1" fill="#000000"/>			<rect x="62" y="160" width="8" height="1" fill="#ffffff"/>			<rect x="64" y="186" width="8" height="1" fill="#000000"/>			<rect x="58" y="186" width="6" height="1" fill="#ffffff"/>			<rect x="102" y="186" width="8" height="1" fill="#000000"/>			<rect x="96" y="186" width="6" height="1" fill="#ffffff"/>			<rect x="62" y="193" width="8" height="3" fill="#000000"/>			<rect x="56" y="193" width="6" height="3" fill="#ffffff"/>			<rect x="99" y="193" width="8" height="3" fill="#000000"/>			<rect x="93" y="193" width="6" height="3" fill="#ffffff"/>			<rect x="131" y="186" width="7" height="1" fill="#000000"/>			<rect x="150" y="186" width="7" height="1" fill="#000000"/>			<rect x="161" y="186" width="10" height="1" fill="#000000"/>			<rect x="125" y="186" width="6" height="1" fill="#ffffff"/>			<rect x="158" y="193" width="1" height="3" fill="#ffffff"/>			<rect x="142" y="186" width="8" height="1" fill="#ffffff"/>			<rect x="157" y="186" width="4" height="1" fill="#ffffff"/>			<rect x="128" y="193" width="7" height="3" fill="#000000"/>			<rect x="159" y="193" width="8" height="3" fill="#000000"/>			<rect x="122" y="193" width="6" height="3" fill="#ffffff"/>			<path d="M 152 195 L 152 193 L 146 193 L 146 196 L 147 196 L 152 196 L 153 196 L 153 195 L 152 195 L 152 195 Z" fill="#ffffff"/>			<rect x="264" y="186" width="8" height="1" fill="#000000"/>			<rect x="258" y="186" width="6" height="1" fill="#ffffff"/>			<rect x="315" y="186" width="8" height="1" fill="#000000"/>			<rect x="304" y="186" width="11" height="1" fill="#ffffff"/>			<rect x="264" y="193" width="8" height="3" fill="#000000"/>			<rect x="258" y="193" width="6" height="3" fill="#ffffff"/>			<rect x="314" y="193" width="8" height="3" fill="#000000"/>			<rect x="306" y="193" width="8" height="3" fill="#ffffff"/>			<rect x="374" y="193" width="6" height="3" fill="#ffffff"/>			<rect x="383" y="186" width="8" height="1" fill="#000000"/>			<rect x="377" y="186" width="6" height="1" fill="#ffffff"/>			<rect x="382" y="193" width="8" height="3" fill="#000000"/>			<rect x="376" y="193" width="6" height="3" fill="#ffffff"/>			<rect x="344" y="186" width="7" height="1" fill="#000000"/>			<rect x="363" y="186" width="7" height="1" fill="#000000"/>			<rect x="374" y="186" width="10" height="1" fill="#ffffff"/>			<rect x="338" y="186" width="6" height="1" fill="#ffffff"/>			<rect x="373" y="193" width="1" height="3" fill="#ffffff"/>			<rect x="355" y="186" width="8" height="1" fill="#ffffff"/>			<rect x="370" y="186" width="4" height="1" fill="#ffffff"/>			<rect x="343" y="193" width="7" height="3" fill="#000000"/>			<rect x="374" y="193" width="8" height="3" fill="#ffffff"/>			<rect x="337" y="193" width="6" height="3" fill="#ffffff"/>			<path d="M 365 195 L 365 193 L 359 193 L 359 196 L 360 196 L 365 196 L 366 196 L 366 195 L 365 195 L 365 195 Z" fill="#ffffff"/>			<g>				<rect x="91" y="160" width="8" height="1" fill="#000000"/>				<rect x="98" y="160" width="8" height="1" fill="#ffffff"/>			</g>			<rect x="120" y="160" width="8" height="1" fill="#000000"/>			<rect x="130" y="160" width="7" height="1" fill="#000000"/>			<rect x="127" y="160" width="3" height="1" fill="#ffffff"/>			<rect x="137" y="160" width="4" height="1" fill="#ffffff"/>			<rect x="152" y="160" width="7" height="1" fill="#000000"/>			<rect x="128" y="143" width="26" height="1" fill="#000000"/>			<rect x="159" y="160" width="5" height="1" fill="#ffffff"/>			<rect x="124" y="143" width="4" height="1" fill="#ffffff"/>			<rect x="325" y="305" width="3" height="5" fill="#000000"/>			<rect x="325" y="313" width="7" height="2" fill="#000000"/>			<rect x="317" y="313" width="8" height="2" fill="#ffffff"/>			<rect x="316" y="305" width="4" height="5" fill="#ffffff"/>			<rect x="279" y="305" width="7" height="5" fill="#ffffff"/>			<rect x="280" y="278" width="8" height="1" fill="#000000"/>			<rect x="274" y="278" width="6" height="1" fill="#ffffff"/>			<rect x="318" y="278" width="8" height="1" fill="#000000"/>			<rect x="312" y="278" width="6" height="1" fill="#ffffff"/>			<rect x="280" y="285" width="8" height="3" fill="#000000"/>			<rect x="274" y="285" width="6" height="3" fill="#ffffff"/>			<rect x="317" y="285" width="8" height="3" fill="#000000"/>			<rect x="311" y="285" width="6" height="3" fill="#ffffff"/>			<rect x="347" y="278" width="7" height="1" fill="#000000"/>			<rect x="428" y="278" width="7" height="1" fill="#000000"/>			<rect x="439" y="278" width="10" height="1" fill="#000000"/>			<rect x="341" y="278" width="6" height="1" fill="#ffffff"/>			<rect x="438" y="285" width="1" height="3" fill="#ffffff"/>			<rect x="420" y="278" width="8" height="1" fill="#ffffff"/>			<rect x="435" y="278" width="4" height="1" fill="#ffffff"/>			<rect x="346" y="285" width="7" height="3" fill="#000000"/>			<rect x="439" y="285" width="8" height="3" fill="#000000"/>			<rect x="340" y="285" width="6" height="3" fill="#ffffff"/>			<path d="M 430 287 L 430 285 L 362 285 L 362 288 L 425 288 L 430 288 L 431 288 L 431 287 L 430 287 L 430 287 Z" fill="#ffffff"/>			<rect x="340" y="143" width="26" height="1" fill="#000000"/>			<rect x="423" y="143" width="39" height="1" fill="#000000"/>			<rect x="399" y="143" width="4" height="1" fill="#ffffff"/>			<rect x="66" y="188" width="8" height="1" fill="#000000"/>			<rect x="60" y="188" width="6" height="1" fill="#ffffff"/>			<rect x="104" y="188" width="8" height="1" fill="#000000"/>			<rect x="98" y="188" width="6" height="1" fill="#ffffff"/>			<rect x="66" y="195" width="8" height="3" fill="#000000"/>			<rect x="60" y="195" width="6" height="3" fill="#ffffff"/>			<rect x="103" y="195" width="8" height="3" fill="#000000"/>			<rect x="97" y="195" width="6" height="3" fill="#ffffff"/>			<rect x="133" y="188" width="7" height="1" fill="#000000"/>			<rect x="152" y="188" width="7" height="1" fill="#000000"/>			<rect x="163" y="188" width="10" height="1" fill="#000000"/>			<rect x="127" y="188" width="6" height="1" fill="#ffffff"/>			<rect x="162" y="195" width="1" height="3" fill="#ffffff"/>			<rect x="144" y="188" width="8" height="1" fill="#ffffff"/>			<rect x="159" y="188" width="4" height="1" fill="#ffffff"/>			<rect x="132" y="195" width="7" height="3" fill="#000000"/>			<rect x="163" y="195" width="8" height="3" fill="#000000"/>			<rect x="126" y="195" width="6" height="3" fill="#ffffff"/>			<path d="M 154 197 L 154 195 L 148 195 L 148 198 L 149 198 L 154 198 L 155 198 L 155 197 L 154 197 L 154 197 Z" fill="#ffffff"/>			<rect x="620" y="300" width="8" height="1" fill="#000000"/>			<rect x="614" y="300" width="6" height="1" fill="#ffffff"/>			<rect x="658" y="300" width="8" height="1" fill="#000000"/>			<rect x="652" y="300" width="6" height="1" fill="#ffffff"/>			<rect x="618" y="307" width="8" height="3" fill="#000000"/>			<rect x="612" y="307" width="6" height="3" fill="#ffffff"/>			<rect x="618" y="310" width="8" height="3" fill="#ffffff"/>			<rect x="612" y="310" width="6" height="3" fill="#ffffff"/>			<rect x="622" y="302" width="8" height="1" fill="#000000"/>			<rect x="616" y="302" width="6" height="1" fill="#ffffff"/>			<rect x="660" y="302" width="8" height="1" fill="#000000"/>			<rect x="654" y="302" width="6" height="1" fill="#ffffff"/>			<rect x="622" y="309" width="8" height="3" fill="#000000"/>			<rect x="616" y="309" width="6" height="3" fill="#ffffff"/>			<rect x="622" y="312" width="8" height="3" fill="#ffffff"/>			<rect x="616" y="312" width="6" height="3" fill="#ffffff"/>			<rect x="246" y="301" width="8" height="1" fill="#000000"/>			<rect x="240" y="301" width="6" height="1" fill="#ffffff"/>			<rect x="284" y="301" width="8" height="1" fill="#000000"/>			<rect x="278" y="301" width="6" height="1" fill="#ffffff"/>			<rect x="244" y="308" width="8" height="3" fill="#000000"/>			<rect x="238" y="308" width="6" height="3" fill="#ffffff"/>			<rect x="275" y="308" width="6" height="3" fill="#ffffff"/>			<rect x="313" y="301" width="7" height="1" fill="#000000"/>			<rect x="332" y="301" width="7" height="1" fill="#000000"/>			<rect x="307" y="301" width="6" height="1" fill="#ffffff"/>			<rect x="340" y="308" width="1" height="3" fill="#ffffff"/>			<rect x="324" y="301" width="8" height="1" fill="#ffffff"/>			<rect x="310" y="308" width="7" height="3" fill="#000000"/>			<rect x="304" y="308" width="6" height="3" fill="#ffffff"/>			<path d="M 334 310 L 334 308 L 328 308 L 328 311 L 329 311 L 334 311 L 335 311 L 335 310 L 334 310 L 334 310 Z" fill="#ffffff"/>			<rect x="248" y="303" width="8" height="1" fill="#000000"/>			<rect x="242" y="303" width="6" height="1" fill="#ffffff"/>			<rect x="286" y="303" width="8" height="1" fill="#000000"/>			<rect x="280" y="303" width="6" height="1" fill="#ffffff"/>			<rect x="248" y="310" width="8" height="3" fill="#000000"/>			<rect x="242" y="310" width="6" height="3" fill="#ffffff"/>			<rect x="279" y="310" width="6" height="3" fill="#ffffff"/>			<rect x="315" y="303" width="7" height="1" fill="#000000"/>			<rect x="334" y="303" width="7" height="1" fill="#000000"/>			<rect x="309" y="303" width="6" height="1" fill="#ffffff"/>			<rect x="326" y="303" width="8" height="1" fill="#ffffff"/>			<rect x="314" y="310" width="7" height="3" fill="#000000"/>			<rect x="308" y="310" width="6" height="3" fill="#ffffff"/>			<path d="M 336 312 L 336 310 L 330 310 L 330 313 L 331 313 L 336 313 L 337 313 L 337 312 L 336 312 L 336 312 Z" fill="#ffffff"/>			<rect x="165" y="313" width="9" height="2" fill="#000000"/>			<rect x="165" y="305" width="3" height="5" fill="#000000"/>			<rect x="199" y="305" width="3" height="5" fill="#000000"/>			<rect x="231" y="305" width="3" height="5" fill="#000000"/>			<rect x="199" y="313" width="7" height="2" fill="#000000"/>			<rect x="191" y="313" width="8" height="2" fill="#ffffff"/>			<rect x="224" y="313" width="7" height="2" fill="#ffffff"/>			<rect x="190" y="305" width="4" height="5" fill="#ffffff"/>			<rect x="224" y="305" width="2" height="5" fill="#ffffff"/>			<rect x="158" y="313" width="7" height="2" fill="#ffffff"/>			<rect x="153" y="305" width="7" height="5" fill="#ffffff"/>			<rect x="118" y="308" width="8" height="3" fill="#000000"/>			<rect x="112" y="308" width="6" height="3" fill="#ffffff"/>			<rect x="155" y="308" width="8" height="3" fill="#000000"/>			<rect x="149" y="308" width="6" height="3" fill="#ffffff"/>			<rect x="214" y="308" width="1" height="3" fill="#ffffff"/>			<rect x="184" y="308" width="7" height="3" fill="#000000"/>			<rect x="215" y="308" width="8" height="3" fill="#000000"/>			<rect x="178" y="308" width="6" height="3" fill="#ffffff"/>			<path d="M 208 310 L 208 308 L 202 308 L 202 311 L 203 311 L 208 311 L 209 311 L 209 310 L 208 310 L 208 310 Z" fill="#ffffff"/>			<rect x="122" y="310" width="8" height="3" fill="#000000"/>			<rect x="116" y="310" width="6" height="3" fill="#ffffff"/>			<rect x="61" y="308" width="8" height="3" fill="#000000"/>			<rect x="55" y="308" width="6" height="3" fill="#ffffff"/>			<rect x="65" y="310" width="8" height="3" fill="#000000"/>			<rect x="59" y="310" width="6" height="3" fill="#ffffff"/>			<rect x="159" y="310" width="8" height="3" fill="#000000"/>			<rect x="153" y="310" width="6" height="3" fill="#ffffff"/>			<rect x="218" y="310" width="1" height="3" fill="#ffffff"/>			<rect x="188" y="310" width="7" height="3" fill="#000000"/>			<rect x="219" y="310" width="8" height="3" fill="#000000"/>			<rect x="182" y="310" width="6" height="3" fill="#ffffff"/>			<path d="M 210 312 L 210 310 L 204 310 L 204 313 L 205 313 L 210 313 L 211 313 L 211 312 L 210 312 L 210 312 Z" fill="#ffffff"/>			<rect x="576.007" y="301.265" width="10" height="1" fill="#000000"/>			<rect x="557.008" y="301.097" width="8" height="1" fill="#ffffff"/>			<rect x="441.993" y="302.777" width="8" height="1" fill="#000000"/>			<rect x="435.993" y="302.719" width="6" height="1" fill="#ffffff"/>			<rect x="514.992" y="303.017" width="7" height="1" fill="#000000"/>			<rect x="577.991" y="303.281" width="10" height="1" fill="#000000"/>			<rect x="508.992" y="302.962" width="5.999" height="1" fill="#ffffff"/>			<rect x="558.992" y="303.113" width="7.999" height="1" fill="#ffffff"/>			<rect x="573.991" y="303.223" width="4.0001" height="1" fill="#ffffff"/>			<rect x="106" y="278" width="630" height="1" fill="#ffffff"/>			<path d="M 594 79 L 594 78 L 585 78 L 585 79 L 588 79 L 588 80 L 597 80 L 597 79 L 594 79 L 594 79 Z" fill="#000000"/>			<path d="M 597 78 L 594 78 L 594 79 L 597 79 L 597 80 L 591 80 L 591 82 L 599 82 L 599 80 L 605 80 L 605 78 L 597 78 L 597 78 Z" fill="#ffffff"/>			<rect x="599" y="80" width="8" height="2" fill="#000000"/>			<rect x="509" y="307" width="1" height="3" fill="#ffffff"/>			<rect x="507" y="307" width="7" height="3" fill="#000000"/>			<rect x="510" y="307" width="8" height="3" fill="#000000"/>			<rect x="501" y="307" width="6" height="3" fill="#ffffff"/>			<path d="M 531 309 L 531 307 L 525 307 L 525 310 L 526 310 L 531 310 L 532 310 L 532 309 L 531 309 L 531 309 Z" fill="#ffffff"/>			<rect x="512" y="302" width="7" height="1" fill="#000000"/>			<rect x="503" y="302" width="7" height="1" fill="#000000"/>			<rect x="514" y="302" width="10" height="1" fill="#000000"/>			<rect x="506" y="302" width="6" height="1" fill="#ffffff"/>			<rect x="513" y="309" width="1" height="3" fill="#ffffff"/>			<rect x="523" y="302" width="8" height="1" fill="#ffffff"/>			<rect x="510" y="302" width="4" height="1" fill="#ffffff"/>			<rect x="511" y="309" width="7" height="3" fill="#000000"/>			<rect x="514" y="309" width="8" height="3" fill="#000000"/>			<rect x="505" y="309" width="6" height="3" fill="#ffffff"/>			<path d="M 505 311 L 505 309 L 499 309 L 499 312 L 500 312 L 505 312 L 506 312 L 506 311 L 505 311 L 505 311 Z" fill="#ffffff"/>			<rect x="512" y="307" width="8" height="3" fill="#000000"/>			<rect x="506" y="307" width="6" height="3" fill="#ffffff"/>			<rect x="512" y="310" width="8" height="3" fill="#ffffff"/>			<rect x="506" y="310" width="6" height="3" fill="#ffffff"/>			<rect x="516" y="309" width="8" height="3" fill="#000000"/>			<rect x="510" y="309" width="6" height="3" fill="#ffffff"/>			<rect x="516" y="312" width="8" height="3" fill="#ffffff"/>			<rect x="510" y="312" width="6" height="3" fill="#ffffff"/>			<rect x="440" y="307" width="1" height="3" fill="#ffffff"/>			<rect x="438" y="307" width="7" height="3" fill="#000000"/>			<rect x="441" y="307" width="8" height="3" fill="#000000"/>			<rect x="432" y="307" width="6" height="3" fill="#ffffff"/>			<path d="M 462 309 L 462 307 L 456 307 L 456 310 L 457 310 L 462 310 L 463 310 L 463 309 L 462 309 L 462 309 Z" fill="#ffffff"/>			<rect x="443" y="302" width="7" height="1" fill="#000000"/>			<rect x="434" y="302" width="7" height="1" fill="#000000"/>			<rect x="445" y="302" width="10" height="1" fill="#000000"/>			<rect x="437" y="302" width="6" height="1" fill="#ffffff"/>			<rect x="444" y="309" width="1" height="3" fill="#ffffff"/>			<rect x="454" y="302" width="8" height="1" fill="#ffffff"/>			<rect x="441" y="302" width="4" height="1" fill="#ffffff"/>			<rect x="442" y="309" width="7" height="3" fill="#000000"/>			<rect x="445" y="309" width="8" height="3" fill="#000000"/>			<rect x="436" y="309" width="6" height="3" fill="#ffffff"/>			<path d="M 436 311 L 436 309 L 430 309 L 430 312 L 431 312 L 436 312 L 437 312 L 437 311 L 436 311 L 436 311 Z" fill="#ffffff"/>			<rect x="443" y="307" width="8" height="3" fill="#000000"/>			<rect x="437" y="307" width="6" height="3" fill="#ffffff"/>			<rect x="443" y="310" width="8" height="3" fill="#ffffff"/>			<rect x="437" y="310" width="6" height="3" fill="#ffffff"/>			<rect x="447" y="309" width="8" height="3" fill="#000000"/>			<rect x="441" y="309" width="6" height="3" fill="#ffffff"/>			<rect x="447" y="312" width="8" height="3" fill="#ffffff"/>			<rect x="441" y="312" width="6" height="3" fill="#ffffff"/>			<rect x="247" y="300" width="7" height="1" fill="#000000"/>			<rect x="238" y="300" width="7" height="1" fill="#000000"/>			<rect x="249" y="300" width="10" height="1" fill="#000000"/>			<rect x="241" y="300" width="6" height="1" fill="#ffffff"/>			<rect x="246" y="307" width="1" height="3" fill="#ffffff"/>			<rect x="258" y="300" width="8" height="1" fill="#ffffff"/>			<rect x="245" y="300" width="4" height="1" fill="#ffffff"/>			<rect x="244" y="307" width="7" height="3" fill="#000000"/>			<rect x="247" y="307" width="8" height="3" fill="#000000"/>			<rect x="238" y="307" width="6" height="3" fill="#ffffff"/>			<path d="M 268 309 L 268 307 L 262 307 L 262 310 L 263 310 L 268 310 L 269 310 L 269 309 L 268 309 L 268 309 Z" fill="#ffffff"/>			<rect x="249" y="302" width="7" height="1" fill="#000000"/>			<rect x="240" y="302" width="7" height="1" fill="#000000"/>			<rect x="251" y="302" width="10" height="1" fill="#000000"/>			<rect x="243" y="302" width="6" height="1" fill="#ffffff"/>			<rect x="250" y="309" width="1" height="3" fill="#ffffff"/>			<rect x="260" y="302" width="8" height="1" fill="#ffffff"/>			<rect x="247" y="302" width="4" height="1" fill="#ffffff"/>			<rect x="248" y="309" width="7" height="3" fill="#000000"/>			<rect x="251" y="309" width="8" height="3" fill="#000000"/>			<rect x="242" y="309" width="6" height="3" fill="#ffffff"/>			<path d="M 242 311 L 242 309 L 236 309 L 236 312 L 237 312 L 242 312 L 243 312 L 243 311 L 242 311 L 242 311 Z" fill="#ffffff"/>			<rect x="249" y="307" width="8" height="3" fill="#000000"/>			<rect x="243" y="307" width="6" height="3" fill="#ffffff"/>			<rect x="249" y="310" width="8" height="3" fill="#ffffff"/>			<rect x="243" y="310" width="6" height="3" fill="#ffffff"/>			<rect x="253" y="309" width="8" height="3" fill="#000000"/>			<rect x="247" y="309" width="6" height="3" fill="#ffffff"/>			<rect x="253" y="312" width="8" height="3" fill="#ffffff"/>			<rect x="247" y="312" width="6" height="3" fill="#ffffff"/>			<rect x="44" y="173" width="378" height="2" fill="#ffffff"/>			<rect x="256" y="85" width="378" height="2" fill="#ffffff"/>			<rect x="378" y="295" width="378" height="2" fill="#ffffff"/>		</g>	</g></svg>