<?xml version="1.0" encoding="utf-8"?>
<!-- Generator: Adobe Illustrator 16.0.0, SVG Export Plug-In . SVG Version: 6.00 Build 0)  -->
<!DOCTYPE svg PUBLIC "-//W3C//DTD SVG 1.1//EN" "http://www.w3.org/Graphics/SVG/1.1/DTD/svg11.dtd">
<svg version="1.1" id="Layer_1" xmlns="http://www.w3.org/2000/svg" xmlns:xlink="http://www.w3.org/1999/xlink" x="0px" y="0px"
	 width="134.667px" height="72.167px" viewBox="-161.833 0 134.667 72.167" enable-background="new -161.833 0 134.667 72.167"
	 xml:space="preserve">
<g>
	<path fill="#FFFFFF" d="M-127.6,37.502h-0.636l-0.779-2.626h-2.938l-0.792,2.626h-0.624l2.878-8.983L-127.6,37.502z
		 M-131.834,34.396h2.699l-1.355-4.341L-131.834,34.396z"/>
	<path fill="#FFFFFF" d="M-125.39,33.376c0-0.768-0.06-1.535-0.288-2.278l0.528-0.072l0.216,1.043h0.024
		c0.324-0.66,0.936-1.043,1.679-1.043c1.056,0,2.458,0.852,2.458,3.346c0,2.542-1.631,3.262-2.495,3.262
		c-0.563,0-1.127-0.192-1.559-0.54v2.951h-0.563V33.376z M-124.826,36.53c0.396,0.348,0.875,0.624,1.416,0.624
		c0.719,0,2.075-0.504,2.075-2.818c0-2.207-1.188-2.831-1.907-2.831c-0.84,0-1.271,0.587-1.583,1.271V36.53z"/>
	<path fill="#FFFFFF" d="M-117.11,37.502h-0.564v-4.39l-0.228-2.027h0.54l0.216,1.799c0.42-0.875,1.079-1.859,2.171-1.859
		c1.055,0,1.331,1.056,1.331,1.919h-0.563c-0.012-0.587-0.048-1.439-0.816-1.439c-0.647,0-2.086,1.007-2.086,3.418V37.502z"/>
	<path fill="#FFFFFF" d="M-109.035,31.637h-1.847v-0.48h2.411v6.345h-0.563V31.637z M-108.135,29.322
		c0,0.348-0.288,0.624-0.636,0.624s-0.624-0.276-0.624-0.624c0-0.348,0.276-0.624,0.624-0.624S-108.135,28.975-108.135,29.322z"/>
	<path fill="#FFFFFF" d="M-101.919,29.083h-1.871v-0.479h2.435v8.899h-0.563V29.083z"/>
	<path fill="#FFFFFF" d="M-84.989,37.022v0.479h-4.593c0-1.883,0.312-2.591,2.111-4.162c0.768-0.672,1.883-1.547,1.883-2.663
		c0-0.899-0.576-1.499-1.487-1.499c-1.091,0-1.667,0.839-1.739,1.847h-0.564c0.108-1.343,0.9-2.327,2.315-2.327
		c1.248,0,2.039,0.768,2.039,2.015c0,1.259-1.032,2.087-1.895,2.854c-1.799,1.607-2.075,2.23-2.099,3.454H-84.989z"/>
	<path fill="#FFFFFF" d="M-78.016,35.954c-0.312,0.972-1.008,1.716-2.087,1.716c-1.032,0-1.727-0.696-2.051-1.619
		c-0.3-0.852-0.324-1.955-0.324-2.866c0-0.852,0.024-1.967,0.288-2.771c0.312-0.972,0.996-1.715,2.087-1.715
		c1.043,0,1.727,0.696,2.051,1.619c0.3,0.864,0.324,1.955,0.324,2.867C-77.729,34.024-77.752,35.163-78.016,35.954z M-78.52,30.714
		c-0.204-0.768-0.696-1.547-1.583-1.547c-0.948,0-1.427,0.864-1.631,1.679c-0.156,0.684-0.18,1.631-0.18,2.339
		c0,0.768,0.012,1.739,0.228,2.482c0.204,0.755,0.695,1.535,1.583,1.535c0.947,0,1.427-0.864,1.631-1.68
		c0.156-0.671,0.18-1.63,0.18-2.338C-78.292,32.417-78.304,31.445-78.52,30.714z"/>
	<path fill="#FFFFFF" d="M-70.816,35.954c-0.312,0.972-1.008,1.716-2.087,1.716c-1.032,0-1.727-0.696-2.051-1.619
		c-0.3-0.852-0.324-1.955-0.324-2.866c0-0.852,0.024-1.967,0.288-2.771c0.312-0.972,0.996-1.715,2.087-1.715
		c1.043,0,1.727,0.696,2.051,1.619c0.3,0.864,0.324,1.955,0.324,2.867C-70.529,34.024-70.553,35.163-70.816,35.954z M-71.32,30.714
		c-0.204-0.768-0.696-1.547-1.583-1.547c-0.948,0-1.427,0.864-1.631,1.679c-0.156,0.684-0.18,1.631-0.18,2.339
		c0,0.768,0.012,1.739,0.228,2.482c0.204,0.755,0.696,1.535,1.583,1.535c0.947,0,1.427-0.864,1.631-1.68
		c0.156-0.671,0.18-1.63,0.18-2.338C-71.092,32.417-71.104,31.445-71.32,30.714z"/>
	<path fill="#FFFFFF" d="M-63.533,28.867l-3.322,8.635h-0.624l3.227-8.155h-3.814v-0.48H-63.533z"/>
</g>
</svg>
