<?xml version="1.0" encoding="utf-8"?>
<!-- Generator: Adobe Illustrator 16.0.0, SVG Export Plug-In . SVG Version: 6.00 Build 0)  -->
<!DOCTYPE svg PUBLIC "-//W3C//DTD SVG 1.1//EN" "http://www.w3.org/Graphics/SVG/1.1/DTD/svg11.dtd">
<svg version="1.1" id="Layer_1" xmlns="http://www.w3.org/2000/svg" xmlns:xlink="http://www.w3.org/1999/xlink" x="0px" y="0px"
	 width="134.667px" height="72.167px" viewBox="-161.833 0 134.667 72.167" enable-background="new -161.833 0 134.667 72.167"
	 xml:space="preserve">
<g>
	<path fill="#FFFFFF" d="M-126.629,38.662h-0.636l-0.78-2.627h-2.938l-0.792,2.627h-0.624l2.878-8.983L-126.629,38.662z
		 M-130.863,35.555h2.699l-1.355-4.341L-130.863,35.555z"/>
	<path fill="#FFFFFF" d="M-124.418,34.536c0-0.768-0.06-1.535-0.288-2.278l0.528-0.072l0.216,1.043h0.024
		c0.324-0.66,0.936-1.043,1.679-1.043c1.056,0,2.458,0.852,2.458,3.346c0,2.543-1.631,3.262-2.495,3.262
		c-0.563,0-1.127-0.191-1.559-0.539v2.95h-0.563V34.536z M-123.855,37.689c0.396,0.349,0.875,0.625,1.416,0.625
		c0.719,0,2.075-0.504,2.075-2.819c0-2.207-1.188-2.831-1.907-2.831c-0.84,0-1.271,0.587-1.583,1.271V37.689z"/>
	<path fill="#FFFFFF" d="M-116.139,38.662h-0.563v-4.39l-0.228-2.027h0.54l0.216,1.799c0.419-0.875,1.079-1.859,2.171-1.859
		c1.055,0,1.331,1.056,1.331,1.919h-0.563c-0.012-0.587-0.048-1.439-0.816-1.439c-0.647,0-2.087,1.007-2.087,3.418V38.662z"/>
	<path fill="#FFFFFF" d="M-108.063,32.797h-1.847v-0.48h2.411v6.345h-0.563V32.797z M-107.164,30.482
		c0,0.348-0.288,0.624-0.636,0.624s-0.624-0.276-0.624-0.624c0-0.348,0.276-0.624,0.624-0.624S-107.164,30.134-107.164,30.482z"/>
	<path fill="#FFFFFF" d="M-100.947,30.242h-1.871v-0.479h2.435v8.899h-0.563V30.242z"/>
	<path fill="#FFFFFF" d="M-84.018,38.182v0.48h-4.593c0-1.883,0.312-2.592,2.111-4.162c0.768-0.672,1.883-1.547,1.883-2.663
		c0-0.899-0.576-1.499-1.487-1.499c-1.091,0-1.667,0.839-1.739,1.847h-0.564c0.108-1.343,0.9-2.327,2.315-2.327
		c1.247,0,2.039,0.768,2.039,2.015c0,1.259-1.032,2.087-1.895,2.854c-1.799,1.607-2.075,2.231-2.099,3.454H-84.018z"/>
	<path fill="#FFFFFF" d="M-77.045,37.114c-0.312,0.972-1.008,1.716-2.087,1.716c-1.032,0-1.727-0.696-2.051-1.619
		c-0.3-0.852-0.324-1.956-0.324-2.867c0-0.852,0.024-1.967,0.288-2.771c0.312-0.972,0.996-1.715,2.087-1.715
		c1.043,0,1.727,0.696,2.051,1.619c0.3,0.864,0.324,1.955,0.324,2.867C-76.757,35.184-76.781,36.322-77.045,37.114z M-77.549,31.874
		c-0.204-0.768-0.696-1.547-1.583-1.547c-0.948,0-1.427,0.864-1.631,1.679c-0.156,0.684-0.18,1.631-0.18,2.339
		c0,0.768,0.012,1.739,0.228,2.482c0.204,0.756,0.696,1.535,1.583,1.535c0.947,0,1.427-0.863,1.631-1.679
		c0.156-0.671,0.18-1.631,0.18-2.338C-77.321,33.577-77.333,32.605-77.549,31.874z"/>
	<path fill="#FFFFFF" d="M-69.845,37.114c-0.312,0.972-1.008,1.716-2.087,1.716c-1.032,0-1.727-0.696-2.051-1.619
		c-0.3-0.852-0.324-1.956-0.324-2.867c0-0.852,0.024-1.967,0.288-2.771c0.312-0.972,0.996-1.715,2.087-1.715
		c1.043,0,1.727,0.696,2.051,1.619c0.3,0.864,0.324,1.955,0.324,2.867C-69.558,35.184-69.582,36.322-69.845,37.114z M-70.349,31.874
		c-0.204-0.768-0.696-1.547-1.583-1.547c-0.948,0-1.427,0.864-1.631,1.679c-0.156,0.684-0.18,1.631-0.18,2.339
		c0,0.768,0.012,1.739,0.228,2.482c0.204,0.756,0.695,1.535,1.583,1.535c0.947,0,1.427-0.863,1.631-1.679
		c0.156-0.671,0.18-1.631,0.18-2.338C-70.121,33.577-70.133,32.605-70.349,31.874z"/>
	<path fill="#FFFFFF" d="M-66.724,37.906c0.336,0.24,0.792,0.408,1.188,0.408c1.835,0,2.663-2.735,2.579-4.222
		c-0.468,0.779-1.104,1.331-2.051,1.331c-1.439,0-2.135-1.355-2.135-2.626c0-1.499,0.792-2.938,2.446-2.938
		c0.9,0,1.511,0.54,1.883,1.332c0.335,0.731,0.419,1.679,0.419,2.482c0,1.08-0.144,2.183-0.587,3.178
		c-0.468,1.044-1.355,1.942-2.579,1.942c-0.492,0-1.02-0.144-1.439-0.407L-66.724,37.906z M-64.9,34.944
		c0.54,0,1.043-0.36,1.367-0.768c0.372-0.492,0.504-1.008,0.504-1.619c0-1.008-0.516-2.219-1.691-2.219
		c-1.355,0-1.859,1.283-1.859,2.446C-66.58,33.84-66.112,34.944-64.9,34.944z"/>
</g>
</svg>
