<?xml version="1.0" encoding="utf-8"?>
<!-- Generator: Adobe Illustrator 16.0.0, SVG Export Plug-In . SVG Version: 6.00 Build 0)  -->
<!DOCTYPE svg PUBLIC "-//W3C//DTD SVG 1.1//EN" "http://www.w3.org/Graphics/SVG/1.1/DTD/svg11.dtd">
<svg version="1.1" id="Layer_1" xmlns="http://www.w3.org/2000/svg" xmlns:xlink="http://www.w3.org/1999/xlink" x="0px" y="0px"
	 width="134.667px" height="72.167px" viewBox="-161.833 0 134.667 72.167" enable-background="new -161.833 0 134.667 72.167"
	 xml:space="preserve">
<g>
	<path fill="#FFFFFF" d="M-129.99,36.835h-0.636l-0.78-2.626h-2.938l-0.792,2.626h-0.624l2.878-8.982L-129.99,36.835z
		 M-134.224,33.729h2.699l-1.355-4.341L-134.224,33.729z"/>
	<path fill="#FFFFFF" d="M-124.097,30.491h0.563v3.13c0,1.08,0.036,2.159,0.252,3.214h-0.528l-0.24-1.798h-0.024
		c-0.24,0.947-1.248,1.93-2.243,1.93c-1.151,0-1.475-1.043-1.475-2.002v-4.474h0.564v4.21c0,1.199,0.3,1.787,0.983,1.787
		c0.936,0,2.147-1.031,2.147-3.43V30.491z"/>
	<path fill="#FFFFFF" d="M-120.087,37.663c0.372,0.443,0.971,0.72,1.559,0.72c0.708,0,1.619-0.516,1.619-2.111v-0.779
		c-0.432,0.455-1.164,0.779-1.787,0.779c-1.511,0-2.195-1.511-2.195-2.83c0-1.463,0.6-3.083,2.327-3.083
		c0.708,0,1.188,0.312,1.727,0.732l0.168-0.732h0.576c-0.288,1.091-0.276,2.231-0.276,3.346v2.639c0,1.871-1.295,2.519-2.267,2.519
		c-0.66,0-1.403-0.384-1.847-0.852L-120.087,37.663z M-116.933,31.762c-0.372-0.528-0.983-0.923-1.655-0.923
		c-1.307,0-1.739,1.415-1.739,2.495c0,2.003,1.163,2.458,1.679,2.458c0.648,0,1.379-0.408,1.715-0.972V31.762z"/>
	<path fill="#FFFFFF" d="M-109.697,30.491h0.563v3.13c0,1.08,0.036,2.159,0.252,3.214h-0.528l-0.24-1.798h-0.024
		c-0.24,0.947-1.248,1.93-2.243,1.93c-1.151,0-1.476-1.043-1.476-2.002v-4.474h0.564v4.21c0,1.199,0.3,1.787,0.983,1.787
		c0.936,0,2.147-1.031,2.147-3.43V30.491z"/>
	<path fill="#FFFFFF" d="M-102.545,31.499c-0.503-0.36-1.067-0.66-1.703-0.66c-0.635,0-1.259,0.479-1.259,1.151
		c0,0.744,0.828,1.091,1.403,1.307c0.972,0.372,1.991,0.755,1.991,1.991c0,1.056-0.936,1.679-1.907,1.679
		c-0.792,0-1.811-0.491-2.387-1.02l0.312-0.455c0.516,0.516,1.355,0.995,2.099,0.995c0.708,0,1.319-0.396,1.319-1.163
		c0-0.947-0.731-1.223-1.487-1.511c-0.875-0.335-1.907-0.744-1.907-1.871c0-0.9,0.912-1.583,1.859-1.583
		c0.731,0,1.332,0.252,1.907,0.672L-102.545,31.499z"/>
	<path fill="#FFFFFF" d="M-95.082,30.971h-2.327v4.33c0,0.612,0.228,1.187,1.007,1.187c0.708,0,1.199-0.527,1.475-1.127l0.54,0.132
		c-0.396,0.815-1.091,1.475-2.039,1.475c-0.816,0-1.547-0.396-1.547-2.002v-3.994h-1.427v-0.48h1.427v-2.039h0.564v2.039h2.327
		V30.971z"/>
	<path fill="#FFFFFF" d="M-80.178,36.355v0.479h-4.593c0-1.882,0.312-2.59,2.111-4.161c0.768-0.672,1.883-1.547,1.883-2.663
		c0-0.899-0.576-1.499-1.487-1.499c-1.091,0-1.667,0.839-1.739,1.847h-0.564c0.108-1.343,0.9-2.327,2.315-2.327
		c1.247,0,2.039,0.768,2.039,2.015c0,1.259-1.032,2.086-1.895,2.854c-1.799,1.607-2.075,2.231-2.099,3.454H-80.178z"/>
	<path fill="#FFFFFF" d="M-73.206,35.288c-0.312,0.972-1.008,1.715-2.087,1.715c-1.032,0-1.727-0.695-2.051-1.619
		c-0.3-0.852-0.324-1.955-0.324-2.867c0-0.851,0.024-1.967,0.288-2.77c0.312-0.972,0.996-1.715,2.087-1.715
		c1.043,0,1.727,0.696,2.051,1.619c0.3,0.864,0.324,1.955,0.324,2.866C-72.918,33.357-72.942,34.497-73.206,35.288z M-73.71,30.047
		c-0.204-0.768-0.696-1.547-1.583-1.547c-0.948,0-1.427,0.864-1.631,1.679c-0.156,0.684-0.18,1.631-0.18,2.338
		c0,0.768,0.012,1.739,0.228,2.483c0.204,0.755,0.695,1.535,1.583,1.535c0.947,0,1.427-0.863,1.631-1.679
		c0.156-0.671,0.18-1.631,0.18-2.339C-73.482,31.75-73.494,30.779-73.71,30.047z"/>
	<path fill="#FFFFFF" d="M-66.006,35.288c-0.312,0.972-1.008,1.715-2.087,1.715c-1.032,0-1.727-0.695-2.051-1.619
		c-0.3-0.852-0.324-1.955-0.324-2.867c0-0.851,0.024-1.967,0.288-2.77c0.312-0.972,0.996-1.715,2.087-1.715
		c1.043,0,1.727,0.696,2.051,1.619c0.3,0.864,0.324,1.955,0.324,2.866C-65.719,33.357-65.743,34.497-66.006,35.288z M-66.51,30.047
		c-0.204-0.768-0.696-1.547-1.583-1.547c-0.948,0-1.427,0.864-1.631,1.679c-0.156,0.684-0.18,1.631-0.18,2.338
		c0,0.768,0.012,1.739,0.228,2.483c0.204,0.755,0.696,1.535,1.583,1.535c0.947,0,1.427-0.863,1.631-1.679
		c0.156-0.671,0.18-1.631,0.18-2.339C-66.282,31.75-66.294,30.779-66.51,30.047z"/>
	<path fill="#FFFFFF" d="M-59.106,28.68h-3.119l-0.288,3.742c0.408-0.552,0.983-0.899,1.679-0.899c1.199,0,2.267,0.923,2.267,2.687
		c0,1.427-0.864,2.758-2.411,2.758c-0.936,0-1.631-0.563-2.135-1.295l0.419-0.324c0.36,0.635,1.032,1.139,1.787,1.139
		c1.067,0,1.775-1.031,1.775-2.23c0-1.727-1.055-2.255-1.691-2.255c-0.708,0-1.223,0.42-1.571,0.983l-0.671-0.132l0.348-4.653h3.61
		V28.68z"/>
</g>
</svg>
