<?xml version="1.0" encoding="utf-8"?>
<!-- Generator: Adobe Illustrator 16.0.0, SVG Export Plug-In . SVG Version: 6.00 Build 0)  -->
<!DOCTYPE svg PUBLIC "-//W3C//DTD SVG 1.1//EN" "http://www.w3.org/Graphics/SVG/1.1/DTD/svg11.dtd">
<svg version="1.1" id="Layer_1" xmlns="http://www.w3.org/2000/svg" xmlns:xlink="http://www.w3.org/1999/xlink" x="0px" y="0px"
	 width="134.667px" height="72.167px" viewBox="-161.833 0 134.667 72.167" enable-background="new -161.833 0 134.667 72.167"
	 xml:space="preserve">
<g>
	<path fill="#FFFFFF" d="M-131.901,38.496h-0.636l-0.779-2.626h-2.938l-0.792,2.626h-0.624l2.878-8.982L-131.901,38.496z
		 M-136.135,35.39h2.699l-1.355-4.341L-136.135,35.39z"/>
	<path fill="#FFFFFF" d="M-126.009,32.152h0.563v3.13c0,1.079,0.036,2.159,0.252,3.214h-0.528l-0.24-1.799h-0.024
		c-0.24,0.947-1.248,1.932-2.243,1.932c-1.151,0-1.476-1.044-1.476-2.004v-4.473h0.564v4.209c0,1.199,0.3,1.787,0.983,1.787
		c0.936,0,2.147-1.031,2.147-3.43V32.152z"/>
	<path fill="#FFFFFF" d="M-121.999,39.324c0.372,0.443,0.972,0.719,1.559,0.719c0.708,0,1.619-0.516,1.619-2.109v-0.78
		c-0.432,0.456-1.164,0.78-1.787,0.78c-1.511,0-2.195-1.512-2.195-2.831c0-1.463,0.6-3.083,2.327-3.083
		c0.708,0,1.188,0.312,1.727,0.732l0.168-0.732h0.576c-0.288,1.091-0.276,2.231-0.276,3.346v2.639c0,1.87-1.295,2.519-2.267,2.519
		c-0.66,0-1.403-0.383-1.847-0.852L-121.999,39.324z M-118.845,33.423c-0.372-0.528-0.983-0.923-1.655-0.923
		c-1.307,0-1.739,1.415-1.739,2.495c0,2.003,1.163,2.458,1.679,2.458c0.648,0,1.379-0.408,1.715-0.971V33.423z"/>
	<path fill="#FFFFFF" d="M-111.609,32.152h0.563v3.13c0,1.079,0.036,2.159,0.252,3.214h-0.528l-0.24-1.799h-0.024
		c-0.24,0.947-1.248,1.932-2.243,1.932c-1.151,0-1.475-1.044-1.475-2.004v-4.473h0.564v4.209c0,1.199,0.3,1.787,0.983,1.787
		c0.936,0,2.147-1.031,2.147-3.43V32.152z"/>
	<path fill="#FFFFFF" d="M-104.458,33.16c-0.503-0.36-1.067-0.66-1.703-0.66c-0.635,0-1.259,0.479-1.259,1.151
		c0,0.744,0.828,1.091,1.403,1.307c0.972,0.372,1.991,0.756,1.991,1.991c0,1.056-0.936,1.68-1.907,1.68
		c-0.792,0-1.811-0.492-2.387-1.02l0.312-0.456c0.516,0.516,1.355,0.995,2.099,0.995c0.708,0,1.319-0.396,1.319-1.163
		c0-0.947-0.731-1.224-1.487-1.511c-0.875-0.336-1.907-0.744-1.907-1.871c0-0.899,0.912-1.583,1.859-1.583
		c0.731,0,1.332,0.252,1.907,0.672L-104.458,33.16z"/>
	<path fill="#FFFFFF" d="M-96.993,32.632h-2.327v4.329c0,0.612,0.228,1.188,1.007,1.188c0.708,0,1.199-0.527,1.475-1.127l0.54,0.132
		c-0.396,0.815-1.091,1.476-2.039,1.476c-0.816,0-1.547-0.396-1.547-2.004v-3.993h-1.427v-0.48h1.427v-2.039h0.564v2.039h2.327
		V32.632z"/>
	<path fill="#FFFFFF" d="M-82.09,38.018v0.479h-4.593c0-1.883,0.312-2.59,2.111-4.161c0.768-0.672,1.883-1.547,1.883-2.663
		c0-0.899-0.576-1.499-1.487-1.499c-1.091,0-1.667,0.839-1.739,1.847h-0.564c0.108-1.343,0.9-2.327,2.315-2.327
		c1.248,0,2.039,0.768,2.039,2.015c0,1.259-1.032,2.087-1.895,2.854c-1.799,1.607-2.075,2.23-2.099,3.455H-82.09z"/>
	<path fill="#FFFFFF" d="M-75.118,36.949c-0.312,0.972-1.008,1.715-2.087,1.715c-1.032,0-1.727-0.695-2.051-1.619
		c-0.3-0.852-0.324-1.955-0.324-2.866c0-0.852,0.024-1.967,0.288-2.771c0.312-0.972,0.996-1.715,2.087-1.715
		c1.043,0,1.727,0.696,2.051,1.619c0.3,0.864,0.324,1.955,0.324,2.867C-74.83,35.019-74.854,36.158-75.118,36.949z M-75.622,31.708
		c-0.204-0.768-0.696-1.547-1.583-1.547c-0.948,0-1.427,0.864-1.631,1.679c-0.156,0.684-0.18,1.631-0.18,2.339
		c0,0.768,0.012,1.739,0.228,2.483c0.204,0.755,0.696,1.535,1.583,1.535c0.947,0,1.427-0.864,1.631-1.68
		c0.156-0.672,0.18-1.631,0.18-2.338C-75.394,33.412-75.406,32.44-75.622,31.708z"/>
	<path fill="#FFFFFF" d="M-69.693,38.018h1.595v0.479H-71.9v-0.479h1.643v-7.701l-1.727,0.54v-0.528l2.291-0.731V38.018z"/>
	<path fill="#FFFFFF" d="M-62.493,38.018h1.595v0.479H-64.7v-0.479h1.643v-7.701l-1.727,0.54v-0.528l2.291-0.731V38.018z"/>
</g>
</svg>
