<?xml version="1.0" encoding="utf-8"?>
<!-- Generator: Adobe Illustrator 16.0.0, SVG Export Plug-In . SVG Version: 6.00 Build 0)  -->
<!DOCTYPE svg PUBLIC "-//W3C//DTD SVG 1.1//EN" "http://www.w3.org/Graphics/SVG/1.1/DTD/svg11.dtd">
<svg version="1.1" id="Layer_1" xmlns="http://www.w3.org/2000/svg" xmlns:xlink="http://www.w3.org/1999/xlink" x="0px" y="0px"
	 width="134.667px" height="72.167px" viewBox="-161.833 0 134.667 72.167" enable-background="new -161.833 0 134.667 72.167"
	 xml:space="preserve">
<g>
	<path fill="#FFFFFF" d="M-141.823,30.866h2.159c1.008,0,1.703,0.552,2.063,1.223c0.288,0.528,0.528,1.523,0.528,3.095
		c0,2.194-0.54,3.13-0.696,3.358c-0.396,0.563-1.007,0.959-2.062,0.959h-1.991V30.866z M-141.259,39.021h1.067
		c0.947,0,1.739-0.132,2.159-1.104c0.336-0.768,0.36-1.907,0.36-2.734c0-0.828-0.024-2.075-0.396-2.819
		c-0.456-0.911-1.211-1.019-2.123-1.019h-1.067V39.021z"/>
	<path fill="#FFFFFF" d="M-130.126,39.058c-0.731,0.323-1.451,0.575-2.267,0.575c-1.859,0-2.542-1.667-2.542-3.274
		c0-1.607,0.708-3.334,2.579-3.334c1.067,0,2.327,0.768,2.327,3.395h-4.342c0.108,2.23,1.031,2.734,2.003,2.734
		c0.72,0,1.403-0.264,2.003-0.624L-130.126,39.058z M-130.594,35.939c0.06-1.092-0.587-2.435-1.835-2.435
		c-1.235,0-1.979,1.319-1.943,2.435H-130.594z"/>
	<path fill="#FFFFFF" d="M-122.83,38.565c-0.588,0.636-1.2,1.067-2.099,1.067c-1.115,0-2.65-0.695-2.65-3.238
		c0-2.566,1.415-3.37,2.603-3.37c0.959,0,1.667,0.504,2.183,1.283l-0.503,0.336c-0.336-0.66-0.9-1.139-1.679-1.139
		c-0.792,0-2.039,0.492-2.039,2.794c0,2.183,1.151,2.854,2.075,2.854c0.695,0,1.295-0.479,1.727-0.996L-122.83,38.565z"/>
	<path fill="#FFFFFF" d="M-115.726,39.058c-0.731,0.323-1.451,0.575-2.267,0.575c-1.859,0-2.542-1.667-2.542-3.274
		c0-1.607,0.708-3.334,2.578-3.334c1.068,0,2.327,0.768,2.327,3.395h-4.342c0.108,2.23,1.031,2.734,2.003,2.734
		c0.72,0,1.403-0.264,2.003-0.624L-115.726,39.058z M-116.194,35.939c0.06-1.092-0.587-2.435-1.835-2.435
		c-1.235,0-1.979,1.319-1.943,2.435H-116.194z"/>
	<path fill="#FFFFFF" d="M-113.576,35.075c0-0.839-0.096-1.511-0.228-2.051h0.576l0.156,0.828c0.36-0.504,0.863-0.828,1.487-0.828
		c0.516,0,0.803,0.312,0.983,0.768c0.324-0.408,0.755-0.768,1.307-0.768c0.815,0,1.248,0.54,1.248,1.332v5.145h-0.564V34.38
		c0-0.648-0.312-0.888-0.755-0.888c-0.504,0-0.924,0.396-1.164,0.815v5.193h-0.563v-4.869c0-0.48-0.036-1.127-0.672-1.127
		c-0.54,0-1.031,0.444-1.247,0.923v5.073h-0.564V35.075z"/>
	<path fill="#FFFFFF" d="M-105.224,30.602v2.962c0.432-0.348,0.996-0.54,1.559-0.54c0.876,0,2.495,0.72,2.495,3.263
		c0,2.471-1.403,3.346-2.458,3.346c-0.744,0-1.355-0.384-1.691-1.043l-0.228,1.043l-0.528-0.072c0.228-0.743,0.288-1.511,0.288-2.29
		v-6.668H-105.224z M-105.224,37.882c0.312,0.684,0.744,1.271,1.583,1.271c0.719,0,1.907-0.624,1.907-2.831
		c0-2.326-1.355-2.818-2.075-2.818c-0.54,0-1.02,0.276-1.416,0.624V37.882z"/>
	<path fill="#FFFFFF" d="M-94.126,39.058c-0.731,0.323-1.451,0.575-2.267,0.575c-1.859,0-2.542-1.667-2.542-3.274
		c0-1.607,0.708-3.334,2.578-3.334c1.068,0,2.327,0.768,2.327,3.395h-4.342c0.108,2.23,1.031,2.734,2.003,2.734
		c0.72,0,1.403-0.264,2.003-0.624L-94.126,39.058z M-94.594,35.939c0.06-1.092-0.587-2.435-1.835-2.435
		c-1.235,0-1.979,1.319-1.943,2.435H-94.594z"/>
	<path fill="#FFFFFF" d="M-90.309,39.501h-0.563v-4.39l-0.228-2.027h0.54l0.216,1.799c0.419-0.875,1.079-1.859,2.171-1.859
		c1.055,0,1.331,1.056,1.331,1.919h-0.563c-0.012-0.587-0.048-1.439-0.816-1.439c-0.647,0-2.087,1.007-2.087,3.418V39.501z"/>
	<path fill="#FFFFFF" d="M-72.587,39.021v0.479h-4.593c0-1.883,0.312-2.591,2.111-4.162c0.768-0.672,1.883-1.547,1.883-2.663
		c0-0.899-0.576-1.499-1.487-1.499c-1.091,0-1.667,0.839-1.739,1.847h-0.564c0.108-1.343,0.9-2.327,2.315-2.327
		c1.248,0,2.039,0.768,2.039,2.015c0,1.259-1.032,2.087-1.895,2.854c-1.799,1.606-2.075,2.23-2.099,3.454H-72.587z"/>
	<path fill="#FFFFFF" d="M-65.614,37.954c-0.312,0.971-1.008,1.715-2.087,1.715c-1.032,0-1.727-0.695-2.051-1.619
		c-0.3-0.852-0.324-1.955-0.324-2.866c0-0.852,0.024-1.967,0.288-2.771c0.312-0.972,0.996-1.715,2.087-1.715
		c1.043,0,1.727,0.696,2.051,1.619c0.3,0.864,0.324,1.955,0.324,2.867C-65.327,36.023-65.351,37.162-65.614,37.954z M-66.118,32.713
		c-0.204-0.768-0.696-1.547-1.583-1.547c-0.948,0-1.427,0.864-1.631,1.679c-0.156,0.684-0.18,1.631-0.18,2.339
		c0,0.768,0.012,1.739,0.228,2.482c0.204,0.756,0.695,1.535,1.583,1.535c0.947,0,1.427-0.863,1.631-1.679
		c0.156-0.672,0.18-1.632,0.18-2.339C-65.89,34.416-65.902,33.444-66.118,32.713z"/>
	<path fill="#FFFFFF" d="M-58.415,37.954c-0.312,0.971-1.008,1.715-2.087,1.715c-1.032,0-1.727-0.695-2.051-1.619
		c-0.3-0.852-0.324-1.955-0.324-2.866c0-0.852,0.024-1.967,0.288-2.771c0.312-0.972,0.996-1.715,2.087-1.715
		c1.043,0,1.727,0.696,2.051,1.619c0.3,0.864,0.324,1.955,0.324,2.867C-58.127,36.023-58.151,37.162-58.415,37.954z M-58.918,32.713
		c-0.204-0.768-0.696-1.547-1.583-1.547c-0.948,0-1.427,0.864-1.631,1.679c-0.156,0.684-0.18,1.631-0.18,2.339
		c0,0.768,0.012,1.739,0.228,2.482c0.204,0.756,0.696,1.535,1.583,1.535c0.947,0,1.427-0.863,1.631-1.679
		c0.156-0.672,0.18-1.632,0.18-2.339C-58.69,34.416-58.703,33.444-58.918,32.713z"/>
	<path fill="#FFFFFF" d="M-55.292,38.745c0.336,0.24,0.792,0.408,1.188,0.408c1.835,0,2.663-2.734,2.579-4.222
		c-0.468,0.779-1.104,1.331-2.051,1.331c-1.439,0-2.135-1.355-2.135-2.626c0-1.499,0.792-2.938,2.446-2.938
		c0.9,0,1.511,0.54,1.883,1.332c0.335,0.731,0.419,1.679,0.419,2.482c0,1.08-0.144,2.183-0.587,3.179
		c-0.468,1.043-1.355,1.942-2.579,1.942c-0.492,0-1.02-0.144-1.439-0.407L-55.292,38.745z M-53.469,35.783
		c0.54,0,1.043-0.36,1.367-0.768c0.372-0.492,0.504-1.008,0.504-1.619c0-1.008-0.516-2.219-1.691-2.219
		c-1.355,0-1.859,1.283-1.859,2.446C-55.148,34.68-54.681,35.783-53.469,35.783z"/>
</g>
</svg>
