<?xml version="1.0" encoding="utf-8"?>
<!-- Generator: Adobe Illustrator 16.0.0, SVG Export Plug-In . SVG Version: 6.00 Build 0)  -->
<!DOCTYPE svg PUBLIC "-//W3C//DTD SVG 1.1//EN" "http://www.w3.org/Graphics/SVG/1.1/DTD/svg11.dtd">
<svg version="1.1" id="Layer_1" xmlns="http://www.w3.org/2000/svg" xmlns:xlink="http://www.w3.org/1999/xlink" x="0px" y="0px"
	 width="134.667px" height="72.167px" viewBox="-161.833 0 134.667 72.167" enable-background="new -161.833 0 134.667 72.167"
	 xml:space="preserve">
<g>
	<path fill="#FFFFFF" d="M-134.332,29.866v5.901c0,2.087-0.755,2.902-2.327,2.902c-1.391,0-2.159-0.744-2.159-2.771v-0.923h0.563
		v1.235c0,1.367,0.492,1.991,1.583,1.979c1.224-0.024,1.775-0.792,1.775-1.979v-5.864h-1.631v-0.48H-134.332z"/>
	<path fill="#FFFFFF" d="M-127.564,38.633c-0.12-0.348-0.204-0.72-0.24-1.079c-0.444,0.636-0.912,1.079-1.739,1.079
		c-1.163,0-1.763-0.947-1.763-2.015c0-1.211,0.684-2.255,1.907-2.255c0.516,0,1.104,0.204,1.547,0.42
		c0.036-1.607-0.251-2.279-1.295-2.279c-0.552,0-1.02,0.192-1.523,0.419l-0.132-0.516c0.552-0.216,1.091-0.384,1.691-0.384
		c1.164,0,1.859,0.815,1.823,2.231l-0.072,2.59c-0.012,0.612,0.144,1.188,0.312,1.715L-127.564,38.633z M-127.888,35.227
		c-0.396-0.204-0.875-0.384-1.379-0.384c-1.055,0-1.475,0.888-1.475,1.823c0,0.708,0.396,1.487,1.199,1.487
		c0.792,0,1.271-0.636,1.655-1.283V35.227z"/>
	<path fill="#FFFFFF" d="M-123.422,38.501h-0.564v-3.178c0-1.08-0.036-2.159-0.252-3.238h0.528l0.228,1.823h0.024
		c0.24-0.948,1.247-1.883,2.255-1.883c1.151,0,1.475,0.996,1.475,1.955v4.521h-0.564v-4.258c0-0.731,0-1.739-0.983-1.739
		c-0.912,0-2.146,0.912-2.146,3.381V38.501z"/>
	<path fill="#FFFFFF" d="M-113.044,32.156h0.563v3.13c0,1.08,0.036,2.159,0.252,3.214h-0.528l-0.24-1.799h-0.024
		c-0.24,0.947-1.248,1.931-2.243,1.931c-1.151,0-1.476-1.043-1.476-2.003v-4.474h0.564v4.21c0,1.199,0.3,1.787,0.983,1.787
		c0.936,0,2.147-1.031,2.147-3.43V32.156z"/>
	<path fill="#FFFFFF" d="M-105.964,38.633c-0.12-0.348-0.204-0.72-0.24-1.079c-0.444,0.636-0.912,1.079-1.739,1.079
		c-1.163,0-1.763-0.947-1.763-2.015c0-1.211,0.684-2.255,1.907-2.255c0.516,0,1.104,0.204,1.547,0.42
		c0.036-1.607-0.251-2.279-1.295-2.279c-0.552,0-1.02,0.192-1.523,0.419l-0.132-0.516c0.552-0.216,1.091-0.384,1.691-0.384
		c1.164,0,1.859,0.815,1.823,2.231l-0.072,2.59c-0.012,0.612,0.144,1.188,0.312,1.715L-105.964,38.633z M-106.288,35.227
		c-0.396-0.204-0.875-0.384-1.379-0.384c-1.055,0-1.475,0.888-1.475,1.823c0,0.708,0.396,1.487,1.199,1.487
		c0.792,0,1.271-0.636,1.655-1.283V35.227z"/>
	<path fill="#FFFFFF" d="M-101.247,38.501h-0.563v-4.39l-0.228-2.027h0.54l0.216,1.799c0.419-0.875,1.079-1.859,2.171-1.859
		c1.055,0,1.331,1.056,1.331,1.919h-0.563c-0.012-0.587-0.048-1.439-0.816-1.439c-0.647,0-2.087,1.007-2.087,3.417V38.501z"/>
	<path fill="#FFFFFF" d="M-90.497,32.156l-2.375,6.033c-0.336,0.863-0.875,2.339-1.991,2.339c-0.719,0-1.247-0.564-1.463-1.212
		l0.479-0.252c0.156,0.432,0.456,0.983,0.983,0.983c0.612,0,0.924-0.707,1.14-1.188l0.479-1.091l-2.063-5.613h0.624l1.715,4.869
		l1.823-4.869H-90.497z"/>
	<path fill="#FFFFFF" d="M-76.325,38.021v0.479h-4.593c0-1.883,0.312-2.591,2.111-4.162c0.768-0.672,1.883-1.547,1.883-2.663
		c0-0.899-0.576-1.499-1.487-1.499c-1.091,0-1.667,0.839-1.739,1.847h-0.564c0.108-1.343,0.9-2.327,2.315-2.327
		c1.248,0,2.039,0.768,2.039,2.015c0,1.259-1.032,2.087-1.895,2.854c-1.799,1.606-2.075,2.23-2.099,3.454H-76.325z"/>
	<path fill="#FFFFFF" d="M-69.353,36.954c-0.312,0.971-1.008,1.715-2.087,1.715c-1.032,0-1.727-0.695-2.051-1.619
		c-0.3-0.852-0.324-1.955-0.324-2.866c0-0.852,0.024-1.967,0.288-2.771c0.312-0.972,0.996-1.715,2.087-1.715
		c1.043,0,1.727,0.696,2.051,1.619c0.3,0.864,0.324,1.955,0.324,2.867C-69.065,35.023-69.089,36.162-69.353,36.954z M-69.857,31.713
		c-0.204-0.768-0.696-1.547-1.583-1.547c-0.948,0-1.427,0.864-1.631,1.679c-0.156,0.684-0.18,1.631-0.18,2.339
		c0,0.768,0.012,1.738,0.228,2.482c0.204,0.756,0.696,1.535,1.583,1.535c0.947,0,1.427-0.863,1.631-1.679
		c0.156-0.672,0.18-1.631,0.18-2.339C-69.629,33.416-69.641,32.444-69.857,31.713z"/>
	<path fill="#FFFFFF" d="M-62.153,36.954c-0.312,0.971-1.008,1.715-2.087,1.715c-1.032,0-1.727-0.695-2.051-1.619
		c-0.3-0.852-0.324-1.955-0.324-2.866c0-0.852,0.024-1.967,0.288-2.771c0.312-0.972,0.996-1.715,2.087-1.715
		c1.043,0,1.727,0.696,2.051,1.619c0.3,0.864,0.324,1.955,0.324,2.867C-61.865,35.023-61.889,36.162-62.153,36.954z M-62.657,31.713
		c-0.204-0.768-0.696-1.547-1.583-1.547c-0.948,0-1.427,0.864-1.631,1.679c-0.156,0.684-0.18,1.631-0.18,2.339
		c0,0.768,0.012,1.738,0.228,2.482c0.204,0.756,0.696,1.535,1.583,1.535c0.947,0,1.427-0.863,1.631-1.679
		c0.156-0.672,0.18-1.631,0.18-2.339C-62.429,33.416-62.441,32.444-62.657,31.713z"/>
	<path fill="#FFFFFF" d="M-59.403,31.964c0-1.391,0.996-2.267,2.363-2.267c1.391,0,2.327,0.864,2.327,2.267
		c0,0.828-0.42,1.691-1.199,2.027c1.019,0.36,1.511,1.164,1.511,2.23c0,1.487-0.924,2.411-2.639,2.411
		c-1.775,0-2.639-0.959-2.639-2.411c0-1.067,0.479-1.858,1.511-2.23C-58.947,33.656-59.403,32.792-59.403,31.964z M-57.04,38.153
		c1.211,0,2.075-0.684,2.075-1.932c0-1.235-0.863-1.979-2.075-1.979s-2.075,0.744-2.075,1.979
		C-59.115,37.47-58.251,38.153-57.04,38.153z M-57.052,30.178c-1.139,0-1.787,0.708-1.787,1.871c0,1.056,0.756,1.715,1.787,1.715
		c1.091,0,1.775-0.696,1.775-1.799C-55.277,30.861-55.961,30.178-57.052,30.178z"/>
</g>
</svg>
