<?xml version="1.0" encoding="utf-8"?>
<!-- Generator: Adobe Illustrator 16.0.0, SVG Export Plug-In . SVG Version: 6.00 Build 0)  -->
<!DOCTYPE svg PUBLIC "-//W3C//DTD SVG 1.1//EN" "http://www.w3.org/Graphics/SVG/1.1/DTD/svg11.dtd">
<svg version="1.1" id="Layer_1" xmlns="http://www.w3.org/2000/svg" xmlns:xlink="http://www.w3.org/1999/xlink" x="0px" y="0px"
	 width="134.667px" height="72.167px" viewBox="-161.833 0 134.667 72.167" enable-background="new -161.833 0 134.667 72.167"
	 xml:space="preserve">
<g>
	<path fill="#FFFFFF" d="M-123.99,27.532v5.901c0,2.087-0.755,2.902-2.327,2.902c-1.391,0-2.159-0.743-2.159-2.771v-0.923h0.563
		v1.235c0,1.367,0.492,1.991,1.583,1.979c1.224-0.024,1.775-0.792,1.775-1.979v-5.865h-1.631v-0.48H-123.99z"/>
	<path fill="#FFFFFF" d="M-117.102,29.822h0.563v3.13c0,1.08,0.036,2.159,0.252,3.214h-0.528l-0.24-1.799h-0.024
		c-0.24,0.947-1.248,1.931-2.243,1.931c-1.151,0-1.475-1.043-1.475-2.003v-4.474h0.564v4.21c0,1.199,0.3,1.787,0.983,1.787
		c0.936,0,2.147-1.032,2.147-3.43V29.822z"/>
	<path fill="#FFFFFF" d="M-111.713,27.748h-1.871v-0.479h2.435v8.899h-0.563V27.748z"/>
	<path fill="#FFFFFF" d="M-101.755,29.822l-2.375,6.033c-0.336,0.863-0.875,2.339-1.991,2.339c-0.719,0-1.247-0.564-1.463-1.212
		l0.479-0.252c0.156,0.432,0.456,0.983,0.983,0.983c0.612,0,0.924-0.707,1.14-1.188l0.479-1.091l-2.063-5.613h0.624l1.715,4.87
		l1.823-4.87H-101.755z"/>
	<path fill="#FFFFFF" d="M-87.583,35.688v0.479h-4.593c0-1.883,0.312-2.591,2.111-4.162c0.768-0.672,1.883-1.547,1.883-2.663
		c0-0.899-0.576-1.499-1.487-1.499c-1.091,0-1.667,0.839-1.739,1.847h-0.564c0.108-1.343,0.9-2.327,2.315-2.327
		c1.248,0,2.039,0.768,2.039,2.015c0,1.259-1.032,2.087-1.895,2.854c-1.799,1.607-2.075,2.23-2.099,3.454H-87.583z"/>
	<path fill="#FFFFFF" d="M-80.611,34.62c-0.312,0.972-1.008,1.715-2.087,1.715c-1.032,0-1.727-0.695-2.051-1.619
		c-0.3-0.852-0.324-1.955-0.324-2.866c0-0.852,0.024-1.967,0.288-2.771c0.312-0.972,0.996-1.715,2.087-1.715
		c1.043,0,1.727,0.696,2.051,1.619c0.3,0.864,0.324,1.955,0.324,2.867C-80.323,32.689-80.347,33.828-80.611,34.62z M-81.115,29.379
		c-0.204-0.768-0.696-1.547-1.583-1.547c-0.948,0-1.427,0.864-1.631,1.679c-0.156,0.684-0.18,1.631-0.18,2.339
		c0,0.768,0.012,1.739,0.228,2.482c0.204,0.755,0.696,1.535,1.583,1.535c0.947,0,1.427-0.864,1.631-1.679
		c0.156-0.671,0.18-1.631,0.18-2.338C-80.887,31.082-80.899,30.11-81.115,29.379z"/>
	<path fill="#FFFFFF" d="M-73.411,34.62c-0.312,0.972-1.008,1.715-2.087,1.715c-1.032,0-1.727-0.695-2.051-1.619
		c-0.3-0.852-0.324-1.955-0.324-2.866c0-0.852,0.024-1.967,0.288-2.771c0.312-0.972,0.996-1.715,2.087-1.715
		c1.043,0,1.727,0.696,2.051,1.619c0.3,0.864,0.324,1.955,0.324,2.867C-73.123,32.689-73.147,33.828-73.411,34.62z M-73.915,29.379
		c-0.204-0.768-0.696-1.547-1.583-1.547c-0.948,0-1.427,0.864-1.631,1.679c-0.156,0.684-0.18,1.631-0.18,2.339
		c0,0.768,0.012,1.739,0.228,2.482c0.204,0.755,0.696,1.535,1.583,1.535c0.947,0,1.427-0.864,1.631-1.679
		c0.156-0.671,0.18-1.631,0.18-2.338C-73.687,31.082-73.699,30.11-73.915,29.379z"/>
	<path fill="#FFFFFF" d="M-70.289,35.412c0.336,0.24,0.792,0.408,1.188,0.408c1.835,0,2.663-2.735,2.579-4.222
		c-0.468,0.779-1.104,1.331-2.051,1.331c-1.439,0-2.135-1.355-2.135-2.626c0-1.499,0.792-2.938,2.446-2.938
		c0.9,0,1.511,0.54,1.883,1.332c0.336,0.731,0.419,1.679,0.419,2.482c0,1.08-0.144,2.183-0.587,3.178
		c-0.468,1.043-1.355,1.943-2.579,1.943c-0.492,0-1.02-0.144-1.439-0.407L-70.289,35.412z M-68.466,32.449
		c0.54,0,1.043-0.36,1.367-0.768c0.372-0.492,0.504-1.008,0.504-1.619c0-1.008-0.516-2.219-1.691-2.219
		c-1.355,0-1.859,1.283-1.859,2.446C-70.145,31.346-69.677,32.449-68.466,32.449z"/>
</g>
</svg>
