<?xml version="1.0" encoding="utf-8"?>
<!-- Generator: Adobe Illustrator 16.0.0, SVG Export Plug-In . SVG Version: 6.00 Build 0)  -->
<!DOCTYPE svg PUBLIC "-//W3C//DTD SVG 1.1//EN" "http://www.w3.org/Graphics/SVG/1.1/DTD/svg11.dtd">
<svg version="1.1" id="Layer_1" xmlns="http://www.w3.org/2000/svg" xmlns:xlink="http://www.w3.org/1999/xlink" x="0px" y="0px"
	 width="134.667px" height="72.167px" viewBox="-161.833 0 134.667 72.167" enable-background="new -161.833 0 134.667 72.167"
	 xml:space="preserve">
<g>
	<path fill="#FFFFFF" d="M-124.322,33.427v5.901c0,2.086-0.755,2.902-2.327,2.902c-1.391,0-2.159-0.744-2.159-2.771v-0.923h0.563
		v1.235c0,1.367,0.492,1.99,1.583,1.979c1.224-0.023,1.775-0.791,1.775-1.979v-5.865h-1.631v-0.479H-124.322z"/>
	<path fill="#FFFFFF" d="M-117.434,35.717h0.563v3.131c0,1.08,0.036,2.159,0.252,3.215h-0.528l-0.24-1.799h-0.024
		c-0.24,0.947-1.248,1.93-2.243,1.93c-1.151,0-1.475-1.043-1.475-2.002v-4.475h0.564v4.211c0,1.199,0.3,1.787,0.983,1.787
		c0.936,0,2.147-1.032,2.147-3.431V35.717z"/>
	<path fill="#FFFFFF" d="M-113.412,42.062h-0.564v-3.179c0-1.079-0.036-2.159-0.252-3.238h0.528l0.228,1.823h0.024
		c0.24-0.947,1.247-1.883,2.255-1.883c1.151,0,1.475,0.995,1.475,1.955v4.521h-0.564v-4.258c0-0.732,0-1.739-0.983-1.739
		c-0.912,0-2.146,0.911-2.146,3.382V42.062z"/>
	<path fill="#FFFFFF" d="M-102.254,41.618c-0.731,0.323-1.451,0.575-2.267,0.575c-1.859,0-2.542-1.666-2.542-3.273
		s0.708-3.334,2.579-3.334c1.067,0,2.327,0.768,2.327,3.394h-4.342c0.108,2.231,1.031,2.735,2.003,2.735
		c0.72,0,1.403-0.265,2.003-0.625L-102.254,41.618z M-102.722,38.5c0.06-1.092-0.587-2.435-1.835-2.435
		c-1.235,0-1.979,1.319-1.943,2.435H-102.722z"/>
	<path fill="#FFFFFF" d="M-87.915,41.582v0.48h-4.593c0-1.883,0.312-2.591,2.111-4.162c0.768-0.672,1.883-1.547,1.883-2.663
		c0-0.899-0.576-1.499-1.487-1.499c-1.091,0-1.667,0.839-1.739,1.847h-0.564c0.108-1.344,0.9-2.327,2.315-2.327
		c1.248,0,2.039,0.768,2.039,2.015c0,1.259-1.032,2.086-1.895,2.854c-1.799,1.607-2.075,2.231-2.099,3.454H-87.915z"/>
	<path fill="#FFFFFF" d="M-80.942,40.515c-0.312,0.972-1.008,1.716-2.087,1.716c-1.032,0-1.727-0.696-2.051-1.619
		c-0.3-0.852-0.324-1.955-0.324-2.867c0-0.852,0.024-1.967,0.288-2.77c0.312-0.972,0.996-1.715,2.087-1.715
		c1.043,0,1.727,0.696,2.051,1.619c0.3,0.864,0.324,1.955,0.324,2.866C-80.655,38.584-80.679,39.723-80.942,40.515z M-81.446,35.274
		c-0.204-0.768-0.696-1.547-1.583-1.547c-0.948,0-1.427,0.864-1.631,1.679c-0.156,0.684-0.18,1.631-0.18,2.338
		c0,0.768,0.012,1.739,0.228,2.482c0.204,0.756,0.696,1.535,1.583,1.535c0.947,0,1.427-0.863,1.631-1.679
		c0.156-0.671,0.18-1.631,0.18-2.339C-81.218,36.977-81.23,36.006-81.446,35.274z"/>
	<path fill="#FFFFFF" d="M-75.518,41.582h1.595v0.48h-3.802v-0.48h1.643v-7.7l-1.727,0.54v-0.528l2.291-0.731V41.582z"/>
	<path fill="#FFFFFF" d="M-69.097,37.156c1.043,0,1.931-0.743,1.931-1.823c0-0.887-0.755-1.595-1.655-1.595
		c-0.804,0-1.439,0.516-1.799,1.187l-0.479-0.264c0.479-0.864,1.319-1.403,2.327-1.403c1.211,0,2.171,0.972,2.171,2.159
		c0,0.9-0.588,1.583-1.379,1.931c1.091,0.348,1.775,1.188,1.775,2.327c0,1.475-1.067,2.518-2.554,2.518
		c-1.151,0-1.859-0.551-2.459-1.486l0.504-0.301c0.384,0.805,1.007,1.309,1.931,1.309c1.188,0,2.015-0.721,2.015-1.932
		c0-1.487-1.043-2.146-2.327-2.146V37.156z"/>
</g>
</svg>
