<?xml version="1.0" encoding="utf-8"?>
<!-- Generator: Adobe Illustrator 16.0.0, SVG Export Plug-In . SVG Version: 6.00 Build 0)  -->
<!DOCTYPE svg PUBLIC "-//W3C//DTD SVG 1.1//EN" "http://www.w3.org/Graphics/SVG/1.1/DTD/svg11.dtd">
<svg version="1.1" id="Layer_1" xmlns="http://www.w3.org/2000/svg" xmlns:xlink="http://www.w3.org/1999/xlink" x="0px" y="0px"
	 width="134.667px" height="72.167px" viewBox="-161.833 0 134.667 72.167" enable-background="new -161.833 0 134.667 72.167"
	 xml:space="preserve">
<g>
	<path fill="#FFFFFF" d="M-121.987,29.204v5.901c0,2.086-0.755,2.902-2.327,2.902c-1.391,0-2.159-0.743-2.159-2.77v-0.923h0.563
		v1.235c0,1.367,0.492,1.99,1.583,1.979c1.224-0.024,1.775-0.792,1.775-1.979v-5.865h-1.631v-0.479H-121.987z"/>
	<path fill="#FFFFFF" d="M-115.099,31.495h0.563v3.13c0,1.079,0.036,2.159,0.252,3.214h-0.528l-0.24-1.799h-0.024
		c-0.24,0.947-1.248,1.931-2.243,1.931c-1.151,0-1.475-1.043-1.475-2.003v-4.473h0.564v4.209c0,1.199,0.3,1.787,0.983,1.787
		c0.936,0,2.147-1.031,2.147-3.43V31.495z"/>
	<path fill="#FFFFFF" d="M-111.077,37.839h-0.564v-3.178c0-1.08-0.036-2.159-0.252-3.238h0.528l0.228,1.823h0.024
		c0.24-0.948,1.247-1.883,2.255-1.883c1.151,0,1.475,0.996,1.475,1.955v4.521h-0.564v-4.257c0-0.731,0-1.739-0.983-1.739
		c-0.912,0-2.146,0.911-2.146,3.382V37.839z"/>
	<path fill="#FFFFFF" d="M-99.92,37.396c-0.731,0.323-1.451,0.575-2.267,0.575c-1.859,0-2.542-1.667-2.542-3.273
		c0-1.607,0.708-3.334,2.579-3.334c1.067,0,2.327,0.768,2.327,3.394h-4.342c0.108,2.23,1.031,2.734,2.003,2.734
		c0.72,0,1.403-0.264,2.003-0.624L-99.92,37.396z M-100.388,34.277c0.06-1.091-0.587-2.435-1.835-2.435
		c-1.235,0-1.979,1.319-1.943,2.435H-100.388z"/>
	<path fill="#FFFFFF" d="M-85.58,37.359v0.479h-4.593c0-1.883,0.312-2.59,2.111-4.161c0.768-0.672,1.883-1.547,1.883-2.663
		c0-0.899-0.576-1.499-1.487-1.499c-1.091,0-1.667,0.839-1.739,1.847h-0.564c0.108-1.343,0.9-2.327,2.315-2.327
		c1.248,0,2.039,0.768,2.039,2.015c0,1.259-1.032,2.086-1.895,2.854c-1.799,1.607-2.075,2.23-2.099,3.454H-85.58z"/>
	<path fill="#FFFFFF" d="M-78.608,36.292c-0.312,0.972-1.008,1.715-2.087,1.715c-1.032,0-1.727-0.695-2.051-1.619
		c-0.3-0.852-0.324-1.955-0.324-2.866c0-0.851,0.024-1.967,0.288-2.77c0.312-0.972,0.996-1.715,2.087-1.715
		c1.043,0,1.727,0.696,2.051,1.619c0.3,0.864,0.324,1.955,0.324,2.866C-78.32,34.361-78.344,35.5-78.608,36.292z M-79.112,31.051
		c-0.204-0.768-0.696-1.547-1.583-1.547c-0.948,0-1.427,0.864-1.631,1.679c-0.156,0.684-0.18,1.631-0.18,2.338
		c0,0.768,0.012,1.739,0.228,2.482c0.204,0.756,0.696,1.535,1.583,1.535c0.947,0,1.427-0.863,1.631-1.679
		c0.156-0.671,0.18-1.631,0.18-2.339C-78.884,32.754-78.896,31.783-79.112,31.051z"/>
	<path fill="#FFFFFF" d="M-73.183,37.359h1.595v0.479h-3.802v-0.479h1.643v-7.7l-1.727,0.54v-0.528l2.291-0.731V37.359z"/>
	<path fill="#FFFFFF" d="M-64.208,36.292c-0.312,0.972-1.008,1.715-2.087,1.715c-1.032,0-1.727-0.695-2.051-1.619
		c-0.3-0.852-0.324-1.955-0.324-2.866c0-0.851,0.024-1.967,0.288-2.77c0.312-0.972,0.996-1.715,2.087-1.715
		c1.043,0,1.727,0.696,2.051,1.619c0.3,0.864,0.324,1.955,0.324,2.866C-63.92,34.361-63.944,35.5-64.208,36.292z M-64.712,31.051
		c-0.204-0.768-0.696-1.547-1.583-1.547c-0.948,0-1.427,0.864-1.631,1.679c-0.156,0.684-0.18,1.631-0.18,2.338
		c0,0.768,0.012,1.739,0.228,2.482c0.204,0.756,0.695,1.535,1.583,1.535c0.947,0,1.427-0.863,1.631-1.679
		c0.156-0.671,0.18-1.631,0.18-2.339C-64.484,32.754-64.496,31.783-64.712,31.051z"/>
</g>
</svg>
