<?xml version="1.0" encoding="utf-8"?>
<!-- Generator: Adobe Illustrator 16.0.0, SVG Export Plug-In . SVG Version: 6.00 Build 0)  -->
<!DOCTYPE svg PUBLIC "-//W3C//DTD SVG 1.1//EN" "http://www.w3.org/Graphics/SVG/1.1/DTD/svg11.dtd">
<svg version="1.1" id="Layer_1" xmlns="http://www.w3.org/2000/svg" xmlns:xlink="http://www.w3.org/1999/xlink" x="0px" y="0px"
	 width="134.667px" height="72.167px" viewBox="-161.833 0 134.667 72.167" enable-background="new -161.833 0 134.667 72.167"
	 xml:space="preserve">
<g>
	<path fill="#FFFFFF" d="M-126.267,31.862h0.624v8.636h-0.563v-7.496h-0.024l-2.003,4.798l-2.003-4.798l-0.024,0.024v7.472h-0.564
		v-8.636h0.624l1.967,4.75L-126.267,31.862z"/>
	<path fill="#FFFFFF" d="M-119.559,40.63c-0.12-0.348-0.204-0.72-0.24-1.079c-0.444,0.636-0.912,1.079-1.739,1.079
		c-1.163,0-1.763-0.947-1.763-2.015c0-1.212,0.684-2.255,1.907-2.255c0.516,0,1.104,0.204,1.547,0.42
		c0.036-1.607-0.251-2.279-1.295-2.279c-0.552,0-1.02,0.192-1.523,0.42l-0.132-0.516c0.552-0.216,1.091-0.384,1.691-0.384
		c1.164,0,1.859,0.815,1.823,2.23l-0.072,2.591c-0.012,0.612,0.144,1.188,0.312,1.715L-119.559,40.63z M-119.883,37.224
		c-0.396-0.204-0.875-0.384-1.379-0.384c-1.055,0-1.475,0.888-1.475,1.823c0,0.708,0.396,1.487,1.199,1.487
		c0.792,0,1.271-0.636,1.655-1.283V37.224z"/>
	<path fill="#FFFFFF" d="M-114.842,40.498h-0.563v-4.39l-0.228-2.026h0.54l0.216,1.799c0.419-0.876,1.079-1.859,2.171-1.859
		c1.055,0,1.331,1.056,1.331,1.919h-0.563c-0.012-0.588-0.048-1.439-0.816-1.439c-0.647,0-2.087,1.008-2.087,3.419V40.498z"/>
	<path fill="#FFFFFF" d="M-104.164,39.562c-0.588,0.636-1.2,1.067-2.099,1.067c-1.115,0-2.65-0.695-2.65-3.238
		c0-2.566,1.415-3.37,2.603-3.37c0.959,0,1.667,0.504,2.183,1.283l-0.503,0.336c-0.336-0.659-0.9-1.14-1.679-1.14
		c-0.792,0-2.039,0.492-2.039,2.795c0,2.183,1.151,2.854,2.075,2.854c0.695,0,1.295-0.479,1.727-0.995L-104.164,39.562z"/>
	<path fill="#FFFFFF" d="M-101.473,31.599h0.564v3.934h0.024c0.384-0.792,1.151-1.512,2.111-1.512c0.587,0,1.511,0.468,1.511,1.859
		v4.617h-0.564v-3.981c0-0.804-0.108-2.016-1.043-2.016c-1.067,0-2.039,1.332-2.039,2.807v3.19h-0.564V31.599z"/>
	<path fill="#FFFFFF" d="M-82.72,40.019v0.479h-4.593c0-1.883,0.312-2.591,2.111-4.162c0.768-0.671,1.883-1.547,1.883-2.662
		c0-0.899-0.576-1.499-1.487-1.499c-1.091,0-1.667,0.84-1.739,1.847h-0.564c0.108-1.343,0.9-2.327,2.315-2.327
		c1.247,0,2.039,0.768,2.039,2.015c0,1.259-1.032,2.087-1.895,2.854c-1.799,1.606-2.075,2.23-2.099,3.454H-82.72z"/>
	<path fill="#FFFFFF" d="M-75.748,38.951c-0.312,0.972-1.008,1.715-2.087,1.715c-1.032,0-1.727-0.695-2.051-1.619
		c-0.3-0.852-0.324-1.955-0.324-2.866c0-0.852,0.024-1.967,0.288-2.771c0.312-0.972,0.996-1.715,2.087-1.715
		c1.043,0,1.727,0.696,2.051,1.62c0.3,0.863,0.324,1.954,0.324,2.866C-75.46,37.02-75.484,38.159-75.748,38.951z M-76.251,33.71
		c-0.204-0.768-0.696-1.547-1.583-1.547c-0.948,0-1.427,0.863-1.631,1.679c-0.156,0.684-0.18,1.631-0.18,2.339
		c0,0.768,0.012,1.739,0.228,2.482c0.204,0.756,0.696,1.535,1.583,1.535c0.947,0,1.427-0.863,1.631-1.679
		c0.156-0.672,0.18-1.632,0.18-2.339C-76.023,35.413-76.036,34.441-76.251,33.71z"/>
	<path fill="#FFFFFF" d="M-68.548,38.951c-0.312,0.972-1.008,1.715-2.087,1.715c-1.032,0-1.727-0.695-2.051-1.619
		c-0.3-0.852-0.324-1.955-0.324-2.866c0-0.852,0.024-1.967,0.288-2.771c0.312-0.972,0.996-1.715,2.087-1.715
		c1.043,0,1.727,0.696,2.051,1.62c0.3,0.863,0.324,1.954,0.324,2.866C-68.26,37.02-68.284,38.159-68.548,38.951z M-69.052,33.71
		c-0.204-0.768-0.696-1.547-1.583-1.547c-0.948,0-1.427,0.863-1.631,1.679c-0.156,0.684-0.18,1.631-0.18,2.339
		c0,0.768,0.012,1.739,0.228,2.482c0.204,0.756,0.695,1.535,1.583,1.535c0.947,0,1.427-0.863,1.631-1.679
		c0.156-0.672,0.18-1.632,0.18-2.339C-68.824,35.413-68.836,34.441-69.052,33.71z"/>
	<path fill="#FFFFFF" d="M-61.121,40.019v0.479h-4.593c0-1.883,0.312-2.591,2.111-4.162c0.768-0.671,1.883-1.547,1.883-2.662
		c0-0.899-0.576-1.499-1.487-1.499c-1.091,0-1.667,0.84-1.739,1.847h-0.564c0.108-1.343,0.9-2.327,2.315-2.327
		c1.247,0,2.039,0.768,2.039,2.015c0,1.259-1.032,2.087-1.895,2.854c-1.799,1.606-2.075,2.23-2.099,3.454H-61.121z"/>
</g>
</svg>
