<?xml version="1.0" encoding="utf-8"?>
<!-- Generator: Adobe Illustrator 16.0.0, SVG Export Plug-In . SVG Version: 6.00 Build 0)  -->
<!DOCTYPE svg PUBLIC "-//W3C//DTD SVG 1.1//EN" "http://www.w3.org/Graphics/SVG/1.1/DTD/svg11.dtd">
<svg version="1.1" id="Layer_1" xmlns="http://www.w3.org/2000/svg" xmlns:xlink="http://www.w3.org/1999/xlink" x="0px" y="0px"
	 width="134.667px" height="72.167px" viewBox="-161.833 0 134.667 72.167" enable-background="new -161.833 0 134.667 72.167"
	 xml:space="preserve">
<g>
	<path fill="#FFFFFF" d="M-120.268,32.865h0.624V41.5h-0.563v-7.496h-0.024l-2.003,4.797l-2.003-4.797l-0.024,0.024V41.5h-0.564
		v-8.635h0.624l1.967,4.75L-120.268,32.865z"/>
	<path fill="#FFFFFF" d="M-113.56,41.633c-0.12-0.348-0.204-0.721-0.24-1.08c-0.444,0.636-0.912,1.08-1.739,1.08
		c-1.163,0-1.763-0.947-1.763-2.016c0-1.211,0.684-2.254,1.907-2.254c0.516,0,1.104,0.203,1.547,0.42
		c0.036-1.607-0.251-2.279-1.295-2.279c-0.552,0-1.02,0.191-1.523,0.42l-0.132-0.516c0.552-0.216,1.091-0.384,1.691-0.384
		c1.164,0,1.859,0.816,1.823,2.231l-0.072,2.591c-0.012,0.611,0.144,1.188,0.312,1.715L-113.56,41.633z M-113.884,38.227
		c-0.396-0.204-0.875-0.385-1.379-0.385c-1.055,0-1.475,0.889-1.475,1.824c0,0.707,0.396,1.486,1.199,1.486
		c0.792,0,1.271-0.635,1.655-1.283V38.227z"/>
	<path fill="#FFFFFF" d="M-105.292,35.156l-2.375,6.033c-0.336,0.864-0.875,2.339-1.991,2.339c-0.719,0-1.247-0.563-1.463-1.211
		l0.479-0.252c0.156,0.432,0.456,0.983,0.983,0.983c0.612,0,0.924-0.708,1.14-1.188l0.479-1.091l-2.063-5.614h0.624l1.715,4.87
		l1.823-4.87H-105.292z"/>
	<path fill="#FFFFFF" d="M-91.121,41.021V41.5h-4.593c0-1.883,0.312-2.59,2.111-4.161c0.768-0.672,1.883-1.548,1.883-2.663
		c0-0.899-0.576-1.499-1.487-1.499c-1.091,0-1.667,0.839-1.739,1.847h-0.564c0.108-1.343,0.9-2.327,2.315-2.327
		c1.247,0,2.039,0.768,2.039,2.015c0,1.259-1.032,2.086-1.895,2.854c-1.799,1.607-2.075,2.23-2.099,3.454H-91.121z"/>
	<path fill="#FFFFFF" d="M-84.148,39.953c-0.312,0.972-1.008,1.715-2.087,1.715c-1.032,0-1.727-0.695-2.051-1.619
		c-0.3-0.852-0.324-1.955-0.324-2.866c0-0.851,0.024-1.967,0.288-2.77c0.312-0.972,0.996-1.715,2.087-1.715
		c1.043,0,1.727,0.696,2.051,1.619c0.3,0.864,0.324,1.955,0.324,2.866C-83.861,38.022-83.885,39.162-84.148,39.953z M-84.652,34.712
		c-0.204-0.768-0.696-1.547-1.583-1.547c-0.948,0-1.427,0.864-1.631,1.679c-0.156,0.683-0.18,1.63-0.18,2.338
		c0,0.768,0.012,1.739,0.228,2.483c0.204,0.755,0.696,1.535,1.583,1.535c0.947,0,1.427-0.864,1.631-1.68
		c0.156-0.672,0.18-1.631,0.18-2.339C-84.424,36.415-84.437,35.444-84.652,34.712z"/>
	<path fill="#FFFFFF" d="M-78.724,41.021h1.595V41.5h-3.802v-0.479h1.643v-7.7l-1.727,0.54v-0.528l2.291-0.731V41.021z"/>
	<path fill="#FFFFFF" d="M-72.303,36.596c1.043,0,1.931-0.744,1.931-1.824c0-0.887-0.755-1.595-1.655-1.595
		c-0.804,0-1.439,0.516-1.799,1.187l-0.479-0.264c0.479-0.864,1.319-1.403,2.327-1.403c1.211,0,2.171,0.972,2.171,2.159
		c0,0.9-0.588,1.583-1.379,1.931c1.091,0.348,1.775,1.188,1.775,2.326c0,1.476-1.067,2.52-2.554,2.52
		c-1.151,0-1.859-0.553-2.459-1.488l0.504-0.299c0.384,0.803,1.007,1.307,1.931,1.307c1.188,0,2.015-0.719,2.015-1.931
		c0-1.487-1.043-2.147-2.327-2.147V36.596z"/>
</g>
</svg>
