<?xml version="1.0" encoding="utf-8"?>
<!-- Generator: Adobe Illustrator 16.0.0, SVG Export Plug-In . SVG Version: 6.00 Build 0)  -->
<!DOCTYPE svg PUBLIC "-//W3C//DTD SVG 1.1//EN" "http://www.w3.org/Graphics/SVG/1.1/DTD/svg11.dtd">
<svg version="1.1" id="Layer_1" xmlns="http://www.w3.org/2000/svg" xmlns:xlink="http://www.w3.org/1999/xlink" x="0px" y="0px"
	 width="330px" height="70px" viewBox="0 0 330 70" enable-background="new 0 0 330 70" xml:space="preserve">
<g>
	<path fill="#FFFFFF" d="M58.485,20.365h2.495l-1.175,5.553c-0.228,1.068-0.671,3.25-3.142,3.25c-1.403,0-2.135-0.792-1.727-2.663
		l0.264-1.211h0.9l-0.336,1.547c-0.216,0.995,0.144,1.571,1.031,1.571c1.031,0,1.703-0.587,1.967-1.823l1.164-5.469h-1.595
		L58.485,20.365z"/>
	<path fill="#FFFFFF" d="M66.272,24.418c0.156-0.708-0.168-1.211-0.839-1.211c-0.564,0-1.151,0.264-1.715,0.48l-0.036-0.792
		c0.66-0.24,1.271-0.444,1.943-0.444c1.223,0,1.751,1.007,1.523,2.075l-0.587,2.783c-0.12,0.587-0.168,1.187-0.096,1.739
		l-0.864,0.108l-0.06-0.803c-0.54,0.516-1.08,0.779-1.751,0.779c-1.224,0-1.703-0.959-1.463-2.099
		c0.264-1.235,1.247-2.315,2.542-2.315c0.48,0,0.899,0.144,1.271,0.312L66.272,24.418z M65.984,25.786
		c-0.348-0.168-0.731-0.312-1.163-0.312c-0.912,0-1.439,0.792-1.607,1.607c-0.132,0.6,0.036,1.295,0.731,1.295
		s1.235-0.588,1.727-1.104v-0.024L65.984,25.786z"/>
	<path fill="#FFFFFF" d="M75.571,22.583l-3.658,6.021c-0.564,0.924-1.439,2.351-2.615,2.351c-0.828,0-1.259-0.636-1.331-1.392
		l0.839-0.396c0.06,0.384,0.18,1.031,0.66,1.031c0.504,0,0.948-0.695,1.199-1.079l0.624-0.972l-0.875-5.565h0.971l0.624,4.366
		l2.603-4.366H75.571z"/>
	<path fill="#FFFFFF" d="M81.356,23.927c-0.432-0.36-0.912-0.72-1.559-0.72c-0.54,0-1.127,0.396-1.259,0.972
		c-0.132,0.624,0.552,0.936,1.007,1.115c0.923,0.372,1.895,0.792,1.619,2.063c-0.228,1.055-1.331,1.775-2.327,1.775
		c-0.972,0-1.835-0.479-2.411-1.115l0.647-0.72c0.396,0.54,1.104,1.08,1.859,1.08c0.6,0,1.188-0.336,1.319-0.983
		c0.18-0.84-0.444-1.067-1.043-1.319c-0.839-0.348-1.799-0.78-1.559-1.931c0.204-0.936,1.224-1.691,2.339-1.691
		c0.804,0,1.379,0.288,1.919,0.744L81.356,23.927z"/>
	<path fill="#FFFFFF" d="M84.131,25.798c0.527-2.483,2.027-3.346,3.25-3.346c2.267,0,2.063,2.303,1.847,3.346
		c-0.528,2.482-2.027,3.334-3.262,3.334C84.85,29.132,83.579,28.388,84.131,25.798z M88.328,25.798
		c0.228-1.104,0.3-2.591-1.103-2.591c-1.403,0-1.967,1.487-2.195,2.591c-0.24,1.104-0.312,2.579,1.091,2.579
		S88.088,26.901,88.328,25.798z"/>
	<path fill="#FFFFFF" d="M91.738,29h-0.9l0.684-3.226c0.228-1.08,0.419-2.171,0.396-3.19h0.864l-0.048,1.175
		c0.612-0.755,1.559-1.307,2.459-1.307c1.019,0,1.343,0.936,1.115,2.027L95.348,29h-0.899l0.899-4.258
		c0.132-0.611,0.336-1.535-0.456-1.535c-0.852,0-2.111,0.864-2.591,3.119L91.738,29z"/>
	<path fill="#FFFFFF" d="M110.887,21.924c-0.419-0.468-0.911-0.971-1.655-0.971c-0.768,0-1.511,0.527-1.679,1.319
		c-0.096,0.456-0.096,0.864,0.912,1.571l0.6,0.42c1.391,0.971,1.715,1.427,1.499,2.435c-0.336,1.547-1.559,2.471-3.07,2.471
		c-1.115,0-1.823-0.54-2.314-1.403l0.815-0.552c0.276,0.672,0.828,1.199,1.655,1.199c0.899,0,1.787-0.671,1.991-1.595
		c0.144-0.696,0.132-0.924-1.188-1.847l-0.671-0.468c-0.732-0.516-1.367-1.091-1.14-2.171c0.288-1.355,1.487-2.135,2.783-2.135
		c0.899,0,1.631,0.48,2.146,1.08L110.887,21.924z"/>
	<path fill="#FFFFFF" d="M117.847,23.339h-2.291l-0.78,3.658c-0.132,0.624-0.276,1.379,0.54,1.379c0.684,0,1.224-0.564,1.595-1.127
		l0.816,0.216c-0.624,0.923-1.511,1.667-2.591,1.667c-1.043,0-1.595-0.503-1.188-2.422l0.708-3.371h-1.379l0.168-0.755h1.379
		l0.42-1.967h0.899l-0.419,1.967h2.291L117.847,23.339z"/>
	<path fill="#FFFFFF" d="M121.089,29h-0.899l0.78-3.682c0.228-1.055,0.324-1.931,0.336-2.734h0.875l-0.06,1.223
		c0.647-0.755,1.319-1.355,2.279-1.355c1.199,0,1.235,1.175,1.031,2.147h-0.899c0.084-0.48,0.348-1.392-0.336-1.392
		c-0.66,0-2.099,0.983-2.542,3.119L121.089,29z"/>
	<path fill="#FFFFFF" d="M128.085,26.025c-0.336,1.763,0.336,2.351,1.319,2.351c0.708,0,1.487-0.324,2.147-0.684l0.216,0.803
		c-0.875,0.36-1.703,0.636-2.591,0.636c-1.895,0-2.303-1.631-1.955-3.298c0.36-1.679,1.5-3.382,3.418-3.382
		c2.135,0,1.943,2.387,1.811,3.082l-0.096,0.492H128.085z M131.611,25.27c0.192-1.055-0.192-2.063-1.199-2.063
		s-1.667,0.768-2.183,2.063H131.611z"/>
	<path fill="#FFFFFF" d="M135.285,26.025c-0.336,1.763,0.336,2.351,1.319,2.351c0.708,0,1.487-0.324,2.146-0.684l0.216,0.803
		c-0.875,0.36-1.703,0.636-2.591,0.636c-1.895,0-2.303-1.631-1.955-3.298c0.36-1.679,1.5-3.382,3.418-3.382
		c2.135,0,1.943,2.387,1.811,3.082l-0.096,0.492H135.285z M138.811,25.27c0.192-1.055-0.192-2.063-1.199-2.063
		s-1.667,0.768-2.183,2.063H138.811z"/>
	<path fill="#FFFFFF" d="M146.646,23.339h-2.291l-0.78,3.658c-0.132,0.624-0.276,1.379,0.54,1.379c0.684,0,1.224-0.564,1.595-1.127
		l0.815,0.216c-0.624,0.923-1.511,1.667-2.59,1.667c-1.043,0-1.595-0.503-1.188-2.422l0.708-3.371h-1.379l0.168-0.755h1.379
		l0.42-1.967h0.899l-0.419,1.967h2.291L146.646,23.339z"/>
	<path fill="#FFFFFF" d="M158.815,23.339h-1.823l0.168-0.755h2.723L158.516,29h-0.899L158.815,23.339z M160.507,20.953
		c-0.096,0.432-0.504,0.755-0.924,0.755c-0.419,0-0.684-0.324-0.587-0.755c0.084-0.432,0.492-0.756,0.912-0.756
		C160.327,20.197,160.591,20.521,160.507,20.953z"/>
	<path fill="#FFFFFF" d="M163.737,29h-0.9l0.684-3.226c0.228-1.08,0.419-2.171,0.396-3.19h0.864l-0.048,1.175
		c0.612-0.755,1.56-1.307,2.459-1.307c1.02,0,1.344,0.936,1.115,2.027L167.348,29h-0.899l0.899-4.258
		c0.132-0.611,0.336-1.535-0.456-1.535c-0.852,0-2.111,0.864-2.591,3.119L163.737,29z"/>
	<path fill="#FFFFFF" d="M176.706,21.552c-0.456-0.216-0.947-0.6-1.499-0.6c-0.792,0-1.248,0.492-1.428,1.319l-0.155,0.72h2.062
		l-0.156,0.756h-2.062L172.353,29h-0.899l1.115-5.253h-1.596l0.156-0.756h1.595l0.133-0.611c0.323-1.523,1.499-2.183,2.446-2.183
		c0.588,0,1.115,0.204,1.595,0.444L176.706,21.552z"/>
	<path fill="#FFFFFF" d="M180.415,23.339h-1.823l0.168-0.755h2.723L180.115,29h-0.899L180.415,23.339z M182.106,20.953
		c-0.096,0.432-0.504,0.755-0.924,0.755s-0.684-0.324-0.588-0.755c0.084-0.432,0.492-0.756,0.912-0.756
		S182.19,20.521,182.106,20.953z"/>
	<path fill="#FFFFFF" d="M188.047,20.856h-1.823l0.168-0.755h2.723L187.219,29h-0.899L188.047,20.856z"/>
	<path fill="#FFFFFF" d="M197.046,23.339h-2.291l-0.779,3.658c-0.132,0.624-0.275,1.379,0.54,1.379c0.684,0,1.223-0.564,1.595-1.127
		l0.815,0.216c-0.623,0.923-1.511,1.667-2.59,1.667c-1.044,0-1.596-0.503-1.188-2.422l0.707-3.371h-1.379l0.168-0.755h1.379
		l0.42-1.967h0.899l-0.42,1.967h2.291L197.046,23.339z"/>
	<path fill="#FFFFFF" d="M200.288,29h-0.899l0.779-3.682c0.229-1.055,0.324-1.931,0.336-2.734h0.876l-0.061,1.223
		c0.648-0.755,1.319-1.355,2.279-1.355c1.199,0,1.235,1.175,1.031,2.147h-0.899c0.084-0.48,0.348-1.392-0.336-1.392
		c-0.659,0-2.099,0.983-2.543,3.119L200.288,29z"/>
	<path fill="#FFFFFF" d="M210.27,24.418c0.156-0.708-0.167-1.211-0.839-1.211c-0.563,0-1.151,0.264-1.715,0.48l-0.036-0.792
		c0.659-0.24,1.271-0.444,1.942-0.444c1.224,0,1.751,1.007,1.523,2.075l-0.588,2.783c-0.12,0.587-0.168,1.187-0.096,1.739
		l-0.863,0.108l-0.061-0.803c-0.539,0.516-1.079,0.779-1.751,0.779c-1.223,0-1.703-0.959-1.463-2.099
		c0.264-1.235,1.247-2.315,2.543-2.315c0.479,0,0.899,0.144,1.271,0.312L210.27,24.418z M209.982,25.786
		c-0.348-0.168-0.731-0.312-1.164-0.312c-0.911,0-1.438,0.792-1.606,1.607c-0.132,0.6,0.036,1.295,0.731,1.295
		s1.235-0.588,1.727-1.104v-0.024L209.982,25.786z"/>
	<path fill="#FFFFFF" d="M218.646,23.339h-2.291l-0.779,3.658c-0.132,0.624-0.275,1.379,0.54,1.379c0.684,0,1.223-0.564,1.595-1.127
		l0.815,0.216c-0.623,0.923-1.511,1.667-2.59,1.667c-1.044,0-1.596-0.503-1.188-2.422l0.707-3.371h-1.379l0.168-0.755h1.379
		l0.42-1.967h0.899l-0.42,1.967h2.291L218.646,23.339z"/>
	<path fill="#FFFFFF" d="M221.684,26.025c-0.335,1.763,0.336,2.351,1.319,2.351c0.708,0,1.487-0.324,2.147-0.684l0.216,0.803
		c-0.876,0.36-1.703,0.636-2.591,0.636c-1.895,0-2.303-1.631-1.955-3.298c0.36-1.679,1.499-3.382,3.418-3.382
		c2.135,0,1.943,2.387,1.812,3.082l-0.096,0.492H221.684z M225.21,25.27c0.192-1.055-0.191-2.063-1.199-2.063
		s-1.667,0.768-2.183,2.063H225.21z"/>
	<path fill="#FFFFFF" d="M232.554,23.927c-0.433-0.36-0.912-0.72-1.56-0.72c-0.54,0-1.127,0.396-1.26,0.972
		c-0.132,0.624,0.552,0.936,1.008,1.115c0.924,0.372,1.895,0.792,1.619,2.063c-0.228,1.055-1.331,1.775-2.327,1.775
		c-0.971,0-1.835-0.479-2.41-1.115l0.647-0.72c0.396,0.54,1.104,1.08,1.859,1.08c0.6,0,1.188-0.336,1.319-0.983
		c0.18-0.84-0.444-1.067-1.044-1.319c-0.84-0.348-1.799-0.78-1.559-1.931c0.203-0.936,1.223-1.691,2.338-1.691
		c0.804,0,1.38,0.288,1.919,0.744L232.554,23.927z"/>
	<path fill="#FFFFFF" d="M246.27,24.418c0.156-0.708-0.167-1.211-0.839-1.211c-0.563,0-1.151,0.264-1.715,0.48l-0.036-0.792
		c0.659-0.24,1.271-0.444,1.942-0.444c1.224,0,1.751,1.007,1.523,2.075l-0.588,2.783c-0.12,0.587-0.168,1.187-0.096,1.739
		l-0.863,0.108l-0.061-0.803c-0.539,0.516-1.079,0.779-1.751,0.779c-1.223,0-1.703-0.959-1.463-2.099
		c0.264-1.235,1.247-2.315,2.543-2.315c0.479,0,0.899,0.144,1.271,0.312L246.27,24.418z M245.982,25.786
		c-0.348-0.168-0.731-0.312-1.164-0.312c-0.911,0-1.438,0.792-1.606,1.607c-0.132,0.6,0.036,1.295,0.731,1.295
		s1.235-0.588,1.727-1.104v-0.024L245.982,25.786z"/>
	<path fill="#FFFFFF" d="M60.752,38.365h0.887L59.804,47h-0.899l1.391-6.572h-0.024l-2.674,4.233l-0.864-4.233l-0.024,0.023
		L55.319,47h-0.899l1.835-8.635h0.875l0.899,4.305L60.752,38.365z"/>
	<path fill="#FFFFFF" d="M65.217,41.339h-1.823l0.168-0.755h2.723L64.917,47h-0.899L65.217,41.339z M66.908,38.952
		c-0.096,0.432-0.504,0.756-0.924,0.756c-0.419,0-0.684-0.324-0.587-0.756c0.084-0.432,0.492-0.755,0.912-0.755
		C66.728,38.197,66.992,38.521,66.908,38.952z"/>
	<path fill="#FFFFFF" d="M73.473,42.419c0.156-0.708-0.168-1.212-0.839-1.212c-0.564,0-1.151,0.264-1.715,0.479l-0.036-0.791
		c0.66-0.24,1.271-0.444,1.943-0.444c1.223,0,1.751,1.008,1.523,2.075l-0.587,2.782c-0.12,0.588-0.168,1.188-0.096,1.739
		l-0.864,0.108l-0.06-0.804c-0.54,0.516-1.08,0.779-1.751,0.779c-1.224,0-1.703-0.959-1.463-2.099
		c0.264-1.235,1.247-2.314,2.542-2.314c0.48,0,0.899,0.144,1.271,0.312L73.473,42.419z M73.185,43.786
		c-0.348-0.168-0.731-0.312-1.163-0.312c-0.912,0-1.439,0.792-1.607,1.607c-0.132,0.6,0.036,1.295,0.731,1.295
		s1.235-0.587,1.727-1.103v-0.024L73.185,43.786z"/>
	<path fill="#FFFFFF" d="M76.858,42.574c0.18-0.875,0.192-1.451,0.192-2.123h0.899l0.012,0.576c0.456-0.336,0.839-0.576,1.379-0.576
		c0.587,0,0.719,0.145,0.971,0.588c0.444-0.336,0.828-0.6,1.355-0.6c0.863,0,1.295,0.563,1.115,1.428L81.692,47h-0.899l1.091-5.133
		c0.096-0.432-0.084-0.672-0.444-0.672c-0.408,0-0.828,0.336-1.091,0.672L79.257,47h-0.9l1.08-5.062
		c0.072-0.336,0.06-0.731-0.348-0.731c-0.432,0-0.948,0.384-1.2,0.779L76.822,47h-0.899L76.858,42.574z"/>
	<path fill="#FFFFFF" d="M86.817,41.339h-1.823l0.168-0.755h2.723L86.517,47h-0.899L86.817,41.339z M88.508,38.952
		c-0.096,0.432-0.504,0.756-0.923,0.756c-0.42,0-0.684-0.324-0.588-0.756c0.084-0.432,0.492-0.755,0.912-0.755
		C88.328,38.197,88.592,38.521,88.508,38.952z"/>
	<path fill="#FFFFFF" d="M100.017,38.101h0.899l-0.731,3.406c0.588-0.611,1.367-1.056,2.159-1.056c0.768,0,1.595,0.24,1.043,2.867
		L102.608,47h-0.899l0.803-3.754c0.12-0.588,0.432-2.039-0.384-2.039c-0.671,0-1.403,0.6-1.799,1.163
		c-0.504,0.72-0.636,1.439-0.804,2.243L99.022,47h-0.9L100.017,38.101z"/>
	<path fill="#FFFFFF" d="M105.73,43.798c0.527-2.482,2.027-3.347,3.25-3.347c2.267,0,2.063,2.303,1.847,3.347
		c-0.528,2.482-2.027,3.334-3.262,3.334C106.45,47.132,105.179,46.389,105.73,43.798z M109.928,43.798
		c0.228-1.104,0.3-2.591-1.103-2.591c-1.403,0-1.967,1.487-2.195,2.591c-0.24,1.104-0.312,2.578,1.091,2.578
		S109.688,44.901,109.928,43.798z"/>
	<path fill="#FFFFFF" d="M117.847,41.339h-2.291l-0.78,3.658c-0.132,0.624-0.276,1.379,0.54,1.379c0.684,0,1.224-0.563,1.595-1.127
		l0.816,0.216c-0.624,0.924-1.511,1.667-2.591,1.667c-1.043,0-1.595-0.504-1.188-2.423l0.708-3.37h-1.379l0.168-0.755h1.379
		l0.42-1.968h0.899l-0.419,1.968h2.291L117.847,41.339z"/>
	<path fill="#FFFFFF" d="M120.885,44.025c-0.336,1.764,0.336,2.351,1.319,2.351c0.708,0,1.487-0.323,2.147-0.684l0.216,0.804
		c-0.875,0.36-1.703,0.636-2.591,0.636c-1.895,0-2.303-1.631-1.955-3.298c0.36-1.68,1.5-3.383,3.418-3.383
		c2.135,0,1.943,2.387,1.811,3.083l-0.096,0.491H120.885z M124.411,43.271c0.192-1.056-0.192-2.063-1.199-2.063
		s-1.667,0.768-2.183,2.063H124.411z"/>
	<path fill="#FFFFFF" d="M130.448,38.856h-1.823l0.168-0.756h2.723L129.621,47h-0.899L130.448,38.856z"/>
	<path fill="#FFFFFF" d="M138.967,38.365l-0.336,1.559l-0.828,1.56h-0.647l-0.18-1.56l0.336-1.559H138.967z"/>
	<path fill="#FFFFFF" d="M146.155,41.927c-0.432-0.359-0.912-0.72-1.559-0.72c-0.54,0-1.127,0.396-1.259,0.972
		c-0.132,0.624,0.552,0.936,1.007,1.115c0.923,0.372,1.895,0.792,1.619,2.062c-0.228,1.056-1.331,1.775-2.327,1.775
		c-0.972,0-1.835-0.479-2.411-1.115l0.647-0.72c0.396,0.54,1.104,1.079,1.859,1.079c0.6,0,1.188-0.335,1.319-0.983
		c0.18-0.839-0.444-1.067-1.043-1.319c-0.839-0.348-1.799-0.779-1.559-1.931c0.204-0.936,1.224-1.691,2.339-1.691
		c0.804,0,1.379,0.288,1.919,0.744L146.155,41.927z"/>
	<path fill="#FFFFFF" d="M156.537,47h-0.9l0.684-3.227c0.228-1.079,0.419-2.171,0.396-3.189h0.864l-0.048,1.175
		c0.612-0.756,1.559-1.308,2.459-1.308c1.019,0,1.343,0.936,1.115,2.027L160.147,47h-0.899l0.899-4.258
		c0.132-0.611,0.336-1.535-0.456-1.535c-0.852,0-2.111,0.863-2.591,3.118L156.537,47z"/>
	<path fill="#FFFFFF" d="M164.085,44.025c-0.336,1.764,0.336,2.351,1.319,2.351c0.708,0,1.487-0.323,2.146-0.684l0.217,0.804
		c-0.876,0.36-1.703,0.636-2.591,0.636c-1.895,0-2.303-1.631-1.955-3.298c0.36-1.68,1.5-3.383,3.418-3.383
		c2.135,0,1.943,2.387,1.812,3.083l-0.097,0.491H164.085z M167.611,43.271c0.191-1.056-0.192-2.063-1.199-2.063
		c-1.008,0-1.667,0.768-2.183,2.063H167.611z"/>
	<path fill="#FFFFFF" d="M171.488,47h-0.899l0.78-3.682c0.228-1.056,0.323-1.932,0.336-2.734h0.875l-0.06,1.223
		c0.647-0.756,1.319-1.355,2.278-1.355c1.199,0,1.235,1.176,1.031,2.147h-0.899c0.084-0.479,0.348-1.392-0.336-1.392
		c-0.659,0-2.099,0.983-2.542,3.118L171.488,47z"/>
	<path fill="#FFFFFF" d="M183.354,40.584l-3.37,6.5h-1.02l-0.611-6.5h0.936l0.504,4.977l2.626-4.977H183.354z"/>
	<path fill="#FFFFFF" d="M185.684,44.025c-0.335,1.764,0.336,2.351,1.319,2.351c0.708,0,1.487-0.323,2.147-0.684l0.216,0.804
		c-0.876,0.36-1.703,0.636-2.591,0.636c-1.895,0-2.303-1.631-1.955-3.298c0.36-1.68,1.499-3.383,3.418-3.383
		c2.135,0,1.943,2.387,1.812,3.083l-0.096,0.491H185.684z M189.21,43.271c0.192-1.056-0.191-2.063-1.199-2.063
		s-1.667,0.768-2.183,2.063H189.21z"/>
	<path fill="#FFFFFF" d="M203.971,45.957c-0.792,0.695-1.535,1.175-2.531,1.175c-1.188,0-2.614-0.731-2.074-3.274
		c0.539-2.566,2.17-3.406,3.454-3.406c1.055,0,1.679,0.576,2.062,1.428l-0.888,0.516c-0.191-0.647-0.539-1.188-1.331-1.188
		c-0.911,0-1.979,0.672-2.387,2.566c-0.42,2.003,0.479,2.603,1.308,2.603c0.707,0,1.379-0.539,1.919-1.055L203.971,45.957z"/>
	<path fill="#FFFFFF" d="M207.283,44.025c-0.335,1.764,0.336,2.351,1.319,2.351c0.708,0,1.487-0.323,2.147-0.684l0.216,0.804
		c-0.876,0.36-1.703,0.636-2.591,0.636c-1.895,0-2.303-1.631-1.955-3.298c0.36-1.68,1.499-3.383,3.418-3.383
		c2.135,0,1.943,2.387,1.812,3.083l-0.096,0.491H207.283z M210.81,43.271c0.192-1.056-0.191-2.063-1.199-2.063
		s-1.667,0.768-2.183,2.063H210.81z"/>
	<path fill="#FFFFFF" d="M214.136,47h-0.899l0.684-3.227c0.229-1.079,0.42-2.171,0.396-3.189h0.863l-0.048,1.175
		c0.611-0.756,1.559-1.308,2.458-1.308c1.02,0,1.344,0.936,1.115,2.027L217.746,47h-0.899l0.899-4.258
		c0.132-0.611,0.336-1.535-0.456-1.535c-0.852,0-2.11,0.863-2.59,3.118L214.136,47z"/>
	<path fill="#FFFFFF" d="M225.846,41.339h-2.291l-0.779,3.658c-0.132,0.624-0.275,1.379,0.54,1.379c0.684,0,1.223-0.563,1.595-1.127
		l0.815,0.216c-0.623,0.924-1.511,1.667-2.591,1.667c-1.043,0-1.595-0.504-1.187-2.423l0.707-3.37h-1.379l0.168-0.755h1.379
		l0.42-1.968h0.899l-0.42,1.968h2.291L225.846,41.339z"/>
	<path fill="#FFFFFF" d="M228.883,44.025c-0.335,1.764,0.336,2.351,1.319,2.351c0.708,0,1.487-0.323,2.147-0.684l0.216,0.804
		c-0.876,0.36-1.703,0.636-2.591,0.636c-1.895,0-2.303-1.631-1.955-3.298c0.36-1.68,1.499-3.383,3.418-3.383
		c2.135,0,1.943,2.387,1.812,3.083l-0.096,0.491H228.883z M232.409,43.271c0.192-1.056-0.191-2.063-1.199-2.063
		s-1.667,0.768-2.183,2.063H232.409z"/>
	<path fill="#FFFFFF" d="M236.287,47h-0.899l0.779-3.682c0.229-1.056,0.324-1.932,0.336-2.734h0.876l-0.061,1.223
		c0.648-0.756,1.319-1.355,2.279-1.355c1.199,0,1.235,1.176,1.031,2.147h-0.899c0.084-0.479,0.348-1.392-0.336-1.392
		c-0.659,0-2.099,0.983-2.543,3.118L236.287,47z"/>
	<path fill="#FFFFFF" d="M244.675,45.309c0.516,0,0.876,0.396,0.768,0.924c-0.12,0.527-0.647,0.936-1.163,0.936
		c-0.528,0-0.888-0.408-0.768-0.936C243.619,45.705,244.159,45.309,244.675,45.309z"/>
</g>
</svg>
