<?xml version="1.0" encoding="utf-8"?>
<!-- Generator: Adobe Illustrator 16.0.0, SVG Export Plug-In . SVG Version: 6.00 Build 0)  -->
<!DOCTYPE svg PUBLIC "-//W3C//DTD SVG 1.1//EN" "http://www.w3.org/Graphics/SVG/1.1/DTD/svg11.dtd">
<svg version="1.1" id="Layer_1" xmlns="http://www.w3.org/2000/svg" xmlns:xlink="http://www.w3.org/1999/xlink" x="0px" y="0px"
	 width="330px" height="70px" viewBox="0 0 330 70" enable-background="new 0 0 330 70" xml:space="preserve">
<g>
	<path fill="#FFFFFF" d="M79.184,41.5h-0.972l-0.228-2.543h-2.626L74.051,41.5h-0.972l5.038-9.355L79.184,41.5z M75.73,38.202h2.195
		l-0.36-3.49L75.73,38.202z"/>
	<path fill="#FFFFFF" d="M90.226,32.601h0.899l-0.731,3.406c0.588-0.611,1.367-1.055,2.159-1.055c0.768,0,1.595,0.24,1.043,2.867
		L92.816,41.5h-0.899l0.803-3.754c0.12-0.588,0.432-2.039-0.384-2.039c-0.671,0-1.403,0.6-1.799,1.163
		c-0.504,0.72-0.636,1.439-0.804,2.243L89.23,41.5h-0.9L90.226,32.601z"/>
	<path fill="#FFFFFF" d="M99.68,36.919c0.156-0.708-0.168-1.212-0.839-1.212c-0.564,0-1.151,0.264-1.715,0.479l-0.036-0.791
		c0.659-0.24,1.271-0.444,1.943-0.444c1.223,0,1.751,1.007,1.523,2.075l-0.588,2.782c-0.12,0.588-0.167,1.188-0.096,1.739
		l-0.863,0.108l-0.06-0.804c-0.54,0.516-1.08,0.779-1.751,0.779c-1.224,0-1.703-0.959-1.463-2.099
		c0.264-1.235,1.247-2.314,2.542-2.314c0.48,0,0.899,0.144,1.271,0.312L99.68,36.919z M99.393,38.286
		c-0.348-0.168-0.732-0.312-1.164-0.312c-0.912,0-1.439,0.792-1.607,1.607c-0.132,0.6,0.036,1.295,0.731,1.295
		c0.695,0,1.235-0.587,1.727-1.103v-0.024L99.393,38.286z"/>
	<path fill="#FFFFFF" d="M107.78,40.457c-0.792,0.695-1.535,1.175-2.531,1.175c-1.187,0-2.614-0.731-2.075-3.274
		c0.54-2.566,2.171-3.406,3.454-3.406c1.056,0,1.679,0.576,2.063,1.427l-0.888,0.516c-0.192-0.647-0.54-1.188-1.331-1.188
		c-0.912,0-1.979,0.672-2.387,2.566c-0.42,2.003,0.479,2.603,1.307,2.603c0.708,0,1.379-0.539,1.919-1.055L107.78,40.457z"/>
	<path fill="#FFFFFF" d="M116.011,35.083c-1.631,1.523-2.099,2.015-3.214,2.938l2.411,3.479h-1.188l-1.895-2.95l-0.492,0.407
		l-0.54,2.543h-0.899l1.895-8.899h0.899l-1.127,5.289c1.031-0.875,2.099-1.774,3.01-2.806H116.011z"/>
	<path fill="#FFFFFF" d="M118.293,38.525c-0.336,1.764,0.336,2.351,1.319,2.351c0.708,0,1.487-0.323,2.147-0.684l0.216,0.804
		c-0.875,0.36-1.703,0.636-2.591,0.636c-1.895,0-2.303-1.631-1.955-3.298c0.36-1.68,1.5-3.382,3.418-3.382
		c2.135,0,1.943,2.386,1.811,3.083l-0.096,0.491H118.293z M121.819,37.771c0.192-1.056-0.192-2.063-1.199-2.063
		s-1.667,0.768-2.183,2.063H121.819z"/>
	<path fill="#FFFFFF" d="M125.697,41.5h-0.899l0.78-3.682c0.228-1.056,0.324-1.931,0.336-2.735h0.875l-0.06,1.223
		c0.647-0.755,1.319-1.355,2.279-1.355c1.199,0,1.235,1.175,1.031,2.147h-0.899c0.084-0.479,0.348-1.392-0.336-1.392
		c-0.66,0-2.099,0.983-2.542,3.118L125.697,41.5z"/>
	<path fill="#FFFFFF" d="M142.879,36.919c0.156-0.708-0.168-1.212-0.839-1.212c-0.564,0-1.151,0.264-1.715,0.479l-0.036-0.791
		c0.659-0.24,1.271-0.444,1.943-0.444c1.223,0,1.751,1.007,1.523,2.075l-0.588,2.782c-0.12,0.588-0.167,1.188-0.096,1.739
		l-0.863,0.108l-0.06-0.804c-0.54,0.516-1.08,0.779-1.751,0.779c-1.224,0-1.703-0.959-1.463-2.099
		c0.264-1.235,1.247-2.314,2.542-2.314c0.48,0,0.899,0.144,1.271,0.312L142.879,36.919z M142.592,38.286
		c-0.348-0.168-0.732-0.312-1.164-0.312c-0.912,0-1.439,0.792-1.607,1.607c-0.132,0.6,0.036,1.295,0.731,1.295
		c0.695,0,1.235-0.587,1.727-1.103v-0.024L142.592,38.286z"/>
	<path fill="#FFFFFF" d="M151.255,35.839h-2.291l-0.78,3.658c-0.132,0.624-0.276,1.379,0.54,1.379c0.684,0,1.224-0.563,1.595-1.127
		l0.815,0.216c-0.624,0.924-1.511,1.667-2.59,1.667c-1.043,0-1.595-0.504-1.188-2.423l0.708-3.37h-1.379l0.168-0.755h1.379
		l0.42-1.967h0.899l-0.419,1.967h2.291L151.255,35.839z"/>
	<path fill="#FFFFFF" d="M160.701,35.083h1.007l-0.3,4.809h0.024l1.619-3.238h0.875l0.228,3.238h0.024l1.763-4.809h1.008l-2.507,6.5
		h-0.959l-0.312-3.479l-1.763,3.479h-0.959L160.701,35.083z"/>
	<path fill="#FFFFFF" d="M167.938,38.298c0.527-2.483,2.027-3.346,3.25-3.346c2.267,0,2.063,2.302,1.848,3.346
		c-0.528,2.482-2.027,3.334-3.263,3.334C168.657,41.632,167.386,40.889,167.938,38.298z M172.135,38.298
		c0.229-1.104,0.3-2.591-1.103-2.591c-1.403,0-1.968,1.487-2.195,2.591c-0.24,1.104-0.312,2.578,1.092,2.578
		S171.896,39.401,172.135,38.298z"/>
	<path fill="#FFFFFF" d="M176.097,41.5h-0.899l0.779-3.682c0.229-1.056,0.324-1.931,0.336-2.735h0.876l-0.061,1.223
		c0.647-0.755,1.319-1.355,2.279-1.355c1.199,0,1.235,1.175,1.031,2.147h-0.899c0.084-0.479,0.348-1.392-0.336-1.392
		c-0.66,0-2.099,0.983-2.543,3.118L176.097,41.5z"/>
	<path fill="#FFFFFF" d="M188.01,35.083c-1.631,1.523-2.099,2.015-3.214,2.938l2.41,3.479h-1.187l-1.896-2.95l-0.491,0.407
		l-0.54,2.543h-0.899l1.896-8.899h0.899l-1.128,5.289c1.031-0.875,2.099-1.774,3.011-2.806H188.01z"/>
	<path fill="#FFFFFF" d="M199.424,35.839h-1.823l0.168-0.755h2.723l-1.367,6.417h-0.899L199.424,35.839z M201.114,33.453
		c-0.096,0.432-0.503,0.755-0.923,0.755s-0.684-0.324-0.588-0.755c0.084-0.432,0.492-0.756,0.911-0.756
		C200.935,32.697,201.198,33.021,201.114,33.453z"/>
	<path fill="#FFFFFF" d="M204.344,41.5h-0.899l0.684-3.227c0.229-1.079,0.42-2.171,0.396-3.19h0.863l-0.048,1.175
		c0.611-0.755,1.559-1.307,2.458-1.307c1.02,0,1.344,0.936,1.115,2.027l-0.959,4.521h-0.899l0.899-4.258
		c0.132-0.611,0.336-1.535-0.456-1.535c-0.852,0-2.11,0.863-2.59,3.118L204.344,41.5z"/>
	<path fill="#FFFFFF" d="M223.758,32.865h0.888l-1.835,8.635h-0.899l1.391-6.572h-0.023l-2.675,4.233l-0.863-4.233l-0.024,0.024
		l-1.392,6.548h-0.899l1.835-8.635h0.876l0.899,4.305L223.758,32.865z"/>
	<path fill="#FFFFFF" d="M228.223,35.839h-1.823l0.168-0.755h2.723l-1.367,6.417h-0.899L228.223,35.839z M229.913,33.453
		c-0.096,0.432-0.503,0.755-0.923,0.755s-0.684-0.324-0.588-0.755c0.084-0.432,0.492-0.756,0.911-0.756
		C229.733,32.697,229.997,33.021,229.913,33.453z"/>
	<path fill="#FFFFFF" d="M236.479,36.919c0.155-0.708-0.168-1.212-0.84-1.212c-0.563,0-1.151,0.264-1.715,0.479l-0.036-0.791
		c0.659-0.24,1.271-0.444,1.942-0.444c1.224,0,1.751,1.007,1.523,2.075l-0.588,2.782c-0.12,0.588-0.168,1.188-0.096,1.739
		l-0.863,0.108l-0.061-0.804c-0.539,0.516-1.079,0.779-1.751,0.779c-1.223,0-1.703-0.959-1.463-2.099
		c0.264-1.235,1.247-2.314,2.543-2.314c0.479,0,0.899,0.144,1.271,0.312L236.479,36.919z M236.19,38.286
		c-0.348-0.168-0.731-0.312-1.164-0.312c-0.911,0-1.438,0.792-1.606,1.607c-0.132,0.6,0.036,1.295,0.731,1.295
		s1.235-0.587,1.727-1.103v-0.024L236.19,38.286z"/>
	<path fill="#FFFFFF" d="M239.864,37.074c0.18-0.875,0.192-1.451,0.192-2.123h0.899l0.012,0.576c0.456-0.336,0.84-0.576,1.379-0.576
		c0.588,0,0.72,0.144,0.972,0.587c0.443-0.335,0.827-0.6,1.355-0.6c0.863,0,1.295,0.564,1.115,1.428l-1.092,5.133h-0.899
		l1.092-5.133c0.096-0.432-0.084-0.672-0.444-0.672c-0.407,0-0.827,0.336-1.091,0.672l-1.092,5.133h-0.899l1.08-5.062
		c0.071-0.336,0.06-0.731-0.349-0.731c-0.432,0-0.947,0.384-1.199,0.779l-1.067,5.014h-0.899L239.864,37.074z"/>
	<path fill="#FFFFFF" d="M249.822,35.839h-1.823l0.168-0.755h2.723l-1.367,6.417h-0.899L249.822,35.839z M251.513,33.453
		c-0.096,0.432-0.503,0.755-0.923,0.755s-0.684-0.324-0.588-0.755c0.084-0.432,0.492-0.756,0.911-0.756
		C251.333,32.697,251.597,33.021,251.513,33.453z"/>
</g>
</svg>
