<?xml version="1.0" encoding="utf-8"?>
<!-- Generator: Adobe Illustrator 16.0.0, SVG Export Plug-In . SVG Version: 6.00 Build 0)  -->
<!DOCTYPE svg PUBLIC "-//W3C//DTD SVG 1.1//EN" "http://www.w3.org/Graphics/SVG/1.1/DTD/svg11.dtd">
<svg version="1.1" id="Layer_1" xmlns="http://www.w3.org/2000/svg" xmlns:xlink="http://www.w3.org/1999/xlink" x="0px" y="0px"
	 width="330px" height="70px" viewBox="0 0 330 70" enable-background="new 0 0 330 70" xml:space="preserve">
<g>
	<path fill="#FFFFFF" d="M50.685,38.002h-0.972l-0.228-2.542h-2.626l-1.307,2.542H44.58l5.038-9.354L50.685,38.002z M47.23,34.704
		h2.195l-0.36-3.49L47.23,34.704z"/>
	<path fill="#FFFFFF" d="M64.665,32.929c-0.432-0.36-0.912-0.72-1.559-0.72c-0.54,0-1.127,0.396-1.259,0.972
		c-0.132,0.624,0.552,0.936,1.007,1.115c0.923,0.372,1.895,0.792,1.619,2.063c-0.228,1.055-1.331,1.774-2.327,1.774
		c-0.972,0-1.835-0.479-2.411-1.115l0.647-0.72c0.396,0.54,1.104,1.08,1.859,1.08c0.6,0,1.188-0.336,1.319-0.983
		c0.18-0.84-0.443-1.067-1.043-1.319c-0.839-0.348-1.799-0.78-1.559-1.931c0.204-0.936,1.224-1.691,2.339-1.691
		c0.804,0,1.379,0.288,1.919,0.744L64.665,32.929z"/>
	<path fill="#FFFFFF" d="M70.125,32.341h-1.823l0.168-0.755h2.723l-1.368,6.416h-0.899L70.125,32.341z M71.816,29.955
		c-0.096,0.432-0.504,0.755-0.923,0.755c-0.42,0-0.684-0.324-0.588-0.755c0.084-0.432,0.492-0.756,0.912-0.756
		C71.636,29.199,71.9,29.523,71.816,29.955z"/>
	<path fill="#FFFFFF" d="M74.567,33.577c0.18-0.875,0.192-1.451,0.192-2.123h0.899l0.012,0.576c0.456-0.336,0.839-0.576,1.379-0.576
		c0.587,0,0.719,0.144,0.971,0.587c0.444-0.335,0.828-0.6,1.355-0.6c0.863,0,1.295,0.564,1.115,1.427L79.4,38.002h-0.899
		l1.091-5.133c0.096-0.432-0.084-0.671-0.444-0.671c-0.408,0-0.828,0.336-1.091,0.671l-1.091,5.133h-0.9l1.08-5.061
		c0.072-0.336,0.06-0.732-0.348-0.732c-0.432,0-0.948,0.384-1.2,0.78l-1.067,5.013h-0.899L74.567,33.577z"/>
	<path fill="#FFFFFF" d="M86.36,31.586h0.899l-0.66,3.106c-0.24,1.115-0.456,2.219-0.432,3.31h-0.852l0.06-1.235
		c-0.576,0.708-1.571,1.367-2.398,1.367c-1.14,0-1.415-0.971-1.175-2.087l0.947-4.461h0.899l-0.899,4.198
		c-0.132,0.599-0.335,1.595,0.456,1.595c0.887,0,2.123-0.996,2.59-3.167L86.36,31.586z"/>
	<path fill="#FFFFFF" d="M92.157,29.859h-1.823l0.168-0.755h2.723l-1.895,8.898H90.43L92.157,29.859z"/>
	<path fill="#FFFFFF" d="M99.98,33.421c0.156-0.708-0.168-1.211-0.839-1.211c-0.564,0-1.151,0.264-1.715,0.48l-0.036-0.792
		c0.659-0.24,1.271-0.444,1.943-0.444c1.223,0,1.751,1.007,1.523,2.075l-0.588,2.783c-0.12,0.587-0.167,1.187-0.096,1.738
		l-0.863,0.108l-0.06-0.804c-0.54,0.516-1.08,0.779-1.751,0.779c-1.224,0-1.703-0.959-1.463-2.099
		c0.264-1.235,1.247-2.314,2.542-2.314c0.48,0,0.899,0.144,1.271,0.312L99.98,33.421z M99.693,34.788
		c-0.348-0.168-0.732-0.312-1.164-0.312c-0.912,0-1.439,0.792-1.607,1.606c-0.132,0.6,0.036,1.296,0.731,1.296
		c0.695,0,1.235-0.588,1.727-1.104v-0.024L99.693,34.788z"/>
	<path fill="#FFFFFF" d="M108.355,32.341h-2.291L105.285,36c-0.132,0.624-0.276,1.379,0.54,1.379c0.684,0,1.224-0.564,1.595-1.128
		l0.816,0.216c-0.624,0.924-1.511,1.667-2.591,1.667c-1.043,0-1.595-0.503-1.188-2.422l0.708-3.371h-1.379l0.168-0.755h1.379
		l0.42-1.967h0.899l-0.419,1.967h2.291L108.355,32.341z"/>
	<path fill="#FFFFFF" d="M111.394,35.028c-0.336,1.763,0.336,2.351,1.319,2.351c0.708,0,1.487-0.324,2.147-0.684l0.216,0.803
		c-0.875,0.36-1.703,0.636-2.591,0.636c-1.895,0-2.303-1.631-1.955-3.297c0.36-1.679,1.5-3.382,3.418-3.382
		c2.135,0,1.943,2.387,1.811,3.082l-0.096,0.492H111.394z M114.919,34.272c0.192-1.055-0.192-2.063-1.199-2.063
		s-1.667,0.768-2.183,2.063H114.919z"/>
	<path fill="#FFFFFF" d="M121.256,38.134l-0.048-0.72c-0.636,0.48-0.972,0.72-1.715,0.72c-1.127,0-2.387-0.863-1.847-3.381
		c0.516-2.447,2.255-3.298,3.298-3.298c0.54,0,0.888,0.132,1.271,0.372l0.587-2.722h0.9l-1.403,6.608
		c-0.168,0.791-0.264,1.583-0.168,2.314L121.256,38.134z M122.024,32.737c-0.288-0.288-0.636-0.528-1.091-0.528
		c-0.959,0-2.027,0.804-2.399,2.579c-0.444,2.087,0.54,2.591,1.14,2.591c0.695,0,1.235-0.516,1.607-1.104L122.024,32.737z"/>
	<path fill="#FFFFFF" d="M132.202,31.586h1.007l-0.3,4.81h0.024l1.619-3.238h0.875l0.228,3.238h0.024l1.763-4.81h1.007l-2.507,6.5
		h-0.959l-0.312-3.478l-1.763,3.478h-0.959L132.202,31.586z"/>
	<path fill="#FFFFFF" d="M143.18,33.421c0.156-0.708-0.168-1.211-0.839-1.211c-0.564,0-1.151,0.264-1.715,0.48l-0.036-0.792
		c0.659-0.24,1.271-0.444,1.943-0.444c1.223,0,1.751,1.007,1.523,2.075l-0.588,2.783c-0.12,0.587-0.167,1.187-0.096,1.738
		l-0.863,0.108l-0.06-0.804c-0.54,0.516-1.08,0.779-1.751,0.779c-1.224,0-1.703-0.959-1.463-2.099
		c0.264-1.235,1.247-2.314,2.542-2.314c0.48,0,0.899,0.144,1.271,0.312L143.18,33.421z M142.892,34.788
		c-0.348-0.168-0.732-0.312-1.164-0.312c-0.912,0-1.439,0.792-1.607,1.606c-0.132,0.6,0.036,1.296,0.731,1.296
		c0.695,0,1.235-0.588,1.727-1.104v-0.024L142.892,34.788z"/>
	<path fill="#FFFFFF" d="M147.597,38.002h-0.9l0.78-3.682c0.228-1.055,0.324-1.931,0.336-2.734h0.875l-0.06,1.223
		c0.647-0.755,1.319-1.355,2.279-1.355c1.199,0,1.235,1.175,1.031,2.147h-0.899c0.084-0.48,0.348-1.392-0.336-1.392
		c-0.66,0-2.099,0.983-2.542,3.119L147.597,38.002z"/>
	<path fill="#FFFFFF" d="M166.722,31.454c-0.384,0.779-0.6,1.583-0.779,2.398l-0.756,3.526c-0.432,2.002-2.015,2.578-2.938,2.578
		c-0.755,0-1.439-0.432-1.823-0.983l0.755-0.552c0.252,0.468,0.744,0.779,1.343,0.779c0.948,0,1.559-0.863,1.751-1.774l0.108-0.504
		c-0.563,0.324-1.007,0.54-1.643,0.54c-1.571,0-2.015-1.5-1.715-2.891c0.324-1.523,1.331-3.118,3.106-3.118
		c0.611,0,1.031,0.204,1.451,0.563l0.288-0.563H166.722z M165.223,33.001c-0.204-0.432-0.684-0.792-1.235-0.792
		c-1.188,0-1.835,1.271-2.039,2.255c-0.264,1.248,0.12,2.243,0.996,2.243c0.552,0,1.295-0.372,1.667-0.839L165.223,33.001z"/>
	<path fill="#FFFFFF" d="M171.979,33.421c0.156-0.708-0.168-1.211-0.839-1.211c-0.564,0-1.151,0.264-1.716,0.48l-0.036-0.792
		c0.66-0.24,1.271-0.444,1.943-0.444c1.224,0,1.751,1.007,1.523,2.075l-0.588,2.783c-0.12,0.587-0.168,1.187-0.096,1.738
		l-0.864,0.108l-0.06-0.804c-0.54,0.516-1.079,0.779-1.751,0.779c-1.224,0-1.703-0.959-1.463-2.099
		c0.264-1.235,1.247-2.314,2.542-2.314c0.48,0,0.899,0.144,1.271,0.312L171.979,33.421z M171.69,34.788
		c-0.348-0.168-0.731-0.312-1.163-0.312c-0.911,0-1.439,0.792-1.606,1.606c-0.133,0.6,0.035,1.296,0.731,1.296
		c0.695,0,1.235-0.588,1.727-1.104v-0.024L171.69,34.788z"/>
	<path fill="#FFFFFF" d="M175.365,33.577c0.18-0.875,0.191-1.451,0.191-2.123h0.899l0.013,0.576
		c0.455-0.336,0.839-0.576,1.379-0.576c0.588,0,0.72,0.144,0.972,0.587c0.443-0.335,0.827-0.6,1.355-0.6
		c0.863,0,1.295,0.564,1.115,1.427l-1.092,5.133h-0.899l1.092-5.133c0.096-0.432-0.084-0.671-0.444-0.671
		c-0.407,0-0.827,0.336-1.091,0.671l-1.092,5.133h-0.899l1.079-5.061c0.072-0.336,0.061-0.732-0.348-0.732
		c-0.432,0-0.947,0.384-1.199,0.78l-1.067,5.013h-0.899L175.365,33.577z"/>
	<path fill="#FFFFFF" d="M183.393,35.028c-0.336,1.763,0.336,2.351,1.319,2.351c0.707,0,1.486-0.324,2.146-0.684l0.216,0.803
		c-0.876,0.36-1.703,0.636-2.591,0.636c-1.895,0-2.303-1.631-1.955-3.297c0.36-1.679,1.5-3.382,3.419-3.382
		c2.134,0,1.942,2.387,1.811,3.082l-0.096,0.492H183.393z M186.918,34.272c0.192-1.055-0.191-2.063-1.199-2.063
		c-1.007,0-1.667,0.768-2.183,2.063H186.918z"/>
	<path fill="#FFFFFF" d="M200.777,33.421c0.156-0.708-0.167-1.211-0.839-1.211c-0.563,0-1.151,0.264-1.715,0.48l-0.036-0.792
		c0.659-0.24,1.271-0.444,1.942-0.444c1.224,0,1.751,1.007,1.523,2.075l-0.588,2.783c-0.12,0.587-0.168,1.187-0.096,1.738
		l-0.863,0.108l-0.061-0.804c-0.539,0.516-1.079,0.779-1.751,0.779c-1.223,0-1.703-0.959-1.463-2.099
		c0.264-1.235,1.247-2.314,2.543-2.314c0.479,0,0.899,0.144,1.271,0.312L200.777,33.421z M200.49,34.788
		c-0.348-0.168-0.731-0.312-1.164-0.312c-0.911,0-1.438,0.792-1.606,1.606c-0.132,0.6,0.036,1.296,0.731,1.296
		s1.235-0.588,1.727-1.104v-0.024L200.49,34.788z"/>
	<path fill="#FFFFFF" d="M209.153,32.341h-2.291L206.083,36c-0.132,0.624-0.275,1.379,0.54,1.379c0.684,0,1.223-0.564,1.595-1.128
		l0.815,0.216c-0.623,0.924-1.511,1.667-2.59,1.667c-1.044,0-1.596-0.503-1.188-2.422l0.707-3.371h-1.379l0.168-0.755h1.379
		l0.42-1.967h0.899l-0.42,1.967h2.291L209.153,32.341z"/>
	<path fill="#FFFFFF" d="M219.942,33.145h2.999l0.804-3.778h0.899l-1.835,8.635h-0.899l0.875-4.101h-2.998l-0.876,4.101h-0.899
		l1.835-8.635h0.899L219.942,33.145z"/>
	<path fill="#FFFFFF" d="M229.578,33.421c0.155-0.708-0.168-1.211-0.84-1.211c-0.563,0-1.151,0.264-1.715,0.48l-0.036-0.792
		c0.659-0.24,1.271-0.444,1.942-0.444c1.224,0,1.751,1.007,1.523,2.075l-0.588,2.783c-0.12,0.587-0.168,1.187-0.096,1.738
		l-0.863,0.108l-0.061-0.804c-0.539,0.516-1.079,0.779-1.751,0.779c-1.223,0-1.703-0.959-1.463-2.099
		c0.264-1.235,1.247-2.314,2.543-2.314c0.479,0,0.899,0.144,1.271,0.312L229.578,33.421z M229.29,34.788
		c-0.348-0.168-0.731-0.312-1.164-0.312c-0.911,0-1.438,0.792-1.606,1.606c-0.132,0.6,0.036,1.296,0.731,1.296
		s1.235-0.588,1.727-1.104v-0.024L229.29,34.788z"/>
	<path fill="#FFFFFF" d="M237.678,36.959c-0.792,0.695-1.535,1.175-2.531,1.175c-1.188,0-2.614-0.731-2.074-3.273
		c0.539-2.567,2.17-3.406,3.454-3.406c1.055,0,1.679,0.576,2.062,1.427l-0.888,0.516c-0.191-0.647-0.539-1.188-1.331-1.188
		c-0.911,0-1.979,0.672-2.387,2.567c-0.42,2.003,0.479,2.603,1.308,2.603c0.707,0,1.379-0.54,1.919-1.056L237.678,36.959z"/>
	<path fill="#FFFFFF" d="M245.909,31.586c-1.631,1.523-2.099,2.015-3.215,2.938l2.411,3.478h-1.188l-1.895-2.95l-0.492,0.408
		l-0.54,2.542h-0.899l1.896-8.898h0.899l-1.128,5.289c1.032-0.875,2.1-1.775,3.011-2.807H245.909z"/>
	<path fill="#FFFFFF" d="M252.856,29.367h0.888l-1.835,8.635h-0.899l1.391-6.572h-0.023l-2.675,4.233l-0.863-4.233l-0.024,0.024
		l-1.392,6.548h-0.899l1.835-8.635h0.876l0.899,4.306L252.856,29.367z"/>
	<path fill="#FFFFFF" d="M257.322,32.341h-1.823l0.168-0.755h2.723l-1.367,6.416h-0.899L257.322,32.341z M259.013,29.955
		c-0.096,0.432-0.503,0.755-0.923,0.755s-0.684-0.324-0.588-0.755c0.084-0.432,0.492-0.756,0.911-0.756
		C258.833,29.199,259.097,29.523,259.013,29.955z"/>
	<path fill="#FFFFFF" d="M265.578,33.421c0.155-0.708-0.168-1.211-0.84-1.211c-0.563,0-1.151,0.264-1.715,0.48l-0.036-0.792
		c0.659-0.24,1.271-0.444,1.942-0.444c1.224,0,1.751,1.007,1.523,2.075l-0.588,2.783c-0.12,0.587-0.168,1.187-0.096,1.738
		l-0.863,0.108l-0.061-0.804c-0.539,0.516-1.079,0.779-1.751,0.779c-1.223,0-1.703-0.959-1.463-2.099
		c0.264-1.235,1.247-2.314,2.543-2.314c0.479,0,0.899,0.144,1.271,0.312L265.578,33.421z M265.29,34.788
		c-0.348-0.168-0.731-0.312-1.164-0.312c-0.911,0-1.438,0.792-1.606,1.606c-0.132,0.6,0.036,1.296,0.731,1.296
		s1.235-0.588,1.727-1.104v-0.024L265.29,34.788z"/>
	<path fill="#FFFFFF" d="M268.963,33.577c0.18-0.875,0.192-1.451,0.192-2.123h0.899l0.012,0.576c0.456-0.336,0.84-0.576,1.379-0.576
		c0.588,0,0.72,0.144,0.972,0.587c0.443-0.335,0.827-0.6,1.355-0.6c0.863,0,1.295,0.564,1.115,1.427l-1.092,5.133h-0.899
		l1.092-5.133c0.096-0.432-0.084-0.671-0.443-0.671c-0.408,0-0.828,0.336-1.092,0.671l-1.092,5.133h-0.899l1.08-5.061
		c0.071-0.336,0.06-0.732-0.349-0.732c-0.432,0-0.947,0.384-1.199,0.78l-1.067,5.013h-0.899L268.963,33.577z"/>
	<path fill="#FFFFFF" d="M278.922,32.341h-1.823l0.168-0.755h2.723l-1.367,6.416h-0.899L278.922,32.341z M280.612,29.955
		c-0.096,0.432-0.503,0.755-0.923,0.755s-0.684-0.324-0.588-0.755c0.084-0.432,0.492-0.756,0.911-0.756
		C280.433,29.199,280.696,29.523,280.612,29.955z"/>
</g>
</svg>
