<?xml version="1.0" encoding="utf-8"?>
<!-- Generator: Adobe Illustrator 16.0.0, SVG Export Plug-In . SVG Version: 6.00 Build 0)  -->
<!DOCTYPE svg PUBLIC "-//W3C//DTD SVG 1.1//EN" "http://www.w3.org/Graphics/SVG/1.1/DTD/svg11.dtd">
<svg version="1.1" id="Layer_1" xmlns="http://www.w3.org/2000/svg" xmlns:xlink="http://www.w3.org/1999/xlink" x="0px" y="0px"
	 width="330px" height="70px" viewBox="0 0 330 70" enable-background="new 0 0 330 70" xml:space="preserve">
<g>
	<path fill="#FFFFFF" d="M60.691,23.628h-2.458l-1.679,7.88h-0.899l1.679-7.88h-2.411l0.156-0.755h5.769L60.691,23.628z"/>
	<path fill="#FFFFFF" d="M63.033,22.609h0.899l-0.731,3.406c0.588-0.611,1.367-1.055,2.159-1.055c0.768,0,1.595,0.24,1.043,2.866
		l-0.779,3.682h-0.899l0.803-3.754c0.12-0.588,0.432-2.039-0.384-2.039c-0.671,0-1.403,0.6-1.799,1.164
		c-0.504,0.72-0.636,1.439-0.804,2.243l-0.503,2.387h-0.9L63.033,22.609z"/>
	<path fill="#FFFFFF" d="M69.502,28.533c-0.336,1.763,0.336,2.351,1.319,2.351c0.708,0,1.487-0.324,2.146-0.684l0.216,0.803
		c-0.875,0.36-1.703,0.636-2.591,0.636c-1.895,0-2.303-1.631-1.955-3.298c0.36-1.679,1.5-3.382,3.418-3.382
		c2.135,0,1.943,2.387,1.811,3.082l-0.096,0.492H69.502z M73.028,27.778c0.192-1.055-0.192-2.063-1.199-2.063
		s-1.667,0.768-2.183,2.063H73.028z"/>
	<path fill="#FFFFFF" d="M83.554,31.508h-0.9l0.684-3.226c0.228-1.08,0.42-2.171,0.396-3.19h0.864l-0.048,1.175
		c0.612-0.755,1.559-1.307,2.459-1.307c1.019,0,1.343,0.936,1.115,2.027l-0.959,4.521h-0.899l0.899-4.258
		c0.132-0.611,0.336-1.535-0.456-1.535c-0.852,0-2.111,0.864-2.591,3.119L83.554,31.508z"/>
	<path fill="#FFFFFF" d="M94.088,26.926c0.156-0.708-0.168-1.211-0.839-1.211c-0.564,0-1.151,0.264-1.715,0.48l-0.036-0.792
		c0.66-0.24,1.271-0.444,1.943-0.444c1.223,0,1.751,1.007,1.523,2.075l-0.587,2.783c-0.12,0.587-0.168,1.187-0.096,1.739
		l-0.864,0.108l-0.06-0.803c-0.54,0.516-1.08,0.779-1.751,0.779c-1.224,0-1.703-0.959-1.463-2.099
		c0.264-1.235,1.247-2.315,2.542-2.315c0.48,0,0.899,0.144,1.271,0.312L94.088,26.926z M93.8,28.293
		c-0.348-0.168-0.731-0.312-1.163-0.312c-0.912,0-1.439,0.792-1.607,1.607c-0.132,0.6,0.036,1.295,0.731,1.295
		s1.235-0.588,1.727-1.104v-0.024L93.8,28.293z"/>
	<path fill="#FFFFFF" d="M102.463,25.847h-2.291l-0.78,3.658c-0.132,0.624-0.276,1.379,0.54,1.379c0.684,0,1.224-0.564,1.595-1.127
		l0.815,0.216c-0.624,0.923-1.511,1.667-2.59,1.667c-1.043,0-1.595-0.503-1.188-2.422l0.708-3.371h-1.379l0.168-0.755h1.379
		l0.42-1.967h0.899l-0.419,1.967h2.291L102.463,25.847z"/>
	<path fill="#FFFFFF" d="M107.433,25.847h-1.823l0.168-0.755h2.723l-1.368,6.417h-0.899L107.433,25.847z M109.124,23.46
		c-0.096,0.432-0.504,0.755-0.923,0.755c-0.42,0-0.684-0.324-0.588-0.755c0.084-0.432,0.492-0.756,0.912-0.756
		C108.943,22.705,109.208,23.028,109.124,23.46z"/>
	<path fill="#FFFFFF" d="M111.945,28.306c0.528-2.483,2.027-3.346,3.25-3.346c2.267,0,2.063,2.303,1.847,3.346
		c-0.528,2.482-2.027,3.334-3.262,3.334C112.665,31.64,111.394,30.896,111.945,28.306z M116.143,28.306
		c0.228-1.104,0.3-2.591-1.103-2.591c-1.403,0-1.967,1.487-2.195,2.591c-0.24,1.104-0.312,2.579,1.091,2.579
		S115.903,29.409,116.143,28.306z"/>
	<path fill="#FFFFFF" d="M119.553,31.508h-0.9l0.684-3.226c0.228-1.08,0.42-2.171,0.396-3.19h0.864l-0.048,1.175
		c0.612-0.755,1.559-1.307,2.459-1.307c1.019,0,1.343,0.936,1.115,2.027l-0.959,4.521h-0.899l0.899-4.258
		c0.132-0.611,0.336-1.535-0.456-1.535c-0.852,0-2.111,0.864-2.591,3.119L119.553,31.508z"/>
	<path fill="#FFFFFF" d="M130.783,22.873l-0.336,1.559l-0.828,1.559h-0.647l-0.18-1.559l0.336-1.559H130.783z"/>
	<path fill="#FFFFFF" d="M137.971,26.435c-0.432-0.36-0.912-0.72-1.559-0.72c-0.54,0-1.127,0.396-1.259,0.972
		c-0.132,0.624,0.552,0.936,1.007,1.115c0.923,0.372,1.895,0.792,1.619,2.063c-0.228,1.055-1.331,1.775-2.327,1.775
		c-0.972,0-1.835-0.479-2.411-1.115l0.647-0.72c0.396,0.54,1.104,1.08,1.859,1.08c0.6,0,1.188-0.336,1.319-0.983
		c0.18-0.84-0.443-1.067-1.043-1.319c-0.839-0.348-1.799-0.78-1.559-1.931c0.204-0.936,1.224-1.691,2.339-1.691
		c0.804,0,1.379,0.288,1.919,0.744L137.971,26.435z"/>
	<path fill="#FFFFFF" d="M150.284,22.609l-0.576,2.71c0.504-0.24,0.912-0.36,1.439-0.36c1.031,0,2.435,0.839,1.919,3.286
		c-0.54,2.519-2.171,3.394-3.298,3.394c-0.744,0-0.983-0.252-1.415-0.731l-0.348,0.72l-0.827-0.108
		c0.419-0.756,0.647-1.571,0.815-2.387l1.391-6.524H150.284z M148.761,29.757c0.156,0.587,0.419,1.127,1.151,1.127
		c0.587,0,1.799-0.504,2.243-2.603c0.384-1.787-0.348-2.567-1.307-2.567c-0.444,0-0.912,0.228-1.332,0.516L148.761,29.757z"/>
	<path fill="#FFFFFF" d="M158.887,26.926c0.156-0.708-0.168-1.211-0.839-1.211c-0.564,0-1.151,0.264-1.715,0.48l-0.036-0.792
		c0.66-0.24,1.271-0.444,1.943-0.444c1.223,0,1.751,1.007,1.523,2.075l-0.587,2.783c-0.12,0.587-0.168,1.187-0.096,1.739
		l-0.864,0.108l-0.06-0.803c-0.54,0.516-1.08,0.779-1.751,0.779c-1.224,0-1.703-0.959-1.463-2.099
		c0.264-1.235,1.247-2.315,2.542-2.315c0.48,0,0.899,0.144,1.271,0.312L158.887,26.926z M158.599,28.293
		c-0.348-0.168-0.731-0.312-1.163-0.312c-0.912,0-1.439,0.792-1.607,1.607c-0.132,0.6,0.036,1.295,0.731,1.295
		s1.235-0.588,1.727-1.104v-0.024L158.599,28.293z"/>
	<path fill="#FFFFFF" d="M165.763,31.64l-0.048-0.72c-0.636,0.48-0.972,0.72-1.715,0.72c-1.127,0-2.387-0.863-1.847-3.382
		c0.516-2.447,2.254-3.298,3.298-3.298c0.54,0,0.888,0.132,1.271,0.372l0.588-2.722h0.899l-1.403,6.608
		c-0.168,0.792-0.264,1.583-0.168,2.314L165.763,31.64z M166.531,26.243c-0.288-0.288-0.636-0.528-1.092-0.528
		c-0.959,0-2.027,0.804-2.399,2.579c-0.444,2.087,0.54,2.591,1.14,2.591c0.695,0,1.235-0.516,1.607-1.104L166.531,26.243z"/>
	<path fill="#FFFFFF" d="M172.963,31.64l-0.048-0.72c-0.636,0.48-0.972,0.72-1.715,0.72c-1.128,0-2.387-0.863-1.848-3.382
		c0.517-2.447,2.255-3.298,3.299-3.298c0.539,0,0.888,0.132,1.271,0.372l0.587-2.722h0.9l-1.403,6.608
		c-0.168,0.792-0.265,1.583-0.168,2.314L172.963,31.64z M173.73,26.243c-0.288-0.288-0.636-0.528-1.091-0.528
		c-0.96,0-2.027,0.804-2.399,2.579c-0.443,2.087,0.54,2.591,1.14,2.591c0.695,0,1.235-0.516,1.607-1.104L173.73,26.243z"/>
	<path fill="#FFFFFF" d="M177.5,28.533c-0.336,1.763,0.336,2.351,1.319,2.351c0.708,0,1.487-0.324,2.146-0.684l0.217,0.803
		c-0.876,0.36-1.703,0.636-2.591,0.636c-1.896,0-2.303-1.631-1.955-3.298c0.359-1.679,1.499-3.382,3.418-3.382
		c2.135,0,1.943,2.387,1.812,3.082l-0.097,0.492H177.5z M181.026,27.778c0.191-1.055-0.192-2.063-1.199-2.063
		c-1.008,0-1.667,0.768-2.183,2.063H181.026z"/>
	<path fill="#FFFFFF" d="M188.37,26.435c-0.432-0.36-0.911-0.72-1.559-0.72c-0.54,0-1.128,0.396-1.26,0.972
		c-0.132,0.624,0.552,0.936,1.008,1.115c0.923,0.372,1.895,0.792,1.619,2.063c-0.229,1.055-1.331,1.775-2.327,1.775
		c-0.972,0-1.835-0.479-2.41-1.115l0.647-0.72c0.396,0.54,1.104,1.08,1.858,1.08c0.601,0,1.188-0.336,1.319-0.983
		c0.181-0.84-0.443-1.067-1.043-1.319c-0.84-0.348-1.799-0.78-1.56-1.931c0.204-0.936,1.224-1.691,2.339-1.691
		c0.804,0,1.38,0.288,1.919,0.744L188.37,26.435z"/>
	<path fill="#FFFFFF" d="M196.062,25.847h-2.29l-0.78,3.658c-0.132,0.624-0.275,1.379,0.54,1.379c0.684,0,1.224-0.564,1.595-1.127
		l0.815,0.216c-0.623,0.923-1.511,1.667-2.59,1.667c-1.044,0-1.596-0.503-1.188-2.422l0.707-3.371h-1.379l0.168-0.755h1.379
		l0.42-1.967h0.899l-0.419,1.967h2.29L196.062,25.847z"/>
	<path fill="#FFFFFF" d="M60.031,42.96c-0.384,0.779-0.6,1.583-0.779,2.398l-0.756,3.525c-0.432,2.003-2.015,2.579-2.938,2.579
		c-0.755,0-1.439-0.432-1.823-0.983l0.755-0.552c0.252,0.468,0.744,0.779,1.343,0.779c0.948,0,1.559-0.863,1.751-1.775l0.108-0.503
		c-0.563,0.323-1.007,0.539-1.643,0.539c-1.571,0-2.015-1.499-1.715-2.89c0.324-1.523,1.331-3.118,3.106-3.118
		c0.611,0,1.031,0.203,1.451,0.563l0.288-0.563H60.031z M58.532,44.507c-0.204-0.432-0.684-0.792-1.235-0.792
		c-1.188,0-1.835,1.271-2.039,2.255c-0.264,1.247,0.12,2.243,0.996,2.243c0.552,0,1.295-0.372,1.667-0.84L58.532,44.507z"/>
	<path fill="#FFFFFF" d="M62.302,46.533c-0.336,1.764,0.336,2.351,1.319,2.351c0.708,0,1.487-0.323,2.146-0.684l0.216,0.804
		c-0.875,0.36-1.703,0.636-2.591,0.636c-1.895,0-2.303-1.631-1.955-3.298c0.36-1.679,1.5-3.382,3.418-3.382
		c2.135,0,1.943,2.387,1.811,3.082l-0.096,0.491H62.302z M65.828,45.778c0.192-1.056-0.192-2.063-1.199-2.063
		s-1.667,0.768-2.183,2.063H65.828z"/>
	<path fill="#FFFFFF" d="M69.502,46.533c-0.336,1.764,0.336,2.351,1.319,2.351c0.708,0,1.487-0.323,2.146-0.684l0.216,0.804
		c-0.875,0.36-1.703,0.636-2.591,0.636c-1.895,0-2.303-1.631-1.955-3.298c0.36-1.679,1.5-3.382,3.418-3.382
		c2.135,0,1.943,2.387,1.811,3.082l-0.096,0.491H69.502z M73.028,45.778c0.192-1.056-0.192-2.063-1.199-2.063
		s-1.667,0.768-2.183,2.063H73.028z"/>
	<path fill="#FFFFFF" d="M81.619,43.092c-1.631,1.522-2.099,2.015-3.214,2.938l2.411,3.479h-1.188l-1.895-2.95l-0.492,0.407
		l-0.54,2.543h-0.899l1.895-8.898h0.899l-1.127,5.289c1.031-0.876,2.099-1.775,3.01-2.807H81.619z"/>
	<path fill="#FFFFFF" d="M87.572,44.435c-0.432-0.359-0.912-0.72-1.559-0.72c-0.54,0-1.127,0.396-1.259,0.972
		c-0.132,0.624,0.552,0.936,1.007,1.115c0.923,0.372,1.895,0.792,1.619,2.062c-0.228,1.056-1.331,1.775-2.327,1.775
		c-0.972,0-1.835-0.479-2.411-1.115l0.647-0.72c0.396,0.54,1.104,1.079,1.859,1.079c0.6,0,1.188-0.335,1.319-0.983
		c0.18-0.839-0.444-1.067-1.043-1.319c-0.839-0.348-1.799-0.779-1.559-1.931c0.204-0.936,1.224-1.69,2.339-1.69
		c0.804,0,1.379,0.287,1.919,0.743L87.572,44.435z"/>
	<path fill="#FFFFFF" d="M102.187,48.465c-0.792,0.695-1.535,1.175-2.531,1.175c-1.187,0-2.614-0.731-2.075-3.274
		c0.54-2.566,2.171-3.405,3.454-3.405c1.056,0,1.679,0.575,2.063,1.427l-0.888,0.516c-0.192-0.647-0.54-1.188-1.331-1.188
		c-0.912,0-1.979,0.672-2.387,2.566c-0.42,2.003,0.479,2.603,1.307,2.603c0.708,0,1.379-0.539,1.919-1.055L102.187,48.465z"/>
	<path fill="#FFFFFF" d="M106.233,40.609h0.899l-0.731,3.405c0.588-0.611,1.367-1.055,2.159-1.055c0.768,0,1.595,0.239,1.043,2.866
		l-0.779,3.682h-0.899l0.803-3.754c0.12-0.588,0.432-2.039-0.384-2.039c-0.671,0-1.403,0.6-1.799,1.164
		c-0.504,0.72-0.636,1.438-0.804,2.242l-0.503,2.387h-0.9L106.233,40.609z"/>
	<path fill="#FFFFFF" d="M112.701,46.533c-0.336,1.764,0.336,2.351,1.319,2.351c0.708,0,1.487-0.323,2.146-0.684l0.216,0.804
		c-0.875,0.36-1.703,0.636-2.591,0.636c-1.895,0-2.303-1.631-1.955-3.298c0.36-1.679,1.5-3.382,3.418-3.382
		c2.135,0,1.943,2.387,1.811,3.082l-0.096,0.491H112.701z M116.227,45.778c0.192-1.056-0.192-2.063-1.199-2.063
		s-1.667,0.768-2.183,2.063H116.227z"/>
	<path fill="#FFFFFF" d="M123.787,48.465c-0.792,0.695-1.535,1.175-2.531,1.175c-1.187,0-2.614-0.731-2.075-3.274
		c0.54-2.566,2.171-3.405,3.454-3.405c1.056,0,1.679,0.575,2.063,1.427l-0.888,0.516c-0.192-0.647-0.54-1.188-1.331-1.188
		c-0.912,0-1.979,0.672-2.387,2.566c-0.42,2.003,0.479,2.603,1.307,2.603c0.708,0,1.379-0.539,1.919-1.055L123.787,48.465z"/>
	<path fill="#FFFFFF" d="M132.019,43.092c-1.631,1.522-2.099,2.015-3.214,2.938l2.411,3.479h-1.188l-1.895-2.95l-0.492,0.407
		l-0.54,2.543h-0.899l1.895-8.898h0.899l-1.127,5.289c1.031-0.876,2.099-1.775,3.01-2.807H132.019z"/>
	<path fill="#FFFFFF" d="M143.432,43.847h-1.823l0.168-0.755h2.723l-1.368,6.416h-0.899L143.432,43.847z M145.123,41.461
		c-0.096,0.432-0.504,0.755-0.923,0.755c-0.42,0-0.684-0.323-0.588-0.755c0.084-0.433,0.492-0.756,0.912-0.756
		C144.942,40.705,145.207,41.028,145.123,41.461z"/>
	<path fill="#FFFFFF" d="M148.353,49.508h-0.9l0.684-3.227c0.228-1.079,0.42-2.17,0.396-3.189h0.864l-0.048,1.175
		c0.612-0.755,1.559-1.307,2.459-1.307c1.019,0,1.343,0.936,1.115,2.026l-0.959,4.521h-0.899l0.899-4.258
		c0.132-0.611,0.336-1.535-0.456-1.535c-0.852,0-2.111,0.864-2.591,3.118L148.353,49.508z"/>
	<path fill="#FFFFFF" d="M166.087,44.927c0.156-0.708-0.168-1.212-0.839-1.212c-0.564,0-1.151,0.265-1.715,0.48l-0.036-0.792
		c0.66-0.24,1.271-0.443,1.943-0.443c1.224,0,1.751,1.007,1.523,2.074l-0.588,2.782c-0.12,0.588-0.168,1.188-0.096,1.739
		l-0.864,0.108l-0.06-0.804c-0.54,0.516-1.08,0.779-1.751,0.779c-1.224,0-1.703-0.959-1.463-2.099
		c0.264-1.235,1.247-2.314,2.542-2.314c0.48,0,0.899,0.144,1.271,0.312L166.087,44.927z M165.799,46.294
		c-0.348-0.168-0.731-0.312-1.163-0.312c-0.912,0-1.439,0.791-1.607,1.606c-0.132,0.6,0.036,1.295,0.731,1.295
		s1.235-0.587,1.727-1.103v-0.024L165.799,46.294z"/>
	<path fill="#FFFFFF" d="M174.462,43.847h-2.29l-0.78,3.658c-0.132,0.624-0.275,1.379,0.54,1.379c0.684,0,1.224-0.563,1.595-1.127
		l0.815,0.216c-0.623,0.924-1.511,1.667-2.59,1.667c-1.044,0-1.596-0.504-1.188-2.423l0.707-3.37h-1.379l0.168-0.755h1.379
		l0.42-1.967h0.899l-0.419,1.967h2.29L174.462,43.847z"/>
	<path fill="#FFFFFF" d="M185.252,44.65h2.998l0.804-3.777h0.899l-1.835,8.635h-0.899l0.876-4.102h-2.999l-0.875,4.102h-0.899
		l1.835-8.635h0.899L185.252,44.65z"/>
	<path fill="#FFFFFF" d="M194.887,44.927c0.155-0.708-0.168-1.212-0.84-1.212c-0.563,0-1.151,0.265-1.715,0.48l-0.036-0.792
		c0.659-0.24,1.271-0.443,1.943-0.443c1.223,0,1.751,1.007,1.522,2.074l-0.588,2.782c-0.119,0.588-0.167,1.188-0.096,1.739
		l-0.863,0.108l-0.06-0.804c-0.54,0.516-1.08,0.779-1.751,0.779c-1.224,0-1.703-0.959-1.464-2.099
		c0.264-1.235,1.247-2.314,2.543-2.314c0.479,0,0.899,0.144,1.271,0.312L194.887,44.927z M194.599,46.294
		c-0.348-0.168-0.731-0.312-1.163-0.312c-0.912,0-1.439,0.791-1.607,1.606c-0.132,0.6,0.036,1.295,0.731,1.295
		s1.235-0.587,1.728-1.103v-0.024L194.599,46.294z"/>
	<path fill="#FFFFFF" d="M202.986,48.465c-0.792,0.695-1.535,1.175-2.531,1.175c-1.188,0-2.614-0.731-2.074-3.274
		c0.539-2.566,2.17-3.405,3.454-3.405c1.055,0,1.679,0.575,2.062,1.427l-0.888,0.516c-0.191-0.647-0.539-1.188-1.331-1.188
		c-0.911,0-1.979,0.672-2.387,2.566c-0.42,2.003,0.479,2.603,1.308,2.603c0.707,0,1.379-0.539,1.919-1.055L202.986,48.465z"/>
	<path fill="#FFFFFF" d="M211.217,43.092c-1.631,1.522-2.099,2.015-3.215,2.938l2.411,3.479h-1.188l-1.895-2.95l-0.492,0.407
		l-0.54,2.543h-0.899l1.896-8.898h0.899l-1.128,5.289c1.032-0.876,2.1-1.775,3.011-2.807H211.217z"/>
	<path fill="#FFFFFF" d="M218.165,40.873h0.888l-1.835,8.635h-0.899l1.391-6.572h-0.023l-2.675,4.233l-0.863-4.233l-0.024,0.024
		l-1.392,6.548h-0.899l1.835-8.635h0.876l0.899,4.306L218.165,40.873z"/>
	<path fill="#FFFFFF" d="M222.631,43.847h-1.823l0.168-0.755h2.723l-1.367,6.416h-0.899L222.631,43.847z M224.321,41.461
		c-0.096,0.432-0.503,0.755-0.923,0.755s-0.684-0.323-0.588-0.755c0.084-0.433,0.492-0.756,0.911-0.756
		C224.142,40.705,224.405,41.028,224.321,41.461z"/>
	<path fill="#FFFFFF" d="M230.885,44.927c0.156-0.708-0.167-1.212-0.839-1.212c-0.563,0-1.151,0.265-1.715,0.48l-0.036-0.792
		c0.659-0.24,1.271-0.443,1.942-0.443c1.224,0,1.751,1.007,1.523,2.074l-0.588,2.782c-0.12,0.588-0.168,1.188-0.096,1.739
		l-0.863,0.108l-0.061-0.804c-0.539,0.516-1.079,0.779-1.751,0.779c-1.223,0-1.703-0.959-1.463-2.099
		c0.264-1.235,1.247-2.314,2.543-2.314c0.479,0,0.899,0.144,1.271,0.312L230.885,44.927z M230.598,46.294
		c-0.348-0.168-0.731-0.312-1.164-0.312c-0.911,0-1.438,0.791-1.606,1.606c-0.132,0.6,0.036,1.295,0.731,1.295
		s1.235-0.587,1.727-1.103v-0.024L230.598,46.294z"/>
	<path fill="#FFFFFF" d="M234.271,45.082c0.18-0.875,0.192-1.451,0.192-2.122h0.899l0.012,0.575c0.456-0.336,0.84-0.575,1.379-0.575
		c0.588,0,0.72,0.144,0.972,0.587c0.443-0.335,0.827-0.6,1.355-0.6c0.863,0,1.295,0.564,1.115,1.428l-1.092,5.133h-0.899
		l1.092-5.133c0.096-0.432-0.084-0.672-0.443-0.672c-0.408,0-0.828,0.336-1.092,0.672l-1.092,5.133h-0.899l1.08-5.061
		c0.071-0.336,0.06-0.732-0.349-0.732c-0.432,0-0.947,0.384-1.199,0.78l-1.067,5.013h-0.899L234.271,45.082z"/>
	<path fill="#FFFFFF" d="M244.23,43.847h-1.823l0.168-0.755h2.723l-1.367,6.416h-0.899L244.23,43.847z M245.921,41.461
		c-0.096,0.432-0.503,0.755-0.923,0.755s-0.684-0.323-0.588-0.755c0.084-0.433,0.492-0.756,0.911-0.756
		C245.741,40.705,246.005,41.028,245.921,41.461z"/>
	<path fill="#FFFFFF" d="M250.891,47.816c0.516,0,0.876,0.396,0.768,0.924c-0.12,0.527-0.647,0.936-1.163,0.936
		c-0.528,0-0.888-0.408-0.768-0.936C249.835,48.213,250.375,47.816,250.891,47.816z"/>
</g>
</svg>
