<?xml version="1.0" encoding="utf-8"?>
<!-- Generator: Adobe Illustrator 17.0.0, SVG Export Plug-In . SVG Version: 6.00 Build 0)  -->
<!DOCTYPE svg PUBLIC "-//W3C//DTD SVG 1.1//EN" "http://www.w3.org/Graphics/SVG/1.1/DTD/svg11.dtd">
<svg version="1.1" id="Layer_1" xmlns="http://www.w3.org/2000/svg" xmlns:xlink="http://www.w3.org/1999/xlink" x="0px" y="0px"
	 width="198.319px" height="25.902px" viewBox="-4.033 135.45 198.319 25.902"
	 enable-background="new -4.033 135.45 198.319 25.902" xml:space="preserve">
<g>
	<path fill="#FFFFFF" d="M-2.186,135.774h1.943c1.787,0,2.099,1.271,1.823,2.578c-0.372,1.703-1.583,2.543-3.202,2.543h-1.091
		l-0.744,3.514h-0.563L-2.186,135.774z M-1.719,136.254l-0.888,4.161h1.007c1.511,0,2.315-0.827,2.579-2.051
		c0.348-1.619-0.408-2.11-1.283-2.11H-1.719z"/>
	<path fill="#FFFFFF" d="M4.893,135.51h0.563l-0.839,3.935h0.024c0.552-0.792,1.475-1.512,2.435-1.512
		c0.588,0,1.416,0.468,1.116,1.859l-0.983,4.617H6.644l0.852-3.981c0.168-0.804,0.312-2.016-0.624-2.016
		c-1.067,0-2.315,1.332-2.626,2.807l-0.684,3.19H2.998L4.893,135.51z"/>
	<path fill="#FFFFFF" d="M10.571,141.23c0.527-2.47,1.979-3.298,3.13-3.298c1.056,0,2.279,0.708,1.727,3.298
		c-0.54,2.579-2.062,3.311-3.13,3.311C11.23,144.541,10.019,143.821,10.571,141.23z M14.864,141.23
		c0.264-1.235,0.288-2.818-1.271-2.818c-1.547,0-2.195,1.583-2.458,2.818c-0.264,1.248-0.288,2.831,1.259,2.831
		C13.952,144.061,14.6,142.466,14.864,141.23z"/>
	<path fill="#FFFFFF" d="M22.495,138.544h-2.327l-0.923,4.33c-0.132,0.611-0.024,1.188,0.755,1.188c0.708,0,1.319-0.528,1.715-1.128
		l0.516,0.132c-0.576,0.816-1.403,1.476-2.351,1.476c-0.816,0-1.476-0.396-1.127-2.003l0.852-3.994h-1.427l0.096-0.479h1.427
		l0.444-2.039h0.563l-0.443,2.039h2.327L22.495,138.544z"/>
	<path fill="#FFFFFF" d="M24.97,141.23c0.527-2.47,1.979-3.298,3.13-3.298c1.056,0,2.279,0.708,1.727,3.298
		c-0.54,2.579-2.062,3.311-3.13,3.311S24.419,143.821,24.97,141.23z M29.264,141.23c0.264-1.235,0.288-2.818-1.271-2.818
		c-1.547,0-2.195,1.583-2.458,2.818c-0.264,1.248-0.288,2.831,1.259,2.831C28.352,144.061,29,142.466,29.264,141.23z"/>
	<path fill="#FFFFFF" d="M36.524,139.072c-0.432-0.36-0.936-0.66-1.571-0.66s-1.355,0.48-1.499,1.151
		c-0.156,0.744,0.6,1.092,1.127,1.308c0.887,0.372,1.823,0.756,1.559,1.991c-0.216,1.055-1.283,1.679-2.255,1.679
		c-0.792,0-1.715-0.491-2.171-1.02l0.408-0.456c0.408,0.517,1.14,0.996,1.883,0.996c0.708,0,1.403-0.396,1.571-1.163
		c0.204-0.948-0.479-1.224-1.163-1.512c-0.804-0.336-1.751-0.743-1.511-1.871c0.192-0.899,1.247-1.583,2.195-1.583
		c0.731,0,1.271,0.252,1.763,0.672L36.524,139.072z"/>
	<path fill="#FFFFFF" d="M48.609,135.51l-0.636,2.963c0.504-0.348,1.116-0.54,1.679-0.54c0.875,0,2.339,0.72,1.799,3.263
		c-0.528,2.471-2.111,3.346-3.167,3.346c-0.744,0-1.283-0.384-1.475-1.043l-0.444,1.043l-0.516-0.072
		c0.384-0.743,0.612-1.511,0.779-2.29l1.416-6.669H48.609z M47.062,142.79c0.168,0.684,0.468,1.271,1.307,1.271
		c0.72,0,2.039-0.624,2.506-2.831c0.504-2.326-0.755-2.818-1.475-2.818c-0.54,0-1.079,0.276-1.547,0.624L47.062,142.79z"/>
	<path fill="#FFFFFF" d="M59.323,138.064l-3.646,6.033c-0.528,0.863-1.379,2.339-2.495,2.339c-0.72,0-1.127-0.564-1.199-1.212
		l0.527-0.252c0.06,0.432,0.252,0.983,0.78,0.983c0.612,0,1.08-0.707,1.391-1.188l0.708-1.091l-0.876-5.613h0.624l0.684,4.869
		l2.854-4.869H59.323z"/>
	<path fill="#FFFFFF" d="M73.063,137.405c0.132-0.756-0.384-1.319-1.139-1.319c-2.003,0-2.723,2.603-3.035,4.065
		c-0.3,1.428-0.684,3.946,1.259,3.946c0.9,0,1.715-0.672,1.943-1.56h0.564c-0.384,1.271-1.379,2.039-2.663,2.039
		c-2.279,0-2.087-2.614-1.715-4.365c0.396-1.835,1.307-4.605,3.742-4.605c1.056,0,1.739,0.743,1.607,1.799H73.063z"/>
	<path fill="#FFFFFF" d="M76.892,135.51h0.563l-0.839,3.935h0.024c0.552-0.792,1.475-1.512,2.435-1.512
		c0.588,0,1.416,0.468,1.116,1.859l-0.983,4.617h-0.564l0.852-3.981c0.168-0.804,0.312-2.016-0.624-2.016
		c-1.067,0-2.315,1.332-2.626,2.807l-0.684,3.19h-0.564L76.892,135.51z"/>
	<path fill="#FFFFFF" d="M85.687,144.541c-0.048-0.348-0.06-0.72-0.012-1.079c-0.576,0.636-1.139,1.079-1.967,1.079
		c-1.164,0-1.571-0.947-1.343-2.015c0.264-1.212,1.164-2.255,2.387-2.255c0.516,0,1.067,0.204,1.463,0.42
		c0.372-1.607,0.228-2.279-0.816-2.279c-0.552,0-1.055,0.192-1.607,0.42l-0.024-0.516c0.6-0.216,1.175-0.384,1.775-0.384
		c1.164,0,1.679,0.815,1.343,2.23c-0.204,0.864-0.408,1.728-0.624,2.591c-0.144,0.612-0.108,1.188-0.048,1.715L85.687,144.541z
		 M86.083,141.135c-0.348-0.204-0.792-0.384-1.295-0.384c-1.056,0-1.667,0.888-1.859,1.823c-0.156,0.708,0.072,1.487,0.875,1.487
		c0.792,0,1.403-0.636,1.931-1.283L86.083,141.135z"/>
	<path fill="#FFFFFF" d="M90.429,144.409h-0.564l0.936-4.39l0.204-2.026h0.54l-0.168,1.774l0.024,0.024
		c0.576-0.876,1.451-1.859,2.542-1.859c1.056,0,1.104,1.056,0.924,1.919h-0.564c0.108-0.588,0.252-1.439-0.516-1.439
		c-0.647,0-2.291,1.008-2.807,3.419L90.429,144.409z"/>
	<path fill="#FFFFFF" d="M100.207,135.99h-1.871l0.107-0.48h2.435l-1.895,8.899H98.42L100.207,135.99z"/>
	<path fill="#FFFFFF" d="M108.306,143.966c-0.804,0.323-1.571,0.575-2.387,0.575c-1.858,0-2.194-1.667-1.847-3.274
		c0.336-1.606,1.415-3.334,3.286-3.334c1.067,0,2.159,0.768,1.607,3.395h-4.342c-0.372,2.23,0.443,2.734,1.415,2.734
		c0.72,0,1.463-0.264,2.135-0.624L108.306,143.966z M108.498,140.846c0.288-1.091-0.072-2.435-1.319-2.435
		c-1.235,0-2.255,1.319-2.459,2.435H108.498z"/>
	<path fill="#FFFFFF" d="M115.722,139.072c-0.432-0.36-0.936-0.66-1.57-0.66c-0.636,0-1.355,0.48-1.5,1.151
		c-0.155,0.744,0.6,1.092,1.128,1.308c0.888,0.372,1.823,0.756,1.559,1.991c-0.216,1.055-1.283,1.679-2.255,1.679
		c-0.791,0-1.715-0.491-2.17-1.02l0.407-0.456c0.408,0.517,1.14,0.996,1.883,0.996c0.708,0,1.403-0.396,1.571-1.163
		c0.204-0.948-0.479-1.224-1.163-1.512c-0.804-0.336-1.751-0.743-1.512-1.871c0.192-0.899,1.248-1.583,2.195-1.583
		c0.731,0,1.271,0.252,1.763,0.672L115.722,139.072z"/>
	<path fill="#FFFFFF" d="M125.792,140.092c0.42-1.967,1.188-4.485,3.514-4.485c2.543,0,1.896,3.021,1.583,4.485
		c-0.779,3.67-2.11,4.485-3.489,4.485C126.031,144.577,125.013,143.785,125.792,140.092z M127.507,144.097
		c1.151,0,2.123-0.899,2.782-4.006c0.684-3.215,0.024-4.006-1.079-4.006c-1.247,0-2.183,1.031-2.818,4.006
		C125.708,143.317,126.428,144.097,127.507,144.097z"/>
	<path fill="#FFFFFF" d="M132.897,139.983c0.18-0.839,0.228-1.511,0.216-2.051h0.575l-0.023,0.828
		c0.468-0.504,1.043-0.828,1.667-0.828c0.516,0,0.731,0.312,0.815,0.768c0.407-0.407,0.923-0.768,1.475-0.768
		c0.816,0,1.128,0.54,0.96,1.331l-1.092,5.146h-0.563l1.092-5.121c0.132-0.647-0.132-0.888-0.576-0.888
		c-0.504,0-1.007,0.396-1.331,0.815l-1.104,5.193h-0.563l1.031-4.869c0.096-0.479,0.204-1.128-0.432-1.128
		c-0.54,0-1.128,0.444-1.439,0.924l-1.079,5.073h-0.563L132.897,139.983z"/>
	<path fill="#FFFFFF" d="M140.097,139.983c0.18-0.839,0.228-1.511,0.216-2.051h0.575l-0.023,0.828
		c0.468-0.504,1.043-0.828,1.667-0.828c0.516,0,0.731,0.312,0.815,0.768c0.407-0.407,0.923-0.768,1.475-0.768
		c0.816,0,1.128,0.54,0.96,1.331l-1.092,5.146h-0.563l1.092-5.121c0.132-0.647-0.132-0.888-0.576-0.888
		c-0.504,0-1.007,0.396-1.331,0.815l-1.104,5.193h-0.563l1.031-4.869c0.096-0.479,0.204-1.128-0.432-1.128
		c-0.54,0-1.127,0.444-1.439,0.924l-1.079,5.073h-0.563L140.097,139.983z"/>
	<path fill="#FFFFFF" d="M150.486,144.541c-0.048-0.348-0.06-0.72-0.012-1.079c-0.575,0.636-1.14,1.079-1.967,1.079
		c-1.163,0-1.571-0.947-1.344-2.015c0.265-1.212,1.164-2.255,2.387-2.255c0.517,0,1.068,0.204,1.464,0.42
		c0.372-1.607,0.228-2.279-0.815-2.279c-0.552,0-1.056,0.192-1.607,0.42l-0.024-0.516c0.6-0.216,1.176-0.384,1.775-0.384
		c1.163,0,1.679,0.815,1.344,2.23c-0.204,0.864-0.408,1.728-0.624,2.591c-0.144,0.612-0.108,1.188-0.048,1.715L150.486,144.541z
		 M150.882,141.135c-0.348-0.204-0.792-0.384-1.296-0.384c-1.055,0-1.667,0.888-1.858,1.823c-0.156,0.708,0.071,1.487,0.875,1.487
		c0.792,0,1.403-0.636,1.932-1.283L150.882,141.135z"/>
	<path fill="#FFFFFF" d="M154.652,144.409h-0.563l0.672-3.179c0.228-1.079,0.432-2.158,0.443-3.237h0.528l-0.168,1.822h0.023
		c0.444-0.947,1.655-1.883,2.663-1.883c1.151,0,1.259,0.995,1.055,1.955l-0.959,4.521h-0.563l0.899-4.258
		c0.155-0.731,0.371-1.739-0.612-1.739c-0.911,0-2.351,0.912-2.866,3.383L154.652,144.409z"/>
	<path fill="#FFFFFF" d="M161.852,144.409h-0.563l0.672-3.179c0.228-1.079,0.432-2.158,0.443-3.237h0.528l-0.168,1.822h0.023
		c0.444-0.947,1.655-1.883,2.663-1.883c1.151,0,1.259,0.995,1.055,1.955l-0.959,4.521h-0.563l0.899-4.258
		c0.155-0.731,0.371-1.739-0.612-1.739c-0.911,0-2.351,0.912-2.866,3.383L161.852,144.409z"/>
	<path fill="#FFFFFF" d="M173.105,143.966c-0.804,0.323-1.571,0.575-2.387,0.575c-1.858,0-2.194-1.667-1.847-3.274
		c0.336-1.606,1.415-3.334,3.286-3.334c1.067,0,2.159,0.768,1.607,3.395h-4.342c-0.372,2.23,0.443,2.734,1.415,2.734
		c0.72,0,1.463-0.264,2.135-0.624L173.105,143.966z M173.297,140.846c0.288-1.091-0.072-2.435-1.319-2.435
		c-1.235,0-2.255,1.319-2.459,2.435H173.297z"/>
	<path fill="#FFFFFF" d="M181.72,138.064l-3.646,6.033c-0.527,0.863-1.379,2.339-2.495,2.339c-0.719,0-1.127-0.564-1.199-1.212
		l0.528-0.252c0.06,0.432,0.252,0.983,0.779,0.983c0.611,0,1.079-0.707,1.392-1.188l0.707-1.091l-0.875-5.613h0.623l0.684,4.869
		l2.854-4.869H181.72z"/>
	<path fill="#FFFFFF" d="M190.184,144.733l3.551-9.283h0.551l-3.55,9.283H190.184z"/>
	<path fill="#FFFFFF" d="M-2.198,150.175h2.051c1.451,0,2.087,0.971,1.787,2.374c-0.228,1.092-1.055,2.063-2.183,2.398l1.511,3.862
		H0.26l-1.355-3.729h-1.583l-0.792,3.729h-0.563L-2.198,150.175z M-2.57,154.599h1.403c0.768,0,1.895-0.587,2.219-2.099
		c0.216-1.008-0.084-1.847-1.295-1.847h-1.487L-2.57,154.599z"/>
	<path fill="#FFFFFF" d="M7.508,158.366c-0.804,0.323-1.571,0.575-2.387,0.575c-1.859,0-2.195-1.667-1.847-3.274
		c0.336-1.606,1.415-3.334,3.286-3.334c1.067,0,2.159,0.768,1.607,3.395H3.826c-0.372,2.23,0.444,2.734,1.415,2.734
		c0.72,0,1.463-0.264,2.135-0.624L7.508,158.366z M7.7,155.247c0.288-1.091-0.072-2.435-1.319-2.435
		c-1.235,0-2.255,1.319-2.459,2.435H7.7z"/>
	<path fill="#FFFFFF" d="M11.026,154.683c0.168-0.768,0.264-1.535,0.204-2.278l0.54-0.072v1.044h0.024
		c0.456-0.66,1.151-1.044,1.895-1.044c1.055,0,2.279,0.852,1.739,3.347c-0.54,2.542-2.314,3.262-3.178,3.262
		c-0.563,0-1.091-0.191-1.451-0.54l-0.624,2.951H9.611L11.026,154.683z M10.918,157.838c0.324,0.348,0.744,0.624,1.283,0.624
		c0.72,0,2.183-0.504,2.675-2.818c0.467-2.207-0.588-2.831-1.308-2.831c-0.839,0-1.391,0.588-1.847,1.271L10.918,157.838z"/>
	<path fill="#FFFFFF" d="M17.77,155.631c0.527-2.47,1.979-3.298,3.13-3.298c1.056,0,2.279,0.708,1.727,3.298
		c-0.54,2.579-2.062,3.311-3.13,3.311S17.219,158.221,17.77,155.631z M22.064,155.631c0.264-1.235,0.288-2.818-1.271-2.818
		c-1.547,0-2.195,1.583-2.458,2.818c-0.264,1.248-0.288,2.831,1.259,2.831C21.152,158.462,21.8,156.866,22.064,155.631z"/>
	<path fill="#FFFFFF" d="M25.63,158.809h-0.564l0.936-4.39l0.204-2.026h0.54l-0.168,1.774l0.024,0.024
		c0.576-0.876,1.451-1.859,2.542-1.859c1.056,0,1.104,1.056,0.924,1.919h-0.564c0.108-0.588,0.252-1.439-0.516-1.439
		c-0.647,0-2.291,1.008-2.807,3.419L25.63,158.809z"/>
	<path fill="#FFFFFF" d="M36.895,152.944h-2.327l-0.923,4.33c-0.132,0.611-0.024,1.188,0.755,1.188c0.708,0,1.319-0.528,1.715-1.128
		l0.516,0.132c-0.576,0.816-1.403,1.476-2.351,1.476c-0.816,0-1.476-0.396-1.127-2.003l0.852-3.994h-1.427l0.096-0.479h1.427
		l0.444-2.039h0.563l-0.443,2.039h2.327L36.895,152.944z"/>
	<path fill="#FFFFFF" d="M42.488,158.941c-0.048-0.348-0.06-0.72-0.012-1.079c-0.576,0.636-1.139,1.079-1.967,1.079
		c-1.164,0-1.571-0.947-1.343-2.015c0.264-1.212,1.164-2.255,2.387-2.255c0.516,0,1.067,0.204,1.463,0.42
		c0.372-1.607,0.228-2.279-0.816-2.279c-0.552,0-1.055,0.192-1.607,0.42l-0.024-0.516c0.6-0.216,1.175-0.384,1.775-0.384
		c1.164,0,1.679,0.815,1.343,2.23c-0.204,0.864-0.408,1.728-0.624,2.591c-0.144,0.612-0.108,1.188-0.048,1.715L42.488,158.941z
		 M42.884,155.535c-0.348-0.204-0.792-0.384-1.295-0.384c-1.056,0-1.667,0.888-1.859,1.823c-0.156,0.708,0.072,1.487,0.875,1.487
		c0.792,0,1.403-0.636,1.931-1.283L42.884,155.535z"/>
	<path fill="#FFFFFF" d="M46.462,159.637c0.275,0.444,0.827,0.72,1.415,0.72c0.708,0,1.715-0.516,2.063-2.11l0.167-0.78
		c-0.527,0.456-1.331,0.78-1.955,0.78c-1.511,0-1.871-1.512-1.595-2.831c0.312-1.463,1.259-3.082,2.986-3.082
		c0.708,0,1.115,0.312,1.571,0.731l0.324-0.731h0.576c-0.528,1.092-0.768,2.23-0.996,3.347l-0.552,2.638
		c-0.396,1.871-1.835,2.52-2.806,2.52c-0.66,0-1.319-0.384-1.667-0.852L46.462,159.637z M50.875,153.736
		c-0.264-0.527-0.792-0.924-1.463-0.924c-1.307,0-2.039,1.416-2.267,2.495c-0.42,2.003,0.635,2.459,1.151,2.459
		c0.647,0,1.475-0.408,1.931-0.972L50.875,153.736z"/>
	<path fill="#FFFFFF" d="M57.907,158.366c-0.804,0.323-1.571,0.575-2.387,0.575c-1.859,0-2.195-1.667-1.847-3.274
		c0.336-1.606,1.415-3.334,3.286-3.334c1.067,0,2.159,0.768,1.607,3.395h-4.342c-0.372,2.23,0.444,2.734,1.415,2.734
		c0.72,0,1.463-0.264,2.135-0.624L57.907,158.366z M58.099,155.247c0.288-1.091-0.072-2.435-1.319-2.435
		c-1.235,0-2.255,1.319-2.459,2.435H58.099z"/>
	<path fill="#FFFFFF" d="M70.208,149.91l-0.636,2.963c0.504-0.348,1.116-0.54,1.679-0.54c0.875,0,2.339,0.72,1.799,3.263
		c-0.528,2.471-2.111,3.346-3.167,3.346c-0.744,0-1.283-0.384-1.475-1.043l-0.444,1.043l-0.516-0.072
		c0.384-0.743,0.612-1.511,0.779-2.29l1.416-6.669H70.208z M68.661,157.19c0.168,0.684,0.468,1.271,1.307,1.271
		c0.72,0,2.039-0.624,2.506-2.831c0.504-2.326-0.755-2.818-1.475-2.818c-0.54,0-1.079,0.276-1.547,0.624L68.661,157.19z"/>
	<path fill="#FFFFFF" d="M80.922,152.465l-3.646,6.033c-0.528,0.863-1.379,2.339-2.495,2.339c-0.72,0-1.127-0.564-1.199-1.212
		l0.527-0.252c0.06,0.432,0.252,0.983,0.78,0.983c0.612,0,1.08-0.707,1.391-1.188l0.708-1.091l-0.876-5.613h0.624l0.684,4.869
		l2.854-4.869H80.922z"/>
	<path fill="#FFFFFF" d="M92.24,155.128l0.108-0.48h2.638l-0.923,4.33h-0.563l0.288-1.367h-0.024
		c-0.444,0.852-1.403,1.367-2.291,1.367c-1.367,0-2.267-0.899-1.571-4.21c0.815-3.825,2.135-4.761,3.598-4.761
		c1.331,0,1.787,0.911,1.631,2.146h-0.6c0.216-0.863-0.132-1.667-1.067-1.667c-2.003,0-2.626,2.639-2.926,4.077
		c-0.288,1.332-0.78,3.935,1.091,3.935c0.911,0,2.111-0.612,2.542-2.675l0.144-0.695H92.24z"/>
	<path fill="#FFFFFF" d="M101.107,158.366c-0.804,0.323-1.571,0.575-2.387,0.575c-1.859,0-2.195-1.667-1.847-3.274
		c0.335-1.606,1.415-3.334,3.286-3.334c1.067,0,2.158,0.768,1.606,3.395h-4.342c-0.371,2.23,0.444,2.734,1.416,2.734
		c0.72,0,1.463-0.264,2.135-0.624L101.107,158.366z M101.298,155.247c0.288-1.091-0.071-2.435-1.319-2.435
		c-1.235,0-2.255,1.319-2.458,2.435H101.298z"/>
	<path fill="#FFFFFF" d="M108.894,152.944h-2.326l-0.924,4.33c-0.132,0.611-0.024,1.188,0.756,1.188
		c0.707,0,1.319-0.528,1.715-1.128l0.516,0.132c-0.576,0.816-1.403,1.476-2.351,1.476c-0.815,0-1.476-0.396-1.128-2.003l0.852-3.994
		h-1.427l0.096-0.479h1.428l0.443-2.039h0.563l-0.443,2.039h2.326L108.894,152.944z"/>
	<path fill="#FFFFFF" d="M116.094,152.944h-2.326l-0.924,4.33c-0.132,0.611-0.024,1.188,0.756,1.188
		c0.707,0,1.319-0.528,1.715-1.128l0.516,0.132c-0.576,0.816-1.403,1.476-2.351,1.476c-0.815,0-1.476-0.396-1.128-2.003l0.852-3.994
		h-1.427l0.096-0.479h1.428l0.443-2.039h0.563l-0.443,2.039h2.326L116.094,152.944z"/>
	<path fill="#FFFFFF" d="M124.122,152.465l-3.646,6.033c-0.527,0.863-1.379,2.339-2.494,2.339c-0.72,0-1.128-0.564-1.2-1.212
		l0.528-0.252c0.06,0.432,0.252,0.983,0.779,0.983c0.611,0,1.079-0.707,1.392-1.188l0.707-1.091l-0.875-5.613h0.623l0.684,4.869
		l2.854-4.869H124.122z"/>
	<path fill="#FFFFFF" d="M137.85,150.654h-1.199l-1.632,7.676h1.199l-0.107,0.479h-2.963l0.108-0.479h1.199l1.631-7.676h-1.199
		l0.097-0.479h2.962L137.85,150.654z"/>
	<path fill="#FFFFFF" d="M140.097,154.384c0.18-0.839,0.228-1.511,0.216-2.051h0.575l-0.023,0.828
		c0.468-0.504,1.043-0.828,1.667-0.828c0.516,0,0.731,0.312,0.815,0.768c0.407-0.407,0.923-0.768,1.475-0.768
		c0.816,0,1.128,0.54,0.96,1.331l-1.092,5.146h-0.563l1.092-5.121c0.132-0.647-0.132-0.888-0.576-0.888
		c-0.504,0-1.007,0.396-1.331,0.815l-1.104,5.193h-0.563l1.031-4.869c0.096-0.479,0.204-1.128-0.432-1.128
		c-0.54,0-1.127,0.444-1.439,0.924l-1.079,5.073h-0.563L140.097,154.384z"/>
	<path fill="#FFFFFF" d="M150.486,158.941c-0.048-0.348-0.06-0.72-0.012-1.079c-0.575,0.636-1.14,1.079-1.967,1.079
		c-1.163,0-1.571-0.947-1.344-2.015c0.265-1.212,1.164-2.255,2.387-2.255c0.517,0,1.068,0.204,1.464,0.42
		c0.372-1.607,0.228-2.279-0.815-2.279c-0.552,0-1.056,0.192-1.607,0.42l-0.024-0.516c0.6-0.216,1.176-0.384,1.775-0.384
		c1.163,0,1.679,0.815,1.344,2.23c-0.204,0.864-0.408,1.728-0.624,2.591c-0.144,0.612-0.108,1.188-0.048,1.715L150.486,158.941z
		 M150.882,155.535c-0.348-0.204-0.792-0.384-1.296-0.384c-1.055,0-1.667,0.888-1.858,1.823c-0.156,0.708,0.071,1.487,0.875,1.487
		c0.792,0,1.403-0.636,1.932-1.283L150.882,155.535z"/>
	<path fill="#FFFFFF" d="M154.46,159.637c0.275,0.444,0.827,0.72,1.415,0.72c0.708,0,1.715-0.516,2.062-2.11l0.168-0.78
		c-0.527,0.456-1.331,0.78-1.955,0.78c-1.511,0-1.87-1.512-1.595-2.831c0.312-1.463,1.26-3.082,2.986-3.082
		c0.708,0,1.115,0.312,1.571,0.731l0.323-0.731h0.576c-0.527,1.092-0.768,2.23-0.995,3.347l-0.552,2.638
		c-0.396,1.871-1.835,2.52-2.807,2.52c-0.66,0-1.319-0.384-1.667-0.852L154.46,159.637z M158.873,153.736
		c-0.264-0.527-0.791-0.924-1.463-0.924c-1.308,0-2.039,1.416-2.267,2.495c-0.42,2.003,0.636,2.459,1.151,2.459
		c0.647,0,1.475-0.408,1.931-0.972L158.873,153.736z"/>
	<path fill="#FFFFFF" d="M165.906,158.366c-0.804,0.323-1.571,0.575-2.387,0.575c-1.858,0-2.194-1.667-1.847-3.274
		c0.336-1.606,1.415-3.334,3.286-3.334c1.067,0,2.159,0.768,1.607,3.395h-4.342c-0.372,2.23,0.443,2.734,1.415,2.734
		c0.72,0,1.463-0.264,2.135-0.624L165.906,158.366z M166.098,155.247c0.288-1.091-0.072-2.435-1.319-2.435
		c-1.235,0-2.255,1.319-2.459,2.435H166.098z"/>
	<path fill="#FFFFFF" d="M173.321,153.472c-0.432-0.36-0.936-0.66-1.57-0.66c-0.636,0-1.355,0.48-1.5,1.151
		c-0.155,0.744,0.6,1.092,1.128,1.308c0.888,0.372,1.823,0.756,1.559,1.991c-0.216,1.055-1.283,1.679-2.254,1.679
		c-0.792,0-1.716-0.491-2.171-1.02l0.407-0.456c0.408,0.517,1.14,0.996,1.883,0.996c0.708,0,1.403-0.396,1.571-1.163
		c0.204-0.948-0.479-1.224-1.163-1.512c-0.804-0.336-1.751-0.743-1.512-1.871c0.192-0.899,1.248-1.583,2.195-1.583
		c0.731,0,1.271,0.252,1.763,0.672L173.321,153.472z"/>
</g>
</svg>
