<?xml version="1.0" encoding="utf-8"?>
<!-- Generator: Adobe Illustrator 15.0.0, SVG Export Plug-In . SVG Version: 6.00 Build 0)  -->
<!DOCTYPE svg PUBLIC "-//W3C//DTD SVG 1.1//EN" "http://www.w3.org/Graphics/SVG/1.1/DTD/svg11.dtd">
<svg version="1.1" id="Layer_1" xmlns="http://www.w3.org/2000/svg" xmlns:xlink="http://www.w3.org/1999/xlink" x="0px" y="0px"
	 width="355.613px" height="67.82px" viewBox="0 0 355.613 67.82" enable-background="new 0 0 355.613 67.82" xml:space="preserve">
<g>
	<path fill="#FFFFFF" d="M14.43,2.69H8.28v19.709H6.03V2.69H0V0.8h14.43V2.69z"/>
	<path fill="#FFFFFF" d="M21.45,10.249h7.5v-9.45h2.25v21.599h-2.25v-10.26h-7.5v10.26H19.2V0.8h2.25V10.249z"/>
	<path fill="#FFFFFF" d="M49.589,2.69H40.62v7.68h6.45v1.89h-6.45v8.25h9.179v1.89H38.37V0.8h11.219V2.69z"/>
	<path fill="#FFFFFF" d="M83.099,5.479c-0.03-1.8-1.32-3.21-3.15-3.21c-4.56,0-4.86,6.18-4.86,9.51c0,3.15,0.33,9.15,4.65,9.15
		c2.25,0,3.6-1.68,3.63-3.81h2.25c-0.24,3.51-2.37,5.699-5.97,5.699c-5.94,0-6.81-6.51-6.81-11.1c0-4.74,0.99-11.339,7.08-11.339
		c3,0,5.25,2.1,5.43,5.1H83.099L83.099,5.479z"/>
	<path fill="#FFFFFF" d="M100.798,0.8h2.49l-5.52,12.479v9.12h-2.25v-9.12L89.998,0.8h2.49l4.169,9.78L100.798,0.8z"/>
	<path fill="#FFFFFF" d="M109.438,22.399V0.8h4.53c2.49,0,6.78,0.3,6.78,5.46c0,2.07-1.08,3.66-2.85,4.649
		c2.46,1.2,3.78,2.82,3.78,5.61c0,3.15-2.28,5.88-6.06,5.88H109.438z M111.688,10.219h2.61c2.01,0,4.2-1.47,4.2-4.05
		c0-3.57-3-3.479-4.38-3.479h-2.43V10.219z M115.468,20.509c1.98,0,3.96-1.17,3.96-3.87c0-2.4-1.5-4.53-4.92-4.53h-2.82v8.4H115.468
		z"/>
	<path fill="#FFFFFF" d="M139.587,2.69h-8.969v7.68h6.45v1.89h-6.45v8.25h9.18v1.89h-11.43V0.8h11.219V2.69z"/>
	<path fill="#FFFFFF" d="M146.128,0.8h5.61c5.4,0,5.88,4.86,5.88,6.12c0,2.22-0.84,4.26-3.84,5.97l5.82,9.51h-2.73l-5.25-9
		c-1.08,0.03-2.16,0.03-3.24,0.06v8.939h-2.25V0.8z M150.508,11.54c3.06,0,4.86-1.56,4.86-4.74c0-2.88-1.2-4.109-4.77-4.109h-2.22
		v8.85L150.508,11.54L150.508,11.54z"/>
	<path fill="#FFFFFF" d="M172.497,17.66h0.06l1.08-16.86h2.43l-1.65,21.809h-2.58l-2.73-9.359l-2.76,9.359h-2.49l-1.8-21.809h2.43
		l1.14,16.86h0.06l3.42-10.83L172.497,17.66z"/>
	<path fill="#FFFFFF" d="M194.876,22.399h-2.43l-1.92-6.359h-6.57l-1.92,6.359h-2.43L187.226-1L194.876,22.399z M184.497,14.149
		h5.49l-2.76-8.73L184.497,14.149z"/>
	<path fill="#FFFFFF" d="M200.127,0.8h5.61c5.4,0,5.88,4.86,5.88,6.12c0,2.22-0.84,4.26-3.84,5.97l5.821,9.51h-2.73l-5.25-9
		c-1.081,0.03-2.161,0.03-3.241,0.06v8.939h-2.25V0.8z M204.507,11.54c3.06,0,4.86-1.56,4.86-4.74c0-2.88-1.201-4.109-4.77-4.109
		h-2.22v8.85L204.507,11.54L204.507,11.54z"/>
	<path fill="#FFFFFF" d="M225.266,0.8v3.9l-1.26,3.9h-1.619l-1.262-3.9V0.8H225.266z"/>
	<path fill="#FFFFFF" d="M245.906,4.7c-1.32-1.17-2.82-2.43-4.68-2.43c-1.92,0-3.48,1.32-3.48,3.3c0,1.14,0.209,2.16,3.119,3.93
		l1.711,1.05c3.959,2.43,5.039,3.57,5.039,6.09c0,3.87-2.58,6.18-6.359,6.18c-2.789,0-4.859-1.35-6.539-3.51l1.738-1.38
		c1.051,1.68,2.73,3,4.801,3c2.25,0,4.109-1.68,4.109-3.99c0-1.74-0.119-2.34-3.93-4.62l-1.949-1.17
		c-2.131-1.26-3.99-2.73-3.99-5.43c0-3.39,2.58-5.34,5.82-5.34c2.25,0,4.32,1.2,5.939,2.7L245.906,4.7z"/>
	<path fill="#FFFFFF" d="M281.727,0.8h2.219v21.599h-2.25V5.959h-0.059l-4.441,10.59l-4.41-10.59l-0.059,0.06v16.379h-2.25V0.8
		h2.189l4.529,10.77L281.727,0.8z"/>
	<path fill="#FFFFFF" d="M295.195,0.38c6.299,0,6.629,7.2,6.629,11.219c0,2.88,0.211,11.22-6.629,11.22
		c-6.66,0-6.629-8.16-6.629-11.22C288.566,2.57,291.564,0.38,295.195,0.38z M299.574,11.599c0-1.979,0.301-9.33-4.379-9.33
		c-4.801,0-4.381,8.07-4.381,9.33c0,2.46-0.119,9.33,4.381,9.33C297.445,20.929,299.574,19.429,299.574,11.599z"/>
	<path fill="#FFFFFF" d="M317.904,4.7c-1.32-1.17-2.82-2.43-4.68-2.43c-1.92,0-3.48,1.32-3.48,3.3c0,1.14,0.211,2.16,3.121,3.93
		l1.709,1.05c3.961,2.43,5.039,3.57,5.039,6.09c0,3.87-2.578,6.18-6.359,6.18c-2.789,0-4.857-1.35-6.539-3.51l1.74-1.38
		c1.049,1.68,2.729,3,4.799,3c2.25,0,4.111-1.68,4.111-3.99c0-1.74-0.121-2.34-3.932-4.62l-1.949-1.17
		c-2.129-1.26-3.99-2.73-3.99-5.43c0-3.39,2.58-5.34,5.82-5.34c2.25,0,4.32,1.2,5.939,2.7L317.904,4.7z"/>
	<path fill="#FFFFFF" d="M338.426,2.69h-6.15v19.709h-2.25V2.69h-6.029V0.8h14.43V2.69L338.426,2.69z"/>
	<path fill="#FFFFFF" d="M14.43,47.69H8.28v19.708H6.03V47.69H0v-1.891h14.43V47.69z"/>
	<path fill="#FFFFFF" d="M31.589,47.69H22.62v7.68h6.45v1.89h-6.45v8.25h9.179V67.4H20.37V45.799h11.219V47.69z"/>
	<path fill="#FFFFFF" d="M38.129,45.799h5.61c5.4,0,5.88,4.859,5.88,6.119c0,2.221-0.84,4.261-3.84,5.97l5.82,9.51h-2.73l-5.25-9
		c-1.08,0.031-2.16,0.031-3.24,0.061v8.939h-2.25V45.799z M42.509,56.54c3.06,0,4.86-1.561,4.86-4.74c0-2.879-1.2-4.108-4.77-4.108
		h-2.22v8.851h2.13V56.54z"/>
	<path fill="#FFFFFF" d="M56.129,45.799h5.61c5.4,0,5.88,4.859,5.88,6.119c0,2.221-0.84,4.261-3.84,5.97l5.82,9.51h-2.73l-5.25-9
		c-1.08,0.031-2.16,0.031-3.24,0.061v8.939h-2.25V45.799z M60.509,56.54c3.06,0,4.86-1.561,4.86-4.74c0-2.879-1.2-4.108-4.77-4.108
		h-2.22v8.851h2.13V56.54z"/>
	<path fill="#FFFFFF" d="M83.248,47.69h-2.94v17.82h2.94v1.889h-8.1V65.51h2.91V47.69h-2.91v-1.891h8.1V47.69z"/>
	<path fill="#FFFFFF" d="M104.338,47.69h-9.33v7.499h6.99v1.892h-6.99v10.318h-2.25V45.799h11.58V47.69z"/>
	<path fill="#FFFFFF" d="M118.798,45.799h2.49l-5.52,12.48v9.119h-2.25v-9.119l-5.52-12.48h2.49l4.169,9.779L118.798,45.799z"/>
	<path fill="#FFFFFF" d="M137.247,47.69h-2.939v17.82h2.94v1.889h-8.1V65.51h2.91V47.69h-2.91v-1.891h8.1L137.247,47.69
		L137.247,47.69z"/>
	<path fill="#FFFFFF" d="M145.648,45.799h2.61l6.57,16.14h0.09v-16.14h2.25v21.81h-2.13l-7.08-17.43l-0.06,0.062v17.158h-2.25
		V45.799z"/>
	<path fill="#FFFFFF" d="M168.808,58.49v-1.891h7.35v11.219h-2.25v-2.1c-1.11,1.35-2.76,2.1-4.53,2.1
		c-1.74,0-6.51-0.299-6.51-10.738c0-8.551,2.61-11.701,6.81-11.701c3.66,0,5.37,2.58,5.43,5.94h-2.25
		c0.18-1.979-0.78-4.05-3.06-4.05c-4.5,0-4.68,6.27-4.68,9.479c0,3,0.15,9.181,4.38,9.181c2.1,0,4.41-1.682,4.41-6V58.49H168.808z"
		/>
	<path fill="#FFFFFF" d="M209.246,47.69h-2.94v17.82h2.94v1.889h-8.1V65.51h2.91V47.69h-2.91v-1.891h8.1V47.69z"/>
	<path fill="#FFFFFF" d="M217.646,45.799h2.609l6.57,16.14h0.09v-16.14h2.25v21.81h-2.131l-7.08-17.43l-0.059,0.062v17.158h-2.25
		V45.799z"/>
	<path fill="#FFFFFF" d="M245.096,50.48c-0.029-1.8-1.32-3.21-3.15-3.21c-4.559,0-4.859,6.18-4.859,9.51c0,3.15,0.33,9.15,4.65,9.15
		c2.25,0,3.6-1.682,3.629-3.811h2.25c-0.24,3.51-2.369,5.699-5.969,5.699c-5.941,0-6.811-6.51-6.811-11.1
		c0-4.739,0.99-11.341,7.08-11.341c3,0,5.25,2.102,5.43,5.102L245.096,50.48L245.096,50.48z"/>
	<path fill="#FFFFFF" d="M263.246,47.69h-2.939v17.82h2.939v1.889h-8.1V65.51h2.91V47.69h-2.91v-1.891h8.1V47.69z"/>
	<path fill="#FFFFFF" d="M271.557,45.799h5.488c4.172,0,6.961,2.369,6.961,10.8c0,8.309-2.58,10.799-7.289,10.799h-5.16V45.799
		L271.557,45.799z M273.807,65.51h2.76c3.119,0,5.189-0.871,5.189-8.911c0-8.279-2.369-8.909-5.25-8.909h-2.699V65.51z"/>
	<path fill="#FFFFFF" d="M301.584,47.69h-8.969v7.68h6.451v1.89h-6.451v8.25h9.18V67.4h-11.43V45.799h11.219V47.69z"/>
	<path fill="#FFFFFF" d="M307.645,45.799h2.609l6.57,16.14h0.09v-16.14h2.25v21.81h-2.129l-7.08-17.43l-0.061,0.062v17.158h-2.25
		V45.799z"/>
	<path fill="#FFFFFF" d="M338.426,47.69h-6.15v19.708h-2.25V47.69h-6.029v-1.891h14.43V47.69L338.426,47.69z"/>
	<path fill="#FFFFFF" d="M353.904,49.7c-1.32-1.17-2.82-2.43-4.682-2.43c-1.92,0-3.479,1.318-3.479,3.3
		c0,1.14,0.211,2.16,3.121,3.931l1.709,1.049c3.961,2.431,5.039,3.57,5.039,6.091c0,3.869-2.578,6.18-6.359,6.18
		c-2.789,0-4.859-1.35-6.539-3.51l1.74-1.381c1.049,1.68,2.729,3,4.799,3c2.25,0,4.111-1.68,4.111-3.99
		c0-1.738-0.121-2.34-3.932-4.619l-1.949-1.17c-2.131-1.26-3.99-2.729-3.99-5.43c0-3.39,2.58-5.341,5.82-5.341
		c2.248,0,4.318,1.201,5.939,2.701L353.904,49.7z"/>
</g>
</svg>
