<?xml version="1.0" encoding="utf-8"?>
<!-- Generator: Adobe Illustrator 16.0.0, SVG Export Plug-In . SVG Version: 6.00 Build 0)  -->
<!DOCTYPE svg PUBLIC "-//W3C//DTD SVG 1.1//EN" "http://www.w3.org/Graphics/SVG/1.1/DTD/svg11.dtd">
<svg version="1.1" id="Layer_1" xmlns="http://www.w3.org/2000/svg" xmlns:xlink="http://www.w3.org/1999/xlink" x="0px" y="0px"
	 width="369.832px" height="51.698px" viewBox="120.43 27.073 369.832 51.698"
	 enable-background="new 120.43 27.073 369.832 51.698" xml:space="preserve">
<g>
	<path fill="#FFFFFF" d="M128.807,30.866c-0.072-1.513-1.344-2.641-2.856-2.641c-4.008,0-4.32,5.208-4.32,8.137
		c0,2.855,0.288,7.896,4.176,7.896c1.8,0,3.168-1.344,3.24-3.12h1.128c-0.24,2.544-1.896,4.08-4.464,4.08
		c-4.56,0-5.28-5.232-5.28-8.737c0-3.672,0.648-9.216,5.521-9.216c2.112,0,3.792,1.488,3.984,3.601H128.807z"/>
	<path fill="#FFFFFF" d="M144.815,32.186l-4.752,12.073c-0.672,1.729-1.752,4.68-3.984,4.68c-1.44,0-2.496-1.127-2.928-2.424
		l0.96-0.504c0.312,0.864,0.912,1.969,1.968,1.969c1.224,0,1.848-1.416,2.28-2.377l0.96-2.184l-4.128-11.233h1.248l3.433,9.745
		l3.648-9.745H144.815z"/>
	<path fill="#FFFFFF" d="M151.078,27.073v5.929c0.864-0.696,1.992-1.08,3.12-1.08c1.752,0,4.993,1.44,4.993,6.528
		c0,4.944-2.808,6.697-4.92,6.697c-1.488,0-2.712-0.769-3.384-2.089l-0.456,2.089l-1.056-0.145c0.456-1.488,0.576-3.024,0.576-4.584
		V27.073H151.078z M151.078,41.643c0.624,1.368,1.488,2.544,3.168,2.544c1.44,0,3.816-1.248,3.816-5.664
		c0-4.656-2.712-5.641-4.152-5.641c-1.08,0-2.04,0.552-2.832,1.248V41.643z"/>
	<path fill="#FFFFFF" d="M173.279,43.995c-1.464,0.647-2.904,1.152-4.537,1.152c-3.72,0-5.088-3.337-5.088-6.553
		c0-3.217,1.416-6.673,5.161-6.673c2.136,0,4.656,1.536,4.656,6.792h-8.688c0.216,4.465,2.064,5.473,4.008,5.473
		c1.44,0,2.808-0.527,4.008-1.248L173.279,43.995z M172.343,37.755c0.12-2.186-1.176-4.873-3.672-4.873
		c-2.472,0-3.96,2.641-3.888,4.873H172.343z"/>
	<path fill="#FFFFFF" d="M180.91,44.883h-1.128v-8.784l-0.456-4.057h1.08l0.432,3.6c0.84-1.752,2.16-3.72,4.345-3.72
		c2.111,0,2.664,2.112,2.664,3.841h-1.128c-0.024-1.177-0.097-2.881-1.632-2.881c-1.296,0-4.176,2.016-4.176,6.84V44.883z"/>
	<path fill="#FFFFFF" d="M200.95,33.146h-4.656v8.665c0,1.224,0.456,2.376,2.016,2.376c1.417,0,2.4-1.056,2.953-2.256l1.08,0.264
		c-0.793,1.633-2.185,2.953-4.08,2.953c-1.633,0-3.097-0.793-3.097-4.009v-7.993h-2.856v-0.96h2.856v-4.08h1.128v4.08h4.656V33.146z
		"/>
	<path fill="#FFFFFF" d="M207.646,27.073h1.129v7.873h0.047c0.769-1.584,2.305-3.024,4.225-3.024c1.176,0,3.024,0.937,3.024,3.72
		v9.241h-1.128v-7.969c0-1.608-0.217-4.032-2.088-4.032c-2.137,0-4.08,2.664-4.08,5.616v6.385h-1.129V27.073z"/>
	<path fill="#FFFFFF" d="M224.11,44.883h-1.129v-8.784l-0.456-4.057h1.08l0.433,3.6c0.84-1.752,2.16-3.72,4.344-3.72
		c2.112,0,2.664,2.112,2.664,3.841h-1.127c-0.025-1.177-0.097-2.881-1.633-2.881c-1.296,0-4.176,2.016-4.176,6.84V44.883z"/>
	<path fill="#FFFFFF" d="M245.278,43.995c-1.465,0.647-2.904,1.152-4.537,1.152c-3.72,0-5.088-3.337-5.088-6.553
		c0-3.217,1.416-6.673,5.16-6.673c2.137,0,4.656,1.536,4.656,6.792h-8.688c0.216,4.465,2.064,5.473,4.009,5.473
		c1.439,0,2.809-0.527,4.008-1.248L245.278,43.995z M244.343,37.755c0.119-2.186-1.177-4.873-3.673-4.873
		c-2.472,0-3.96,2.641-3.889,4.873H244.343z"/>
	<path fill="#FFFFFF" d="M257.878,45.148c-0.24-0.697-0.408-1.441-0.48-2.16c-0.888,1.271-1.824,2.16-3.48,2.16
		c-2.328,0-3.527-1.896-3.527-4.033c0-2.424,1.367-4.512,3.816-4.512c1.031,0,2.208,0.408,3.096,0.84
		c0.072-3.217-0.504-4.561-2.592-4.561c-1.104,0-2.041,0.384-3.049,0.84l-0.264-1.031c1.104-0.433,2.184-0.769,3.385-0.769
		c2.328,0,3.72,1.632,3.647,4.464l-0.144,5.185c-0.024,1.224,0.288,2.376,0.624,3.433L257.878,45.148z M257.229,38.33
		c-0.791-0.407-1.752-0.769-2.76-0.769c-2.112,0-2.952,1.777-2.952,3.648c0,1.416,0.792,2.977,2.399,2.977
		c1.585,0,2.545-1.271,3.312-2.568V38.33z"/>
	<path fill="#FFFFFF" d="M272.95,33.146h-4.656v8.665c0,1.224,0.456,2.376,2.016,2.376c1.416,0,2.4-1.056,2.952-2.256l1.08,0.264
		c-0.792,1.633-2.184,2.953-4.08,2.953c-1.632,0-3.097-0.793-3.097-4.009v-7.993h-2.855v-0.96h2.855v-4.08h1.129v4.08h4.656V33.146z
		"/>
	<path fill="#FFFFFF" d="M286.821,34.202c-1.008-0.721-2.136-1.32-3.408-1.32s-2.521,0.96-2.521,2.305
		c0,1.488,1.656,2.184,2.809,2.615c1.944,0.744,3.984,1.513,3.984,3.984c0,2.113-1.872,3.361-3.816,3.361
		c-1.584,0-3.624-0.984-4.776-2.041l0.624-0.912c1.032,1.032,2.712,1.992,4.2,1.992c1.416,0,2.641-0.792,2.641-2.328
		c0-1.896-1.465-2.448-2.977-3.023c-1.752-0.673-3.816-1.488-3.816-3.745c0-1.8,1.824-3.168,3.721-3.168
		c1.464,0,2.664,0.504,3.816,1.344L286.821,34.202z"/>
	<path fill="#FFFFFF" d="M318.068,28.562h-4.992v16.321h-1.128V28.562h-4.969v-0.96h11.089V28.562z"/>
	<path fill="#FFFFFF" d="M322.843,27.073h1.128v7.873h0.048c0.769-1.584,2.305-3.024,4.225-3.024c1.177,0,3.024,0.937,3.024,3.72
		v9.241h-1.128v-7.969c0-1.608-0.216-4.032-2.088-4.032c-2.137,0-4.081,2.664-4.081,5.616v6.385h-1.128V27.073z"/>
	<path fill="#FFFFFF" d="M344.275,45.148c-0.24-0.697-0.408-1.441-0.48-2.16c-0.888,1.271-1.824,2.16-3.48,2.16
		c-2.328,0-3.528-1.896-3.528-4.033c0-2.424,1.368-4.512,3.816-4.512c1.032,0,2.208,0.408,3.097,0.84
		c0.071-3.217-0.504-4.561-2.593-4.561c-1.104,0-2.04,0.384-3.048,0.84l-0.265-1.031c1.104-0.433,2.185-0.769,3.385-0.769
		c2.328,0,3.721,1.632,3.648,4.464l-0.145,5.185c-0.023,1.224,0.288,2.376,0.624,3.433L344.275,45.148z M343.627,38.33
		c-0.792-0.407-1.752-0.769-2.761-0.769c-2.111,0-2.952,1.777-2.952,3.648c0,1.416,0.792,2.977,2.4,2.977
		c1.584,0,2.544-1.271,3.312-2.568V38.33z"/>
	<path fill="#FFFFFF" d="M359.347,33.146h-4.656v8.665c0,1.224,0.456,2.376,2.016,2.376c1.416,0,2.4-1.056,2.952-2.256l1.08,0.264
		c-0.792,1.633-2.184,2.953-4.08,2.953c-1.632,0-3.097-0.793-3.097-4.009v-7.993h-2.855v-0.96h2.855v-4.08h1.129v4.08h4.656V33.146z
		"/>
	<path fill="#FFFFFF" d="M381.809,35.523c1.681-0.024,3.192-2.041,4.104-3.361c0.984-1.439,1.824-3,2.448-4.632l1.176,0.624
		c-0.672,1.176-1.368,2.328-2.063,3.48c-1.057,1.752-2.305,3.432-4.081,4.465l7.393,8.784h-1.56l-6.841-8.401h-0.576v8.401h-1.128
		V27.602h1.128V35.523z"/>
	<path fill="#FFFFFF" d="M403.673,43.995c-1.464,0.647-2.904,1.152-4.536,1.152c-3.721,0-5.089-3.337-5.089-6.553
		c0-3.217,1.416-6.673,5.16-6.673c2.137,0,4.657,1.536,4.657,6.792h-8.689c0.216,4.465,2.064,5.473,4.009,5.473
		c1.439,0,2.808-0.527,4.008-1.248L403.673,43.995z M402.736,37.755c0.12-2.186-1.176-4.873-3.672-4.873
		c-2.473,0-3.96,2.641-3.889,4.873H402.736z"/>
	<path fill="#FFFFFF" d="M418.072,43.995c-1.464,0.647-2.904,1.152-4.536,1.152c-3.721,0-5.089-3.337-5.089-6.553
		c0-3.217,1.416-6.673,5.16-6.673c2.137,0,4.657,1.536,4.657,6.792h-8.689c0.216,4.465,2.064,5.473,4.009,5.473
		c1.439,0,2.808-0.527,4.008-1.248L418.072,43.995z M417.136,37.755c0.12-2.186-1.176-4.873-3.672-4.873
		c-2.473,0-3.96,2.641-3.889,4.873H417.136z"/>
	<path fill="#FFFFFF" d="M423.543,36.626c0-1.536-0.12-3.072-0.576-4.561l1.056-0.144l0.433,2.088h0.048
		c0.648-1.319,1.872-2.088,3.36-2.088c2.112,0,4.92,1.704,4.92,6.696c0,5.088-3.264,6.529-4.992,6.529
		c-1.128,0-2.256-0.385-3.12-1.08v5.904h-1.128V36.626z M424.671,42.939c0.792,0.696,1.752,1.248,2.832,1.248
		c1.44,0,4.152-1.008,4.152-5.641c0-4.416-2.376-5.664-3.816-5.664c-1.68,0-2.544,1.176-3.168,2.544V42.939z"/>
	<path fill="#FFFFFF" d="M460.143,33.146h-4.656v8.665c0,1.224,0.456,2.376,2.016,2.376c1.416,0,2.4-1.056,2.952-2.256l1.08,0.264
		c-0.792,1.633-2.184,2.953-4.08,2.953c-1.632,0-3.097-0.793-3.097-4.009v-7.993h-2.855v-0.96h2.855v-4.08h1.129v4.08h4.656V33.146z
		"/>
	<path fill="#FFFFFF" d="M466.837,27.073h1.128v7.873h0.048c0.769-1.584,2.305-3.024,4.225-3.024c1.177,0,3.024,0.937,3.024,3.72
		v9.241h-1.128v-7.969c0-1.608-0.216-4.032-2.088-4.032c-2.137,0-4.081,2.664-4.081,5.616v6.385h-1.128V27.073z"/>
	<path fill="#FFFFFF" d="M490.069,43.995c-1.464,0.647-2.904,1.152-4.536,1.152c-3.721,0-5.089-3.337-5.089-6.553
		c0-3.217,1.416-6.673,5.16-6.673c2.137,0,4.657,1.536,4.657,6.792h-8.689c0.216,4.465,2.064,5.473,4.009,5.473
		c1.439,0,2.808-0.527,4.008-1.248L490.069,43.995z M489.133,37.755c0.12-2.186-1.176-4.873-3.672-4.873
		c-2.473,0-3.96,2.641-3.889,4.873H489.133z"/>
	<path fill="#FFFFFF" d="M125.375,66.315v-0.96h5.281v8.664h-1.128v-2.736h-0.048c-0.528,1.705-2.232,2.736-4.008,2.736
		c-2.736,0-4.944-1.8-4.944-8.424c0-7.657,2.256-9.529,5.184-9.529c2.665,0,3.96,1.824,4.177,4.297h-1.2
		c0.072-1.729-0.984-3.336-2.856-3.336c-4.008,0-4.104,5.279-4.104,8.16c0,2.664,0.096,7.873,3.84,7.873
		c1.824,0,3.96-1.225,3.96-5.354v-1.392H125.375z"/>
	<path fill="#FFFFFF" d="M134.878,67.323c0-4.945,2.544-6.602,4.849-6.602c2.112,0,4.873,1.416,4.873,6.602
		c0,5.16-2.736,6.624-4.873,6.624S134.878,72.507,134.878,67.323z M143.471,67.323c0-2.473-0.624-5.641-3.744-5.641
		c-3.096,0-3.72,3.168-3.72,5.641c0,2.496,0.624,5.664,3.72,5.664C142.847,72.988,143.471,69.795,143.471,67.323z"/>
	<path fill="#FFFFFF" d="M158.759,60.986l-4.008,12.865h-1.32l-4.008-12.865h1.2l3.457,11.162l3.48-11.162H158.759z"/>
	<path fill="#FFFFFF" d="M173.279,72.795c-1.464,0.647-2.904,1.152-4.537,1.152c-3.72,0-5.088-3.337-5.088-6.553
		s1.416-6.673,5.161-6.673c2.136,0,4.656,1.537,4.656,6.793h-8.688c0.216,4.465,2.064,5.473,4.008,5.473
		c1.44,0,2.808-0.528,4.008-1.248L173.279,72.795z M172.343,66.555c0.12-2.185-1.176-4.872-3.672-4.872
		c-2.472,0-3.96,2.64-3.888,4.872H172.343z"/>
	<path fill="#FFFFFF" d="M180.91,73.683h-1.128v-8.784l-0.456-4.057h1.08l0.432,3.601c0.84-1.752,2.16-3.721,4.345-3.721
		c2.111,0,2.664,2.112,2.664,3.841h-1.128c-0.024-1.177-0.097-2.88-1.632-2.88c-1.296,0-4.176,2.016-4.176,6.84V73.683z"/>
	<path fill="#FFFFFF" d="M194.157,73.683h-1.127v-6.359c0-2.16-0.072-4.321-0.504-6.481h1.056l0.456,3.648h0.048
		c0.479-1.896,2.496-3.769,4.513-3.769c2.304,0,2.951,1.992,2.951,3.912v9.049h-1.127v-8.52c0-1.465,0-3.48-1.969-3.48
		c-1.824,0-4.297,1.824-4.297,6.768V73.683z"/>
	<path fill="#FFFFFF" d="M206.374,64.826c0-1.681-0.192-3.024-0.457-4.104h1.152l0.312,1.656c0.72-1.008,1.729-1.656,2.977-1.656
		c1.031,0,1.607,0.625,1.968,1.537c0.647-0.816,1.513-1.537,2.616-1.537c1.632,0,2.496,1.08,2.496,2.664v10.297h-1.128V63.435
		c0-1.297-0.624-1.776-1.513-1.776c-1.008,0-1.848,0.792-2.328,1.632v10.393h-1.128v-9.744c0-0.961-0.071-2.256-1.344-2.256
		c-1.08,0-2.064,0.888-2.497,1.848v10.152h-1.127V64.826z"/>
	<path fill="#FFFFFF" d="M230.878,72.795c-1.464,0.647-2.904,1.152-4.536,1.152c-3.72,0-5.089-3.337-5.089-6.553
		s1.416-6.673,5.161-6.673c2.136,0,4.656,1.537,4.656,6.793h-8.688c0.216,4.465,2.064,5.473,4.008,5.473
		c1.44,0,2.809-0.528,4.009-1.248L230.878,72.795z M229.942,66.555c0.12-2.185-1.176-4.872-3.672-4.872
		c-2.473,0-3.961,2.64-3.889,4.872H229.942z"/>
	<path fill="#FFFFFF" d="M237.357,73.683h-1.128v-6.359c0-2.16-0.072-4.321-0.504-6.481h1.056l0.456,3.648h0.049
		c0.479-1.896,2.496-3.769,4.512-3.769c2.305,0,2.952,1.992,2.952,3.912v9.049h-1.128v-8.52c0-1.465,0-3.48-1.969-3.48
		c-1.824,0-4.296,1.824-4.296,6.768V73.683z"/>
	<path fill="#FFFFFF" d="M258.55,61.947h-4.656v8.664c0,1.225,0.456,2.377,2.016,2.377c1.417,0,2.4-1.057,2.953-2.256l1.08,0.264
		c-0.792,1.632-2.185,2.952-4.08,2.952c-1.633,0-3.097-0.792-3.097-4.009v-7.992h-2.856v-0.961h2.856v-4.08h1.128v4.08h4.656V61.947
		z"/>
	<path fill="#FFFFFF" d="M288.237,56.402v12.842c0,3.408-2.592,4.775-4.513,4.775c-2.376,0-4.56-1.968-4.56-4.512V56.402h1.128
		v12.266c0,3.288,1.56,4.393,3.432,4.393c1.969,0,3.385-1.201,3.385-4.009V56.402H288.237z"/>
	<path fill="#FFFFFF" d="M293.948,65.427c0-1.537-0.12-3.072-0.576-4.561l1.056-0.145l0.433,2.088h0.048
		c0.648-1.319,1.872-2.088,3.36-2.088c2.112,0,4.92,1.705,4.92,6.697c0,5.088-3.264,6.528-4.992,6.528
		c-1.128,0-2.256-0.384-3.12-1.08v5.904h-1.128V65.427z M295.076,71.74c0.792,0.695,1.752,1.248,2.832,1.248
		c1.44,0,4.152-1.008,4.152-5.641c0-4.416-2.376-5.664-3.816-5.664c-1.68,0-2.544,1.176-3.168,2.543V71.74z"/>
	<path fill="#FFFFFF" d="M329.876,73.948c-0.24-0.696-0.408-1.44-0.48-2.16c-0.888,1.272-1.824,2.16-3.48,2.16
		c-2.328,0-3.528-1.896-3.528-4.032c0-2.424,1.368-4.513,3.816-4.513c1.032,0,2.208,0.408,3.097,0.841
		c0.071-3.217-0.504-4.561-2.593-4.561c-1.104,0-2.04,0.383-3.048,0.84l-0.265-1.032c1.104-0.433,2.185-0.769,3.385-0.769
		c2.328,0,3.721,1.633,3.648,4.465l-0.145,5.184c-0.023,1.225,0.288,2.377,0.624,3.434L329.876,73.948z M329.228,67.13
		c-0.792-0.407-1.752-0.768-2.761-0.768c-2.111,0-2.952,1.776-2.952,3.648c0,1.416,0.792,2.977,2.4,2.977
		c1.584,0,2.544-1.272,3.312-2.568V67.13z"/>
	<path fill="#FFFFFF" d="M344.947,61.947h-4.656v8.664c0,1.225,0.456,2.377,2.016,2.377c1.416,0,2.4-1.057,2.952-2.256l1.08,0.264
		c-0.792,1.632-2.184,2.952-4.08,2.952c-1.632,0-3.097-0.792-3.097-4.009v-7.992h-2.855v-0.961h2.855v-4.08h1.129v4.08h4.656V61.947
		z"/>
	<path fill="#FFFFFF" d="M367.098,57.962l-0.049,0.048v15.673h-1.128V56.402h1.633l5.88,14.81l0.048-0.048V56.402h1.129v17.449
		h-1.177L367.098,57.962z"/>
	<path fill="#FFFFFF" d="M384.257,61.947h-3.696v-0.961h4.824v12.697h-1.128V61.947z M386.057,57.314
		c0,0.696-0.575,1.248-1.271,1.248s-1.248-0.552-1.248-1.248c0-0.695,0.552-1.248,1.248-1.248S386.057,56.618,386.057,57.314z"/>
	<path fill="#FFFFFF" d="M395.729,75.339c0.743,0.889,1.943,1.44,3.12,1.44c1.416,0,3.24-1.032,3.24-4.224v-1.561
		c-0.864,0.912-2.328,1.561-3.576,1.561c-3.024,0-4.393-3.025-4.393-5.665c0-2.929,1.2-6.169,4.656-6.169
		c1.416,0,2.376,0.625,3.456,1.465l0.336-1.465h1.152c-0.576,2.185-0.552,4.465-0.552,6.697v5.28c0,3.744-2.593,5.04-4.537,5.04
		c-1.319,0-2.808-0.768-3.696-1.704L395.729,75.339z M402.041,63.531c-0.744-1.057-1.969-1.848-3.312-1.848
		c-2.616,0-3.48,2.832-3.48,4.992c0,4.008,2.328,4.92,3.36,4.92c1.296,0,2.76-0.816,3.433-1.943V63.531z"/>
	<path fill="#FFFFFF" d="M409.239,55.874h1.128v7.872h0.048c0.769-1.584,2.305-3.024,4.225-3.024c1.177,0,3.024,0.937,3.024,3.721
		v9.24h-1.128v-7.969c0-1.607-0.216-4.031-2.088-4.031c-2.137,0-4.081,2.664-4.081,5.615v6.385h-1.128V55.874z"/>
	<path fill="#FFFFFF" d="M431.344,61.947h-4.656v8.664c0,1.225,0.456,2.377,2.016,2.377c1.416,0,2.4-1.057,2.952-2.256l1.08,0.264
		c-0.792,1.632-2.184,2.952-4.08,2.952c-1.632,0-3.097-0.792-3.097-4.009v-7.992h-2.855v-0.961h2.855v-4.08h1.129v4.08h4.656V61.947
		z"/>
</g>
</svg>
