<?xml version="1.0" encoding="utf-8"?>
<!-- Generator: Adobe Illustrator 15.0.0, SVG Export Plug-In . SVG Version: 6.00 Build 0)  -->
<!DOCTYPE svg PUBLIC "-//W3C//DTD SVG 1.1//EN" "http://www.w3.org/Graphics/SVG/1.1/DTD/svg11.dtd">
<svg version="1.1" id="Layer_1" xmlns="http://www.w3.org/2000/svg" xmlns:xlink="http://www.w3.org/1999/xlink" x="0px" y="0px"
	 width="162.798px" height="15.063px" viewBox="19.145 26.831 162.798 15.063"
	 enable-background="new 19.145 26.831 162.798 15.063" xml:space="preserve">
<g>
	<path d="M20.125,28.571l-0.04,0.04v13.063h-0.94V27.271h1.36l4.901,12.342l0.04-0.04V27.271h0.94v14.542h-0.979L20.125,28.571z"/>
	<path d="M37.306,31.092h0.94v5.221c0,1.802,0.06,3.602,0.42,5.361h-0.88l-0.4-3.001h-0.04c-0.4,1.58-2.08,3.222-3.741,3.222
		c-1.92,0-2.46-1.74-2.46-3.342v-7.461h0.94v7.021c0,2,0.5,2.979,1.64,2.979c1.561,0,3.581-1.721,3.581-5.721V31.092z"/>
	<path d="M50.766,40.113c-0.98,1.061-2,1.779-3.5,1.779c-1.86,0-4.421-1.16-4.421-5.4c0-4.28,2.36-5.621,4.341-5.621
		c1.6,0,2.78,0.84,3.641,2.141l-0.84,0.56c-0.56-1.101-1.5-1.9-2.8-1.9c-1.32,0-3.401,0.82-3.401,4.66
		c0,3.643,1.92,4.762,3.461,4.762c1.16,0,2.16-0.801,2.88-1.66L50.766,40.113z"/>
	<path d="M58.285,27.631h-3.121v-0.8h4.061v14.843h-0.94V27.631z"/>
	<path d="M74.605,40.934c-1.22,0.541-2.42,0.961-3.781,0.961c-3.101,0-4.241-2.78-4.241-5.461c0-2.682,1.18-5.562,4.301-5.562
		c1.78,0,3.881,1.28,3.881,5.661h-7.241c0.18,3.721,1.72,4.562,3.34,4.562c1.2,0,2.341-0.441,3.341-1.041L74.605,40.934z
		 M73.825,35.732c0.1-1.82-0.98-4.062-3.061-4.062c-2.06,0-3.3,2.2-3.24,4.062H73.825z"/>
	<path d="M85.105,41.895c-0.2-0.58-0.34-1.201-0.4-1.802c-0.74,1.062-1.52,1.802-2.9,1.802c-1.94,0-2.94-1.58-2.94-3.36
		c0-2.021,1.14-3.761,3.181-3.761c0.86,0,1.84,0.34,2.581,0.7c0.06-2.681-0.42-3.801-2.161-3.801c-0.92,0-1.7,0.32-2.541,0.7
		l-0.22-0.86c0.92-0.36,1.82-0.64,2.821-0.64c1.94,0,3.101,1.36,3.041,3.721l-0.12,4.321c-0.02,1.021,0.24,1.98,0.52,2.859
		L85.105,41.895z M84.565,36.213c-0.66-0.34-1.46-0.64-2.301-0.64c-1.76,0-2.46,1.479-2.46,3.041c0,1.18,0.66,2.479,2,2.479
		c1.32,0,2.121-1.061,2.761-2.141V36.213z"/>
	<path d="M92.964,41.674h-0.94v-7.322l-0.38-3.38h0.9l0.36,3c0.7-1.46,1.801-3.101,3.621-3.101c1.76,0,2.22,1.76,2.22,3.201h-0.94
		c-0.02-0.98-0.08-2.4-1.36-2.4c-1.08,0-3.481,1.68-3.481,5.701V41.674z"/>
	<path d="M115.543,27.271h3.24c2.981,0,3.961,2.12,3.961,4.301c0,2.84-1.74,4.241-4.44,4.241h-1.82v5.861h-0.94V27.271
		L115.543,27.271z M116.483,28.071v6.941h1.68c2.521,0,3.582-1.38,3.582-3.42c0-2.701-1.44-3.521-2.902-3.521H116.483
		L116.483,28.071z"/>
	<path d="M130.284,27.631h-3.121v-0.8h4.062v14.843h-0.94V27.631z"/>
	<path d="M145.104,41.895c-0.2-0.58-0.34-1.201-0.4-1.802c-0.74,1.062-1.521,1.802-2.899,1.802c-1.94,0-2.94-1.58-2.94-3.36
		c0-2.021,1.141-3.761,3.182-3.761c0.859,0,1.84,0.34,2.58,0.7c0.061-2.681-0.42-3.801-2.16-3.801c-0.92,0-1.7,0.32-2.541,0.7
		l-0.221-0.86c0.92-0.36,1.82-0.64,2.82-0.64c1.939,0,3.102,1.36,3.041,3.721l-0.12,4.321c-0.021,1.021,0.24,1.98,0.521,2.859
		L145.104,41.895z M144.564,36.213c-0.66-0.34-1.461-0.64-2.301-0.64c-1.761,0-2.46,1.479-2.46,3.041c0,1.18,0.66,2.479,2,2.479
		c1.32,0,2.119-1.061,2.761-2.141V36.213z"/>
	<path d="M152.002,41.674h-0.939v-5.302c0-1.8-0.061-3.6-0.421-5.4h0.881l0.38,3.041h0.04c0.399-1.581,2.08-3.141,3.761-3.141
		c1.92,0,2.461,1.66,2.461,3.261v7.542h-0.939v-7.102c0-1.22,0-2.9-1.641-2.9c-1.521,0-3.582,1.52-3.582,5.642V41.674
		L152.002,41.674z"/>
	<path d="M169.663,31.892h-3.879v7.222c0,1.02,0.379,1.979,1.68,1.979c1.181,0,2-0.881,2.461-1.881l0.9,0.221
		c-0.66,1.359-1.822,2.461-3.402,2.461c-1.359,0-2.58-0.66-2.58-3.342v-6.661h-2.381v-0.8h2.381v-3.401h0.939v3.401h3.881V31.892
		L169.663,31.892z"/>
	<path d="M181.224,32.772c-0.841-0.6-1.78-1.1-2.841-1.1c-1.062,0-2.102,0.8-2.102,1.92c0,1.24,1.381,1.82,2.342,2.18
		c1.619,0.621,3.319,1.261,3.319,3.32c0,1.762-1.562,2.801-3.181,2.801c-1.32,0-3.021-0.819-3.98-1.699l0.521-0.762
		c0.86,0.86,2.261,1.661,3.501,1.661c1.181,0,2.199-0.659,2.199-1.94c0-1.58-1.219-2.041-2.479-2.521
		c-1.46-0.562-3.181-1.24-3.181-3.121c0-1.5,1.521-2.641,3.101-2.641c1.222,0,2.222,0.42,3.181,1.12L181.224,32.772z"/>
</g>
</svg>
