<?xml version="1.0" encoding="utf-8"?>
<!-- Generator: Adobe Illustrator 15.0.0, SVG Export Plug-In . SVG Version: 6.00 Build 0)  -->
<!DOCTYPE svg PUBLIC "-//W3C//DTD SVG 1.1//EN" "http://www.w3.org/Graphics/SVG/1.1/DTD/svg11.dtd">
<svg version="1.1" id="Layer_1" xmlns="http://www.w3.org/2000/svg" xmlns:xlink="http://www.w3.org/1999/xlink" x="0px" y="0px"
	 width="126.397px" height="15.125px" viewBox="37.562 24.824 126.397 15.125"
	 enable-background="new 37.562 24.824 126.397 15.125" xml:space="preserve">
<g>
	<path d="M37.561,25.265h3.241c2.981,0,3.961,2.121,3.961,4.301c0,2.84-1.74,4.241-4.441,4.241h-1.82v5.861h-0.94L37.561,25.265
		L37.561,25.265z M38.501,26.065v6.941h1.68c2.521,0,3.581-1.38,3.581-3.42c0-2.701-1.44-3.521-2.901-3.521H38.501z"/>
	<path d="M48.621,34.367c0-4.121,2.121-5.501,4.041-5.501c1.76,0,4.061,1.18,4.061,5.501c0,4.301-2.28,5.521-4.061,5.521
		C50.881,39.889,48.621,38.688,48.621,34.367z M55.782,34.367c0-2.06-0.52-4.701-3.121-4.701c-2.581,0-3.101,2.641-3.101,4.701
		c0,2.081,0.521,4.721,3.101,4.721C55.262,39.088,55.782,36.427,55.782,34.367z"/>
	<path d="M59.66,29.086h1.04l1.46,9.143h0.04l1.861-6.421h1.02l1.86,6.421h0.04l1.46-9.143h1.02l-1.88,10.723h-1.02l-2-6.842
		l-2,6.842H61.54L59.66,29.086z"/>
	<path d="M80.622,38.928c-1.22,0.54-2.42,0.961-3.781,0.961c-3.101,0-4.241-2.781-4.241-5.462s1.18-5.561,4.301-5.561
		c1.78,0,3.881,1.28,3.881,5.661H73.54c0.18,3.721,1.721,4.561,3.341,4.561c1.2,0,2.341-0.439,3.341-1.04L80.622,38.928z
		 M79.842,33.727c0.1-1.82-0.98-4.061-3.061-4.061c-2.06,0-3.3,2.2-3.241,4.061H79.842z"/>
	<path d="M86.98,39.668h-0.94v-7.322l-0.38-3.38h0.9l0.36,3c0.7-1.46,1.801-3.101,3.621-3.101c1.76,0,2.22,1.76,2.22,3.201h-0.94
		c-0.02-0.98-0.08-2.4-1.36-2.4c-1.08,0-3.481,1.68-3.481,5.701V39.668z"/>
	<path d="M112.702,33.527v-0.8h4.4v7.222h-0.939v-2.28h-0.041c-0.439,1.42-1.859,2.28-3.341,2.28c-2.28,0-4.12-1.501-4.12-7.021
		c0-6.382,1.879-7.942,4.32-7.942c2.221,0,3.301,1.521,3.48,3.581h-1c0.061-1.44-0.819-2.78-2.379-2.78
		c-3.342,0-3.422,4.401-3.422,6.801c0,2.221,0.08,6.561,3.201,6.561c1.521,0,3.301-1.02,3.301-4.459v-1.16h-3.461V33.527z"/>
	<path d="M122.979,39.668h-0.939v-7.322l-0.381-3.38h0.9l0.359,3c0.701-1.46,1.802-3.101,3.621-3.101c1.76,0,2.221,1.76,2.221,3.201
		h-0.94c-0.021-0.98-0.079-2.4-1.36-2.4c-1.08,0-3.48,1.68-3.48,5.701V39.668L122.979,39.668z"/>
	<path d="M136.44,29.886h-3.081v-0.8h4.021v10.582h-0.939V29.886z M137.94,26.025c0,0.58-0.48,1.041-1.061,1.041
		c-0.582,0-1.041-0.46-1.041-1.041s0.461-1.04,1.041-1.04S137.94,25.445,137.94,26.025z"/>
	<path d="M152.101,35.947c0,1.3,0.101,2.58,0.479,3.82l-0.879,0.119l-0.381-1.74c-0.561,1.102-1.58,1.74-2.82,1.74
		c-1.779,0-4.101-1.46-4.101-5.581c0-4.241,2.701-5.441,4.161-5.441c0.939,0,1.88,0.32,2.602,0.9v-4.941h0.939L152.101,35.947
		L152.101,35.947z M151.161,30.706c-0.66-0.58-1.479-1.04-2.361-1.04c-1.199,0-3.459,0.82-3.459,4.701
		c0,3.66,1.979,4.721,3.181,4.721c1.34,0,2.2-0.98,2.642-2.121v-6.261H151.161z"/>
	<path d="M163.241,30.766c-0.842-0.6-1.781-1.1-2.842-1.1s-2.102,0.8-2.102,1.92c0,1.24,1.382,1.82,2.342,2.18
		c1.619,0.62,3.32,1.26,3.32,3.321c0,1.761-1.562,2.8-3.182,2.8c-1.32,0-3.021-0.82-3.98-1.699l0.521-0.761
		c0.86,0.86,2.261,1.66,3.5,1.66c1.181,0,2.2-0.66,2.2-1.94c0-1.58-1.221-2.041-2.48-2.521c-1.459-0.56-3.18-1.24-3.18-3.121
		c0-1.5,1.52-2.641,3.1-2.641c1.222,0,2.222,0.42,3.182,1.12L163.241,30.766z"/>
</g>
</svg>
