<?xml version="1.0" encoding="utf-8"?>
<!-- Generator: Adobe Illustrator 15.0.0, SVG Export Plug-In . SVG Version: 6.00 Build 0)  -->
<!DOCTYPE svg PUBLIC "-//W3C//DTD SVG 1.1//EN" "http://www.w3.org/Graphics/SVG/1.1/DTD/svg11.dtd">
<svg version="1.1" id="Layer_1" xmlns="http://www.w3.org/2000/svg" xmlns:xlink="http://www.w3.org/1999/xlink" x="0px" y="0px"
	 width="115.321px" height="15.123px" viewBox="42.993 24.829 115.321 15.123"
	 enable-background="new 42.993 24.829 115.321 15.123" xml:space="preserve">
<g>
	<path d="M50.196,27.309c-0.9-0.78-1.92-1.52-3.161-1.52c-1.46,0-2.661,1-2.661,2.521c0,1.12,0.5,1.86,2.26,2.94l1.18,0.72
		c2.281,1.38,3.321,2.201,3.321,3.981c0,2.48-1.62,4.001-4.081,4.001c-1.701,0-3.041-0.8-4.061-2.12l0.72-0.58
		c0.76,1.1,1.96,1.9,3.341,1.9c1.68,0,3.081-1.24,3.081-2.961c0-1.36-0.16-1.881-2.821-3.461l-1.34-0.8
		c-1.38-0.82-2.601-1.78-2.601-3.521c0-2.161,1.641-3.421,3.721-3.421c1.36,0,2.681,0.72,3.661,1.62L50.196,27.309z"/>
	<path d="M61.476,39.893c-0.2-0.58-0.34-1.199-0.4-1.801c-0.74,1.061-1.52,1.801-2.9,1.801c-1.94,0-2.94-1.58-2.94-3.36
		c0-2.021,1.14-3.761,3.181-3.761c0.86,0,1.84,0.34,2.581,0.7c0.06-2.681-0.42-3.801-2.161-3.801c-0.92,0-1.7,0.32-2.541,0.7
		l-0.22-0.86c0.92-0.36,1.82-0.64,2.821-0.64c1.94,0,3.101,1.36,3.041,3.721l-0.12,4.321c-0.02,1.021,0.24,1.98,0.52,2.861
		L61.476,39.893z M60.936,34.211c-0.66-0.34-1.46-0.64-2.301-0.64c-1.76,0-2.46,1.479-2.46,3.041c0,1.181,0.66,2.479,2,2.479
		c1.32,0,2.121-1.06,2.761-2.141V34.211z"/>
	<path d="M74.035,29.89h-3.881v7.221c0,1.021,0.38,1.98,1.68,1.98c1.18,0,2-0.88,2.46-1.88l0.9,0.22
		c-0.66,1.36-1.82,2.461-3.401,2.461c-1.36,0-2.581-0.66-2.581-3.341V29.89h-2.38v-0.8h2.38v-3.401h0.94v3.401h3.881v0.8H74.035z"/>
	<path d="M86.975,38.932c-1.22,0.541-2.42,0.961-3.781,0.961c-3.101,0-4.241-2.781-4.241-5.461c0-2.681,1.18-5.561,4.301-5.561
		c1.78,0,3.881,1.28,3.881,5.662h-7.242c0.18,3.721,1.721,4.561,3.341,4.561c1.2,0,2.341-0.438,3.341-1.04L86.975,38.932z
		 M86.195,33.73c0.1-1.82-0.98-4.061-3.061-4.061c-2.06,0-3.3,2.2-3.241,4.061H86.195z"/>
	<path d="M94.654,25.629h-3.121v-0.8h4.061v14.843h-0.94V25.629z"/>
	<path d="M106.654,25.629h-3.12v-0.8h4.061v14.843h-0.94V25.629z"/>
	<path d="M118.793,29.89h-3.08v-0.8h4.021v10.582h-0.94V29.89L118.793,29.89z M120.293,26.029c0,0.58-0.479,1.041-1.061,1.041
		s-1.04-0.46-1.04-1.041c0-0.581,0.46-1.04,1.04-1.04S120.293,25.449,120.293,26.029z"/>
	<path d="M134.034,29.89h-3.881v7.221c0,1.021,0.381,1.98,1.68,1.98c1.181,0,2-0.88,2.461-1.88l0.899,0.22
		c-0.659,1.36-1.819,2.461-3.401,2.461c-1.359,0-2.58-0.66-2.58-3.341V29.89h-2.381v-0.8h2.381v-3.401h0.939v3.401h3.881v0.8
		H134.034z"/>
	<path d="M146.974,38.932c-1.22,0.541-2.42,0.961-3.781,0.961c-3.101,0-4.241-2.781-4.241-5.461c0-2.681,1.18-5.561,4.301-5.561
		c1.781,0,3.881,1.28,3.881,5.662h-7.241c0.18,3.721,1.721,4.561,3.341,4.561c1.2,0,2.342-0.438,3.342-1.04L146.974,38.932z
		 M146.194,33.73c0.1-1.82-0.98-4.061-3.061-4.061c-2.061,0-3.301,2.2-3.241,4.061H146.194z"/>
	<path d="M157.595,30.77c-0.841-0.6-1.781-1.1-2.841-1.1c-1.062,0-2.102,0.8-2.102,1.92c0,1.24,1.381,1.821,2.342,2.18
		c1.619,0.62,3.319,1.261,3.319,3.321c0,1.761-1.562,2.802-3.181,2.802c-1.32,0-3.021-0.82-3.981-1.701l0.521-0.76
		c0.859,0.859,2.261,1.659,3.5,1.659c1.182,0,2.201-0.659,2.201-1.94c0-1.58-1.221-2.04-2.48-2.521
		c-1.46-0.56-3.182-1.24-3.182-3.121c0-1.5,1.521-2.641,3.102-2.641c1.221,0,2.221,0.42,3.182,1.12L157.595,30.77z"/>
</g>
</svg>
