<?xml version="1.0" encoding="utf-8"?>
<!-- Generator: Adobe Illustrator 15.0.0, SVG Export Plug-In . SVG Version: 6.00 Build 0)  -->
<!DOCTYPE svg PUBLIC "-//W3C//DTD SVG 1.1//EN" "http://www.w3.org/Graphics/SVG/1.1/DTD/svg11.dtd">
<svg version="1.1" id="Layer_1" xmlns="http://www.w3.org/2000/svg" xmlns:xlink="http://www.w3.org/1999/xlink" x="0px" y="0px"
	 width="67.919px" height="14.904px" viewBox="67.409 24.987 67.919 14.904" enable-background="new 67.409 24.987 67.919 14.904"
	 xml:space="preserve">
<g>
	<path d="M76.65,26.067h-4.16V39.67h-0.94V26.067h-4.141v-0.8h9.242L76.65,26.067L76.65,26.067z"/>
	<path d="M82.349,39.67h-0.94v-7.321l-0.38-3.381h0.9l0.36,3.001c0.7-1.461,1.801-3.101,3.621-3.101c1.76,0,2.22,1.76,2.22,3.201
		h-0.94c-0.02-0.98-0.08-2.4-1.36-2.4c-1.08,0-3.481,1.681-3.481,5.701V39.67z"/>
	<path d="M98.49,39.891c-0.2-0.58-0.34-1.199-0.4-1.801c-0.74,1.061-1.52,1.801-2.9,1.801c-1.94,0-2.94-1.58-2.94-3.361
		c0-2.021,1.14-3.76,3.181-3.76c0.86,0,1.84,0.34,2.581,0.7c0.06-2.681-0.42-3.801-2.161-3.801c-0.92,0-1.7,0.32-2.541,0.7
		l-0.22-0.86c0.92-0.36,1.82-0.64,2.821-0.64c1.94,0,3.101,1.36,3.041,3.721l-0.12,4.32c-0.02,1.021,0.24,1.979,0.52,2.86
		L98.49,39.891z M97.95,34.209c-0.66-0.34-1.46-0.64-2.301-0.64c-1.76,0-2.46,1.479-2.46,3.041c0,1.181,0.66,2.479,2,2.479
		c1.32,0,2.121-1.06,2.761-2.141V34.209z"/>
	<path d="M107.809,29.888h-3.081v-0.8h4.021V39.67h-0.939V29.888z M109.31,26.027c0,0.58-0.479,1.041-1.062,1.041
		c-0.58,0-1.039-0.46-1.039-1.041s0.459-1.04,1.039-1.04S109.31,25.447,109.31,26.027z"/>
	<path d="M117.388,39.67h-0.94v-5.301c0-1.801-0.06-3.601-0.42-5.401h0.881l0.379,3.041h0.041c0.399-1.581,2.08-3.141,3.76-3.141
		c1.92,0,2.461,1.66,2.461,3.261v7.541h-0.94v-7.102c0-1.22,0-2.9-1.642-2.9c-1.52,0-3.58,1.521-3.58,5.642L117.388,39.67
		L117.388,39.67z"/>
	<path d="M134.609,30.768c-0.84-0.6-1.78-1.1-2.841-1.1s-2.102,0.8-2.102,1.921c0,1.24,1.381,1.82,2.342,2.18
		c1.619,0.62,3.32,1.261,3.32,3.321c0,1.76-1.561,2.801-3.182,2.801c-1.32,0-3.021-0.82-3.98-1.701l0.521-0.76
		c0.86,0.86,2.26,1.66,3.5,1.66c1.181,0,2.201-0.66,2.201-1.939c0-1.58-1.22-2.041-2.479-2.521c-1.461-0.56-3.182-1.24-3.182-3.12
		c0-1.501,1.52-2.641,3.102-2.641c1.219,0,2.219,0.42,3.18,1.12L134.609,30.768z"/>
</g>
</svg>
