<?xml version="1.0" encoding="utf-8"?>
<!-- Generator: Adobe Illustrator 15.0.0, SVG Export Plug-In . SVG Version: 6.00 Build 0)  -->
<!DOCTYPE svg PUBLIC "-//W3C//DTD SVG 1.1//EN" "http://www.w3.org/Graphics/SVG/1.1/DTD/svg11.dtd">
<svg version="1.1" id="Layer_1" xmlns="http://www.w3.org/2000/svg" xmlns:xlink="http://www.w3.org/1999/xlink" x="0px" y="0px"
	 width="128.719px" height="15.123px" viewBox="36.473 25.159 128.719 15.123"
	 enable-background="new 36.473 25.159 128.719 15.123" xml:space="preserve">
<g>
	<path d="M43.434,38.462h0.04l0.84-12.863h1.101l-1.12,14.543h-1.261l-2.1-7.242l-2.081,7.242h-1.26l-1.12-14.543h1.1l0.84,12.863
		h0.04l2.48-8.002L43.434,38.462z"/>
	<path d="M55.474,40.223c-0.2-0.58-0.34-1.201-0.4-1.801c-0.74,1.061-1.52,1.801-2.9,1.801c-1.94,0-2.94-1.58-2.94-3.361
		c0-2.021,1.14-3.76,3.181-3.76c0.86,0,1.84,0.34,2.581,0.7C55.053,31.12,54.573,30,52.833,30c-0.92,0-1.7,0.32-2.541,0.7
		l-0.22-0.86c0.92-0.36,1.82-0.64,2.821-0.64c1.94,0,3.101,1.36,3.041,3.721l-0.12,4.321c-0.02,1.021,0.24,1.98,0.52,2.859
		L55.474,40.223z M54.934,34.541c-0.66-0.34-1.46-0.64-2.301-0.64c-1.76,0-2.46,1.48-2.46,3.041c0,1.181,0.66,2.48,2,2.48
		c1.32,0,2.121-1.061,2.761-2.141V34.541L54.934,34.541z"/>
	<path d="M64.652,25.959h-3.121v-0.8h4.061v14.843h-0.94V25.959z"/>
	<path d="M76.652,25.959h-3.121v-0.8h4.061v14.843h-0.94V25.959L76.652,25.959z"/>
	<path d="M104.193,27.639c-0.899-0.78-1.92-1.52-3.161-1.52c-1.46,0-2.661,1-2.661,2.521c0,1.12,0.5,1.86,2.26,2.94l1.18,0.72
		c2.281,1.38,3.32,2.201,3.32,3.981c0,2.479-1.619,4.001-4.081,4.001c-1.701,0-3.041-0.802-4.061-2.121l0.72-0.58
		c0.76,1.101,1.96,1.899,3.341,1.899c1.68,0,3.081-1.239,3.081-2.961c0-1.358-0.159-1.879-2.82-3.459l-1.34-0.8
		c-1.38-0.82-2.601-1.78-2.601-3.521c0-2.161,1.641-3.421,3.721-3.421c1.36,0,2.681,0.72,3.662,1.62L104.193,27.639z"/>
	<path d="M116.034,30.22h-3.882v7.221c0,1.021,0.38,1.98,1.681,1.98c1.181,0,2-0.88,2.461-1.881l0.899,0.221
		c-0.659,1.36-1.819,2.461-3.401,2.461c-1.359,0-2.58-0.66-2.58-3.342V30.22h-2.381v-0.8h2.381v-3.401h0.939v3.401h3.881v0.8
		H116.034z"/>
	<path d="M123.331,40.002h-0.939V32.68l-0.38-3.38h0.899l0.36,3c0.7-1.46,1.801-3.101,3.621-3.101c1.76,0,2.22,1.76,2.22,3.201
		h-0.939c-0.021-0.98-0.08-2.4-1.36-2.4c-1.081,0-3.481,1.68-3.481,5.701V40.002z"/>
	<path d="M140.972,39.262c-1.22,0.54-2.421,0.961-3.781,0.961c-3.101,0-4.241-2.781-4.241-5.462s1.18-5.561,4.301-5.561
		c1.78,0,3.881,1.28,3.881,5.661h-7.241c0.18,3.721,1.721,4.561,3.341,4.561c1.2,0,2.341-0.439,3.341-1.04L140.972,39.262z
		 M140.192,34.061c0.1-1.82-0.98-4.061-3.061-4.061c-2.061,0-3.301,2.2-3.241,4.061H140.192z"/>
	<path d="M152.972,39.262c-1.22,0.54-2.421,0.961-3.781,0.961c-3.101,0-4.241-2.781-4.241-5.462s1.18-5.561,4.301-5.561
		c1.78,0,3.881,1.28,3.881,5.661h-7.241c0.18,3.721,1.721,4.561,3.341,4.561c1.2,0,2.341-0.439,3.341-1.04L152.972,39.262z
		 M152.192,34.061c0.1-1.82-0.98-4.061-3.061-4.061c-2.061,0-3.301,2.2-3.241,4.061H152.192z"/>
	<path d="M164.032,30.22h-3.881v7.221c0,1.021,0.381,1.98,1.68,1.98c1.182,0,2-0.88,2.461-1.881l0.9,0.221
		c-0.66,1.36-1.82,2.461-3.4,2.461c-1.36,0-2.582-0.66-2.582-3.342V30.22h-2.379v-0.8h2.379v-3.401h0.94v3.401h3.881L164.032,30.22
		L164.032,30.22z"/>
</g>
</svg>
