<?xml version="1.0" encoding="utf-8"?>
<!-- Generator: Adobe Illustrator 15.0.0, SVG Export Plug-In . SVG Version: 6.00 Build 0)  -->
<!DOCTYPE svg PUBLIC "-//W3C//DTD SVG 1.1//EN" "http://www.w3.org/Graphics/SVG/1.1/DTD/svg11.dtd">
<svg version="1.1" id="Layer_1" xmlns="http://www.w3.org/2000/svg" xmlns:xlink="http://www.w3.org/1999/xlink" x="0px" y="0px"
	 width="139.837px" height="15.063px" viewBox="31.456 25.495 139.837 15.063"
	 enable-background="new 31.456 25.495 139.837 15.063" xml:space="preserve">
<g>
	<path d="M38.417,38.798h0.04l0.84-12.862h1.101l-1.12,14.542h-1.261l-2.1-7.242l-2.081,7.242h-1.26l-1.12-14.542h1.1l0.84,12.862
		h0.04l2.48-8.001L38.417,38.798z"/>
	<path d="M50.457,40.559c-0.2-0.58-0.34-1.199-0.4-1.801c-0.74,1.061-1.52,1.801-2.9,1.801c-1.94,0-2.94-1.58-2.94-3.36
		c0-2.02,1.14-3.76,3.181-3.76c0.86,0,1.84,0.34,2.581,0.7c0.06-2.681-0.42-3.801-2.161-3.801c-0.92,0-1.7,0.32-2.541,0.7
		l-0.22-0.86c0.92-0.36,1.82-0.64,2.821-0.64c1.94,0,3.101,1.36,3.041,3.721l-0.12,4.32c-0.02,1.021,0.24,1.98,0.52,2.861
		L50.457,40.559z M49.917,34.877c-0.66-0.34-1.46-0.64-2.301-0.64c-1.76,0-2.46,1.48-2.46,3.041c0,1.181,0.66,2.479,2,2.479
		c1.32,0,2.121-1.06,2.761-2.141V34.877L49.917,34.877z"/>
	<path d="M63.017,30.556h-3.881v7.221c0,1.021,0.38,1.979,1.68,1.979c1.18,0,2-0.88,2.46-1.88l0.9,0.221
		c-0.66,1.359-1.82,2.461-3.401,2.461c-1.36,0-2.581-0.66-2.581-3.342v-6.662h-2.38v-0.8h2.38v-3.401h0.94v3.401h3.881v0.801H63.017
		z"/>
	<path d="M75.957,39.598c-1.22,0.541-2.42,0.961-3.781,0.961c-3.101,0-4.241-2.781-4.241-5.46c0-2.681,1.18-5.561,4.301-5.561
		c1.78,0,3.881,1.28,3.881,5.661h-7.242c0.18,3.721,1.721,4.561,3.341,4.561c1.2,0,2.341-0.438,3.341-1.04L75.957,39.598z
		 M75.177,34.397c0.1-1.82-0.98-4.061-3.061-4.061c-2.06,0-3.3,2.2-3.241,4.061H75.177z"/>
	<path d="M82.315,40.338h-0.94v-7.321l-0.38-3.38h0.9l0.36,3c0.7-1.46,1.801-3.101,3.621-3.101c1.76,0,2.22,1.76,2.22,3.201h-0.94
		c-0.02-0.98-0.08-2.4-1.36-2.4c-1.08,0-3.481,1.68-3.481,5.701V40.338z"/>
	<path d="M104.895,25.936h3.24c2.982,0,3.962,2.12,3.962,4.301c0,2.84-1.74,4.241-4.441,4.241h-1.819v5.861h-0.94L104.895,25.936
		L104.895,25.936z M105.834,26.735v6.941h1.681c2.521,0,3.581-1.38,3.581-3.42c0-2.701-1.439-3.521-2.901-3.521H105.834
		L105.834,26.735z"/>
	<path d="M119.635,26.295h-3.121v-0.8h4.061v14.843h-0.939V26.295L119.635,26.295z"/>
	<path d="M134.456,40.559c-0.199-0.58-0.34-1.199-0.399-1.801c-0.74,1.061-1.521,1.801-2.899,1.801c-1.941,0-2.941-1.58-2.941-3.36
		c0-2.02,1.141-3.76,3.182-3.76c0.859,0,1.84,0.34,2.581,0.7c0.06-2.681-0.42-3.801-2.161-3.801c-0.92,0-1.699,0.32-2.541,0.7
		l-0.22-0.86c0.92-0.36,1.819-0.64,2.821-0.64c1.939,0,3.101,1.36,3.041,3.721l-0.121,4.32c-0.02,1.021,0.24,1.98,0.521,2.861
		L134.456,40.559z M133.917,34.877c-0.66-0.34-1.461-0.64-2.301-0.64c-1.761,0-2.461,1.48-2.461,3.041c0,1.181,0.66,2.479,2,2.479
		c1.32,0,2.121-1.06,2.762-2.141V34.877z"/>
	<path d="M141.354,40.338h-0.939v-5.301c0-1.8-0.061-3.601-0.42-5.401h0.879l0.381,3.041h0.039c0.4-1.581,2.082-3.141,3.762-3.141
		c1.92,0,2.46,1.66,2.46,3.261v7.541h-0.94v-7.101c0-1.22,0-2.9-1.641-2.9c-1.52,0-3.581,1.52-3.581,5.642L141.354,40.338
		L141.354,40.338z"/>
	<path d="M159.015,30.556h-3.882v7.221c0,1.021,0.381,1.979,1.681,1.979c1.181,0,2-0.88,2.461-1.88l0.899,0.221
		c-0.66,1.359-1.82,2.461-3.4,2.461c-1.359,0-2.581-0.66-2.581-3.342v-6.662h-2.38v-0.8h2.38v-3.401h0.94v3.401h3.881
		L159.015,30.556L159.015,30.556z"/>
	<path d="M170.575,31.437c-0.841-0.6-1.779-1.1-2.841-1.1s-2.101,0.8-2.101,1.92c0,1.24,1.381,1.82,2.341,2.18
		c1.62,0.62,3.319,1.26,3.319,3.321c0,1.76-1.561,2.801-3.181,2.801c-1.319,0-3.021-0.819-3.979-1.701l0.52-0.76
		c0.86,0.86,2.262,1.66,3.501,1.66c1.181,0,2.2-0.66,2.2-1.939c0-1.58-1.221-2.041-2.48-2.521c-1.459-0.56-3.181-1.24-3.181-3.121
		c0-1.5,1.521-2.641,3.101-2.641c1.222,0,2.222,0.42,3.182,1.12L170.575,31.437z"/>
</g>
</svg>
