<?xml version="1.0" encoding="utf-8"?>
<!-- Generator: Adobe Illustrator 17.0.0, SVG Export Plug-In . SVG Version: 6.00 Build 0)  -->
<!DOCTYPE svg PUBLIC "-//W3C//DTD SVG 1.1//EN" "http://www.w3.org/Graphics/SVG/1.1/DTD/svg11.dtd">
<svg version="1.1" id="Layer_1" xmlns="http://www.w3.org/2000/svg" xmlns:xlink="http://www.w3.org/1999/xlink" x="0px" y="0px"
	 width="77.886px" height="63.067px" viewBox="32.792 20.217 77.886 63.067" enable-background="new 32.792 20.217 77.886 63.067"
	 xml:space="preserve">
<g>
	<path fill="#FFFFFF" d="M39.124,20.48h0.887l-1.835,8.635h-0.899l1.391-6.572h-0.024l-2.674,4.233l-0.864-4.233l-0.024,0.024
		l-1.391,6.548h-0.899l1.835-8.635h0.875l0.899,4.306L39.124,20.48z"/>
	<path fill="#FFFFFF" d="M40.902,25.913c0.528-2.483,2.027-3.346,3.25-3.346c2.267,0,2.063,2.303,1.847,3.346
		c-0.528,2.482-2.027,3.334-3.262,3.334C41.622,29.247,40.351,28.504,40.902,25.913z M45.1,25.913
		c0.228-1.104,0.3-2.591-1.103-2.591c-1.403,0-1.967,1.487-2.195,2.591c-0.24,1.104-0.312,2.579,1.091,2.579
		S44.86,27.017,45.1,25.913z"/>
	<path fill="#FFFFFF" d="M50.441,20.217l-0.576,2.71c0.504-0.24,0.912-0.36,1.439-0.36c1.031,0,2.435,0.839,1.919,3.286
		c-0.54,2.519-2.171,3.394-3.298,3.394c-0.744,0-0.983-0.252-1.415-0.731l-0.348,0.72l-0.827-0.108
		c0.419-0.756,0.647-1.571,0.815-2.387l1.391-6.524H50.441z M48.918,27.365c0.156,0.587,0.419,1.127,1.151,1.127
		c0.587,0,1.799-0.504,2.243-2.603c0.384-1.787-0.348-2.567-1.307-2.567c-0.444,0-0.912,0.228-1.332,0.516L48.918,27.365z"/>
	<path fill="#FFFFFF" d="M55.23,24.69c0.18-0.875,0.192-1.451,0.192-2.123h0.899l0.012,0.576c0.456-0.336,0.839-0.576,1.379-0.576
		c0.587,0,0.719,0.144,0.971,0.587c0.444-0.335,0.828-0.6,1.355-0.6c0.863,0,1.295,0.564,1.115,1.427l-1.091,5.133h-0.899
		l1.091-5.133c0.096-0.432-0.084-0.671-0.444-0.671c-0.408,0-0.828,0.335-1.091,0.671l-1.091,5.133h-0.9l1.08-5.061
		c0.072-0.336,0.06-0.732-0.348-0.732c-0.432,0-0.948,0.384-1.199,0.78l-1.068,5.013h-0.899L55.23,24.69z"/>
	<path fill="#FFFFFF" d="M66.244,24.534c0.156-0.708-0.168-1.211-0.839-1.211c-0.564,0-1.151,0.264-1.715,0.48l-0.036-0.792
		c0.659-0.24,1.271-0.444,1.943-0.444c1.223,0,1.751,1.007,1.523,2.075l-0.588,2.783c-0.12,0.587-0.167,1.187-0.096,1.739
		l-0.863,0.108l-0.06-0.803c-0.54,0.516-1.08,0.779-1.751,0.779c-1.224,0-1.703-0.959-1.463-2.099
		c0.264-1.235,1.247-2.315,2.542-2.315c0.48,0,0.899,0.144,1.271,0.312L66.244,24.534z M65.956,25.901
		c-0.348-0.168-0.732-0.312-1.164-0.312c-0.912,0-1.439,0.792-1.607,1.607c-0.132,0.6,0.036,1.295,0.731,1.295
		c0.695,0,1.235-0.588,1.727-1.104L65.956,25.901z"/>
	<path fill="#FFFFFF" d="M70.109,29.115h-0.9l0.684-3.226c0.228-1.08,0.419-2.171,0.396-3.19h0.864l-0.048,1.175
		c0.612-0.755,1.559-1.307,2.459-1.307c1.019,0,1.343,0.936,1.115,2.027l-0.959,4.521H72.82l0.899-4.258
		c0.132-0.611,0.336-1.535-0.456-1.535c-0.852,0-2.111,0.864-2.591,3.119L70.109,29.115z"/>
	<path fill="#FFFFFF" d="M88.526,24.042c-0.432-0.36-0.912-0.72-1.559-0.72c-0.54,0-1.127,0.396-1.259,0.972
		c-0.132,0.624,0.552,0.936,1.007,1.115c0.923,0.372,1.895,0.792,1.619,2.063c-0.228,1.055-1.331,1.775-2.327,1.775
		c-0.972,0-1.835-0.479-2.411-1.115l0.647-0.72c0.396,0.54,1.104,1.08,1.859,1.08c0.6,0,1.188-0.336,1.319-0.983
		c0.18-0.84-0.443-1.067-1.043-1.319c-0.839-0.348-1.799-0.78-1.559-1.931c0.204-0.936,1.224-1.691,2.339-1.691
		c0.804,0,1.379,0.288,1.919,0.744L88.526,24.042z"/>
	<path fill="#FFFFFF" d="M93.987,23.455h-1.823l0.168-0.756h2.723l-1.368,6.417h-0.899L93.987,23.455z M95.678,21.068
		c-0.096,0.432-0.504,0.755-0.923,0.755c-0.42,0-0.684-0.324-0.588-0.755c0.084-0.432,0.492-0.756,0.912-0.756
		C95.498,20.312,95.762,20.636,95.678,21.068z"/>
	<path fill="#FFFFFF" d="M103.417,23.455h-2.291l-0.78,3.658c-0.132,0.624-0.276,1.379,0.54,1.379c0.684,0,1.224-0.564,1.595-1.127
		l0.816,0.216c-0.624,0.923-1.511,1.667-2.591,1.667c-1.043,0-1.595-0.503-1.188-2.422l0.708-3.37h-1.379l0.168-0.756h1.379
		l0.42-1.967h0.899l-0.419,1.967h2.291L103.417,23.455z"/>
	<path fill="#FFFFFF" d="M110.125,24.042c-0.432-0.36-0.912-0.72-1.559-0.72c-0.54,0-1.127,0.396-1.259,0.972
		c-0.132,0.624,0.552,0.936,1.007,1.115c0.923,0.372,1.895,0.792,1.619,2.063c-0.228,1.055-1.331,1.775-2.327,1.775
		c-0.972,0-1.835-0.479-2.411-1.115l0.647-0.72c0.396,0.54,1.104,1.08,1.859,1.08c0.6,0,1.188-0.336,1.319-0.983
		c0.18-0.84-0.444-1.067-1.043-1.319c-0.839-0.348-1.799-0.78-1.559-1.931c0.204-0.936,1.224-1.691,2.339-1.691
		c0.804,0,1.379,0.288,1.919,0.744L110.125,24.042z"/>
	<path fill="#FFFFFF" d="M33.667,40.699h1.007l-0.3,4.81h0.024l1.619-3.238h0.875l0.228,3.238h0.024l1.763-4.81h1.007l-2.507,6.5
		h-0.959l-0.312-3.478l-1.763,3.478h-0.959L33.667,40.699z"/>
	<path fill="#FFFFFF" d="M43.589,41.455h-1.823l0.168-0.756h2.723l-1.368,6.417H42.39L43.589,41.455z M45.28,39.068
		c-0.096,0.432-0.504,0.755-0.924,0.755c-0.419,0-0.684-0.324-0.587-0.755c0.084-0.432,0.492-0.756,0.912-0.756
		C45.1,38.312,45.364,38.636,45.28,39.068z"/>
	<path fill="#FFFFFF" d="M53.02,41.455h-2.291l-0.78,3.658c-0.132,0.624-0.276,1.379,0.54,1.379c0.684,0,1.224-0.564,1.595-1.127
		l0.815,0.216c-0.624,0.923-1.511,1.667-2.59,1.667c-1.043,0-1.595-0.503-1.188-2.422l0.708-3.37H48.45l0.168-0.756h1.379
		l0.42-1.967h0.899l-0.419,1.967h2.291L53.02,41.455z"/>
	<path fill="#FFFFFF" d="M56.789,38.217h0.899l-0.731,3.406c0.588-0.611,1.367-1.055,2.159-1.055c0.768,0,1.595,0.24,1.043,2.866
		l-0.779,3.682H58.48l0.803-3.754c0.12-0.588,0.432-2.039-0.384-2.039c-0.671,0-1.403,0.6-1.799,1.164
		c-0.504,0.72-0.636,1.439-0.804,2.243l-0.503,2.387h-0.9L56.789,38.217z"/>
	<path fill="#FFFFFF" d="M69.701,43.913c0.528-2.483,2.027-3.346,3.25-3.346c2.267,0,2.063,2.303,1.847,3.346
		c-0.528,2.482-2.027,3.334-3.262,3.334C70.421,47.247,69.15,46.504,69.701,43.913z M73.899,43.913
		c0.228-1.104,0.3-2.591-1.103-2.591c-1.403,0-1.967,1.487-2.195,2.591c-0.24,1.104-0.312,2.579,1.091,2.579
		S73.659,45.017,73.899,43.913z"/>
	<path fill="#FFFFFF" d="M81.818,41.455h-2.291l-0.78,3.658c-0.132,0.624-0.276,1.379,0.54,1.379c0.684,0,1.224-0.564,1.595-1.127
		l0.815,0.216c-0.624,0.923-1.511,1.667-2.59,1.667c-1.043,0-1.595-0.503-1.188-2.422l0.708-3.37h-1.379l0.168-0.756h1.379
		l0.42-1.967h0.899l-0.419,1.967h2.291L81.818,41.455z"/>
	<path fill="#FFFFFF" d="M85.588,38.217h0.899l-0.731,3.406c0.588-0.611,1.367-1.055,2.159-1.055c0.768,0,1.595,0.24,1.043,2.866
		l-0.779,3.682h-0.899l0.803-3.754c0.12-0.588,0.432-2.039-0.384-2.039c-0.671,0-1.403,0.6-1.799,1.164
		c-0.504,0.72-0.636,1.439-0.804,2.243l-0.503,2.387h-0.9L85.588,38.217z"/>
	<path fill="#FFFFFF" d="M92.056,44.141c-0.336,1.763,0.336,2.351,1.319,2.351c0.708,0,1.487-0.324,2.147-0.684l0.216,0.803
		c-0.875,0.36-1.703,0.636-2.591,0.636c-1.895,0-2.303-1.631-1.955-3.298c0.36-1.679,1.5-3.382,3.418-3.382
		c2.135,0,1.943,2.387,1.811,3.082l-0.096,0.492H92.056z M95.582,43.385c0.192-1.055-0.192-2.063-1.199-2.063
		s-1.667,0.768-2.183,2.063H95.582z"/>
	<path fill="#FFFFFF" d="M99.46,47.115h-0.9l0.78-3.682c0.228-1.055,0.324-1.931,0.336-2.734h0.875l-0.06,1.223
		c0.647-0.755,1.319-1.355,2.279-1.355c1.199,0,1.235,1.175,1.031,2.147h-0.899c0.084-0.48,0.348-1.392-0.336-1.392
		c-0.66,0-2.099,0.983-2.542,3.119L99.46,47.115z"/>
	<path fill="#FFFFFF" d="M35.19,56.217h0.899l-0.731,3.406c0.588-0.611,1.367-1.055,2.159-1.055c0.768,0,1.595,0.24,1.043,2.866
		l-0.779,3.682h-0.899l0.803-3.754c0.12-0.588,0.432-2.039-0.384-2.039c-0.671,0-1.403,0.6-1.799,1.164
		c-0.504,0.72-0.636,1.439-0.804,2.243l-0.503,2.387h-0.9L35.19,56.217z"/>
	<path fill="#FFFFFF" d="M44.645,60.534c0.156-0.708-0.168-1.211-0.839-1.211c-0.564,0-1.151,0.264-1.715,0.48l-0.036-0.792
		c0.66-0.24,1.271-0.444,1.943-0.444c1.223,0,1.751,1.007,1.523,2.075l-0.587,2.783c-0.12,0.587-0.168,1.187-0.096,1.739
		l-0.864,0.108l-0.06-0.803c-0.54,0.516-1.08,0.779-1.751,0.779c-1.224,0-1.703-0.959-1.463-2.099
		c0.264-1.235,1.247-2.315,2.542-2.315c0.48,0,0.899,0.144,1.271,0.312L44.645,60.534z M44.356,61.901
		c-0.348-0.168-0.731-0.312-1.163-0.312c-0.912,0-1.439,0.792-1.607,1.607c-0.132,0.6,0.036,1.295,0.731,1.295
		s1.235-0.588,1.727-1.104L44.356,61.901z"/>
	<path fill="#FFFFFF" d="M52.744,64.072c-0.792,0.696-1.535,1.175-2.531,1.175c-1.187,0-2.614-0.731-2.075-3.274
		c0.54-2.567,2.171-3.406,3.454-3.406c1.056,0,1.679,0.576,2.063,1.427l-0.888,0.516c-0.192-0.647-0.54-1.188-1.331-1.188
		c-0.912,0-1.979,0.672-2.387,2.567c-0.42,2.003,0.479,2.603,1.307,2.603c0.708,0,1.379-0.54,1.919-1.056L52.744,64.072z"/>
	<path fill="#FFFFFF" d="M60.975,58.699c-1.631,1.523-2.099,2.015-3.214,2.938l2.411,3.478h-1.188l-1.895-2.95l-0.492,0.408
		l-0.54,2.542h-0.899l1.895-8.899h0.899l-1.127,5.289c1.031-0.875,2.099-1.775,3.01-2.807H60.975z"/>
	<path fill="#FFFFFF" d="M63.257,62.141c-0.336,1.763,0.336,2.351,1.319,2.351c0.708,0,1.487-0.324,2.147-0.684l0.216,0.803
		c-0.875,0.36-1.703,0.636-2.591,0.636c-1.895,0-2.303-1.631-1.955-3.298c0.36-1.679,1.5-3.382,3.418-3.382
		c2.135,0,1.943,2.387,1.811,3.082l-0.096,0.492H63.257z M66.783,61.385c0.192-1.055-0.192-2.063-1.199-2.063
		s-1.667,0.768-2.183,2.063H66.783z"/>
	<path fill="#FFFFFF" d="M70.661,65.115h-0.9l0.78-3.682c0.228-1.055,0.324-1.931,0.336-2.734h0.875l-0.06,1.223
		c0.647-0.755,1.319-1.355,2.279-1.355c1.199,0,1.235,1.175,1.031,2.147h-0.899c0.084-0.48,0.348-1.392-0.336-1.392
		c-0.66,0-2.099,0.983-2.542,3.119L70.661,65.115z"/>
	<path fill="#FFFFFF" d="M81.327,60.042c-0.432-0.36-0.912-0.72-1.559-0.72c-0.54,0-1.127,0.396-1.259,0.972
		c-0.132,0.624,0.552,0.936,1.007,1.115c0.923,0.372,1.895,0.792,1.619,2.063c-0.228,1.055-1.331,1.775-2.327,1.775
		c-0.972,0-1.835-0.479-2.411-1.115l0.647-0.72c0.396,0.54,1.104,1.08,1.859,1.08c0.6,0,1.188-0.336,1.319-0.983
		c0.18-0.84-0.444-1.067-1.043-1.319c-0.839-0.348-1.799-0.78-1.559-1.931c0.204-0.936,1.224-1.691,2.339-1.691
		c0.804,0,1.379,0.288,1.919,0.744L81.327,60.042z"/>
	<path fill="#FFFFFF" d="M95.042,60.534c0.156-0.708-0.168-1.211-0.839-1.211c-0.564,0-1.151,0.264-1.715,0.48l-0.036-0.792
		c0.659-0.24,1.271-0.444,1.943-0.444c1.223,0,1.751,1.007,1.523,2.075l-0.588,2.783c-0.12,0.587-0.167,1.187-0.096,1.739
		l-0.863,0.108l-0.06-0.803c-0.54,0.516-1.08,0.779-1.751,0.779c-1.224,0-1.703-0.959-1.463-2.099
		c0.264-1.235,1.247-2.315,2.542-2.315c0.48,0,0.899,0.144,1.271,0.312L95.042,60.534z M94.755,61.901
		c-0.348-0.168-0.732-0.312-1.164-0.312c-0.912,0-1.439,0.792-1.607,1.607c-0.132,0.6,0.036,1.295,0.731,1.295
		c0.695,0,1.235-0.588,1.727-1.104L94.755,61.901z"/>
	<path fill="#FFFFFF" d="M103.417,59.455h-2.291l-0.78,3.658c-0.132,0.624-0.276,1.379,0.54,1.379c0.684,0,1.224-0.564,1.595-1.127
		l0.816,0.216c-0.624,0.923-1.511,1.667-2.591,1.667c-1.043,0-1.595-0.503-1.188-2.422l0.708-3.37h-1.379l0.168-0.756h1.379
		l0.42-1.967h0.899l-0.419,1.967h2.291L103.417,59.455z"/>
	<path fill="#FFFFFF" d="M35.01,78.258h2.998l0.804-3.778h0.899l-1.835,8.635h-0.899l0.875-4.102h-2.998l-0.876,4.102h-0.899
		l1.835-8.635h0.899L35.01,78.258z"/>
	<path fill="#FFFFFF" d="M44.645,78.534c0.156-0.708-0.168-1.211-0.839-1.211c-0.564,0-1.151,0.264-1.715,0.48l-0.036-0.792
		c0.66-0.24,1.271-0.444,1.943-0.444c1.223,0,1.751,1.007,1.523,2.075l-0.587,2.783c-0.12,0.587-0.168,1.187-0.096,1.739
		l-0.864,0.108l-0.06-0.803c-0.54,0.516-1.08,0.779-1.751,0.779c-1.224,0-1.703-0.959-1.463-2.099
		c0.264-1.235,1.247-2.315,2.542-2.315c0.48,0,0.899,0.144,1.271,0.312L44.645,78.534z M44.356,79.901
		c-0.348-0.168-0.731-0.312-1.163-0.312c-0.912,0-1.439,0.792-1.607,1.607c-0.132,0.6,0.036,1.295,0.731,1.295
		s1.235-0.588,1.727-1.104L44.356,79.901z"/>
	<path fill="#FFFFFF" d="M52.744,82.072c-0.792,0.696-1.535,1.175-2.531,1.175c-1.187,0-2.614-0.731-2.075-3.274
		c0.54-2.567,2.171-3.406,3.454-3.406c1.056,0,1.679,0.576,2.063,1.427l-0.888,0.516c-0.192-0.647-0.54-1.188-1.331-1.188
		c-0.912,0-1.979,0.672-2.387,2.567c-0.42,2.003,0.479,2.603,1.307,2.603c0.708,0,1.379-0.54,1.919-1.056L52.744,82.072z"/>
	<path fill="#FFFFFF" d="M60.975,76.699c-1.631,1.523-2.099,2.015-3.214,2.938l2.411,3.478h-1.188l-1.895-2.95l-0.492,0.408
		l-0.54,2.542h-0.899l1.895-8.899h0.899l-1.127,5.289c1.031-0.875,2.099-1.775,3.01-2.807H60.975z"/>
	<path fill="#FFFFFF" d="M67.923,74.48h0.887l-1.835,8.635h-0.899l1.391-6.572h-0.024l-2.674,4.233l-0.864-4.233l-0.024,0.024
		l-1.391,6.548H61.59l1.835-8.635h0.875l0.899,4.306L67.923,74.48z"/>
	<path fill="#FFFFFF" d="M72.388,77.455h-1.823l0.168-0.756h2.723l-1.368,6.417h-0.899L72.388,77.455z M74.079,75.068
		c-0.096,0.432-0.504,0.755-0.924,0.755c-0.419,0-0.684-0.324-0.587-0.755c0.084-0.432,0.492-0.756,0.912-0.756
		C73.899,74.312,74.163,74.636,74.079,75.068z"/>
	<path fill="#FFFFFF" d="M80.643,78.534c0.156-0.708-0.168-1.211-0.839-1.211c-0.564,0-1.151,0.264-1.715,0.48l-0.036-0.792
		c0.659-0.24,1.271-0.444,1.943-0.444c1.223,0,1.751,1.007,1.523,2.075l-0.588,2.783c-0.12,0.587-0.167,1.187-0.096,1.739
		l-0.863,0.108l-0.06-0.803c-0.54,0.516-1.08,0.779-1.751,0.779c-1.224,0-1.703-0.959-1.463-2.099
		c0.264-1.235,1.247-2.315,2.542-2.315c0.48,0,0.899,0.144,1.271,0.312L80.643,78.534z M80.355,79.901
		c-0.348-0.168-0.732-0.312-1.164-0.312c-0.912,0-1.439,0.792-1.607,1.607c-0.132,0.6,0.036,1.295,0.731,1.295
		c0.695,0,1.235-0.588,1.727-1.104L80.355,79.901z"/>
	<path fill="#FFFFFF" d="M84.029,78.69c0.18-0.875,0.192-1.451,0.192-2.123h0.899l0.012,0.576c0.456-0.336,0.839-0.576,1.379-0.576
		c0.587,0,0.719,0.144,0.971,0.587c0.444-0.335,0.828-0.6,1.355-0.6c0.863,0,1.295,0.564,1.115,1.427l-1.091,5.133h-0.899
		l1.091-5.133c0.096-0.432-0.084-0.671-0.444-0.671c-0.408,0-0.828,0.335-1.091,0.671l-1.091,5.133h-0.9l1.08-5.061
		c0.072-0.336,0.06-0.732-0.348-0.732c-0.432,0-0.948,0.384-1.199,0.78l-1.068,5.013h-0.899L84.029,78.69z"/>
	<path fill="#FFFFFF" d="M93.987,77.455h-1.823l0.168-0.756h2.723l-1.368,6.417h-0.899L93.987,77.455z M95.678,75.068
		c-0.096,0.432-0.504,0.755-0.923,0.755c-0.42,0-0.684-0.324-0.588-0.755c0.084-0.432,0.492-0.756,0.912-0.756
		C95.498,74.312,95.762,74.636,95.678,75.068z"/>
	<path fill="#FFFFFF" d="M100.647,81.425c0.516,0,0.875,0.396,0.768,0.923c-0.12,0.528-0.647,0.936-1.163,0.936
		c-0.528,0-0.888-0.408-0.768-0.936C99.592,81.82,100.131,81.425,100.647,81.425z"/>
</g>
</svg>
