<?xml version="1.0" encoding="utf-8"?>
<!-- Generator: Adobe Illustrator 17.0.0, SVG Export Plug-In . SVG Version: 6.00 Build 0)  -->
<!DOCTYPE svg PUBLIC "-//W3C//DTD SVG 1.1//EN" "http://www.w3.org/Graphics/SVG/1.1/DTD/svg11.dtd">
<svg version="1.1" id="Layer_1" xmlns="http://www.w3.org/2000/svg" xmlns:xlink="http://www.w3.org/1999/xlink" x="0px" y="0px"
	 width="157.501px" height="27.067px" viewBox="-151.645 -155.962 157.501 27.067"
	 enable-background="new -151.645 -155.962 157.501 27.067" xml:space="preserve">
<g>
	<path fill="#FFFFFF" d="M-145.313-155.698h0.887l-1.835,8.635h-0.899l1.391-6.572h-0.024l-2.674,4.233l-0.864-4.233l-0.024,0.024
		l-1.391,6.548h-0.899l1.835-8.635h0.875l0.899,4.306L-145.313-155.698z"/>
	<path fill="#FFFFFF" d="M-143.535-150.265c0.528-2.483,2.027-3.346,3.25-3.346c2.267,0,2.063,2.303,1.847,3.346
		c-0.528,2.482-2.027,3.334-3.262,3.334C-142.815-146.931-144.086-147.674-143.535-150.265z M-139.337-150.265
		c0.228-1.104,0.3-2.591-1.103-2.591c-1.403,0-1.967,1.487-2.195,2.591c-0.24,1.104-0.312,2.579,1.091,2.579
		S-139.577-149.161-139.337-150.265z"/>
	<path fill="#FFFFFF" d="M-133.996-155.962l-0.576,2.71c0.504-0.24,0.912-0.36,1.439-0.36c1.031,0,2.435,0.839,1.919,3.286
		c-0.54,2.519-2.171,3.394-3.298,3.394c-0.744,0-0.983-0.252-1.415-0.731l-0.348,0.72l-0.827-0.108
		c0.419-0.756,0.647-1.571,0.815-2.387l1.391-6.524H-133.996z M-135.519-148.814c0.156,0.587,0.419,1.127,1.151,1.127
		c0.587,0,1.799-0.504,2.243-2.603c0.384-1.787-0.348-2.567-1.307-2.567c-0.444,0-0.912,0.228-1.332,0.516L-135.519-148.814z"/>
	<path fill="#FFFFFF" d="M-129.207-151.488c0.18-0.875,0.192-1.451,0.192-2.123h0.899l0.012,0.576
		c0.456-0.336,0.839-0.576,1.379-0.576c0.587,0,0.719,0.144,0.971,0.587c0.444-0.335,0.828-0.6,1.355-0.6
		c0.863,0,1.295,0.564,1.115,1.427l-1.091,5.133h-0.899l1.091-5.133c0.096-0.432-0.084-0.671-0.444-0.671
		c-0.408,0-0.828,0.335-1.091,0.671l-1.091,5.133h-0.9l1.08-5.061c0.072-0.336,0.06-0.732-0.348-0.732
		c-0.432,0-0.948,0.384-1.199,0.78l-1.068,5.013h-0.899L-129.207-151.488z"/>
	<path fill="#FFFFFF" d="M-118.193-151.644c0.156-0.708-0.168-1.211-0.839-1.211c-0.564,0-1.151,0.264-1.715,0.48l-0.036-0.792
		c0.659-0.24,1.271-0.444,1.943-0.444c1.223,0,1.751,1.007,1.523,2.075l-0.588,2.783c-0.12,0.587-0.167,1.187-0.096,1.739
		l-0.863,0.108l-0.06-0.803c-0.54,0.516-1.08,0.779-1.751,0.779c-1.224,0-1.703-0.959-1.463-2.099
		c0.264-1.235,1.247-2.315,2.542-2.315c0.48,0,0.899,0.144,1.271,0.312L-118.193-151.644z M-118.481-150.277
		c-0.348-0.168-0.732-0.312-1.164-0.312c-0.912,0-1.439,0.792-1.607,1.607c-0.132,0.6,0.036,1.295,0.731,1.295
		c0.695,0,1.235-0.588,1.727-1.104L-118.481-150.277z"/>
	<path fill="#FFFFFF" d="M-114.328-147.063h-0.9l0.684-3.226c0.228-1.08,0.419-2.171,0.396-3.19h0.864l-0.048,1.175
		c0.612-0.755,1.559-1.307,2.459-1.307c1.019,0,1.343,0.936,1.115,2.027l-0.959,4.521h-0.899l0.899-4.258
		c0.132-0.611,0.336-1.535-0.456-1.535c-0.852,0-2.111,0.864-2.591,3.119L-114.328-147.063z"/>
	<path fill="#FFFFFF" d="M-95.911-152.136c-0.432-0.36-0.912-0.72-1.559-0.72c-0.54,0-1.127,0.396-1.259,0.972
		c-0.132,0.624,0.552,0.936,1.007,1.115c0.923,0.372,1.895,0.792,1.619,2.063c-0.228,1.055-1.331,1.775-2.327,1.775
		c-0.972,0-1.835-0.479-2.411-1.115l0.647-0.72c0.396,0.54,1.104,1.08,1.859,1.08c0.6,0,1.188-0.336,1.319-0.983
		c0.18-0.84-0.443-1.067-1.043-1.319c-0.839-0.348-1.799-0.78-1.559-1.931c0.204-0.936,1.224-1.691,2.339-1.691
		c0.804,0,1.379,0.288,1.919,0.744L-95.911-152.136z"/>
	<path fill="#FFFFFF" d="M-90.45-152.723h-1.823l0.168-0.756h2.723l-1.368,6.417h-0.899L-90.45-152.723z M-88.759-155.11
		c-0.096,0.432-0.504,0.755-0.923,0.755c-0.42,0-0.684-0.324-0.588-0.755c0.084-0.432,0.492-0.756,0.912-0.756
		C-88.939-155.866-88.675-155.542-88.759-155.11z"/>
	<path fill="#FFFFFF" d="M-81.019-152.723h-2.291l-0.78,3.658c-0.132,0.624-0.276,1.379,0.54,1.379c0.684,0,1.224-0.564,1.595-1.127
		l0.816,0.216c-0.624,0.923-1.511,1.667-2.591,1.667c-1.043,0-1.595-0.503-1.188-2.422l0.708-3.37h-1.379l0.168-0.756h1.379
		l0.42-1.967h0.899l-0.419,1.967h2.291L-81.019-152.723z"/>
	<path fill="#FFFFFF" d="M-74.311-152.136c-0.432-0.36-0.912-0.72-1.559-0.72c-0.54,0-1.127,0.396-1.259,0.972
		c-0.132,0.624,0.552,0.936,1.007,1.115c0.923,0.372,1.895,0.792,1.619,2.063c-0.228,1.055-1.331,1.775-2.327,1.775
		c-0.972,0-1.835-0.479-2.411-1.115l0.647-0.72c0.396,0.54,1.104,1.08,1.859,1.08c0.6,0,1.188-0.336,1.319-0.983
		c0.18-0.84-0.444-1.067-1.043-1.319c-0.839-0.348-1.799-0.78-1.559-1.931c0.204-0.936,1.224-1.691,2.339-1.691
		c0.804,0,1.379,0.288,1.919,0.744L-74.311-152.136z"/>
	<path fill="#FFFFFF" d="M-64.373-153.479h1.007l-0.3,4.81h0.024l1.619-3.238h0.875l0.228,3.238h0.024l1.763-4.81h1.007l-2.507,6.5
		h-0.959l-0.312-3.478l-1.763,3.478h-0.959L-64.373-153.479z"/>
	<path fill="#FFFFFF" d="M-54.452-152.723h-1.823l0.168-0.756h2.723l-1.368,6.417h-0.899L-54.452-152.723z M-52.76-155.11
		c-0.096,0.432-0.504,0.755-0.924,0.755c-0.419,0-0.684-0.324-0.587-0.755c0.084-0.432,0.492-0.756,0.912-0.756
		C-52.94-155.866-52.676-155.542-52.76-155.11z"/>
	<path fill="#FFFFFF" d="M-45.021-152.723h-2.291l-0.78,3.658c-0.132,0.624-0.276,1.379,0.54,1.379c0.684,0,1.224-0.564,1.595-1.127
		l0.815,0.216c-0.624,0.923-1.511,1.667-2.59,1.667c-1.043,0-1.595-0.503-1.188-2.422l0.708-3.37h-1.379l0.168-0.756h1.379
		l0.42-1.967h0.899l-0.419,1.967h2.291L-45.021-152.723z"/>
	<path fill="#FFFFFF" d="M-41.251-155.962h0.899l-0.731,3.406c0.588-0.611,1.367-1.055,2.159-1.055c0.768,0,1.595,0.24,1.043,2.866
		l-0.779,3.682h-0.899l0.803-3.754c0.12-0.588,0.432-2.039-0.384-2.039c-0.671,0-1.403,0.6-1.799,1.164
		c-0.504,0.72-0.636,1.439-0.804,2.243l-0.503,2.387h-0.9L-41.251-155.962z"/>
	<path fill="#FFFFFF" d="M-28.339-150.265c0.528-2.483,2.027-3.346,3.25-3.346c2.267,0,2.063,2.303,1.847,3.346
		c-0.528,2.482-2.027,3.334-3.262,3.334C-27.62-146.931-28.891-147.674-28.339-150.265z M-24.141-150.265
		c0.228-1.104,0.3-2.591-1.103-2.591c-1.403,0-1.967,1.487-2.195,2.591c-0.24,1.104-0.312,2.579,1.091,2.579
		S-24.381-149.161-24.141-150.265z"/>
	<path fill="#FFFFFF" d="M-16.222-152.723h-2.291l-0.78,3.658c-0.132,0.624-0.276,1.379,0.54,1.379c0.684,0,1.224-0.564,1.595-1.127
		l0.815,0.216c-0.624,0.923-1.511,1.667-2.59,1.667c-1.043,0-1.595-0.503-1.188-2.422l0.708-3.37h-1.379l0.168-0.756h1.379
		l0.42-1.967h0.899l-0.419,1.967h2.291L-16.222-152.723z"/>
	<path fill="#FFFFFF" d="M-12.453-155.962h0.899l-0.731,3.406c0.588-0.611,1.367-1.055,2.159-1.055c0.768,0,1.595,0.24,1.043,2.866
		l-0.779,3.682h-0.899l0.803-3.754c0.12-0.588,0.432-2.039-0.384-2.039c-0.671,0-1.403,0.6-1.799,1.164
		c-0.504,0.72-0.636,1.439-0.804,2.243l-0.503,2.387h-0.9L-12.453-155.962z"/>
	<path fill="#FFFFFF" d="M-5.984-150.037c-0.336,1.763,0.336,2.351,1.319,2.351c0.708,0,1.487-0.324,2.147-0.684l0.216,0.803
		c-0.875,0.36-1.703,0.636-2.591,0.636c-1.895,0-2.303-1.631-1.955-3.298c0.36-1.679,1.5-3.382,3.418-3.382
		c2.135,0,1.943,2.387,1.811,3.082l-0.096,0.492H-5.984z M-2.458-150.793c0.192-1.055-0.192-2.063-1.199-2.063
		s-1.667,0.768-2.183,2.063H-2.458z"/>
	<path fill="#FFFFFF" d="M1.42-147.063h-0.9l0.78-3.682c0.228-1.055,0.324-1.931,0.336-2.734h0.875l-0.06,1.223
		c0.647-0.755,1.319-1.355,2.279-1.355c1.199,0,1.235,1.175,1.031,2.147H4.861c0.084-0.48,0.348-1.392-0.336-1.392
		c-0.66,0-2.099,0.983-2.542,3.119L1.42-147.063z"/>
	<path fill="#FFFFFF" d="M-149.247-137.962h0.899l-0.731,3.406c0.588-0.611,1.367-1.055,2.159-1.055c0.768,0,1.595,0.24,1.043,2.866
		l-0.779,3.682h-0.899l0.803-3.754c0.12-0.588,0.432-2.039-0.384-2.039c-0.671,0-1.403,0.6-1.799,1.164
		c-0.504,0.72-0.636,1.439-0.804,2.243l-0.503,2.387h-0.9L-149.247-137.962z"/>
	<path fill="#FFFFFF" d="M-139.792-133.644c0.156-0.708-0.168-1.211-0.839-1.211c-0.564,0-1.151,0.264-1.715,0.48l-0.036-0.792
		c0.66-0.24,1.271-0.444,1.943-0.444c1.223,0,1.751,1.007,1.523,2.075l-0.587,2.783c-0.12,0.587-0.168,1.187-0.096,1.739
		l-0.864,0.108l-0.06-0.803c-0.54,0.516-1.08,0.779-1.751,0.779c-1.224,0-1.703-0.959-1.463-2.099
		c0.264-1.235,1.247-2.315,2.542-2.315c0.48,0,0.899,0.144,1.271,0.312L-139.792-133.644z M-140.08-132.277
		c-0.348-0.168-0.731-0.312-1.163-0.312c-0.912,0-1.439,0.792-1.607,1.607c-0.132,0.6,0.036,1.295,0.731,1.295
		s1.235-0.588,1.727-1.104L-140.08-132.277z"/>
	<path fill="#FFFFFF" d="M-131.693-130.106c-0.792,0.696-1.535,1.175-2.531,1.175c-1.187,0-2.614-0.731-2.075-3.274
		c0.54-2.567,2.171-3.406,3.454-3.406c1.056,0,1.679,0.576,2.063,1.427l-0.888,0.516c-0.192-0.647-0.54-1.188-1.331-1.188
		c-0.912,0-1.979,0.672-2.387,2.567c-0.42,2.003,0.479,2.603,1.307,2.603c0.708,0,1.379-0.54,1.919-1.056L-131.693-130.106z"/>
	<path fill="#FFFFFF" d="M-123.462-135.479c-1.631,1.523-2.099,2.015-3.214,2.938l2.411,3.478h-1.188l-1.895-2.95l-0.492,0.408
		l-0.54,2.542h-0.899l1.895-8.899h0.899l-1.127,5.289c1.031-0.875,2.099-1.775,3.01-2.807H-123.462z"/>
	<path fill="#FFFFFF" d="M-121.18-132.037c-0.336,1.763,0.336,2.351,1.319,2.351c0.708,0,1.487-0.324,2.147-0.684l0.216,0.803
		c-0.875,0.36-1.703,0.636-2.591,0.636c-1.895,0-2.303-1.631-1.955-3.298c0.36-1.679,1.5-3.382,3.418-3.382
		c2.135,0,1.943,2.387,1.811,3.082l-0.096,0.492H-121.18z M-117.654-132.793c0.192-1.055-0.192-2.063-1.199-2.063
		s-1.667,0.768-2.183,2.063H-117.654z"/>
	<path fill="#FFFFFF" d="M-113.776-129.063h-0.9l0.78-3.682c0.228-1.055,0.324-1.931,0.336-2.734h0.875l-0.06,1.223
		c0.647-0.755,1.319-1.355,2.279-1.355c1.199,0,1.235,1.175,1.031,2.147h-0.899c0.084-0.48,0.348-1.392-0.336-1.392
		c-0.66,0-2.099,0.983-2.542,3.119L-113.776-129.063z"/>
	<path fill="#FFFFFF" d="M-103.11-134.136c-0.432-0.36-0.912-0.72-1.559-0.72c-0.54,0-1.127,0.396-1.259,0.972
		c-0.132,0.624,0.552,0.936,1.007,1.115c0.923,0.372,1.895,0.792,1.619,2.063c-0.228,1.055-1.331,1.775-2.327,1.775
		c-0.972,0-1.835-0.479-2.411-1.115l0.647-0.72c0.396,0.54,1.104,1.08,1.859,1.08c0.6,0,1.188-0.336,1.319-0.983
		c0.18-0.84-0.444-1.067-1.043-1.319c-0.839-0.348-1.799-0.78-1.559-1.931c0.204-0.936,1.224-1.691,2.339-1.691
		c0.804,0,1.379,0.288,1.919,0.744L-103.11-134.136z"/>
	<path fill="#FFFFFF" d="M-89.394-133.644c0.156-0.708-0.168-1.211-0.839-1.211c-0.564,0-1.151,0.264-1.715,0.48l-0.036-0.792
		c0.659-0.24,1.271-0.444,1.943-0.444c1.223,0,1.751,1.007,1.523,2.075l-0.588,2.783c-0.12,0.587-0.167,1.187-0.096,1.739
		l-0.863,0.108l-0.06-0.803c-0.54,0.516-1.08,0.779-1.751,0.779c-1.224,0-1.703-0.959-1.463-2.099
		c0.264-1.235,1.247-2.315,2.542-2.315c0.48,0,0.899,0.144,1.271,0.312L-89.394-133.644z M-89.682-132.277
		c-0.348-0.168-0.732-0.312-1.164-0.312c-0.912,0-1.439,0.792-1.607,1.607c-0.132,0.6,0.036,1.295,0.731,1.295
		c0.695,0,1.235-0.588,1.727-1.104L-89.682-132.277z"/>
	<path fill="#FFFFFF" d="M-81.019-134.723h-2.291l-0.78,3.658c-0.132,0.624-0.276,1.379,0.54,1.379c0.684,0,1.224-0.564,1.595-1.127
		l0.816,0.216c-0.624,0.923-1.511,1.667-2.591,1.667c-1.043,0-1.595-0.503-1.188-2.422l0.708-3.37h-1.379l0.168-0.756h1.379
		l0.42-1.967h0.899l-0.419,1.967h2.291L-81.019-134.723z"/>
	<path fill="#FFFFFF" d="M-70.23-133.92h2.998l0.804-3.778h0.899l-1.835,8.635h-0.899l0.875-4.102h-2.999l-0.875,4.102h-0.899
		l1.835-8.635h0.9L-70.23-133.92z"/>
	<path fill="#FFFFFF" d="M-60.596-133.644c0.156-0.708-0.168-1.211-0.839-1.211c-0.564,0-1.151,0.264-1.715,0.48l-0.036-0.792
		c0.659-0.24,1.271-0.444,1.943-0.444c1.223,0,1.751,1.007,1.523,2.075l-0.588,2.783c-0.12,0.587-0.167,1.187-0.096,1.739
		l-0.863,0.108l-0.06-0.803c-0.54,0.516-1.08,0.779-1.751,0.779c-1.224,0-1.703-0.959-1.463-2.099
		c0.264-1.235,1.247-2.315,2.542-2.315c0.48,0,0.899,0.144,1.271,0.312L-60.596-133.644z M-60.883-132.277
		c-0.348-0.168-0.732-0.312-1.164-0.312c-0.912,0-1.439,0.792-1.607,1.607c-0.132,0.6,0.036,1.295,0.731,1.295
		c0.695,0,1.235-0.588,1.727-1.104L-60.883-132.277z"/>
	<path fill="#FFFFFF" d="M-52.496-130.106c-0.792,0.696-1.535,1.175-2.53,1.175c-1.188,0-2.615-0.731-2.075-3.274
		c0.54-2.567,2.171-3.406,3.454-3.406c1.056,0,1.679,0.576,2.063,1.427l-0.888,0.516c-0.192-0.647-0.54-1.188-1.331-1.188
		c-0.912,0-1.979,0.672-2.387,2.567c-0.42,2.003,0.479,2.603,1.307,2.603c0.708,0,1.379-0.54,1.919-1.056L-52.496-130.106z"/>
	<path fill="#FFFFFF" d="M-44.265-135.479c-1.631,1.523-2.099,2.015-3.214,2.938l2.411,3.478h-1.188l-1.895-2.95l-0.492,0.408
		l-0.54,2.542h-0.899l1.895-8.899h0.899l-1.127,5.289c1.031-0.875,2.099-1.775,3.01-2.807H-44.265z"/>
	<path fill="#FFFFFF" d="M-37.317-137.698h0.887l-1.835,8.635h-0.899l1.391-6.572h-0.024l-2.674,4.233l-0.864-4.233l-0.024,0.024
		l-1.391,6.548h-0.899l1.835-8.635h0.875l0.899,4.306L-37.317-137.698z"/>
	<path fill="#FFFFFF" d="M-32.852-134.723h-1.823l0.168-0.756h2.723l-1.368,6.417h-0.899L-32.852-134.723z M-31.161-137.11
		c-0.096,0.432-0.504,0.755-0.923,0.755c-0.42,0-0.684-0.324-0.588-0.755c0.084-0.432,0.492-0.756,0.912-0.756
		C-31.341-137.866-31.077-137.542-31.161-137.11z"/>
	<path fill="#FFFFFF" d="M-24.597-133.644c0.156-0.708-0.168-1.211-0.839-1.211c-0.564,0-1.151,0.264-1.715,0.48l-0.036-0.792
		c0.66-0.24,1.271-0.444,1.943-0.444c1.223,0,1.751,1.007,1.523,2.075l-0.587,2.783c-0.12,0.587-0.168,1.187-0.096,1.739
		l-0.864,0.108l-0.06-0.803c-0.54,0.516-1.08,0.779-1.751,0.779c-1.224,0-1.703-0.959-1.463-2.099
		c0.264-1.235,1.247-2.315,2.542-2.315c0.48,0,0.899,0.144,1.271,0.312L-24.597-133.644z M-24.885-132.277
		c-0.348-0.168-0.731-0.312-1.163-0.312c-0.912,0-1.439,0.792-1.607,1.607c-0.132,0.6,0.036,1.295,0.731,1.295
		s1.235-0.588,1.727-1.104L-24.885-132.277z"/>
	<path fill="#FFFFFF" d="M-21.211-133.488c0.18-0.875,0.192-1.451,0.192-2.123h0.899l0.012,0.576
		c0.456-0.336,0.839-0.576,1.379-0.576c0.587,0,0.719,0.144,0.971,0.587c0.444-0.335,0.828-0.6,1.355-0.6
		c0.863,0,1.295,0.564,1.115,1.427l-1.091,5.133h-0.899l1.091-5.133c0.096-0.432-0.084-0.671-0.444-0.671
		c-0.408,0-0.828,0.335-1.091,0.671l-1.091,5.133h-0.9l1.08-5.061c0.072-0.336,0.06-0.732-0.348-0.732
		c-0.432,0-0.948,0.384-1.2,0.78l-1.067,5.013h-0.899L-21.211-133.488z"/>
	<path fill="#FFFFFF" d="M-11.253-134.723h-1.823l0.168-0.756h2.723l-1.368,6.417h-0.899L-11.253-134.723z M-9.562-137.11
		c-0.096,0.432-0.504,0.755-0.924,0.755c-0.419,0-0.684-0.324-0.587-0.755c0.084-0.432,0.492-0.756,0.912-0.756
		C-9.742-137.866-9.478-137.542-9.562-137.11z"/>
	<path fill="#FFFFFF" d="M-4.593-130.754c0.516,0,0.875,0.396,0.768,0.923c-0.12,0.528-0.647,0.936-1.163,0.936
		c-0.528,0-0.888-0.408-0.768-0.936C-5.648-130.358-5.109-130.754-4.593-130.754z"/>
</g>
</svg>
