<?xml version="1.0" encoding="utf-8"?>
<!-- Generator: Adobe Illustrator 15.1.0, SVG Export Plug-In . SVG Version: 6.00 Build 0)  -->
<!DOCTYPE svg PUBLIC "-//W3C//DTD SVG 1.1//EN" "http://www.w3.org/Graphics/SVG/1.1/DTD/svg11.dtd">
<svg version="1.1" xmlns="http://www.w3.org/2000/svg" xmlns:xlink="http://www.w3.org/1999/xlink" x="0px" y="0px"
	 width="236.098px" height="27.066px" viewBox="0 0 236.098 27.066" enable-background="new 0 0 236.098 27.066"
	 xml:space="preserve">
<g id="Layer_2">
</g>
<g id="Layer_1">
	<g>
		<path fill="#FFFFFF" d="M3.662,0.264h2.495L4.982,5.816c-0.229,1.068-0.671,3.25-3.143,3.25c-1.402,0-2.135-0.792-1.727-2.663
			l0.264-1.211h0.899L0.941,6.74c-0.216,0.994,0.144,1.57,1.031,1.57c1.031,0,1.702-0.587,1.967-1.823l1.164-5.469H3.506
			L3.662,0.264z"/>
		<path fill="#FFFFFF" d="M11.45,4.317c0.156-0.708-0.168-1.211-0.839-1.211c-0.564,0-1.151,0.265-1.715,0.48L8.86,2.794
			c0.659-0.24,1.271-0.444,1.942-0.444c1.224,0,1.752,1.007,1.523,2.075l-0.588,2.783c-0.12,0.587-0.167,1.187-0.096,1.739
			l-0.863,0.107l-0.061-0.803c-0.539,0.516-1.079,0.779-1.751,0.779c-1.224,0-1.702-0.959-1.463-2.1
			c0.265-1.234,1.247-2.314,2.542-2.314c0.48,0,0.899,0.144,1.271,0.312L11.45,4.317z M11.162,5.685
			c-0.348-0.168-0.731-0.312-1.164-0.312c-0.912,0-1.438,0.792-1.606,1.606C8.259,7.58,8.427,8.275,9.122,8.275
			s1.235-0.588,1.728-1.104L11.162,5.685z"/>
		<path fill="#FFFFFF" d="M20.749,2.482l-3.658,6.021c-0.563,0.924-1.438,2.351-2.614,2.351c-0.828,0-1.26-0.636-1.331-1.392
			l0.839-0.396c0.06,0.385,0.18,1.031,0.66,1.031c0.504,0,0.947-0.695,1.198-1.079l0.624-0.972l-0.875-5.565h0.972l0.624,4.366
			l2.603-4.366L20.749,2.482L20.749,2.482z"/>
		<path fill="#FFFFFF" d="M26.533,3.826c-0.432-0.36-0.912-0.721-1.559-0.721c-0.54,0-1.127,0.396-1.26,0.973
			c-0.132,0.624,0.553,0.936,1.008,1.114c0.923,0.372,1.895,0.792,1.618,2.063c-0.228,1.055-1.331,1.775-2.326,1.775
			c-0.973,0-1.835-0.479-2.411-1.115l0.646-0.721c0.396,0.54,1.104,1.08,1.859,1.08c0.6,0,1.188-0.336,1.319-0.982
			c0.18-0.84-0.443-1.067-1.044-1.319c-0.839-0.348-1.799-0.78-1.559-1.931c0.204-0.937,1.224-1.691,2.339-1.691
			c0.805,0,1.379,0.288,1.919,0.744L26.533,3.826z"/>
		<path fill="#FFFFFF" d="M29.309,5.698c0.526-2.483,2.026-3.347,3.25-3.347c2.267,0,2.062,2.303,1.847,3.347
			c-0.528,2.481-2.027,3.334-3.262,3.334C30.028,9.031,28.756,8.287,29.309,5.698z M33.505,5.698
			c0.229-1.104,0.301-2.592-1.103-2.592s-1.967,1.487-2.195,2.592c-0.24,1.104-0.312,2.578,1.091,2.578
			C32.702,8.275,33.266,6.8,33.505,5.698z"/>
		<path fill="#FFFFFF" d="M36.916,8.899h-0.899L36.7,5.673c0.229-1.08,0.42-2.171,0.396-3.19h0.863l-0.048,1.176
			c0.612-0.756,1.56-1.308,2.459-1.308c1.02,0,1.343,0.937,1.115,2.027l-0.959,4.521h-0.899l0.899-4.258
			c0.132-0.61,0.336-1.535-0.456-1.535c-0.853,0-2.111,0.864-2.591,3.119L36.916,8.899z"/>
		<path fill="#FFFFFF" d="M56.065,1.823c-0.419-0.469-0.911-0.972-1.655-0.972c-0.768,0-1.511,0.527-1.679,1.319
			c-0.097,0.456-0.097,0.864,0.912,1.571l0.6,0.42c1.391,0.971,1.715,1.427,1.499,2.435c-0.336,1.547-1.559,2.471-3.07,2.471
			c-1.114,0-1.822-0.54-2.313-1.402l0.814-0.553C51.448,7.785,52,8.312,52.827,8.312c0.9,0,1.787-0.671,1.991-1.595
			c0.144-0.696,0.132-0.924-1.188-1.847l-0.671-0.469c-0.731-0.516-1.367-1.091-1.14-2.171c0.288-1.354,1.487-2.135,2.783-2.135
			c0.898,0,1.631,0.48,2.146,1.08L56.065,1.823z"/>
		<path fill="#FFFFFF" d="M63.025,3.238h-2.291l-0.78,3.658c-0.132,0.624-0.276,1.379,0.54,1.379c0.684,0,1.224-0.563,1.595-1.127
			l0.815,0.217c-0.624,0.923-1.511,1.667-2.59,1.667c-1.043,0-1.596-0.504-1.188-2.423l0.708-3.371h-1.379l0.168-0.755h1.379
			l0.42-1.967h0.899l-0.419,1.967h2.291L63.025,3.238z"/>
		<path fill="#FFFFFF" d="M66.268,8.899h-0.9l0.78-3.682c0.228-1.055,0.324-1.931,0.336-2.734h0.875l-0.061,1.224
			c0.647-0.755,1.319-1.355,2.279-1.355c1.199,0,1.235,1.175,1.031,2.147h-0.899c0.084-0.48,0.349-1.393-0.336-1.393
			c-0.66,0-2.099,0.983-2.542,3.119L66.268,8.899z"/>
		<path fill="#FFFFFF" d="M73.264,5.924c-0.337,1.763,0.336,2.351,1.318,2.351c0.708,0,1.487-0.323,2.146-0.684l0.216,0.803
			c-0.875,0.36-1.703,0.637-2.591,0.637c-1.896,0-2.304-1.632-1.955-3.299c0.359-1.679,1.5-3.382,3.418-3.382
			c2.135,0,1.942,2.387,1.811,3.082l-0.096,0.492H73.264z M76.789,5.169c0.192-1.055-0.191-2.063-1.199-2.063
			c-1.007,0-1.667,0.769-2.183,2.063H76.789z"/>
		<path fill="#FFFFFF" d="M80.462,5.924c-0.336,1.763,0.336,2.351,1.319,2.351c0.708,0,1.487-0.323,2.147-0.684l0.216,0.803
			c-0.875,0.36-1.703,0.637-2.591,0.637c-1.896,0-2.304-1.632-1.955-3.299c0.359-1.679,1.5-3.382,3.418-3.382
			c2.135,0,1.942,2.387,1.811,3.082l-0.096,0.492H80.462z M83.989,5.169c0.192-1.055-0.192-2.063-1.199-2.063
			s-1.667,0.769-2.183,2.063H83.989z"/>
		<path fill="#FFFFFF" d="M91.824,3.238h-2.291l-0.78,3.658c-0.132,0.624-0.275,1.379,0.54,1.379c0.685,0,1.225-0.563,1.596-1.127
			l0.814,0.217c-0.624,0.923-1.511,1.667-2.59,1.667c-1.043,0-1.595-0.504-1.188-2.423l0.708-3.371h-1.379l0.168-0.755h1.379
			l0.421-1.967h0.898l-0.419,1.967h2.291L91.824,3.238z"/>
		<path fill="#FFFFFF" d="M101.271,2.482h1.007l-0.3,4.811h0.023l1.619-3.238h0.875l0.229,3.238h0.023l1.763-4.811h1.008l-2.508,6.5
			h-0.959l-0.312-3.478l-1.763,3.478h-0.959L101.271,2.482z"/>
		<path fill="#FFFFFF" d="M112.249,4.317c0.156-0.708-0.168-1.211-0.839-1.211c-0.563,0-1.151,0.265-1.715,0.48l-0.036-0.792
			c0.659-0.24,1.271-0.444,1.943-0.444c1.223,0,1.751,1.007,1.522,2.075l-0.588,2.783c-0.12,0.587-0.167,1.187-0.096,1.739
			l-0.863,0.107l-0.06-0.803c-0.54,0.516-1.08,0.779-1.751,0.779c-1.225,0-1.703-0.959-1.463-2.1
			c0.264-1.234,1.246-2.314,2.542-2.314c0.479,0,0.898,0.144,1.271,0.312L112.249,4.317z M111.961,5.685
			c-0.348-0.168-0.731-0.312-1.164-0.312c-0.912,0-1.438,0.792-1.606,1.606c-0.132,0.601,0.036,1.295,0.73,1.295
			c0.695,0,1.235-0.588,1.728-1.104L111.961,5.685z"/>
		<path fill="#FFFFFF" d="M118.825,0.755h-1.823L117.169,0h2.724l-1.896,8.898h-0.898L118.825,0.755z"/>
		<path fill="#FFFFFF" d="M128.579,2.482c-1.631,1.523-2.099,2.016-3.214,2.938l2.411,3.478h-1.188l-1.895-2.949l-0.492,0.407
			l-0.54,2.542h-0.898L124.657,0h0.899l-1.127,5.289c1.03-0.875,2.099-1.775,3.01-2.808H128.579z"/>
		<path fill="#FFFFFF" d="M134.532,3.826c-0.432-0.36-0.912-0.721-1.559-0.721c-0.54,0-1.127,0.396-1.26,0.973
			c-0.132,0.624,0.553,0.936,1.008,1.114c0.923,0.372,1.895,0.792,1.618,2.063c-0.228,1.055-1.331,1.775-2.326,1.775
			c-0.973,0-1.835-0.479-2.411-1.115l0.646-0.721c0.396,0.54,1.104,1.08,1.859,1.08c0.6,0,1.188-0.336,1.318-0.982
			c0.181-0.84-0.443-1.067-1.043-1.319c-0.839-0.348-1.799-0.78-1.559-1.931c0.204-0.937,1.224-1.691,2.339-1.691
			c0.804,0,1.379,0.288,1.919,0.744L134.532,3.826z"/>
		<path fill="#FFFFFF" d="M147.924,9.031l-0.048-0.721c-0.636,0.48-0.972,0.721-1.715,0.721c-1.127,0-2.387-0.863-1.847-3.383
			c0.516-2.446,2.255-3.298,3.298-3.298c0.54,0,0.888,0.132,1.271,0.372L149.472,0h0.899l-1.403,6.607
			C148.8,7.4,148.704,8.191,148.8,8.922L147.924,9.031z M148.692,3.634c-0.288-0.288-0.636-0.528-1.091-0.528
			c-0.959,0-2.027,0.805-2.399,2.579c-0.444,2.087,0.54,2.591,1.14,2.591c0.695,0,1.235-0.516,1.607-1.104L148.692,3.634z"/>
		<path fill="#FFFFFF" d="M151.706,5.698c0.527-2.483,2.027-3.347,3.25-3.347c2.268,0,2.063,2.303,1.848,3.347
			c-0.528,2.481-2.027,3.334-3.263,3.334C152.425,9.031,151.155,8.287,151.706,5.698z M155.904,5.698
			c0.228-1.104,0.3-2.592-1.104-2.592c-1.402,0-1.967,1.487-2.194,2.592c-0.24,1.104-0.312,2.578,1.091,2.578
			S155.664,6.8,155.904,5.698z"/>
		<path fill="#FFFFFF" d="M158.87,2.482h1.007l-0.3,4.811h0.024l1.619-3.238h0.875l0.228,3.238h0.024l1.763-4.811h1.007l-2.507,6.5
			h-0.959l-0.312-3.478l-1.763,3.478h-0.959L158.87,2.482z"/>
		<path fill="#FFFFFF" d="M166.515,8.899h-0.9l0.684-3.226c0.229-1.08,0.419-2.171,0.396-3.19h0.864l-0.049,1.176
			c0.612-0.756,1.56-1.308,2.46-1.308c1.019,0,1.343,0.937,1.114,2.027l-0.959,4.521h-0.898l0.898-4.258
			c0.132-0.61,0.336-1.535-0.456-1.535c-0.852,0-2.11,0.864-2.591,3.119L166.515,8.899z"/>
		<path fill="#FFFFFF" d="M184.247,4.317c0.156-0.708-0.168-1.211-0.839-1.211c-0.564,0-1.151,0.265-1.715,0.48l-0.036-0.792
			c0.66-0.24,1.271-0.444,1.943-0.444c1.223,0,1.751,1.007,1.522,2.075l-0.587,2.783c-0.12,0.587-0.168,1.187-0.096,1.739
			l-0.864,0.107l-0.06-0.803c-0.54,0.516-1.08,0.779-1.751,0.779c-1.225,0-1.703-0.959-1.464-2.1
			c0.265-1.234,1.247-2.314,2.542-2.314c0.48,0,0.899,0.144,1.271,0.312L184.247,4.317z M183.959,5.685
			c-0.348-0.168-0.73-0.312-1.163-0.312c-0.912,0-1.438,0.792-1.606,1.606c-0.132,0.601,0.036,1.295,0.73,1.295
			c0.695,0,1.235-0.588,1.728-1.104L183.959,5.685z"/>
		<path fill="#FFFFFF" d="M199.331,3.826c-0.432-0.36-0.912-0.721-1.559-0.721c-0.54,0-1.127,0.396-1.259,0.973
			c-0.133,0.624,0.552,0.936,1.007,1.114c0.923,0.372,1.895,0.792,1.619,2.063c-0.229,1.055-1.331,1.775-2.327,1.775
			c-0.973,0-1.835-0.479-2.411-1.115l0.646-0.721c0.396,0.54,1.104,1.08,1.859,1.08c0.6,0,1.188-0.336,1.319-0.982
			c0.18-0.84-0.444-1.067-1.043-1.319c-0.84-0.348-1.8-0.78-1.56-1.931c0.204-0.937,1.225-1.691,2.339-1.691
			c0.805,0,1.379,0.288,1.919,0.744L199.331,3.826z"/>
		<path fill="#FFFFFF" d="M202.862,5.924c-0.336,1.763,0.336,2.351,1.319,2.351c0.708,0,1.486-0.323,2.146-0.684l0.216,0.803
			c-0.875,0.36-1.703,0.637-2.591,0.637c-1.895,0-2.303-1.632-1.955-3.299c0.36-1.679,1.5-3.382,3.418-3.382
			c2.135,0,1.943,2.387,1.812,3.082l-0.097,0.492H202.862z M206.388,5.169c0.191-1.055-0.192-2.063-1.199-2.063
			s-1.667,0.769-2.184,2.063H206.388z"/>
		<path fill="#FFFFFF" d="M213.947,7.855c-0.792,0.696-1.535,1.176-2.53,1.176c-1.188,0-2.615-0.731-2.075-3.274
			c0.54-2.567,2.172-3.406,3.454-3.406c1.057,0,1.68,0.576,2.063,1.427l-0.888,0.517c-0.192-0.647-0.54-1.188-1.331-1.188
			c-0.912,0-1.979,0.672-2.388,2.567c-0.42,2.003,0.479,2.603,1.308,2.603c0.708,0,1.379-0.54,1.919-1.056L213.947,7.855z"/>
		<path fill="#FFFFFF" d="M221.027,2.482h0.898l-0.659,3.106c-0.24,1.115-0.456,2.219-0.433,3.31h-0.852l0.06-1.234
			c-0.576,0.708-1.57,1.367-2.397,1.367c-1.14,0-1.415-0.972-1.176-2.088l0.947-4.461h0.899l-0.899,4.198
			c-0.132,0.601-0.336,1.595,0.456,1.595c0.887,0,2.123-0.996,2.59-3.167L221.027,2.482z"/>
		<path fill="#FFFFFF" d="M224.664,8.899h-0.898l0.779-3.682c0.229-1.055,0.324-1.931,0.336-2.734h0.875l-0.06,1.224
			c0.646-0.755,1.319-1.355,2.279-1.355c1.198,0,1.234,1.175,1.03,2.147h-0.898c0.084-0.48,0.348-1.393-0.336-1.393
			c-0.66,0-2.1,0.983-2.542,3.119L224.664,8.899z"/>
		<path fill="#FFFFFF" d="M231.66,5.924c-0.336,1.763,0.336,2.351,1.319,2.351c0.708,0,1.486-0.323,2.146-0.684l0.216,0.803
			c-0.875,0.36-1.702,0.637-2.591,0.637c-1.895,0-2.303-1.632-1.955-3.299c0.36-1.679,1.5-3.382,3.418-3.382
			c2.136,0,1.943,2.387,1.812,3.082l-0.096,0.492H231.66z M235.187,5.169c0.191-1.055-0.192-2.063-1.199-2.063
			s-1.667,0.769-2.183,2.063H235.187z"/>
		<path fill="#FFFFFF" d="M4.723,25.855c-0.792,0.696-1.534,1.176-2.53,1.176c-1.188,0-2.614-0.731-2.075-3.274
			c0.54-2.567,2.171-3.406,3.454-3.406c1.056,0,1.679,0.576,2.062,1.427l-0.888,0.517c-0.192-0.647-0.54-1.188-1.331-1.188
			c-0.912,0-1.979,0.672-2.387,2.567c-0.42,2.003,0.479,2.603,1.307,2.603c0.708,0,1.379-0.54,1.919-1.056L4.723,25.855z"/>
		<path fill="#FFFFFF" d="M7.281,23.698c0.527-2.483,2.026-3.347,3.25-3.347c2.267,0,2.062,2.303,1.847,3.347
			c-0.528,2.481-2.027,3.334-3.262,3.334C8.001,27.031,6.731,26.287,7.281,23.698z M11.48,23.698c0.228-1.104,0.3-2.592-1.104-2.592
			s-1.967,1.487-2.195,2.592c-0.239,1.104-0.312,2.578,1.092,2.578C10.675,26.276,11.24,24.8,11.48,23.698z"/>
		<path fill="#FFFFFF" d="M15.443,26.899h-0.9l0.78-3.682c0.228-1.055,0.324-1.931,0.336-2.734h0.875l-0.061,1.224
			c0.647-0.755,1.319-1.355,2.279-1.355c1.199,0,1.235,1.175,1.031,2.147h-0.899c0.084-0.48,0.349-1.393-0.336-1.393
			c-0.66,0-2.099,0.983-2.542,3.119L15.443,26.899z"/>
		<path fill="#FFFFFF" d="M22.641,26.899h-0.898l0.78-3.682c0.228-1.055,0.323-1.931,0.336-2.734h0.875l-0.061,1.224
			c0.647-0.755,1.319-1.355,2.279-1.355c1.199,0,1.235,1.175,1.031,2.147h-0.899c0.084-0.48,0.348-1.393-0.336-1.393
			c-0.66,0-2.099,0.983-2.542,3.119L22.641,26.899z"/>
		<path fill="#FFFFFF" d="M31.57,21.238h-1.824l0.168-0.755h2.723L31.268,26.9h-0.898L31.57,21.238z M33.259,18.852
			c-0.096,0.433-0.504,0.755-0.923,0.755c-0.42,0-0.684-0.323-0.588-0.755c0.084-0.432,0.492-0.756,0.912-0.756
			C33.079,18.096,33.343,18.419,33.259,18.852z"/>
		<path fill="#FFFFFF" d="M39.5,27.031l-0.048-0.721c-0.636,0.48-0.972,0.721-1.715,0.721c-1.127,0-2.388-0.863-1.848-3.383
			c0.517-2.446,2.255-3.298,3.299-3.298c0.54,0,0.888,0.132,1.271,0.372L41.047,18h0.9l-1.403,6.607
			c-0.169,0.792-0.265,1.583-0.169,2.315L39.5,27.031z M40.267,21.634c-0.287-0.288-0.636-0.528-1.091-0.528
			c-0.959,0-2.026,0.805-2.398,2.579c-0.444,2.087,0.54,2.591,1.14,2.591c0.695,0,1.235-0.516,1.607-1.104L40.267,21.634z"/>
		<path fill="#FFFFFF" d="M43.281,23.698c0.526-2.483,2.026-3.347,3.25-3.347c2.267,0,2.062,2.303,1.847,3.347
			c-0.528,2.481-2.027,3.334-3.262,3.334C44.001,27.031,42.731,26.287,43.281,23.698z M47.48,23.698
			c0.228-1.104,0.3-2.592-1.104-2.592s-1.967,1.487-2.195,2.592c-0.239,1.104-0.312,2.578,1.092,2.578
			C46.675,26.276,47.24,24.8,47.48,23.698z"/>
		<path fill="#FFFFFF" d="M51.442,26.899h-0.899l0.78-3.682c0.228-1.055,0.324-1.931,0.336-2.734h0.875l-0.061,1.224
			c0.647-0.755,1.319-1.355,2.279-1.355c1.199,0,1.235,1.175,1.031,2.147h-0.899c0.084-0.48,0.349-1.393-0.336-1.393
			c-0.66,0-2.099,0.983-2.542,3.119L51.442,26.899z"/>
		<path fill="#FFFFFF" d="M64.881,23.698c0.527-2.483,2.027-3.347,3.25-3.347c2.268,0,2.063,2.303,1.848,3.347
			c-0.528,2.481-2.027,3.334-3.263,3.334C65.6,27.031,64.329,26.287,64.881,23.698z M69.078,23.698
			c0.228-1.104,0.3-2.592-1.104-2.592c-1.402,0-1.967,1.487-2.194,2.592c-0.24,1.104-0.312,2.578,1.091,2.578
			S68.839,24.8,69.078,23.698z"/>
		<path fill="#FFFFFF" d="M78.257,19.451c-0.456-0.217-0.947-0.601-1.499-0.601c-0.792,0-1.248,0.492-1.427,1.319l-0.156,0.72h2.062
			l-0.156,0.756h-2.063l-1.114,5.253h-0.899l1.115-5.253h-1.595l0.155-0.756h1.596l0.132-0.611c0.324-1.522,1.499-2.183,2.446-2.183
			c0.588,0,1.115,0.204,1.595,0.444L78.257,19.451z"/>
		<path fill="#FFFFFF" d="M90.222,22.317c0.156-0.708-0.168-1.211-0.839-1.211c-0.563,0-1.15,0.265-1.715,0.48l-0.036-0.792
			c0.659-0.24,1.271-0.444,1.943-0.444c1.223,0,1.751,1.007,1.522,2.075l-0.588,2.783c-0.12,0.587-0.167,1.187-0.096,1.739
			l-0.863,0.107l-0.06-0.803c-0.54,0.516-1.08,0.779-1.751,0.779c-1.225,0-1.703-0.959-1.463-2.1
			c0.264-1.234,1.247-2.314,2.542-2.314c0.479,0,0.898,0.144,1.271,0.312L90.222,22.317z M89.935,23.685
			c-0.348-0.168-0.731-0.312-1.163-0.312c-0.912,0-1.439,0.792-1.607,1.606c-0.132,0.601,0.036,1.295,0.731,1.295
			c0.694,0,1.234-0.588,1.727-1.104L89.935,23.685z"/>
		<path fill="#FFFFFF" d="M106.301,18.264h0.888l-1.835,8.635h-0.899l1.391-6.571h-0.023l-2.674,4.232l-0.864-4.232l-0.024,0.023
			l-1.391,6.548h-0.899l1.835-8.635h0.875l0.899,4.306L106.301,18.264z"/>
		<path fill="#FFFFFF" d="M110.767,21.238h-1.822l0.168-0.755h2.723l-1.368,6.417h-0.898L110.767,21.238z M112.458,18.852
			c-0.096,0.433-0.504,0.755-0.924,0.755c-0.419,0-0.685-0.323-0.587-0.755c0.084-0.432,0.492-0.756,0.912-0.756
			C112.279,18.096,112.542,18.419,112.458,18.852z"/>
		<path fill="#FFFFFF" d="M119.023,22.317c0.155-0.708-0.168-1.211-0.84-1.211c-0.563,0-1.15,0.265-1.715,0.48l-0.036-0.792
			c0.659-0.24,1.271-0.444,1.943-0.444c1.223,0,1.751,1.007,1.523,2.075l-0.589,2.783c-0.119,0.587-0.167,1.187-0.096,1.739
			l-0.863,0.107l-0.06-0.803c-0.54,0.516-1.08,0.779-1.751,0.779c-1.224,0-1.703-0.959-1.463-2.1
			c0.264-1.234,1.247-2.314,2.542-2.314c0.479,0,0.898,0.144,1.271,0.312L119.023,22.317z M118.736,23.685
			c-0.349-0.168-0.732-0.312-1.164-0.312c-0.912,0-1.439,0.792-1.607,1.606c-0.132,0.601,0.036,1.295,0.731,1.295
			c0.694,0,1.234-0.588,1.727-1.104L118.736,23.685z"/>
		<path fill="#FFFFFF" d="M122.408,22.473c0.18-0.875,0.191-1.451,0.191-2.123h0.899l0.012,0.576
			c0.456-0.336,0.839-0.576,1.379-0.576c0.587,0,0.72,0.145,0.972,0.587c0.443-0.335,0.828-0.6,1.354-0.6
			c0.863,0,1.295,0.563,1.115,1.427l-1.091,5.133h-0.899l1.091-5.133c0.097-0.432-0.084-0.671-0.443-0.671
			c-0.408,0-0.828,0.336-1.091,0.671l-1.092,5.133h-0.899l1.08-5.061c0.071-0.336,0.06-0.732-0.349-0.732
			c-0.432,0-0.947,0.384-1.198,0.78l-1.068,5.013h-0.899L122.408,22.473z"/>
		<path fill="#FFFFFF" d="M132.366,21.238h-1.823l0.168-0.755h2.723l-1.367,6.417h-0.899L132.366,21.238z M134.058,18.852
			c-0.096,0.433-0.504,0.755-0.924,0.755c-0.419,0-0.684-0.323-0.587-0.755c0.084-0.432,0.492-0.756,0.912-0.756
			C133.878,18.096,134.142,18.419,134.058,18.852z"/>
		<path fill="#FFFFFF" d="M145.568,18h0.898l-0.73,3.406c0.588-0.611,1.366-1.056,2.158-1.056c0.769,0,1.596,0.24,1.044,2.866
			l-0.779,3.682h-0.899l0.804-3.754c0.119-0.588,0.432-2.039-0.385-2.039c-0.671,0-1.402,0.601-1.799,1.164
			c-0.504,0.721-0.636,1.439-0.804,2.243l-0.503,2.387h-0.9L145.568,18z"/>
		<path fill="#FFFFFF" d="M151.28,23.698c0.527-2.483,2.026-3.347,3.25-3.347c2.267,0,2.062,2.303,1.847,3.347
			c-0.528,2.481-2.027,3.334-3.262,3.334C151.999,27.031,150.729,26.287,151.28,23.698z M155.477,23.698
			c0.229-1.104,0.301-2.592-1.103-2.592s-1.967,1.487-2.195,2.592c-0.239,1.104-0.312,2.578,1.092,2.578
			C154.673,26.276,155.238,24.8,155.477,23.698z"/>
		<path fill="#FFFFFF" d="M163.398,21.238h-2.291l-0.78,3.658c-0.132,0.624-0.276,1.379,0.54,1.379c0.684,0,1.224-0.563,1.595-1.127
			l0.815,0.217c-0.624,0.923-1.512,1.667-2.59,1.667c-1.044,0-1.596-0.504-1.188-2.423l0.708-3.371h-1.379l0.168-0.755h1.379
			l0.42-1.967h0.899l-0.419,1.967h2.291L163.398,21.238z"/>
		<path fill="#FFFFFF" d="M166.435,23.924c-0.336,1.763,0.337,2.351,1.319,2.351c0.708,0,1.487-0.323,2.147-0.684l0.216,0.803
			c-0.875,0.36-1.703,0.637-2.591,0.637c-1.896,0-2.304-1.632-1.955-3.299c0.359-1.679,1.5-3.382,3.418-3.382
			c2.135,0,1.942,2.387,1.811,3.082l-0.096,0.492H166.435z M169.961,23.169c0.192-1.055-0.192-2.063-1.199-2.063
			s-1.667,0.769-2.183,2.063H169.961z"/>
		<path fill="#FFFFFF" d="M175.998,18.755h-1.823L174.342,18h2.724l-1.896,8.898h-0.898L175.998,18.755z"/>
		<path fill="#FFFFFF" d="M182.226,25.208c0.517,0,0.875,0.396,0.769,0.923c-0.12,0.528-0.647,0.936-1.163,0.936
			c-0.528,0-0.888-0.407-0.768-0.936C181.171,25.604,181.71,25.208,182.226,25.208z"/>
	</g>
</g>
</svg>
