<?xml version="1.0" encoding="utf-8"?>
<!-- Generator: Adobe Illustrator 17.0.0, SVG Export Plug-In . SVG Version: 6.00 Build 0)  -->
<!DOCTYPE svg PUBLIC "-//W3C//DTD SVG 1.1//EN" "http://www.w3.org/Graphics/SVG/1.1/DTD/svg11.dtd">
<svg version="1.1" id="Layer_1" xmlns="http://www.w3.org/2000/svg" xmlns:xlink="http://www.w3.org/1999/xlink" x="0px" y="0px"
	 width="236.099px" height="27.067px" viewBox="0 0 236.099 27.067" enable-background="new 0 0 236.099 27.067"
	 xml:space="preserve">
<g>
	<path fill="#FFFFFF" d="M3.662,0.264h2.495L4.981,5.816c-0.228,1.068-0.671,3.25-3.142,3.25c-1.403,0-2.135-0.792-1.727-2.663
		l0.264-1.211h0.899L0.94,6.74C0.724,7.735,1.084,8.311,1.971,8.311c1.032,0,1.703-0.587,1.967-1.823l1.164-5.469H3.506L3.662,0.264
		z"/>
	<path fill="#FFFFFF" d="M11.45,4.317c0.156-0.708-0.168-1.211-0.839-1.211c-0.564,0-1.151,0.264-1.715,0.48L8.859,2.794
		c0.659-0.24,1.271-0.444,1.943-0.444c1.223,0,1.751,1.007,1.523,2.075l-0.588,2.783c-0.12,0.587-0.167,1.187-0.096,1.739
		l-0.863,0.108l-0.06-0.803c-0.54,0.516-1.08,0.779-1.751,0.779c-1.224,0-1.703-0.959-1.463-2.099
		c0.264-1.235,1.247-2.315,2.542-2.315c0.48,0,0.899,0.144,1.271,0.312L11.45,4.317z M11.162,5.685
		c-0.348-0.168-0.732-0.312-1.164-0.312c-0.912,0-1.439,0.792-1.607,1.607c-0.132,0.6,0.036,1.295,0.731,1.295
		c0.695,0,1.235-0.588,1.727-1.104L11.162,5.685z"/>
	<path fill="#FFFFFF" d="M20.749,2.482l-3.658,6.021c-0.564,0.924-1.439,2.351-2.615,2.351c-0.828,0-1.259-0.636-1.331-1.392
		l0.839-0.396c0.06,0.384,0.18,1.031,0.66,1.031c0.504,0,0.948-0.695,1.199-1.079l0.624-0.972l-0.875-5.565h0.971l0.624,4.366
		l2.603-4.366H20.749z"/>
	<path fill="#FFFFFF" d="M26.533,3.826c-0.432-0.36-0.912-0.72-1.559-0.72c-0.54,0-1.127,0.396-1.259,0.972
		c-0.132,0.624,0.552,0.936,1.007,1.115c0.923,0.372,1.895,0.792,1.619,2.063c-0.228,1.055-1.331,1.775-2.327,1.775
		c-0.972,0-1.835-0.479-2.411-1.115l0.647-0.72c0.396,0.54,1.104,1.08,1.859,1.08c0.6,0,1.188-0.336,1.319-0.983
		c0.18-0.84-0.443-1.067-1.043-1.319c-0.839-0.348-1.799-0.78-1.559-1.931c0.204-0.936,1.224-1.691,2.339-1.691
		c0.804,0,1.379,0.288,1.919,0.744L26.533,3.826z"/>
	<path fill="#FFFFFF" d="M29.308,5.697c0.527-2.483,2.027-3.346,3.25-3.346c2.267,0,2.063,2.303,1.847,3.346
		c-0.528,2.482-2.027,3.334-3.262,3.334C30.027,9.031,28.756,8.287,29.308,5.697z M33.505,5.697c0.228-1.104,0.3-2.591-1.103-2.591
		c-1.403,0-1.967,1.487-2.195,2.591c-0.24,1.104-0.312,2.579,1.091,2.579C32.702,8.275,33.265,6.8,33.505,5.697z"/>
	<path fill="#FFFFFF" d="M36.916,8.899h-0.9l0.684-3.226c0.228-1.08,0.42-2.171,0.396-3.19h0.864l-0.048,1.175
		c0.612-0.755,1.559-1.307,2.459-1.307c1.019,0,1.343,0.936,1.115,2.027l-0.959,4.521h-0.899l0.899-4.258
		c0.132-0.611,0.336-1.535-0.456-1.535c-0.852,0-2.111,0.864-2.591,3.119L36.916,8.899z"/>
	<path fill="#FFFFFF" d="M56.064,1.823c-0.419-0.468-0.911-0.971-1.655-0.971c-0.768,0-1.511,0.527-1.679,1.319
		c-0.096,0.456-0.096,0.864,0.912,1.571l0.6,0.42c1.391,0.971,1.715,1.427,1.499,2.435c-0.336,1.547-1.559,2.471-3.07,2.471
		c-1.115,0-1.823-0.54-2.314-1.403l0.815-0.552c0.276,0.672,0.828,1.199,1.655,1.199c0.9,0,1.787-0.671,1.991-1.595
		c0.144-0.696,0.132-0.924-1.188-1.847l-0.671-0.468c-0.732-0.516-1.367-1.091-1.14-2.171c0.288-1.355,1.487-2.135,2.783-2.135
		c0.899,0,1.631,0.48,2.146,1.08L56.064,1.823z"/>
	<path fill="#FFFFFF" d="M63.024,3.238h-2.291l-0.78,3.658c-0.132,0.624-0.276,1.379,0.54,1.379c0.684,0,1.224-0.564,1.595-1.127
		l0.815,0.216c-0.624,0.923-1.511,1.667-2.59,1.667c-1.043,0-1.595-0.503-1.188-2.422l0.708-3.371h-1.379l0.168-0.755h1.379
		l0.42-1.967h0.899l-0.419,1.967h2.291L63.024,3.238z"/>
	<path fill="#FFFFFF" d="M66.267,8.899h-0.9l0.78-3.682c0.228-1.055,0.324-1.931,0.336-2.734h0.875l-0.06,1.223
		c0.647-0.755,1.319-1.355,2.279-1.355c1.199,0,1.235,1.175,1.031,2.147h-0.899c0.084-0.48,0.348-1.392-0.336-1.392
		c-0.66,0-2.099,0.983-2.542,3.119L66.267,8.899z"/>
	<path fill="#FFFFFF" d="M73.263,5.924c-0.336,1.763,0.336,2.351,1.319,2.351c0.708,0,1.487-0.324,2.146-0.684l0.216,0.803
		c-0.875,0.36-1.703,0.636-2.591,0.636c-1.895,0-2.303-1.631-1.955-3.298c0.36-1.679,1.5-3.382,3.418-3.382
		c2.135,0,1.943,2.387,1.811,3.082l-0.096,0.492H73.263z M76.789,5.169c0.192-1.055-0.192-2.063-1.199-2.063
		s-1.667,0.768-2.183,2.063H76.789z"/>
	<path fill="#FFFFFF" d="M80.462,5.924c-0.336,1.763,0.336,2.351,1.319,2.351c0.708,0,1.487-0.324,2.147-0.684l0.216,0.803
		c-0.875,0.36-1.703,0.636-2.591,0.636c-1.895,0-2.303-1.631-1.955-3.298c0.36-1.679,1.5-3.382,3.418-3.382
		c2.135,0,1.943,2.387,1.811,3.082l-0.096,0.492H80.462z M83.988,5.169c0.192-1.055-0.192-2.063-1.199-2.063
		s-1.667,0.768-2.183,2.063H83.988z"/>
	<path fill="#FFFFFF" d="M91.824,3.238h-2.291l-0.78,3.658c-0.132,0.624-0.276,1.379,0.54,1.379c0.684,0,1.224-0.564,1.595-1.127
		l0.815,0.216c-0.624,0.923-1.511,1.667-2.59,1.667c-1.043,0-1.595-0.503-1.188-2.422l0.708-3.371h-1.379l0.168-0.755h1.379
		l0.42-1.967h0.899l-0.419,1.967h2.291L91.824,3.238z"/>
	<path fill="#FFFFFF" d="M101.27,2.482h1.007l-0.3,4.81h0.024l1.619-3.238h0.875l0.228,3.238h0.024l1.763-4.81h1.007l-2.507,6.5
		h-0.959l-0.312-3.478l-1.763,3.478h-0.959L101.27,2.482z"/>
	<path fill="#FFFFFF" d="M112.249,4.317c0.156-0.708-0.168-1.211-0.839-1.211c-0.564,0-1.151,0.264-1.715,0.48l-0.036-0.792
		c0.659-0.24,1.271-0.444,1.943-0.444c1.223,0,1.751,1.007,1.523,2.075l-0.588,2.783c-0.12,0.587-0.167,1.187-0.096,1.739
		l-0.863,0.108l-0.06-0.803c-0.54,0.516-1.08,0.779-1.751,0.779c-1.224,0-1.703-0.959-1.463-2.099
		c0.264-1.235,1.247-2.315,2.542-2.315c0.48,0,0.899,0.144,1.271,0.312L112.249,4.317z M111.961,5.685
		c-0.348-0.168-0.732-0.312-1.164-0.312c-0.912,0-1.439,0.792-1.607,1.607c-0.132,0.6,0.036,1.295,0.731,1.295
		c0.695,0,1.235-0.588,1.727-1.104L111.961,5.685z"/>
	<path fill="#FFFFFF" d="M118.825,0.755h-1.823L117.169,0h2.723l-1.895,8.899h-0.899L118.825,0.755z"/>
	<path fill="#FFFFFF" d="M128.579,2.482c-1.631,1.523-2.099,2.015-3.214,2.938l2.411,3.478h-1.188l-1.895-2.95l-0.492,0.408
		l-0.54,2.542h-0.899L124.657,0h0.899l-1.127,5.289c1.031-0.875,2.099-1.775,3.01-2.807H128.579z"/>
	<path fill="#FFFFFF" d="M134.532,3.826c-0.432-0.36-0.912-0.72-1.559-0.72c-0.54,0-1.127,0.396-1.259,0.972
		c-0.132,0.624,0.552,0.936,1.007,1.115c0.923,0.372,1.895,0.792,1.619,2.063c-0.228,1.055-1.331,1.775-2.327,1.775
		c-0.972,0-1.835-0.479-2.411-1.115l0.647-0.72c0.396,0.54,1.104,1.08,1.859,1.08c0.6,0,1.188-0.336,1.319-0.983
		c0.18-0.84-0.444-1.067-1.043-1.319c-0.839-0.348-1.799-0.78-1.559-1.931c0.204-0.936,1.224-1.691,2.339-1.691
		c0.804,0,1.379,0.288,1.919,0.744L134.532,3.826z"/>
	<path fill="#FFFFFF" d="M147.924,9.031l-0.048-0.72c-0.636,0.48-0.972,0.72-1.715,0.72c-1.127,0-2.387-0.863-1.847-3.382
		c0.516-2.447,2.255-3.298,3.298-3.298c0.54,0,0.888,0.132,1.271,0.372L149.471,0h0.9l-1.403,6.608
		c-0.168,0.792-0.264,1.583-0.168,2.314L147.924,9.031z M148.691,3.634c-0.288-0.288-0.636-0.528-1.091-0.528
		c-0.959,0-2.027,0.804-2.399,2.579c-0.444,2.087,0.54,2.591,1.14,2.591c0.695,0,1.235-0.516,1.607-1.104L148.691,3.634z"/>
	<path fill="#FFFFFF" d="M151.706,5.697c0.527-2.483,2.027-3.346,3.25-3.346c2.267,0,2.063,2.303,1.847,3.346
		c-0.528,2.482-2.027,3.334-3.262,3.334C152.425,9.031,151.154,8.287,151.706,5.697z M155.903,5.697
		c0.228-1.104,0.3-2.591-1.103-2.591c-1.403,0-1.967,1.487-2.195,2.591c-0.24,1.104-0.312,2.579,1.091,2.579
		S155.664,6.8,155.903,5.697z"/>
	<path fill="#FFFFFF" d="M158.87,2.482h1.007l-0.3,4.81h0.024l1.619-3.238h0.875l0.228,3.238h0.024l1.763-4.81h1.007l-2.507,6.5
		h-0.959l-0.312-3.478l-1.763,3.478h-0.959L158.87,2.482z"/>
	<path fill="#FFFFFF" d="M166.514,8.899h-0.9l0.684-3.226c0.228-1.08,0.419-2.171,0.396-3.19h0.864l-0.048,1.175
		c0.612-0.755,1.559-1.307,2.459-1.307c1.019,0,1.343,0.936,1.115,2.027l-0.959,4.521h-0.899l0.899-4.258
		c0.132-0.611,0.336-1.535-0.456-1.535c-0.852,0-2.111,0.864-2.591,3.119L166.514,8.899z"/>
	<path fill="#FFFFFF" d="M184.247,4.317c0.156-0.708-0.168-1.211-0.839-1.211c-0.564,0-1.151,0.264-1.715,0.48l-0.036-0.792
		c0.66-0.24,1.271-0.444,1.943-0.444c1.223,0,1.751,1.007,1.523,2.075l-0.587,2.783c-0.12,0.587-0.168,1.187-0.096,1.739
		l-0.864,0.108l-0.06-0.803c-0.54,0.516-1.08,0.779-1.751,0.779c-1.224,0-1.703-0.959-1.463-2.099
		c0.264-1.235,1.247-2.315,2.542-2.315c0.48,0,0.899,0.144,1.271,0.312L184.247,4.317z M183.959,5.685
		c-0.348-0.168-0.731-0.312-1.163-0.312c-0.912,0-1.439,0.792-1.607,1.607c-0.132,0.6,0.036,1.295,0.731,1.295
		s1.235-0.588,1.727-1.104L183.959,5.685z"/>
	<path fill="#FFFFFF" d="M199.331,3.826c-0.432-0.36-0.912-0.72-1.559-0.72c-0.54,0-1.127,0.396-1.259,0.972
		c-0.132,0.624,0.552,0.936,1.007,1.115c0.923,0.372,1.895,0.792,1.619,2.063c-0.228,1.055-1.331,1.775-2.327,1.775
		c-0.972,0-1.835-0.479-2.411-1.115l0.647-0.72c0.396,0.54,1.104,1.08,1.859,1.08c0.6,0,1.188-0.336,1.319-0.983
		c0.18-0.84-0.444-1.067-1.043-1.319c-0.839-0.348-1.799-0.78-1.559-1.931c0.204-0.936,1.224-1.691,2.339-1.691
		c0.804,0,1.379,0.288,1.919,0.744L199.331,3.826z"/>
	<path fill="#FFFFFF" d="M202.861,5.924c-0.336,1.763,0.336,2.351,1.319,2.351c0.708,0,1.487-0.324,2.147-0.684l0.216,0.803
		c-0.875,0.36-1.703,0.636-2.591,0.636c-1.895,0-2.303-1.631-1.955-3.298c0.36-1.679,1.5-3.382,3.418-3.382
		c2.135,0,1.943,2.387,1.811,3.082l-0.096,0.492H202.861z M206.387,5.169c0.192-1.055-0.192-2.063-1.199-2.063
		s-1.667,0.768-2.183,2.063H206.387z"/>
	<path fill="#FFFFFF" d="M213.946,7.855c-0.792,0.696-1.535,1.175-2.53,1.175c-1.188,0-2.615-0.731-2.075-3.274
		c0.54-2.567,2.171-3.406,3.454-3.406c1.056,0,1.679,0.576,2.063,1.427l-0.888,0.516c-0.192-0.647-0.54-1.188-1.331-1.188
		c-0.912,0-1.979,0.672-2.387,2.567c-0.42,2.003,0.479,2.603,1.307,2.603c0.708,0,1.379-0.54,1.919-1.056L213.946,7.855z"/>
	<path fill="#FFFFFF" d="M221.026,2.482h0.899l-0.66,3.106c-0.24,1.115-0.456,2.219-0.432,3.31h-0.852l0.06-1.235
		c-0.576,0.708-1.571,1.367-2.398,1.367c-1.139,0-1.415-0.971-1.175-2.087l0.947-4.461h0.899l-0.899,4.198
		c-0.132,0.6-0.336,1.595,0.456,1.595c0.887,0,2.123-0.996,2.59-3.167L221.026,2.482z"/>
	<path fill="#FFFFFF" d="M224.664,8.899h-0.899l0.78-3.682c0.228-1.055,0.324-1.931,0.336-2.734h0.875l-0.06,1.223
		c0.647-0.755,1.319-1.355,2.279-1.355c1.199,0,1.235,1.175,1.031,2.147h-0.899c0.084-0.48,0.348-1.392-0.336-1.392
		c-0.66,0-2.099,0.983-2.542,3.119L224.664,8.899z"/>
	<path fill="#FFFFFF" d="M231.66,5.924c-0.336,1.763,0.336,2.351,1.319,2.351c0.708,0,1.487-0.324,2.146-0.684l0.216,0.803
		c-0.875,0.36-1.703,0.636-2.591,0.636c-1.895,0-2.303-1.631-1.955-3.298c0.36-1.679,1.5-3.382,3.418-3.382
		c2.135,0,1.943,2.387,1.811,3.082l-0.096,0.492H231.66z M235.186,5.169c0.192-1.055-0.192-2.063-1.199-2.063
		s-1.667,0.768-2.183,2.063H235.186z"/>
	<path fill="#FFFFFF" d="M55.548,25.855c-0.792,0.696-1.535,1.175-2.531,1.175c-1.187,0-2.614-0.731-2.075-3.274
		c0.54-2.567,2.171-3.406,3.454-3.406c1.056,0,1.679,0.576,2.063,1.427l-0.888,0.516c-0.192-0.647-0.54-1.188-1.331-1.188
		c-0.912,0-1.979,0.672-2.387,2.567c-0.42,2.003,0.479,2.603,1.307,2.603c0.708,0,1.379-0.54,1.919-1.056L55.548,25.855z"/>
	<path fill="#FFFFFF" d="M58.106,23.697c0.528-2.483,2.027-3.346,3.25-3.346c2.267,0,2.063,2.303,1.847,3.346
		c-0.528,2.482-2.027,3.334-3.262,3.334C58.826,27.031,57.555,26.287,58.106,23.697z M62.304,23.697
		c0.228-1.104,0.3-2.591-1.103-2.591c-1.403,0-1.967,1.487-2.195,2.591c-0.24,1.104-0.312,2.579,1.091,2.579
		S62.064,24.8,62.304,23.697z"/>
	<path fill="#FFFFFF" d="M66.267,26.899h-0.9l0.78-3.682c0.228-1.055,0.324-1.931,0.336-2.734h0.875l-0.06,1.223
		c0.647-0.755,1.319-1.355,2.279-1.355c1.199,0,1.235,1.175,1.031,2.147h-0.899c0.084-0.48,0.348-1.392-0.336-1.392
		c-0.66,0-2.099,0.983-2.542,3.119L66.267,26.899z"/>
	<path fill="#FFFFFF" d="M73.466,26.899h-0.899l0.78-3.682c0.228-1.055,0.324-1.931,0.336-2.734h0.875l-0.06,1.223
		c0.647-0.755,1.319-1.355,2.279-1.355c1.199,0,1.235,1.175,1.031,2.147h-0.899c0.084-0.48,0.348-1.392-0.336-1.392
		c-0.66,0-2.099,0.983-2.542,3.119L73.466,26.899z"/>
	<path fill="#FFFFFF" d="M82.394,21.238H80.57l0.168-0.755h2.723l-1.368,6.417h-0.899L82.394,21.238z M84.084,18.852
		c-0.096,0.432-0.504,0.755-0.923,0.755c-0.42,0-0.684-0.324-0.588-0.755c0.084-0.432,0.492-0.756,0.912-0.756
		C83.904,18.096,84.168,18.419,84.084,18.852z"/>
	<path fill="#FFFFFF" d="M90.325,27.031l-0.048-0.72c-0.636,0.48-0.972,0.72-1.715,0.72c-1.127,0-2.387-0.863-1.847-3.382
		c0.516-2.447,2.254-3.298,3.298-3.298c0.54,0,0.888,0.132,1.271,0.372L91.872,18h0.9l-1.403,6.608
		C91.2,25.4,91.104,26.191,91.2,26.923L90.325,27.031z M91.092,21.634c-0.288-0.288-0.636-0.528-1.091-0.528
		c-0.959,0-2.027,0.804-2.399,2.579c-0.444,2.087,0.54,2.591,1.14,2.591c0.695,0,1.235-0.516,1.607-1.104L91.092,21.634z"/>
	<path fill="#FFFFFF" d="M94.106,23.697c0.527-2.483,2.027-3.346,3.25-3.346c2.267,0,2.063,2.303,1.847,3.346
		c-0.528,2.482-2.027,3.334-3.262,3.334C94.826,27.031,93.555,26.287,94.106,23.697z M98.304,23.697
		c0.228-1.104,0.3-2.591-1.103-2.591c-1.403,0-1.967,1.487-2.195,2.591c-0.24,1.104-0.312,2.579,1.091,2.579
		S98.064,24.8,98.304,23.697z"/>
	<path fill="#FFFFFF" d="M102.266,26.899h-0.899l0.78-3.682c0.228-1.055,0.324-1.931,0.336-2.734h0.875l-0.06,1.223
		c0.647-0.755,1.319-1.355,2.279-1.355c1.199,0,1.235,1.175,1.031,2.147h-0.899c0.084-0.48,0.348-1.392-0.336-1.392
		c-0.66,0-2.099,0.983-2.542,3.119L102.266,26.899z"/>
	<path fill="#FFFFFF" d="M115.706,23.697c0.527-2.483,2.027-3.346,3.25-3.346c2.267,0,2.063,2.303,1.847,3.346
		c-0.528,2.482-2.027,3.334-3.262,3.334C116.425,27.031,115.154,26.287,115.706,23.697z M119.903,23.697
		c0.228-1.104,0.3-2.591-1.103-2.591c-1.403,0-1.967,1.487-2.195,2.591c-0.24,1.104-0.312,2.579,1.091,2.579
		S119.664,24.8,119.903,23.697z"/>
	<path fill="#FFFFFF" d="M129.082,19.451c-0.456-0.216-0.947-0.6-1.499-0.6c-0.792,0-1.248,0.492-1.427,1.319L126,20.89h2.062
		l-0.156,0.756h-2.063l-1.115,5.253h-0.899l1.115-5.253h-1.595l0.156-0.756h1.595l0.132-0.611c0.324-1.523,1.499-2.183,2.446-2.183
		c0.588,0,1.116,0.204,1.595,0.444L129.082,19.451z"/>
	<path fill="#FFFFFF" d="M141.047,22.317c0.156-0.708-0.168-1.211-0.839-1.211c-0.564,0-1.151,0.264-1.715,0.48l-0.036-0.792
		c0.659-0.24,1.271-0.444,1.943-0.444c1.223,0,1.751,1.007,1.523,2.075l-0.588,2.783c-0.12,0.587-0.167,1.187-0.096,1.739
		l-0.863,0.108l-0.06-0.803c-0.54,0.516-1.08,0.779-1.751,0.779c-1.224,0-1.703-0.959-1.463-2.099
		c0.264-1.235,1.247-2.315,2.542-2.315c0.48,0,0.899,0.144,1.271,0.312L141.047,22.317z M140.76,23.685
		c-0.348-0.168-0.732-0.312-1.164-0.312c-0.912,0-1.439,0.792-1.607,1.607c-0.132,0.6,0.036,1.295,0.731,1.295
		c0.695,0,1.235-0.588,1.727-1.104L140.76,23.685z"/>
	<path fill="#FFFFFF" d="M157.126,18.264h0.887l-1.835,8.635h-0.899l1.391-6.572h-0.024l-2.674,4.233l-0.864-4.233l-0.024,0.024
		l-1.391,6.548h-0.899l1.835-8.635h0.875l0.899,4.306L157.126,18.264z"/>
	<path fill="#FFFFFF" d="M161.592,21.238h-1.823l0.168-0.755h2.723l-1.368,6.417h-0.899L161.592,21.238z M163.283,18.852
		c-0.096,0.432-0.504,0.755-0.924,0.755c-0.419,0-0.684-0.324-0.587-0.755c0.084-0.432,0.492-0.756,0.912-0.756
		C163.103,18.096,163.367,18.419,163.283,18.852z"/>
	<path fill="#FFFFFF" d="M169.847,22.317c0.156-0.708-0.168-1.211-0.839-1.211c-0.564,0-1.151,0.264-1.715,0.48l-0.036-0.792
		c0.659-0.24,1.271-0.444,1.943-0.444c1.223,0,1.751,1.007,1.523,2.075l-0.588,2.783c-0.12,0.587-0.167,1.187-0.096,1.739
		l-0.863,0.108l-0.06-0.803c-0.54,0.516-1.08,0.779-1.751,0.779c-1.224,0-1.703-0.959-1.463-2.099
		c0.264-1.235,1.247-2.315,2.542-2.315c0.48,0,0.899,0.144,1.271,0.312L169.847,22.317z M169.56,23.685
		c-0.348-0.168-0.732-0.312-1.164-0.312c-0.912,0-1.439,0.792-1.607,1.607c-0.132,0.6,0.036,1.295,0.731,1.295
		c0.695,0,1.235-0.588,1.727-1.104L169.56,23.685z"/>
	<path fill="#FFFFFF" d="M173.233,22.473c0.18-0.875,0.192-1.451,0.192-2.123h0.899l0.012,0.576
		c0.456-0.336,0.839-0.576,1.379-0.576c0.587,0,0.719,0.144,0.971,0.587c0.444-0.335,0.828-0.6,1.355-0.6
		c0.863,0,1.295,0.564,1.115,1.427l-1.091,5.133h-0.899l1.091-5.133c0.096-0.432-0.084-0.671-0.444-0.671
		c-0.408,0-0.828,0.336-1.091,0.671l-1.091,5.133h-0.9l1.08-5.061c0.072-0.336,0.06-0.732-0.348-0.732
		c-0.432,0-0.948,0.384-1.199,0.78l-1.068,5.013h-0.899L173.233,22.473z"/>
	<path fill="#FFFFFF" d="M183.191,21.238h-1.823l0.168-0.755h2.723l-1.368,6.417h-0.899L183.191,21.238z M184.883,18.852
		c-0.096,0.432-0.504,0.755-0.924,0.755c-0.419,0-0.684-0.324-0.587-0.755c0.084-0.432,0.492-0.756,0.912-0.756
		C184.703,18.096,184.967,18.419,184.883,18.852z"/>
	<path fill="#FFFFFF" d="M196.392,18h0.899l-0.731,3.406c0.588-0.611,1.367-1.055,2.159-1.055c0.768,0,1.595,0.24,1.043,2.866
		l-0.779,3.682h-0.899l0.803-3.754c0.12-0.588,0.432-2.039-0.384-2.039c-0.671,0-1.403,0.6-1.799,1.164
		c-0.504,0.72-0.636,1.439-0.804,2.243l-0.503,2.387h-0.9L196.392,18z"/>
	<path fill="#FFFFFF" d="M202.104,23.697c0.528-2.483,2.027-3.346,3.25-3.346c2.267,0,2.063,2.303,1.847,3.346
		c-0.528,2.482-2.027,3.334-3.262,3.334C202.824,27.031,201.553,26.287,202.104,23.697z M206.302,23.697
		c0.228-1.104,0.3-2.591-1.103-2.591c-1.403,0-1.967,1.487-2.195,2.591c-0.24,1.104-0.312,2.579,1.091,2.579
		S206.062,24.8,206.302,23.697z"/>
	<path fill="#FFFFFF" d="M214.222,21.238h-2.291l-0.78,3.658c-0.132,0.624-0.276,1.379,0.54,1.379c0.684,0,1.224-0.564,1.595-1.127
		l0.815,0.216c-0.624,0.923-1.511,1.667-2.59,1.667c-1.043,0-1.595-0.503-1.188-2.422l0.708-3.371h-1.379l0.168-0.755h1.379
		l0.42-1.967h0.899l-0.419,1.967h2.291L214.222,21.238z"/>
	<path fill="#FFFFFF" d="M217.26,23.924c-0.336,1.763,0.336,2.351,1.319,2.351c0.708,0,1.487-0.324,2.147-0.684l0.216,0.803
		c-0.875,0.36-1.703,0.636-2.591,0.636c-1.895,0-2.303-1.631-1.955-3.298c0.36-1.679,1.5-3.382,3.418-3.382
		c2.135,0,1.943,2.387,1.811,3.082l-0.096,0.492H217.26z M220.786,23.169c0.192-1.055-0.192-2.063-1.199-2.063
		s-1.667,0.768-2.183,2.063H220.786z"/>
	<path fill="#FFFFFF" d="M226.823,18.755h-1.823L225.167,18h2.723l-1.895,8.899h-0.899L226.823,18.755z"/>
	<path fill="#FFFFFF" d="M233.051,25.208c0.516,0,0.875,0.396,0.768,0.923c-0.12,0.528-0.647,0.936-1.163,0.936
		c-0.528,0-0.888-0.408-0.768-0.936C231.996,25.604,232.535,25.208,233.051,25.208z"/>
</g>
</svg>
