<?xml version="1.0" encoding="utf-8"?>
<!-- Generator: Adobe Illustrator 15.0.0, SVG Export Plug-In . SVG Version: 6.00 Build 0)  -->
<!DOCTYPE svg PUBLIC "-//W3C//DTD SVG 1.1//EN" "http://www.w3.org/Graphics/SVG/1.1/DTD/svg11.dtd">
<svg version="1.1" id="Layer_1" xmlns="http://www.w3.org/2000/svg" xmlns:xlink="http://www.w3.org/1999/xlink" x="0px" y="0px"
	 width="291.438px" height="67.767px" viewBox="17.8 16.204 291.438 67.767" enable-background="new 17.8 16.204 291.438 67.767"
	 xml:space="preserve">
<g>
	<path d="M26.709,16.733h1.992l-3.913,17.449h-2.472l-3.84-17.449h1.968l3.12,14.665h0.048L26.709,16.733z"/>
	<path d="M37.508,22.686H33.86v-1.512h5.449v12.841h-1.8L37.508,22.686L37.508,22.686z M39.86,17.909
		c0,0.864-0.672,1.512-1.512,1.512c-0.84,0-1.512-0.648-1.512-1.512c0-0.864,0.672-1.512,1.512-1.512
		C39.188,16.397,39.86,17.045,39.86,17.909z"/>
	<path d="M55.821,34.279l-0.384-1.44c-1.08,0.96-1.656,1.44-3.144,1.44c-2.256,0-5.137-1.729-5.137-6.769
		c0-4.896,3.12-6.601,5.208-6.601c1.08,0,1.824,0.264,2.712,0.744v-5.449h1.8V29.43c0,1.584,0.144,3.168,0.648,4.632L55.821,34.279z
		 M55.077,23.478c-0.696-0.576-1.512-1.056-2.424-1.056c-1.92,0-3.696,1.608-3.696,5.16c0,4.176,2.184,5.185,3.384,5.185
		c1.392,0,2.256-1.032,2.736-2.208V23.478z"/>
	<path d="M63.571,28.062c0.096,3.528,1.68,4.705,3.648,4.705c1.416,0,2.833-0.648,4.008-1.368l0.768,1.608
		c-1.608,0.72-3.144,1.272-4.92,1.272c-3.792,0-5.304-3.265-5.304-6.601c0-3.36,1.56-6.769,5.4-6.769
		c4.272,0,4.944,4.776,4.944,6.168v0.984L63.571,28.062L63.571,28.062z M70.316,26.55c-0.072-2.112-1.272-4.128-3.288-4.128
		c-2.016,0-3,1.536-3.48,4.128H70.316z"/>
	<path d="M76.195,27.606c0-4.968,2.64-6.696,5.088-6.696c4.536,0,5.112,4.608,5.112,6.696c0,4.969-2.64,6.673-5.112,6.673
		C79.051,34.279,76.195,32.791,76.195,27.606z M84.596,27.606c0-2.208-0.504-5.184-3.312-5.184c-2.808,0-3.289,2.976-3.289,5.184
		s0.48,5.161,3.289,5.161C84.093,32.767,84.596,29.814,84.596,27.606z"/>
	<path d="M21.461,49.38h2.495l-1.175,5.554c-0.228,1.066-0.671,3.25-3.142,3.25c-1.403,0-2.135-0.793-1.727-2.662l0.264-1.213h0.9
		l-0.336,1.547c-0.216,0.996,0.144,1.571,1.031,1.571c1.031,0,1.703-0.588,1.967-1.823l1.164-5.469h-1.595L21.461,49.38z"/>
	<path d="M29.249,53.434c0.156-0.707-0.168-1.211-0.839-1.211c-0.564,0-1.151,0.264-1.715,0.48l-0.036-0.792
		c0.66-0.24,1.271-0.443,1.943-0.443c1.223,0,1.751,1.008,1.523,2.074l-0.587,2.782c-0.12,0.588-0.168,1.188-0.096,1.739
		l-0.864,0.107l-0.06-0.804c-0.54,0.516-1.08,0.778-1.751,0.778c-1.224,0-1.703-0.959-1.463-2.099
		c0.264-1.235,1.247-2.313,2.542-2.313c0.48,0,0.899,0.144,1.271,0.312L29.249,53.434z M28.96,54.801
		c-0.348-0.168-0.731-0.312-1.163-0.312c-0.912,0-1.439,0.792-1.607,1.606c-0.132,0.6,0.036,1.295,0.731,1.295
		c0.695,0,1.235-0.586,1.727-1.103v-0.024L28.96,54.801z"/>
	<path d="M38.547,51.599l-3.658,6.021c-0.564,0.923-1.439,2.351-2.615,2.351c-0.828,0-1.259-0.636-1.331-1.392l0.839-0.396
		c0.06,0.383,0.18,1.03,0.66,1.03c0.504,0,0.948-0.694,1.199-1.079l0.624-0.972l-0.875-5.564h0.971l0.624,4.365l2.603-4.365H38.547z
		"/>
	<path d="M44.332,52.941c-0.432-0.359-0.912-0.72-1.559-0.72c-0.54,0-1.127,0.396-1.259,0.972c-0.132,0.623,0.552,0.936,1.007,1.115
		c0.923,0.371,1.895,0.791,1.619,2.062c-0.228,1.056-1.331,1.774-2.327,1.774c-0.972,0-1.835-0.479-2.411-1.115l0.647-0.719
		c0.396,0.539,1.104,1.078,1.859,1.078c0.6,0,1.188-0.334,1.319-0.982c0.18-0.84-0.444-1.067-1.043-1.319
		c-0.839-0.348-1.799-0.778-1.559-1.931c0.204-0.936,1.224-1.69,2.339-1.69c0.804,0,1.379,0.287,1.919,0.743L44.332,52.941z"/>
	<path d="M47.107,54.812c0.527-2.482,2.027-3.347,3.25-3.347c2.267,0,2.063,2.302,1.847,3.347c-0.528,2.481-2.027,3.334-3.262,3.334
		C47.826,58.146,46.555,57.402,47.107,54.812z M51.304,54.812c0.228-1.104,0.3-2.591-1.103-2.591c-1.403,0-1.967,1.487-2.195,2.591
		c-0.24,1.104-0.312,2.578,1.091,2.578C50.5,57.391,51.064,55.916,51.304,54.812z"/>
	<path d="M54.714,58.016h-0.9l0.684-3.228c0.228-1.079,0.419-2.17,0.396-3.189h0.864l-0.048,1.174
		c0.612-0.754,1.559-1.307,2.459-1.307c1.019,0,1.343,0.936,1.115,2.026l-0.959,4.521h-0.899l0.899-4.258
		c0.132-0.611,0.336-1.535-0.456-1.535c-0.852,0-2.111,0.863-2.591,3.118L54.714,58.016z"/>
	<path d="M73.863,50.938c-0.419-0.468-0.911-0.971-1.655-0.971c-0.768,0-1.511,0.527-1.679,1.318
		c-0.096,0.456-0.096,0.864,0.912,1.57l0.6,0.42c1.391,0.973,1.715,1.428,1.499,2.436c-0.336,1.547-1.559,2.471-3.07,2.471
		c-1.115,0-1.823-0.539-2.314-1.402l0.815-0.553c0.276,0.672,0.828,1.199,1.655,1.199c0.899,0,1.787-0.672,1.991-1.595
		c0.144-0.696,0.132-0.924-1.188-1.847l-0.671-0.469c-0.732-0.516-1.367-1.092-1.14-2.17c0.288-1.355,1.487-2.135,2.783-2.135
		c0.899,0,1.631,0.479,2.146,1.079L73.863,50.938z"/>
	<path d="M80.823,52.354h-2.291l-0.78,3.658c-0.132,0.624-0.276,1.379,0.54,1.379c0.684,0,1.224-0.562,1.595-1.127l0.816,0.217
		c-0.624,0.924-1.511,1.666-2.591,1.666c-1.043,0-1.595-0.504-1.188-2.422l0.708-3.371h-1.379l0.168-0.754H77.8l0.42-1.967h0.899
		L78.7,51.599h2.291L80.823,52.354z"/>
	<path d="M84.065,58.016h-0.899l0.78-3.683c0.228-1.056,0.324-1.931,0.336-2.734h0.875l-0.06,1.223
		c0.647-0.755,1.319-1.354,2.279-1.354c1.199,0,1.235,1.175,1.031,2.146h-0.899c0.084-0.479,0.348-1.392-0.336-1.392
		c-0.66,0-2.099,0.983-2.542,3.118L84.065,58.016z"/>
	<path d="M91.062,55.04c-0.336,1.765,0.336,2.351,1.319,2.351c0.708,0,1.487-0.322,2.147-0.684l0.216,0.804
		c-0.875,0.36-1.703,0.636-2.591,0.636c-1.895,0-2.303-1.631-1.955-3.297c0.36-1.681,1.5-3.383,3.418-3.383
		c2.135,0,1.943,2.387,1.811,3.082l-0.096,0.491H91.062z M94.587,54.285c0.192-1.057-0.192-2.063-1.199-2.063
		c-1.007,0-1.667,0.768-2.183,2.063H94.587z"/>
	<path d="M98.261,55.04c-0.336,1.765,0.336,2.351,1.319,2.351c0.708,0,1.487-0.322,2.146-0.684l0.216,0.804
		c-0.875,0.36-1.703,0.636-2.591,0.636c-1.895,0-2.303-1.631-1.955-3.297c0.36-1.681,1.5-3.383,3.418-3.383
		c2.135,0,1.943,2.387,1.811,3.082l-0.096,0.491H98.261z M101.787,54.285c0.192-1.057-0.192-2.063-1.199-2.063
		c-1.007,0-1.667,0.768-2.183,2.063H101.787z"/>
	<path d="M109.623,52.354h-2.291l-0.78,3.658c-0.132,0.624-0.276,1.379,0.54,1.379c0.684,0,1.224-0.562,1.595-1.127l0.815,0.217
		c-0.624,0.924-1.511,1.666-2.59,1.666c-1.043,0-1.595-0.504-1.188-2.422l0.708-3.371h-1.379l0.168-0.754h1.379l0.42-1.967h0.899
		l-0.419,1.967h2.291L109.623,52.354z"/>
	<path d="M122.523,58.146l-0.048-0.721c-0.636,0.479-0.972,0.721-1.715,0.721c-1.127,0-2.387-0.863-1.847-3.383
		c0.516-2.445,2.254-3.298,3.298-3.298c0.54,0,0.888,0.132,1.271,0.371l0.587-2.722h0.9l-1.403,6.607
		c-0.168,0.791-0.264,1.582-0.168,2.314L122.523,58.146z M123.291,52.75c-0.288-0.288-0.636-0.528-1.091-0.528
		c-0.959,0-2.027,0.803-2.399,2.579c-0.444,2.088,0.54,2.59,1.14,2.59c0.695,0,1.235-0.516,1.607-1.103L123.291,52.75z"/>
	<path d="M127.061,55.04c-0.336,1.765,0.336,2.351,1.319,2.351c0.708,0,1.487-0.322,2.146-0.684l0.216,0.804
		c-0.875,0.36-1.703,0.636-2.591,0.636c-1.895,0-2.303-1.631-1.955-3.297c0.36-1.681,1.5-3.383,3.418-3.383
		c2.135,0,1.943,2.387,1.811,3.082l-0.096,0.491H127.061z M130.587,54.285c0.192-1.057-0.192-2.063-1.199-2.063
		c-1.007,0-1.667,0.768-2.183,2.063H130.587z"/>
	<path d="M133.433,53.589c0.18-0.875,0.192-1.451,0.192-2.122h0.899l0.012,0.575c0.456-0.336,0.839-0.575,1.379-0.575
		c0.587,0,0.719,0.144,0.971,0.587c0.444-0.335,0.828-0.6,1.355-0.6c0.863,0,1.295,0.564,1.115,1.428l-1.091,5.134h-0.899
		l1.091-5.134c0.096-0.432-0.084-0.672-0.444-0.672c-0.408,0-0.828,0.336-1.091,0.672l-1.091,5.134h-0.9l1.08-5.062
		c0.072-0.336,0.06-0.732-0.348-0.732c-0.432,0-0.948,0.383-1.2,0.78l-1.067,5.014h-0.899L133.433,53.589z"/>
	<path d="M140.705,54.812c0.528-2.482,2.027-3.347,3.25-3.347c2.267,0,2.063,2.302,1.847,3.347
		c-0.528,2.481-2.027,3.334-3.262,3.334C141.424,58.146,140.153,57.402,140.705,54.812z M144.902,54.812
		c0.228-1.104,0.3-2.591-1.103-2.591c-1.403,0-1.967,1.487-2.195,2.591c-0.24,1.104-0.312,2.578,1.091,2.578
		C144.098,57.391,144.663,55.916,144.902,54.812z"/>
	<path d="M148.312,58.016h-0.899l0.684-3.228c0.229-1.079,0.42-2.17,0.396-3.189h0.863l-0.048,1.174
		c0.611-0.754,1.559-1.307,2.458-1.307c1.02,0,1.344,0.936,1.115,2.026l-0.959,4.521h-0.899l0.899-4.258
		c0.132-0.611,0.336-1.535-0.456-1.535c-0.852,0-2.11,0.863-2.59,3.118L148.312,58.016z"/>
	<path d="M159.531,52.941c-0.433-0.359-0.912-0.72-1.56-0.72c-0.54,0-1.127,0.396-1.26,0.972c-0.132,0.623,0.552,0.936,1.008,1.115
		c0.924,0.371,1.896,0.791,1.619,2.062c-0.228,1.056-1.331,1.774-2.327,1.774c-0.971,0-1.835-0.479-2.41-1.115l0.647-0.719
		c0.396,0.539,1.104,1.078,1.859,1.078c0.6,0,1.188-0.334,1.319-0.982c0.18-0.84-0.444-1.067-1.044-1.319
		c-0.839-0.348-1.799-0.778-1.559-1.931c0.203-0.936,1.223-1.69,2.338-1.69c0.804,0,1.38,0.287,1.919,0.743L159.531,52.941z"/>
	<path d="M167.223,52.354h-2.292l-0.779,3.658c-0.132,0.624-0.275,1.379,0.54,1.379c0.684,0,1.223-0.562,1.595-1.127l0.814,0.217
		c-0.623,0.924-1.511,1.666-2.591,1.666c-1.043,0-1.595-0.504-1.187-2.422l0.707-3.371h-1.379l0.168-0.754h1.379l0.42-1.967h0.898
		l-0.419,1.967h2.292L167.223,52.354z"/>
	<path d="M170.464,58.016h-0.899l0.779-3.683c0.229-1.056,0.324-1.931,0.336-2.734h0.877l-0.062,1.223
		c0.647-0.755,1.319-1.354,2.278-1.354c1.199,0,1.235,1.175,1.031,2.146h-0.898c0.084-0.479,0.348-1.392-0.336-1.392
		c-0.659,0-2.1,0.983-2.543,3.118L170.464,58.016z"/>
	<path d="M180.447,53.434c0.154-0.707-0.168-1.211-0.84-1.211c-0.563,0-1.151,0.264-1.715,0.48l-0.037-0.792
		c0.66-0.24,1.271-0.443,1.942-0.443c1.224,0,1.751,1.008,1.522,2.074l-0.588,2.782c-0.119,0.588-0.168,1.188-0.096,1.739
		l-0.863,0.107l-0.061-0.804c-0.539,0.516-1.079,0.778-1.751,0.778c-1.224,0-1.703-0.959-1.463-2.099
		c0.265-1.235,1.247-2.313,2.543-2.313c0.479,0,0.899,0.144,1.271,0.312L180.447,53.434z M180.159,54.801
		c-0.349-0.168-0.731-0.312-1.164-0.312c-0.911,0-1.438,0.792-1.606,1.606c-0.132,0.6,0.036,1.295,0.731,1.295
		c0.694,0,1.235-0.586,1.728-1.103v-0.024L180.159,54.801z"/>
	<path d="M188.822,52.354h-2.291l-0.779,3.658c-0.132,0.624-0.275,1.379,0.54,1.379c0.685,0,1.224-0.562,1.595-1.127l0.815,0.217
		c-0.623,0.924-1.511,1.666-2.591,1.666c-1.043,0-1.596-0.504-1.188-2.422l0.707-3.371h-1.379l0.168-0.754h1.379l0.42-1.967h0.899
		l-0.42,1.967h2.29L188.822,52.354z"/>
	<path d="M191.859,55.04c-0.336,1.765,0.336,2.351,1.318,2.351c0.708,0,1.487-0.322,2.147-0.684l0.216,0.804
		c-0.876,0.36-1.703,0.636-2.591,0.636c-1.896,0-2.304-1.631-1.955-3.297c0.36-1.681,1.499-3.383,3.418-3.383
		c2.135,0,1.942,2.387,1.812,3.082l-0.096,0.491H191.859z M195.387,54.285c0.191-1.057-0.191-2.063-1.199-2.063
		s-1.668,0.768-2.184,2.063H195.387z"/>
	<path d="M202.73,52.941c-0.434-0.359-0.912-0.72-1.561-0.72c-0.54,0-1.127,0.396-1.26,0.972c-0.133,0.623,0.552,0.936,1.008,1.115
		c0.924,0.371,1.896,0.791,1.619,2.062c-0.229,1.056-1.331,1.774-2.327,1.774c-0.971,0-1.835-0.479-2.41-1.115l0.647-0.719
		c0.396,0.539,1.104,1.078,1.859,1.078c0.6,0,1.188-0.334,1.318-0.982c0.18-0.84-0.443-1.067-1.044-1.319
		c-0.839-0.348-1.799-0.778-1.56-1.931c0.203-0.936,1.224-1.69,2.338-1.69c0.805,0,1.381,0.287,1.92,0.743L202.73,52.941z"/>
	<path d="M214.191,49.116h0.899l-0.731,3.405c0.588-0.611,1.367-1.056,2.158-1.056c0.769,0,1.596,0.239,1.045,2.866l-0.78,3.682
		h-0.899l0.805-3.754c0.119-0.588,0.432-2.039-0.385-2.039c-0.672,0-1.402,0.599-1.799,1.163c-0.504,0.72-0.636,1.439-0.804,2.243
		l-0.505,2.387h-0.898L214.191,49.116z"/>
	<path d="M219.904,54.812c0.527-2.482,2.025-3.347,3.25-3.347c2.267,0,2.062,2.302,1.847,3.347
		c-0.526,2.481-2.026,3.334-3.262,3.334C220.624,58.146,219.354,57.402,219.904,54.812z M224.102,54.812
		c0.229-1.104,0.301-2.591-1.104-2.591s-1.967,1.487-2.193,2.591c-0.24,1.104-0.312,2.578,1.09,2.578
		C223.298,57.391,223.861,55.916,224.102,54.812z"/>
	<path d="M227.068,51.599h1.008l-0.301,4.809h0.023l1.619-3.238h0.876l0.228,3.238h0.023l1.764-4.809h1.008l-2.506,6.5h-0.961
		l-0.312-3.479l-1.765,3.479h-0.959L227.068,51.599z"/>
	<path d="M246.421,52.354h-2.291l-0.778,3.658c-0.133,0.624-0.275,1.379,0.539,1.379c0.685,0,1.223-0.562,1.596-1.127l0.814,0.217
		c-0.623,0.924-1.511,1.666-2.59,1.666c-1.044,0-1.596-0.504-1.188-2.422l0.707-3.371h-1.379l0.168-0.754h1.379l0.42-1.967h0.898
		l-0.42,1.967h2.291L246.421,52.354z"/>
	<path d="M248.704,54.812c0.526-2.482,2.026-3.347,3.25-3.347c2.267,0,2.062,2.302,1.847,3.347
		c-0.527,2.481-2.025,3.334-3.262,3.334C249.424,58.146,248.152,57.402,248.704,54.812z M252.9,54.812
		c0.229-1.104,0.301-2.591-1.104-2.591s-1.967,1.487-2.193,2.591c-0.24,1.104-0.312,2.578,1.09,2.578
		C252.098,57.391,252.662,55.916,252.9,54.812z"/>
	<path d="M267.625,51.599h0.898l-0.66,3.105c-0.238,1.116-0.454,2.219-0.432,3.312h-0.852l0.061-1.236
		c-0.576,0.709-1.57,1.367-2.398,1.367c-1.139,0-1.415-0.972-1.176-2.086l0.947-4.461h0.899l-0.899,4.197
		c-0.132,0.601-0.336,1.595,0.457,1.595c0.887,0,2.122-0.994,2.59-3.166L267.625,51.599z"/>
	<path d="M274.729,52.941c-0.433-0.359-0.912-0.72-1.56-0.72c-0.54,0-1.127,0.396-1.26,0.972c-0.132,0.623,0.552,0.936,1.008,1.115
		c0.924,0.371,1.896,0.791,1.619,2.062c-0.228,1.056-1.331,1.774-2.327,1.774c-0.971,0-1.835-0.479-2.41-1.115l0.646-0.719
		c0.396,0.539,1.104,1.078,1.859,1.078c0.6,0,1.188-0.334,1.319-0.982c0.181-0.84-0.444-1.067-1.044-1.319
		c-0.84-0.348-1.799-0.778-1.559-1.931c0.203-0.936,1.223-1.69,2.338-1.69c0.804,0,1.38,0.287,1.918,0.743L274.729,52.941z"/>
	<path d="M278.259,55.04c-0.335,1.765,0.337,2.351,1.319,2.351c0.708,0,1.486-0.322,2.146-0.684l0.217,0.804
		c-0.877,0.36-1.703,0.636-2.592,0.636c-1.895,0-2.303-1.631-1.955-3.297c0.36-1.681,1.5-3.383,3.418-3.383
		c2.136,0,1.943,2.387,1.812,3.082l-0.096,0.491H278.259z M281.785,54.285c0.191-1.057-0.191-2.063-1.199-2.063
		s-1.667,0.768-2.184,2.063H281.785z"/>
	<path d="M22.049,77.434c0.156-0.707-0.168-1.211-0.839-1.211c-0.564,0-1.151,0.264-1.715,0.479l-0.036-0.791
		c0.659-0.24,1.271-0.444,1.943-0.444c1.223,0,1.751,1.009,1.523,2.075l-0.588,2.782c-0.12,0.588-0.167,1.188-0.096,1.739
		l-0.863,0.107l-0.06-0.804c-0.54,0.516-1.08,0.778-1.751,0.778c-1.224,0-1.703-0.959-1.463-2.099
		c0.264-1.235,1.247-2.313,2.542-2.313c0.48,0,0.899,0.144,1.271,0.312L22.049,77.434z M21.761,78.801
		c-0.348-0.168-0.732-0.312-1.164-0.312c-0.912,0-1.439,0.792-1.607,1.606c-0.132,0.6,0.036,1.295,0.731,1.295
		c0.695,0,1.235-0.586,1.727-1.103v-0.024L21.761,78.801z"/>
	<path d="M37.348,80.973c-0.792,0.694-1.535,1.174-2.53,1.174c-1.188,0-2.615-0.73-2.075-3.273c0.54-2.566,2.171-3.406,3.454-3.406
		c1.056,0,1.679,0.576,2.063,1.428l-0.888,0.517c-0.192-0.647-0.54-1.188-1.331-1.188c-0.912,0-1.979,0.672-2.387,2.566
		c-0.42,2.003,0.479,2.604,1.307,2.604c0.708,0,1.379-0.539,1.919-1.056L37.348,80.973z"/>
	<path d="M43.648,77.434c0.156-0.707-0.168-1.211-0.839-1.211c-0.564,0-1.151,0.264-1.715,0.479l-0.036-0.791
		c0.659-0.24,1.271-0.444,1.943-0.444c1.223,0,1.751,1.009,1.523,2.075l-0.588,2.782c-0.12,0.588-0.167,1.188-0.096,1.739
		l-0.863,0.107l-0.06-0.804c-0.54,0.516-1.08,0.778-1.751,0.778c-1.224,0-1.703-0.959-1.463-2.099
		c0.264-1.235,1.247-2.313,2.542-2.313c0.48,0,0.899,0.144,1.271,0.312L43.648,77.434z M43.361,78.801
		c-0.348-0.168-0.732-0.312-1.164-0.312c-0.912,0-1.439,0.792-1.607,1.606c-0.132,0.6,0.036,1.295,0.731,1.295
		c0.695,0,1.235-0.586,1.727-1.103v-0.024L43.361,78.801z"/>
	<path d="M48.066,82.016h-0.899l0.78-3.683c0.228-1.056,0.324-1.933,0.336-2.733h0.875l-0.06,1.223
		c0.647-0.756,1.319-1.355,2.279-1.355c1.199,0,1.235,1.176,1.031,2.147h-0.899c0.084-0.479,0.348-1.392-0.336-1.392
		c-0.66,0-2.099,0.982-2.542,3.117L48.066,82.016z"/>
	<path d="M57.725,82.146l-0.048-0.721c-0.636,0.479-0.972,0.721-1.715,0.721c-1.127,0-2.387-0.863-1.847-3.383
		c0.516-2.447,2.254-3.299,3.298-3.299c0.54,0,0.888,0.133,1.271,0.372l0.587-2.723h0.9l-1.403,6.608
		c-0.168,0.791-0.264,1.582-0.168,2.314L57.725,82.146z M58.492,76.75c-0.288-0.288-0.636-0.527-1.091-0.527
		c-0.959,0-2.027,0.803-2.399,2.578c-0.444,2.088,0.54,2.59,1.14,2.59c0.695,0,1.235-0.516,1.607-1.103L58.492,76.75z"/>
	<path d="M63.845,73.115l-0.576,2.711c0.504-0.24,0.912-0.36,1.439-0.36c1.031,0,2.435,0.841,1.919,3.287
		c-0.54,2.519-2.171,3.394-3.298,3.394c-0.744,0-0.983-0.252-1.415-0.73l-0.348,0.72l-0.827-0.108
		c0.419-0.754,0.647-1.57,0.815-2.387l1.391-6.523h0.9V73.115z M62.322,80.264c0.156,0.588,0.419,1.127,1.151,1.127
		c0.587,0,1.799-0.502,2.243-2.603c0.384-1.787-0.348-2.565-1.307-2.565c-0.444,0-0.912,0.229-1.332,0.516L62.322,80.264z"/>
	<path d="M68.707,78.812c0.527-2.482,2.027-3.348,3.25-3.348c2.267,0,2.063,2.303,1.847,3.348c-0.528,2.481-2.027,3.334-3.262,3.334
		C69.426,82.146,68.155,81.402,68.707,78.812z M72.904,78.812c0.228-1.104,0.3-2.592-1.103-2.592c-1.403,0-1.967,1.487-2.195,2.592
		c-0.24,1.104-0.312,2.578,1.091,2.578C72.1,81.391,72.664,79.916,72.904,78.812z"/>
	<path d="M79.648,77.434c0.156-0.707-0.168-1.211-0.839-1.211c-0.564,0-1.151,0.264-1.715,0.479l-0.036-0.791
		c0.66-0.24,1.271-0.444,1.943-0.444c1.223,0,1.751,1.009,1.523,2.075l-0.587,2.782c-0.12,0.588-0.168,1.188-0.096,1.739
		l-0.864,0.107l-0.06-0.804c-0.54,0.516-1.08,0.778-1.751,0.778c-1.224,0-1.703-0.959-1.463-2.099
		c0.264-1.235,1.247-2.313,2.542-2.313c0.48,0,0.899,0.144,1.271,0.312L79.648,77.434z M79.36,78.801
		c-0.348-0.168-0.731-0.312-1.163-0.312c-0.912,0-1.439,0.792-1.607,1.606c-0.132,0.6,0.036,1.295,0.731,1.295
		c0.695,0,1.235-0.586,1.727-1.103v-0.024L79.36,78.801z"/>
	<path d="M84.065,82.016h-0.899l0.78-3.683c0.228-1.056,0.324-1.933,0.336-2.733h0.875l-0.06,1.223
		c0.647-0.756,1.319-1.355,2.279-1.355c1.199,0,1.235,1.176,1.031,2.147h-0.899c0.084-0.479,0.348-1.392-0.336-1.392
		c-0.66,0-2.099,0.982-2.542,3.117L84.065,82.016z"/>
	<path d="M93.724,82.146l-0.048-0.721c-0.636,0.479-0.972,0.721-1.715,0.721c-1.127,0-2.387-0.863-1.847-3.383
		c0.516-2.447,2.255-3.299,3.298-3.299c0.54,0,0.888,0.133,1.271,0.372l0.587-2.723h0.9l-1.403,6.608
		c-0.168,0.791-0.264,1.582-0.168,2.314L93.724,82.146z M94.492,76.75c-0.288-0.288-0.636-0.527-1.091-0.527
		c-0.959,0-2.027,0.803-2.399,2.578c-0.444,2.088,0.54,2.59,1.14,2.59c0.695,0,1.235-0.516,1.607-1.103L94.492,76.75z"/>
	<path d="M107.044,73.115l-0.576,2.711c0.504-0.24,0.912-0.36,1.439-0.36c1.031,0,2.435,0.841,1.919,3.287
		c-0.54,2.519-2.171,3.394-3.298,3.394c-0.744,0-0.983-0.252-1.415-0.73l-0.348,0.72l-0.827-0.108
		c0.419-0.754,0.647-1.57,0.815-2.387l1.391-6.523h0.9V73.115z M105.521,80.264c0.156,0.588,0.419,1.127,1.151,1.127
		c0.587,0,1.799-0.502,2.243-2.603c0.384-1.787-0.348-2.565-1.307-2.565c-0.444,0-0.912,0.229-1.332,0.516L105.521,80.264z"/>
	<path d="M111.906,78.812c0.527-2.482,2.027-3.348,3.25-3.348c2.267,0,2.062,2.303,1.847,3.348
		c-0.528,2.481-2.027,3.334-3.262,3.334C112.625,82.146,111.354,81.402,111.906,78.812z M116.103,78.812
		c0.228-1.104,0.3-2.592-1.103-2.592s-1.967,1.487-2.195,2.592c-0.24,1.104-0.312,2.578,1.091,2.578S115.863,79.916,116.103,78.812z
		"/>
	<path d="M122.104,78.549l1.799,3.467h-1.14l-1.307-2.771l-2.459,2.771h-1.139l3.25-3.431l-1.403-2.985h1.043l1.019,2.254
		l1.943-2.254h1.02L122.104,78.549z"/>
	<path d="M138.422,76.354h-2.291l-0.78,3.658c-0.132,0.624-0.276,1.379,0.54,1.379c0.684,0,1.224-0.562,1.595-1.127l0.815,0.217
		c-0.624,0.924-1.511,1.666-2.59,1.666c-1.043,0-1.595-0.504-1.188-2.422l0.708-3.371h-1.379l0.168-0.754h1.379l0.42-1.969h0.899
		l-0.419,1.969h2.291L138.422,76.354z"/>
	<path d="M140.705,78.812c0.528-2.482,2.027-3.348,3.25-3.348c2.267,0,2.063,2.303,1.847,3.348
		c-0.528,2.481-2.027,3.334-3.262,3.334C141.424,82.146,140.153,81.402,140.705,78.812z M144.902,78.812
		c0.228-1.104,0.3-2.592-1.103-2.592c-1.403,0-1.967,1.487-2.195,2.592c-0.24,1.104-0.312,2.578,1.091,2.578
		C144.098,81.391,144.663,79.916,144.902,78.812z"/>
	<path d="M157.444,73.115l-0.576,2.711c0.504-0.24,0.911-0.36,1.439-0.36c1.031,0,2.435,0.841,1.919,3.287
		c-0.54,2.519-2.171,3.394-3.299,3.394c-0.743,0-0.983-0.252-1.415-0.73l-0.348,0.72l-0.827-0.108
		c0.42-0.754,0.647-1.57,0.815-2.387l1.392-6.523h0.9V73.115z M155.92,80.264c0.156,0.588,0.42,1.127,1.151,1.127
		c0.588,0,1.799-0.502,2.242-2.603c0.384-1.787-0.348-2.565-1.307-2.565c-0.444,0-0.912,0.229-1.331,0.516L155.92,80.264z"/>
	<path d="M163.264,82.016h-0.899l0.779-3.683c0.229-1.056,0.324-1.933,0.336-2.733h0.876l-0.061,1.223
		c0.648-0.756,1.319-1.355,2.28-1.355c1.198,0,1.235,1.176,1.03,2.147h-0.898c0.084-0.479,0.348-1.392-0.336-1.392
		c-0.66,0-2.099,0.982-2.543,3.117L163.264,82.016z"/>
	<path d="M170.26,79.04c-0.335,1.765,0.336,2.351,1.319,2.351c0.708,0,1.487-0.322,2.147-0.684l0.215,0.804
		c-0.875,0.36-1.703,0.636-2.59,0.636c-1.896,0-2.304-1.631-1.955-3.297c0.359-1.681,1.498-3.384,3.418-3.384
		c2.135,0,1.942,2.388,1.812,3.083l-0.097,0.491H170.26z M173.786,78.285c0.192-1.057-0.19-2.062-1.199-2.062
		c-1.008,0-1.667,0.768-2.183,2.062H173.786z"/>
	<path d="M180.447,77.434c0.154-0.707-0.168-1.211-0.84-1.211c-0.563,0-1.151,0.264-1.715,0.479l-0.037-0.791
		c0.66-0.24,1.271-0.444,1.942-0.444c1.224,0,1.751,1.009,1.522,2.075l-0.588,2.782c-0.119,0.588-0.168,1.188-0.096,1.739
		l-0.863,0.107l-0.061-0.804c-0.539,0.516-1.079,0.778-1.751,0.778c-1.224,0-1.703-0.959-1.463-2.099
		c0.265-1.235,1.247-2.313,2.543-2.313c0.479,0,0.899,0.144,1.271,0.312L180.447,77.434z M180.159,78.801
		c-0.349-0.168-0.731-0.312-1.164-0.312c-0.911,0-1.438,0.792-1.606,1.606c-0.132,0.6,0.036,1.295,0.731,1.295
		c0.694,0,1.235-0.586,1.728-1.103v-0.024L180.159,78.801z"/>
	<path d="M189.578,75.6c-1.631,1.521-2.1,2.015-3.215,2.938l2.41,3.479h-1.188l-1.895-2.949l-0.492,0.406l-0.54,2.543h-0.899
		l1.896-8.898h0.898l-1.128,5.289c1.032-0.875,2.101-1.774,3.011-2.807H189.578L189.578,75.6z"/>
	<path d="M200.991,76.354h-1.823l0.168-0.754h2.723l-1.367,6.416h-0.898L200.991,76.354z M202.682,73.967
		c-0.096,0.432-0.502,0.756-0.923,0.756c-0.42,0-0.684-0.324-0.588-0.756c0.084-0.432,0.491-0.755,0.911-0.755
		S202.766,73.535,202.682,73.967z"/>
	<path d="M205.912,82.016h-0.898l0.684-3.228c0.229-1.079,0.42-2.171,0.396-3.188h0.863l-0.048,1.174
		c0.611-0.756,1.559-1.308,2.458-1.308c1.021,0,1.344,0.937,1.114,2.027l-0.959,4.521h-0.898l0.898-4.258
		c0.133-0.611,0.336-1.535-0.455-1.535c-0.853,0-2.11,0.863-2.59,3.118L205.912,82.016z"/>
	<path d="M217.622,76.354h-2.291l-0.779,3.658c-0.132,0.624-0.274,1.379,0.54,1.379c0.684,0,1.223-0.562,1.596-1.127l0.814,0.217
		c-0.623,0.924-1.511,1.666-2.59,1.666c-1.044,0-1.596-0.504-1.188-2.422l0.707-3.371h-1.38l0.169-0.754h1.379l0.42-1.969h0.898
		l-0.42,1.969h2.291L217.622,76.354z"/>
	<path d="M219.904,78.812c0.527-2.482,2.025-3.348,3.25-3.348c2.267,0,2.062,2.303,1.847,3.348
		c-0.526,2.481-2.026,3.334-3.262,3.334C220.624,82.146,219.354,81.402,219.904,78.812z M224.102,78.812
		c0.229-1.104,0.301-2.592-1.104-2.592s-1.967,1.487-2.193,2.592c-0.24,1.104-0.312,2.578,1.09,2.578
		C223.298,81.391,223.861,79.916,224.102,78.812z"/>
	<path d="M238.047,77.434c0.155-0.707-0.168-1.211-0.84-1.211c-0.562,0-1.15,0.264-1.715,0.479l-0.036-0.791
		c0.659-0.24,1.271-0.444,1.942-0.444c1.224,0,1.75,1.009,1.522,2.075l-0.588,2.782c-0.12,0.588-0.168,1.188-0.097,1.739
		l-0.862,0.107l-0.062-0.804c-0.539,0.516-1.078,0.778-1.75,0.778c-1.224,0-1.703-0.959-1.463-2.099
		c0.264-1.235,1.246-2.313,2.543-2.313c0.479,0,0.898,0.144,1.271,0.312L238.047,77.434z M237.759,78.801
		c-0.348-0.168-0.731-0.312-1.163-0.312c-0.912,0-1.438,0.792-1.607,1.606c-0.131,0.6,0.037,1.295,0.732,1.295
		c0.694,0,1.234-0.586,1.727-1.103v-0.024L237.759,78.801z"/>
	<path d="M254.881,74.566c-0.456-0.217-0.947-0.601-1.5-0.601c-0.791,0-1.247,0.492-1.427,1.319l-0.156,0.72h2.063l-0.156,0.756
		h-2.062l-1.115,5.253h-0.899l1.116-5.253h-1.596l0.156-0.756h1.594l0.133-0.61c0.324-1.523,1.498-2.184,2.447-2.184
		c0.586,0,1.114,0.203,1.595,0.443L254.881,74.566z"/>
	<path d="M259.646,77.434c0.154-0.707-0.168-1.211-0.84-1.211c-0.563,0-1.152,0.264-1.716,0.479l-0.036-0.791
		c0.659-0.24,1.271-0.444,1.942-0.444c1.224,0,1.751,1.009,1.522,2.075l-0.588,2.782c-0.119,0.588-0.168,1.188-0.096,1.739
		l-0.863,0.107l-0.061-0.804c-0.539,0.516-1.079,0.778-1.751,0.778c-1.224,0-1.703-0.959-1.464-2.099
		c0.265-1.235,1.248-2.313,2.544-2.313c0.479,0,0.899,0.144,1.271,0.312L259.646,77.434z M259.357,78.801
		c-0.348-0.168-0.73-0.312-1.164-0.312c-0.91,0-1.438,0.792-1.605,1.606c-0.132,0.6,0.036,1.295,0.73,1.295
		c0.695,0,1.236-0.586,1.728-1.103v-0.024L259.357,78.801z"/>
	<path d="M267.745,80.973c-0.792,0.694-1.535,1.174-2.531,1.174c-1.188,0-2.614-0.73-2.073-3.273
		c0.539-2.566,2.17-3.406,3.453-3.406c1.055,0,1.68,0.576,2.062,1.428l-0.889,0.517c-0.19-0.647-0.539-1.188-1.33-1.188
		c-0.912,0-1.979,0.672-2.388,2.566c-0.42,2.003,0.479,2.604,1.308,2.604c0.707,0,1.379-0.539,1.92-1.056L267.745,80.973z"/>
	<path d="M272.99,76.354h-1.823l0.168-0.754h2.724l-1.367,6.416h-0.899L272.99,76.354z M274.682,73.967
		c-0.097,0.432-0.504,0.756-0.924,0.756s-0.684-0.324-0.588-0.756c0.084-0.432,0.492-0.755,0.911-0.755
		C274.501,73.212,274.766,73.535,274.682,73.967z"/>
	<path d="M280.622,73.871h-1.823l0.168-0.756h2.723l-1.896,8.898h-0.899L280.622,73.871z"/>
	<path d="M287.391,76.354h-1.824l0.168-0.754h2.724l-1.367,6.416h-0.899L287.391,76.354z M289.08,73.967
		c-0.096,0.432-0.503,0.756-0.923,0.756c-0.421,0-0.685-0.324-0.589-0.756c0.084-0.432,0.492-0.755,0.912-0.755
		S289.164,73.535,289.08,73.967z"/>
	<path d="M296.82,76.354h-2.291l-0.779,3.658c-0.132,0.624-0.275,1.379,0.54,1.379c0.685,0,1.224-0.562,1.595-1.127l0.815,0.217
		c-0.623,0.924-1.511,1.666-2.591,1.666c-1.043,0-1.596-0.504-1.188-2.422l0.707-3.371h-1.379l0.168-0.754h1.379l0.42-1.969h0.899
		l-0.421,1.969h2.291L296.82,76.354z"/>
	<path d="M304.943,75.6l-3.657,6.021c-0.563,0.923-1.438,2.351-2.614,2.351c-0.828,0-1.26-0.636-1.332-1.392l0.84-0.396
		c0.062,0.383,0.18,1.03,0.66,1.03c0.503,0,0.947-0.694,1.199-1.079l0.623-0.972l-0.875-5.563h0.972l0.623,4.364l2.603-4.364
		H304.943z"/>
	<path d="M308.45,80.323c0.516,0,0.876,0.396,0.768,0.924c-0.12,0.526-0.647,0.937-1.163,0.937c-0.527,0-0.888-0.408-0.768-0.937
		C307.395,80.721,307.936,80.323,308.45,80.323z"/>
</g>
</svg>
