<?xml version="1.0" encoding="utf-8"?>
<!-- Generator: Adobe Illustrator 15.0.0, SVG Export Plug-In . SVG Version: 6.00 Build 0)  -->
<!DOCTYPE svg PUBLIC "-//W3C//DTD SVG 1.1//EN" "http://www.w3.org/Graphics/SVG/1.1/DTD/svg11.dtd">
<svg version="1.1" id="Layer_1" xmlns="http://www.w3.org/2000/svg" xmlns:xlink="http://www.w3.org/1999/xlink" x="0px" y="0px"
	 width="85.436px" height="32.407px" viewBox="0 0 85.436 32.407" enable-background="new 0 0 85.436 32.407" xml:space="preserve">
<path fill="#FFFFFF" d="M3.311,0.168v0.48h1.631v5.865c0,1.187-0.552,1.955-1.774,1.979C2.075,8.503,1.583,7.88,1.583,6.513V5.277
	H1.02v0.924c0,2.027,0.769,2.771,2.159,2.771c1.57,0,2.326-0.815,2.326-2.902V0.168H3.311z"/>
<path fill="#FFFFFF" d="M12.789,8.863c-0.168-0.528-0.324-1.104-0.312-1.715l0.072-2.59c0.036-1.416-0.659-2.231-1.823-2.231
	c-0.6,0-1.139,0.168-1.689,0.384l0.132,0.516c0.504-0.228,0.972-0.419,1.522-0.419c1.043,0,1.331,0.671,1.295,2.279
	c-0.443-0.216-1.03-0.42-1.547-0.42c-1.224,0-1.906,1.043-1.906,2.255c0,1.067,0.6,2.015,1.763,2.015
	c0.828,0,1.296-0.443,1.739-1.079c0.035,0.359,0.119,0.731,0.239,1.079L12.789,8.863z M11.949,7.172
	c-0.385,0.647-0.863,1.283-1.655,1.283c-0.804,0-1.199-0.78-1.199-1.487c0-0.936,0.42-1.823,1.476-1.823
	c0.505,0,0.983,0.18,1.38,0.384L11.949,7.172L11.949,7.172z"/>
<path fill="#FFFFFF" d="M16.415,6.188c0-2.47,1.234-3.382,2.146-3.382c0.983,0,0.983,1.007,0.983,1.739v4.258h0.562V4.282
	c0-0.959-0.322-1.955-1.475-1.955c-1.008,0-2.016,0.936-2.255,1.883h-0.024l-0.228-1.823h-0.528c0.217,1.08,0.252,2.159,0.252,3.238
	v3.178h0.564V6.188H16.415z"/>
<path fill="#FFFFFF" d="M26.793,5.025c0,2.399-1.212,3.43-2.146,3.43c-0.684,0-0.983-0.588-0.983-1.787v-4.21H23.1v4.474
	c0,0.959,0.324,2.003,1.477,2.003c0.994,0,2.003-0.983,2.241-1.931h0.024l0.24,1.799h0.526c-0.216-1.056-0.252-2.135-0.252-3.214
	V2.458h-0.562L26.793,5.025L26.793,5.025z"/>
<path fill="#FFFFFF" d="M34.389,8.863c-0.168-0.528-0.324-1.104-0.312-1.715l0.07-2.59c0.036-1.416-0.658-2.231-1.822-2.231
	c-0.601,0-1.14,0.168-1.69,0.384l0.132,0.516c0.504-0.228,0.972-0.419,1.523-0.419c1.043,0,1.331,0.671,1.295,2.279
	c-0.443-0.216-1.031-0.42-1.547-0.42c-1.225,0-1.907,1.043-1.907,2.255c0,1.067,0.6,2.015,1.763,2.015
	c0.828,0,1.296-0.443,1.739-1.079c0.036,0.359,0.12,0.731,0.24,1.079L34.389,8.863z M33.549,7.172
	c-0.384,0.647-0.863,1.283-1.655,1.283c-0.804,0-1.199-0.78-1.199-1.487c0-0.936,0.421-1.823,1.477-1.823
	c0.504,0,0.982,0.18,1.379,0.384L33.549,7.172L33.549,7.172z"/>
<path fill="#FFFFFF" d="M38.59,6.225c0-2.411,1.438-3.418,2.087-3.418c0.768,0,0.804,0.852,0.815,1.439h0.562
	c0-0.863-0.275-1.919-1.331-1.919c-1.091,0-1.751,0.983-2.171,1.859l-0.216-1.799h-0.539l0.228,2.027v4.39h0.563L38.59,6.225
	L38.59,6.225z"/>
<path fill="#FFFFFF" d="M48.692,2.458l-1.822,4.87l-1.716-4.87H44.53l2.063,5.613l-0.48,1.091c-0.216,0.479-0.526,1.187-1.139,1.187
	c-0.528,0-0.828-0.551-0.982-0.983l-0.48,0.252c0.217,0.648,0.744,1.211,1.464,1.211c1.115,0,1.655-1.475,1.99-2.338l2.375-6.033
	H48.692z"/>
<path fill="#FFFFFF" d="M59.482,8.324c0.023-1.224,0.301-1.847,2.1-3.454c0.862-0.768,1.895-1.595,1.895-2.854
	C63.476,0.768,62.685,0,61.437,0c-1.415,0-2.206,0.983-2.313,2.327h0.562c0.072-1.007,0.648-1.847,1.739-1.847
	c0.912,0,1.487,0.6,1.487,1.499c0,1.115-1.115,1.991-1.884,2.663c-1.799,1.571-2.11,2.279-2.11,4.162h4.594v-0.48H59.482z"/>
<path fill="#FFFFFF" d="M70.771,4.486c0-0.912-0.022-2.003-0.322-2.867C70.124,0.696,69.44,0,68.397,0
	c-1.092,0-1.774,0.744-2.087,1.715c-0.265,0.804-0.288,1.919-0.288,2.771c0,0.911,0.023,2.015,0.323,2.866
	c0.324,0.923,1.021,1.619,2.052,1.619c1.079,0,1.774-0.744,2.087-1.715C70.748,6.464,70.771,5.325,70.771,4.486z M70.208,4.486
	c0,0.708-0.024,1.667-0.181,2.338c-0.203,0.816-0.684,1.679-1.631,1.679c-0.888,0-1.38-0.779-1.584-1.535
	c-0.216-0.744-0.228-1.715-0.228-2.482c0-0.708,0.023-1.655,0.18-2.339c0.204-0.815,0.685-1.679,1.632-1.679
	c0.888,0,1.379,0.78,1.583,1.547C70.196,2.747,70.208,3.718,70.208,4.486z"/>
<path fill="#FFFFFF" d="M77.972,4.486c0-0.912-0.023-2.003-0.324-2.867C77.324,0.696,76.641,0,75.597,0
	c-1.091,0-1.773,0.744-2.087,1.715c-0.264,0.804-0.287,1.919-0.287,2.771c0,0.911,0.023,2.015,0.323,2.866
	c0.324,0.923,1.02,1.619,2.051,1.619c1.08,0,1.775-0.744,2.087-1.715C77.947,6.464,77.972,5.325,77.972,4.486z M77.408,4.486
	c0,0.708-0.024,1.667-0.182,2.338c-0.203,0.816-0.684,1.679-1.631,1.679c-0.888,0-1.379-0.779-1.583-1.535
	c-0.216-0.744-0.228-1.715-0.228-2.482c0-0.708,0.022-1.655,0.18-2.339c0.204-0.815,0.684-1.679,1.631-1.679
	c0.888,0,1.38,0.78,1.583,1.547C77.396,2.747,77.408,3.718,77.408,4.486z"/>
<path fill="#FFFFFF" d="M80.722,6.524c0-1.235,0.864-1.979,2.075-1.979s2.075,0.744,2.075,1.979c0,1.248-0.864,1.931-2.075,1.931
	S80.722,7.772,80.722,6.524z M84.56,2.267c0,1.103-0.684,1.799-1.773,1.799c-1.032,0-1.787-0.66-1.787-1.715
	c0-1.163,0.646-1.871,1.787-1.871C83.876,0.48,84.56,1.164,84.56,2.267z M81.669,4.293c-1.031,0.372-1.511,1.164-1.511,2.231
	c0,1.451,0.862,2.411,2.639,2.411c1.715,0,2.639-0.923,2.639-2.411c0-1.067-0.492-1.871-1.512-2.231
	c0.78-0.335,1.199-1.199,1.199-2.026C85.123,0.864,84.188,0,82.797,0c-1.367,0-2.363,0.875-2.363,2.267
	C80.434,3.094,80.89,3.958,81.669,4.293z"/>
<path fill="#FFFFFF" d="M9.119,28.803L5.178,18.051H3.934L0,28.803h1.377l1.187-3.318h3.992l1.172,3.318H9.119z M3.003,24.277
	l1.062-3.104c0.029-0.084,0.065-0.188,0.106-0.312c0.042-0.124,0.085-0.261,0.128-0.41c0.045-0.148,0.088-0.304,0.133-0.465
	c0.043-0.16,0.082-0.316,0.116-0.469c0.04,0.15,0.081,0.307,0.125,0.465c0.044,0.159,0.088,0.312,0.132,0.458
	s0.087,0.283,0.128,0.41c0.042,0.127,0.077,0.233,0.106,0.321l1.084,3.105L3.003,24.277L3.003,24.277z"/>
<path fill="#FFFFFF" d="M16.75,28.803v-5.252c0-1.025-0.227-1.771-0.677-2.237c-0.452-0.466-1.125-0.698-2.019-0.698
	c-0.235,0-0.465,0.023-0.688,0.072c-0.226,0.049-0.438,0.125-0.639,0.227c-0.2,0.104-0.385,0.231-0.553,0.385
	c-0.169,0.154-0.314,0.336-0.437,0.547h-0.072l-0.19-1.084h-1.084v8.042h1.333v-4.169c0-0.469,0.035-0.883,0.105-1.243
	s0.188-0.667,0.352-0.916s0.38-0.438,0.648-0.563c0.268-0.127,0.601-0.189,0.996-0.189c0.547,0,0.947,0.158,1.205,0.477
	c0.256,0.316,0.385,0.793,0.385,1.428v5.179h1.333V28.803z"/>
<path fill="#FFFFFF" d="M25.521,22.999c-0.174-0.515-0.415-0.949-0.726-1.304s-0.677-0.622-1.104-0.806
	c-0.425-0.184-0.889-0.273-1.392-0.273c-0.541,0-1.031,0.092-1.468,0.273c-0.438,0.184-0.809,0.451-1.11,0.806
	c-0.303,0.354-0.535,0.789-0.699,1.304c-0.163,0.517-0.245,1.105-0.245,1.771c0,0.668,0.088,1.263,0.261,1.782
	c0.174,0.521,0.415,0.957,0.726,1.312s0.677,0.624,1.104,0.81c0.424,0.187,0.888,0.279,1.391,0.279c0.543,0,1.03-0.094,1.465-0.279
	c0.436-0.185,0.805-0.455,1.11-0.81c0.305-0.354,0.539-0.791,0.703-1.312c0.163-0.52,0.245-1.114,0.245-1.782
	C25.781,24.104,25.694,23.514,25.521,22.999z M20.65,22.479c0.33-0.506,0.871-0.758,1.622-0.758c0.752,0,1.296,0.252,1.63,0.758
	c0.335,0.505,0.502,1.268,0.502,2.289c0,1.02-0.164,1.788-0.493,2.303c-0.33,0.516-0.871,0.773-1.623,0.773
	s-1.295-0.258-1.629-0.773c-0.335-0.515-0.502-1.283-0.502-2.303C20.156,23.747,20.321,22.984,20.65,22.479z"/>
<path fill="#FFFFFF" d="M34.24,28.803v-5.252c0-1.025-0.227-1.771-0.678-2.237c-0.452-0.466-1.124-0.698-2.019-0.698
	c-0.234,0-0.464,0.023-0.688,0.072c-0.224,0.049-0.437,0.125-0.637,0.227c-0.2,0.104-0.385,0.231-0.553,0.385
	c-0.169,0.154-0.314,0.336-0.437,0.547h-0.073l-0.19-1.084h-1.084v8.042h1.333v-4.169c0-0.469,0.036-0.883,0.105-1.243
	c0.071-0.36,0.188-0.667,0.353-0.916s0.38-0.438,0.647-0.563c0.269-0.127,0.602-0.189,0.996-0.189c0.548,0,0.948,0.158,1.205,0.477
	c0.256,0.316,0.385,0.793,0.385,1.428v5.179h1.334V28.803z"/>
<path fill="#FFFFFF" d="M38.562,28.875l-0.417,1.172c-0.073,0.201-0.154,0.379-0.245,0.535c-0.091,0.155-0.198,0.289-0.325,0.396
	c-0.128,0.106-0.276,0.188-0.446,0.245c-0.172,0.056-0.374,0.084-0.608,0.084c-0.171,0-0.335-0.01-0.491-0.025
	c-0.155-0.018-0.284-0.037-0.388-0.062v1.062c0.132,0.029,0.29,0.059,0.477,0.086c0.186,0.025,0.405,0.039,0.659,0.039
	c0.391,0,0.728-0.06,1.011-0.18c0.282-0.119,0.529-0.289,0.739-0.51c0.21-0.219,0.396-0.486,0.554-0.801
	c0.159-0.315,0.307-0.67,0.442-1.066l3.18-9.09h-1.377l-1.458,4.477c-0.055,0.16-0.115,0.355-0.188,0.586
	c-0.07,0.229-0.139,0.463-0.205,0.699c-0.064,0.236-0.126,0.46-0.18,0.67s-0.093,0.376-0.117,0.498h-0.044
	c-0.02-0.171-0.051-0.355-0.095-0.557s-0.098-0.408-0.157-0.623c-0.062-0.215-0.127-0.43-0.198-0.645
	c-0.069-0.216-0.141-0.421-0.209-0.615l-1.574-4.49h-1.385L38.562,28.875z"/>
<path fill="#FFFFFF" d="M55.012,28.803v-5.252c0-1.025-0.216-1.771-0.646-2.237c-0.434-0.466-1.076-0.698-1.932-0.698
	c-0.244,0-0.481,0.025-0.718,0.08c-0.234,0.053-0.457,0.135-0.67,0.245c-0.212,0.108-0.407,0.247-0.586,0.413
	c-0.178,0.166-0.331,0.363-0.458,0.594h-0.06c-0.186-0.459-0.472-0.796-0.859-1.011c-0.389-0.215-0.875-0.321-1.461-0.321
	c-0.226,0-0.445,0.023-0.663,0.072c-0.217,0.049-0.422,0.125-0.615,0.227c-0.192,0.104-0.37,0.231-0.531,0.385
	c-0.16,0.154-0.3,0.336-0.417,0.547h-0.072l-0.19-1.084h-1.084v8.042h1.333v-4.169c0-0.469,0.033-0.883,0.099-1.243
	c0.066-0.36,0.177-0.667,0.33-0.916s0.357-0.438,0.611-0.563c0.254-0.127,0.568-0.189,0.944-0.189c0.513,0,0.891,0.158,1.132,0.477
	c0.242,0.316,0.362,0.793,0.362,1.428v5.179h1.341v-4.438c0-0.43,0.035-0.81,0.109-1.139c0.072-0.33,0.188-0.605,0.349-0.828
	c0.157-0.222,0.361-0.391,0.61-0.505s0.552-0.172,0.908-0.172c0.513,0,0.891,0.157,1.135,0.476s0.367,0.795,0.367,1.43v5.178h1.332
	V28.803z"/>
<path fill="#FFFFFF" d="M63.783,22.999c-0.175-0.515-0.415-0.949-0.727-1.304c-0.31-0.354-0.677-0.622-1.102-0.806
	c-0.426-0.184-0.891-0.273-1.393-0.273c-0.542,0-1.031,0.092-1.469,0.273c-0.438,0.184-0.808,0.451-1.11,0.806
	s-0.534,0.789-0.698,1.304c-0.163,0.517-0.245,1.105-0.245,1.771c0,0.668,0.087,1.263,0.26,1.782
	c0.174,0.521,0.415,0.957,0.726,1.312s0.678,0.624,1.103,0.81c0.425,0.187,0.89,0.279,1.392,0.279c0.542,0,1.03-0.094,1.466-0.279
	c0.435-0.186,0.805-0.455,1.109-0.81s0.539-0.791,0.703-1.312c0.163-0.52,0.245-1.114,0.245-1.782
	C64.043,24.104,63.956,23.514,63.783,22.999z M58.912,22.479c0.33-0.506,0.87-0.758,1.623-0.758c0.751,0,1.295,0.252,1.629,0.758
	c0.335,0.505,0.502,1.268,0.502,2.289c0,1.02-0.165,1.788-0.494,2.303c-0.33,0.516-0.871,0.773-1.623,0.773
	s-1.295-0.258-1.629-0.773c-0.335-0.515-0.502-1.283-0.502-2.303C58.418,23.747,58.583,22.984,58.912,22.479z"/>
<path fill="#FFFFFF" d="M72.43,28.803V20.76h-1.334v4.176c0,0.469-0.035,0.884-0.104,1.245c-0.071,0.36-0.188,0.665-0.353,0.911
	s-0.38,0.434-0.647,0.561c-0.269,0.127-0.602,0.191-0.996,0.191c-0.542,0-0.942-0.159-1.201-0.477
	c-0.259-0.318-0.39-0.793-0.39-1.429V20.76h-1.331v5.25c0,0.515,0.057,0.955,0.172,1.326c0.113,0.371,0.283,0.677,0.509,0.916
	c0.225,0.238,0.505,0.414,0.842,0.527c0.337,0.111,0.729,0.168,1.173,0.168c0.234,0,0.463-0.023,0.688-0.072
	c0.224-0.049,0.437-0.123,0.637-0.225c0.2-0.1,0.385-0.227,0.553-0.381c0.169-0.152,0.313-0.336,0.437-0.545h0.073l0.197,1.076
	h1.076V28.803z"/>
<path fill="#FFFFFF" d="M79.636,25.756c-0.103-0.234-0.251-0.443-0.446-0.627c-0.194-0.184-0.431-0.348-0.707-0.494
	c-0.274-0.146-0.589-0.293-0.94-0.439c-0.342-0.141-0.627-0.27-0.856-0.384c-0.229-0.114-0.413-0.229-0.549-0.341
	c-0.138-0.112-0.233-0.232-0.29-0.359c-0.056-0.127-0.084-0.275-0.084-0.445c0-0.304,0.119-0.537,0.359-0.699
	c0.237-0.164,0.606-0.245,1.104-0.245c0.348,0,0.688,0.052,1.021,0.157c0.335,0.104,0.66,0.228,0.979,0.369l0.461-1.076
	c-0.352-0.166-0.724-0.301-1.117-0.403c-0.393-0.103-0.825-0.153-1.3-0.153c-0.42,0-0.801,0.047-1.143,0.141
	c-0.342,0.092-0.635,0.229-0.879,0.41c-0.244,0.18-0.435,0.402-0.567,0.67c-0.135,0.266-0.201,0.57-0.201,0.912
	c0,0.326,0.053,0.607,0.157,0.846c0.104,0.236,0.255,0.445,0.45,0.626s0.434,0.345,0.714,0.491c0.281,0.146,0.597,0.295,0.948,0.445
	c0.353,0.151,0.64,0.288,0.863,0.41c0.225,0.122,0.402,0.243,0.531,0.362c0.13,0.12,0.219,0.239,0.269,0.362
	c0.049,0.121,0.072,0.258,0.072,0.41c0,0.176-0.031,0.336-0.096,0.479c-0.063,0.144-0.164,0.267-0.304,0.366
	s-0.319,0.177-0.542,0.229c-0.223,0.054-0.492,0.08-0.811,0.08c-0.215,0-0.431-0.019-0.646-0.056
	c-0.218-0.035-0.429-0.084-0.634-0.143s-0.4-0.125-0.586-0.201c-0.187-0.076-0.354-0.151-0.506-0.229v1.215
	c0.287,0.166,0.622,0.293,1.004,0.378c0.381,0.086,0.837,0.129,1.368,0.129c0.471,0,0.893-0.05,1.269-0.146
	c0.376-0.098,0.697-0.245,0.963-0.443c0.267-0.197,0.47-0.443,0.611-0.736c0.141-0.293,0.213-0.635,0.213-1.024
	C79.79,26.272,79.739,25.991,79.636,25.756z"/>
</svg>
