<?xml version="1.0" encoding="utf-8"?>
<!-- Generator: Adobe Illustrator 15.0.0, SVG Export Plug-In . SVG Version: 6.00 Build 0)  -->
<!DOCTYPE svg PUBLIC "-//W3C//DTD SVG 1.1//EN" "http://www.w3.org/Graphics/SVG/1.1/DTD/svg11.dtd">
<svg version="1.1" id="Layer_1" xmlns="http://www.w3.org/2000/svg" xmlns:xlink="http://www.w3.org/1999/xlink" x="0px" y="0px"
	 width="74.414px" height="72.503px" viewBox="0 0 74.414 72.503" enable-background="new 0 0 74.414 72.503" xml:space="preserve">
<path fill="#FFFFFF" d="M20.486,5.014l-1.967-4.75h-0.624V8.9h0.564V1.428l0.024-0.024l2.003,4.798l2.003-4.798h0.024V8.9h0.563
	V0.264h-0.624L20.486,5.014z"/>
<path fill="#FFFFFF" d="M29.677,8.959c-0.167-0.527-0.324-1.103-0.312-1.715l0.072-2.591c0.036-1.415-0.66-2.23-1.823-2.23
	c-0.6,0-1.14,0.168-1.691,0.384l0.132,0.516c0.503-0.228,0.971-0.42,1.523-0.42c1.043,0,1.331,0.672,1.295,2.279
	c-0.444-0.216-1.032-0.42-1.547-0.42c-1.223,0-1.907,1.043-1.907,2.255c0,1.067,0.6,2.015,1.763,2.015
	c0.827,0,1.295-0.443,1.739-1.079c0.036,0.359,0.12,0.731,0.24,1.079L29.677,8.959z M28.837,7.269
	c-0.384,0.647-0.863,1.283-1.655,1.283c-0.804,0-1.2-0.779-1.2-1.487c0-0.936,0.42-1.823,1.475-1.823
	c0.504,0,0.984,0.18,1.379,0.384L28.837,7.269L28.837,7.269z"/>
<path fill="#FFFFFF" d="M36.781,2.555l-1.823,4.869l-1.715-4.869h-0.624l2.063,5.613l-0.479,1.091
	c-0.216,0.48-0.528,1.188-1.14,1.188c-0.528,0-0.828-0.552-0.983-0.983L31.6,9.715c0.216,0.647,0.744,1.212,1.463,1.212
	c1.115,0,1.655-1.476,1.991-2.339l2.375-6.033H36.781z"/>
<path fill="#FFFFFF" d="M47.57,8.42c0.023-1.224,0.3-1.848,2.099-3.454c0.864-0.768,1.896-1.596,1.896-2.854
	c0-1.247-0.791-2.015-2.039-2.015c-1.414,0-2.205,0.983-2.313,2.326h0.563c0.072-1.008,0.647-1.847,1.738-1.847
	c0.911,0,1.487,0.6,1.487,1.499c0,1.115-1.115,1.991-1.883,2.662c-1.8,1.571-2.111,2.279-2.111,4.162h4.595V8.42H47.57z"/>
<path fill="#FFFFFF" d="M58.859,4.582c0-0.912-0.022-2.003-0.323-2.866c-0.323-0.924-1.007-1.619-2.052-1.619
	c-1.09,0-1.774,0.743-2.086,1.715c-0.264,0.803-0.289,1.918-0.289,2.77c0,0.911,0.024,2.015,0.324,2.866
	c0.324,0.924,1.021,1.619,2.051,1.619c1.08,0,1.775-0.744,2.088-1.715C58.837,6.561,58.859,5.421,58.859,4.582z M58.297,4.582
	c0,0.707-0.023,1.667-0.181,2.339C57.913,7.736,57.434,8.6,56.484,8.6c-0.887,0-1.379-0.779-1.582-1.535
	c-0.217-0.743-0.229-1.715-0.229-2.482c0-0.708,0.023-1.655,0.18-2.339c0.205-0.815,0.685-1.679,1.631-1.679
	c0.889,0,1.379,0.779,1.584,1.547C58.284,2.843,58.297,3.814,58.297,4.582z"/>
<path fill="#FFFFFF" d="M63.997,0l-2.291,0.731V1.26l1.728-0.54v7.7H61.79v0.479h3.803V8.42h-1.596V0z"/>
<path fill="#FFFFFF" d="M70.417,4.474c1.284,0,2.328,0.66,2.328,2.147c0,1.211-0.828,1.931-2.017,1.931
	c-0.924,0-1.547-0.504-1.931-1.308l-0.504,0.3c0.601,0.936,1.308,1.487,2.458,1.487c1.488,0,2.555-1.043,2.555-2.519
	c0-1.14-0.684-1.979-1.773-2.326c0.792-0.349,1.379-1.032,1.379-1.932c0-1.188-0.96-2.158-2.171-2.158
	c-1.009,0-1.847,0.539-2.326,1.402l0.479,0.265c0.359-0.672,0.994-1.188,1.799-1.188c0.898,0,1.654,0.707,1.654,1.595
	c0,1.08-0.888,1.823-1.932,1.823L70.417,4.474L70.417,4.474z"/>
<path fill="#FFFFFF" d="M7.727,28.152l-1.26-0.301v-8.612l1.26-0.301v-0.747H3.845v0.747l1.26,0.301v8.612l-1.26,0.301v0.747h3.882
	V28.152z"/>
<path fill="#FFFFFF" d="M12.349,20.847c-0.215,0.09-0.409,0.21-0.582,0.358c-0.174,0.149-0.33,0.321-0.469,0.517
	c-0.139,0.195-0.27,0.398-0.392,0.608h-0.059l-0.161-1.473H9.602v8.042h1.333v-4.336c0-0.396,0.05-0.756,0.15-1.08
	c0.1-0.325,0.242-0.604,0.425-0.835c0.183-0.232,0.402-0.41,0.656-0.535c0.254-0.124,0.535-0.187,0.842-0.187
	c0.127,0,0.262,0.009,0.406,0.025c0.144,0.018,0.285,0.038,0.421,0.062l0.176-1.23c-0.127-0.024-0.278-0.043-0.454-0.055
	c-0.176-0.013-0.334-0.019-0.476-0.019C12.808,20.711,12.563,20.756,12.349,20.847z"/>
<path fill="#FFFFFF" d="M20.933,28.899v-5.508c0-0.479-0.059-0.886-0.176-1.224c-0.117-0.337-0.294-0.613-0.531-0.831
	c-0.237-0.217-0.537-0.376-0.901-0.476c-0.364-0.101-0.794-0.15-1.292-0.15c-0.488,0-0.955,0.068-1.399,0.205
	c-0.444,0.137-0.847,0.303-1.208,0.498l0.469,1.004c0.322-0.166,0.658-0.309,1.007-0.425c0.349-0.117,0.727-0.176,1.132-0.176
	c0.254,0,0.48,0.029,0.677,0.088c0.198,0.059,0.364,0.154,0.499,0.289c0.134,0.134,0.236,0.312,0.308,0.531
	c0.07,0.219,0.106,0.493,0.106,0.82v0.505L18.276,24.1c-1.152,0.04-2.011,0.274-2.574,0.704c-0.564,0.43-0.846,1.045-0.846,1.846
	c0,0.41,0.059,0.765,0.176,1.065c0.117,0.3,0.279,0.549,0.487,0.747c0.207,0.197,0.453,0.344,0.736,0.439
	c0.283,0.095,0.593,0.143,0.93,0.143c0.308,0,0.579-0.024,0.813-0.073c0.234-0.049,0.447-0.125,0.637-0.227
	c0.19-0.103,0.366-0.233,0.527-0.393c0.161-0.158,0.322-0.348,0.483-0.567h0.059l0.271,1.113h0.958V28.899z M16.593,27.654
	c-0.237-0.21-0.355-0.539-0.355-0.989c0-0.248,0.039-0.472,0.117-0.67c0.078-0.197,0.206-0.366,0.384-0.505
	c0.178-0.14,0.417-0.248,0.714-0.326s0.667-0.127,1.106-0.146l1.047-0.052v0.726c0,0.386-0.053,0.722-0.157,1.007
	c-0.105,0.286-0.25,0.522-0.436,0.711c-0.186,0.188-0.405,0.328-0.659,0.421c-0.254,0.093-0.53,0.139-0.828,0.139
	C17.141,27.969,16.83,27.864,16.593,27.654z"/>
<path fill="#FFFFFF" d="M29.758,28.899v-5.252c0-1.025-0.226-1.771-0.678-2.237c-0.452-0.466-1.124-0.699-2.018-0.699
	c-0.234,0-0.464,0.024-0.688,0.073c-0.224,0.049-0.437,0.125-0.637,0.227c-0.2,0.104-0.384,0.231-0.553,0.385
	c-0.168,0.154-0.313,0.336-0.436,0.546h-0.073l-0.19-1.084h-1.084V28.9h1.333v-4.168c0-0.468,0.035-0.883,0.106-1.244
	c0.07-0.361,0.188-0.667,0.351-0.916c0.163-0.249,0.38-0.437,0.648-0.564c0.269-0.126,0.601-0.189,0.996-0.189
	c0.547,0,0.948,0.158,1.205,0.476c0.256,0.317,0.384,0.794,0.384,1.429v5.178h1.334V28.899z"/>
<path fill="#FFFFFF" d="M43.916,18.191h-1.361v4.512h-4.879v-4.512h-1.362v10.708h1.362v-4.995h4.879v4.995h1.361V18.191z"/>
<path fill="#FFFFFF" d="M52.143,28.899v-5.508c0-0.479-0.06-0.886-0.177-1.224c-0.116-0.337-0.295-0.613-0.53-0.831
	c-0.237-0.217-0.537-0.376-0.901-0.476c-0.364-0.101-0.794-0.15-1.292-0.15c-0.488,0-0.955,0.068-1.399,0.205
	c-0.444,0.137-0.847,0.303-1.208,0.498l0.469,1.004c0.322-0.166,0.658-0.309,1.006-0.425c0.351-0.117,0.728-0.176,1.134-0.176
	c0.254,0,0.479,0.029,0.677,0.088c0.198,0.059,0.364,0.154,0.499,0.289c0.133,0.134,0.235,0.312,0.308,0.531
	c0.069,0.219,0.105,0.493,0.105,0.82v0.505L49.484,24.1c-1.152,0.04-2.012,0.274-2.574,0.704c-0.564,0.43-0.848,1.045-0.848,1.846
	c0,0.41,0.06,0.765,0.176,1.065c0.117,0.3,0.279,0.549,0.488,0.747c0.207,0.197,0.453,0.344,0.735,0.439
	c0.283,0.095,0.593,0.143,0.931,0.143c0.308,0,0.578-0.024,0.812-0.073c0.234-0.049,0.447-0.125,0.637-0.227
	c0.191-0.103,0.367-0.233,0.527-0.393c0.162-0.158,0.322-0.348,0.484-0.567h0.059l0.271,1.113h0.959V28.899z M47.802,27.654
	c-0.237-0.21-0.354-0.539-0.354-0.989c0-0.248,0.039-0.472,0.117-0.67c0.078-0.197,0.205-0.366,0.385-0.505
	c0.178-0.14,0.416-0.248,0.714-0.326s0.667-0.127,1.106-0.146l1.047-0.052v0.726c0,0.386-0.053,0.722-0.157,1.007
	c-0.104,0.286-0.251,0.522-0.437,0.711c-0.187,0.188-0.404,0.328-0.658,0.421c-0.254,0.093-0.53,0.139-0.828,0.139
	C48.35,27.969,48.038,27.864,47.802,27.654z"/>
<path fill="#FFFFFF" d="M58.788,28.937c0.3-0.073,0.582-0.181,0.846-0.322v-1.188c-0.264,0.123-0.556,0.229-0.875,0.319
	s-0.678,0.135-1.073,0.135c-0.723,0-1.261-0.237-1.613-0.714c-0.355-0.476-0.531-1.229-0.531-2.26c0-1.034,0.176-1.798,0.527-2.288
	c0.352-0.491,0.91-0.736,1.677-0.736c0.127,0,0.261,0.011,0.403,0.033c0.141,0.021,0.285,0.051,0.432,0.088
	c0.146,0.036,0.288,0.078,0.425,0.124c0.138,0.047,0.261,0.095,0.374,0.144l0.395-1.128c-0.244-0.122-0.547-0.225-0.91-0.309
	c-0.364-0.082-0.736-0.124-1.117-0.124c-0.498,0-0.964,0.076-1.398,0.228c-0.435,0.151-0.813,0.394-1.14,0.729
	c-0.324,0.334-0.58,0.769-0.767,1.304c-0.186,0.534-0.276,1.186-0.276,1.951c0,0.733,0.09,1.359,0.271,1.879
	c0.182,0.521,0.431,0.947,0.748,1.282c0.316,0.334,0.69,0.578,1.121,0.732c0.43,0.153,0.891,0.23,1.383,0.23
	C58.12,29.046,58.486,29.01,58.788,28.937z"/>
<path fill="#FFFFFF" d="M62.754,24.747l0.117-2.015v-5.229h-1.318v11.396h1.318v-3.091l0.798-0.601l2.461,3.691h1.531l-3.136-4.562
	l2.938-3.479h-1.546l-2.146,2.645l-0.988,1.245H62.754z"/>
<path fill="#FFFFFF" d="M73.652,25.853c-0.104-0.234-0.252-0.443-0.446-0.626c-0.194-0.184-0.433-0.349-0.707-0.495
	c-0.276-0.146-0.59-0.292-0.94-0.438c-0.343-0.142-0.627-0.271-0.857-0.385c-0.229-0.115-0.412-0.229-0.549-0.341
	c-0.137-0.112-0.233-0.231-0.289-0.358c-0.057-0.127-0.084-0.276-0.084-0.447c0-0.303,0.119-0.536,0.357-0.699
	c0.239-0.164,0.608-0.245,1.106-0.245c0.346,0,0.687,0.052,1.021,0.157c0.334,0.104,0.66,0.229,0.979,0.37l0.462-1.077
	c-0.353-0.166-0.726-0.3-1.117-0.403c-0.394-0.102-0.825-0.153-1.301-0.153c-0.42,0-0.802,0.047-1.144,0.14
	c-0.342,0.093-0.635,0.229-0.879,0.409c-0.244,0.181-0.434,0.404-0.566,0.671c-0.135,0.266-0.201,0.57-0.201,0.912
	c0,0.327,0.052,0.608,0.156,0.846c0.105,0.236,0.257,0.445,0.451,0.626c0.195,0.181,0.434,0.345,0.713,0.491
	c0.281,0.146,0.599,0.295,0.949,0.446c0.352,0.151,0.641,0.288,0.864,0.41s0.401,0.243,0.531,0.362
	c0.129,0.12,0.218,0.241,0.267,0.363c0.049,0.122,0.074,0.259,0.074,0.409c0,0.176-0.031,0.336-0.096,0.48
	c-0.063,0.144-0.165,0.266-0.305,0.366s-0.319,0.177-0.541,0.23c-0.224,0.054-0.492,0.081-0.811,0.081
	c-0.215,0-0.432-0.019-0.646-0.056c-0.22-0.036-0.431-0.084-0.636-0.143c-0.204-0.059-0.399-0.126-0.586-0.201
	c-0.187-0.076-0.354-0.152-0.505-0.23v1.215c0.288,0.167,0.622,0.292,1.003,0.378c0.381,0.085,0.838,0.128,1.37,0.128
	c0.469,0,0.893-0.049,1.268-0.146c0.377-0.098,0.696-0.245,0.963-0.443c0.267-0.197,0.471-0.442,0.611-0.736
	c0.143-0.293,0.213-0.634,0.213-1.025C73.807,26.368,73.755,26.087,73.652,25.853z"/>
<path fill="#FFFFFF" d="M10.525,38.177v6.973c-0.005,0.396-0.056,0.76-0.154,1.092c-0.098,0.332-0.247,0.617-0.447,0.856
	c-0.2,0.239-0.457,0.425-0.769,0.557s-0.686,0.197-1.121,0.197c-0.854,0-1.493-0.233-1.915-0.702
	c-0.423-0.469-0.634-1.131-0.634-1.984v-6.974h-1.37v6.899c0,0.596,0.083,1.137,0.249,1.621c0.166,0.486,0.411,0.902,0.736,1.25
	c0.325,0.347,0.727,0.613,1.205,0.802c0.479,0.188,1.03,0.282,1.655,0.282c0.664,0,1.242-0.102,1.732-0.301
	c0.491-0.199,0.898-0.477,1.223-0.828c0.325-0.351,0.568-0.767,0.729-1.244c0.161-0.479,0.242-0.996,0.242-1.553v-6.943H10.525z"/>
<path fill="#FFFFFF" d="M14.092,48.552c0.049,0.129,0.115,0.234,0.198,0.318c0.083,0.082,0.181,0.144,0.293,0.184
	c0.112,0.037,0.234,0.059,0.366,0.059c0.127,0,0.248-0.021,0.363-0.059c0.114-0.04,0.213-0.102,0.296-0.184
	c0.083-0.084,0.149-0.189,0.198-0.318c0.049-0.131,0.073-0.284,0.073-0.465c0-0.187-0.024-0.344-0.073-0.473
	c-0.049-0.131-0.115-0.234-0.198-0.316c-0.083-0.08-0.182-0.139-0.296-0.176c-0.115-0.035-0.236-0.055-0.363-0.055
	c-0.132,0-0.254,0.02-0.366,0.055c-0.112,0.037-0.21,0.096-0.293,0.176c-0.083,0.082-0.149,0.187-0.198,0.316
	c-0.049,0.129-0.073,0.286-0.073,0.473C14.019,48.268,14.043,48.421,14.092,48.552z"/>
<path fill="#FFFFFF" d="M23.888,44.944c-0.114-0.308-0.284-0.577-0.509-0.813c-0.225-0.232-0.504-0.442-0.838-0.629
	c-0.335-0.187-0.724-0.367-1.168-0.541c-0.41-0.162-0.756-0.314-1.036-0.459c-0.281-0.145-0.507-0.297-0.678-0.461
	c-0.171-0.164-0.293-0.348-0.366-0.549c-0.073-0.203-0.11-0.443-0.11-0.723c0-0.469,0.164-0.841,0.491-1.117
	c0.327-0.275,0.789-0.412,1.384-0.412c0.43,0,0.846,0.051,1.249,0.156c0.403,0.104,0.763,0.229,1.081,0.37l0.491-1.144
	c-0.361-0.17-0.774-0.312-1.238-0.422c-0.464-0.109-0.986-0.164-1.567-0.164c-0.474,0-0.907,0.062-1.3,0.184
	c-0.393,0.121-0.731,0.299-1.014,0.531c-0.283,0.23-0.503,0.517-0.659,0.854c-0.156,0.337-0.234,0.721-0.234,1.148
	c0,0.41,0.05,0.776,0.15,1.1c0.1,0.322,0.254,0.609,0.461,0.863c0.207,0.255,0.471,0.482,0.792,0.686
	c0.319,0.203,0.697,0.391,1.131,0.561c0.454,0.182,0.83,0.349,1.128,0.502c0.298,0.154,0.536,0.312,0.714,0.477
	c0.178,0.164,0.302,0.344,0.373,0.539c0.071,0.195,0.106,0.424,0.106,0.688c0,0.547-0.187,0.967-0.561,1.26
	c-0.373,0.293-0.951,0.439-1.732,0.439c-0.244,0-0.491-0.019-0.74-0.056c-0.249-0.036-0.491-0.084-0.725-0.144
	c-0.234-0.059-0.458-0.125-0.67-0.201c-0.212-0.075-0.401-0.151-0.567-0.229v1.304c0.317,0.166,0.711,0.291,1.183,0.377
	c0.471,0.086,0.978,0.129,1.52,0.129c0.562,0,1.067-0.067,1.516-0.201c0.449-0.135,0.83-0.331,1.143-0.59
	c0.313-0.26,0.553-0.575,0.722-0.948c0.168-0.374,0.252-0.798,0.252-1.271C24.06,45.617,24.002,45.251,23.888,44.944z"/>
<path fill="#FFFFFF" d="M25.898,48.552c0.049,0.129,0.115,0.234,0.198,0.318c0.083,0.082,0.181,0.144,0.293,0.184
	c0.112,0.037,0.234,0.059,0.366,0.059c0.127,0,0.248-0.021,0.362-0.059c0.115-0.04,0.214-0.102,0.297-0.184
	c0.083-0.084,0.149-0.189,0.198-0.318c0.049-0.131,0.073-0.284,0.073-0.465c0-0.187-0.024-0.344-0.073-0.473
	c-0.049-0.131-0.115-0.234-0.198-0.316c-0.083-0.08-0.182-0.139-0.297-0.176c-0.115-0.035-0.235-0.055-0.362-0.055
	c-0.132,0-0.254,0.02-0.366,0.055c-0.112,0.037-0.21,0.096-0.293,0.176c-0.083,0.082-0.149,0.187-0.198,0.316
	c-0.049,0.129-0.073,0.286-0.073,0.473C25.825,48.268,25.85,48.421,25.898,48.552z"/>
<path fill="#FFFFFF" d="M35.786,47.699h-4.197V43.89h3.918v-1.188h-3.918v-3.311h4.197v-1.201h-5.559v10.708h5.559V47.699z"/>
<path fill="#FFFFFF" d="M44.318,48.899v-5.252c0-1.024-0.227-1.771-0.678-2.237c-0.451-0.466-1.125-0.699-2.018-0.699
	c-0.234,0-0.465,0.024-0.689,0.074c-0.224,0.049-0.437,0.125-0.637,0.227c-0.199,0.104-0.385,0.23-0.553,0.385
	c-0.169,0.154-0.314,0.336-0.436,0.546h-0.074l-0.189-1.084h-1.084V48.9h1.333v-4.168c0-0.468,0.035-0.883,0.106-1.244
	c0.07-0.361,0.188-0.667,0.352-0.916c0.164-0.248,0.38-0.438,0.648-0.564c0.269-0.125,0.601-0.188,0.996-0.188
	c0.547,0,0.947,0.158,1.203,0.476c0.258,0.317,0.385,0.795,0.385,1.43v5.178h1.334V48.899z"/>
<path fill="#FFFFFF" d="M50.665,49.017c0.213-0.02,0.418-0.051,0.614-0.096c0.199-0.045,0.392-0.101,0.578-0.168
	c0.188-0.068,0.381-0.148,0.576-0.242v-1.186c-0.19,0.088-0.379,0.166-0.563,0.236c-0.187,0.07-0.377,0.13-0.574,0.176
	c-0.198,0.047-0.403,0.082-0.616,0.105c-0.212,0.025-0.441,0.037-0.691,0.037c-0.736,0-1.293-0.223-1.666-0.666
	c-0.373-0.444-0.572-1.139-0.598-2.08h5.068v-0.827c0-0.537-0.072-1.027-0.216-1.47c-0.146-0.441-0.351-0.819-0.619-1.135
	c-0.269-0.314-0.597-0.56-0.981-0.732c-0.386-0.174-0.819-0.26-1.304-0.26c-0.493,0-0.942,0.095-1.353,0.285
	c-0.407,0.189-0.758,0.467-1.051,0.832c-0.293,0.362-0.52,0.807-0.682,1.328c-0.16,0.521-0.24,1.116-0.24,1.779
	c0,0.66,0.088,1.246,0.264,1.758c0.176,0.514,0.423,0.943,0.742,1.29c0.32,0.347,0.703,0.61,1.146,0.791s0.936,0.271,1.473,0.271
	C50.223,49.046,50.453,49.037,50.665,49.017z M50.42,41.978c0.215,0.107,0.393,0.26,0.53,0.455c0.141,0.195,0.241,0.432,0.309,0.706
	c0.066,0.276,0.099,0.579,0.099,0.911h-3.604c0.055-0.727,0.243-1.281,0.566-1.661c0.324-0.382,0.767-0.571,1.322-0.571
	C49.945,41.817,50.205,41.871,50.42,41.978z"/>
<path fill="#FFFFFF" d="M57.568,40.847c-0.215,0.09-0.409,0.21-0.582,0.357c-0.174,0.149-0.33,0.321-0.471,0.518
	c-0.139,0.195-0.27,0.398-0.391,0.607h-0.059l-0.162-1.473H54.82v8.042h1.334v-4.336c0-0.396,0.049-0.756,0.148-1.08
	c0.102-0.325,0.241-0.604,0.426-0.835c0.184-0.232,0.401-0.41,0.655-0.535c0.255-0.123,0.534-0.188,0.843-0.188
	c0.127,0,0.262,0.01,0.405,0.025c0.146,0.018,0.285,0.039,0.423,0.062l0.176-1.23c-0.127-0.023-0.279-0.043-0.455-0.055
	c-0.176-0.014-0.334-0.02-0.477-0.02C58.027,40.71,57.783,40.755,57.568,40.847z"/>
<path fill="#FFFFFF" d="M64.195,40.857c-0.131-0.044-0.293-0.079-0.485-0.105s-0.38-0.041-0.562-0.041
	c-0.474,0-0.889,0.063-1.244,0.19c-0.356,0.127-0.654,0.312-0.895,0.55c-0.24,0.239-0.42,0.529-0.542,0.871s-0.183,0.73-0.183,1.165
	c0,0.248,0.031,0.49,0.098,0.726c0.066,0.233,0.159,0.449,0.279,0.647c0.119,0.197,0.266,0.373,0.439,0.527
	c0.172,0.153,0.364,0.274,0.573,0.362c-0.336,0.205-0.583,0.416-0.739,0.633c-0.156,0.218-0.233,0.476-0.233,0.772
	c0,0.259,0.065,0.488,0.198,0.688c0.131,0.199,0.3,0.347,0.504,0.439c-0.229,0.053-0.449,0.131-0.662,0.233
	s-0.398,0.233-0.561,0.396c-0.16,0.162-0.289,0.354-0.385,0.575c-0.095,0.222-0.145,0.479-0.145,0.772
	c0,0.347,0.064,0.658,0.195,0.934c0.129,0.275,0.322,0.512,0.582,0.707c0.258,0.195,0.584,0.346,0.975,0.446
	c0.391,0.103,0.847,0.153,1.369,0.153c0.679,0,1.269-0.062,1.77-0.189c0.5-0.127,0.914-0.309,1.241-0.546
	c0.327-0.236,0.569-0.526,0.729-0.867c0.157-0.342,0.237-0.729,0.237-1.157c0-0.299-0.044-0.58-0.132-0.847s-0.23-0.496-0.43-0.69
	c-0.196-0.195-0.453-0.352-0.766-0.467c-0.312-0.113-0.695-0.172-1.148-0.172h-1.289c-0.151,0-0.297-0.007-0.434-0.021
	s-0.255-0.043-0.355-0.088c-0.1-0.043-0.178-0.105-0.236-0.188c-0.059-0.08-0.088-0.188-0.088-0.318
	c0-0.117,0.021-0.225,0.062-0.322s0.094-0.186,0.16-0.264c0.065-0.078,0.139-0.146,0.219-0.209c0.082-0.061,0.164-0.115,0.246-0.164
	c0.068,0.014,0.156,0.022,0.265,0.025c0.106,0.002,0.215,0.004,0.321,0.004c0.455,0,0.853-0.064,1.193-0.193
	c0.342-0.131,0.629-0.31,0.861-0.539c0.23-0.229,0.404-0.502,0.52-0.816s0.172-0.657,0.172-1.028c0-0.338-0.045-0.64-0.139-0.905
	c-0.093-0.266-0.207-0.484-0.344-0.654l1.441-0.198v-0.827H64.195z M61.064,49.49c0.101-0.189,0.228-0.337,0.381-0.443
	c0.154-0.107,0.324-0.182,0.511-0.221s0.362-0.059,0.534-0.059h1.289c0.316,0,0.586,0.016,0.806,0.044s0.396,0.084,0.531,0.165
	c0.134,0.08,0.229,0.191,0.288,0.333c0.06,0.142,0.089,0.323,0.089,0.55c0,0.525-0.228,0.932-0.679,1.212s-1.131,0.421-2.039,0.421
	c-0.352,0-0.646-0.033-0.883-0.099c-0.236-0.065-0.428-0.155-0.572-0.269c-0.144-0.111-0.246-0.246-0.311-0.402
	s-0.096-0.324-0.096-0.506C60.915,49.919,60.966,49.677,61.064,49.49z M61.979,42.109c0.258-0.292,0.629-0.438,1.112-0.438
	c0.488,0,0.86,0.142,1.117,0.424c0.256,0.283,0.385,0.726,0.385,1.326c0,0.58-0.127,1.007-0.377,1.277
	c-0.252,0.271-0.622,0.406-1.11,0.406c-0.482,0-0.855-0.137-1.119-0.41s-0.396-0.689-0.396-1.252
	C61.589,42.848,61.719,42.403,61.979,42.109z"/>
<path fill="#FFFFFF" d="M70.275,48.973l-0.418,1.172c-0.072,0.2-0.154,0.378-0.246,0.535c-0.09,0.155-0.197,0.286-0.324,0.396
	c-0.127,0.106-0.275,0.188-0.446,0.245c-0.172,0.056-0.374,0.084-0.608,0.084c-0.17,0-0.334-0.009-0.49-0.024
	c-0.156-0.019-0.285-0.039-0.389-0.062v1.062c0.133,0.029,0.291,0.058,0.477,0.084c0.186,0.027,0.406,0.041,0.66,0.041
	c0.391,0,0.727-0.061,1.01-0.18s0.529-0.289,0.74-0.51c0.21-0.22,0.395-0.486,0.553-0.802s0.307-0.671,0.443-1.065l3.179-9.09
	h-1.377l-1.458,4.477c-0.053,0.16-0.115,0.355-0.188,0.584c-0.07,0.23-0.139,0.463-0.205,0.701c-0.064,0.235-0.125,0.459-0.179,0.67
	c-0.055,0.209-0.094,0.375-0.116,0.498h-0.045c-0.021-0.172-0.052-0.356-0.096-0.558s-0.098-0.407-0.156-0.623
	c-0.062-0.214-0.128-0.429-0.199-0.644c-0.07-0.215-0.14-0.42-0.207-0.615l-1.575-4.49H67.23L70.275,48.973z"/>
<path fill="#FFFFFF" d="M6.123,59.408c0.361,0.111,0.696,0.245,1.003,0.401l0.571-1.142c-0.386-0.205-0.818-0.361-1.296-0.471
	c-0.479-0.105-0.981-0.16-1.509-0.16c-0.791,0-1.492,0.135-2.102,0.402s-1.122,0.645-1.535,1.128s-0.725,1.062-0.938,1.736
	C0.106,61.978,0,62.721,0,63.53c0,0.826,0.093,1.578,0.278,2.257c0.186,0.68,0.47,1.26,0.854,1.743
	C1.515,68.014,2,68.387,2.585,68.65c0.585,0.264,1.279,0.396,2.08,0.396c0.288,0,0.55-0.01,0.788-0.025
	c0.237-0.018,0.458-0.043,0.667-0.077c0.208-0.034,0.406-0.079,0.597-0.136c0.19-0.057,0.381-0.121,0.571-0.193v-1.188
	c-0.381,0.113-0.767,0.212-1.157,0.297c-0.391,0.086-0.803,0.128-1.238,0.128c-0.576,0-1.079-0.095-1.509-0.285
	c-0.43-0.19-0.789-0.469-1.077-0.835c-0.288-0.365-0.504-0.816-0.648-1.352c-0.144-0.534-0.216-1.146-0.216-1.834
	c0-0.67,0.082-1.271,0.245-1.803c0.164-0.531,0.396-0.984,0.696-1.354c0.3-0.371,0.663-0.655,1.088-0.854
	c0.425-0.197,0.898-0.296,1.421-0.296C5.352,59.24,5.762,59.294,6.123,59.408z"/>
<path fill="#FFFFFF" d="M15.7,63.095c-0.174-0.516-0.416-0.949-0.725-1.305c-0.311-0.354-0.678-0.621-1.103-0.806
	c-0.425-0.183-0.889-0.274-1.392-0.274c-0.542,0-1.032,0.093-1.468,0.274c-0.438,0.185-0.807,0.452-1.11,0.806
	C9.6,62.146,9.366,62.58,9.203,63.095c-0.164,0.516-0.246,1.105-0.246,1.77c0,0.67,0.086,1.264,0.26,1.783
	c0.173,0.52,0.415,0.957,0.725,1.311c0.31,0.354,0.678,0.625,1.103,0.811c0.425,0.186,0.889,0.277,1.392,0.277
	c0.542,0,1.03-0.092,1.465-0.277s0.804-0.455,1.11-0.811c0.305-0.354,0.539-0.791,0.703-1.311c0.164-0.521,0.246-1.113,0.246-1.783
	C15.959,64.201,15.873,63.61,15.7,63.095z M10.829,62.576c0.329-0.507,0.87-0.759,1.622-0.759s1.295,0.252,1.629,0.759
	c0.334,0.504,0.502,1.268,0.502,2.289c0,1.02-0.165,1.787-0.495,2.303s-0.87,0.771-1.622,0.771s-1.295-0.257-1.629-0.771
	c-0.335-0.516-0.502-1.283-0.502-2.303C10.334,63.843,10.5,63.08,10.829,62.576z"/>
<path fill="#FFFFFF" d="M29.026,68.899v-5.252c0-1.024-0.216-1.771-0.648-2.237c-0.432-0.466-1.076-0.699-1.93-0.699
	c-0.244,0-0.483,0.027-0.718,0.082c-0.235,0.054-0.458,0.135-0.67,0.244s-0.407,0.248-0.585,0.414
	c-0.179,0.166-0.331,0.363-0.458,0.594h-0.059c-0.186-0.459-0.472-0.797-0.861-1.012c-0.388-0.215-0.875-0.322-1.461-0.322
	c-0.225,0-0.446,0.024-0.663,0.074c-0.217,0.049-0.422,0.125-0.615,0.227c-0.193,0.104-0.37,0.23-0.531,0.385
	c-0.161,0.154-0.3,0.336-0.417,0.546h-0.073l-0.19-1.084h-1.084V68.9h1.333v-4.168c0-0.468,0.033-0.883,0.099-1.244
	s0.176-0.667,0.33-0.916c0.153-0.248,0.357-0.438,0.611-0.564c0.254-0.125,0.569-0.188,0.945-0.188c0.513,0,0.89,0.158,1.132,0.476
	c0.242,0.318,0.362,0.795,0.362,1.43v5.178h1.34v-4.438c0-0.43,0.037-0.811,0.11-1.139c0.073-0.33,0.189-0.605,0.348-0.828
	c0.159-0.223,0.363-0.392,0.612-0.506c0.249-0.115,0.552-0.172,0.908-0.172c0.513,0,0.891,0.158,1.135,0.477
	c0.244,0.318,0.366,0.793,0.366,1.429v5.178h1.332V68.899z"/>
<path fill="#FFFFFF" d="M36.387,68.778c0.376-0.178,0.697-0.442,0.963-0.794c0.266-0.354,0.473-0.788,0.619-1.309
	c0.146-0.521,0.221-1.125,0.221-1.811c0-0.685-0.073-1.285-0.221-1.804c-0.146-0.517-0.353-0.95-0.619-1.3s-0.587-0.611-0.963-0.787
	c-0.376-0.176-0.793-0.264-1.252-0.264c-0.293,0-0.557,0.033-0.791,0.099c-0.234,0.065-0.446,0.153-0.634,0.265
	c-0.188,0.109-0.353,0.238-0.494,0.389c-0.142,0.147-0.269,0.309-0.381,0.479h-0.059l-0.19-1.084h-1.084v11.646h1.333v-3.436
	c0-0.078-0.005-0.186-0.015-0.318c-0.01-0.135-0.02-0.266-0.029-0.393c-0.015-0.15-0.029-0.311-0.044-0.477h0.088
	c0.112,0.156,0.24,0.306,0.384,0.447c0.144,0.141,0.31,0.264,0.498,0.369c0.188,0.104,0.399,0.189,0.634,0.254
	c0.234,0.062,0.496,0.094,0.784,0.094C35.593,69.046,36.011,68.957,36.387,68.778z M36.346,62.571
	c0.31,0.503,0.465,1.263,0.465,2.277c0,0.995-0.155,1.761-0.465,2.293s-0.794,0.798-1.454,0.798c-0.396,0-0.725-0.066-0.989-0.201
	c-0.264-0.134-0.475-0.332-0.633-0.593c-0.159-0.263-0.271-0.584-0.337-0.968c-0.066-0.383-0.099-0.82-0.099-1.313v-0.301
	c0.01-0.464,0.052-0.866,0.128-1.208s0.193-0.628,0.352-0.857c0.159-0.229,0.366-0.399,0.623-0.513
	c0.256-0.112,0.57-0.168,0.941-0.168C35.547,61.817,36.036,62.068,36.346,62.571z"/>
<path fill="#FFFFFF" d="M45.784,68.899v-5.508c0-0.479-0.06-0.886-0.177-1.224c-0.116-0.338-0.295-0.613-0.53-0.832
	c-0.237-0.217-0.537-0.375-0.901-0.476c-0.363-0.101-0.794-0.149-1.292-0.149c-0.487,0-0.954,0.067-1.399,0.205
	c-0.443,0.137-0.846,0.303-1.207,0.498l0.469,1.004c0.322-0.166,0.656-0.31,1.006-0.426c0.35-0.117,0.727-0.176,1.133-0.176
	c0.254,0,0.479,0.029,0.678,0.088c0.197,0.059,0.363,0.154,0.498,0.289c0.133,0.135,0.236,0.312,0.308,0.531
	c0.069,0.219,0.106,0.492,0.106,0.82v0.504L43.126,64.1c-1.151,0.04-2.011,0.274-2.575,0.704c-0.562,0.43-0.846,1.045-0.846,1.846
	c0,0.41,0.059,0.766,0.176,1.064c0.117,0.301,0.279,0.55,0.487,0.748c0.208,0.197,0.452,0.344,0.735,0.438s0.594,0.144,0.932,0.144
	c0.307,0,0.578-0.024,0.812-0.073c0.233-0.05,0.446-0.125,0.637-0.228s0.367-0.232,0.527-0.393c0.161-0.158,0.321-0.348,0.483-0.566
	h0.06l0.271,1.112h0.959V68.899z M41.443,67.654c-0.236-0.21-0.354-0.539-0.354-0.988c0-0.248,0.039-0.473,0.117-0.67
	s0.206-0.367,0.385-0.506c0.179-0.14,0.416-0.248,0.714-0.326c0.299-0.078,0.668-0.127,1.106-0.146l1.047-0.052v0.726
	c0,0.386-0.054,0.722-0.158,1.007c-0.104,0.286-0.25,0.522-0.437,0.711c-0.186,0.188-0.403,0.328-0.657,0.422
	c-0.254,0.092-0.53,0.139-0.828,0.139C41.992,67.968,41.682,67.865,41.443,67.654z"/>
<path fill="#FFFFFF" d="M54.609,68.899v-5.252c0-1.024-0.227-1.771-0.678-2.237c-0.453-0.466-1.125-0.699-2.019-0.699
	c-0.233,0-0.464,0.024-0.688,0.074c-0.224,0.049-0.438,0.125-0.637,0.227c-0.201,0.104-0.385,0.23-0.554,0.385
	s-0.313,0.336-0.437,0.546h-0.072l-0.19-1.084h-1.084V68.9h1.333v-4.168c0-0.468,0.035-0.883,0.105-1.244s0.188-0.667,0.352-0.916
	c0.164-0.248,0.381-0.438,0.648-0.564c0.27-0.125,0.602-0.188,0.996-0.188c0.547,0,0.948,0.158,1.205,0.476
	c0.256,0.317,0.385,0.795,0.385,1.43v5.178h1.334V68.899z"/>
<path fill="#FFFFFF" d="M58.418,60.857h-1.333v8.042h1.333V60.857z M57.206,59.319c0.147,0.138,0.333,0.205,0.553,0.205
	c0.216,0,0.399-0.069,0.554-0.209c0.153-0.14,0.229-0.351,0.229-0.633c0-0.147-0.021-0.272-0.062-0.378
	c-0.041-0.104-0.099-0.191-0.168-0.26c-0.07-0.069-0.153-0.119-0.25-0.15c-0.095-0.031-0.195-0.047-0.304-0.047
	c-0.22,0-0.403,0.064-0.553,0.197c-0.149,0.131-0.224,0.344-0.224,0.638C56.982,58.971,57.057,59.183,57.206,59.319z"/>
<path fill="#FFFFFF" d="M64.837,69.017c0.213-0.02,0.418-0.051,0.616-0.096c0.197-0.045,0.391-0.101,0.578-0.168
	c0.188-0.068,0.38-0.148,0.574-0.242v-1.186c-0.189,0.088-0.379,0.166-0.563,0.236c-0.187,0.07-0.377,0.13-0.574,0.176
	c-0.196,0.047-0.403,0.082-0.614,0.105c-0.213,0.025-0.443,0.037-0.692,0.037c-0.737,0-1.293-0.223-1.666-0.666
	c-0.374-0.444-0.573-1.139-0.597-2.08h5.067v-0.827c0-0.537-0.071-1.027-0.217-1.47c-0.146-0.441-0.351-0.819-0.619-1.135
	c-0.269-0.314-0.596-0.56-0.979-0.732c-0.387-0.174-0.82-0.26-1.305-0.26c-0.492,0-0.943,0.095-1.352,0.285
	c-0.408,0.189-0.76,0.467-1.053,0.832c-0.293,0.362-0.52,0.807-0.681,1.328c-0.161,0.522-0.241,1.116-0.241,1.779
	c0,0.66,0.088,1.246,0.265,1.758c0.176,0.514,0.423,0.943,0.743,1.29c0.318,0.347,0.701,0.61,1.146,0.791
	c0.445,0.181,0.937,0.271,1.474,0.271C64.395,69.046,64.625,69.037,64.837,69.017z M64.593,61.978
	c0.216,0.107,0.392,0.26,0.531,0.455s0.241,0.432,0.308,0.706c0.065,0.276,0.1,0.579,0.1,0.911h-3.604
	c0.054-0.727,0.242-1.281,0.567-1.661c0.324-0.382,0.765-0.571,1.32-0.571C64.118,61.817,64.378,61.871,64.593,61.978z"/>
<path fill="#FFFFFF" d="M73.652,65.853c-0.104-0.234-0.252-0.443-0.446-0.626c-0.194-0.185-0.433-0.349-0.707-0.495
	c-0.276-0.146-0.59-0.292-0.94-0.438c-0.343-0.143-0.627-0.271-0.857-0.385c-0.229-0.115-0.412-0.229-0.549-0.342
	c-0.137-0.111-0.233-0.23-0.289-0.357c-0.057-0.127-0.084-0.276-0.084-0.447c0-0.303,0.119-0.536,0.357-0.699
	c0.239-0.164,0.608-0.245,1.106-0.245c0.346,0,0.687,0.052,1.021,0.157c0.334,0.104,0.66,0.229,0.979,0.369l0.462-1.076
	c-0.353-0.166-0.726-0.301-1.117-0.402c-0.394-0.103-0.825-0.154-1.301-0.154c-0.42,0-0.802,0.047-1.144,0.141
	c-0.342,0.093-0.635,0.229-0.879,0.409s-0.434,0.403-0.566,0.671c-0.135,0.266-0.201,0.57-0.201,0.912
	c0,0.326,0.052,0.607,0.156,0.846c0.105,0.236,0.257,0.445,0.451,0.626c0.195,0.181,0.434,0.345,0.713,0.491
	c0.281,0.146,0.599,0.295,0.949,0.445c0.352,0.151,0.641,0.289,0.864,0.41c0.224,0.123,0.401,0.244,0.531,0.362
	c0.129,0.12,0.218,0.241,0.267,0.363s0.074,0.259,0.074,0.409c0,0.176-0.031,0.336-0.096,0.479
	c-0.063,0.144-0.165,0.267-0.305,0.366s-0.319,0.177-0.541,0.23c-0.224,0.053-0.492,0.08-0.811,0.08
	c-0.215,0-0.432-0.019-0.646-0.056c-0.22-0.036-0.431-0.084-0.636-0.144c-0.204-0.059-0.399-0.125-0.586-0.2
	c-0.187-0.076-0.354-0.152-0.505-0.229v1.215c0.288,0.166,0.622,0.291,1.003,0.377s0.838,0.129,1.37,0.129
	c0.469,0,0.893-0.049,1.268-0.146c0.377-0.098,0.696-0.245,0.963-0.443c0.267-0.197,0.471-0.441,0.611-0.735
	c0.143-0.294,0.213-0.634,0.213-1.025C73.807,66.369,73.755,66.087,73.652,65.853z"/>
</svg>
