<?xml version="1.0" encoding="utf-8"?>
<!-- Generator: Adobe Illustrator 15.0.0, SVG Export Plug-In . SVG Version: 6.00 Build 0)  -->
<!DOCTYPE svg PUBLIC "-//W3C//DTD SVG 1.1//EN" "http://www.w3.org/Graphics/SVG/1.1/DTD/svg11.dtd">
<svg version="1.1" id="Layer_1" xmlns="http://www.w3.org/2000/svg" xmlns:xlink="http://www.w3.org/1999/xlink" x="0px" y="0px"
	 width="77.086px" height="69.045px" viewBox="0 0 77.086 69.045" enable-background="new 0 0 77.086 69.045" xml:space="preserve">
<path fill="#FFFFFF" d="M8.76,5.013l-1.967-4.75H6.169v8.635h0.564V1.427l0.024-0.024L8.76,6.201l2.003-4.798h0.024v7.496h0.563
	V0.264h-0.624L8.76,5.013z"/>
<path fill="#FFFFFF" d="M17.951,8.959c-0.168-0.528-0.324-1.104-0.312-1.715l0.072-2.59c0.036-1.416-0.659-2.231-1.823-2.231
	c-0.6,0-1.139,0.168-1.691,0.384l0.132,0.516c0.503-0.228,0.971-0.419,1.523-0.419c1.043,0,1.332,0.671,1.295,2.279
	c-0.444-0.216-1.031-0.42-1.547-0.42c-1.223,0-1.907,1.043-1.907,2.255c0,1.067,0.6,2.015,1.763,2.015
	c0.827,0,1.295-0.443,1.739-1.079c0.036,0.359,0.12,0.731,0.24,1.079L17.951,8.959z M17.111,7.268
	c-0.384,0.647-0.863,1.283-1.655,1.283c-0.804,0-1.2-0.78-1.2-1.487c0-0.936,0.42-1.823,1.476-1.823c0.503,0,0.983,0.18,1.379,0.384
	V7.268z"/>
<path fill="#FFFFFF" d="M22.152,6.32c0-2.411,1.439-3.418,2.086-3.418c0.768,0,0.804,0.852,0.816,1.439h0.563
	c0-0.863-0.276-1.919-1.331-1.919c-1.092,0-1.751,0.983-2.171,1.859L21.9,2.482h-0.54l0.228,2.027v4.39h0.564V6.32z"/>
<path fill="#FFFFFF" d="M32.446,7.556c-0.432,0.516-1.031,0.996-1.727,0.996c-0.923,0-2.075-0.672-2.075-2.854
	c0-2.303,1.247-2.794,2.039-2.794c0.78,0,1.343,0.479,1.679,1.139l0.504-0.336c-0.516-0.779-1.224-1.283-2.183-1.283
	c-1.187,0-2.603,0.804-2.603,3.37c0,2.543,1.535,3.238,2.651,3.238c0.899,0,1.511-0.432,2.099-1.067L32.446,7.556z"/>
<path fill="#FFFFFF" d="M35.521,8.899h0.563v-3.19c0-1.475,0.972-2.806,2.039-2.806c0.936,0,1.043,1.211,1.043,2.015V8.9h0.562
	V4.282c0-1.392-0.923-1.859-1.511-1.859c-0.959,0-1.727,0.72-2.111,1.511h-0.024V0H35.52L35.521,8.899L35.521,8.899z"/>
<path fill="#FFFFFF" d="M50.245,8.419c0.023-1.224,0.299-1.847,2.098-3.454c0.865-0.768,1.896-1.595,1.896-2.854
	c0-1.248-0.792-2.015-2.039-2.015c-1.414,0-2.205,0.983-2.313,2.327h0.563c0.071-1.007,0.647-1.847,1.738-1.847
	c0.911,0,1.486,0.6,1.486,1.499c0,1.115-1.114,1.991-1.883,2.663c-1.799,1.571-2.11,2.279-2.11,4.162h4.594V8.419H50.245z"/>
<path fill="#FFFFFF" d="M61.534,4.582c0-0.912-0.022-2.003-0.324-2.867c-0.322-0.923-1.006-1.619-2.051-1.619
	c-1.091,0-1.775,0.744-2.086,1.715c-0.265,0.804-0.289,1.919-0.289,2.771c0,0.911,0.024,2.015,0.324,2.866
	c0.324,0.923,1.02,1.619,2.051,1.619c1.08,0,1.775-0.744,2.088-1.715C61.51,6.56,61.534,5.421,61.534,4.582z M60.97,4.582
	c0,0.708-0.024,1.667-0.181,2.338c-0.203,0.816-0.685,1.679-1.631,1.679c-0.888,0-1.38-0.779-1.584-1.535
	c-0.216-0.744-0.228-1.715-0.228-2.482c0-0.708,0.022-1.655,0.18-2.339c0.204-0.815,0.685-1.679,1.632-1.679
	c0.887,0,1.379,0.78,1.584,1.547C60.958,2.842,60.97,3.814,60.97,4.582z"/>
<path fill="#FFFFFF" d="M68.733,4.582c0-0.912-0.023-2.003-0.322-2.867c-0.324-0.923-1.008-1.619-2.052-1.619
	c-1.091,0-1.774,0.744-2.087,1.715c-0.264,0.804-0.287,1.919-0.287,2.771c0,0.911,0.023,2.015,0.323,2.866
	c0.323,0.923,1.021,1.619,2.051,1.619c1.079,0,1.774-0.744,2.087-1.715C68.709,6.56,68.733,5.421,68.733,4.582z M68.17,4.582
	c0,0.708-0.024,1.667-0.182,2.338c-0.203,0.816-0.684,1.679-1.631,1.679c-0.888,0-1.38-0.779-1.583-1.535
	c-0.216-0.744-0.229-1.715-0.229-2.482c0-0.708,0.024-1.655,0.181-2.339c0.205-0.815,0.685-1.679,1.632-1.679
	c0.889,0,1.38,0.78,1.583,1.547C68.159,2.842,68.17,3.814,68.17,4.582z"/>
<path fill="#FFFFFF" d="M71.844,8.419c0.023-1.224,0.299-1.847,2.098-3.454c0.864-0.768,1.896-1.595,1.896-2.854
	c0-1.248-0.793-2.015-2.039-2.015c-1.416,0-2.207,0.983-2.314,2.327h0.562c0.072-1.007,0.648-1.847,1.74-1.847
	c0.91,0,1.486,0.6,1.486,1.499c0,1.115-1.115,1.991-1.883,2.663C71.592,6.309,71.28,7.017,71.28,8.9h4.594V8.419H71.844z"/>
<path fill="#FFFFFF" d="M4.431,19.392h3.054v-1.201H0v1.201h3.062v9.507h1.37L4.431,19.392L4.431,19.392z"/>
<path fill="#FFFFFF" d="M15.271,28.899v-5.251c0-1.025-0.226-1.771-0.677-2.238c-0.452-0.466-1.125-0.699-2.018-0.699
	c-0.234,0-0.464,0.024-0.688,0.073c-0.224,0.049-0.437,0.125-0.637,0.227c-0.2,0.102-0.385,0.231-0.553,0.384
	c-0.169,0.154-0.314,0.336-0.436,0.546h-0.073l0.059-1.055v-3.384H8.914v11.396h1.333v-4.167c0-0.469,0.035-0.884,0.106-1.245
	c0.071-0.361,0.188-0.667,0.352-0.916s0.38-0.437,0.648-0.564s0.601-0.19,0.996-0.19c0.547,0,0.949,0.159,1.205,0.476
	c0.257,0.317,0.385,0.793,0.385,1.428v5.178L15.271,28.899L15.271,28.899z"/>
<path fill="#FFFFFF" d="M21.618,29.016c0.212-0.02,0.417-0.051,0.615-0.095c0.198-0.044,0.391-0.1,0.579-0.168
	s0.38-0.149,0.575-0.242v-1.187c-0.19,0.088-0.378,0.167-0.564,0.238c-0.186,0.071-0.377,0.13-0.575,0.176
	c-0.198,0.047-0.403,0.082-0.616,0.106c-0.213,0.024-0.443,0.037-0.692,0.037c-0.737,0-1.292-0.222-1.667-0.667
	c-0.374-0.444-0.572-1.138-0.597-2.08h5.068v-0.828c0-0.537-0.072-1.026-0.216-1.468s-0.35-0.82-0.619-1.135
	s-0.596-0.559-0.981-0.733c-0.386-0.173-0.82-0.26-1.304-0.26c-0.493,0-0.944,0.095-1.352,0.286
	c-0.408,0.191-0.758,0.468-1.051,0.832c-0.293,0.364-0.52,0.807-0.681,1.329c-0.161,0.522-0.242,1.116-0.242,1.78
	c0,0.659,0.088,1.245,0.264,1.758c0.176,0.513,0.423,0.942,0.743,1.289c0.32,0.347,0.702,0.61,1.146,0.791
	c0.444,0.181,0.935,0.271,1.472,0.271C21.174,29.045,21.405,29.036,21.618,29.016z M21.372,21.978
	c0.215,0.107,0.392,0.259,0.531,0.454c0.14,0.195,0.242,0.431,0.308,0.707c0.066,0.276,0.099,0.58,0.099,0.912h-3.604
	c0.054-0.728,0.243-1.282,0.567-1.663c0.324-0.381,0.766-0.571,1.322-0.571C20.898,21.816,21.157,21.87,21.372,21.978z"/>
<path fill="#FFFFFF" d="M29.854,28.899h3.552c0.542,0,1.028-0.071,1.458-0.212c0.43-0.141,0.794-0.345,1.095-0.612
	c0.3-0.266,0.53-0.59,0.689-0.974c0.158-0.384,0.238-0.819,0.238-1.308c0-0.42-0.062-0.776-0.19-1.069
	c-0.127-0.293-0.3-0.536-0.52-0.729c-0.22-0.193-0.478-0.345-0.772-0.454c-0.296-0.11-0.612-0.194-0.949-0.253v-0.073
	c0.337-0.044,0.638-0.133,0.904-0.267c0.266-0.134,0.49-0.302,0.67-0.502c0.18-0.2,0.318-0.432,0.414-0.696
	c0.096-0.264,0.143-0.547,0.143-0.85c0-0.503-0.081-0.927-0.242-1.271c-0.161-0.344-0.402-0.623-0.721-0.835
	c-0.32-0.213-0.718-0.366-1.194-0.462c-0.476-0.095-1.026-0.143-1.651-0.143h-2.922v10.71H29.854z M31.216,19.355h1.633
	c0.811,0,1.404,0.127,1.78,0.381c0.376,0.254,0.564,0.674,0.564,1.26c0,0.288-0.038,0.541-0.113,0.758
	c-0.076,0.217-0.199,0.398-0.37,0.542s-0.396,0.252-0.674,0.326c-0.278,0.074-0.623,0.11-1.033,0.11h-1.787V19.355z M33.076,23.875
	c0.449,0,0.825,0.045,1.128,0.136c0.303,0.091,0.545,0.217,0.729,0.381s0.315,0.36,0.396,0.589s0.121,0.481,0.121,0.754
	c0,0.298-0.039,0.57-0.117,0.816c-0.078,0.247-0.207,0.458-0.384,0.634c-0.179,0.176-0.413,0.312-0.704,0.41
	c-0.291,0.098-0.65,0.146-1.08,0.146h-1.948v-3.867L33.076,23.875L33.076,23.875z"/>
<path fill="#FFFFFF" d="M40.32,20.857h-1.333v8.042h1.333V20.857z M39.107,19.319c0.149,0.137,0.333,0.205,0.554,0.205
	c0.215,0,0.398-0.069,0.553-0.208s0.229-0.351,0.229-0.634c0-0.146-0.021-0.272-0.062-0.377c-0.041-0.104-0.098-0.191-0.168-0.26
	c-0.07-0.069-0.153-0.118-0.248-0.15c-0.096-0.032-0.197-0.048-0.305-0.048c-0.221,0-0.404,0.066-0.554,0.198
	c-0.149,0.132-0.223,0.344-0.223,0.637C38.884,18.97,38.958,19.182,39.107,19.319z"/>
<path fill="#FFFFFF" d="M46.407,20.857c-0.133-0.044-0.295-0.079-0.488-0.106c-0.191-0.026-0.379-0.04-0.56-0.04
	c-0.474,0-0.889,0.063-1.245,0.19c-0.355,0.127-0.654,0.31-0.894,0.549c-0.24,0.239-0.421,0.53-0.542,0.872
	c-0.122,0.342-0.184,0.73-0.184,1.165c0,0.249,0.032,0.491,0.1,0.725c0.066,0.234,0.158,0.45,0.277,0.648
	c0.119,0.197,0.267,0.373,0.438,0.527c0.174,0.153,0.364,0.274,0.576,0.362c-0.339,0.205-0.585,0.417-0.74,0.634
	c-0.155,0.217-0.233,0.475-0.233,0.772c0,0.259,0.065,0.488,0.196,0.688c0.134,0.2,0.302,0.347,0.507,0.439
	c-0.229,0.054-0.451,0.132-0.664,0.234c-0.211,0.102-0.398,0.234-0.56,0.396c-0.162,0.161-0.29,0.353-0.386,0.575
	c-0.096,0.222-0.143,0.479-0.143,0.772c0,0.347,0.064,0.658,0.193,0.934s0.324,0.512,0.582,0.707
	c0.26,0.195,0.584,0.344,0.975,0.447s0.848,0.154,1.369,0.154c0.68,0,1.27-0.063,1.77-0.19s0.914-0.309,1.242-0.546
	c0.326-0.237,0.568-0.526,0.729-0.868c0.16-0.342,0.238-0.728,0.238-1.157c0-0.298-0.045-0.58-0.133-0.846s-0.229-0.497-0.428-0.692
	c-0.197-0.195-0.453-0.35-0.766-0.465c-0.312-0.114-0.696-0.172-1.15-0.172h-1.289c-0.15,0-0.295-0.007-0.432-0.022
	s-0.256-0.044-0.355-0.088c-0.101-0.044-0.18-0.106-0.238-0.187c-0.058-0.081-0.088-0.187-0.088-0.319
	c0-0.117,0.021-0.225,0.062-0.322c0.041-0.098,0.096-0.186,0.16-0.264c0.066-0.078,0.141-0.147,0.221-0.209
	c0.08-0.061,0.162-0.116,0.245-0.165c0.067,0.015,0.155,0.023,0.265,0.026c0.106,0.002,0.215,0.003,0.321,0.003
	c0.454,0,0.853-0.065,1.194-0.194c0.342-0.129,0.628-0.309,0.859-0.539c0.231-0.229,0.405-0.501,0.521-0.817
	c0.114-0.314,0.173-0.658,0.173-1.029c0-0.337-0.047-0.638-0.141-0.905c-0.092-0.266-0.207-0.484-0.344-0.655l1.442-0.198v-0.828
	h-2.655V20.857z M43.275,29.489c0.101-0.188,0.228-0.336,0.382-0.443c0.153-0.107,0.322-0.181,0.508-0.22
	c0.187-0.039,0.364-0.059,0.535-0.059h1.289c0.317,0,0.586,0.015,0.807,0.044c0.22,0.029,0.396,0.084,0.531,0.165
	c0.133,0.081,0.229,0.191,0.289,0.333c0.059,0.142,0.088,0.325,0.088,0.549c0,0.527-0.227,0.931-0.679,1.212
	c-0.452,0.28-1.132,0.421-2.04,0.421c-0.352,0-0.646-0.033-0.883-0.099s-0.428-0.155-0.57-0.268
	c-0.145-0.112-0.248-0.247-0.312-0.403c-0.063-0.156-0.095-0.325-0.095-0.505C43.125,29.919,43.174,29.676,43.275,29.489z
	 M44.187,22.109c0.259-0.293,0.63-0.439,1.112-0.439c0.488,0,0.861,0.142,1.117,0.425c0.256,0.283,0.385,0.725,0.385,1.326
	c0,0.581-0.125,1.007-0.377,1.278s-0.621,0.406-1.109,0.406c-0.482,0-0.857-0.137-1.121-0.41s-0.395-0.691-0.395-1.252
	C43.799,22.847,43.928,22.402,44.187,22.109z"/>
<path fill="#FFFFFF" d="M54.325,20.857c-0.133-0.044-0.295-0.079-0.488-0.106c-0.192-0.026-0.379-0.04-0.561-0.04
	c-0.473,0-0.889,0.063-1.244,0.19c-0.357,0.127-0.654,0.31-0.895,0.549c-0.238,0.239-0.42,0.53-0.541,0.872
	c-0.123,0.342-0.184,0.73-0.184,1.165c0,0.249,0.032,0.491,0.099,0.725c0.065,0.234,0.159,0.45,0.278,0.648
	c0.119,0.197,0.266,0.373,0.438,0.527c0.174,0.153,0.364,0.274,0.575,0.362c-0.338,0.205-0.583,0.417-0.739,0.634
	c-0.155,0.217-0.233,0.475-0.233,0.772c0,0.259,0.064,0.488,0.196,0.688c0.132,0.2,0.302,0.347,0.507,0.439
	c-0.23,0.054-0.451,0.132-0.664,0.234c-0.213,0.103-0.398,0.234-0.561,0.396s-0.29,0.353-0.385,0.575
	c-0.096,0.222-0.143,0.479-0.143,0.772c0,0.347,0.063,0.658,0.193,0.934c0.129,0.276,0.322,0.512,0.582,0.707
	c0.259,0.195,0.584,0.344,0.975,0.447s0.848,0.154,1.369,0.154c0.68,0,1.268-0.063,1.77-0.19c0.5-0.127,0.914-0.309,1.24-0.546
	c0.328-0.237,0.57-0.526,0.729-0.868c0.157-0.342,0.237-0.728,0.237-1.157c0-0.298-0.043-0.58-0.131-0.846s-0.231-0.497-0.431-0.692
	c-0.196-0.195-0.452-0.35-0.765-0.465c-0.312-0.114-0.696-0.172-1.149-0.172h-1.289c-0.151,0-0.296-0.007-0.433-0.022
	s-0.256-0.044-0.355-0.088s-0.179-0.106-0.236-0.187C52.03,27.187,52,27.081,52,26.949c0-0.117,0.02-0.225,0.062-0.322
	c0.041-0.098,0.095-0.186,0.16-0.264c0.065-0.078,0.14-0.147,0.22-0.209c0.081-0.061,0.163-0.116,0.245-0.165
	c0.067,0.015,0.155,0.023,0.265,0.026c0.106,0.002,0.215,0.003,0.321,0.003c0.455,0,0.853-0.065,1.194-0.194
	c0.342-0.129,0.628-0.309,0.859-0.539c0.232-0.23,0.405-0.501,0.521-0.817c0.113-0.314,0.172-0.658,0.172-1.029
	c0-0.337-0.046-0.638-0.141-0.905c-0.092-0.266-0.207-0.484-0.344-0.655l1.443-0.198v-0.828h-2.654V20.857z M51.193,29.489
	c0.101-0.188,0.228-0.336,0.38-0.443c0.154-0.107,0.324-0.181,0.51-0.22c0.187-0.039,0.363-0.059,0.535-0.059h1.289
	c0.316,0,0.586,0.015,0.805,0.044c0.222,0.029,0.396,0.084,0.531,0.165s0.23,0.191,0.289,0.333s0.088,0.325,0.088,0.549
	c0,0.527-0.226,0.931-0.677,1.212c-0.452,0.28-1.132,0.421-2.04,0.421c-0.352,0-0.646-0.033-0.883-0.099s-0.428-0.155-0.57-0.268
	c-0.144-0.113-0.248-0.247-0.312-0.403c-0.062-0.156-0.096-0.325-0.096-0.505C51.042,29.919,51.092,29.676,51.193,29.489z
	 M52.104,22.109c0.26-0.293,0.631-0.439,1.113-0.439c0.488,0,0.861,0.142,1.117,0.425c0.256,0.283,0.385,0.725,0.385,1.326
	c0,0.581-0.127,1.007-0.377,1.278c-0.252,0.271-0.621,0.406-1.109,0.406c-0.484,0-0.857-0.137-1.121-0.41s-0.396-0.691-0.396-1.252
	C51.715,22.847,51.846,22.402,52.104,22.109z"/>
<path fill="#FFFFFF" d="M62.428,29.016c0.212-0.02,0.417-0.051,0.615-0.095c0.197-0.044,0.391-0.1,0.578-0.168
	c0.187-0.068,0.379-0.149,0.574-0.242v-1.187c-0.189,0.088-0.378,0.167-0.562,0.238c-0.187,0.071-0.377,0.13-0.576,0.176
	c-0.197,0.047-0.402,0.082-0.614,0.106c-0.212,0.024-0.442,0.037-0.692,0.037c-0.737,0-1.293-0.222-1.666-0.667
	c-0.375-0.444-0.572-1.138-0.599-2.08h5.068v-0.828c0-0.537-0.072-1.026-0.216-1.468c-0.145-0.442-0.352-0.82-0.618-1.135
	c-0.271-0.315-0.597-0.559-0.982-0.733c-0.385-0.173-0.819-0.26-1.303-0.26c-0.494,0-0.944,0.095-1.353,0.286
	c-0.408,0.19-0.758,0.468-1.051,0.832c-0.293,0.364-0.521,0.807-0.682,1.329c-0.161,0.522-0.242,1.116-0.242,1.78
	c0,0.659,0.088,1.245,0.264,1.758c0.176,0.513,0.424,0.942,0.744,1.289c0.319,0.347,0.701,0.61,1.146,0.791
	c0.443,0.181,0.935,0.271,1.472,0.271C61.985,29.045,62.215,29.036,62.428,29.016z M62.182,21.978
	c0.215,0.107,0.393,0.259,0.531,0.454c0.138,0.195,0.242,0.431,0.308,0.707c0.065,0.276,0.099,0.58,0.099,0.912h-3.604
	c0.055-0.728,0.242-1.282,0.568-1.663c0.324-0.381,0.766-0.571,1.321-0.571C61.709,21.816,61.967,21.87,62.182,21.978z"/>
<path fill="#FFFFFF" d="M71.243,25.852c-0.103-0.234-0.252-0.443-0.447-0.626c-0.194-0.184-0.43-0.348-0.705-0.495
	c-0.276-0.146-0.59-0.293-0.941-0.439c-0.342-0.142-0.628-0.27-0.855-0.384c-0.23-0.115-0.414-0.229-0.551-0.341
	c-0.137-0.112-0.232-0.232-0.289-0.359s-0.084-0.276-0.084-0.447c0-0.303,0.119-0.536,0.358-0.699s0.606-0.246,1.104-0.246
	c0.349,0,0.688,0.053,1.022,0.158s0.66,0.228,0.978,0.37l0.461-1.077c-0.352-0.166-0.724-0.3-1.115-0.403
	c-0.395-0.104-0.827-0.154-1.301-0.154c-0.42,0-0.801,0.046-1.143,0.139c-0.342,0.093-0.635,0.229-0.879,0.41
	c-0.244,0.181-0.434,0.404-0.568,0.67c-0.135,0.266-0.201,0.57-0.201,0.912c0,0.327,0.054,0.609,0.158,0.846
	s0.254,0.445,0.449,0.626s0.434,0.344,0.715,0.491c0.28,0.146,0.598,0.295,0.948,0.447s0.64,0.288,0.864,0.41
	c0.224,0.122,0.4,0.243,0.531,0.362c0.129,0.12,0.219,0.241,0.268,0.363c0.049,0.122,0.072,0.259,0.072,0.41
	c0,0.176-0.031,0.336-0.096,0.48c-0.063,0.144-0.164,0.266-0.304,0.366s-0.319,0.177-0.542,0.23
	c-0.223,0.054-0.492,0.081-0.811,0.081c-0.215,0-0.432-0.018-0.647-0.055c-0.217-0.036-0.428-0.084-0.633-0.143
	s-0.399-0.125-0.586-0.201c-0.187-0.076-0.354-0.153-0.507-0.231v1.216c0.289,0.166,0.623,0.292,1.005,0.377
	c0.381,0.085,0.837,0.128,1.368,0.128c0.47,0,0.892-0.049,1.269-0.146c0.375-0.098,0.696-0.245,0.963-0.443
	c0.267-0.197,0.47-0.443,0.611-0.736c0.142-0.293,0.213-0.635,0.213-1.025C71.397,26.367,71.345,26.086,71.243,25.852z"/>
<path fill="#FFFFFF" d="M75.026,27.595c-0.154-0.239-0.23-0.596-0.23-1.069V21.86h2.021v-1.003h-2.021v-1.846h-0.77l-0.57,1.685
	l-1.137,0.571v0.593h1.137v4.666c0,0.493,0.053,0.902,0.16,1.227c0.107,0.325,0.256,0.582,0.443,0.772s0.411,0.325,0.67,0.403
	c0.259,0.078,0.539,0.117,0.842,0.117c0.123,0,0.247-0.006,0.374-0.018c0.128-0.012,0.249-0.03,0.366-0.051
	c0.117-0.022,0.225-0.048,0.322-0.077c0.097-0.029,0.178-0.059,0.242-0.088V27.8c-0.045,0.015-0.109,0.032-0.194,0.051
	c-0.086,0.02-0.181,0.037-0.282,0.051c-0.102,0.014-0.209,0.027-0.318,0.037c-0.109,0.01-0.209,0.015-0.297,0.015
	C75.432,27.954,75.179,27.834,75.026,27.595z"/>
<path fill="#FFFFFF" d="M33.105,48.899l3.274-9.36h0.059c-0.015,0.356-0.032,0.708-0.051,1.055c-0.015,0.298-0.027,0.61-0.037,0.938
	c-0.01,0.328-0.015,0.617-0.015,0.871v6.496h1.362V38.19h-2.021l-3.032,8.73H32.6l-3.018-8.73h-2.021v10.709h1.26v-6.401
	c0-0.278-0.006-0.587-0.019-0.927c-0.012-0.34-0.028-0.662-0.047-0.971c-0.02-0.355-0.044-0.716-0.073-1.076h0.059l3.245,9.375
	H33.105z"/>
<path fill="#FFFFFF" d="M41.762,40.856H40.43v8.043h1.332V40.856z M40.549,39.319c0.15,0.137,0.334,0.205,0.555,0.205
	c0.215,0,0.398-0.069,0.553-0.209s0.23-0.351,0.23-0.633c0-0.146-0.021-0.272-0.062-0.379c-0.041-0.104-0.098-0.191-0.168-0.26
	s-0.154-0.118-0.25-0.148c-0.095-0.033-0.195-0.049-0.303-0.049c-0.221,0-0.404,0.065-0.555,0.197
	c-0.149,0.132-0.223,0.346-0.223,0.639C40.327,38.969,40.401,39.183,40.549,39.319z"/>
<path fill="#FFFFFF" d="M45.645,37.502h-1.334v11.396h1.334V37.502z"/>
<path fill="#FFFFFF" d="M49.526,40.856h-1.332v8.043h1.332V40.856z M48.315,39.319c0.148,0.137,0.332,0.205,0.553,0.205
	c0.215,0,0.398-0.069,0.553-0.209s0.23-0.351,0.23-0.633c0-0.146-0.021-0.272-0.062-0.379c-0.041-0.104-0.098-0.191-0.168-0.26
	s-0.153-0.118-0.248-0.148c-0.096-0.033-0.196-0.049-0.305-0.049c-0.221,0-0.404,0.065-0.553,0.197
	c-0.15,0.132-0.225,0.346-0.225,0.639C48.09,38.969,48.165,39.183,48.315,39.319z"/>
<path fill="#FFFFFF" d="M53.749,47.595c-0.153-0.238-0.229-0.596-0.229-1.068V41.86h2.021v-1.004h-2.021v-1.846h-0.771l-0.569,1.686
	l-1.136,0.57v0.594h1.136v4.666c0,0.492,0.053,0.902,0.159,1.227c0.107,0.325,0.257,0.582,0.443,0.773
	c0.188,0.188,0.412,0.324,0.67,0.402c0.26,0.077,0.541,0.116,0.844,0.116c0.121,0,0.246-0.006,0.373-0.019
	c0.127-0.012,0.248-0.029,0.365-0.051c0.117-0.022,0.225-0.049,0.322-0.078c0.098-0.028,0.18-0.059,0.242-0.088V47.8
	c-0.044,0.016-0.109,0.032-0.194,0.053c-0.085,0.02-0.179,0.035-0.282,0.051c-0.102,0.015-0.207,0.027-0.317,0.037
	c-0.109,0.01-0.209,0.014-0.298,0.014C54.155,47.954,53.903,47.834,53.749,47.595z"/>
<path fill="#FFFFFF" d="M62.651,48.899v-5.508c0-0.479-0.059-0.888-0.176-1.224c-0.117-0.338-0.294-0.614-0.531-0.832
	c-0.236-0.217-0.537-0.375-0.9-0.476c-0.362-0.102-0.795-0.15-1.293-0.15c-0.487,0-0.953,0.068-1.397,0.205
	s-0.849,0.303-1.209,0.498l0.469,1.003c0.322-0.166,0.658-0.308,1.009-0.424c0.349-0.117,0.727-0.177,1.131-0.177
	c0.254,0,0.479,0.029,0.678,0.088c0.197,0.06,0.363,0.154,0.498,0.289c0.135,0.136,0.236,0.312,0.309,0.531
	c0.07,0.219,0.105,0.492,0.105,0.82v0.505l-1.348,0.052c-1.152,0.039-2.012,0.273-2.574,0.703c-0.564,0.43-0.846,1.045-0.846,1.846
	c0,0.41,0.059,0.766,0.176,1.065s0.278,0.55,0.485,0.747s0.453,0.344,0.736,0.439c0.282,0.095,0.594,0.143,0.93,0.143
	c0.31,0,0.579-0.023,0.813-0.072c0.234-0.05,0.445-0.125,0.638-0.229c0.188-0.102,0.364-0.232,0.526-0.393
	c0.16-0.158,0.322-0.348,0.482-0.566h0.059l0.271,1.113h0.959V48.899z M58.311,47.653c-0.236-0.209-0.354-0.539-0.354-0.988
	c0-0.248,0.039-0.473,0.117-0.67c0.077-0.197,0.205-0.366,0.383-0.505c0.18-0.14,0.418-0.248,0.715-0.326
	c0.299-0.078,0.666-0.127,1.105-0.146l1.049-0.053v0.727c0,0.386-0.054,0.722-0.158,1.007c-0.104,0.286-0.25,0.522-0.436,0.711
	s-0.406,0.327-0.66,0.421c-0.254,0.093-0.529,0.141-0.826,0.141C58.86,47.969,58.547,47.864,58.311,47.653z"/>
<path fill="#FFFFFF" d="M67.866,40.847c-0.215,0.09-0.408,0.209-0.582,0.357s-0.328,0.32-0.469,0.518
	c-0.139,0.194-0.27,0.397-0.393,0.606h-0.059l-0.16-1.472H65.12v8.041h1.334v-4.336c0-0.396,0.049-0.756,0.148-1.08
	c0.102-0.323,0.242-0.604,0.426-0.834c0.184-0.231,0.401-0.41,0.655-0.535s0.534-0.188,0.843-0.188c0.127,0,0.262,0.01,0.406,0.025
	c0.145,0.018,0.283,0.037,0.421,0.062l0.176-1.23c-0.127-0.024-0.278-0.043-0.454-0.055c-0.176-0.013-0.334-0.02-0.477-0.02
	C68.325,40.71,68.081,40.755,67.866,40.847z"/>
<path fill="#FFFFFF" d="M72.95,48.972l-0.418,1.172c-0.072,0.2-0.154,0.379-0.246,0.535c-0.09,0.155-0.197,0.288-0.324,0.396
	c-0.127,0.106-0.276,0.188-0.446,0.245c-0.173,0.056-0.374,0.084-0.608,0.084c-0.171,0-0.335-0.01-0.49-0.025
	c-0.156-0.018-0.285-0.038-0.389-0.062v1.062c0.133,0.029,0.29,0.059,0.477,0.085c0.186,0.026,0.406,0.04,0.66,0.04
	c0.391,0,0.727-0.061,1.01-0.18s0.529-0.289,0.74-0.51c0.209-0.22,0.395-0.486,0.553-0.801c0.158-0.316,0.307-0.671,0.443-1.066
	l3.178-9.09h-1.379l-1.457,4.477c-0.053,0.16-0.115,0.355-0.188,0.586c-0.07,0.229-0.139,0.462-0.205,0.699
	c-0.064,0.236-0.126,0.46-0.179,0.67c-0.056,0.21-0.095,0.376-0.117,0.498H73.52c-0.02-0.171-0.051-0.355-0.096-0.557
	c-0.043-0.201-0.096-0.408-0.156-0.623c-0.062-0.215-0.127-0.431-0.198-0.646s-0.14-0.42-0.208-0.614l-1.574-4.49h-1.385
	L72.95,48.972z"/>
<path fill="#FFFFFF" d="M20.347,58.19h-1.362v4.513h-4.878V58.19h-1.362v10.709h1.362v-4.996h4.878v4.996h1.362V58.19z"/>
<path fill="#FFFFFF" d="M28.572,68.899v-5.508c0-0.479-0.059-0.888-0.176-1.224c-0.117-0.338-0.294-0.614-0.531-0.832
	c-0.237-0.217-0.537-0.375-0.9-0.476c-0.364-0.102-0.795-0.15-1.293-0.15c-0.488,0-0.955,0.068-1.399,0.205
	s-0.847,0.303-1.208,0.498l0.469,1.003c0.322-0.166,0.658-0.308,1.007-0.424c0.349-0.117,0.726-0.177,1.131-0.177
	c0.254,0,0.48,0.029,0.677,0.088c0.198,0.06,0.364,0.154,0.499,0.289c0.134,0.136,0.236,0.312,0.308,0.531
	c0.07,0.219,0.106,0.492,0.106,0.82v0.505l-1.348,0.052c-1.152,0.039-2.011,0.273-2.574,0.703c-0.564,0.43-0.846,1.045-0.846,1.846
	c0,0.41,0.059,0.766,0.176,1.065c0.117,0.3,0.279,0.55,0.487,0.747s0.453,0.344,0.736,0.439c0.283,0.095,0.593,0.143,0.93,0.143
	c0.308,0,0.579-0.023,0.813-0.072c0.234-0.05,0.447-0.125,0.637-0.229c0.19-0.102,0.366-0.232,0.527-0.393
	c0.161-0.158,0.322-0.348,0.483-0.566h0.059l0.271,1.113h0.959V68.899z M24.232,67.653c-0.237-0.209-0.355-0.539-0.355-0.988
	c0-0.248,0.039-0.473,0.117-0.67c0.078-0.197,0.206-0.366,0.384-0.505c0.178-0.14,0.417-0.248,0.714-0.326
	c0.297-0.078,0.667-0.127,1.106-0.146l1.047-0.053v0.727c0,0.386-0.053,0.722-0.157,1.007c-0.105,0.286-0.25,0.522-0.436,0.711
	s-0.405,0.327-0.659,0.421c-0.254,0.093-0.53,0.141-0.828,0.141C24.78,67.969,24.469,67.864,24.232,67.653z"/>
<path fill="#FFFFFF" d="M35.219,68.937c0.3-0.074,0.582-0.183,0.846-0.322v-1.188c-0.264,0.123-0.556,0.229-0.875,0.319
	c-0.32,0.091-0.678,0.136-1.073,0.136c-0.723,0-1.261-0.237-1.615-0.715c-0.354-0.476-0.531-1.229-0.531-2.26
	c0-1.035,0.176-1.798,0.527-2.288c0.352-0.491,0.911-0.736,1.677-0.736c0.127,0,0.261,0.012,0.403,0.033s0.286,0.051,0.432,0.088
	c0.146,0.036,0.288,0.078,0.425,0.124c0.137,0.047,0.261,0.095,0.374,0.144l0.396-1.127c-0.244-0.123-0.548-0.226-0.912-0.31
	c-0.364-0.082-0.736-0.124-1.117-0.124c-0.498,0-0.964,0.075-1.399,0.229c-0.435,0.149-0.814,0.395-1.139,0.729
	c-0.325,0.334-0.58,0.77-0.765,1.305c-0.186,0.533-0.278,1.185-0.278,1.951c0,0.732,0.09,1.358,0.271,1.878
	c0.181,0.521,0.43,0.948,0.747,1.282c0.317,0.334,0.691,0.578,1.121,0.732c0.43,0.152,0.891,0.229,1.384,0.229
	C34.551,69.045,34.918,69.008,35.219,68.937z"/>
<path fill="#FFFFFF" d="M39.185,64.747l0.116-2.016v-5.229h-1.317v11.396h1.317v-3.092l0.799-0.601l2.461,3.69h1.531l-3.135-4.562
	l2.937-3.479h-1.546L40.204,63.5l-0.99,1.246L39.185,64.747L39.185,64.747z"/>
<path fill="#FFFFFF" d="M55.063,67.698h-4.195V63.89h3.918v-1.188h-3.918v-3.311h4.195V58.19h-5.559v10.707h5.559V67.698
	L55.063,67.698z"/>
<path fill="#FFFFFF" d="M60.403,68.899l2.746-8.043h-1.377l-1.457,4.477c-0.054,0.16-0.117,0.368-0.189,0.622
	c-0.074,0.254-0.146,0.513-0.221,0.776c-0.074,0.263-0.139,0.513-0.197,0.746c-0.058,0.234-0.101,0.414-0.125,0.535h-0.051
	c-0.02-0.121-0.061-0.301-0.121-0.535c-0.062-0.233-0.129-0.482-0.201-0.746c-0.073-0.265-0.146-0.522-0.221-0.776
	c-0.072-0.254-0.137-0.462-0.189-0.622l-1.457-4.477h-1.377l2.746,8.043H60.403z"/>
<path fill="#FFFFFF" d="M68.293,69.017c0.213-0.021,0.418-0.052,0.617-0.097c0.196-0.043,0.389-0.101,0.577-0.168
	s0.38-0.147,0.574-0.242v-1.186c-0.188,0.088-0.378,0.167-0.563,0.237s-0.377,0.129-0.574,0.176s-0.402,0.082-0.615,0.105
	c-0.212,0.024-0.443,0.037-0.691,0.037c-0.738,0-1.293-0.223-1.666-0.667c-0.375-0.444-0.572-1.138-0.598-2.08h5.068v-0.827
	c0-0.537-0.072-1.027-0.217-1.469s-0.351-0.82-0.619-1.135s-0.596-0.561-0.98-0.733c-0.386-0.173-0.82-0.26-1.305-0.26
	c-0.492,0-0.943,0.095-1.35,0.286c-0.408,0.189-0.76,0.467-1.053,0.831s-0.521,0.807-0.682,1.329
	c-0.161,0.521-0.241,1.115-0.241,1.779c0,0.659,0.088,1.246,0.265,1.758c0.176,0.514,0.424,0.942,0.743,1.289
	c0.317,0.348,0.701,0.61,1.146,0.791c0.445,0.182,0.936,0.271,1.473,0.271C67.852,69.045,68.083,69.036,68.293,69.017z
	 M68.049,61.978c0.215,0.106,0.392,0.26,0.531,0.455c0.139,0.194,0.241,0.43,0.308,0.705c0.065,0.276,0.099,0.58,0.099,0.912h-3.604
	c0.054-0.729,0.242-1.281,0.568-1.662c0.323-0.382,0.764-0.57,1.32-0.57C67.577,61.817,67.834,61.87,68.049,61.978z"/>
<path fill="#FFFFFF" d="M75.198,60.847c-0.215,0.09-0.408,0.209-0.582,0.357s-0.33,0.32-0.469,0.518
	c-0.141,0.194-0.27,0.397-0.393,0.606h-0.06l-0.159-1.472h-1.084v8.041h1.332v-4.336c0-0.396,0.051-0.756,0.149-1.08
	c0.099-0.323,0.241-0.604,0.426-0.834c0.183-0.231,0.399-0.41,0.654-0.535c0.254-0.125,0.534-0.188,0.843-0.188
	c0.127,0,0.264,0.01,0.407,0.025c0.144,0.018,0.282,0.037,0.42,0.062l0.176-1.23c-0.127-0.024-0.276-0.043-0.452-0.055
	c-0.177-0.013-0.336-0.02-0.478-0.02C75.657,60.71,75.413,60.755,75.198,60.847z"/>
</svg>
