<?xml version="1.0" encoding="utf-8"?>
<!-- Generator: Adobe Illustrator 15.0.0, SVG Export Plug-In . SVG Version: 6.00 Build 0)  -->
<!DOCTYPE svg PUBLIC "-//W3C//DTD SVG 1.1//EN" "http://www.w3.org/Graphics/SVG/1.1/DTD/svg11.dtd">
<svg version="1.1" id="Layer_1" xmlns="http://www.w3.org/2000/svg" xmlns:xlink="http://www.w3.org/1999/xlink" x="0px" y="0px"
	 width="90.201px" height="49.046px" viewBox="0 0 90.201 49.046" enable-background="new 0 0 90.201 49.046" xml:space="preserve">
<path fill="#FFFFFF" d="M2.59,5.014l-1.967-4.75H0V8.9h0.563V1.428l0.023-0.024L2.59,6.201l2.003-4.798h0.024v7.496H5.18V0.264
	H4.557L2.59,5.014z"/>
<path fill="#FFFFFF" d="M11.781,8.959c-0.168-0.527-0.324-1.103-0.312-1.715l0.072-2.591c0.036-1.415-0.659-2.23-1.823-2.23
	c-0.6,0-1.139,0.168-1.69,0.384L8.16,3.323c0.504-0.228,0.972-0.42,1.523-0.42c1.043,0,1.331,0.672,1.295,2.279
	c-0.444-0.216-1.031-0.42-1.547-0.42c-1.224,0-1.907,1.043-1.907,2.255c0,1.067,0.6,2.015,1.763,2.015
	c0.828,0,1.296-0.443,1.739-1.079c0.036,0.359,0.12,0.731,0.24,1.079L11.781,8.959z M10.941,7.269
	c-0.384,0.647-0.863,1.283-1.655,1.283c-0.804,0-1.199-0.779-1.199-1.487c0-0.936,0.42-1.823,1.476-1.823
	c0.504,0,0.983,0.18,1.379,0.384L10.941,7.269L10.941,7.269z"/>
<path fill="#FFFFFF" d="M18.885,2.555l-1.823,4.869l-1.715-4.869h-0.623l2.062,5.613l-0.479,1.091
	c-0.216,0.48-0.528,1.188-1.14,1.188c-0.527,0-0.827-0.552-0.983-0.983l-0.479,0.252c0.216,0.647,0.743,1.212,1.463,1.212
	c1.115,0,1.655-1.476,1.991-2.339l2.374-6.033L18.885,2.555L18.885,2.555z"/>
<path fill="#FFFFFF" d="M29.675,8.42c0.023-1.224,0.3-1.848,2.099-3.454c0.863-0.768,1.896-1.596,1.896-2.854
	c0-1.247-0.792-2.015-2.039-2.015c-1.415,0-2.207,0.983-2.315,2.326h0.564c0.071-1.008,0.647-1.847,1.738-1.847
	c0.912,0,1.487,0.6,1.487,1.499c0,1.115-1.115,1.991-1.883,2.662c-1.799,1.571-2.11,2.279-2.11,4.162h4.593V8.42H29.675z"/>
<path fill="#FFFFFF" d="M40.965,4.582c0-0.912-0.024-2.003-0.324-2.866c-0.324-0.924-1.008-1.619-2.051-1.619
	c-1.092,0-1.775,0.743-2.087,1.715c-0.264,0.804-0.288,1.919-0.288,2.771c0,0.911,0.024,2.015,0.324,2.866
	c0.323,0.924,1.02,1.619,2.051,1.619c1.079,0,1.774-0.744,2.087-1.715C40.94,6.561,40.965,5.421,40.965,4.582z M40.4,4.582
	c0,0.707-0.023,1.667-0.18,2.339C40.017,7.736,39.537,8.6,38.59,8.6c-0.888,0-1.38-0.779-1.583-1.535
	c-0.216-0.743-0.229-1.715-0.229-2.482c0-0.708,0.024-1.655,0.181-2.339c0.203-0.815,0.684-1.679,1.631-1.679
	c0.888,0,1.379,0.779,1.583,1.547C40.389,2.843,40.4,3.814,40.4,4.582z"/>
<path fill="#FFFFFF" d="M46.103,0l-2.292,0.731V1.26l1.728-0.54v7.7h-1.644v0.479h3.801V8.42h-1.594V0L46.103,0z"/>
<path fill="#FFFFFF" d="M52.521,4.474c1.283,0,2.328,0.66,2.328,2.147c0,1.211-0.828,1.931-2.017,1.931
	c-0.923,0-1.547-0.504-1.931-1.308l-0.504,0.3c0.6,0.936,1.308,1.487,2.459,1.487c1.486,0,2.555-1.043,2.555-2.519
	c0-1.14-0.684-1.979-1.775-2.326c0.793-0.349,1.381-1.032,1.381-1.932c0-1.188-0.961-2.158-2.172-2.158
	c-1.008,0-1.848,0.539-2.326,1.402l0.479,0.265c0.359-0.672,0.996-1.188,1.8-1.188c0.899,0,1.654,0.707,1.654,1.595
	c0,1.08-0.888,1.823-1.931,1.823V4.474L52.521,4.474z"/>
<path fill="#FFFFFF" d="M6.748,18.177v6.973c-0.005,0.396-0.056,0.76-0.153,1.092c-0.097,0.332-0.247,0.617-0.446,0.856
	c-0.201,0.239-0.457,0.425-0.77,0.557s-0.687,0.197-1.121,0.197c-0.854,0-1.492-0.233-1.915-0.702
	c-0.422-0.469-0.634-1.131-0.634-1.984v-6.974H0.34v6.899c0,0.596,0.083,1.137,0.249,1.621c0.166,0.486,0.411,0.902,0.736,1.25
	c0.324,0.347,0.726,0.613,1.204,0.802c0.479,0.188,1.03,0.282,1.656,0.282c0.663,0,1.241-0.102,1.731-0.301
	c0.491-0.199,0.898-0.477,1.224-0.828c0.324-0.352,0.567-0.767,0.729-1.244c0.162-0.479,0.242-0.996,0.242-1.553v-6.944H6.748z"/>
<path fill="#FFFFFF" d="M10.315,28.552c0.049,0.129,0.114,0.234,0.198,0.318c0.082,0.082,0.18,0.144,0.293,0.184
	c0.111,0.037,0.233,0.059,0.366,0.059c0.126,0,0.247-0.021,0.362-0.059c0.114-0.04,0.213-0.102,0.297-0.184
	c0.082-0.084,0.148-0.189,0.197-0.318c0.049-0.131,0.073-0.284,0.073-0.465c0-0.187-0.024-0.344-0.073-0.473
	c-0.049-0.131-0.115-0.234-0.197-0.316c-0.084-0.08-0.183-0.139-0.297-0.176c-0.115-0.035-0.236-0.055-0.362-0.055
	c-0.133,0-0.255,0.02-0.366,0.055c-0.113,0.037-0.211,0.096-0.293,0.176c-0.084,0.082-0.149,0.187-0.198,0.316
	c-0.049,0.129-0.073,0.286-0.073,0.473C10.242,28.268,10.267,28.421,10.315,28.552z"/>
<path fill="#FFFFFF" d="M20.111,24.944c-0.114-0.308-0.284-0.578-0.509-0.813c-0.225-0.233-0.504-0.443-0.839-0.629
	c-0.334-0.187-0.724-0.367-1.168-0.542c-0.41-0.162-0.756-0.314-1.036-0.458c-0.281-0.145-0.507-0.298-0.678-0.462
	c-0.171-0.163-0.293-0.347-0.366-0.549c-0.073-0.203-0.109-0.443-0.109-0.722c0-0.469,0.163-0.841,0.49-1.117
	c0.327-0.275,0.788-0.413,1.385-0.413c0.429,0,0.846,0.052,1.248,0.157c0.403,0.104,0.763,0.228,1.081,0.37l0.49-1.143
	c-0.361-0.171-0.774-0.312-1.237-0.422c-0.465-0.109-0.987-0.164-1.568-0.164c-0.473,0-0.906,0.061-1.3,0.183
	c-0.393,0.122-0.731,0.299-1.014,0.531c-0.284,0.231-0.504,0.517-0.659,0.854c-0.157,0.337-0.235,0.72-0.235,1.149
	c0,0.41,0.051,0.776,0.15,1.099c0.101,0.322,0.254,0.61,0.462,0.864c0.207,0.254,0.471,0.482,0.791,0.685
	c0.319,0.203,0.696,0.39,1.131,0.561c0.455,0.181,0.83,0.348,1.128,0.502c0.298,0.153,0.536,0.312,0.715,0.476
	c0.178,0.164,0.303,0.344,0.373,0.539c0.071,0.195,0.106,0.425,0.106,0.688c0,0.547-0.187,0.967-0.561,1.26
	c-0.373,0.293-0.951,0.439-1.732,0.439c-0.244,0-0.49-0.019-0.739-0.056c-0.249-0.036-0.491-0.084-0.726-0.144
	c-0.233-0.059-0.457-0.125-0.67-0.201c-0.212-0.075-0.401-0.151-0.567-0.229v1.304c0.317,0.166,0.712,0.291,1.183,0.377
	c0.472,0.086,0.979,0.129,1.52,0.129c0.562,0,1.067-0.067,1.517-0.201c0.449-0.135,0.83-0.331,1.143-0.59
	c0.313-0.26,0.553-0.575,0.722-0.948c0.168-0.374,0.252-0.798,0.252-1.271C20.283,25.617,20.227,25.251,20.111,24.944z"/>
<path fill="#FFFFFF" d="M22.122,28.552c0.049,0.129,0.114,0.234,0.197,0.318c0.083,0.082,0.181,0.144,0.294,0.184
	c0.111,0.037,0.234,0.059,0.365,0.059c0.127,0,0.248-0.021,0.363-0.059c0.114-0.04,0.213-0.102,0.297-0.184
	c0.082-0.084,0.148-0.189,0.197-0.318c0.049-0.131,0.073-0.284,0.073-0.465c0-0.187-0.024-0.344-0.073-0.473
	c-0.049-0.131-0.115-0.234-0.197-0.316c-0.084-0.08-0.183-0.139-0.297-0.176c-0.115-0.035-0.236-0.055-0.363-0.055
	c-0.131,0-0.254,0.02-0.365,0.055c-0.113,0.037-0.211,0.096-0.294,0.176c-0.083,0.082-0.148,0.187-0.197,0.316
	c-0.049,0.129-0.073,0.286-0.073,0.473C22.049,28.268,22.073,28.421,22.122,28.552z"/>
<path fill="#FFFFFF" d="M33.167,24.476c-0.063,0.239-0.123,0.494-0.18,0.766c-0.056,0.271-0.108,0.538-0.157,0.803
	c-0.049,0.264-0.092,0.516-0.128,0.754c-0.037,0.238-0.067,0.449-0.092,0.63c-0.024-0.185-0.054-0.39-0.088-0.611
	s-0.072-0.452-0.113-0.69c-0.042-0.239-0.087-0.48-0.136-0.723s-0.103-0.475-0.161-0.7l-1.634-6.511h-1.442l2.827,10.708h1.377
	l1.772-6.826c0.068-0.264,0.133-0.532,0.194-0.806c0.061-0.273,0.115-0.524,0.164-0.754c0.055-0.269,0.107-0.528,0.161-0.776
	c0.054,0.254,0.11,0.515,0.169,0.783c0.054,0.229,0.112,0.477,0.176,0.739c0.063,0.265,0.129,0.521,0.197,0.771l1.861,6.87h1.376
	L42,18.191h-1.457l-1.466,6.46c-0.054,0.239-0.104,0.483-0.149,0.736c-0.047,0.251-0.09,0.497-0.129,0.739s-0.072,0.473-0.102,0.691
	c-0.03,0.219-0.055,0.424-0.074,0.607c-0.028-0.186-0.066-0.393-0.113-0.622c-0.046-0.229-0.1-0.474-0.161-0.729
	c-0.061-0.257-0.127-0.521-0.197-0.795c-0.071-0.273-0.144-0.547-0.216-0.82l-1.678-6.27h-1.442L33.167,24.476z"/>
<path fill="#FFFFFF" d="M46.991,29.017c0.213-0.02,0.418-0.051,0.615-0.096s0.391-0.101,0.578-0.168
	c0.188-0.068,0.379-0.148,0.575-0.242v-1.186c-0.19,0.088-0.379,0.166-0.563,0.236c-0.187,0.07-0.377,0.13-0.575,0.176
	c-0.197,0.047-0.402,0.082-0.615,0.105c-0.212,0.025-0.442,0.037-0.69,0.037c-0.738,0-1.293-0.223-1.667-0.666
	c-0.373-0.444-0.572-1.139-0.597-2.08h5.068v-0.827c0-0.537-0.072-1.027-0.216-1.469c-0.146-0.442-0.352-0.82-0.619-1.136
	c-0.27-0.314-0.596-0.559-0.98-0.732c-0.387-0.173-0.82-0.26-1.305-0.26c-0.493,0-0.943,0.095-1.352,0.286
	c-0.407,0.189-0.758,0.467-1.051,0.831c-0.293,0.363-0.52,0.807-0.682,1.329c-0.161,0.522-0.241,1.116-0.241,1.779
	c0,0.66,0.088,1.246,0.264,1.758c0.176,0.514,0.424,0.943,0.743,1.29c0.32,0.347,0.702,0.61,1.146,0.791
	c0.444,0.181,0.935,0.271,1.472,0.271C46.549,29.046,46.778,29.037,46.991,29.017z M46.746,21.978
	c0.215,0.108,0.392,0.26,0.53,0.455c0.14,0.195,0.242,0.431,0.309,0.706c0.064,0.276,0.1,0.58,0.1,0.912H44.08
	c0.054-0.728,0.243-1.282,0.567-1.662c0.325-0.382,0.766-0.571,1.322-0.571C46.272,21.817,46.531,21.871,46.746,21.978z"/>
<path fill="#FFFFFF" d="M56.642,28.899v-5.508c0-0.479-0.06-0.886-0.177-1.224c-0.116-0.337-0.294-0.613-0.53-0.831
	c-0.236-0.217-0.537-0.376-0.9-0.476c-0.363-0.101-0.795-0.15-1.293-0.15c-0.488,0-0.954,0.068-1.398,0.205
	c-0.443,0.137-0.848,0.303-1.209,0.498l0.471,1.004c0.32-0.166,0.656-0.309,1.006-0.425c0.35-0.117,0.727-0.176,1.132-0.176
	c0.254,0,0.479,0.029,0.678,0.088c0.198,0.059,0.364,0.154,0.498,0.289c0.136,0.134,0.237,0.312,0.308,0.531
	c0.071,0.219,0.106,0.493,0.106,0.82v0.505L53.983,24.1c-1.151,0.04-2.01,0.274-2.573,0.704c-0.563,0.43-0.847,1.045-0.847,1.846
	c0,0.41,0.059,0.766,0.177,1.064c0.116,0.301,0.278,0.55,0.485,0.748c0.209,0.197,0.453,0.344,0.736,0.438s0.594,0.144,0.93,0.144
	c0.309,0,0.58-0.024,0.813-0.073c0.233-0.05,0.446-0.125,0.637-0.228c0.191-0.103,0.366-0.232,0.528-0.393
	c0.16-0.158,0.32-0.348,0.482-0.566h0.06l0.271,1.112h0.959V28.899z M52.302,27.654c-0.236-0.21-0.355-0.539-0.355-0.988
	c0-0.248,0.039-0.473,0.117-0.67s0.207-0.367,0.386-0.506c0.178-0.14,0.416-0.248,0.714-0.326s0.666-0.127,1.105-0.146l1.047-0.051
	v0.725c0,0.386-0.053,0.722-0.156,1.007c-0.105,0.286-0.251,0.522-0.436,0.711c-0.188,0.188-0.406,0.328-0.66,0.422
	c-0.254,0.092-0.529,0.14-0.828,0.14C52.851,27.97,52.538,27.865,52.302,27.654z"/>
<path fill="#FFFFFF" d="M63.994,28.778c0.376-0.178,0.696-0.442,0.964-0.794c0.266-0.354,0.473-0.788,0.619-1.309
	s0.22-1.125,0.22-1.811c0-0.684-0.073-1.284-0.22-1.803c-0.146-0.517-0.354-0.95-0.619-1.3c-0.268-0.349-0.588-0.611-0.964-0.787
	c-0.376-0.176-0.793-0.264-1.252-0.264c-0.293,0-0.558,0.033-0.791,0.099c-0.234,0.066-0.445,0.154-0.634,0.264
	c-0.188,0.11-0.354,0.239-0.494,0.389c-0.143,0.148-0.27,0.309-0.381,0.479h-0.06l-0.19-1.084h-1.084v11.646h1.334v-3.436
	c0-0.078-0.006-0.186-0.016-0.318c-0.01-0.135-0.02-0.266-0.029-0.393c-0.015-0.15-0.028-0.311-0.043-0.477h0.088
	c0.111,0.156,0.24,0.306,0.385,0.447c0.145,0.141,0.311,0.264,0.498,0.369c0.188,0.104,0.398,0.189,0.633,0.254
	c0.234,0.062,0.496,0.094,0.784,0.094C63.201,29.046,63.618,28.957,63.994,28.778z M63.954,22.571
	c0.311,0.503,0.465,1.263,0.465,2.277c0,0.995-0.154,1.761-0.465,2.293s-0.794,0.798-1.454,0.798c-0.396,0-0.726-0.066-0.987-0.201
	c-0.265-0.134-0.476-0.332-0.635-0.593c-0.158-0.263-0.271-0.584-0.337-0.967c-0.065-0.384-0.099-0.821-0.099-1.314v-0.301
	c0.01-0.464,0.053-0.866,0.127-1.208c0.076-0.342,0.193-0.628,0.353-0.857s0.366-0.4,0.623-0.513
	c0.256-0.112,0.569-0.168,0.94-0.168C63.153,21.817,63.646,22.068,63.954,22.571z"/>
<path fill="#FFFFFF" d="M74.192,23.095c-0.172-0.515-0.414-0.949-0.725-1.304c-0.311-0.354-0.678-0.622-1.103-0.806
	c-0.425-0.183-0.89-0.274-1.392-0.274c-0.543,0-1.031,0.092-1.47,0.274c-0.437,0.184-0.808,0.452-1.108,0.806
	c-0.304,0.354-0.537,0.789-0.699,1.304c-0.164,0.516-0.245,1.105-0.245,1.77c0,0.669,0.086,1.263,0.26,1.783
	c0.173,0.52,0.415,0.957,0.726,1.311c0.311,0.354,0.678,0.625,1.103,0.811s0.89,0.277,1.392,0.277c0.543,0,1.03-0.092,1.465-0.277
	c0.436-0.186,0.806-0.455,1.109-0.811c0.307-0.354,0.54-0.791,0.703-1.311c0.164-0.521,0.245-1.113,0.245-1.783
	C74.453,24.2,74.367,23.61,74.192,23.095z M69.323,22.575c0.328-0.506,0.869-0.758,1.621-0.758s1.296,0.252,1.631,0.758
	c0.334,0.505,0.502,1.269,0.502,2.289c0,1.02-0.165,1.788-0.495,2.303c-0.329,0.516-0.87,0.771-1.622,0.771s-1.295-0.257-1.63-0.771
	c-0.334-0.516-0.502-1.283-0.502-2.303C68.828,23.843,68.993,23.08,69.323,22.575z"/>
<path fill="#FFFFFF" d="M82.913,28.899v-5.252c0-1.025-0.227-1.771-0.678-2.237c-0.451-0.466-1.125-0.699-2.019-0.699
	c-0.233,0-0.464,0.024-0.688,0.073c-0.223,0.049-0.438,0.125-0.637,0.227c-0.201,0.104-0.385,0.231-0.554,0.385
	c-0.168,0.154-0.313,0.336-0.437,0.546H77.83l-0.19-1.084h-1.084V28.9h1.334v-4.168c0-0.468,0.034-0.883,0.105-1.244
	c0.07-0.361,0.188-0.667,0.352-0.916c0.163-0.249,0.379-0.437,0.647-0.564c0.269-0.126,0.601-0.189,0.996-0.189
	c0.547,0,0.948,0.158,1.204,0.476c0.258,0.317,0.386,0.794,0.386,1.429v5.178h1.333V28.899z"/>
<path fill="#FFFFFF" d="M90.047,25.853c-0.103-0.234-0.252-0.443-0.446-0.626c-0.195-0.185-0.432-0.349-0.707-0.495
	s-0.59-0.292-0.94-0.438c-0.343-0.142-0.628-0.271-0.856-0.385c-0.229-0.115-0.412-0.229-0.55-0.341
	c-0.137-0.112-0.233-0.231-0.289-0.358c-0.057-0.127-0.085-0.276-0.085-0.447c0-0.303,0.12-0.536,0.359-0.699
	c0.238-0.164,0.607-0.245,1.105-0.245c0.348,0,0.688,0.052,1.021,0.157c0.334,0.104,0.66,0.229,0.979,0.37l0.461-1.077
	c-0.353-0.166-0.725-0.3-1.117-0.403c-0.394-0.102-0.826-0.153-1.299-0.153c-0.422,0-0.803,0.047-1.144,0.14
	c-0.343,0.093-0.636,0.229-0.879,0.409c-0.245,0.181-0.435,0.404-0.568,0.671c-0.134,0.266-0.2,0.57-0.2,0.912
	c0,0.327,0.053,0.608,0.156,0.846c0.105,0.236,0.256,0.445,0.45,0.626s0.435,0.345,0.715,0.491s0.597,0.295,0.948,0.445
	c0.352,0.151,0.64,0.289,0.863,0.41c0.225,0.123,0.401,0.244,0.531,0.362c0.129,0.12,0.219,0.241,0.268,0.363
	s0.072,0.259,0.072,0.409c0,0.176-0.03,0.336-0.095,0.479c-0.063,0.144-0.165,0.267-0.304,0.366c-0.141,0.1-0.32,0.177-0.542,0.23
	c-0.224,0.054-0.492,0.08-0.81,0.08c-0.215,0-0.432-0.019-0.648-0.056c-0.217-0.036-0.43-0.084-0.633-0.144
	c-0.205-0.059-0.401-0.125-0.588-0.2c-0.186-0.076-0.354-0.152-0.504-0.229v1.215c0.287,0.166,0.621,0.291,1.004,0.377
	c0.379,0.086,0.836,0.129,1.369,0.129c0.469,0,0.891-0.049,1.268-0.146c0.375-0.098,0.695-0.245,0.963-0.443
	c0.266-0.197,0.471-0.441,0.611-0.735c0.142-0.293,0.213-0.634,0.213-1.025C90.201,26.369,90.149,26.087,90.047,25.853z"/>
<path fill="#FFFFFF" d="M6.646,39.994c-0.146-0.392-0.373-0.72-0.681-0.986c-0.308-0.266-0.698-0.469-1.172-0.606
	c-0.474-0.14-1.038-0.209-1.691-0.209H0.449V48.9h1.362v-4.168h1.1c0.741,0,1.365-0.094,1.871-0.281
	c0.505-0.188,0.912-0.438,1.22-0.755c0.307-0.313,0.528-0.677,0.662-1.087c0.135-0.41,0.201-0.838,0.201-1.281
	C6.865,40.828,6.793,40.384,6.646,39.994z M1.812,39.355h1.173c0.849,0,1.474,0.168,1.875,0.502c0.399,0.335,0.6,0.85,0.6,1.542
	c0,0.396-0.056,0.731-0.168,1.007C5.18,42.682,5.013,42.908,4.79,43.08c-0.222,0.174-0.503,0.301-0.842,0.379
	c-0.34,0.078-0.736,0.117-1.19,0.117H1.812V39.355z"/>
<path fill="#FFFFFF" d="M10.242,37.503H8.909v11.396h1.333V37.503z"/>
<path fill="#FFFFFF" d="M18.284,48.899v-5.508c0-0.479-0.059-0.886-0.176-1.224c-0.117-0.338-0.294-0.613-0.531-0.832
	c-0.236-0.217-0.537-0.375-0.9-0.476c-0.364-0.101-0.795-0.149-1.293-0.149c-0.488,0-0.955,0.067-1.398,0.205
	c-0.445,0.137-0.848,0.303-1.209,0.498l0.469,1.004c0.322-0.166,0.658-0.31,1.007-0.426c0.35-0.117,0.727-0.176,1.132-0.176
	c0.254,0,0.479,0.029,0.678,0.088c0.197,0.059,0.363,0.154,0.498,0.289c0.134,0.135,0.236,0.312,0.308,0.531
	c0.07,0.219,0.106,0.492,0.106,0.82v0.504L15.626,44.1c-1.152,0.04-2.01,0.274-2.574,0.704c-0.562,0.43-0.846,1.045-0.846,1.846
	c0,0.41,0.059,0.766,0.176,1.064c0.117,0.301,0.279,0.55,0.487,0.748c0.207,0.197,0.452,0.344,0.735,0.438s0.594,0.144,0.931,0.144
	c0.308,0,0.579-0.024,0.813-0.073c0.234-0.05,0.446-0.125,0.637-0.228c0.19-0.103,0.366-0.232,0.527-0.393
	c0.161-0.158,0.322-0.348,0.483-0.566h0.059l0.271,1.112h0.959V48.899z M13.944,47.654c-0.236-0.21-0.354-0.539-0.354-0.988
	c0-0.248,0.038-0.473,0.117-0.67c0.077-0.197,0.206-0.367,0.384-0.506c0.179-0.14,0.416-0.248,0.714-0.326
	c0.298-0.078,0.667-0.127,1.106-0.146l1.047-0.052v0.726c0,0.386-0.052,0.722-0.157,1.007c-0.104,0.286-0.25,0.522-0.436,0.711
	c-0.186,0.188-0.405,0.328-0.659,0.422c-0.254,0.092-0.53,0.14-0.828,0.14C14.492,47.97,14.182,47.865,13.944,47.654z"/>
<path fill="#FFFFFF" d="M27.11,48.899v-5.252c0-1.024-0.227-1.771-0.678-2.237c-0.452-0.466-1.125-0.699-2.018-0.699
	c-0.235,0-0.465,0.024-0.688,0.074c-0.226,0.049-0.438,0.125-0.638,0.227c-0.2,0.104-0.385,0.23-0.553,0.385
	c-0.169,0.154-0.314,0.336-0.437,0.546h-0.072l-0.191-1.084h-1.083V48.9h1.333v-4.168c0-0.468,0.035-0.883,0.105-1.244
	c0.071-0.361,0.188-0.667,0.352-0.916c0.164-0.248,0.38-0.438,0.648-0.564c0.269-0.125,0.601-0.188,0.996-0.188
	c0.547,0,0.948,0.158,1.205,0.476c0.256,0.317,0.385,0.795,0.385,1.43v5.178h1.334V48.899z"/>
<path fill="#FFFFFF" d="M34.244,45.853c-0.104-0.234-0.252-0.443-0.447-0.626c-0.195-0.185-0.431-0.349-0.707-0.495
	c-0.275-0.146-0.59-0.292-0.941-0.438c-0.342-0.143-0.627-0.271-0.856-0.385c-0.229-0.115-0.413-0.229-0.55-0.342
	c-0.137-0.111-0.232-0.23-0.289-0.357c-0.056-0.127-0.084-0.276-0.084-0.447c0-0.303,0.119-0.536,0.358-0.699
	c0.239-0.164,0.608-0.245,1.106-0.245c0.347,0,0.688,0.052,1.021,0.157c0.335,0.104,0.66,0.229,0.978,0.37l0.462-1.077
	c-0.352-0.166-0.724-0.301-1.117-0.402c-0.393-0.103-0.826-0.154-1.3-0.154c-0.42,0-0.801,0.047-1.143,0.141
	c-0.342,0.093-0.635,0.229-0.879,0.409s-0.434,0.403-0.567,0.671c-0.135,0.266-0.202,0.57-0.202,0.912
	c0,0.326,0.053,0.607,0.158,0.846c0.104,0.236,0.255,0.445,0.45,0.626c0.195,0.181,0.434,0.345,0.714,0.491
	c0.281,0.146,0.598,0.295,0.948,0.445c0.352,0.151,0.64,0.289,0.865,0.41c0.224,0.123,0.401,0.244,0.53,0.362
	c0.13,0.12,0.219,0.241,0.268,0.363s0.073,0.259,0.073,0.409c0,0.176-0.032,0.336-0.096,0.479c-0.063,0.144-0.164,0.267-0.304,0.366
	c-0.139,0.1-0.319,0.177-0.542,0.23c-0.222,0.054-0.492,0.08-0.809,0.08c-0.216,0-0.432-0.019-0.648-0.056
	c-0.218-0.036-0.429-0.084-0.634-0.144c-0.205-0.059-0.4-0.125-0.586-0.2c-0.186-0.076-0.354-0.152-0.506-0.229v1.215
	c0.288,0.166,0.623,0.291,1.004,0.377c0.381,0.086,0.837,0.129,1.37,0.129c0.468,0,0.891-0.049,1.267-0.146
	c0.376-0.097,0.697-0.245,0.963-0.443c0.267-0.197,0.47-0.441,0.612-0.735c0.141-0.293,0.212-0.634,0.212-1.025
	C34.397,46.369,34.346,46.087,34.244,45.853z"/>
<path fill="#FFFFFF" d="M48.035,38.191h-1.362v4.512h-4.878v-4.512h-1.362v10.708h1.362v-4.995h4.878v4.995h1.362V38.191z"/>
<path fill="#FFFFFF" d="M56.261,48.899v-5.508c0-0.479-0.059-0.886-0.177-1.224c-0.117-0.338-0.294-0.613-0.53-0.832
	c-0.236-0.217-0.537-0.375-0.9-0.476s-0.795-0.149-1.293-0.149c-0.488,0-0.954,0.067-1.398,0.205
	c-0.443,0.137-0.848,0.303-1.208,0.498l0.468,1.004c0.323-0.166,0.658-0.31,1.008-0.426c0.35-0.117,0.727-0.176,1.133-0.176
	c0.253,0,0.479,0.029,0.677,0.088s0.364,0.154,0.498,0.289c0.135,0.135,0.237,0.312,0.308,0.531c0.071,0.219,0.106,0.492,0.106,0.82
	v0.504L53.603,44.1c-1.151,0.04-2.011,0.274-2.574,0.704s-0.846,1.045-0.846,1.846c0,0.41,0.06,0.766,0.176,1.064
	c0.117,0.301,0.279,0.55,0.486,0.748c0.209,0.197,0.453,0.344,0.736,0.438s0.594,0.144,0.932,0.144c0.307,0,0.577-0.024,0.812-0.073
	c0.233-0.05,0.446-0.125,0.638-0.228c0.189-0.103,0.366-0.232,0.527-0.393c0.16-0.158,0.322-0.348,0.482-0.566h0.059l0.271,1.112
	h0.96V48.899z M51.921,47.654c-0.236-0.21-0.355-0.539-0.355-0.988c0-0.248,0.039-0.473,0.117-0.67s0.207-0.367,0.385-0.506
	c0.179-0.14,0.416-0.248,0.715-0.326c0.298-0.078,0.667-0.127,1.105-0.146l1.047-0.052v0.726c0,0.386-0.053,0.722-0.156,1.007
	c-0.105,0.286-0.252,0.522-0.438,0.711s-0.404,0.328-0.658,0.422c-0.254,0.092-0.529,0.14-0.828,0.14
	C52.469,47.97,52.157,47.865,51.921,47.654z"/>
<path fill="#FFFFFF" d="M62.907,48.937c0.3-0.072,0.582-0.182,0.846-0.322v-1.188c-0.264,0.123-0.557,0.229-0.875,0.318
	c-0.32,0.09-0.678,0.135-1.072,0.135c-0.724,0-1.262-0.236-1.615-0.713c-0.354-0.477-0.531-1.229-0.531-2.26
	c0-1.035,0.176-1.799,0.527-2.289s0.91-0.736,1.678-0.736c0.127,0,0.261,0.012,0.402,0.033s0.285,0.051,0.433,0.088
	c0.146,0.037,0.288,0.078,0.425,0.125s0.261,0.095,0.373,0.144l0.396-1.128c-0.246-0.122-0.55-0.225-0.912-0.309
	c-0.364-0.082-0.736-0.125-1.117-0.125c-0.498,0-0.965,0.076-1.398,0.229c-0.436,0.15-0.814,0.395-1.14,0.729
	c-0.324,0.334-0.58,0.77-0.765,1.305c-0.188,0.533-0.278,1.186-0.278,1.951c0,0.732,0.09,1.359,0.271,1.879
	c0.182,0.521,0.43,0.947,0.747,1.281s0.69,0.578,1.12,0.732c0.43,0.153,0.893,0.23,1.385,0.23
	C62.239,49.046,62.606,49.009,62.907,48.937z"/>
<path fill="#FFFFFF" d="M66.873,44.748l0.117-2.016v-5.229h-1.318v11.396h1.318v-3.091l0.799-0.602l2.46,3.691h1.531l-3.135-4.562
	l2.937-3.479h-1.545l-2.146,2.645l-0.988,1.246H66.873z"/>
<path fill="#FFFFFF" d="M76.983,49.017c0.213-0.02,0.418-0.051,0.615-0.096s0.392-0.101,0.578-0.168
	c0.188-0.068,0.381-0.148,0.575-0.242v-1.186c-0.19,0.088-0.379,0.166-0.563,0.236c-0.187,0.07-0.377,0.13-0.574,0.176
	c-0.198,0.047-0.403,0.082-0.615,0.105c-0.213,0.025-0.443,0.037-0.691,0.037c-0.738,0-1.293-0.223-1.666-0.666
	c-0.375-0.444-0.574-1.139-0.598-2.08h5.066v-0.827c0-0.537-0.07-1.027-0.215-1.47c-0.145-0.441-0.352-0.819-0.619-1.135
	c-0.27-0.314-0.596-0.56-0.981-0.732c-0.386-0.174-0.819-0.26-1.304-0.26c-0.493,0-0.943,0.095-1.352,0.285
	c-0.408,0.189-0.759,0.467-1.051,0.832c-0.293,0.362-0.521,0.807-0.682,1.328c-0.161,0.521-0.242,1.116-0.242,1.779
	c0,0.66,0.088,1.246,0.264,1.758c0.178,0.514,0.424,0.943,0.744,1.29c0.319,0.347,0.701,0.61,1.146,0.791
	c0.443,0.181,0.936,0.271,1.473,0.271C76.541,49.046,76.771,49.037,76.983,49.017z M76.737,41.978
	c0.216,0.107,0.394,0.26,0.531,0.455c0.141,0.195,0.242,0.432,0.309,0.706c0.066,0.276,0.099,0.579,0.099,0.911h-3.603
	c0.053-0.727,0.242-1.281,0.566-1.661c0.324-0.382,0.767-0.571,1.321-0.571C76.265,41.817,76.522,41.871,76.737,41.978z"/>
<path fill="#FFFFFF" d="M86.304,48.899h1.077V37.503h-1.333v3.192c0,0.078,0.006,0.185,0.016,0.318
	c0.01,0.135,0.02,0.266,0.028,0.394c0.015,0.15,0.029,0.309,0.044,0.475h-0.088c-0.107-0.155-0.234-0.305-0.381-0.445
	s-0.312-0.268-0.502-0.374c-0.188-0.106-0.398-0.192-0.633-0.257c-0.235-0.062-0.496-0.096-0.784-0.096
	c-0.454,0-0.869,0.09-1.245,0.269s-0.697,0.442-0.967,0.794s-0.477,0.788-0.622,1.309s-0.22,1.125-0.22,1.812
	c0,0.684,0.072,1.284,0.22,1.801c0.146,0.52,0.354,0.951,0.622,1.301c0.27,0.35,0.591,0.611,0.967,0.787s0.791,0.264,1.245,0.264
	c0.293,0,0.558-0.031,0.791-0.094c0.233-0.063,0.444-0.152,0.634-0.266c0.188-0.111,0.354-0.242,0.498-0.393
	c0.145-0.147,0.27-0.305,0.377-0.473h0.059L86.304,48.899z M82.536,47.189c-0.311-0.501-0.467-1.261-0.467-2.281
	c0-0.996,0.156-1.761,0.467-2.293c0.311-0.531,0.794-0.798,1.454-0.798c0.396,0,0.725,0.065,0.987,0.201
	c0.265,0.134,0.476,0.332,0.635,0.593c0.158,0.262,0.271,0.584,0.337,0.967c0.065,0.385,0.099,0.822,0.099,1.315v0.3
	c-0.01,0.459-0.053,0.859-0.128,1.205c-0.075,0.344-0.192,0.631-0.353,0.859c-0.158,0.229-0.365,0.4-0.623,0.514
	c-0.256,0.111-0.569,0.168-0.94,0.168C83.335,47.939,82.847,47.689,82.536,47.189z"/>
</svg>
