<?xml version="1.0" encoding="utf-8"?>
<!-- Generator: Adobe Illustrator 15.0.0, SVG Export Plug-In . SVG Version: 6.00 Build 0)  -->
<!DOCTYPE svg PUBLIC "-//W3C//DTD SVG 1.1//EN" "http://www.w3.org/Graphics/SVG/1.1/DTD/svg11.dtd">
<svg version="1.1" id="Layer_1" xmlns="http://www.w3.org/2000/svg" xmlns:xlink="http://www.w3.org/1999/xlink" x="0px" y="0px"
	 width="78.312px" height="52.586px" viewBox="0 0 78.312 52.586" enable-background="new 0 0 78.312 52.586" xml:space="preserve">
<path fill="#FFFFFF" d="M2.878,0L0,8.983h0.624l0.792-2.627h2.938l0.78,2.627H5.77L2.878,0z M2.878,1.535l1.354,4.342H1.535
	L2.878,1.535z"/>
<path fill="#FFFFFF" d="M11.662,5.205c0,2.399-1.211,3.431-2.147,3.431c-0.684,0-0.982-0.588-0.982-1.787v-4.21H7.968v4.474
	c0,0.96,0.324,2.003,1.475,2.003c0.995,0,2.003-0.983,2.243-1.931h0.024l0.24,1.799h0.527c-0.216-1.056-0.252-2.135-0.252-3.214
	V2.639h-0.562L11.662,5.205L11.662,5.205z"/>
<path fill="#FFFFFF" d="M15.275,10.159c0.444,0.468,1.188,0.852,1.848,0.852c0.971,0,2.267-0.648,2.267-2.52V5.854
	c0-1.116-0.012-2.255,0.276-3.347h-0.576l-0.168,0.731c-0.54-0.42-1.021-0.731-1.728-0.731c-1.727,0-2.326,1.619-2.326,3.082
	c0,1.319,0.684,2.831,2.194,2.831c0.624,0,1.355-0.324,1.787-0.78v0.78c0,1.595-0.912,2.11-1.619,2.11
	c-0.588,0-1.188-0.275-1.559-0.72L15.275,10.159z M18.826,6.969C18.49,7.532,17.758,7.94,17.11,7.94
	c-0.516,0-1.679-0.456-1.679-2.459c0-1.079,0.432-2.495,1.739-2.495c0.671,0,1.283,0.396,1.655,0.924L18.826,6.969L18.826,6.969z"/>
<path fill="#FFFFFF" d="M26.061,5.205c0,2.399-1.211,3.431-2.146,3.431c-0.685,0-0.983-0.588-0.983-1.787v-4.21h-0.563v4.474
	c0,0.96,0.323,2.003,1.475,2.003c0.996,0,2.003-0.983,2.243-1.931h0.023l0.24,1.799h0.528c-0.216-1.056-0.252-2.135-0.252-3.214
	V2.639h-0.564L26.061,5.205L26.061,5.205z"/>
<path fill="#FFFFFF" d="M33.453,3.179c-0.576-0.42-1.176-0.672-1.907-0.672c-0.948,0-1.859,0.684-1.859,1.583
	c0,1.128,1.032,1.535,1.907,1.871c0.755,0.288,1.487,0.563,1.487,1.512c0,0.768-0.611,1.163-1.319,1.163
	c-0.744,0-1.583-0.479-2.099-0.996l-0.312,0.456c0.575,0.528,1.595,1.02,2.387,1.02c0.972,0,1.907-0.624,1.907-1.679
	c0-1.235-1.02-1.619-1.991-1.991c-0.575-0.216-1.402-0.563-1.402-1.308c0-0.671,0.624-1.151,1.259-1.151s1.199,0.3,1.703,0.66
	L33.453,3.179z"/>
<path fill="#FFFFFF" d="M40.676,2.639H38.35V0.6h-0.562v2.039H36.36v0.479h1.428v3.994c0,1.607,0.73,2.003,1.547,2.003
	c0.948,0,1.644-0.659,2.039-1.476l-0.54-0.132c-0.275,0.601-0.769,1.128-1.476,1.128c-0.779,0-1.008-0.576-1.008-1.188v-4.33h2.326
	V2.639L40.676,2.639z"/>
<path fill="#FFFFFF" d="M51.551,8.504c0.023-1.224,0.299-1.847,2.098-3.454c0.864-0.768,1.896-1.596,1.896-2.854
	c0-1.247-0.792-2.015-2.039-2.015c-1.415,0-2.206,0.983-2.314,2.326h0.563c0.072-1.008,0.647-1.847,1.739-1.847
	c0.91,0,1.486,0.6,1.486,1.499c0,1.115-1.114,1.991-1.883,2.662c-1.799,1.571-2.111,2.279-2.111,4.162h4.595V8.504H51.551z"/>
<path fill="#FFFFFF" d="M62.84,4.666c0-0.912-0.023-2.003-0.324-2.866c-0.323-0.924-1.007-1.619-2.051-1.619
	c-1.091,0-1.775,0.743-2.086,1.715C58.114,2.7,58.09,3.815,58.09,4.667c0,0.911,0.023,2.015,0.324,2.866
	c0.323,0.924,1.02,1.619,2.051,1.619c1.08,0,1.775-0.744,2.087-1.715C62.817,6.645,62.84,5.505,62.84,4.666z M62.277,4.666
	c0,0.707-0.023,1.667-0.181,2.339c-0.203,0.815-0.684,1.679-1.631,1.679c-0.887,0-1.379-0.779-1.583-1.535
	c-0.216-0.743-0.229-1.715-0.229-2.482c0-0.708,0.023-1.655,0.181-2.339c0.204-0.815,0.684-1.679,1.631-1.679
	c0.888,0,1.379,0.779,1.584,1.547C62.264,2.927,62.277,3.898,62.277,4.666z"/>
<path fill="#FFFFFF" d="M67.977,0.084l-2.291,0.731v0.528l1.729-0.54v7.7H65.77v0.479h3.804V8.504h-1.597V0.084z"/>
<path fill="#FFFFFF" d="M75.177,0.084l-2.291,0.731v0.528l1.728-0.54v7.7h-1.643v0.479h3.801V8.504h-1.595V0.084z"/>
<path fill="#FFFFFF" d="M20.17,21.348c-0.198-0.676-0.492-1.255-0.883-1.735c-0.392-0.481-0.873-0.853-1.446-1.113
	c-0.574-0.262-1.239-0.393-1.996-0.393c-0.796,0-1.487,0.131-2.073,0.393c-0.586,0.261-1.071,0.631-1.458,1.109
	c-0.386,0.478-0.671,1.056-0.856,1.732c-0.187,0.676-0.278,1.43-0.278,2.26s0.093,1.585,0.278,2.267
	c0.186,0.681,0.47,1.263,0.853,1.748c0.384,0.482,0.867,0.855,1.451,1.119c0.583,0.264,1.273,0.396,2.069,0.396
	c0.757,0,1.424-0.133,2.003-0.396s1.062-0.637,1.454-1.119c0.391-0.484,0.685-1.065,0.883-1.745c0.197-0.678,0.296-1.43,0.296-2.256
	C20.467,22.78,20.368,22.024,20.17,21.348z M12.813,21.806c0.127-0.532,0.322-0.982,0.586-1.352c0.265-0.368,0.599-0.651,1.003-0.85
	c0.405-0.197,0.887-0.297,1.443-0.297s1.035,0.1,1.437,0.297c0.399,0.198,0.729,0.481,0.988,0.85s0.449,0.819,0.571,1.352
	c0.122,0.533,0.183,1.135,0.183,1.809c0,0.67-0.061,1.271-0.183,1.806s-0.314,0.989-0.575,1.362
	c-0.262,0.374-0.594,0.659-0.996,0.857c-0.402,0.196-0.883,0.297-1.438,0.297c-0.557,0-1.037-0.101-1.439-0.297
	c-0.402-0.198-0.734-0.483-0.996-0.857c-0.262-0.373-0.456-0.827-0.583-1.362c-0.127-0.534-0.189-1.136-0.189-1.806
	C12.623,22.94,12.686,22.338,12.813,21.806z"/>
<path fill="#FFFFFF" d="M27.557,28.862c0.376-0.178,0.697-0.443,0.963-0.794c0.267-0.353,0.473-0.788,0.619-1.308
	c0.146-0.521,0.22-1.125,0.22-1.812c0-0.684-0.072-1.284-0.22-1.803c-0.146-0.517-0.353-0.95-0.619-1.3
	c-0.267-0.349-0.587-0.611-0.963-0.787c-0.376-0.176-0.793-0.264-1.252-0.264c-0.293,0-0.557,0.033-0.791,0.099
	s-0.446,0.154-0.633,0.264c-0.188,0.11-0.354,0.239-0.495,0.389c-0.142,0.148-0.269,0.309-0.381,0.479h-0.06l-0.189-1.084h-1.084
	v11.646h1.333v-3.435c0-0.079-0.005-0.185-0.015-0.319c-0.011-0.133-0.021-0.265-0.029-0.392c-0.016-0.151-0.029-0.31-0.044-0.476
	h0.088c0.112,0.156,0.24,0.305,0.384,0.445c0.145,0.141,0.312,0.266,0.499,0.371c0.188,0.104,0.399,0.188,0.633,0.252
	c0.234,0.062,0.496,0.096,0.784,0.096C26.763,29.129,27.181,29.042,27.557,28.862z M27.517,22.655
	c0.311,0.503,0.465,1.263,0.465,2.277c0,0.996-0.154,1.761-0.465,2.293c-0.311,0.531-0.795,0.799-1.454,0.799
	c-0.396,0-0.725-0.066-0.988-0.202c-0.265-0.134-0.476-0.331-0.635-0.593c-0.158-0.262-0.271-0.584-0.336-0.967
	c-0.065-0.384-0.099-0.821-0.099-1.314v-0.301c0.01-0.464,0.052-0.866,0.128-1.208c0.075-0.342,0.192-0.628,0.351-0.857
	c0.159-0.229,0.367-0.4,0.623-0.513c0.257-0.112,0.57-0.168,0.941-0.168C26.717,21.901,27.206,22.152,27.517,22.655z"/>
<path fill="#FFFFFF" d="M35.331,29.101c0.212-0.021,0.417-0.052,0.614-0.095c0.198-0.045,0.392-0.102,0.579-0.17
	c0.188-0.067,0.379-0.147,0.575-0.241v-1.187c-0.189,0.088-0.378,0.168-0.563,0.237c-0.187,0.071-0.377,0.13-0.575,0.176
	c-0.198,0.048-0.403,0.082-0.615,0.106c-0.212,0.023-0.443,0.037-0.692,0.037c-0.736,0-1.293-0.223-1.666-0.668
	c-0.373-0.443-0.572-1.137-0.597-2.08h5.068v-0.827c0-0.537-0.072-1.027-0.216-1.469c-0.145-0.442-0.351-0.82-0.619-1.136
	c-0.27-0.314-0.597-0.559-0.981-0.732c-0.386-0.173-0.819-0.26-1.304-0.26c-0.493,0-0.944,0.095-1.352,0.286
	c-0.407,0.189-0.758,0.467-1.051,0.831c-0.293,0.363-0.52,0.807-0.681,1.329c-0.161,0.522-0.242,1.116-0.242,1.779
	c0,0.66,0.088,1.246,0.264,1.758c0.177,0.515,0.424,0.943,0.744,1.29c0.319,0.348,0.702,0.609,1.146,0.79
	c0.443,0.181,0.935,0.271,1.472,0.271C34.888,29.129,35.119,29.12,35.331,29.101z M35.086,22.062
	c0.215,0.108,0.392,0.26,0.531,0.455c0.139,0.195,0.241,0.431,0.308,0.706c0.066,0.276,0.099,0.58,0.099,0.912H32.42
	c0.054-0.728,0.243-1.282,0.567-1.662c0.324-0.382,0.766-0.571,1.322-0.571C34.612,21.901,34.871,21.955,35.086,22.062z"/>
<path fill="#FFFFFF" d="M42.235,20.931c-0.215,0.09-0.409,0.21-0.583,0.358c-0.173,0.149-0.328,0.321-0.468,0.517
	c-0.141,0.195-0.271,0.398-0.393,0.608h-0.06l-0.161-1.473h-1.084v8.042h1.333v-4.336c0-0.396,0.051-0.756,0.15-1.08
	c0.1-0.325,0.242-0.604,0.425-0.835c0.184-0.232,0.401-0.41,0.655-0.535c0.254-0.124,0.535-0.187,0.842-0.187
	c0.127,0,0.263,0.009,0.407,0.025c0.144,0.018,0.284,0.038,0.421,0.062l0.176-1.23c-0.127-0.024-0.277-0.043-0.454-0.055
	c-0.176-0.013-0.335-0.019-0.476-0.019C42.694,20.795,42.45,20.84,42.235,20.931z"/>
<path fill="#FFFFFF" d="M50.819,28.983v-5.508c0-0.479-0.059-0.886-0.176-1.223c-0.117-0.338-0.295-0.614-0.531-0.832
	c-0.236-0.217-0.536-0.376-0.9-0.476c-0.364-0.101-0.794-0.15-1.292-0.15c-0.488,0-0.955,0.068-1.399,0.205
	c-0.443,0.137-0.847,0.303-1.208,0.498l0.47,1.004c0.321-0.166,0.656-0.309,1.007-0.425c0.349-0.117,0.726-0.176,1.132-0.176
	c0.254,0,0.479,0.029,0.678,0.088c0.197,0.059,0.363,0.154,0.497,0.289c0.135,0.134,0.237,0.312,0.308,0.531
	c0.07,0.219,0.106,0.493,0.106,0.82v0.505l-1.348,0.052c-1.152,0.039-2.012,0.273-2.575,0.703c-0.562,0.43-0.846,1.045-0.846,1.846
	c0,0.41,0.059,0.765,0.176,1.065c0.117,0.3,0.278,0.549,0.486,0.746s0.453,0.345,0.736,0.439c0.283,0.096,0.593,0.143,0.931,0.143
	c0.308,0,0.578-0.023,0.812-0.072s0.447-0.124,0.637-0.229c0.191-0.102,0.367-0.231,0.527-0.392
	c0.162-0.158,0.322-0.349,0.483-0.567h0.06l0.271,1.113h0.959V28.983z M46.479,27.738c-0.236-0.21-0.354-0.538-0.354-0.989
	c0-0.248,0.039-0.472,0.117-0.67c0.077-0.197,0.205-0.366,0.385-0.505c0.178-0.14,0.416-0.248,0.714-0.326s0.667-0.127,1.105-0.146
	l1.048-0.052v0.726c0,0.386-0.054,0.722-0.158,1.007c-0.104,0.286-0.25,0.522-0.437,0.711c-0.186,0.188-0.403,0.327-0.657,0.42
	c-0.255,0.094-0.53,0.141-0.828,0.141C47.027,28.054,46.715,27.948,46.479,27.738z"/>
<path fill="#FFFFFF" d="M54.959,27.68c-0.153-0.239-0.23-0.596-0.23-1.069v-4.666h2.021v-1.003h-2.021v-1.846H53.96l-0.571,1.685
	l-1.135,0.571v0.593h1.135v4.666c0,0.493,0.054,0.902,0.161,1.228c0.107,0.324,0.255,0.582,0.442,0.772
	c0.188,0.188,0.411,0.324,0.671,0.402c0.259,0.077,0.54,0.116,0.843,0.116c0.121,0,0.246-0.006,0.373-0.019
	c0.127-0.012,0.249-0.028,0.366-0.051c0.116-0.022,0.225-0.048,0.321-0.077c0.098-0.029,0.18-0.059,0.241-0.088v-1.012
	c-0.043,0.016-0.107,0.033-0.192,0.053c-0.087,0.02-0.181,0.036-0.282,0.051c-0.103,0.016-0.208,0.027-0.319,0.037
	c-0.109,0.01-0.208,0.016-0.296,0.016C55.367,28.04,55.114,27.918,54.959,27.68z"/>
<path fill="#FFFFFF" d="M59.703,20.941H58.37v8.042h1.333V20.941z M58.491,19.403c0.147,0.137,0.333,0.205,0.553,0.205
	c0.215,0,0.397-0.069,0.553-0.209c0.154-0.139,0.23-0.35,0.23-0.633c0-0.146-0.021-0.272-0.062-0.378
	c-0.041-0.104-0.098-0.191-0.168-0.26s-0.154-0.118-0.249-0.15c-0.095-0.031-0.196-0.047-0.304-0.047
	c-0.22,0-0.404,0.065-0.553,0.197c-0.149,0.132-0.225,0.344-0.225,0.638C58.267,19.055,58.341,19.267,58.491,19.403z"/>
<path fill="#FFFFFF" d="M68.546,23.179c-0.173-0.515-0.415-0.949-0.727-1.304c-0.31-0.354-0.677-0.622-1.102-0.806
	c-0.425-0.183-0.889-0.274-1.392-0.274c-0.542,0-1.032,0.092-1.47,0.274c-0.437,0.184-0.807,0.452-1.108,0.806
	c-0.304,0.354-0.536,0.789-0.699,1.304c-0.164,0.516-0.245,1.105-0.245,1.77c0,0.669,0.086,1.263,0.26,1.783
	c0.173,0.521,0.414,0.957,0.726,1.312c0.311,0.354,0.678,0.623,1.103,0.81s0.89,0.278,1.393,0.278c0.542,0,1.029-0.094,1.465-0.278
	c0.435-0.185,0.805-0.455,1.108-0.81c0.306-0.354,0.539-0.791,0.703-1.312c0.164-0.521,0.246-1.114,0.246-1.783
	C68.807,24.284,68.719,23.694,68.546,23.179z M63.676,22.659c0.329-0.506,0.87-0.758,1.622-0.758s1.295,0.252,1.63,0.758
	c0.334,0.505,0.502,1.269,0.502,2.289c0,1.02-0.166,1.788-0.495,2.302c-0.329,0.517-0.87,0.773-1.622,0.773
	s-1.295-0.258-1.629-0.773c-0.335-0.515-0.502-1.282-0.502-2.302C63.182,23.927,63.346,23.164,63.676,22.659z"/>
<path fill="#FFFFFF" d="M77.266,28.983v-5.252c0-1.025-0.227-1.771-0.678-2.237c-0.451-0.466-1.124-0.699-2.019-0.699
	c-0.233,0-0.464,0.024-0.688,0.073c-0.224,0.049-0.438,0.125-0.638,0.227c-0.199,0.104-0.386,0.231-0.554,0.385
	s-0.312,0.336-0.436,0.546h-0.073l-0.189-1.084h-1.084v8.042h1.333v-4.168c0-0.468,0.034-0.883,0.105-1.244
	c0.07-0.361,0.188-0.667,0.353-0.916c0.162-0.249,0.379-0.438,0.647-0.564c0.269-0.126,0.6-0.189,0.996-0.189
	c0.547,0,0.948,0.158,1.204,0.476c0.257,0.317,0.385,0.794,0.385,1.429v5.178h1.334V28.983z"/>
<path fill="#FFFFFF" d="M15.944,45.028c-0.114-0.308-0.283-0.578-0.509-0.812c-0.225-0.233-0.504-0.443-0.838-0.629
	c-0.335-0.188-0.724-0.366-1.168-0.543c-0.41-0.162-0.756-0.313-1.036-0.457c-0.281-0.146-0.507-0.299-0.678-0.463
	c-0.171-0.162-0.293-0.347-0.366-0.549c-0.073-0.203-0.109-0.443-0.109-0.722c0-0.47,0.163-0.841,0.49-1.117
	c0.327-0.274,0.789-0.413,1.385-0.413c0.43,0,0.846,0.053,1.248,0.157s0.764,0.228,1.08,0.37l0.491-1.143
	c-0.36-0.172-0.773-0.312-1.238-0.422c-0.464-0.109-0.985-0.164-1.566-0.164c-0.475,0-0.907,0.061-1.3,0.183
	c-0.394,0.122-0.731,0.299-1.015,0.53c-0.282,0.231-0.503,0.518-0.658,0.854c-0.156,0.337-0.234,0.72-0.234,1.149
	c0,0.41,0.05,0.775,0.149,1.099c0.101,0.321,0.254,0.61,0.462,0.864s0.471,0.482,0.791,0.685c0.319,0.203,0.696,0.39,1.132,0.562
	c0.454,0.181,0.83,0.348,1.128,0.502c0.298,0.152,0.536,0.312,0.714,0.476s0.303,0.345,0.374,0.539
	c0.07,0.194,0.105,0.424,0.105,0.688c0,0.547-0.187,0.967-0.56,1.258c-0.374,0.294-0.951,0.439-1.732,0.439
	c-0.243,0-0.49-0.018-0.739-0.055c-0.249-0.036-0.491-0.084-0.726-0.143c-0.233-0.06-0.458-0.127-0.67-0.201
	c-0.212-0.076-0.4-0.152-0.566-0.23v1.303c0.316,0.168,0.711,0.293,1.183,0.379c0.471,0.084,0.978,0.127,1.52,0.127
	c0.562,0,1.067-0.066,1.517-0.2c0.449-0.136,0.83-0.331,1.143-0.591c0.313-0.258,0.554-0.574,0.722-0.947
	c0.168-0.374,0.253-0.797,0.253-1.271C16.116,45.7,16.059,45.336,15.944,45.028z"/>
<path fill="#FFFFFF" d="M24.437,48.983v-5.252c0-1.025-0.226-1.771-0.678-2.236c-0.452-0.467-1.124-0.699-2.018-0.699
	c-0.234,0-0.465,0.023-0.688,0.072s-0.437,0.125-0.637,0.228c-0.2,0.104-0.385,0.231-0.554,0.385s-0.313,0.336-0.436,0.546h-0.073
	l0.06-1.055v-3.385H18.08v11.396h1.333v-4.168c0-0.468,0.035-0.883,0.105-1.244c0.071-0.361,0.188-0.667,0.353-0.916
	c0.163-0.248,0.379-0.438,0.647-0.564c0.27-0.125,0.602-0.188,0.996-0.188c0.547,0,0.949,0.158,1.205,0.476
	c0.257,0.317,0.385,0.795,0.385,1.43v5.178h1.332V48.983z"/>
<path fill="#FFFFFF" d="M32.405,48.983v-5.508c0-0.479-0.059-0.887-0.176-1.223c-0.117-0.338-0.294-0.614-0.53-0.832
	c-0.237-0.217-0.538-0.377-0.901-0.477c-0.364-0.102-0.794-0.15-1.292-0.15c-0.488,0-0.955,0.068-1.399,0.205
	c-0.443,0.137-0.847,0.303-1.208,0.498l0.47,1.004c0.321-0.166,0.657-0.309,1.007-0.424c0.349-0.117,0.727-0.177,1.132-0.177
	c0.254,0,0.479,0.029,0.678,0.088c0.197,0.06,0.363,0.154,0.498,0.289c0.134,0.134,0.237,0.312,0.309,0.531
	c0.069,0.219,0.105,0.493,0.105,0.819v0.506l-1.348,0.052c-1.152,0.039-2.012,0.272-2.575,0.703
	c-0.563,0.43-0.846,1.045-0.846,1.846c0,0.41,0.059,0.765,0.176,1.065c0.117,0.3,0.279,0.549,0.487,0.746s0.452,0.345,0.735,0.439
	c0.283,0.096,0.593,0.143,0.931,0.143c0.308,0,0.578-0.023,0.812-0.072s0.447-0.124,0.637-0.229c0.19-0.102,0.366-0.231,0.527-0.392
	c0.161-0.158,0.322-0.349,0.483-0.567h0.059l0.271,1.113h0.959V48.983z M28.066,47.738c-0.236-0.21-0.354-0.538-0.354-0.989
	c0-0.248,0.039-0.472,0.117-0.67c0.078-0.197,0.206-0.365,0.385-0.504c0.178-0.141,0.416-0.248,0.714-0.326s0.667-0.127,1.106-0.146
	l1.047-0.053v0.727c0,0.387-0.054,0.723-0.158,1.008c-0.105,0.285-0.25,0.521-0.437,0.711c-0.186,0.188-0.404,0.327-0.658,0.42
	c-0.254,0.094-0.53,0.141-0.828,0.141C28.615,48.054,28.302,47.948,28.066,47.738z"/>
<path fill="#FFFFFF" d="M40.038,48.983h1.075V37.586h-1.332v3.193c0,0.078,0.005,0.186,0.015,0.318
	c0.01,0.135,0.02,0.266,0.029,0.393c0.015,0.15,0.028,0.311,0.044,0.477h-0.088c-0.107-0.156-0.234-0.305-0.382-0.446
	c-0.146-0.142-0.313-0.267-0.502-0.374c-0.188-0.107-0.398-0.191-0.633-0.257c-0.233-0.062-0.496-0.095-0.784-0.095
	c-0.454,0-0.869,0.088-1.245,0.268c-0.376,0.178-0.697,0.443-0.967,0.794c-0.269,0.353-0.476,0.788-0.623,1.308
	c-0.146,0.521-0.22,1.125-0.22,1.813c0,0.685,0.073,1.284,0.22,1.801c0.146,0.519,0.354,0.951,0.623,1.302
	c0.27,0.349,0.591,0.61,0.967,0.787c0.376,0.176,0.791,0.264,1.245,0.264c0.293,0,0.558-0.032,0.791-0.096
	c0.234-0.062,0.445-0.15,0.633-0.265c0.188-0.11,0.354-0.242,0.499-0.392c0.145-0.148,0.271-0.307,0.378-0.473h0.059L40.038,48.983z
	 M36.269,47.273c-0.31-0.501-0.465-1.261-0.465-2.282c0-0.996,0.155-1.76,0.465-2.291c0.311-0.533,0.795-0.799,1.454-0.799
	c0.396,0,0.726,0.066,0.989,0.201c0.264,0.134,0.475,0.332,0.634,0.593c0.158,0.263,0.271,0.584,0.337,0.968
	c0.065,0.383,0.1,0.82,0.1,1.314v0.3c-0.011,0.459-0.054,0.86-0.129,1.205s-0.192,0.631-0.352,0.86
	c-0.159,0.229-0.366,0.4-0.622,0.513c-0.257,0.112-0.57,0.169-0.94,0.169C37.068,48.024,36.579,47.773,36.269,47.273z"/>
<path fill="#FFFFFF" d="M45.508,49.057l-0.418,1.172c-0.072,0.2-0.154,0.378-0.244,0.534c-0.092,0.155-0.199,0.288-0.326,0.396
	c-0.127,0.106-0.275,0.188-0.446,0.245c-0.172,0.056-0.373,0.084-0.607,0.084c-0.172,0-0.335-0.009-0.491-0.024
	c-0.156-0.019-0.286-0.039-0.388-0.062v1.062c0.131,0.029,0.29,0.058,0.476,0.084c0.187,0.027,0.405,0.041,0.659,0.041
	c0.391,0,0.729-0.061,1.011-0.18c0.283-0.119,0.53-0.289,0.739-0.51c0.211-0.22,0.396-0.486,0.554-0.802s0.307-0.671,0.442-1.065
	l3.18-9.09H48.27l-1.458,4.477c-0.054,0.16-0.116,0.355-0.187,0.586c-0.071,0.229-0.141,0.461-0.205,0.699
	c-0.066,0.235-0.126,0.459-0.18,0.67c-0.055,0.209-0.094,0.375-0.117,0.498H46.08c-0.021-0.172-0.053-0.356-0.096-0.558
	c-0.045-0.2-0.098-0.407-0.157-0.623c-0.062-0.214-0.127-0.429-0.197-0.646c-0.071-0.213-0.142-0.418-0.209-0.613l-1.574-4.49
	h-1.385L45.508,49.057z"/>
<path fill="#FFFFFF" d="M58.114,44.56l2.57,4.424h1.604l-2.914-4.797c0.268-0.099,0.528-0.224,0.783-0.374
	c0.254-0.15,0.479-0.341,0.678-0.566c0.197-0.229,0.354-0.5,0.476-0.816c0.121-0.317,0.181-0.689,0.181-1.113
	c0-1.021-0.311-1.781-0.932-2.285c-0.619-0.503-1.579-0.755-2.878-0.755h-2.606v10.708h1.361V44.56H58.114z M56.436,39.44h1.172
	c0.426,0,0.792,0.035,1.103,0.105s0.565,0.185,0.77,0.34c0.204,0.156,0.354,0.357,0.455,0.602s0.149,0.542,0.149,0.895
	c0,0.336-0.046,0.631-0.136,0.883c-0.091,0.251-0.234,0.461-0.433,0.63c-0.198,0.168-0.451,0.295-0.758,0.381
	c-0.309,0.085-0.682,0.128-1.121,0.128h-1.201V39.44z"/>
<path fill="#FFFFFF" d="M71.583,48.983l-3.94-10.752h-1.245l-3.934,10.752h1.377l1.188-3.318h3.991l1.172,3.318H71.583z
	 M65.467,44.458l1.062-3.105c0.029-0.083,0.064-0.188,0.106-0.312c0.041-0.123,0.084-0.261,0.128-0.41
	c0.044-0.147,0.088-0.303,0.132-0.465c0.044-0.16,0.083-0.316,0.117-0.469c0.039,0.151,0.08,0.307,0.125,0.465
	c0.043,0.159,0.088,0.312,0.131,0.459c0.045,0.146,0.087,0.282,0.129,0.409c0.041,0.128,0.076,0.234,0.105,0.322l1.084,3.104h-3.119
	V44.458z"/>
<path fill="#FFFFFF" d="M75.259,39.477h3.054v-1.201h-7.483v1.201h3.061v9.507h1.37L75.259,39.477L75.259,39.477z"/>
</svg>
