<?xml version="1.0" encoding="utf-8"?>
<!-- Generator: Adobe Illustrator 16.0.0, SVG Export Plug-In . SVG Version: 6.00 Build 0)  -->
<!DOCTYPE svg PUBLIC "-//W3C//DTD SVG 1.1//EN" "http://www.w3.org/Graphics/SVG/1.1/DTD/svg11.dtd">
<svg version="1.1" id="Layer_1" xmlns="http://www.w3.org/2000/svg" xmlns:xlink="http://www.w3.org/1999/xlink" x="0px" y="0px"
	 width="116.382px" height="30.502px" viewBox="-120.576 -38.376 116.382 30.502"
	 enable-background="new -120.576 -38.376 116.382 30.502" xml:space="preserve">
<g>
	<path fill="#FFFFFF" d="M-83.894-38.113v5.901c0,2.087-0.755,2.902-2.327,2.902c-1.391,0-2.159-0.744-2.159-2.771v-0.923h0.563
		v1.235c0,1.367,0.492,1.991,1.583,1.979c1.224-0.024,1.775-0.792,1.775-1.979v-5.865h-1.631v-0.48H-83.894z"/>
	<path fill="#FFFFFF" d="M-77.126-29.346c-0.12-0.348-0.204-0.72-0.24-1.079c-0.444,0.635-0.912,1.079-1.739,1.079
		c-1.163,0-1.763-0.947-1.763-2.015c0-1.211,0.684-2.255,1.907-2.255c0.516,0,1.104,0.204,1.547,0.42
		c0.036-1.607-0.251-2.279-1.295-2.279c-0.552,0-1.02,0.192-1.523,0.419l-0.132-0.516c0.552-0.216,1.091-0.384,1.691-0.384
		c1.164,0,1.859,0.815,1.823,2.231l-0.072,2.59c-0.012,0.612,0.144,1.188,0.312,1.715L-77.126-29.346z M-77.45-32.752
		c-0.396-0.204-0.875-0.384-1.379-0.384c-1.055,0-1.475,0.888-1.475,1.823c0,0.708,0.396,1.487,1.199,1.487
		c0.792,0,1.271-0.636,1.655-1.283V-32.752z"/>
	<path fill="#FFFFFF" d="M-72.984-29.478h-0.564v-3.178c0-1.08-0.036-2.159-0.252-3.238h0.528l0.228,1.823h0.024
		c0.24-0.948,1.247-1.883,2.255-1.883c1.151,0,1.475,0.996,1.475,1.955v4.521h-0.564v-4.258c0-0.731,0-1.739-0.983-1.739
		c-0.912,0-2.146,0.912-2.146,3.382V-29.478z"/>
	<path fill="#FFFFFF" d="M-62.606-35.822h0.563v3.13c0,1.08,0.036,2.159,0.252,3.214h-0.528l-0.24-1.799h-0.024
		c-0.24,0.947-1.248,1.931-2.243,1.931c-1.151,0-1.476-1.043-1.476-2.003v-4.474h0.564v4.21c0,1.199,0.3,1.787,0.983,1.787
		c0.936,0,2.147-1.032,2.147-3.43V-35.822z"/>
	<path fill="#FFFFFF" d="M-55.526-29.346c-0.12-0.348-0.204-0.72-0.24-1.079c-0.444,0.635-0.912,1.079-1.739,1.079
		c-1.163,0-1.763-0.947-1.763-2.015c0-1.211,0.684-2.255,1.907-2.255c0.516,0,1.104,0.204,1.547,0.42
		c0.036-1.607-0.251-2.279-1.295-2.279c-0.552,0-1.02,0.192-1.523,0.419l-0.132-0.516c0.552-0.216,1.091-0.384,1.691-0.384
		c1.164,0,1.859,0.815,1.823,2.231l-0.072,2.59c-0.012,0.612,0.144,1.188,0.312,1.715L-55.526-29.346z M-55.85-32.752
		c-0.396-0.204-0.875-0.384-1.379-0.384c-1.055,0-1.475,0.888-1.475,1.823c0,0.708,0.396,1.487,1.199,1.487
		c0.792,0,1.271-0.636,1.655-1.283V-32.752z"/>
	<path fill="#FFFFFF" d="M-50.809-29.478h-0.563v-4.39l-0.228-2.027h0.54l0.216,1.799c0.419-0.875,1.079-1.859,2.171-1.859
		c1.055,0,1.331,1.056,1.331,1.919h-0.563c-0.012-0.587-0.048-1.439-0.816-1.439c-0.647,0-2.087,1.007-2.087,3.418V-29.478z"/>
	<path fill="#FFFFFF" d="M-40.059-35.822l-2.375,6.033c-0.336,0.864-0.875,2.339-1.991,2.339c-0.719,0-1.247-0.563-1.463-1.211
		l0.479-0.252c0.156,0.432,0.456,0.984,0.983,0.984c0.612,0,0.924-0.708,1.14-1.188l0.479-1.091l-2.063-5.613h0.624l1.715,4.87
		l1.823-4.87H-40.059z"/>
	<path fill="#FFFFFF" d="M-25.887-29.957v0.479h-4.593c0-1.883,0.312-2.591,2.111-4.162c0.768-0.672,1.883-1.547,1.883-2.663
		c0-0.899-0.576-1.499-1.487-1.499c-1.091,0-1.667,0.839-1.739,1.847h-0.564c0.108-1.343,0.9-2.327,2.315-2.327
		c1.248,0,2.039,0.768,2.039,2.015c0,1.259-1.032,2.087-1.895,2.854c-1.799,1.607-2.075,2.23-2.099,3.454H-25.887z"/>
	<path fill="#FFFFFF" d="M-18.915-31.025c-0.312,0.972-1.008,1.715-2.087,1.715c-1.032,0-1.727-0.696-2.051-1.619
		c-0.3-0.852-0.324-1.955-0.324-2.866c0-0.852,0.024-1.967,0.288-2.771c0.312-0.972,0.996-1.715,2.087-1.715
		c1.043,0,1.727,0.696,2.051,1.619c0.3,0.864,0.324,1.955,0.324,2.867C-18.627-32.956-18.651-31.816-18.915-31.025z M-19.419-36.266
		c-0.204-0.768-0.696-1.547-1.583-1.547c-0.948,0-1.427,0.864-1.631,1.679c-0.156,0.684-0.18,1.631-0.18,2.339
		c0,0.768,0.012,1.739,0.228,2.482c0.204,0.755,0.696,1.535,1.583,1.535c0.947,0,1.427-0.864,1.631-1.679
		c0.156-0.671,0.18-1.631,0.18-2.338C-19.191-34.562-19.203-35.534-19.419-36.266z"/>
	<path fill="#FFFFFF" d="M-13.49-29.957h1.595v0.479h-3.802v-0.479h1.643v-7.7l-1.727,0.54v-0.528l2.291-0.731V-29.957z"/>
	<path fill="#FFFFFF" d="M-4.515-31.025c-0.312,0.972-1.008,1.715-2.087,1.715c-1.032,0-1.727-0.696-2.051-1.619
		c-0.3-0.852-0.324-1.955-0.324-2.866c0-0.852,0.024-1.967,0.288-2.771c0.312-0.972,0.996-1.715,2.087-1.715
		c1.043,0,1.727,0.696,2.051,1.619c0.3,0.864,0.324,1.955,0.324,2.867C-4.228-32.956-4.251-31.816-4.515-31.025z M-5.019-36.266
		c-0.204-0.768-0.696-1.547-1.583-1.547c-0.948,0-1.427,0.864-1.631,1.679c-0.156,0.684-0.18,1.631-0.18,2.339
		c0,0.768,0.012,1.739,0.228,2.482c0.204,0.755,0.695,1.535,1.583,1.535c0.947,0,1.427-0.864,1.631-1.679
		c0.156-0.671,0.18-1.631,0.18-2.338C-4.791-34.562-4.803-35.534-5.019-36.266z"/>
	<path fill="#FFFFFF" d="M-111.289-16.846c0,0.825-0.099,1.577-0.296,2.256c-0.198,0.679-0.492,1.26-0.883,1.743
		s-0.875,0.857-1.454,1.121c-0.578,0.264-1.246,0.396-2.003,0.396c-0.796,0-1.486-0.132-2.069-0.396s-1.067-0.637-1.45-1.121
		s-0.667-1.066-0.853-1.747c-0.186-0.682-0.278-1.437-0.278-2.267s0.093-1.583,0.278-2.259s0.471-1.254,0.857-1.732
		s0.872-0.848,1.458-1.109s1.277-0.392,2.073-0.392c0.757,0,1.422,0.131,1.996,0.392c0.573,0.261,1.056,0.632,1.446,1.113
		s0.685,1.06,0.883,1.735C-111.388-18.437-111.289-17.681-111.289-16.846z M-119.133-16.846c0,0.669,0.063,1.271,0.19,1.805
		c0.127,0.535,0.321,0.989,0.582,1.362c0.261,0.374,0.594,0.659,0.996,0.857c0.403,0.197,0.883,0.296,1.439,0.296
		s1.036-0.099,1.439-0.296c0.402-0.198,0.734-0.483,0.996-0.857c0.261-0.373,0.453-0.827,0.575-1.362
		c0.122-0.534,0.183-1.136,0.183-1.805c0-0.674-0.061-1.277-0.183-1.809s-0.312-0.982-0.571-1.352
		c-0.259-0.368-0.588-0.651-0.989-0.85c-0.4-0.197-0.879-0.296-1.436-0.296s-1.038,0.099-1.443,0.296
		c-0.405,0.198-0.74,0.481-1.003,0.85c-0.264,0.369-0.459,0.819-0.586,1.352S-119.133-17.52-119.133-16.846z"/>
	<path fill="#FFFFFF" d="M-105.452-11.331c-0.288,0-0.549-0.032-0.784-0.095s-0.446-0.147-0.633-0.252
		c-0.188-0.105-0.354-0.229-0.498-0.37c-0.145-0.142-0.272-0.291-0.385-0.447h-0.088c0.015,0.166,0.029,0.325,0.044,0.476
		c0.01,0.127,0.02,0.258,0.029,0.392c0.01,0.135,0.015,0.241,0.015,0.319v3.435h-1.333V-19.52H-108l0.19,1.084h0.059
		c0.112-0.171,0.239-0.331,0.381-0.479s0.306-0.278,0.494-0.389c0.188-0.109,0.399-0.197,0.634-0.264
		c0.234-0.065,0.498-0.099,0.791-0.099c0.459,0,0.876,0.088,1.252,0.264s0.697,0.438,0.963,0.787c0.266,0.35,0.472,0.783,0.619,1.3
		s0.22,1.118,0.22,1.802c0,0.688-0.073,1.292-0.22,1.813c-0.146,0.52-0.353,0.956-0.619,1.307c-0.267,0.352-0.587,0.617-0.963,0.794
		C-104.575-11.42-104.993-11.331-105.452-11.331z M-105.708-18.56c-0.371,0-0.685,0.056-0.941,0.168
		c-0.257,0.112-0.464,0.283-0.623,0.513s-0.276,0.515-0.352,0.857s-0.118,0.745-0.128,1.208v0.3c0,0.493,0.033,0.932,0.099,1.315
		c0.066,0.383,0.178,0.706,0.337,0.967s0.37,0.459,0.634,0.593c0.264,0.135,0.593,0.202,0.989,0.202
		c0.659,0,1.144-0.266,1.454-0.798s0.465-1.296,0.465-2.292c0-1.016-0.155-1.775-0.465-2.278S-105.039-18.56-105.708-18.56z"/>
	<path fill="#FFFFFF" d="M-97.117-11.331c-0.537,0-1.028-0.09-1.472-0.271s-0.827-0.444-1.146-0.791
		c-0.32-0.347-0.568-0.776-0.744-1.289s-0.264-1.099-0.264-1.758c0-0.664,0.081-1.257,0.242-1.78s0.388-0.965,0.681-1.329
		s0.643-0.641,1.051-0.832c0.407-0.19,0.858-0.286,1.351-0.286c0.483,0,0.918,0.087,1.304,0.26c0.386,0.174,0.713,0.418,0.981,0.732
		c0.269,0.315,0.475,0.694,0.619,1.136s0.216,0.931,0.216,1.468v0.828h-5.068c0.024,0.942,0.223,1.636,0.597,2.08
		c0.373,0.444,0.929,0.667,1.666,0.667c0.249,0,0.479-0.012,0.692-0.037c0.212-0.024,0.417-0.06,0.615-0.106
		c0.197-0.046,0.389-0.104,0.575-0.176c0.186-0.07,0.374-0.15,0.564-0.238v1.187c-0.195,0.093-0.387,0.173-0.575,0.242
		s-0.381,0.125-0.578,0.168c-0.198,0.044-0.403,0.076-0.615,0.095C-96.637-11.341-96.868-11.331-97.117-11.331z M-97.446-18.56
		c-0.557,0-0.998,0.19-1.322,0.571c-0.325,0.381-0.514,0.935-0.568,1.663h3.604c0-0.332-0.033-0.636-0.099-0.912
		c-0.065-0.275-0.168-0.511-0.308-0.707c-0.139-0.195-0.316-0.347-0.531-0.454S-97.144-18.56-97.446-18.56z"/>
	<path fill="#FFFFFF" d="M-88.789-19.666c0.142,0,0.3,0.006,0.476,0.019s0.327,0.03,0.454,0.055l-0.176,1.23
		c-0.137-0.024-0.277-0.045-0.421-0.062c-0.145-0.017-0.28-0.025-0.407-0.025c-0.308,0-0.588,0.062-0.842,0.187
		c-0.254,0.125-0.473,0.303-0.655,0.535c-0.184,0.232-0.325,0.51-0.425,0.835c-0.101,0.325-0.15,0.685-0.15,1.08v4.336h-1.333
		v-8.042h1.084l0.161,1.472h0.059c0.122-0.21,0.253-0.413,0.392-0.608c0.14-0.195,0.295-0.367,0.469-0.517
		c0.173-0.148,0.368-0.268,0.583-0.358S-89.062-19.666-88.789-19.666z"/>
	<path fill="#FFFFFF" d="M-81.897-11.478l-0.271-1.113h-0.059c-0.161,0.22-0.322,0.409-0.483,0.567
		c-0.161,0.159-0.337,0.29-0.527,0.392s-0.403,0.178-0.637,0.227s-0.505,0.073-0.813,0.073c-0.337,0-0.647-0.048-0.93-0.143
		c-0.283-0.096-0.529-0.242-0.736-0.439c-0.208-0.198-0.37-0.447-0.487-0.747c-0.117-0.301-0.176-0.656-0.176-1.066
		c0-0.801,0.282-1.416,0.846-1.846c0.564-0.43,1.422-0.664,2.575-0.703l1.348-0.051v-0.505c0-0.327-0.036-0.601-0.106-0.82
		c-0.071-0.22-0.174-0.396-0.308-0.531c-0.135-0.134-0.301-0.231-0.498-0.29c-0.198-0.059-0.424-0.088-0.678-0.088
		c-0.405,0-0.783,0.059-1.132,0.176s-0.685,0.259-1.007,0.425l-0.469-1.003c0.361-0.195,0.764-0.361,1.208-0.498
		s0.911-0.205,1.399-0.205c0.498,0,0.929,0.05,1.293,0.15c0.363,0.1,0.664,0.259,0.9,0.476c0.237,0.218,0.414,0.495,0.531,0.832
		s0.176,0.745,0.176,1.223v5.508H-81.897z M-84.343-12.408c0.298,0,0.574-0.046,0.828-0.139s0.474-0.233,0.659-0.421
		s0.331-0.425,0.436-0.711c0.105-0.285,0.158-0.621,0.158-1.007v-0.725l-1.047,0.051c-0.439,0.02-0.808,0.068-1.106,0.146
		s-0.536,0.187-0.714,0.326c-0.178,0.139-0.306,0.308-0.384,0.505c-0.078,0.198-0.117,0.421-0.117,0.67
		c0,0.449,0.118,0.779,0.355,0.989S-84.729-12.408-84.343-12.408z"/>
	<path fill="#FFFFFF" d="M-76.038-12.422c0.088,0,0.187-0.005,0.297-0.015c0.109-0.01,0.216-0.022,0.318-0.037
		s0.196-0.032,0.282-0.051c0.085-0.02,0.15-0.037,0.194-0.051v1.011c-0.063,0.029-0.144,0.059-0.242,0.088s-0.205,0.055-0.322,0.077
		c-0.117,0.021-0.239,0.039-0.366,0.051s-0.251,0.019-0.374,0.019c-0.303,0-0.583-0.039-0.842-0.117s-0.482-0.212-0.67-0.403
		c-0.188-0.19-0.336-0.448-0.443-0.773c-0.107-0.324-0.161-0.733-0.161-1.227v-4.666h-1.135v-0.593l1.135-0.571l0.571-1.685h0.769
		v1.846h2.021v1.003h-2.021v4.666c0,0.474,0.077,0.83,0.231,1.069C-76.642-12.542-76.389-12.422-76.038-12.422z"/>
	<path fill="#FFFFFF" d="M-73.489-21.695c0-0.293,0.074-0.505,0.224-0.637c0.148-0.132,0.333-0.198,0.553-0.198
		c0.107,0,0.209,0.016,0.304,0.047c0.096,0.032,0.178,0.082,0.249,0.15s0.127,0.155,0.169,0.26c0.041,0.105,0.062,0.231,0.062,0.377
		c0,0.283-0.077,0.495-0.231,0.633c-0.153,0.14-0.338,0.209-0.553,0.209c-0.22,0-0.404-0.068-0.553-0.205
		C-73.415-21.194-73.489-21.407-73.489-21.695z M-72.053-11.478h-1.333v-8.042h1.333V-11.478z"/>
	<path fill="#FFFFFF" d="M-62.949-15.513c0,0.669-0.082,1.263-0.246,1.784c-0.164,0.52-0.398,0.957-0.703,1.311
		c-0.305,0.354-0.675,0.624-1.109,0.81s-0.923,0.278-1.465,0.278c-0.503,0-0.967-0.093-1.392-0.278s-0.792-0.455-1.103-0.81
		c-0.31-0.354-0.552-0.791-0.725-1.311c-0.174-0.521-0.26-1.115-0.26-1.784c0-0.664,0.082-1.253,0.246-1.769
		c0.163-0.515,0.396-0.949,0.699-1.304c0.303-0.354,0.672-0.622,1.109-0.806c0.437-0.183,0.927-0.274,1.469-0.274
		c0.503,0,0.967,0.092,1.392,0.274c0.425,0.184,0.792,0.452,1.103,0.806c0.31,0.354,0.551,0.789,0.725,1.304
		C-63.036-16.767-62.949-16.177-62.949-15.513z M-68.574-15.513c0,1.021,0.167,1.789,0.501,2.303
		c0.334,0.516,0.878,0.773,1.63,0.773s1.293-0.257,1.622-0.773c0.33-0.515,0.495-1.283,0.495-2.303s-0.167-1.784-0.501-2.289
		c-0.335-0.506-0.878-0.758-1.63-0.758s-1.293,0.252-1.622,0.758C-68.41-17.297-68.574-16.534-68.574-15.513z"/>
	<path fill="#FFFFFF" d="M-55.823-11.478v-5.178c0-0.635-0.128-1.111-0.385-1.428c-0.256-0.317-0.658-0.476-1.205-0.476
		c-0.396,0-0.728,0.063-0.996,0.19s-0.485,0.315-0.648,0.564c-0.164,0.249-0.281,0.554-0.352,0.916
		c-0.071,0.361-0.106,0.776-0.106,1.245v4.167h-1.333v-8.042h1.084l0.19,1.084h0.073c0.122-0.21,0.268-0.392,0.436-0.546
		c0.169-0.153,0.353-0.282,0.553-0.384s0.413-0.178,0.637-0.227s0.454-0.073,0.688-0.073c0.894,0,1.566,0.233,2.018,0.699
		c0.452,0.467,0.678,1.212,0.678,2.238v5.251H-55.823z"/>
	<path fill="#FFFFFF" d="M-41.665-11.478l-1.172-3.318h-3.992l-1.187,3.318h-1.377l3.933-10.752h1.245l3.94,10.752H-41.665z
		 M-43.269-16.004l-1.084-3.105c-0.029-0.088-0.065-0.195-0.106-0.322s-0.084-0.264-0.128-0.41s-0.088-0.299-0.132-0.458
		c-0.044-0.158-0.085-0.313-0.125-0.465c-0.034,0.151-0.073,0.308-0.117,0.469s-0.088,0.316-0.132,0.465
		c-0.044,0.149-0.087,0.286-0.128,0.41c-0.042,0.125-0.077,0.229-0.106,0.312l-1.062,3.105H-43.269z"/>
	<path fill="#FFFFFF" d="M-33.792-11.478l-0.198-1.077h-0.073c-0.122,0.21-0.268,0.392-0.436,0.545
		c-0.169,0.154-0.353,0.281-0.553,0.381c-0.2,0.101-0.413,0.175-0.637,0.224s-0.454,0.073-0.688,0.073
		c-0.444,0-0.835-0.056-1.172-0.168s-0.618-0.288-0.842-0.527s-0.395-0.544-0.509-0.916s-0.172-0.813-0.172-1.326v-5.251h1.333
		v5.178c0,0.635,0.129,1.111,0.388,1.428s0.659,0.476,1.201,0.476c0.396,0,0.728-0.063,0.996-0.19s0.484-0.313,0.648-0.56
		s0.281-0.551,0.352-0.912s0.106-0.776,0.106-1.245v-4.175h1.333v8.042H-33.792z"/>
	<path fill="#FFFFFF" d="M-26.687-19.666c0.142,0,0.3,0.006,0.476,0.019s0.327,0.03,0.454,0.055l-0.176,1.23
		c-0.137-0.024-0.277-0.045-0.421-0.062c-0.145-0.017-0.28-0.025-0.407-0.025c-0.308,0-0.588,0.062-0.842,0.187
		c-0.254,0.125-0.473,0.303-0.655,0.535c-0.184,0.232-0.325,0.51-0.425,0.835c-0.101,0.325-0.15,0.685-0.15,1.08v4.336h-1.333
		v-8.042h1.084l0.161,1.472h0.059c0.122-0.21,0.253-0.413,0.392-0.608c0.14-0.195,0.295-0.367,0.469-0.517
		c0.173-0.148,0.368-0.268,0.583-0.358S-26.96-19.666-26.687-19.666z"/>
	<path fill="#FFFFFF" d="M-17.627-15.513c0,0.669-0.082,1.263-0.246,1.784c-0.164,0.52-0.398,0.957-0.703,1.311
		c-0.305,0.354-0.675,0.624-1.109,0.81s-0.923,0.278-1.465,0.278c-0.503,0-0.967-0.093-1.392-0.278s-0.792-0.455-1.103-0.81
		c-0.31-0.354-0.552-0.791-0.725-1.311c-0.174-0.521-0.26-1.115-0.26-1.784c0-0.664,0.082-1.253,0.246-1.769
		c0.163-0.515,0.396-0.949,0.699-1.304c0.303-0.354,0.672-0.622,1.109-0.806c0.437-0.183,0.927-0.274,1.469-0.274
		c0.503,0,0.967,0.092,1.392,0.274c0.425,0.184,0.792,0.452,1.103,0.806c0.31,0.354,0.551,0.789,0.725,1.304
		C-17.714-16.767-17.627-16.177-17.627-15.513z M-23.252-15.513c0,1.021,0.167,1.789,0.501,2.303
		c0.334,0.516,0.878,0.773,1.63,0.773s1.293-0.257,1.622-0.773c0.33-0.515,0.495-1.283,0.495-2.303s-0.167-1.784-0.501-2.289
		c-0.335-0.506-0.878-0.758-1.63-0.758s-1.293,0.252-1.622,0.758C-23.087-17.297-23.252-16.534-23.252-15.513z"/>
	<path fill="#FFFFFF" d="M-12.046-19.666c0.142,0,0.3,0.006,0.476,0.019s0.327,0.03,0.454,0.055l-0.176,1.23
		c-0.137-0.024-0.277-0.045-0.421-0.062c-0.145-0.017-0.28-0.025-0.407-0.025c-0.308,0-0.588,0.062-0.842,0.187
		c-0.254,0.125-0.473,0.303-0.655,0.535c-0.184,0.232-0.325,0.51-0.425,0.835c-0.101,0.325-0.15,0.685-0.15,1.08v4.336h-1.333
		v-8.042h1.084l0.161,1.472h0.059c0.122-0.21,0.253-0.413,0.392-0.608c0.14-0.195,0.295-0.367,0.469-0.517
		c0.173-0.148,0.368-0.268,0.583-0.358S-12.319-19.666-12.046-19.666z"/>
	<path fill="#FFFFFF" d="M-5.154-11.478l-0.271-1.113h-0.059c-0.161,0.22-0.322,0.409-0.483,0.567
		c-0.161,0.159-0.337,0.29-0.527,0.392s-0.403,0.178-0.637,0.227s-0.505,0.073-0.813,0.073c-0.337,0-0.647-0.048-0.93-0.143
		c-0.283-0.096-0.529-0.242-0.736-0.439c-0.208-0.198-0.37-0.447-0.487-0.747c-0.117-0.301-0.176-0.656-0.176-1.066
		c0-0.801,0.282-1.416,0.846-1.846c0.564-0.43,1.422-0.664,2.575-0.703l1.348-0.051v-0.505c0-0.327-0.036-0.601-0.106-0.82
		c-0.071-0.22-0.174-0.396-0.308-0.531c-0.135-0.134-0.301-0.231-0.498-0.29c-0.198-0.059-0.424-0.088-0.678-0.088
		c-0.405,0-0.783,0.059-1.132,0.176s-0.685,0.259-1.007,0.425l-0.469-1.003c0.361-0.195,0.764-0.361,1.208-0.498
		s0.911-0.205,1.399-0.205c0.498,0,0.929,0.05,1.293,0.15c0.363,0.1,0.664,0.259,0.9,0.476c0.237,0.218,0.414,0.495,0.531,0.832
		s0.176,0.745,0.176,1.223v5.508H-5.154z M-7.6-12.408c0.298,0,0.574-0.046,0.828-0.139s0.474-0.233,0.659-0.421
		s0.331-0.425,0.436-0.711c0.105-0.285,0.158-0.621,0.158-1.007v-0.725l-1.047,0.051c-0.439,0.02-0.808,0.068-1.106,0.146
		s-0.536,0.187-0.714,0.326c-0.178,0.139-0.306,0.308-0.384,0.505c-0.078,0.198-0.117,0.421-0.117,0.67
		c0,0.449,0.118,0.779,0.355,0.989S-7.986-12.408-7.6-12.408z"/>
</g>
</svg>
