<?xml version="1.0" encoding="utf-8"?>
<!-- Generator: Adobe Illustrator 15.0.0, SVG Export Plug-In . SVG Version: 6.00 Build 0)  -->
<!DOCTYPE svg PUBLIC "-//W3C//DTD SVG 1.1//EN" "http://www.w3.org/Graphics/SVG/1.1/DTD/svg11.dtd">
<svg version="1.1" id="Layer_1" xmlns="http://www.w3.org/2000/svg" xmlns:xlink="http://www.w3.org/1999/xlink" x="0px" y="0px"
	 width="77.74px" height="29.129px" viewBox="0 0 77.74 29.129" enable-background="new 0 0 77.74 29.129" xml:space="preserve">
<path fill="#FFFFFF" d="M3.462,0L0.585,8.983h0.624L2,6.356h2.937l0.779,2.626h0.636L3.462,0z M3.462,1.535l1.354,4.342H2.119
	L3.462,1.535z"/>
<path fill="#FFFFFF" d="M12.241,5.205c0,2.398-1.211,3.43-2.146,3.43c-0.684,0-0.983-0.588-0.983-1.787V2.639H8.549v4.474
	c0,0.959,0.323,2.003,1.475,2.003c0.995,0,2.002-0.984,2.241-1.931h0.024l0.24,1.799h0.527c-0.216-1.055-0.252-2.135-0.252-3.214
	V2.64h-0.563V5.205z"/>
<path fill="#FFFFFF" d="M15.854,10.158c0.443,0.468,1.187,0.852,1.846,0.852c0.971,0,2.266-0.647,2.266-2.519V5.853
	c0-1.115-0.012-2.255,0.275-3.346h-0.575l-0.168,0.731c-0.539-0.42-1.019-0.731-1.726-0.731c-1.727,0-2.326,1.619-2.326,3.082
	c0,1.319,0.684,2.831,2.194,2.831c0.623,0,1.354-0.324,1.786-0.78v0.78c0,1.595-0.911,2.111-1.618,2.111
	c-0.588,0-1.188-0.276-1.559-0.72L15.854,10.158z M19.401,6.968c-0.336,0.563-1.066,0.971-1.714,0.971
	c-0.516,0-1.679-0.456-1.679-2.458c0-1.08,0.432-2.495,1.738-2.495c0.672,0,1.283,0.396,1.654,0.923L19.401,6.968L19.401,6.968z"/>
<path fill="#FFFFFF" d="M26.634,5.205c0,2.398-1.211,3.43-2.146,3.43c-0.684,0-0.983-0.588-0.983-1.787V2.639h-0.563v4.474
	c0,0.959,0.324,2.003,1.475,2.003c0.995,0,2.002-0.984,2.242-1.931h0.023l0.24,1.799h0.527c-0.216-1.055-0.252-2.135-0.252-3.214
	V2.64h-0.563V5.205z"/>
<path fill="#FFFFFF" d="M34.022,3.178c-0.575-0.42-1.175-0.671-1.906-0.671c-0.947,0-1.858,0.684-1.858,1.583
	c0,1.127,1.031,1.535,1.906,1.871c0.755,0.288,1.486,0.563,1.486,1.511c0,0.768-0.611,1.164-1.318,1.164
	c-0.743,0-1.582-0.479-2.098-0.996l-0.312,0.456c0.575,0.527,1.594,1.02,2.386,1.02c0.971,0,1.905-0.624,1.905-1.68
	c0-1.235-1.019-1.619-1.989-1.991c-0.576-0.216-1.403-0.563-1.403-1.307c0-0.672,0.624-1.151,1.259-1.151
	c0.636,0,1.199,0.3,1.702,0.66L34.022,3.178z"/>
<path fill="#FFFFFF" d="M41.243,2.639h-2.326V0.6h-0.563v2.039h-1.427v0.479h1.427v3.994c0,1.607,0.731,2.003,1.547,2.003
	c0.947,0,1.643-0.66,2.037-1.476l-0.539-0.132c-0.275,0.6-0.768,1.127-1.476,1.127c-0.779,0-1.007-0.576-1.007-1.188v-4.33h2.326
	V2.639L41.243,2.639z"/>
<path fill="#FFFFFF" d="M52.11,8.503c0.024-1.224,0.301-1.847,2.099-3.454c0.862-0.768,1.896-1.595,1.896-2.854
	c0-1.248-0.793-2.015-2.039-2.015c-1.414,0-2.205,0.983-2.312,2.327h0.562c0.072-1.008,0.647-1.847,1.738-1.847
	c0.911,0,1.486,0.6,1.486,1.499c0,1.116-1.115,1.991-1.883,2.663c-1.799,1.571-2.109,2.279-2.109,4.162h4.592V8.503H52.11z"/>
<path fill="#FFFFFF" d="M63.396,4.665c0-0.911-0.023-2.002-0.322-2.866c-0.324-0.923-1.008-1.619-2.051-1.619
	c-1.09,0-1.773,0.744-2.086,1.715c-0.264,0.803-0.287,1.919-0.287,2.77c0,0.912,0.023,2.015,0.322,2.867
	c0.324,0.923,1.021,1.619,2.051,1.619c1.078,0,1.773-0.744,2.086-1.715C63.371,6.645,63.396,5.505,63.396,4.665z M62.832,4.665
	c0,0.708-0.022,1.667-0.181,2.339c-0.203,0.815-0.684,1.679-1.629,1.679c-0.889,0-1.379-0.779-1.584-1.535
	c-0.215-0.744-0.228-1.715-0.228-2.483c0-0.707,0.024-1.655,0.181-2.338c0.203-0.815,0.684-1.679,1.631-1.679
	c0.887,0,1.377,0.78,1.582,1.547C62.819,2.926,62.832,3.898,62.832,4.665z"/>
<path fill="#FFFFFF" d="M70.592,4.665c0-0.911-0.022-2.002-0.323-2.866c-0.324-0.923-1.006-1.619-2.05-1.619
	c-1.091,0-1.774,0.744-2.086,1.715c-0.264,0.803-0.288,1.919-0.288,2.77c0,0.912,0.024,2.015,0.324,2.867
	c0.323,0.923,1.02,1.619,2.05,1.619c1.079,0,1.774-0.744,2.087-1.715C70.567,6.645,70.592,5.505,70.592,4.665z M70.028,4.665
	c0,0.708-0.023,1.667-0.18,2.339c-0.203,0.815-0.685,1.679-1.631,1.679c-0.888,0-1.379-0.779-1.583-1.535
	c-0.216-0.744-0.228-1.715-0.228-2.483c0-0.707,0.023-1.655,0.18-2.338c0.204-0.815,0.684-1.679,1.631-1.679
	c0.887,0,1.379,0.78,1.582,1.547C70.017,2.926,70.028,3.898,70.028,4.665z"/>
<path fill="#FFFFFF" d="M77.201,0.348h-3.608l-0.348,4.653l0.671,0.132c0.349-0.564,0.862-0.984,1.571-0.984
	c0.635,0,1.688,0.528,1.688,2.255c0,1.199-0.707,2.231-1.772,2.231c-0.756,0-1.428-0.504-1.786-1.139l-0.421,0.323
	c0.505,0.732,1.199,1.296,2.135,1.296c1.547,0,2.409-1.332,2.409-2.759c0-1.763-1.066-2.687-2.267-2.687
	c-0.695,0-1.271,0.348-1.678,0.899l0.287-3.742H77.2L77.201,0.348L77.201,0.348z"/>
<path fill="#FFFFFF" d="M4.43,19.476h3.053v-1.201H0v1.201h3.061v9.508H4.43V19.476z"/>
<path fill="#FFFFFF" d="M10.242,20.94H8.91v8.043h1.332V20.94z M9.03,19.403c0.149,0.137,0.333,0.205,0.553,0.205
	c0.215,0,0.399-0.07,0.553-0.209c0.154-0.139,0.23-0.352,0.23-0.634c0-0.146-0.021-0.272-0.062-0.377
	c-0.042-0.104-0.098-0.192-0.169-0.261c-0.07-0.068-0.153-0.117-0.249-0.149C9.791,17.946,9.69,17.93,9.582,17.93
	c-0.22,0-0.403,0.066-0.553,0.197c-0.148,0.133-0.223,0.345-0.223,0.638C8.808,19.054,8.882,19.267,9.03,19.403z"/>
<path fill="#FFFFFF" d="M14.463,27.679c-0.154-0.238-0.231-0.597-0.231-1.068v-4.666h2.021V20.94h-2.021v-1.846h-0.769l-0.57,1.686
	l-1.135,0.57v0.594h1.135v4.666c0,0.493,0.053,0.902,0.16,1.227c0.107,0.326,0.256,0.582,0.443,0.772s0.411,0.325,0.67,0.403
	s0.539,0.117,0.842,0.117c0.122,0,0.246-0.008,0.373-0.02c0.127-0.013,0.249-0.029,0.366-0.052c0.117-0.021,0.225-0.048,0.322-0.076
	c0.097-0.028,0.178-0.06,0.241-0.088v-1.013c-0.044,0.017-0.108,0.033-0.193,0.053c-0.086,0.02-0.18,0.036-0.282,0.052
	c-0.103,0.015-0.208,0.026-0.318,0.036c-0.109,0.01-0.209,0.016-0.297,0.016C14.869,28.038,14.616,27.918,14.463,27.679z"/>
<path fill="#FFFFFF" d="M23.36,28.983v-5.508c0-0.479-0.058-0.887-0.175-1.225c-0.117-0.336-0.295-0.613-0.531-0.83
	c-0.236-0.217-0.537-0.377-0.9-0.478c-0.363-0.101-0.794-0.149-1.292-0.149c-0.488,0-0.954,0.067-1.398,0.205
	c-0.444,0.137-0.847,0.303-1.208,0.498l0.469,1.004c0.322-0.166,0.657-0.309,1.007-0.426c0.349-0.117,0.726-0.176,1.131-0.176
	c0.254,0,0.479,0.029,0.677,0.088c0.198,0.059,0.364,0.155,0.498,0.289c0.135,0.135,0.236,0.312,0.308,0.531
	c0.07,0.22,0.106,0.492,0.106,0.82v0.504l-1.348,0.053c-1.151,0.039-2.009,0.273-2.573,0.703c-0.563,0.43-0.846,1.045-0.846,1.846
	c0,0.41,0.059,0.766,0.176,1.064c0.117,0.302,0.279,0.551,0.487,0.748c0.207,0.197,0.452,0.345,0.735,0.439
	c0.283,0.096,0.594,0.143,0.93,0.143c0.308,0,0.579-0.024,0.812-0.073c0.234-0.05,0.447-0.124,0.638-0.228
	c0.191-0.103,0.365-0.231,0.526-0.392c0.161-0.16,0.322-0.349,0.483-0.567h0.059l0.271,1.113h0.958V28.983z M19.023,27.737
	c-0.237-0.209-0.355-0.539-0.355-0.988c0-0.248,0.039-0.473,0.117-0.67c0.078-0.197,0.206-0.365,0.385-0.506
	c0.178-0.139,0.416-0.248,0.714-0.326c0.297-0.076,0.666-0.127,1.105-0.146l1.047-0.052v0.726c0,0.388-0.053,0.724-0.158,1.009
	c-0.104,0.284-0.25,0.521-0.436,0.711c-0.186,0.188-0.405,0.327-0.658,0.42c-0.254,0.094-0.53,0.14-0.827,0.14
	C19.571,28.053,19.26,27.948,19.023,27.737z"/>
<path fill="#FFFFFF" d="M32.183,28.983v-5.252c0-1.025-0.227-1.771-0.678-2.236c-0.451-0.467-1.123-0.701-2.017-0.701
	c-0.234,0-0.464,0.025-0.688,0.074c-0.224,0.049-0.437,0.125-0.637,0.228c-0.2,0.103-0.384,0.229-0.553,0.385
	c-0.168,0.153-0.313,0.336-0.436,0.545h-0.073l-0.19-1.084h-1.083v8.043h1.332v-4.168c0-0.469,0.035-0.884,0.106-1.245
	c0.07-0.361,0.188-0.667,0.352-0.914c0.163-0.25,0.379-0.439,0.647-0.564c0.268-0.127,0.601-0.19,0.996-0.19
	c0.546,0,0.947,0.159,1.204,0.476c0.256,0.318,0.384,0.795,0.384,1.43v5.179h1.334V28.983z"/>
<path fill="#FFFFFF" d="M41.772,24.56l2.568,4.424h1.604l-2.913-4.798c0.269-0.098,0.53-0.223,0.784-0.374
	c0.252-0.149,0.479-0.34,0.677-0.567c0.196-0.227,0.356-0.498,0.476-0.815c0.12-0.317,0.18-0.688,0.18-1.113
	c0-1.021-0.31-1.782-0.93-2.284c-0.619-0.504-1.578-0.756-2.877-0.756h-2.606v10.709h1.362V24.56H41.772z M40.097,19.439h1.172
	c0.424,0,0.791,0.036,1.102,0.106s0.566,0.184,0.77,0.34c0.202,0.156,0.354,0.357,0.453,0.602s0.15,0.541,0.15,0.893
	c0,0.338-0.047,0.633-0.137,0.884c-0.09,0.252-0.233,0.462-0.432,0.631c-0.197,0.168-0.449,0.295-0.758,0.38
	c-0.309,0.086-0.682,0.128-1.12,0.128h-1.2V19.439z"/>
<path fill="#FFFFFF" d="M52.886,28.983v-5.508c0-0.479-0.059-0.887-0.176-1.225c-0.117-0.336-0.294-0.613-0.531-0.83
	c-0.236-0.217-0.537-0.377-0.9-0.478c-0.362-0.101-0.793-0.149-1.291-0.149c-0.488,0-0.954,0.067-1.398,0.205
	c-0.443,0.137-0.847,0.303-1.208,0.498l0.47,1.004c0.321-0.166,0.656-0.309,1.006-0.426s0.727-0.176,1.131-0.176
	c0.255,0,0.479,0.029,0.679,0.088c0.196,0.059,0.362,0.155,0.497,0.289c0.135,0.135,0.236,0.312,0.309,0.531
	c0.07,0.219,0.105,0.492,0.105,0.82v0.504l-1.348,0.053c-1.151,0.039-2.01,0.273-2.573,0.703s-0.845,1.045-0.845,1.846
	c0,0.41,0.059,0.766,0.176,1.064c0.115,0.302,0.279,0.551,0.486,0.748s0.451,0.345,0.734,0.439c0.283,0.096,0.594,0.143,0.93,0.143
	c0.309,0,0.579-0.024,0.813-0.073c0.233-0.05,0.446-0.124,0.637-0.228c0.19-0.103,0.366-0.231,0.527-0.392
	c0.159-0.159,0.321-0.349,0.481-0.567h0.06l0.271,1.113h0.959V28.983z M48.548,27.737c-0.236-0.209-0.355-0.539-0.355-0.988
	c0-0.248,0.039-0.473,0.117-0.67s0.207-0.365,0.385-0.506c0.179-0.139,0.416-0.248,0.715-0.326c0.298-0.076,0.666-0.127,1.105-0.146
	l1.047-0.052v0.726c0,0.388-0.054,0.724-0.158,1.009c-0.104,0.284-0.25,0.521-0.436,0.711c-0.186,0.188-0.404,0.327-0.658,0.42
	c-0.254,0.094-0.529,0.14-0.828,0.14C49.097,28.053,48.784,27.948,48.548,27.737z"/>
<path fill="#FFFFFF" d="M56.685,20.94h-1.332v8.043h1.332V20.94z M55.474,19.403c0.148,0.137,0.334,0.205,0.553,0.205
	c0.215,0,0.398-0.07,0.554-0.209c0.153-0.139,0.229-0.352,0.229-0.634c0-0.146-0.021-0.272-0.062-0.377s-0.099-0.192-0.168-0.261
	c-0.071-0.068-0.154-0.117-0.249-0.149c-0.096-0.032-0.197-0.048-0.305-0.048c-0.219,0-0.403,0.066-0.553,0.197
	c-0.148,0.133-0.224,0.345-0.224,0.638C55.25,19.054,55.324,19.267,55.474,19.403z"/>
<path fill="#FFFFFF" d="M65.587,28.983v-5.252c0-1.025-0.227-1.771-0.677-2.236c-0.452-0.467-1.124-0.701-2.019-0.701
	c-0.233,0-0.463,0.025-0.688,0.074s-0.438,0.125-0.639,0.228c-0.199,0.103-0.383,0.229-0.553,0.385
	c-0.168,0.153-0.312,0.336-0.436,0.545h-0.073l-0.188-1.084h-1.084v8.043h1.332v-4.168c0-0.469,0.035-0.884,0.105-1.245
	c0.071-0.361,0.188-0.667,0.352-0.914c0.164-0.25,0.379-0.439,0.647-0.564c0.269-0.127,0.601-0.19,0.996-0.19
	c0.547,0,0.948,0.159,1.204,0.476c0.256,0.318,0.385,0.795,0.385,1.43v5.179h1.334V28.983z"/>
</svg>
