<?xml version="1.0" encoding="utf-8"?>
<!-- Generator: Adobe Illustrator 16.0.0, SVG Export Plug-In . SVG Version: 6.00 Build 0)  -->
<!DOCTYPE svg PUBLIC "-//W3C//DTD SVG 1.1//EN" "http://www.w3.org/Graphics/SVG/1.1/DTD/svg11.dtd">
<svg version="1.1" id="Layer_1" xmlns="http://www.w3.org/2000/svg" xmlns:xlink="http://www.w3.org/1999/xlink" x="0px" y="0px"
	 width="109.256px" height="48.502px" viewBox="22.915 -71.376 109.256 48.502"
	 enable-background="new 22.915 -71.376 109.256 48.502" xml:space="preserve">
<g>
	<path fill="#FFFFFF" d="M27.504-71.113v5.901c0,2.087-0.755,2.902-2.327,2.902c-1.391,0-2.159-0.744-2.159-2.771v-0.923h0.563
		v1.235c0,1.367,0.492,1.991,1.583,1.979c1.224-0.024,1.775-0.792,1.775-1.979v-5.865H25.31v-0.48H27.504z"/>
	<path fill="#FFFFFF" d="M34.393-68.822h0.563v3.13c0,1.08,0.036,2.159,0.252,3.214H34.68l-0.24-1.799h-0.024
		c-0.24,0.947-1.248,1.931-2.243,1.931c-1.151,0-1.475-1.043-1.475-2.003v-4.474h0.564v4.21c0,1.199,0.3,1.787,0.983,1.787
		c0.936,0,2.147-1.032,2.147-3.43V-68.822z"/>
	<path fill="#FFFFFF" d="M38.415-62.478h-0.564v-3.178c0-1.08-0.036-2.159-0.252-3.238h0.528l0.228,1.823h0.024
		c0.24-0.948,1.247-1.883,2.255-1.883c1.151,0,1.476,0.996,1.476,1.955v4.521h-0.564v-4.258c0-0.731,0-1.739-0.983-1.739
		c-0.911,0-2.146,0.912-2.146,3.382V-62.478z"/>
	<path fill="#FFFFFF" d="M49.572-62.921c-0.731,0.324-1.451,0.576-2.267,0.576c-1.858,0-2.542-1.667-2.542-3.274
		c0-1.607,0.707-3.334,2.578-3.334c1.067,0,2.326,0.768,2.326,3.394h-4.342c0.108,2.231,1.031,2.735,2.004,2.735
		c0.719,0,1.402-0.264,2.002-0.624L49.572-62.921z M49.104-66.04c0.06-1.091-0.587-2.435-1.835-2.435
		c-1.235,0-1.979,1.319-1.943,2.435H49.104z"/>
	<path fill="#FFFFFF" d="M63.912-62.957v0.479h-4.594c0-1.883,0.312-2.591,2.111-4.162c0.768-0.672,1.883-1.547,1.883-2.663
		c0-0.899-0.576-1.499-1.487-1.499c-1.091,0-1.667,0.839-1.739,1.847h-0.563c0.108-1.343,0.899-2.327,2.315-2.327
		c1.247,0,2.039,0.768,2.039,2.015c0,1.259-1.032,2.087-1.896,2.854c-1.8,1.607-2.075,2.23-2.099,3.454H63.912z"/>
	<path fill="#FFFFFF" d="M70.884-64.025c-0.312,0.972-1.008,1.715-2.088,1.715c-1.031,0-1.727-0.696-2.051-1.619
		c-0.3-0.852-0.324-1.955-0.324-2.866c0-0.852,0.024-1.967,0.289-2.771c0.312-0.972,0.995-1.715,2.086-1.715
		c1.044,0,1.728,0.696,2.051,1.619c0.301,0.864,0.324,1.955,0.324,2.867C71.171-65.956,71.148-64.816,70.884-64.025z M70.38-69.266
		c-0.205-0.768-0.696-1.547-1.584-1.547c-0.947,0-1.427,0.864-1.631,1.679c-0.156,0.684-0.18,1.631-0.18,2.339
		c0,0.768,0.012,1.739,0.228,2.482c0.204,0.755,0.696,1.535,1.583,1.535c0.947,0,1.428-0.864,1.631-1.679
		c0.156-0.671,0.181-1.631,0.181-2.338C70.608-67.562,70.595-68.534,70.38-69.266z"/>
	<path fill="#FFFFFF" d="M76.308-62.957h1.596v0.479h-3.802v-0.479h1.644v-7.7l-1.728,0.54v-0.528l2.29-0.731V-62.957z"/>
	<path fill="#FFFFFF" d="M82.729-67.383c1.044,0,1.931-0.744,1.931-1.823c0-0.887-0.756-1.595-1.654-1.595
		c-0.805,0-1.439,0.516-1.8,1.187l-0.479-0.264c0.479-0.864,1.319-1.403,2.326-1.403c1.212,0,2.172,0.972,2.172,2.159
		c0,0.9-0.588,1.583-1.38,1.931c1.091,0.348,1.775,1.188,1.775,2.327c0,1.475-1.067,2.519-2.555,2.519
		c-1.151,0-1.859-0.552-2.459-1.487l0.504-0.3c0.384,0.804,1.007,1.308,1.931,1.308c1.188,0,2.016-0.72,2.016-1.931
		c0-1.487-1.044-2.147-2.327-2.147V-67.383z"/>
	<path fill="#FFFFFF" d="M31.118-55.2v6.943c0,0.557-0.081,1.074-0.242,1.553s-0.404,0.894-0.729,1.245
		c-0.325,0.352-0.732,0.627-1.224,0.828c-0.49,0.2-1.068,0.3-1.732,0.3c-0.625,0-1.177-0.094-1.655-0.282
		c-0.479-0.188-0.88-0.455-1.205-0.802c-0.325-0.347-0.57-0.763-0.736-1.249c-0.166-0.485-0.249-1.026-0.249-1.622v-6.899h1.37
		v6.973c0,0.854,0.211,1.516,0.633,1.985s1.061,0.703,1.916,0.703c0.435,0,0.808-0.066,1.121-0.198s0.569-0.317,0.769-0.557
		s0.349-0.525,0.447-0.857s0.149-0.696,0.154-1.091V-55.2H31.118z"/>
	<path fill="#FFFFFF" d="M33.25-45.291c0-0.186,0.024-0.343,0.073-0.472s0.115-0.234,0.198-0.315
		c0.083-0.08,0.181-0.139,0.293-0.176c0.112-0.036,0.234-0.055,0.366-0.055c0.127,0,0.248,0.019,0.362,0.055
		c0.115,0.037,0.214,0.096,0.297,0.176c0.083,0.081,0.149,0.186,0.198,0.315s0.073,0.287,0.073,0.472
		c0,0.181-0.024,0.336-0.073,0.465s-0.115,0.235-0.198,0.318s-0.182,0.144-0.297,0.183s-0.235,0.059-0.362,0.059
		c-0.132,0-0.254-0.02-0.366-0.059s-0.21-0.1-0.293-0.183s-0.149-0.189-0.198-0.318S33.25-45.11,33.25-45.291z"/>
	<path fill="#FFFFFF" d="M43.291-47.341c0,0.474-0.084,0.897-0.252,1.271c-0.169,0.373-0.409,0.689-0.722,0.948
		s-0.693,0.456-1.143,0.59c-0.449,0.134-0.954,0.201-1.517,0.201c-0.541,0-1.048-0.043-1.52-0.128
		c-0.471-0.085-0.865-0.211-1.183-0.377v-1.304c0.166,0.078,0.355,0.155,0.567,0.231c0.213,0.076,0.436,0.143,0.67,0.201
		s0.476,0.106,0.725,0.143c0.249,0.037,0.495,0.055,0.739,0.055c0.781,0,1.359-0.146,1.732-0.439
		c0.374-0.293,0.561-0.713,0.561-1.26c0-0.264-0.035-0.493-0.106-0.688s-0.195-0.375-0.373-0.539
		c-0.179-0.163-0.417-0.322-0.714-0.476c-0.299-0.154-0.674-0.321-1.129-0.502c-0.434-0.171-0.812-0.357-1.131-0.561
		c-0.32-0.202-0.584-0.431-0.791-0.685c-0.208-0.254-0.362-0.542-0.462-0.864s-0.15-0.688-0.15-1.099c0-0.43,0.078-0.813,0.234-1.15
		s0.376-0.621,0.659-0.853s0.621-0.409,1.014-0.531c0.394-0.122,0.827-0.183,1.3-0.183c0.582,0,1.104,0.055,1.568,0.165
		c0.463,0.11,0.876,0.25,1.237,0.421l-0.491,1.143c-0.316-0.142-0.677-0.265-1.08-0.37c-0.402-0.105-0.818-0.158-1.248-0.158
		c-0.596,0-1.058,0.138-1.385,0.414c-0.327,0.276-0.491,0.648-0.491,1.117c0,0.278,0.037,0.519,0.11,0.722s0.195,0.386,0.366,0.549
		c0.171,0.164,0.396,0.318,0.678,0.462c0.28,0.144,0.626,0.296,1.036,0.458c0.444,0.176,0.834,0.356,1.168,0.542
		s0.614,0.396,0.839,0.63s0.394,0.505,0.509,0.813S43.291-47.761,43.291-47.341z"/>
	<path fill="#FFFFFF" d="M45.056-45.291c0-0.186,0.024-0.343,0.073-0.472s0.114-0.234,0.198-0.315
		c0.082-0.08,0.18-0.139,0.293-0.176c0.111-0.036,0.234-0.055,0.365-0.055c0.127,0,0.248,0.019,0.363,0.055
		c0.114,0.037,0.213,0.096,0.297,0.176c0.082,0.081,0.148,0.186,0.197,0.315s0.073,0.287,0.073,0.472
		c0,0.181-0.024,0.336-0.073,0.465s-0.115,0.235-0.197,0.318c-0.084,0.083-0.183,0.144-0.297,0.183
		c-0.115,0.039-0.236,0.059-0.363,0.059c-0.131,0-0.254-0.02-0.365-0.059c-0.113-0.039-0.211-0.1-0.293-0.183
		c-0.084-0.083-0.149-0.189-0.198-0.318S45.056-45.11,45.056-45.291z"/>
	<path fill="#FFFFFF" d="M57.625-50.132h3.545v5.251c-0.269,0.088-0.539,0.166-0.812,0.234s-0.555,0.126-0.843,0.172
		c-0.288,0.046-0.591,0.082-0.908,0.106s-0.659,0.037-1.025,0.037c-0.767,0-1.445-0.128-2.036-0.385
		c-0.591-0.256-1.089-0.622-1.494-1.099c-0.405-0.476-0.713-1.055-0.923-1.735c-0.21-0.682-0.315-1.447-0.315-2.296
		c0-0.84,0.116-1.599,0.349-2.278c0.231-0.679,0.569-1.256,1.015-1.732c0.443-0.476,0.992-0.842,1.644-1.099
		c0.652-0.256,1.396-0.384,2.23-0.384c0.542,0,1.062,0.054,1.56,0.161s0.963,0.264,1.393,0.469l-0.527,1.187
		c-0.176-0.083-0.365-0.161-0.568-0.234s-0.411-0.138-0.626-0.194s-0.436-0.102-0.663-0.136c-0.227-0.034-0.453-0.051-0.678-0.051
		c-0.596,0-1.123,0.099-1.582,0.296c-0.459,0.198-0.844,0.482-1.153,0.854s-0.546,0.823-0.706,1.355
		c-0.162,0.532-0.242,1.133-0.242,1.802c0,0.635,0.066,1.216,0.201,1.743s0.348,0.981,0.641,1.362s0.672,0.676,1.136,0.886
		s1.022,0.315,1.677,0.315c0.215,0,0.412-0.006,0.59-0.018s0.344-0.028,0.494-0.048c0.152-0.02,0.295-0.042,0.429-0.069
		s0.265-0.053,0.392-0.077v-3.193h-2.189V-50.132z"/>
	<path fill="#FFFFFF" d="M70.076-48.513c0,0.669-0.082,1.263-0.246,1.784c-0.163,0.52-0.397,0.957-0.703,1.311
		c-0.305,0.354-0.674,0.624-1.109,0.81c-0.434,0.186-0.922,0.278-1.465,0.278c-0.502,0-0.967-0.093-1.391-0.278
		c-0.426-0.186-0.793-0.455-1.104-0.81c-0.31-0.354-0.551-0.791-0.725-1.311c-0.174-0.521-0.26-1.115-0.26-1.784
		c0-0.664,0.082-1.253,0.246-1.769c0.162-0.515,0.396-0.949,0.699-1.304c0.303-0.354,0.672-0.622,1.109-0.806
		c0.437-0.183,0.926-0.274,1.469-0.274c0.502,0,0.967,0.092,1.391,0.274c0.426,0.184,0.793,0.452,1.104,0.806
		c0.309,0.354,0.551,0.789,0.725,1.304C69.989-49.767,70.076-49.177,70.076-48.513z M64.451-48.513c0,1.021,0.167,1.789,0.502,2.303
		c0.334,0.516,0.877,0.773,1.629,0.773s1.293-0.257,1.623-0.773c0.33-0.515,0.494-1.283,0.494-2.303s-0.168-1.784-0.502-2.289
		c-0.334-0.506-0.877-0.758-1.629-0.758s-1.293,0.252-1.623,0.758C64.615-50.297,64.451-49.534,64.451-48.513z"/>
	<path fill="#FFFFFF" d="M75.357-44.331c-0.537,0-1.028-0.09-1.473-0.271s-0.826-0.444-1.146-0.791s-0.567-0.776-0.743-1.289
		s-0.264-1.099-0.264-1.758c0-0.664,0.081-1.257,0.241-1.78c0.162-0.522,0.389-0.965,0.682-1.329s0.643-0.641,1.051-0.832
		s0.858-0.286,1.352-0.286c0.483,0,0.918,0.087,1.304,0.26c0.386,0.174,0.713,0.418,0.981,0.732
		c0.269,0.315,0.475,0.694,0.619,1.136c0.144,0.442,0.216,0.931,0.216,1.468v0.828h-5.068c0.024,0.942,0.224,1.636,0.597,2.08
		s0.93,0.667,1.666,0.667c0.25,0,0.48-0.012,0.693-0.037c0.211-0.024,0.416-0.06,0.615-0.106c0.197-0.046,0.389-0.104,0.574-0.176
		c0.186-0.07,0.373-0.15,0.564-0.238v1.187c-0.195,0.093-0.388,0.173-0.576,0.242c-0.188,0.068-0.381,0.125-0.578,0.168
		s-0.402,0.076-0.615,0.095S75.605-44.331,75.357-44.331z M75.027-51.56c-0.557,0-0.998,0.19-1.322,0.571s-0.514,0.935-0.567,1.663
		h3.604c0-0.332-0.032-0.636-0.099-0.912c-0.066-0.275-0.168-0.511-0.309-0.707c-0.139-0.195-0.315-0.347-0.53-0.454
		S75.33-51.56,75.027-51.56z"/>
	<path fill="#FFFFFF" d="M85.017-46.682c0,0.391-0.07,0.732-0.213,1.025c-0.141,0.293-0.346,0.539-0.611,0.736
		c-0.266,0.198-0.587,0.346-0.963,0.443s-0.799,0.146-1.268,0.146c-0.531,0-0.988-0.043-1.369-0.128
		c-0.381-0.085-0.715-0.211-1.004-0.377v-1.216c0.152,0.078,0.32,0.155,0.506,0.231s0.381,0.143,0.586,0.201
		s0.416,0.106,0.633,0.143c0.218,0.037,0.434,0.055,0.648,0.055c0.318,0,0.588-0.027,0.811-0.081c0.221-0.054,0.402-0.13,0.541-0.23
		s0.24-0.222,0.305-0.366c0.062-0.144,0.095-0.304,0.095-0.48c0-0.151-0.024-0.288-0.073-0.41s-0.139-0.243-0.268-0.363
		c-0.129-0.119-0.307-0.24-0.531-0.362s-0.512-0.259-0.863-0.41s-0.668-0.3-0.949-0.447s-0.519-0.31-0.714-0.491
		s-0.346-0.389-0.45-0.626c-0.105-0.237-0.158-0.519-0.158-0.846c0-0.342,0.067-0.646,0.201-0.912
		c0.135-0.266,0.324-0.49,0.568-0.67s0.537-0.317,0.879-0.41s0.723-0.139,1.143-0.139c0.474,0,0.906,0.051,1.301,0.154
		c0.393,0.103,0.765,0.237,1.116,0.403l-0.462,1.077c-0.316-0.142-0.643-0.265-0.977-0.37c-0.336-0.105-0.676-0.158-1.022-0.158
		c-0.498,0-0.866,0.082-1.106,0.246c-0.238,0.164-0.358,0.396-0.358,0.699c0,0.171,0.028,0.32,0.085,0.447
		c0.055,0.127,0.152,0.247,0.289,0.359s0.319,0.226,0.549,0.341s0.516,0.243,0.857,0.384c0.352,0.146,0.664,0.293,0.941,0.439
		c0.275,0.146,0.511,0.311,0.706,0.495c0.195,0.183,0.345,0.392,0.446,0.626C84.966-47.29,85.017-47.009,85.017-46.682z"/>
	<path fill="#FFFFFF" d="M97.425-48.513c0,0.669-0.082,1.263-0.246,1.784c-0.163,0.52-0.397,0.957-0.703,1.311
		c-0.305,0.354-0.675,0.624-1.109,0.81s-0.923,0.278-1.465,0.278c-0.503,0-0.967-0.093-1.392-0.278s-0.792-0.455-1.103-0.81
		c-0.31-0.354-0.552-0.791-0.725-1.311c-0.174-0.521-0.26-1.115-0.26-1.784c0-0.664,0.081-1.253,0.245-1.769
		c0.163-0.515,0.396-0.949,0.699-1.304c0.303-0.354,0.673-0.622,1.109-0.806c0.438-0.183,0.927-0.274,1.469-0.274
		c0.503,0,0.967,0.092,1.392,0.274c0.425,0.184,0.792,0.452,1.103,0.806c0.31,0.354,0.552,0.789,0.725,1.304
		C97.338-49.767,97.425-49.177,97.425-48.513z M91.8-48.513c0,1.021,0.167,1.789,0.501,2.303c0.335,0.516,0.878,0.773,1.63,0.773
		s1.293-0.257,1.622-0.773c0.33-0.515,0.495-1.283,0.495-2.303s-0.168-1.784-0.502-2.289c-0.335-0.506-0.878-0.758-1.63-0.758
		s-1.293,0.252-1.622,0.758C91.964-50.297,91.8-49.534,91.8-48.513z"/>
	<path fill="#FFFFFF" d="M104.55-44.478v-5.178c0-0.635-0.128-1.111-0.385-1.428c-0.256-0.317-0.658-0.476-1.205-0.476
		c-0.395,0-0.728,0.063-0.996,0.19s-0.484,0.315-0.647,0.564c-0.164,0.249-0.281,0.554-0.352,0.916
		c-0.071,0.361-0.106,0.776-0.106,1.245v4.167h-1.333v-8.042h1.084l0.19,1.084h0.073c0.122-0.21,0.268-0.392,0.436-0.546
		c0.169-0.153,0.353-0.282,0.554-0.384c0.199-0.103,0.412-0.178,0.637-0.227s0.454-0.073,0.688-0.073
		c0.894,0,1.566,0.233,2.018,0.699c0.452,0.467,0.678,1.212,0.678,2.238v5.251H104.55z"/>
	<path fill="#FFFFFF" d="M114.688-45.422c0.088,0,0.187-0.005,0.297-0.015c0.109-0.01,0.216-0.022,0.318-0.037
		s0.196-0.032,0.282-0.051c0.085-0.02,0.15-0.037,0.193-0.051v1.011c-0.063,0.029-0.144,0.059-0.241,0.088s-0.205,0.055-0.322,0.077
		c-0.117,0.021-0.239,0.039-0.366,0.051s-0.252,0.019-0.373,0.019c-0.304,0-0.584-0.039-0.843-0.117s-0.482-0.212-0.67-0.403
		c-0.188-0.19-0.336-0.448-0.443-0.773c-0.107-0.324-0.161-0.733-0.161-1.227v-4.666h-1.135v-0.593l1.135-0.571l0.571-1.685h0.769
		v1.846h2.021v1.003h-2.021v4.666c0,0.474,0.077,0.83,0.231,1.069C114.083-45.542,114.336-45.422,114.688-45.422z"/>
	<path fill="#FFFFFF" d="M122.363-44.478v-5.178c0-0.635-0.128-1.111-0.385-1.428c-0.256-0.317-0.658-0.476-1.205-0.476
		c-0.395,0-0.728,0.063-0.996,0.19s-0.484,0.315-0.647,0.564c-0.164,0.249-0.281,0.554-0.352,0.916
		c-0.071,0.361-0.106,0.776-0.106,1.245v4.167h-1.333v-11.396h1.333v3.384l-0.059,1.055h0.073c0.122-0.21,0.268-0.392,0.436-0.546
		c0.169-0.153,0.353-0.282,0.554-0.384c0.199-0.103,0.412-0.178,0.637-0.227s0.454-0.073,0.688-0.073
		c0.894,0,1.566,0.233,2.018,0.699c0.452,0.467,0.678,1.212,0.678,2.238v5.251H122.363z"/>
	<path fill="#FFFFFF" d="M129.351-44.331c-0.537,0-1.028-0.09-1.473-0.271s-0.826-0.444-1.146-0.791
		c-0.32-0.347-0.567-0.776-0.743-1.289s-0.264-1.099-0.264-1.758c0-0.664,0.08-1.257,0.241-1.78s0.388-0.965,0.681-1.329
		s0.644-0.641,1.052-0.832c0.407-0.19,0.857-0.286,1.351-0.286c0.484,0,0.918,0.087,1.305,0.26c0.385,0.174,0.712,0.418,0.98,0.732
		c0.269,0.315,0.476,0.694,0.619,1.136c0.145,0.442,0.217,0.931,0.217,1.468v0.828h-5.068c0.023,0.942,0.223,1.636,0.597,2.08
		c0.373,0.444,0.929,0.667,1.666,0.667c0.249,0,0.479-0.012,0.692-0.037c0.212-0.024,0.417-0.06,0.615-0.106
		c0.197-0.046,0.389-0.104,0.574-0.176c0.186-0.07,0.374-0.15,0.564-0.238v1.187c-0.195,0.093-0.387,0.173-0.575,0.242
		c-0.188,0.068-0.381,0.125-0.578,0.168c-0.198,0.044-0.403,0.076-0.615,0.095C129.831-44.341,129.6-44.331,129.351-44.331z
		 M129.021-51.56c-0.557,0-0.997,0.19-1.321,0.571c-0.325,0.381-0.515,0.935-0.567,1.663h3.604c0-0.332-0.033-0.636-0.1-0.912
		c-0.065-0.275-0.168-0.511-0.308-0.707c-0.139-0.195-0.316-0.347-0.53-0.454C129.583-51.506,129.324-51.56,129.021-51.56z"/>
	<path fill="#FFFFFF" d="M27.808-36.138c-0.522,0-0.996,0.099-1.421,0.296c-0.425,0.198-0.788,0.482-1.087,0.854
		c-0.301,0.371-0.533,0.823-0.696,1.355s-0.245,1.133-0.245,1.802c0,0.688,0.072,1.3,0.216,1.834
		c0.144,0.535,0.36,0.985,0.648,1.352s0.647,0.645,1.077,0.835s0.933,0.286,1.509,0.286c0.435,0,0.847-0.042,1.238-0.128
		c0.391-0.085,0.776-0.184,1.157-0.296v1.187c-0.19,0.073-0.381,0.138-0.571,0.194c-0.19,0.057-0.39,0.102-0.597,0.136
		c-0.208,0.034-0.43,0.06-0.667,0.077c-0.237,0.017-0.499,0.025-0.787,0.025c-0.801,0-1.494-0.132-2.08-0.396
		s-1.071-0.637-1.454-1.121s-0.667-1.064-0.853-1.743s-0.278-1.431-0.278-2.256c0-0.811,0.106-1.553,0.319-2.227
		c0.212-0.674,0.524-1.252,0.938-1.736c0.412-0.483,0.924-0.859,1.534-1.128s1.311-0.403,2.102-0.403
		c0.527,0,1.03,0.054,1.509,0.161s0.911,0.264,1.296,0.469l-0.571,1.143c-0.308-0.156-0.642-0.291-1.003-0.403
		S28.267-36.138,27.808-36.138z"/>
	<path fill="#FFFFFF" d="M31.118-34.52h1.384l1.575,4.49c0.068,0.195,0.138,0.4,0.209,0.615c0.07,0.215,0.136,0.43,0.197,0.645
		s0.114,0.422,0.158,0.623s0.076,0.386,0.095,0.557h0.044c0.024-0.122,0.063-0.288,0.117-0.498s0.113-0.433,0.18-0.67
		c0.065-0.237,0.134-0.47,0.205-0.7c0.07-0.229,0.133-0.425,0.187-0.586l1.458-4.475h1.377l-3.179,9.089
		c-0.137,0.396-0.285,0.75-0.443,1.066c-0.159,0.314-0.343,0.582-0.553,0.802s-0.457,0.389-0.74,0.509s-0.62,0.18-1.011,0.18
		c-0.254,0-0.474-0.014-0.659-0.04c-0.186-0.027-0.344-0.055-0.476-0.084v-1.062c0.103,0.024,0.232,0.045,0.388,0.062
		c0.156,0.017,0.32,0.025,0.491,0.025c0.234,0,0.437-0.028,0.608-0.084c0.171-0.057,0.32-0.138,0.447-0.246s0.235-0.239,0.326-0.396
		s0.172-0.334,0.246-0.535l0.417-1.172L31.118-34.52z"/>
	<path fill="#FFFFFF" d="M43.284-34.666c0.459,0,0.876,0.088,1.253,0.264c0.375,0.176,0.696,0.438,0.963,0.787
		c0.266,0.35,0.473,0.783,0.619,1.3s0.219,1.118,0.219,1.802c0,0.688-0.072,1.292-0.219,1.813c-0.146,0.52-0.354,0.956-0.619,1.307
		c-0.267,0.352-0.588,0.617-0.963,0.794c-0.377,0.178-0.794,0.268-1.253,0.268c-0.288,0-0.55-0.032-0.784-0.095
		s-0.445-0.147-0.633-0.252c-0.188-0.105-0.354-0.229-0.498-0.37c-0.145-0.142-0.272-0.291-0.385-0.447h-0.088l-0.271,1.018h-0.974
		v-11.396h1.333v2.754c0,0.171-0.002,0.353-0.008,0.546c-0.004,0.193-0.012,0.372-0.021,0.538c-0.01,0.195-0.02,0.386-0.029,0.571
		h0.059c0.112-0.171,0.239-0.33,0.381-0.476s0.307-0.273,0.494-0.381s0.399-0.191,0.634-0.252S42.991-34.666,43.284-34.666z
		 M43.027-33.56c-0.391,0-0.717,0.062-0.978,0.187c-0.261,0.124-0.472,0.313-0.63,0.567s-0.271,0.571-0.337,0.952
		c-0.065,0.381-0.099,0.828-0.099,1.34c0,0.493,0.033,0.932,0.099,1.315c0.066,0.383,0.179,0.706,0.337,0.967
		s0.37,0.459,0.634,0.593c0.264,0.135,0.593,0.202,0.989,0.202c0.658,0,1.143-0.266,1.453-0.798s0.465-1.296,0.465-2.292
		c0-1.016-0.154-1.775-0.465-2.278S43.697-33.56,43.027-33.56z"/>
	<path fill="#FFFFFF" d="M51.619-26.331c-0.537,0-1.027-0.09-1.473-0.271c-0.443-0.181-0.826-0.444-1.146-0.791
		c-0.32-0.347-0.567-0.776-0.743-1.289s-0.264-1.099-0.264-1.758c0-0.664,0.08-1.257,0.241-1.78s0.388-0.965,0.681-1.329
		s0.644-0.641,1.052-0.832c0.407-0.19,0.858-0.286,1.351-0.286c0.484,0,0.918,0.087,1.305,0.26c0.385,0.174,0.713,0.418,0.98,0.732
		c0.27,0.315,0.475,0.694,0.619,1.136s0.217,0.931,0.217,1.468v0.828h-5.068c0.023,0.942,0.223,1.636,0.597,2.08
		c0.373,0.444,0.929,0.667,1.666,0.667c0.249,0,0.479-0.012,0.692-0.037c0.212-0.024,0.417-0.06,0.615-0.106
		c0.197-0.046,0.389-0.104,0.574-0.176c0.186-0.07,0.374-0.15,0.564-0.238v1.187c-0.195,0.093-0.387,0.173-0.575,0.242
		s-0.381,0.125-0.578,0.168c-0.198,0.044-0.403,0.076-0.615,0.095C52.098-26.341,51.868-26.331,51.619-26.331z M51.289-33.56
		c-0.557,0-0.997,0.19-1.321,0.571c-0.325,0.381-0.515,0.935-0.567,1.663h3.604c0-0.332-0.033-0.636-0.1-0.912
		c-0.065-0.275-0.168-0.511-0.308-0.707c-0.139-0.195-0.315-0.347-0.53-0.454S51.591-33.56,51.289-33.56z"/>
	<path fill="#FFFFFF" d="M59.947-34.666c0.141,0,0.3,0.006,0.476,0.019s0.327,0.03,0.454,0.055l-0.176,1.23
		c-0.137-0.024-0.277-0.045-0.421-0.062c-0.145-0.017-0.28-0.025-0.407-0.025c-0.307,0-0.588,0.062-0.842,0.187
		c-0.254,0.125-0.473,0.303-0.655,0.535c-0.184,0.232-0.325,0.51-0.425,0.835c-0.101,0.325-0.15,0.685-0.15,1.08v4.336h-1.333
		v-8.042h1.084l0.161,1.472h0.059c0.122-0.21,0.253-0.413,0.392-0.608c0.14-0.195,0.296-0.367,0.469-0.517
		C58.804-34.32,59-34.44,59.214-34.53S59.673-34.666,59.947-34.666z"/>
	<path fill="#FFFFFF" d="M69.006-30.513c0,0.669-0.082,1.263-0.245,1.784c-0.164,0.52-0.398,0.957-0.703,1.311
		c-0.306,0.354-0.676,0.624-1.109,0.81c-0.436,0.186-0.924,0.278-1.465,0.278c-0.504,0-0.967-0.093-1.393-0.278
		c-0.424-0.186-0.792-0.455-1.102-0.81c-0.311-0.354-0.553-0.791-0.725-1.311c-0.174-0.521-0.261-1.115-0.261-1.784
		c0-0.664,0.081-1.253,0.245-1.769c0.164-0.515,0.396-0.949,0.699-1.304c0.303-0.354,0.673-0.622,1.109-0.806
		c0.438-0.183,0.928-0.274,1.469-0.274c0.504,0,0.967,0.092,1.393,0.274c0.424,0.184,0.791,0.452,1.102,0.806
		c0.311,0.354,0.552,0.789,0.725,1.304C68.919-31.767,69.006-31.177,69.006-30.513z M63.381-30.513c0,1.021,0.167,1.789,0.501,2.303
		c0.335,0.516,0.879,0.773,1.631,0.773s1.293-0.257,1.621-0.773c0.33-0.515,0.495-1.283,0.495-2.303s-0.167-1.784-0.501-2.289
		c-0.336-0.506-0.879-0.758-1.631-0.758s-1.293,0.252-1.621,0.758C63.546-32.297,63.381-31.534,63.381-30.513z"/>
	<path fill="#FFFFFF" d="M74.602-33.516h-1.794v7.039h-1.341v-7.039h-1.421v-0.549l1.421-0.498v-0.703
		c0-0.522,0.056-0.956,0.165-1.3c0.109-0.345,0.268-0.619,0.477-0.824c0.207-0.205,0.462-0.35,0.765-0.436s0.645-0.128,1.025-0.128
		c0.288,0,0.554,0.028,0.794,0.084c0.242,0.056,0.459,0.118,0.648,0.187l-0.344,1.033c-0.151-0.054-0.316-0.101-0.494-0.143
		c-0.179-0.041-0.365-0.062-0.561-0.062s-0.363,0.023-0.506,0.07c-0.141,0.046-0.258,0.128-0.352,0.245
		c-0.092,0.117-0.162,0.277-0.209,0.479c-0.046,0.203-0.068,0.463-0.068,0.78v0.762h1.794V-33.516z"/>
	<path fill="#FFFFFF" d="M79.539-33.516h-1.795v7.039h-1.34v-7.039h-1.421v-0.549l1.421-0.498v-0.703c0-0.522,0.055-0.956,0.164-1.3
		c0.111-0.345,0.27-0.619,0.477-0.824s0.463-0.35,0.766-0.436s0.645-0.128,1.025-0.128c0.288,0,0.553,0.028,0.795,0.084
		s0.457,0.118,0.648,0.187l-0.345,1.033c-0.151-0.054-0.316-0.101-0.495-0.143c-0.178-0.041-0.364-0.062-0.56-0.062
		s-0.364,0.023-0.505,0.07c-0.143,0.046-0.26,0.128-0.352,0.245c-0.094,0.117-0.163,0.277-0.209,0.479
		c-0.047,0.203-0.07,0.463-0.07,0.78v0.762h1.795V-33.516z"/>
	<path fill="#FFFFFF" d="M84.16-26.331c-0.537,0-1.027-0.09-1.472-0.271s-0.827-0.444-1.146-0.791
		c-0.32-0.347-0.568-0.776-0.744-1.289s-0.264-1.099-0.264-1.758c0-0.664,0.08-1.257,0.242-1.78c0.16-0.522,0.388-0.965,0.681-1.329
		s0.644-0.641,1.052-0.832c0.406-0.19,0.857-0.286,1.351-0.286c0.483,0,0.918,0.087,1.304,0.26c0.386,0.174,0.713,0.418,0.98,0.732
		c0.27,0.315,0.477,0.694,0.619,1.136c0.145,0.442,0.217,0.931,0.217,1.468v0.828h-5.068c0.024,0.942,0.223,1.636,0.598,2.08
		c0.373,0.444,0.928,0.667,1.666,0.667c0.248,0,0.479-0.012,0.691-0.037s0.418-0.06,0.615-0.106
		c0.197-0.046,0.389-0.104,0.574-0.176c0.186-0.07,0.375-0.15,0.564-0.238v1.187c-0.195,0.093-0.387,0.173-0.574,0.242
		s-0.381,0.125-0.578,0.168c-0.199,0.044-0.404,0.076-0.615,0.095C84.64-26.341,84.41-26.331,84.16-26.331z M83.831-33.56
		c-0.557,0-0.997,0.19-1.321,0.571c-0.326,0.381-0.515,0.935-0.568,1.663h3.604c0-0.332-0.033-0.636-0.1-0.912
		c-0.064-0.275-0.168-0.511-0.307-0.707s-0.316-0.347-0.531-0.454S84.133-33.56,83.831-33.56z"/>
	<path fill="#FFFFFF" d="M94.033-26.478v-5.178c0-0.635-0.128-1.111-0.385-1.428c-0.256-0.317-0.658-0.476-1.205-0.476
		c-0.395,0-0.728,0.063-0.996,0.19s-0.484,0.315-0.647,0.564c-0.164,0.249-0.281,0.554-0.352,0.916
		c-0.071,0.361-0.106,0.776-0.106,1.245v4.167h-1.333v-8.042h1.084l0.19,1.084h0.073c0.122-0.21,0.268-0.392,0.436-0.546
		c0.169-0.153,0.353-0.282,0.554-0.384c0.199-0.103,0.412-0.178,0.637-0.227s0.454-0.073,0.688-0.073
		c0.894,0,1.566,0.233,2.018,0.699c0.452,0.467,0.678,1.212,0.678,2.238v5.251H94.033z"/>
	<path fill="#FFFFFF" d="M102.654-28.682c0,0.391-0.07,0.732-0.212,1.025s-0.346,0.539-0.611,0.736
		c-0.267,0.198-0.588,0.346-0.964,0.443s-0.798,0.146-1.267,0.146c-0.532,0-0.989-0.043-1.37-0.128
		c-0.381-0.085-0.715-0.211-1.003-0.377v-1.216c0.151,0.078,0.319,0.155,0.505,0.231s0.381,0.143,0.586,0.201
		s0.417,0.106,0.634,0.143c0.218,0.037,0.434,0.055,0.648,0.055c0.317,0,0.587-0.027,0.81-0.081c0.222-0.054,0.402-0.13,0.542-0.23
		c0.139-0.1,0.24-0.222,0.304-0.366s0.096-0.304,0.096-0.48c0-0.151-0.025-0.288-0.074-0.41s-0.138-0.243-0.267-0.363
		c-0.13-0.119-0.307-0.24-0.531-0.362s-0.513-0.259-0.864-0.41s-0.668-0.3-0.948-0.447c-0.281-0.146-0.52-0.31-0.714-0.491
		c-0.196-0.181-0.346-0.389-0.451-0.626c-0.104-0.237-0.157-0.519-0.157-0.846c0-0.342,0.067-0.646,0.201-0.912
		c0.135-0.266,0.323-0.49,0.567-0.67s0.537-0.317,0.879-0.41s0.723-0.139,1.143-0.139c0.474,0,0.907,0.051,1.301,0.154
		c0.393,0.103,0.766,0.237,1.117,0.403l-0.462,1.077c-0.317-0.142-0.644-0.265-0.978-0.37c-0.335-0.105-0.676-0.158-1.021-0.158
		c-0.498,0-0.867,0.082-1.106,0.246s-0.358,0.396-0.358,0.699c0,0.171,0.027,0.32,0.084,0.447c0.056,0.127,0.152,0.247,0.289,0.359
		s0.319,0.226,0.549,0.341s0.516,0.243,0.857,0.384c0.352,0.146,0.665,0.293,0.941,0.439c0.275,0.146,0.511,0.311,0.707,0.495
		c0.194,0.183,0.344,0.392,0.446,0.626S102.654-29.009,102.654-28.682z"/>
	<path fill="#FFFFFF" d="M104.507-36.695c0-0.293,0.074-0.505,0.224-0.637c0.148-0.132,0.333-0.198,0.553-0.198
		c0.107,0,0.209,0.016,0.304,0.047c0.096,0.032,0.179,0.082,0.249,0.15c0.071,0.068,0.127,0.155,0.169,0.26
		c0.041,0.105,0.062,0.231,0.062,0.377c0,0.283-0.077,0.495-0.231,0.633c-0.153,0.14-0.338,0.209-0.553,0.209
		c-0.22,0-0.404-0.068-0.553-0.205C104.582-36.194,104.507-36.407,104.507-36.695z M105.943-26.478h-1.333v-8.042h1.333V-26.478z"/>
	<path fill="#FFFFFF" d="M109.962-26.478l-2.746-8.042h1.377l1.457,4.475c0.054,0.161,0.117,0.369,0.191,0.623
		c0.072,0.254,0.146,0.513,0.219,0.776c0.074,0.264,0.141,0.513,0.202,0.747c0.061,0.234,0.101,0.413,0.12,0.535h0.052
		c0.024-0.122,0.065-0.3,0.124-0.535s0.125-0.483,0.198-0.747s0.146-0.522,0.22-0.776s0.137-0.461,0.19-0.623l1.458-4.475h1.377
		l-2.747,8.042H109.962z"/>
	<path fill="#FFFFFF" d="M118.855-26.331c-0.537,0-1.028-0.09-1.473-0.271s-0.826-0.444-1.146-0.791
		c-0.32-0.347-0.567-0.776-0.743-1.289s-0.264-1.099-0.264-1.758c0-0.664,0.08-1.257,0.241-1.78s0.388-0.965,0.681-1.329
		s0.644-0.641,1.052-0.832c0.407-0.19,0.857-0.286,1.351-0.286c0.484,0,0.918,0.087,1.305,0.26c0.385,0.174,0.712,0.418,0.98,0.732
		c0.269,0.315,0.476,0.694,0.619,1.136c0.145,0.442,0.217,0.931,0.217,1.468v0.828h-5.068c0.023,0.942,0.223,1.636,0.597,2.08
		c0.373,0.444,0.929,0.667,1.666,0.667c0.249,0,0.479-0.012,0.692-0.037c0.212-0.024,0.417-0.06,0.615-0.106
		c0.197-0.046,0.389-0.104,0.574-0.176c0.186-0.07,0.374-0.15,0.564-0.238v1.187c-0.195,0.093-0.387,0.173-0.575,0.242
		c-0.188,0.068-0.381,0.125-0.578,0.168c-0.198,0.044-0.403,0.076-0.615,0.095C119.334-26.341,119.104-26.331,118.855-26.331z
		 M118.525-33.56c-0.557,0-0.997,0.19-1.321,0.571c-0.325,0.381-0.515,0.935-0.567,1.663h3.604c0-0.332-0.033-0.636-0.1-0.912
		c-0.065-0.275-0.168-0.511-0.308-0.707c-0.139-0.195-0.316-0.347-0.53-0.454C119.086-33.506,118.828-33.56,118.525-33.56z"/>
</g>
</svg>
