<?xml version="1.0" encoding="utf-8"?>
<!-- Generator: Adobe Illustrator 15.0.0, SVG Export Plug-In . SVG Version: 6.00 Build 0)  -->
<!DOCTYPE svg PUBLIC "-//W3C//DTD SVG 1.1//EN" "http://www.w3.org/Graphics/SVG/1.1/DTD/svg11.dtd">
<svg version="1.1" id="Layer_1" xmlns="http://www.w3.org/2000/svg" xmlns:xlink="http://www.w3.org/1999/xlink" x="0px" y="0px"
	 width="94.898px" height="52.586px" viewBox="0 0 94.898 52.586" enable-background="new 0 0 94.898 52.586" xml:space="preserve">
<path fill="#FFFFFF" d="M26.753,0l-2.878,8.983h0.624l0.792-2.626h2.938l0.779,2.626h0.636L26.753,0z M26.753,1.535l1.354,4.341
	H25.41L26.753,1.535z"/>
<path fill="#FFFFFF" d="M31.854,11.525h0.563v-2.95c0.432,0.348,0.996,0.54,1.559,0.54c0.864,0,2.495-0.72,2.495-3.262
	c0-2.495-1.403-3.346-2.458-3.346c-0.744,0-1.354,0.384-1.679,1.043H32.31l-0.216-1.043l-0.528,0.072
	c0.229,0.743,0.288,1.511,0.288,2.279V11.525z M32.417,4.257C32.729,3.574,33.161,2.986,34,2.986c0.72,0,1.907,0.624,1.907,2.831
	c0,2.314-1.355,2.818-2.075,2.818c-0.54,0-1.021-0.276-1.415-0.624V4.257z"/>
<path fill="#FFFFFF" d="M40.133,6.404c0-2.411,1.438-3.418,2.086-3.418c0.768,0,0.804,0.852,0.816,1.439h0.562
	c0-0.863-0.276-1.919-1.331-1.919c-1.092,0-1.751,0.983-2.171,1.859L39.88,2.566h-0.54l0.228,2.027v4.39h0.564L40.133,6.404
	L40.133,6.404z"/>
<path fill="#FFFFFF" d="M48.208,8.983h0.563V2.638h-2.411v0.48h1.848V8.983z M48.472,0.18c-0.348,0-0.624,0.276-0.624,0.624
	c0,0.348,0.276,0.624,0.624,0.624s0.636-0.276,0.636-0.624C49.108,0.456,48.82,0.18,48.472,0.18z"/>
<path fill="#FFFFFF" d="M55.324,8.983h0.562V0.084h-2.434v0.479h1.87L55.324,8.983L55.324,8.983z"/>
<path fill="#FFFFFF" d="M68.226,8.503c0.023-1.224,0.299-1.847,2.099-3.454c0.863-0.768,1.896-1.595,1.896-2.854
	c0-1.248-0.792-2.015-2.039-2.015c-1.415,0-2.206,0.983-2.313,2.327h0.562C68.502,1.5,69.078,0.66,70.169,0.66
	c0.911,0,1.487,0.6,1.487,1.499c0,1.115-1.115,1.991-1.884,2.663c-1.799,1.571-2.11,2.279-2.11,4.162h4.594V8.503H68.226z"/>
<path fill="#FFFFFF" d="M79.515,4.666c0-0.912-0.022-2.003-0.324-2.867C78.867,0.875,78.184,0.18,77.14,0.18
	c-1.091,0-1.774,0.744-2.086,1.715c-0.265,0.803-0.289,1.919-0.289,2.771c0,0.911,0.024,2.015,0.324,2.866
	c0.324,0.923,1.02,1.619,2.051,1.619c1.08,0,1.775-0.744,2.087-1.715C79.491,6.644,79.515,5.505,79.515,4.666z M78.951,4.666
	c0,0.708-0.024,1.667-0.182,2.338c-0.203,0.815-0.684,1.679-1.631,1.679c-0.887,0-1.379-0.779-1.583-1.535
	c-0.216-0.744-0.228-1.715-0.228-2.482c0-0.708,0.022-1.655,0.18-2.339c0.204-0.815,0.684-1.679,1.631-1.679
	c0.888,0,1.379,0.78,1.584,1.547C78.938,2.926,78.951,3.898,78.951,4.666z"/>
<path fill="#FFFFFF" d="M86.714,4.666c0-0.912-0.023-2.003-0.323-2.867C86.067,0.875,85.384,0.18,84.34,0.18
	c-1.091,0-1.774,0.744-2.087,1.715c-0.265,0.803-0.287,1.919-0.287,2.771c0,0.911,0.022,2.015,0.323,2.866
	c0.322,0.923,1.02,1.619,2.051,1.619c1.079,0,1.773-0.744,2.087-1.715C86.69,6.644,86.714,5.505,86.714,4.666z M86.151,4.666
	c0,0.708-0.023,1.667-0.181,2.338c-0.204,0.815-0.684,1.679-1.631,1.679c-0.888,0-1.38-0.779-1.583-1.535
	c-0.216-0.744-0.229-1.715-0.229-2.482c0-0.708,0.024-1.655,0.181-2.339c0.205-0.815,0.685-1.679,1.632-1.679
	c0.888,0,1.38,0.78,1.583,1.547C86.139,2.926,86.151,3.898,86.151,4.666z"/>
<path fill="#FFFFFF" d="M89.272,8.707c0.42,0.264,0.948,0.408,1.439,0.408c1.224,0,2.11-0.899,2.579-1.943
	c0.442-0.996,0.587-2.099,0.587-3.178c0-0.804-0.084-1.751-0.42-2.482C93.086,0.72,92.475,0.18,91.574,0.18
	c-1.654,0-2.446,1.439-2.446,2.938c0,1.271,0.696,2.626,2.135,2.626c0.948,0,1.583-0.552,2.052-1.331
	c0.084,1.487-0.744,4.222-2.579,4.222c-0.396,0-0.852-0.168-1.188-0.408L89.272,8.707z M89.692,3.106
	c0-1.163,0.504-2.446,1.859-2.446c1.176,0,1.691,1.211,1.691,2.219c0,0.611-0.134,1.127-0.505,1.619
	c-0.323,0.408-0.827,0.768-1.366,0.768C90.161,5.265,89.692,4.162,89.692,3.106z"/>
<path fill="#FFFFFF" d="M6.196,20.077c-0.146-0.391-0.374-0.719-0.681-0.985c-0.308-0.266-0.698-0.468-1.172-0.607
	c-0.474-0.139-1.038-0.209-1.692-0.209H0v10.708h1.361v-4.167h1.1c0.742,0,1.366-0.094,1.872-0.282
	c0.505-0.188,0.912-0.439,1.219-0.755c0.308-0.314,0.528-0.677,0.663-1.087c0.134-0.41,0.201-0.837,0.201-1.282
	C6.416,20.912,6.343,20.467,6.196,20.077z M1.362,19.439h1.173c0.85,0,1.475,0.167,1.875,0.502c0.399,0.335,0.601,0.849,0.601,1.542
	c0,0.396-0.056,0.731-0.168,1.007c-0.112,0.276-0.28,0.5-0.501,0.673c-0.223,0.174-0.503,0.299-0.843,0.377s-0.736,0.117-1.19,0.117
	H1.362V19.439z"/>
<path fill="#FFFFFF" d="M14.754,23.179c-0.173-0.515-0.415-0.95-0.726-1.304c-0.31-0.354-0.677-0.622-1.102-0.805
	c-0.425-0.183-0.889-0.275-1.392-0.275c-0.542,0-1.032,0.092-1.47,0.275c-0.437,0.183-0.807,0.452-1.108,0.805
	c-0.304,0.354-0.536,0.789-0.699,1.304c-0.164,0.515-0.246,1.104-0.246,1.769c0,0.669,0.086,1.264,0.26,1.784
	c0.173,0.52,0.415,0.958,0.727,1.311c0.31,0.354,0.677,0.624,1.102,0.811c0.425,0.186,0.89,0.277,1.393,0.277
	c0.542,0,1.029-0.093,1.465-0.277c0.435-0.186,0.804-0.455,1.109-0.811c0.306-0.354,0.539-0.791,0.703-1.311
	c0.163-0.52,0.245-1.115,0.245-1.784C15.015,24.283,14.928,23.694,14.754,23.179z M9.884,22.659c0.33-0.505,0.871-0.758,1.623-0.758
	s1.295,0.253,1.63,0.758c0.334,0.505,0.501,1.268,0.501,2.289c0,1.021-0.165,1.789-0.495,2.303c-0.33,0.517-0.87,0.772-1.622,0.772
	s-1.295-0.258-1.629-0.772c-0.335-0.515-0.502-1.283-0.502-2.303C9.39,23.928,9.554,23.164,9.884,22.659z"/>
<path fill="#FFFFFF" d="M24.8,28.982l2.08-8.042h-1.362l-1.003,4.277c-0.054,0.229-0.105,0.478-0.157,0.744s-0.099,0.526-0.143,0.78
	c-0.044,0.254-0.082,0.486-0.114,0.699s-0.055,0.382-0.068,0.509h-0.045c-0.02-0.142-0.051-0.319-0.095-0.534
	s-0.093-0.438-0.146-0.67c-0.054-0.232-0.109-0.46-0.165-0.685c-0.057-0.225-0.106-0.42-0.15-0.586l-1.26-4.534h-1.437l-1.311,4.534
	c-0.049,0.161-0.1,0.358-0.154,0.589c-0.054,0.232-0.105,0.467-0.158,0.703c-0.051,0.237-0.098,0.461-0.139,0.674
	c-0.042,0.211-0.075,0.381-0.099,0.508h-0.044c-0.021-0.141-0.046-0.322-0.081-0.545c-0.034-0.223-0.073-0.459-0.117-0.71
	c-0.044-0.251-0.09-0.505-0.139-0.762c-0.05-0.257-0.099-0.495-0.146-0.714l-0.959-4.277H15.99l2.058,8.042h1.545l1.26-4.481
	c0.055-0.181,0.111-0.4,0.172-0.659c0.062-0.259,0.118-0.51,0.172-0.754c0.063-0.283,0.13-0.579,0.198-0.886h0.044
	c0.073,0.303,0.145,0.596,0.212,0.879c0.029,0.122,0.061,0.247,0.092,0.374c0.03,0.127,0.062,0.251,0.092,0.374
	c0.029,0.123,0.059,0.238,0.088,0.348c0.029,0.11,0.054,0.208,0.073,0.296l1.229,4.511H24.8V28.982z"/>
<path fill="#FFFFFF" d="M32.179,29.1c0.212-0.02,0.417-0.051,0.615-0.096c0.197-0.043,0.39-0.1,0.578-0.168
	c0.188-0.068,0.38-0.148,0.574-0.242v-1.186c-0.189,0.088-0.378,0.167-0.563,0.238c-0.187,0.07-0.377,0.129-0.575,0.176
	c-0.197,0.047-0.403,0.082-0.615,0.105c-0.212,0.024-0.442,0.037-0.691,0.037c-0.737,0-1.293-0.223-1.667-0.667
	c-0.373-0.444-0.572-1.138-0.598-2.08h5.068V24.39c0-0.537-0.072-1.026-0.216-1.468c-0.146-0.442-0.352-0.82-0.619-1.135
	s-0.596-0.559-0.98-0.733c-0.387-0.173-0.82-0.26-1.305-0.26c-0.493,0-0.943,0.095-1.352,0.286c-0.407,0.19-0.758,0.468-1.051,0.832
	c-0.293,0.364-0.521,0.807-0.682,1.329c-0.161,0.522-0.242,1.116-0.242,1.78c0,0.659,0.088,1.245,0.265,1.758
	c0.176,0.513,0.423,0.944,0.743,1.29c0.319,0.348,0.701,0.611,1.146,0.791c0.444,0.182,0.935,0.271,1.472,0.271
	C31.736,29.129,31.967,29.12,32.179,29.1z M31.934,22.062c0.215,0.107,0.393,0.259,0.531,0.454c0.139,0.195,0.241,0.431,0.307,0.707
	c0.066,0.276,0.1,0.58,0.1,0.912h-3.604c0.054-0.728,0.243-1.282,0.567-1.663c0.324-0.381,0.766-0.571,1.322-0.571
	C31.46,21.9,31.719,21.954,31.934,22.062z"/>
<path fill="#FFFFFF" d="M39.082,20.93c-0.215,0.09-0.409,0.21-0.582,0.358c-0.174,0.149-0.33,0.321-0.469,0.517
	c-0.14,0.195-0.271,0.398-0.393,0.608H37.58l-0.161-1.472h-1.084v8.042h1.333v-4.335c0-0.396,0.05-0.755,0.149-1.08
	c0.101-0.325,0.242-0.603,0.426-0.835c0.183-0.232,0.401-0.41,0.655-0.535c0.254-0.124,0.535-0.187,0.843-0.187
	c0.127,0,0.262,0.009,0.405,0.026c0.145,0.017,0.285,0.038,0.421,0.062l0.177-1.23c-0.127-0.024-0.278-0.042-0.454-0.055
	c-0.177-0.013-0.334-0.019-0.477-0.019C39.541,20.794,39.297,20.84,39.082,20.93z"/>
<path fill="#FFFFFF" d="M50.669,24.53h2.188v3.193c-0.127,0.024-0.258,0.051-0.392,0.077s-0.276,0.05-0.429,0.069
	c-0.15,0.02-0.316,0.035-0.494,0.048s-0.375,0.019-0.59,0.019c-0.654,0-1.213-0.104-1.678-0.314
	c-0.464-0.21-0.842-0.505-1.135-0.886c-0.293-0.381-0.506-0.835-0.641-1.362c-0.134-0.527-0.201-1.108-0.201-1.743
	c0-0.669,0.081-1.27,0.242-1.802c0.161-0.532,0.396-0.984,0.707-1.355c0.311-0.371,0.693-0.655,1.152-0.853
	c0.459-0.198,0.986-0.297,1.582-0.297c0.226,0,0.451,0.017,0.679,0.051c0.227,0.034,0.447,0.08,0.663,0.136
	c0.215,0.056,0.424,0.121,0.626,0.194c0.202,0.073,0.393,0.151,0.567,0.234l0.527-1.187c-0.43-0.205-0.896-0.361-1.394-0.469
	c-0.498-0.108-1.018-0.161-1.56-0.161c-0.835,0-1.578,0.128-2.23,0.384c-0.65,0.257-1.199,0.623-1.644,1.099
	c-0.444,0.477-0.783,1.054-1.015,1.732c-0.232,0.678-0.349,1.438-0.349,2.278c0,0.85,0.105,1.615,0.315,2.296
	c0.21,0.681,0.518,1.26,0.923,1.734c0.405,0.478,0.903,0.844,1.494,1.1c0.591,0.257,1.27,0.385,2.036,0.385
	c0.365,0,0.708-0.012,1.024-0.037c0.317-0.023,0.62-0.06,0.908-0.105c0.288-0.047,0.569-0.104,0.843-0.172
	c0.274-0.067,0.544-0.146,0.812-0.233v-5.252h-3.545v1.201H50.669z"/>
<path fill="#FFFFFF" d="M59.312,20.93c-0.215,0.09-0.409,0.21-0.582,0.358c-0.174,0.149-0.33,0.321-0.469,0.517
	c-0.14,0.195-0.27,0.398-0.393,0.608H57.81l-0.16-1.472h-1.084v8.042h1.332v-4.335c0-0.396,0.052-0.755,0.15-1.08
	c0.099-0.325,0.242-0.603,0.425-0.835c0.184-0.232,0.401-0.41,0.655-0.535c0.254-0.124,0.535-0.187,0.843-0.187
	c0.127,0,0.263,0.009,0.406,0.026c0.143,0.017,0.284,0.038,0.421,0.062l0.176-1.23c-0.127-0.024-0.277-0.042-0.453-0.055
	s-0.335-0.019-0.477-0.019C59.771,20.794,59.526,20.84,59.312,20.93z"/>
<path fill="#FFFFFF" d="M63.882,20.941h-1.333v8.042h1.333V20.941z M62.67,19.403c0.147,0.137,0.333,0.205,0.553,0.205
	c0.215,0,0.399-0.069,0.553-0.208c0.154-0.139,0.231-0.351,0.231-0.634c0-0.146-0.021-0.272-0.062-0.377
	c-0.042-0.104-0.098-0.191-0.169-0.26c-0.07-0.069-0.152-0.118-0.249-0.15c-0.095-0.032-0.195-0.048-0.304-0.048
	c-0.22,0-0.404,0.066-0.553,0.198c-0.149,0.132-0.225,0.344-0.225,0.637C62.446,19.054,62.521,19.266,62.67,19.403z"/>
<path fill="#FFFFFF" d="M71.595,28.982h1.076V17.586h-1.333v3.193c0,0.078,0.005,0.185,0.015,0.319
	c0.01,0.134,0.021,0.265,0.029,0.392c0.015,0.151,0.029,0.31,0.044,0.476h-0.088c-0.107-0.156-0.234-0.305-0.381-0.447
	c-0.147-0.142-0.313-0.266-0.502-0.374c-0.189-0.108-0.399-0.193-0.635-0.256c-0.234-0.063-0.494-0.095-0.782-0.095
	c-0.454,0-0.869,0.089-1.245,0.268s-0.698,0.443-0.967,0.794c-0.27,0.351-0.477,0.788-0.622,1.307
	c-0.146,0.521-0.222,1.125-0.222,1.813c0,0.684,0.074,1.284,0.222,1.802c0.146,0.518,0.354,0.951,0.622,1.3
	c0.268,0.349,0.591,0.611,0.967,0.787s0.791,0.264,1.245,0.264c0.293,0,0.557-0.031,0.791-0.096c0.233-0.062,0.444-0.15,0.633-0.264
	c0.188-0.111,0.354-0.242,0.499-0.392c0.144-0.149,0.27-0.308,0.377-0.474h0.059L71.595,28.982z M67.825,27.273
	c-0.311-0.501-0.466-1.261-0.466-2.282c0-0.996,0.155-1.76,0.466-2.292c0.311-0.532,0.795-0.798,1.454-0.798
	c0.396,0,0.726,0.067,0.988,0.202c0.264,0.135,0.476,0.332,0.634,0.593c0.158,0.261,0.271,0.583,0.337,0.967
	c0.065,0.383,0.1,0.821,0.1,1.314v0.3c-0.01,0.459-0.053,0.86-0.128,1.205c-0.076,0.344-0.193,0.631-0.353,0.86
	c-0.158,0.229-0.366,0.4-0.623,0.514c-0.256,0.112-0.569,0.168-0.94,0.168C68.626,28.023,68.136,27.773,67.825,27.273z"/>
<path fill="#FFFFFF" d="M79.878,25.936c-0.104-0.234-0.252-0.443-0.447-0.626c-0.195-0.184-0.431-0.348-0.706-0.495
	c-0.275-0.146-0.59-0.293-0.94-0.439c-0.343-0.142-0.628-0.27-0.856-0.384c-0.229-0.115-0.413-0.229-0.55-0.341
	c-0.137-0.112-0.233-0.232-0.29-0.359c-0.056-0.127-0.084-0.276-0.084-0.447c0-0.303,0.12-0.536,0.358-0.699
	c0.239-0.163,0.607-0.246,1.105-0.246c0.348,0,0.688,0.053,1.022,0.158s0.659,0.228,0.978,0.37l0.461-1.077
	c-0.352-0.166-0.724-0.3-1.116-0.403c-0.394-0.103-0.827-0.154-1.3-0.154c-0.42,0-0.801,0.046-1.143,0.139
	c-0.343,0.093-0.636,0.229-0.879,0.41c-0.244,0.181-0.435,0.404-0.568,0.67c-0.134,0.266-0.201,0.57-0.201,0.912
	c0,0.327,0.053,0.609,0.157,0.846c0.104,0.237,0.255,0.445,0.45,0.626c0.194,0.181,0.434,0.344,0.715,0.491
	c0.28,0.146,0.597,0.295,0.948,0.447c0.351,0.152,0.64,0.288,0.863,0.41c0.225,0.122,0.401,0.243,0.531,0.362
	c0.129,0.12,0.219,0.241,0.268,0.363c0.05,0.122,0.072,0.259,0.072,0.41c0,0.177-0.031,0.336-0.095,0.479
	c-0.063,0.145-0.165,0.268-0.304,0.367c-0.141,0.1-0.32,0.176-0.542,0.229c-0.224,0.054-0.492,0.08-0.811,0.08
	c-0.215,0-0.432-0.019-0.647-0.056c-0.218-0.035-0.429-0.084-0.634-0.143c-0.204-0.059-0.399-0.125-0.586-0.201
	c-0.186-0.076-0.354-0.152-0.506-0.23v1.215c0.288,0.166,0.623,0.293,1.004,0.378s0.837,0.128,1.369,0.128
	c0.469,0,0.892-0.049,1.269-0.146c0.375-0.098,0.695-0.244,0.963-0.442c0.266-0.197,0.47-0.442,0.61-0.736
	c0.142-0.293,0.213-0.634,0.213-1.025C80.032,26.451,79.98,26.17,79.878,25.936z"/>
<path fill="#FFFFFF" d="M88.066,19.531c0.244-0.217,0.576-0.326,0.996-0.326c0.205,0,0.389,0.031,0.55,0.091
	c0.16,0.062,0.3,0.146,0.413,0.253c0.114,0.107,0.202,0.235,0.265,0.385c0.062,0.149,0.092,0.311,0.092,0.487
	c0,0.2-0.034,0.386-0.104,0.557c-0.068,0.171-0.171,0.334-0.308,0.491c-0.137,0.157-0.31,0.31-0.521,0.461
	c-0.209,0.151-0.459,0.312-0.746,0.483c-0.177-0.181-0.328-0.353-0.455-0.516s-0.23-0.325-0.312-0.483
	c-0.08-0.159-0.141-0.317-0.18-0.477C87.72,20.779,87.7,20.616,87.7,20.45C87.7,20.055,87.822,19.749,88.066,19.531z M87.891,27.818
	c-0.233-0.088-0.433-0.211-0.593-0.369c-0.162-0.159-0.285-0.35-0.37-0.571c-0.086-0.222-0.128-0.465-0.128-0.729
	c0-0.273,0.033-0.514,0.102-0.721c0.069-0.207,0.17-0.399,0.306-0.575c0.134-0.176,0.299-0.34,0.494-0.494
	c0.194-0.154,0.42-0.312,0.674-0.473l2.834,2.981c-0.156,0.15-0.322,0.293-0.498,0.425s-0.365,0.247-0.57,0.344
	s-0.428,0.175-0.667,0.23c-0.239,0.057-0.501,0.084-0.784,0.084C88.392,27.95,88.125,27.907,87.891,27.818z M85.631,27.441
	c0.148,0.363,0.364,0.67,0.645,0.922c0.281,0.252,0.625,0.441,1.032,0.572c0.408,0.129,0.869,0.192,1.381,0.192
	c0.381,0,0.724-0.032,1.025-0.099s0.586-0.159,0.85-0.278c0.265-0.119,0.515-0.267,0.748-0.438c0.234-0.174,0.472-0.371,0.71-0.59
	l1.23,1.26h1.646l-2.027-2.146c0.189-0.2,0.363-0.404,0.523-0.612c0.158-0.207,0.302-0.431,0.433-0.67
	c0.129-0.239,0.243-0.494,0.344-0.765c0.1-0.271,0.188-0.568,0.26-0.89h-1.348c-0.049,0.229-0.105,0.439-0.172,0.63
	c-0.065,0.19-0.142,0.369-0.224,0.535c-0.084,0.166-0.178,0.322-0.283,0.469c-0.104,0.146-0.223,0.291-0.354,0.432l-2.578-2.725
	c0.293-0.176,0.572-0.36,0.839-0.553s0.502-0.403,0.707-0.63c0.205-0.228,0.368-0.474,0.49-0.74s0.184-0.555,0.184-0.868
	c0-0.366-0.059-0.695-0.176-0.985c-0.117-0.291-0.287-0.537-0.51-0.74c-0.223-0.202-0.493-0.356-0.812-0.461
	s-0.683-0.158-1.088-0.158c-0.43,0-0.812,0.053-1.149,0.158c-0.336,0.105-0.619,0.259-0.851,0.461
	c-0.229,0.203-0.403,0.45-0.526,0.74c-0.121,0.29-0.184,0.619-0.184,0.985c0,0.278,0.034,0.539,0.104,0.78
	c0.067,0.242,0.157,0.469,0.268,0.682c0.109,0.212,0.238,0.413,0.385,0.601c0.147,0.188,0.296,0.37,0.446,0.545
	c-0.347,0.205-0.655,0.413-0.927,0.623c-0.272,0.21-0.5,0.437-0.688,0.681c-0.188,0.244-0.332,0.515-0.43,0.813
	c-0.098,0.298-0.146,0.637-0.146,1.018C85.407,26.661,85.481,27.078,85.631,27.441z"/>
<path fill="#FFFFFF" d="M23.174,44.457h3.918v-1.201h-3.918v-3.779h4.197v-1.201h-5.56v10.709h1.362V44.457z"/>
<path fill="#FFFFFF" d="M30.33,40.941h-1.333v8.041h1.333V40.941z M29.117,39.402c0.148,0.138,0.333,0.205,0.553,0.205
	c0.215,0,0.398-0.068,0.553-0.209c0.153-0.139,0.23-0.35,0.23-0.633c0-0.146-0.021-0.271-0.062-0.377
	c-0.042-0.104-0.098-0.191-0.168-0.261c-0.071-0.067-0.154-0.118-0.249-0.149c-0.096-0.031-0.197-0.049-0.304-0.049
	c-0.22,0-0.404,0.066-0.553,0.198c-0.149,0.132-0.224,0.345-0.224,0.638C28.894,39.053,28.968,39.266,29.117,39.402z"/>
<path fill="#FFFFFF" d="M36.416,40.941c-0.132-0.045-0.294-0.08-0.487-0.106s-0.38-0.04-0.561-0.04c-0.475,0-0.89,0.062-1.245,0.189
	c-0.356,0.127-0.654,0.312-0.895,0.55c-0.238,0.239-0.42,0.53-0.542,0.872s-0.183,0.729-0.183,1.164c0,0.248,0.033,0.49,0.099,0.726
	c0.066,0.233,0.158,0.45,0.278,0.647c0.119,0.197,0.266,0.373,0.438,0.527c0.174,0.153,0.365,0.274,0.575,0.362
	c-0.337,0.205-0.583,0.417-0.74,0.634c-0.156,0.217-0.233,0.475-0.233,0.772c0,0.259,0.065,0.487,0.198,0.688
	c0.132,0.2,0.3,0.347,0.505,0.439c-0.229,0.054-0.451,0.132-0.663,0.233c-0.212,0.103-0.399,0.234-0.561,0.396
	c-0.16,0.162-0.29,0.354-0.385,0.574c-0.095,0.223-0.143,0.479-0.143,0.772c0,0.347,0.063,0.657,0.193,0.935
	c0.129,0.275,0.323,0.512,0.582,0.707c0.26,0.195,0.583,0.345,0.975,0.445c0.391,0.104,0.847,0.154,1.37,0.154
	c0.679,0,1.268-0.062,1.769-0.189s0.915-0.31,1.242-0.547c0.327-0.236,0.57-0.524,0.729-0.867c0.159-0.342,0.238-0.729,0.238-1.157
	c0-0.298-0.044-0.579-0.132-0.847c-0.088-0.266-0.231-0.496-0.428-0.69c-0.198-0.195-0.453-0.351-0.767-0.466
	c-0.312-0.114-0.695-0.172-1.149-0.172h-1.289c-0.151,0-0.295-0.008-0.433-0.022c-0.137-0.015-0.255-0.043-0.354-0.088
	c-0.102-0.043-0.18-0.104-0.238-0.187c-0.059-0.08-0.088-0.188-0.088-0.318c0-0.117,0.021-0.225,0.062-0.322
	c0.041-0.098,0.096-0.186,0.161-0.264c0.066-0.078,0.141-0.147,0.221-0.209s0.162-0.116,0.245-0.165
	c0.067,0.016,0.155,0.022,0.264,0.026c0.107,0.002,0.215,0.002,0.322,0.002c0.453,0,0.852-0.063,1.193-0.192
	c0.342-0.13,0.628-0.31,0.86-0.539c0.231-0.229,0.405-0.501,0.52-0.815c0.115-0.314,0.172-0.658,0.172-1.029
	c0-0.336-0.046-0.639-0.139-0.904s-0.208-0.484-0.344-0.655l1.443-0.198v-0.826H36.416L36.416,40.941z M33.285,49.573
	c0.1-0.188,0.228-0.337,0.381-0.443c0.152-0.106,0.323-0.181,0.509-0.22s0.364-0.059,0.535-0.059h1.289
	c0.316,0,0.586,0.015,0.806,0.043c0.22,0.029,0.396,0.084,0.531,0.166c0.135,0.08,0.23,0.19,0.29,0.332
	c0.059,0.143,0.088,0.324,0.088,0.549c0,0.527-0.227,0.933-0.678,1.213c-0.452,0.281-1.132,0.422-2.04,0.422
	c-0.353,0-0.646-0.033-0.884-0.1c-0.236-0.065-0.427-0.154-0.57-0.268c-0.146-0.111-0.248-0.246-0.312-0.402
	c-0.063-0.156-0.095-0.324-0.095-0.506C33.135,50.003,33.185,49.76,33.285,49.573z M34.197,42.193
	c0.26-0.293,0.631-0.438,1.113-0.438c0.488,0,0.861,0.142,1.117,0.425c0.256,0.282,0.385,0.725,0.385,1.325
	c0,0.581-0.125,1.009-0.377,1.278c-0.251,0.271-0.621,0.406-1.108,0.406c-0.483,0-0.857-0.138-1.121-0.41
	c-0.265-0.273-0.396-0.69-0.396-1.254C33.809,42.93,33.938,42.486,34.197,42.193z"/>
<path fill="#FFFFFF" d="M47.007,48.982V43.73c0-1.024-0.226-1.771-0.678-2.235c-0.452-0.468-1.124-0.7-2.019-0.7
	c-0.233,0-0.464,0.023-0.688,0.073c-0.225,0.049-0.438,0.125-0.638,0.228c-0.199,0.104-0.385,0.23-0.553,0.385
	c-0.169,0.153-0.313,0.336-0.436,0.545h-0.073l0.059-1.055v-3.384H40.65v11.396h1.333v-4.168c0-0.469,0.035-0.883,0.106-1.244
	c0.071-0.36,0.188-0.666,0.352-0.916c0.163-0.248,0.379-0.438,0.648-0.563c0.269-0.126,0.601-0.188,0.996-0.188
	c0.547,0,0.949,0.158,1.205,0.476c0.257,0.317,0.385,0.794,0.385,1.429v5.178h1.332V48.982z"/>
<path fill="#FFFFFF" d="M51.155,47.68c-0.152-0.24-0.229-0.597-0.229-1.07v-4.666h2.021v-1.002h-2.021v-1.846h-0.769l-0.571,1.684
	l-1.135,0.572v0.592h1.135v4.666c0,0.494,0.054,0.902,0.161,1.228c0.106,0.325,0.255,0.582,0.441,0.772
	c0.188,0.189,0.412,0.324,0.671,0.402c0.26,0.078,0.54,0.117,0.844,0.117c0.121,0,0.246-0.006,0.373-0.018
	c0.127-0.014,0.249-0.029,0.365-0.053c0.117-0.022,0.226-0.048,0.322-0.076c0.097-0.029,0.179-0.06,0.241-0.088v-1.012
	c-0.043,0.016-0.108,0.032-0.193,0.053c-0.086,0.02-0.18,0.035-0.282,0.051c-0.102,0.015-0.208,0.027-0.317,0.037
	c-0.11,0.01-0.209,0.014-0.297,0.014C51.562,48.038,51.31,47.918,51.155,47.68z"/>
<path fill="#FFFFFF" d="M58.437,49.1c0.213-0.02,0.418-0.051,0.615-0.096c0.197-0.043,0.391-0.1,0.578-0.168
	c0.187-0.068,0.38-0.148,0.575-0.242v-1.186c-0.19,0.088-0.378,0.167-0.563,0.236c-0.186,0.071-0.378,0.131-0.575,0.176
	c-0.197,0.048-0.402,0.082-0.615,0.106s-0.442,0.037-0.691,0.037c-0.737,0-1.293-0.223-1.666-0.667
	c-0.374-0.443-0.572-1.138-0.598-2.08h5.067v-0.826c0-0.537-0.071-1.027-0.216-1.47c-0.144-0.442-0.351-0.819-0.618-1.135
	c-0.27-0.315-0.596-0.56-0.981-0.733c-0.386-0.173-0.82-0.26-1.304-0.26c-0.493,0-0.943,0.096-1.352,0.286
	c-0.408,0.188-0.758,0.467-1.051,0.831c-0.293,0.363-0.521,0.807-0.683,1.328c-0.16,0.522-0.241,1.115-0.241,1.779
	c0,0.66,0.088,1.246,0.264,1.758c0.176,0.515,0.424,0.943,0.744,1.289c0.318,0.349,0.701,0.611,1.146,0.791
	c0.443,0.183,0.936,0.271,1.473,0.271C57.993,49.129,58.224,49.12,58.437,49.1z M58.19,42.061c0.215,0.107,0.394,0.26,0.531,0.455
	c0.14,0.195,0.242,0.432,0.308,0.707c0.066,0.275,0.1,0.579,0.1,0.911h-3.604c0.056-0.728,0.243-1.282,0.568-1.663
	c0.324-0.381,0.766-0.57,1.322-0.57C57.718,41.9,57.976,41.954,58.19,42.061z"/>
<path fill="#FFFFFF" d="M65.339,40.93c-0.215,0.09-0.408,0.211-0.582,0.358c-0.174,0.149-0.329,0.321-0.469,0.517
	s-0.271,0.398-0.393,0.607h-0.059l-0.161-1.473h-1.084v8.043h1.333v-4.336c0-0.396,0.05-0.756,0.149-1.08
	c0.101-0.324,0.241-0.604,0.426-0.836c0.183-0.23,0.4-0.41,0.654-0.535c0.255-0.123,0.534-0.187,0.844-0.187
	c0.127,0,0.262,0.009,0.405,0.025c0.145,0.018,0.284,0.038,0.422,0.062l0.176-1.229c-0.127-0.024-0.278-0.043-0.454-0.056
	c-0.176-0.012-0.334-0.019-0.478-0.019C65.798,40.794,65.554,40.84,65.339,40.93z"/>
<path fill="#FFFFFF" d="M72.177,51.652c0.358-0.119,0.666-0.303,0.923-0.549c0.256-0.248,0.456-0.559,0.602-0.935
	c0.144-0.376,0.216-0.819,0.216-1.333V38.275h-1.37v10.707c0,0.332-0.046,0.605-0.139,0.82c-0.094,0.215-0.215,0.383-0.362,0.506
	c-0.149,0.121-0.315,0.205-0.499,0.252s-0.364,0.07-0.545,0.07c-0.22,0-0.425-0.014-0.615-0.041
	c-0.19-0.025-0.369-0.062-0.535-0.105v1.173c0.137,0.053,0.299,0.096,0.484,0.128c0.186,0.031,0.401,0.048,0.65,0.048
	C71.421,51.833,71.817,51.771,72.177,51.652z"/>
<path fill="#FFFFFF" d="M80.409,49.1c0.212-0.02,0.417-0.051,0.614-0.096c0.197-0.043,0.392-0.1,0.578-0.168
	c0.188-0.068,0.38-0.148,0.575-0.242v-1.186c-0.19,0.088-0.378,0.167-0.563,0.236c-0.186,0.071-0.377,0.131-0.575,0.176
	c-0.197,0.048-0.402,0.082-0.614,0.106s-0.443,0.037-0.692,0.037c-0.736,0-1.293-0.223-1.666-0.667
	c-0.374-0.443-0.571-1.138-0.598-2.08h5.068v-0.826c0-0.537-0.072-1.027-0.216-1.47c-0.145-0.44-0.352-0.819-0.618-1.135
	c-0.271-0.315-0.597-0.56-0.982-0.733c-0.385-0.173-0.82-0.26-1.303-0.26c-0.494,0-0.944,0.096-1.353,0.286
	c-0.407,0.188-0.758,0.467-1.051,0.831c-0.293,0.363-0.521,0.807-0.682,1.328c-0.161,0.522-0.242,1.115-0.242,1.779
	c0,0.66,0.088,1.246,0.264,1.758c0.176,0.515,0.424,0.943,0.744,1.289c0.319,0.349,0.701,0.611,1.146,0.791
	c0.442,0.183,0.935,0.271,1.472,0.271C79.966,49.129,80.196,49.12,80.409,49.1z M80.163,42.061c0.215,0.107,0.393,0.26,0.53,0.455
	c0.139,0.195,0.242,0.432,0.309,0.707c0.064,0.275,0.099,0.579,0.099,0.911h-3.604c0.055-0.728,0.243-1.282,0.567-1.663
	s0.767-0.57,1.322-0.57C79.69,41.9,79.948,41.954,80.163,42.061z"/>
<path fill="#FFFFFF" d="M86.239,47.68c-0.153-0.24-0.229-0.597-0.229-1.07v-4.666h2.021v-1.002h-2.021v-1.846h-0.77l-0.571,1.684
	l-1.136,0.572v0.592h1.136v4.666c0,0.494,0.054,0.902,0.161,1.228c0.106,0.325,0.255,0.582,0.442,0.772
	c0.188,0.189,0.411,0.324,0.67,0.402c0.26,0.078,0.539,0.117,0.843,0.117c0.123,0,0.247-0.006,0.374-0.018
	c0.127-0.014,0.249-0.029,0.365-0.053c0.117-0.022,0.226-0.048,0.322-0.076c0.097-0.029,0.178-0.06,0.242-0.088v-1.012
	c-0.045,0.016-0.109,0.032-0.194,0.053c-0.086,0.02-0.18,0.035-0.282,0.051c-0.102,0.015-0.209,0.027-0.317,0.037
	c-0.11,0.01-0.209,0.014-0.297,0.014C86.646,48.038,86.393,47.918,86.239,47.68z"/>
<path fill="#FFFFFF" d="M94.307,45.936c-0.103-0.233-0.251-0.442-0.446-0.625c-0.194-0.185-0.432-0.35-0.707-0.496
	c-0.275-0.146-0.59-0.293-0.94-0.438c-0.342-0.142-0.627-0.271-0.857-0.384c-0.229-0.114-0.412-0.229-0.549-0.342
	c-0.137-0.111-0.232-0.231-0.289-0.358s-0.084-0.274-0.084-0.446c0-0.303,0.119-0.535,0.358-0.699
	c0.238-0.162,0.607-0.244,1.105-0.244c0.347,0,0.688,0.053,1.021,0.156c0.334,0.104,0.66,0.229,0.978,0.371l0.462-1.078
	c-0.352-0.166-0.725-0.3-1.116-0.402c-0.395-0.102-0.826-0.153-1.302-0.153c-0.42,0-0.801,0.046-1.143,0.14
	c-0.342,0.092-0.635,0.229-0.879,0.41c-0.244,0.18-0.435,0.404-0.567,0.67c-0.133,0.267-0.201,0.57-0.201,0.912
	c0,0.326,0.053,0.608,0.157,0.846c0.105,0.236,0.256,0.445,0.451,0.627c0.195,0.181,0.433,0.345,0.713,0.49
	c0.281,0.146,0.598,0.295,0.949,0.446c0.351,0.151,0.64,0.288,0.864,0.41c0.224,0.122,0.4,0.243,0.53,0.362
	c0.129,0.119,0.219,0.24,0.268,0.363c0.049,0.12,0.074,0.258,0.074,0.409c0,0.177-0.032,0.336-0.097,0.479
	c-0.063,0.143-0.165,0.267-0.304,0.365c-0.14,0.101-0.32,0.178-0.542,0.23c-0.223,0.054-0.492,0.08-0.811,0.08
	c-0.215,0-0.431-0.018-0.646-0.055c-0.219-0.037-0.43-0.084-0.635-0.144s-0.4-0.125-0.586-0.2c-0.187-0.076-0.354-0.152-0.505-0.23
	v1.215c0.287,0.166,0.621,0.293,1.003,0.378c0.381,0.085,0.838,0.128,1.369,0.128c0.47,0,0.893-0.049,1.268-0.146
	c0.377-0.098,0.697-0.244,0.964-0.442c0.266-0.197,0.47-0.442,0.611-0.735c0.141-0.294,0.212-0.636,0.212-1.025
	C94.46,46.452,94.409,46.17,94.307,45.936z"/>
</svg>
