<?xml version="1.0" encoding="utf-8"?>
<!-- Generator: Adobe Illustrator 15.0.0, SVG Export Plug-In . SVG Version: 6.00 Build 0)  -->
<!DOCTYPE svg PUBLIC "-//W3C//DTD SVG 1.1//EN" "http://www.w3.org/Graphics/SVG/1.1/DTD/svg11.dtd">
<svg version="1.1" id="Layer_1" xmlns="http://www.w3.org/2000/svg" xmlns:xlink="http://www.w3.org/1999/xlink" x="0px" y="0px"
	 width="80.492px" height="29.045px" viewBox="0 0 80.492 29.045" enable-background="new 0 0 80.492 29.045" xml:space="preserve">
<path fill="#FFFFFF" d="M2.291,0.264v0.48h1.631v5.865c0,1.187-0.552,1.955-1.775,1.979c-1.091,0.011-1.584-0.612-1.584-1.98V5.373
	H0v0.923c0,2.027,0.768,2.771,2.159,2.771c1.57,0,2.326-0.815,2.326-2.902V0.264H2.291z"/>
<path fill="#FFFFFF" d="M11.373,5.121c0,2.399-1.211,3.43-2.146,3.43c-0.684,0-0.983-0.588-0.983-1.787v-4.21H7.68v4.474
	c0,0.959,0.323,2.003,1.475,2.003c0.996,0,2.003-0.983,2.243-1.931h0.024l0.239,1.799h0.528c-0.216-1.055-0.252-2.135-0.252-3.214
	v-3.13h-0.564V5.121z"/>
<path fill="#FFFFFF" d="M16.763,8.899h0.563V0h-2.435v0.479h1.871L16.763,8.899L16.763,8.899z"/>
<path fill="#FFFFFF" d="M26.073,2.554l-1.823,4.87l-1.715-4.87h-0.624l2.063,5.613l-0.48,1.091
	c-0.216,0.479-0.527,1.187-1.139,1.187c-0.528,0-0.828-0.551-0.983-0.983l-0.48,0.252c0.216,0.648,0.744,1.211,1.464,1.211
	c1.115,0,1.654-1.475,1.99-2.338l2.375-6.033H26.073z"/>
<path fill="#FFFFFF" d="M36.863,8.419c0.023-1.224,0.3-1.847,2.099-3.454c0.863-0.768,1.895-1.595,1.895-2.854
	c0-1.248-0.791-2.015-2.039-2.015c-1.415,0-2.206,0.983-2.314,2.327h0.563c0.072-1.007,0.648-1.847,1.739-1.847
	c0.911,0,1.487,0.6,1.487,1.499c0,1.115-1.115,1.991-1.883,2.663c-1.799,1.571-2.111,2.279-2.111,4.162h4.594V8.419H36.863z"/>
<path fill="#FFFFFF" d="M48.152,4.582c0-0.912-0.023-2.003-0.322-2.867c-0.324-0.923-1.009-1.619-2.052-1.619
	c-1.092,0-1.774,0.744-2.087,1.715c-0.266,0.803-0.288,1.919-0.288,2.771c0,0.911,0.022,2.015,0.323,2.866
	c0.324,0.923,1.02,1.619,2.052,1.619c1.079,0,1.774-0.744,2.087-1.715C48.128,6.56,48.152,5.421,48.152,4.582z M47.589,4.582
	c0,0.708-0.024,1.667-0.18,2.338c-0.205,0.815-0.685,1.679-1.632,1.679c-0.888,0-1.38-0.78-1.584-1.535
	c-0.216-0.744-0.228-1.715-0.228-2.482c0-0.708,0.023-1.655,0.18-2.339c0.204-0.815,0.684-1.679,1.632-1.679
	c0.888,0,1.38,0.78,1.583,1.547C47.578,2.842,47.589,3.814,47.589,4.582z"/>
<path fill="#FFFFFF" d="M55.353,4.582c0-0.912-0.023-2.003-0.324-2.867c-0.322-0.923-1.007-1.619-2.051-1.619
	c-1.091,0-1.773,0.744-2.087,1.715c-0.265,0.803-0.287,1.919-0.287,2.771c0,0.911,0.022,2.015,0.323,2.866
	c0.324,0.923,1.02,1.619,2.051,1.619c1.08,0,1.775-0.744,2.087-1.715C55.328,6.56,55.353,5.421,55.353,4.582z M54.789,4.582
	c0,0.708-0.023,1.667-0.181,2.338c-0.203,0.815-0.685,1.679-1.631,1.679c-0.888,0-1.379-0.78-1.583-1.535
	c-0.216-0.744-0.229-1.715-0.229-2.482c0-0.708,0.023-1.655,0.181-2.339c0.204-0.815,0.684-1.679,1.631-1.679
	c0.888,0,1.38,0.78,1.583,1.547C54.776,2.842,54.789,3.814,54.789,4.582z"/>
<path fill="#FFFFFF" d="M57.912,8.623c0.42,0.264,0.946,0.408,1.438,0.408c1.225,0,2.111-0.899,2.579-1.943
	c0.442-0.996,0.588-2.099,0.588-3.178c0-0.804-0.084-1.751-0.42-2.482c-0.372-0.792-0.983-1.332-1.884-1.332
	c-1.654,0-2.446,1.439-2.446,2.938c0,1.271,0.696,2.626,2.135,2.626c0.948,0,1.583-0.552,2.052-1.331
	c0.084,1.487-0.744,4.222-2.578,4.222c-0.396,0-0.853-0.168-1.188-0.408L57.912,8.623z M58.332,3.022
	c0-1.163,0.502-2.446,1.857-2.446c1.176,0,1.691,1.211,1.691,2.219c0,0.611-0.133,1.127-0.504,1.619
	c-0.324,0.408-0.828,0.768-1.367,0.768C58.798,5.181,58.332,4.078,58.332,3.022z"/>
<path fill="#FFFFFF" d="M8.458,18.19H7.184v5.859c0,0.127,0.001,0.268,0.004,0.417c0.002,0.152,0.007,0.31,0.015,0.474
	c0.007,0.164,0.015,0.326,0.021,0.49c0.008,0.163,0.014,0.323,0.019,0.479c0.02,0.36,0.036,0.728,0.051,1.099H7.242L1.998,18.19
	h-1.56v10.709h1.26v-5.81c0-0.276-0.006-0.59-0.018-0.938c-0.013-0.346-0.028-0.678-0.048-0.995c-0.02-0.371-0.044-0.744-0.073-1.12
	h0.059l5.266,8.861h1.575L8.458,18.19L8.458,18.19z"/>
<path fill="#FFFFFF" d="M17.485,23.094c-0.174-0.515-0.415-0.948-0.726-1.304c-0.31-0.354-0.677-0.622-1.103-0.807
	c-0.425-0.183-0.889-0.273-1.392-0.273c-0.541,0-1.031,0.092-1.468,0.273c-0.438,0.185-0.808,0.453-1.11,0.807
	c-0.303,0.354-0.535,0.789-0.699,1.304c-0.163,0.517-0.245,1.105-0.245,1.771c0,0.668,0.087,1.264,0.26,1.783
	c0.174,0.52,0.415,0.957,0.726,1.311c0.31,0.354,0.678,0.624,1.102,0.811c0.426,0.186,0.889,0.277,1.393,0.277
	c0.541,0,1.029-0.093,1.464-0.277c0.435-0.186,0.805-0.455,1.11-0.811c0.305-0.354,0.539-0.791,0.703-1.311
	c0.163-0.521,0.245-1.115,0.245-1.783C17.745,24.2,17.658,23.61,17.485,23.094z M12.614,22.575c0.33-0.506,0.87-0.758,1.622-0.758
	s1.296,0.252,1.63,0.758c0.335,0.505,0.502,1.268,0.502,2.289c0,1.02-0.165,1.787-0.494,2.303c-0.33,0.516-0.871,0.773-1.622,0.773
	c-0.753,0-1.296-0.258-1.63-0.773c-0.335-0.516-0.502-1.283-0.502-2.303C12.12,23.842,12.285,23.08,12.614,22.575z"/>
<path fill="#FFFFFF" d="M22.594,20.847c-0.215,0.09-0.409,0.209-0.582,0.357c-0.174,0.148-0.33,0.32-0.469,0.518
	c-0.14,0.194-0.271,0.397-0.393,0.606h-0.059l-0.16-1.472h-1.084v8.041h1.332v-4.336c0-0.396,0.051-0.756,0.15-1.08
	c0.101-0.323,0.242-0.604,0.425-0.834c0.184-0.231,0.401-0.41,0.656-0.535c0.253-0.125,0.534-0.188,0.842-0.188
	c0.127,0,0.263,0.01,0.406,0.025c0.145,0.018,0.284,0.037,0.421,0.062l0.176-1.23c-0.127-0.024-0.277-0.043-0.453-0.055
	c-0.176-0.013-0.335-0.02-0.477-0.02C23.053,20.71,22.809,20.756,22.594,20.847z"/>
<path fill="#FFFFFF" d="M27.505,27.595c-0.154-0.238-0.23-0.596-0.23-1.068V21.86h2.021v-1.004h-2.021v-1.846h-0.77l-0.571,1.686
	l-1.135,0.57v0.594h1.135v4.666c0,0.492,0.054,0.902,0.161,1.227c0.107,0.325,0.255,0.582,0.443,0.773
	c0.188,0.188,0.411,0.324,0.67,0.402c0.259,0.077,0.539,0.116,0.842,0.116c0.122,0,0.247-0.006,0.374-0.019
	c0.127-0.014,0.249-0.028,0.366-0.051c0.117-0.023,0.225-0.049,0.322-0.078c0.097-0.028,0.178-0.059,0.241-0.088V27.8
	c-0.043,0.016-0.108,0.032-0.193,0.053c-0.086,0.02-0.18,0.035-0.282,0.051c-0.102,0.015-0.209,0.027-0.318,0.037
	c-0.11,0.01-0.209,0.014-0.297,0.014C27.911,27.954,27.658,27.834,27.505,27.595z"/>
<path fill="#FFFFFF" d="M37.271,28.899v-5.252c0-1.025-0.226-1.771-0.678-2.236c-0.451-0.467-1.124-0.7-2.018-0.7
	c-0.234,0-0.464,0.024-0.688,0.073c-0.224,0.049-0.438,0.125-0.638,0.227c-0.2,0.104-0.384,0.231-0.553,0.385
	c-0.168,0.154-0.313,0.336-0.436,0.547h-0.073l0.059-1.055v-3.385h-1.333v11.396h1.333v-4.168c0-0.469,0.035-0.883,0.106-1.244
	c0.07-0.361,0.188-0.668,0.352-0.916c0.163-0.25,0.379-0.438,0.648-0.564c0.268-0.127,0.6-0.189,0.996-0.189
	c0.546,0,0.948,0.158,1.204,0.477c0.257,0.316,0.385,0.794,0.385,1.43v5.178h1.334V28.899z"/>
<path fill="#FFFFFF" d="M47.107,22.856l3.809-4.666h-1.529l-3.311,4.125l-0.887,1.229V18.19h-1.363v10.709h1.363v-4.277l1.018-0.835
	l3.303,5.112h1.547L47.107,22.856z"/>
<path fill="#FFFFFF" d="M58.625,23.094c-0.172-0.515-0.414-0.948-0.725-1.304c-0.311-0.354-0.678-0.622-1.104-0.807
	c-0.424-0.183-0.889-0.273-1.392-0.273c-0.542,0-1.03,0.092-1.469,0.273c-0.437,0.185-0.808,0.453-1.108,0.807
	c-0.304,0.354-0.537,0.789-0.699,1.304c-0.164,0.517-0.246,1.105-0.246,1.771c0,0.668,0.086,1.264,0.261,1.783
	c0.173,0.52,0.415,0.957,0.726,1.311s0.678,0.624,1.103,0.811c0.425,0.186,0.889,0.277,1.392,0.277c0.542,0,1.03-0.093,1.465-0.277
	c0.436-0.186,0.805-0.455,1.109-0.811c0.307-0.354,0.54-0.791,0.703-1.311c0.164-0.521,0.244-1.115,0.244-1.783
	C58.884,24.2,58.798,23.61,58.625,23.094z M53.755,22.575c0.328-0.506,0.869-0.758,1.621-0.758s1.295,0.252,1.631,0.758
	c0.334,0.505,0.5,1.268,0.5,2.289c0,1.02-0.164,1.787-0.493,2.303s-0.87,0.773-1.622,0.773s-1.295-0.258-1.63-0.773
	c-0.334-0.516-0.503-1.283-0.503-2.303C53.259,23.842,53.425,23.08,53.755,22.575z"/>
<path fill="#FFFFFF" d="M63.733,20.847c-0.215,0.09-0.407,0.209-0.582,0.357c-0.173,0.148-0.329,0.32-0.469,0.518
	c-0.14,0.194-0.271,0.397-0.392,0.606h-0.06l-0.161-1.472h-1.084v8.041h1.333v-4.336c0-0.396,0.05-0.756,0.15-1.08
	c0.1-0.323,0.241-0.604,0.425-0.834c0.184-0.231,0.4-0.41,0.654-0.535c0.255-0.125,0.535-0.188,0.843-0.188
	c0.127,0,0.263,0.01,0.407,0.025c0.144,0.018,0.283,0.037,0.42,0.062l0.177-1.23c-0.127-0.024-0.278-0.043-0.454-0.055
	c-0.176-0.013-0.335-0.02-0.477-0.02C64.192,20.71,63.949,20.756,63.733,20.847z"/>
<path fill="#FFFFFF" d="M70.841,29.017c0.214-0.021,0.418-0.052,0.615-0.097c0.198-0.043,0.392-0.101,0.58-0.168
	c0.188-0.067,0.379-0.147,0.574-0.242v-1.186c-0.191,0.088-0.379,0.167-0.564,0.237s-0.377,0.129-0.574,0.176
	s-0.402,0.082-0.615,0.105c-0.212,0.024-0.441,0.037-0.691,0.037c-0.737,0-1.293-0.223-1.666-0.667s-0.572-1.138-0.598-2.08h5.068
	v-0.827c0-0.537-0.072-1.027-0.217-1.469s-0.351-0.82-0.619-1.135c-0.268-0.314-0.596-0.561-0.98-0.733
	c-0.386-0.173-0.82-0.26-1.304-0.26c-0.493,0-0.942,0.095-1.353,0.286c-0.406,0.189-0.758,0.467-1.051,0.831
	s-0.52,0.807-0.682,1.329c-0.161,0.521-0.241,1.115-0.241,1.779c0,0.659,0.088,1.246,0.265,1.758
	c0.176,0.514,0.424,0.942,0.742,1.289c0.32,0.348,0.702,0.61,1.146,0.791c0.443,0.182,0.935,0.271,1.472,0.271
	C70.399,29.045,70.63,29.036,70.841,29.017z M70.597,21.978c0.215,0.106,0.392,0.26,0.531,0.455c0.139,0.194,0.24,0.43,0.308,0.705
	c0.065,0.276,0.099,0.58,0.099,0.912h-3.604c0.054-0.729,0.242-1.281,0.566-1.662c0.326-0.382,0.767-0.57,1.322-0.57
	C70.123,21.817,70.382,21.87,70.597,21.978z"/>
<path fill="#FFFFFF" d="M80.492,28.899v-5.508c0-0.479-0.06-0.888-0.177-1.224c-0.116-0.338-0.294-0.614-0.53-0.832
	c-0.236-0.217-0.537-0.375-0.9-0.476c-0.363-0.102-0.795-0.15-1.293-0.15c-0.488,0-0.954,0.068-1.398,0.205
	c-0.443,0.137-0.848,0.303-1.209,0.498l0.471,1.003c0.32-0.166,0.656-0.308,1.006-0.424c0.35-0.117,0.727-0.177,1.131-0.177
	c0.255,0,0.48,0.029,0.679,0.088c0.198,0.06,0.364,0.154,0.498,0.289c0.135,0.136,0.237,0.312,0.308,0.531
	c0.071,0.219,0.106,0.492,0.106,0.82v0.505l-1.349,0.052c-1.151,0.039-2.01,0.273-2.574,0.703c-0.563,0.43-0.846,1.045-0.846,1.846
	c0,0.41,0.059,0.766,0.176,1.065s0.279,0.55,0.486,0.747c0.209,0.197,0.453,0.344,0.736,0.439c0.283,0.095,0.593,0.143,0.93,0.143
	c0.309,0,0.579-0.023,0.813-0.072c0.233-0.05,0.446-0.125,0.637-0.229c0.19-0.102,0.366-0.232,0.528-0.393
	c0.16-0.158,0.32-0.348,0.482-0.566h0.06l0.271,1.113h0.959V28.899z M76.152,27.653c-0.236-0.209-0.355-0.539-0.355-0.988
	c0-0.248,0.039-0.473,0.117-0.67s0.207-0.366,0.385-0.505c0.179-0.14,0.416-0.248,0.715-0.326c0.298-0.078,0.666-0.127,1.105-0.146
	l1.047-0.053v0.727c0,0.386-0.053,0.722-0.156,1.007c-0.105,0.286-0.252,0.522-0.438,0.711s-0.404,0.327-0.658,0.421
	c-0.254,0.093-0.529,0.141-0.828,0.141C76.701,27.969,76.389,27.864,76.152,27.653z"/>
</svg>
