<?xml version="1.0" encoding="utf-8"?>
<!-- Generator: Adobe Illustrator 15.0.0, SVG Export Plug-In . SVG Version: 6.00 Build 0)  -->
<!DOCTYPE svg PUBLIC "-//W3C//DTD SVG 1.1//EN" "http://www.w3.org/Graphics/SVG/1.1/DTD/svg11.dtd">
<svg version="1.1" id="Layer_1" xmlns="http://www.w3.org/2000/svg" xmlns:xlink="http://www.w3.org/1999/xlink" x="0px" y="0px"
	 width="70.074px" height="29.129px" viewBox="0 0 70.074 29.129" enable-background="new 0 0 70.074 29.129" xml:space="preserve">
<path fill="#FFFFFF" d="M2.878,0L0,8.983h0.624l0.792-2.626h2.938l0.779,2.626h0.636L2.878,0z M2.878,1.535l1.355,4.341H1.535
	L2.878,1.535z"/>
<path fill="#FFFFFF" d="M7.979,11.525h0.563v-2.95c0.432,0.348,0.996,0.54,1.559,0.54c0.864,0,2.495-0.72,2.495-3.262
	c0-2.495-1.403-3.346-2.458-3.346c-0.744,0-1.355,0.384-1.679,1.043H8.435L8.219,2.506L7.691,2.579
	C7.919,3.322,7.979,4.09,7.979,4.858V11.525z M8.543,4.257c0.312-0.684,0.744-1.271,1.583-1.271c0.72,0,1.907,0.624,1.907,2.831
	c0,2.314-1.355,2.818-2.075,2.818c-0.54,0-1.02-0.276-1.415-0.624V4.257z"/>
<path fill="#FFFFFF" d="M16.259,6.404c0-2.411,1.439-3.418,2.086-3.418c0.768,0,0.804,0.852,0.816,1.439h0.563
	c0-0.863-0.276-1.919-1.331-1.919c-1.092,0-1.751,0.983-2.171,1.859l-0.216-1.799h-0.54l0.228,2.027v4.39h0.564L16.259,6.404
	L16.259,6.404z"/>
<path fill="#FFFFFF" d="M24.334,8.983h0.563V2.638h-2.411v0.48h1.847L24.334,8.983L24.334,8.983z M24.598,0.18
	c-0.348,0-0.624,0.276-0.624,0.624c0,0.348,0.276,0.624,0.624,0.624c0.348,0,0.636-0.276,0.636-0.624
	C25.233,0.456,24.946,0.18,24.598,0.18z"/>
<path fill="#FFFFFF" d="M31.45,8.983h0.564V0.084h-2.435v0.479h1.871V8.983z"/>
<path fill="#FFFFFF" d="M44.352,8.503c0.022-1.224,0.299-1.847,2.098-3.454c0.863-0.768,1.896-1.595,1.896-2.854
	c0-1.248-0.793-2.015-2.039-2.015c-1.416,0-2.207,0.983-2.314,2.327h0.562C44.627,1.5,45.203,0.66,46.294,0.66
	c0.911,0,1.487,0.6,1.487,1.499c0,1.115-1.115,1.991-1.883,2.663c-1.799,1.571-2.111,2.279-2.111,4.162h4.594V8.503H44.352z"/>
<path fill="#FFFFFF" d="M55.641,4.666c0-0.912-0.023-2.003-0.324-2.867c-0.323-0.923-1.008-1.619-2.051-1.619
	c-1.092,0-1.775,0.744-2.086,1.715c-0.266,0.804-0.289,1.919-0.289,2.771c0,0.911,0.023,2.015,0.323,2.866
	c0.324,0.923,1.021,1.619,2.052,1.619c1.08,0,1.774-0.744,2.086-1.715C55.617,6.644,55.641,5.505,55.641,4.666z M55.077,4.666
	c0,0.708-0.024,1.667-0.181,2.338c-0.203,0.816-0.685,1.679-1.631,1.679c-0.888,0-1.379-0.779-1.584-1.535
	c-0.216-0.744-0.228-1.715-0.228-2.482c0-0.708,0.022-1.655,0.18-2.339c0.204-0.815,0.685-1.679,1.632-1.679
	c0.887,0,1.379,0.78,1.584,1.547C55.064,2.926,55.077,3.898,55.077,4.666z"/>
<path fill="#FFFFFF" d="M62.839,4.666c0-0.912-0.022-2.003-0.323-2.867c-0.322-0.923-1.007-1.619-2.051-1.619
	c-1.091,0-1.773,0.744-2.087,1.715c-0.265,0.804-0.287,1.919-0.287,2.771c0,0.911,0.022,2.015,0.323,2.866
	c0.322,0.923,1.02,1.619,2.051,1.619c1.079,0,1.773-0.744,2.087-1.715C62.816,6.644,62.839,5.505,62.839,4.666z M62.277,4.666
	c0,0.708-0.024,1.667-0.182,2.338c-0.203,0.816-0.684,1.679-1.631,1.679c-0.888,0-1.38-0.779-1.583-1.535
	c-0.216-0.744-0.229-1.715-0.229-2.482c0-0.708,0.024-1.655,0.181-2.339c0.205-0.815,0.685-1.679,1.632-1.679
	c0.889,0,1.381,0.78,1.583,1.547C62.264,2.926,62.277,3.898,62.277,4.666z"/>
<path fill="#FFFFFF" d="M65.302,0.348v0.48h3.814l-3.226,8.155h0.623l3.321-8.635H65.302z"/>
<path fill="#FFFFFF" d="M29.182,27.782h-4.197v-3.81h3.918v-1.187h-3.918v-3.312h4.197v-1.201h-5.559v10.709h5.559V27.782z"/>
<path fill="#FFFFFF" d="M36.016,25.936c-0.103-0.233-0.252-0.442-0.447-0.625c-0.194-0.185-0.43-0.35-0.707-0.496
	c-0.276-0.146-0.59-0.293-0.941-0.438c-0.342-0.142-0.627-0.271-0.857-0.384c-0.23-0.114-0.413-0.229-0.549-0.342
	c-0.136-0.111-0.233-0.231-0.289-0.358s-0.084-0.274-0.084-0.446c0-0.303,0.12-0.535,0.359-0.699
	c0.239-0.162,0.608-0.244,1.106-0.244c0.347,0,0.687,0.052,1.021,0.156s0.661,0.229,0.978,0.371l0.461-1.078
	c-0.352-0.166-0.724-0.3-1.116-0.402c-0.393-0.102-0.827-0.153-1.3-0.153c-0.42,0-0.801,0.046-1.143,0.14
	c-0.342,0.092-0.635,0.229-0.879,0.41c-0.244,0.18-0.434,0.403-0.567,0.67c-0.135,0.267-0.202,0.57-0.202,0.912
	c0,0.326,0.052,0.608,0.158,0.846c0.104,0.236,0.255,0.445,0.45,0.627c0.195,0.181,0.433,0.345,0.714,0.49
	c0.281,0.146,0.597,0.295,0.949,0.446s0.64,0.288,0.864,0.41c0.224,0.122,0.401,0.243,0.531,0.362
	c0.129,0.119,0.218,0.24,0.267,0.363c0.049,0.12,0.073,0.258,0.073,0.409c0,0.177-0.032,0.336-0.095,0.479
	c-0.063,0.143-0.165,0.267-0.304,0.365c-0.139,0.101-0.32,0.178-0.542,0.23c-0.223,0.054-0.492,0.08-0.81,0.08
	c-0.215,0-0.431-0.018-0.648-0.055c-0.218-0.037-0.429-0.084-0.634-0.144s-0.4-0.125-0.586-0.2c-0.186-0.076-0.354-0.152-0.505-0.23
	v1.215c0.288,0.166,0.623,0.293,1.003,0.378c0.38,0.085,0.837,0.128,1.37,0.128c0.469,0,0.891-0.049,1.267-0.146
	c0.376-0.097,0.697-0.244,0.963-0.442c0.266-0.197,0.471-0.442,0.611-0.735c0.143-0.294,0.213-0.636,0.213-1.025
	C36.169,26.452,36.119,26.17,36.016,25.936z"/>
<path fill="#FFFFFF" d="M39.798,27.68c-0.153-0.24-0.229-0.597-0.229-1.07v-4.666h2.021v-1.002h-2.021v-1.846h-0.771l-0.569,1.684
	l-1.137,0.572v0.592h1.137v4.666c0,0.494,0.053,0.902,0.16,1.228c0.106,0.325,0.256,0.582,0.442,0.772
	c0.188,0.189,0.412,0.324,0.67,0.402c0.26,0.078,0.54,0.117,0.843,0.117c0.122,0,0.247-0.006,0.374-0.02
	c0.128-0.012,0.248-0.028,0.365-0.051c0.117-0.021,0.226-0.048,0.321-0.076c0.098-0.029,0.18-0.06,0.242-0.088v-1.012
	c-0.043,0.016-0.108,0.032-0.192,0.053c-0.086,0.02-0.181,0.035-0.283,0.051c-0.103,0.015-0.209,0.027-0.317,0.037
	c-0.109,0.01-0.209,0.014-0.297,0.014C40.205,28.038,39.953,27.918,39.798,27.68z"/>
<path fill="#FFFFFF" d="M49.503,23.178c-0.174-0.515-0.416-0.949-0.726-1.304c-0.311-0.354-0.678-0.622-1.104-0.806
	c-0.424-0.184-0.889-0.274-1.391-0.274c-0.543,0-1.032,0.092-1.469,0.274c-0.438,0.184-0.808,0.451-1.109,0.806
	c-0.303,0.354-0.537,0.789-0.7,1.304c-0.163,0.516-0.245,1.105-0.245,1.771c0,0.668,0.086,1.263,0.26,1.782
	c0.174,0.521,0.416,0.957,0.726,1.312c0.312,0.354,0.678,0.624,1.104,0.81c0.424,0.187,0.889,0.278,1.391,0.278
	c0.543,0,1.031-0.093,1.465-0.278c0.436-0.186,0.805-0.455,1.109-0.81c0.306-0.354,0.539-0.791,0.703-1.312s0.246-1.114,0.246-1.782
	C49.764,24.284,49.676,23.693,49.503,23.178z M44.632,22.659c0.33-0.507,0.871-0.759,1.623-0.759s1.295,0.252,1.629,0.759
	c0.334,0.505,0.503,1.268,0.503,2.289c0,1.02-0.166,1.788-0.494,2.303c-0.33,0.517-0.871,0.772-1.623,0.772
	s-1.295-0.258-1.629-0.772c-0.336-0.515-0.502-1.283-0.502-2.303C44.139,23.926,44.303,23.164,44.632,22.659z"/>
<path fill="#FFFFFF" d="M58.223,28.982V23.73c0-1.024-0.227-1.771-0.678-2.236c-0.452-0.467-1.124-0.699-2.02-0.699
	c-0.233,0-0.463,0.023-0.688,0.073c-0.225,0.049-0.438,0.125-0.638,0.228c-0.2,0.104-0.386,0.23-0.554,0.385
	c-0.168,0.153-0.312,0.336-0.437,0.545h-0.069l-0.191-1.084h-1.084v8.043h1.334v-4.168c0-0.469,0.035-0.883,0.105-1.244
	c0.069-0.361,0.188-0.668,0.352-0.916c0.164-0.249,0.38-0.438,0.648-0.564c0.268-0.126,0.6-0.189,0.995-0.189
	c0.548,0,0.948,0.158,1.205,0.477c0.257,0.316,0.386,0.794,0.386,1.43v5.178h1.332V28.982z"/>
<path fill="#FFFFFF" d="M62.031,20.941h-1.332v8.041h1.332V20.941z M60.818,19.402c0.149,0.138,0.334,0.205,0.555,0.205
	c0.215,0,0.398-0.068,0.553-0.209c0.154-0.139,0.23-0.35,0.23-0.633c0-0.146-0.021-0.271-0.062-0.377
	c-0.041-0.104-0.098-0.191-0.168-0.261c-0.07-0.067-0.154-0.118-0.25-0.149c-0.095-0.031-0.195-0.049-0.303-0.049
	c-0.221,0-0.404,0.066-0.555,0.198c-0.149,0.132-0.223,0.345-0.223,0.638C60.596,19.053,60.669,19.266,60.818,19.402z"/>
<path fill="#FFFFFF" d="M70.074,28.982v-5.508c0-0.479-0.059-0.887-0.176-1.223c-0.117-0.338-0.295-0.613-0.531-0.832
	c-0.237-0.217-0.537-0.375-0.9-0.477c-0.365-0.101-0.795-0.149-1.293-0.149c-0.488,0-0.955,0.067-1.398,0.205
	c-0.444,0.137-0.848,0.303-1.209,0.498l0.47,1.003c0.321-0.166,0.657-0.307,1.007-0.424S66.77,21.9,67.175,21.9
	c0.255,0,0.479,0.029,0.679,0.088c0.196,0.059,0.362,0.154,0.496,0.289c0.135,0.135,0.237,0.311,0.309,0.531
	c0.07,0.219,0.105,0.491,0.105,0.819v0.505l-1.348,0.053c-1.152,0.039-2.012,0.272-2.574,0.703c-0.564,0.43-0.847,1.045-0.847,1.846
	c0,0.41,0.06,0.765,0.176,1.064c0.117,0.301,0.279,0.551,0.487,0.747c0.208,0.197,0.453,0.345,0.736,0.438
	c0.282,0.096,0.592,0.144,0.931,0.144c0.307,0,0.577-0.024,0.812-0.073s0.447-0.123,0.637-0.228
	c0.191-0.103,0.367-0.231,0.527-0.392c0.162-0.158,0.322-0.349,0.484-0.567h0.059l0.271,1.112h0.959V28.982z M65.734,27.738
	c-0.237-0.211-0.355-0.54-0.355-0.989c0-0.248,0.039-0.472,0.117-0.67c0.078-0.197,0.206-0.366,0.385-0.505
	c0.178-0.141,0.416-0.248,0.715-0.326c0.297-0.078,0.666-0.127,1.105-0.146l1.047-0.052v0.726c0,0.387-0.053,0.723-0.157,1.008
	s-0.251,0.523-0.437,0.711c-0.187,0.188-0.404,0.328-0.658,0.421s-0.53,0.14-0.828,0.14C66.282,28.053,65.971,27.948,65.734,27.738z
	"/>
</svg>
