<?xml version="1.0" encoding="utf-8"?>
<!-- Generator: Adobe Illustrator 16.0.0, SVG Export Plug-In . SVG Version: 6.00 Build 0)  -->
<!DOCTYPE svg PUBLIC "-//W3C//DTD SVG 1.1//EN" "http://www.w3.org/Graphics/SVG/1.1/DTD/svg11.dtd">
<svg version="1.1" id="Layer_1" xmlns="http://www.w3.org/2000/svg" xmlns:xlink="http://www.w3.org/1999/xlink" x="0px" y="0px"
	 width="77.21px" height="27.045px" viewBox="0.762 -43.376 77.21 27.045" enable-background="new 0.762 -43.376 77.21 27.045"
	 xml:space="preserve">
<g>
	<path fill="#FFFFFF" d="M5.505-41.889C4.966-42.357,4.354-42.8,3.61-42.8c-0.875,0-1.595,0.6-1.595,1.511
		c0,0.672,0.3,1.116,1.355,1.763l0.708,0.432c1.367,0.828,1.991,1.319,1.991,2.387c0,1.487-0.972,2.399-2.447,2.399
		c-1.02,0-1.823-0.48-2.435-1.271l0.432-0.348c0.456,0.66,1.175,1.139,2.003,1.139c1.007,0,1.847-0.744,1.847-1.775
		c0-0.815-0.096-1.127-1.691-2.075l-0.803-0.48c-0.828-0.492-1.56-1.067-1.56-2.111c0-1.295,0.983-2.051,2.231-2.051
		c0.815,0,1.607,0.432,2.195,0.972L5.505-41.889z"/>
	<path fill="#FFFFFF" d="M12.393-40.822h0.563v3.13c0,1.08,0.036,2.159,0.252,3.214h-0.528l-0.24-1.799h-0.024
		c-0.24,0.947-1.248,1.931-2.243,1.931c-1.151,0-1.475-1.043-1.475-2.003v-4.474h0.564v4.21c0,1.199,0.3,1.787,0.983,1.787
		c0.936,0,2.147-1.032,2.147-3.43V-40.822z"/>
	<path fill="#FFFFFF" d="M15.323-38.903c0-0.839-0.096-1.511-0.228-2.051h0.576l0.156,0.828c0.36-0.504,0.863-0.828,1.487-0.828
		c0.516,0,0.803,0.312,0.983,0.768c0.324-0.408,0.755-0.768,1.307-0.768c0.815,0,1.248,0.54,1.248,1.332v5.145h-0.564v-5.121
		c0-0.648-0.312-0.888-0.755-0.888c-0.504,0-0.924,0.396-1.164,0.815v5.193h-0.563v-4.869c0-0.48-0.036-1.127-0.672-1.127
		c-0.54,0-1.031,0.444-1.247,0.923v5.073h-0.564V-38.903z"/>
	<path fill="#FFFFFF" d="M22.523-38.903c0-0.839-0.096-1.511-0.228-2.051h0.576l0.156,0.828c0.36-0.504,0.863-0.828,1.487-0.828
		c0.516,0,0.803,0.312,0.983,0.768c0.324-0.408,0.755-0.768,1.307-0.768c0.815,0,1.248,0.54,1.248,1.332v5.145h-0.564v-5.121
		c0-0.648-0.312-0.888-0.755-0.888c-0.504,0-0.924,0.396-1.164,0.815v5.193h-0.563v-4.869c0-0.48-0.036-1.127-0.672-1.127
		c-0.54,0-1.031,0.444-1.247,0.923v5.073h-0.564V-38.903z"/>
	<path fill="#FFFFFF" d="M34.773-34.921c-0.731,0.324-1.451,0.576-2.267,0.576c-1.859,0-2.542-1.667-2.542-3.274
		c0-1.607,0.708-3.334,2.579-3.334c1.067,0,2.326,0.768,2.326,3.394h-4.341c0.108,2.231,1.032,2.735,2.002,2.735
		c0.72,0,1.403-0.264,2.003-0.624L34.773-34.921z M34.305-38.039c0.061-1.091-0.588-2.435-1.835-2.435
		c-1.235,0-1.979,1.319-1.943,2.435H34.305z"/>
	<path fill="#FFFFFF" d="M38.59-34.477h-0.563v-4.39l-0.229-2.027h0.54l0.216,1.799c0.42-0.875,1.079-1.859,2.171-1.859
		c1.056,0,1.331,1.056,1.331,1.919h-0.563c-0.012-0.587-0.048-1.439-0.815-1.439c-0.647,0-2.087,1.007-2.087,3.418V-34.477z"/>
	<path fill="#FFFFFF" d="M56.313-34.957v0.479h-4.594c0-1.883,0.312-2.591,2.11-4.162c0.768-0.672,1.884-1.547,1.884-2.663
		c0-0.899-0.576-1.499-1.487-1.499c-1.092,0-1.667,0.839-1.739,1.847h-0.563c0.107-1.343,0.899-2.327,2.314-2.327
		c1.247,0,2.039,0.768,2.039,2.015c0,1.259-1.031,2.087-1.896,2.854c-1.799,1.607-2.074,2.23-2.099,3.454H56.313z"/>
	<path fill="#FFFFFF" d="M63.284-36.024c-0.312,0.972-1.007,1.715-2.087,1.715c-1.031,0-1.727-0.696-2.051-1.619
		c-0.3-0.852-0.323-1.955-0.323-2.866c0-0.852,0.023-1.967,0.287-2.771c0.312-0.972,0.996-1.715,2.087-1.715
		c1.044,0,1.728,0.696,2.051,1.619c0.301,0.864,0.324,1.955,0.324,2.867C63.573-37.955,63.549-36.816,63.284-36.024z M62.781-41.265
		c-0.204-0.768-0.696-1.547-1.584-1.547c-0.947,0-1.427,0.864-1.631,1.679c-0.156,0.684-0.18,1.631-0.18,2.339
		c0,0.768,0.012,1.739,0.228,2.482c0.204,0.755,0.696,1.535,1.583,1.535c0.948,0,1.428-0.864,1.632-1.679
		c0.155-0.671,0.18-1.631,0.18-2.338C63.009-39.562,62.997-40.534,62.781-41.265z"/>
	<path fill="#FFFFFF" d="M68.709-34.957h1.595v0.479h-3.802v-0.479h1.643v-7.7l-1.727,0.54v-0.528l2.291-0.731V-34.957z"/>
	<path fill="#FFFFFF" d="M77.684-36.024c-0.312,0.972-1.007,1.715-2.087,1.715c-1.031,0-1.727-0.696-2.051-1.619
		c-0.3-0.852-0.323-1.955-0.323-2.866c0-0.852,0.023-1.967,0.287-2.771c0.312-0.972,0.996-1.715,2.087-1.715
		c1.044,0,1.728,0.696,2.051,1.619c0.3,0.864,0.324,1.955,0.324,2.867C77.972-37.955,77.948-36.816,77.684-36.024z M77.18-41.265
		c-0.203-0.768-0.695-1.547-1.583-1.547c-0.947,0-1.427,0.864-1.631,1.679c-0.156,0.684-0.18,1.631-0.18,2.339
		c0,0.768,0.012,1.739,0.228,2.482c0.204,0.755,0.696,1.535,1.583,1.535c0.948,0,1.428-0.864,1.632-1.679
		c0.155-0.671,0.18-1.631,0.18-2.338C77.408-39.562,77.397-40.534,77.18-41.265z"/>
	<path fill="#FFFFFF" d="M7.097-19.341c0,0.474-0.084,0.897-0.252,1.271c-0.169,0.373-0.409,0.689-0.722,0.948
		s-0.693,0.456-1.143,0.59c-0.449,0.134-0.955,0.201-1.516,0.201c-0.542,0-1.049-0.043-1.52-0.128
		c-0.471-0.085-0.865-0.211-1.183-0.377v-1.304c0.166,0.078,0.355,0.155,0.567,0.231c0.213,0.076,0.436,0.143,0.67,0.201
		s0.476,0.106,0.725,0.143c0.249,0.037,0.496,0.055,0.74,0.055c0.781,0,1.359-0.146,1.732-0.439c0.374-0.293,0.561-0.713,0.561-1.26
		c0-0.264-0.036-0.493-0.106-0.688s-0.195-0.375-0.373-0.539c-0.179-0.163-0.417-0.322-0.714-0.476
		c-0.298-0.154-0.674-0.321-1.128-0.502c-0.435-0.171-0.812-0.357-1.131-0.561c-0.32-0.202-0.584-0.431-0.791-0.685
		c-0.208-0.254-0.362-0.542-0.462-0.864s-0.15-0.688-0.15-1.099c0-0.43,0.078-0.813,0.234-1.15s0.376-0.621,0.659-0.853
		s0.621-0.409,1.014-0.531s0.827-0.183,1.3-0.183c0.581,0,1.104,0.055,1.567,0.165c0.464,0.11,0.876,0.25,1.238,0.421L6.424-25.61
		c-0.317-0.142-0.677-0.265-1.081-0.37c-0.402-0.105-0.819-0.158-1.249-0.158c-0.596,0-1.057,0.138-1.384,0.414
		c-0.327,0.276-0.491,0.648-0.491,1.117c0,0.278,0.037,0.519,0.11,0.722s0.195,0.386,0.366,0.549
		c0.171,0.164,0.396,0.318,0.678,0.462c0.28,0.144,0.626,0.296,1.036,0.458c0.444,0.176,0.833,0.356,1.168,0.542
		s0.614,0.396,0.839,0.63s0.394,0.505,0.509,0.813S7.097-19.761,7.097-19.341z"/>
	<path fill="#FFFFFF" d="M11.492-17.422c0.088,0,0.187-0.005,0.297-0.015c0.109-0.01,0.216-0.022,0.318-0.037
		s0.196-0.032,0.282-0.051c0.085-0.02,0.15-0.037,0.194-0.051v1.011c-0.063,0.029-0.144,0.059-0.242,0.088s-0.205,0.055-0.322,0.077
		c-0.117,0.021-0.239,0.039-0.366,0.051s-0.251,0.019-0.374,0.019c-0.303,0-0.583-0.039-0.842-0.117s-0.482-0.212-0.67-0.403
		c-0.188-0.19-0.336-0.448-0.443-0.773c-0.107-0.324-0.161-0.733-0.161-1.227v-4.666H8.028v-0.593l1.135-0.571l0.571-1.685h0.769
		v1.846h2.021v1.003h-2.021v4.666c0,0.474,0.077,0.83,0.231,1.069C10.887-17.542,11.14-17.422,11.492-17.422z"/>
	<path fill="#FFFFFF" d="M19.351-16.477l-0.198-1.077H19.08c-0.122,0.21-0.268,0.392-0.436,0.545
		c-0.169,0.154-0.353,0.281-0.553,0.381c-0.2,0.101-0.413,0.175-0.637,0.224S17-16.331,16.765-16.331
		c-0.444,0-0.835-0.056-1.172-0.168s-0.618-0.288-0.842-0.527s-0.395-0.544-0.509-0.916s-0.172-0.813-0.172-1.326v-5.251h1.333
		v5.178c0,0.635,0.129,1.111,0.388,1.428s0.659,0.476,1.201,0.476c0.396,0,0.728-0.063,0.996-0.19s0.484-0.313,0.648-0.56
		s0.281-0.551,0.352-0.912s0.106-0.776,0.106-1.245v-4.175h1.333v8.042H19.351z"/>
	<path fill="#FFFFFF" d="M24.69-20.601l-2.585-3.918h1.516l1.831,3.003l1.831-3.003h1.516l-2.6,3.918l2.732,4.124h-1.516
		l-1.963-3.193l-1.978,3.193h-1.516L24.69-20.601z"/>
	<path fill="#FFFFFF" d="M35.5-16.477v-5.178c0-0.635-0.127-1.111-0.385-1.428c-0.256-0.317-0.658-0.476-1.205-0.476
		c-0.395,0-0.727,0.063-0.996,0.19c-0.268,0.127-0.484,0.315-0.646,0.564c-0.164,0.249-0.281,0.554-0.352,0.916
		c-0.072,0.361-0.107,0.776-0.107,1.245v4.167h-1.333v-8.042h1.084l0.189,1.084h0.074c0.121-0.21,0.268-0.392,0.436-0.546
		c0.168-0.153,0.352-0.282,0.553-0.384c0.199-0.103,0.412-0.178,0.637-0.227s0.455-0.073,0.689-0.073
		c0.893,0,1.566,0.233,2.018,0.699c0.451,0.467,0.678,1.212,0.678,2.238v5.251H35.5z"/>
	<path fill="#FFFFFF" d="M42.489-16.331c-0.537,0-1.028-0.09-1.473-0.271s-0.826-0.444-1.146-0.791
		c-0.32-0.347-0.567-0.776-0.743-1.289s-0.264-1.099-0.264-1.758c0-0.664,0.08-1.257,0.241-1.78s0.388-0.965,0.681-1.329
		s0.644-0.641,1.052-0.832c0.407-0.19,0.857-0.286,1.351-0.286c0.484,0,0.918,0.087,1.305,0.26c0.385,0.174,0.712,0.418,0.98,0.732
		c0.269,0.315,0.476,0.694,0.619,1.136c0.145,0.442,0.217,0.931,0.217,1.468v0.828H40.24c0.023,0.942,0.223,1.636,0.597,2.08
		c0.373,0.444,0.929,0.667,1.666,0.667c0.249,0,0.479-0.012,0.692-0.037c0.212-0.024,0.417-0.06,0.615-0.106
		c0.197-0.046,0.389-0.104,0.574-0.176c0.186-0.07,0.374-0.15,0.564-0.238v1.187c-0.195,0.093-0.387,0.173-0.575,0.242
		c-0.188,0.068-0.381,0.125-0.578,0.168c-0.198,0.044-0.403,0.076-0.615,0.095C42.968-16.34,42.738-16.331,42.489-16.331z
		 M42.158-23.56c-0.557,0-0.997,0.19-1.321,0.571c-0.325,0.381-0.515,0.935-0.567,1.663h3.604c0-0.332-0.033-0.636-0.1-0.912
		c-0.065-0.275-0.168-0.511-0.308-0.707c-0.139-0.195-0.316-0.347-0.53-0.454C42.72-23.506,42.461-23.56,42.158-23.56z"/>
	<path fill="#FFFFFF" d="M49.769-17.422c0.088,0,0.187-0.005,0.297-0.015c0.109-0.01,0.216-0.022,0.318-0.037
		s0.196-0.032,0.282-0.051c0.085-0.02,0.15-0.037,0.193-0.051v1.011c-0.063,0.029-0.144,0.059-0.241,0.088s-0.205,0.055-0.322,0.077
		c-0.117,0.021-0.239,0.039-0.366,0.051s-0.252,0.019-0.373,0.019c-0.304,0-0.584-0.039-0.843-0.117s-0.482-0.212-0.67-0.403
		c-0.188-0.19-0.336-0.448-0.443-0.773c-0.107-0.324-0.161-0.733-0.161-1.227v-4.666h-1.135v-0.593l1.135-0.571l0.571-1.685h0.769
		v1.846h2.021v1.003H48.78v4.666c0,0.474,0.077,0.83,0.231,1.069C49.164-17.542,49.417-17.422,49.769-17.422z"/>
</g>
</svg>
