<?xml version="1.0" encoding="utf-8"?>
<!-- Generator: Adobe Illustrator 16.0.0, SVG Export Plug-In . SVG Version: 6.00 Build 0)  -->
<!DOCTYPE svg PUBLIC "-//W3C//DTD SVG 1.1//EN" "http://www.w3.org/Graphics/SVG/1.1/DTD/svg11.dtd">
<svg version="1.1" id="Layer_1" xmlns="http://www.w3.org/2000/svg" xmlns:xlink="http://www.w3.org/1999/xlink" x="0px" y="0px"
	 width="330px" height="70px" viewBox="0 0 330 70" enable-background="new 0 0 330 70" xml:space="preserve">
<g>
	<path fill="#FFFFFF" d="M44.603,20.558h1.043l1.259,6.453h0.036l1.368-6.453h0.899l-1.847,8.719H46.51l-1.355-6.968l-0.024,0.024
		l-1.463,6.86h-0.899L44.603,20.558z"/>
	<path fill="#FFFFFF" d="M55.185,22.429c0.144-0.72-0.251-1.283-0.983-1.283c-1.823,0-2.471,2.47-2.758,3.802
		c-0.264,1.259-0.648,3.658,1.08,3.658c0.899,0,1.583-0.671,1.775-1.523h0.899c-0.384,1.403-1.427,2.279-2.867,2.279
		c-2.375,0-2.159-2.603-1.775-4.438c0.408-1.895,1.355-4.534,3.79-4.534c1.199,0,1.919,0.839,1.739,2.039H55.185z"/>
	<path fill="#FFFFFF" d="M62.385,22.429c0.144-0.72-0.251-1.283-0.983-1.283c-1.823,0-2.471,2.47-2.758,3.802
		c-0.264,1.259-0.648,3.658,1.08,3.658c0.899,0,1.583-0.671,1.775-1.523h0.899c-0.384,1.403-1.427,2.279-2.867,2.279
		c-2.375,0-2.159-2.603-1.775-4.438c0.408-1.895,1.355-4.534,3.79-4.534c1.199,0,1.919,0.839,1.739,2.039H62.385z"/>
	<path fill="#FFFFFF" d="M69.884,21.313h-1.175l-1.523,7.125h1.175l-0.156,0.755h-3.238l0.156-0.755h1.164l1.523-7.125h-1.163
		l0.156-0.755h3.238L69.884,21.313z"/>
	<path fill="#FFFFFF" d="M76.785,22.429c0.144-0.72-0.251-1.283-0.983-1.283c-1.823,0-2.471,2.47-2.758,3.802
		c-0.264,1.259-0.647,3.658,1.079,3.658c0.9,0,1.583-0.671,1.775-1.523h0.899c-0.384,1.403-1.427,2.279-2.866,2.279
		c-2.375,0-2.159-2.603-1.775-4.438c0.408-1.895,1.355-4.534,3.79-4.534c1.199,0,1.919,0.839,1.739,2.039H76.785z"/>
	<path fill="#FFFFFF" d="M87.898,20.294h0.899L88.066,23.7c0.588-0.611,1.367-1.055,2.159-1.055c0.768,0,1.595,0.24,1.043,2.866
		l-0.779,3.682h-0.899l0.803-3.754c0.12-0.588,0.432-2.039-0.384-2.039c-0.671,0-1.403,0.6-1.799,1.164
		c-0.504,0.72-0.636,1.439-0.804,2.243l-0.503,2.387h-0.9L87.898,20.294z"/>
	<path fill="#FFFFFF" d="M94.367,26.219c-0.336,1.763,0.336,2.351,1.319,2.351c0.708,0,1.487-0.324,2.147-0.684l0.216,0.803
		c-0.875,0.36-1.703,0.636-2.591,0.636c-1.895,0-2.303-1.631-1.955-3.298c0.36-1.679,1.5-3.382,3.418-3.382
		c2.135,0,1.943,2.387,1.811,3.082l-0.096,0.492H94.367z M97.893,25.463c0.192-1.055-0.192-2.063-1.199-2.063
		s-1.667,0.768-2.183,2.063H97.893z"/>
	<path fill="#FFFFFF" d="M104.553,24.612c0.156-0.708-0.168-1.211-0.839-1.211c-0.564,0-1.151,0.264-1.715,0.48l-0.036-0.792
		c0.66-0.24,1.271-0.444,1.943-0.444c1.223,0,1.751,1.007,1.523,2.075l-0.587,2.783c-0.12,0.587-0.168,1.187-0.096,1.739
		l-0.864,0.108l-0.06-0.803c-0.54,0.516-1.08,0.779-1.751,0.779c-1.224,0-1.703-0.959-1.463-2.099
		c0.264-1.235,1.247-2.315,2.542-2.315c0.48,0,0.899,0.144,1.271,0.312L104.553,24.612z M104.265,25.979
		c-0.348-0.168-0.731-0.312-1.163-0.312c-0.912,0-1.439,0.792-1.607,1.607c-0.132,0.6,0.036,1.295,0.731,1.295
		s1.235-0.588,1.727-1.104v-0.024L104.265,25.979z"/>
	<path fill="#FFFFFF" d="M111.429,29.325l-0.048-0.72c-0.636,0.48-0.972,0.72-1.715,0.72c-1.127,0-2.387-0.863-1.847-3.382
		c0.516-2.447,2.255-3.298,3.298-3.298c0.54,0,0.888,0.132,1.271,0.372l0.587-2.722h0.9l-1.403,6.608
		c-0.168,0.792-0.264,1.583-0.168,2.314L111.429,29.325z M112.196,23.928c-0.288-0.288-0.636-0.528-1.091-0.528
		c-0.959,0-2.027,0.804-2.399,2.579c-0.444,2.087,0.54,2.591,1.14,2.591c0.695,0,1.235-0.516,1.607-1.104L112.196,23.928z"/>
	<path fill="#FFFFFF" d="M117.753,31.652l0.576-2.698c-0.492,0.24-0.888,0.372-1.427,0.372c-1.043,0-2.435-0.852-1.919-3.298
		c0.54-2.519,2.171-3.382,3.298-3.382c0.743,0,0.983,0.24,1.415,0.72l0.348-0.744l0.84,0.108c-0.42,0.755-0.66,1.547-0.828,2.338
		l-1.403,6.584H117.753z M119.289,24.456c-0.192-0.576-0.432-1.056-1.14-1.056c-0.6,0-1.811,0.492-2.254,2.591
		c-0.36,1.667,0.251,2.579,1.307,2.579c0.456,0,0.912-0.24,1.319-0.528L119.289,24.456z"/>
	<path fill="#FFFFFF" d="M126.932,22.777h0.899l-0.659,3.106c-0.24,1.115-0.456,2.219-0.432,3.31h-0.852l0.06-1.235
		c-0.576,0.708-1.571,1.367-2.398,1.367c-1.14,0-1.415-0.971-1.175-2.087l0.947-4.461h0.899l-0.899,4.198
		c-0.132,0.6-0.335,1.595,0.456,1.595c0.887,0,2.123-0.996,2.59-3.167L126.932,22.777z"/>
	<path fill="#FFFFFF" d="M133.353,24.612c0.155-0.708-0.168-1.211-0.84-1.211c-0.563,0-1.151,0.264-1.715,0.48l-0.036-0.792
		c0.659-0.24,1.271-0.444,1.942-0.444c1.224,0,1.751,1.007,1.523,2.075l-0.588,2.783c-0.12,0.587-0.168,1.187-0.096,1.739
		l-0.863,0.108l-0.061-0.803c-0.539,0.516-1.079,0.779-1.751,0.779c-1.223,0-1.703-0.959-1.463-2.099
		c0.264-1.235,1.247-2.315,2.543-2.315c0.479,0,0.899,0.144,1.271,0.312L133.353,24.612z M133.064,25.979
		c-0.348-0.168-0.731-0.312-1.164-0.312c-0.911,0-1.438,0.792-1.606,1.607c-0.132,0.6,0.036,1.295,0.731,1.295
		s1.235-0.588,1.727-1.104v-0.024L133.064,25.979z"/>
	<path fill="#FFFFFF" d="M137.77,29.193h-0.899l0.779-3.682c0.229-1.055,0.324-1.931,0.336-2.734h0.876L138.801,24
		c0.648-0.755,1.319-1.355,2.279-1.355c1.199,0,1.235,1.175,1.031,2.147h-0.899c0.084-0.48,0.348-1.392-0.336-1.392
		c-0.659,0-2.099,0.983-2.543,3.119L137.77,29.193z"/>
	<path fill="#FFFFFF" d="M148.928,23.532h-2.291l-0.779,3.658c-0.132,0.624-0.275,1.379,0.54,1.379c0.684,0,1.223-0.564,1.595-1.127
		l0.815,0.216c-0.623,0.923-1.511,1.667-2.59,1.667c-1.044,0-1.596-0.503-1.188-2.422l0.707-3.371h-1.379l0.168-0.755h1.379
		l0.42-1.967h0.899l-0.42,1.967h2.291L148.928,23.532z"/>
	<path fill="#FFFFFF" d="M151.965,26.219c-0.335,1.763,0.336,2.351,1.319,2.351c0.708,0,1.487-0.324,2.147-0.684l0.216,0.803
		c-0.876,0.36-1.703,0.636-2.591,0.636c-1.895,0-2.303-1.631-1.955-3.298c0.36-1.679,1.499-3.382,3.418-3.382
		c2.135,0,1.943,2.387,1.812,3.082l-0.096,0.492H151.965z M155.491,25.463c0.192-1.055-0.191-2.063-1.199-2.063
		s-1.667,0.768-2.183,2.063H155.491z"/>
	<path fill="#FFFFFF" d="M159.369,29.193h-0.899l0.779-3.682c0.229-1.055,0.324-1.931,0.336-2.734h0.876L160.4,24
		c0.648-0.755,1.319-1.355,2.279-1.355c1.199,0,1.235,1.175,1.031,2.147h-0.899c0.084-0.48,0.348-1.392-0.336-1.392
		c-0.659,0-2.099,0.983-2.543,3.119L159.369,29.193z"/>
	<path fill="#FFFFFF" d="M170.036,24.12c-0.433-0.36-0.912-0.72-1.56-0.72c-0.54,0-1.127,0.396-1.26,0.972
		c-0.132,0.624,0.552,0.936,1.008,1.115c0.924,0.372,1.896,0.792,1.619,2.063c-0.228,1.055-1.331,1.775-2.327,1.775
		c-0.971,0-1.835-0.479-2.41-1.115l0.647-0.72c0.396,0.54,1.104,1.08,1.859,1.08c0.6,0,1.188-0.336,1.319-0.983
		c0.18-0.84-0.444-1.067-1.044-1.319c-0.839-0.348-1.799-0.78-1.559-1.931c0.203-0.936,1.223-1.691,2.338-1.691
		c0.804,0,1.38,0.288,1.919,0.744L170.036,24.12z"/>
	<path fill="#FFFFFF" d="M182.696,23.532h-1.823l0.168-0.755h2.723l-1.367,6.417h-0.899L182.696,23.532z M184.387,21.146
		c-0.096,0.432-0.503,0.755-0.923,0.755s-0.684-0.324-0.588-0.755c0.084-0.432,0.492-0.756,0.911-0.756
		C184.207,20.39,184.471,20.714,184.387,21.146z"/>
	<path fill="#FFFFFF" d="M187.617,29.193h-0.899l0.684-3.226c0.229-1.08,0.42-2.171,0.396-3.19h0.863l-0.048,1.175
		c0.611-0.755,1.559-1.307,2.458-1.307c1.02,0,1.344,0.936,1.115,2.027l-0.959,4.521h-0.899l0.899-4.258
		c0.132-0.611,0.336-1.535-0.456-1.535c-0.852,0-2.11,0.864-2.59,3.119L187.617,29.193z"/>
	<path fill="#FFFFFF" d="M206.73,20.558h0.995l-3.802,8.719h-1.235l-0.072-8.719h0.983v7.328h0.024L206.73,20.558z"/>
	<path fill="#FFFFFF" d="M211.496,23.532h-1.823l0.168-0.755h2.723l-1.367,6.417h-0.899L211.496,23.532z M213.187,21.146
		c-0.096,0.432-0.503,0.755-0.923,0.755s-0.684-0.324-0.588-0.755c0.084-0.432,0.491-0.756,0.911-0.756
		S213.271,20.714,213.187,21.146z"/>
	<path fill="#FFFFFF" d="M216.969,29.193h-0.899l0.779-3.682c0.229-1.055,0.324-1.931,0.336-2.734h0.876L218,24
		c0.648-0.755,1.319-1.355,2.279-1.355c1.199,0,1.235,1.175,1.031,2.147h-0.899c0.084-0.48,0.348-1.392-0.336-1.392
		c-0.659,0-2.099,0.983-2.543,3.119L216.969,29.193z"/>
	<path fill="#FFFFFF" d="M228.894,22.645c-0.384,0.779-0.6,1.583-0.779,2.398l-0.756,3.526c-0.432,2.003-2.015,2.579-2.938,2.579
		c-0.756,0-1.439-0.432-1.823-0.983l0.756-0.552c0.252,0.468,0.744,0.779,1.344,0.779c0.947,0,1.559-0.863,1.751-1.775l0.107-0.504
		c-0.563,0.324-1.007,0.54-1.643,0.54c-1.571,0-2.016-1.5-1.716-2.891c0.324-1.523,1.332-3.118,3.106-3.118
		c0.612,0,1.032,0.204,1.451,0.563l0.288-0.563H228.894z M227.395,24.192c-0.204-0.432-0.684-0.792-1.235-0.792
		c-1.188,0-1.835,1.271-2.039,2.255c-0.264,1.248,0.12,2.243,0.995,2.243c0.552,0,1.296-0.372,1.668-0.839L227.395,24.192z"/>
	<path fill="#FFFFFF" d="M233.096,23.532h-1.823l0.168-0.755h2.723l-1.367,6.417h-0.899L233.096,23.532z M234.786,21.146
		c-0.096,0.432-0.503,0.755-0.923,0.755s-0.684-0.324-0.588-0.755c0.084-0.432,0.491-0.756,0.911-0.756
		S234.87,20.714,234.786,21.146z"/>
	<path fill="#FFFFFF" d="M238.017,29.193h-0.899l0.684-3.226c0.229-1.08,0.42-2.171,0.396-3.19h0.863l-0.048,1.175
		c0.611-0.755,1.559-1.307,2.458-1.307c1.02,0,1.344,0.936,1.115,2.027l-0.959,4.521h-0.899l0.899-4.258
		c0.132-0.611,0.336-1.535-0.456-1.535c-0.852,0-2.11,0.864-2.59,3.119L238.017,29.193z"/>
	<path fill="#FFFFFF" d="M247.495,23.532h-1.823l0.168-0.755h2.723l-1.367,6.417h-0.899L247.495,23.532z M249.186,21.146
		c-0.096,0.432-0.503,0.755-0.923,0.755s-0.684-0.324-0.588-0.755c0.084-0.432,0.492-0.756,0.911-0.756
		C249.006,20.39,249.27,20.714,249.186,21.146z"/>
	<path fill="#FFFFFF" d="M255.751,24.612c0.155-0.708-0.168-1.211-0.84-1.211c-0.563,0-1.151,0.264-1.715,0.48l-0.036-0.792
		c0.659-0.24,1.271-0.444,1.942-0.444c1.224,0,1.751,1.007,1.523,2.075l-0.588,2.783c-0.12,0.587-0.168,1.187-0.096,1.739
		l-0.863,0.108l-0.061-0.803c-0.539,0.516-1.079,0.779-1.751,0.779c-1.223,0-1.703-0.959-1.463-2.099
		c0.264-1.235,1.247-2.315,2.543-2.315c0.479,0,0.899,0.144,1.271,0.312L255.751,24.612z M255.463,25.979
		c-0.348-0.168-0.731-0.312-1.164-0.312c-0.911,0-1.438,0.792-1.606,1.607c-0.132,0.6,0.036,1.295,0.731,1.295
		s1.235-0.588,1.727-1.104v-0.024L255.463,25.979z"/>
	<path fill="#FFFFFF" d="M260.061,29.721c0.3-0.06,0.587-0.18,0.839-0.384c-0.432-0.036-0.707-0.372-0.611-0.828
		c0.12-0.552,0.611-0.936,1.151-0.936c0.6,0,0.876,0.528,0.756,1.091c-0.216,1.007-1.392,1.667-2.315,1.871L260.061,29.721z"/>
	<path fill="#FFFFFF" d="M44.699,34.694h0.899L44.867,38.1c0.588-0.611,1.367-1.055,2.159-1.055c0.768,0,1.595,0.24,1.043,2.866
		l-0.779,3.683H46.39l0.803-3.754c0.12-0.588,0.432-2.039-0.384-2.039c-0.671,0-1.403,0.6-1.799,1.163
		c-0.504,0.72-0.636,1.438-0.804,2.243l-0.503,2.387h-0.9L44.699,34.694z"/>
	<path fill="#FFFFFF" d="M51.167,40.619c-0.336,1.763,0.336,2.351,1.319,2.351c0.708,0,1.487-0.323,2.146-0.684l0.216,0.804
		c-0.875,0.359-1.703,0.635-2.591,0.635c-1.895,0-2.303-1.631-1.955-3.298c0.36-1.679,1.5-3.382,3.418-3.382
		c2.135,0,1.943,2.387,1.811,3.082l-0.096,0.492H51.167z M54.693,39.863c0.192-1.055-0.192-2.062-1.199-2.062
		s-1.667,0.768-2.183,2.062H54.693z"/>
	<path fill="#FFFFFF" d="M61.354,39.012c0.156-0.707-0.168-1.211-0.839-1.211c-0.564,0-1.151,0.264-1.715,0.479l-0.036-0.792
		c0.66-0.24,1.271-0.443,1.943-0.443c1.223,0,1.751,1.008,1.523,2.074l-0.587,2.783c-0.12,0.588-0.168,1.188-0.096,1.738
		l-0.864,0.108l-0.06-0.804c-0.54,0.516-1.08,0.779-1.751,0.779c-1.224,0-1.703-0.959-1.463-2.098
		c0.264-1.236,1.247-2.315,2.542-2.315c0.48,0,0.899,0.144,1.271,0.312L61.354,39.012z M61.065,40.379
		c-0.348-0.168-0.731-0.312-1.163-0.312c-0.912,0-1.439,0.792-1.607,1.606c-0.132,0.6,0.036,1.296,0.731,1.296
		s1.235-0.588,1.727-1.104v-0.024L61.065,40.379z"/>
	<path fill="#FFFFFF" d="M65.771,43.594h-0.899l0.78-3.683c0.228-1.056,0.324-1.931,0.336-2.734h0.875l-0.06,1.224
		c0.647-0.756,1.319-1.355,2.279-1.355c1.199,0,1.235,1.176,1.031,2.146h-0.899c0.084-0.479,0.348-1.391-0.336-1.391
		c-0.66,0-2.099,0.982-2.542,3.118L65.771,43.594z"/>
	<path fill="#FFFFFF" d="M76.929,37.933h-2.291l-0.78,3.657c-0.132,0.624-0.276,1.38,0.54,1.38c0.684,0,1.224-0.563,1.595-1.128
		l0.815,0.217c-0.624,0.923-1.511,1.666-2.59,1.666c-1.043,0-1.595-0.503-1.188-2.422l0.708-3.37h-1.379l0.168-0.756h1.379
		l0.42-1.967h0.899l-0.419,1.967h2.291L76.929,37.933z"/>
	<path fill="#FFFFFF" d="M86.411,40.391c0.527-2.482,2.027-3.346,3.25-3.346c2.267,0,2.063,2.303,1.847,3.346
		c-0.528,2.482-2.027,3.334-3.262,3.334C87.13,43.725,85.859,42.981,86.411,40.391z M90.608,40.391c0.228-1.104,0.3-2.59-1.103-2.59
		c-1.403,0-1.967,1.486-2.195,2.59c-0.24,1.104-0.312,2.579,1.091,2.579S90.369,41.494,90.608,40.391z"/>
	<path fill="#FFFFFF" d="M99.788,36.146c-0.456-0.216-0.947-0.6-1.499-0.6c-0.792,0-1.248,0.491-1.427,1.319l-0.156,0.719h2.062
		l-0.156,0.756h-2.063l-1.115,5.254h-0.899l1.115-5.254h-1.595l0.156-0.756h1.595l0.132-0.611c0.324-1.523,1.499-2.183,2.446-2.183
		c0.588,0,1.116,0.204,1.595,0.444L99.788,36.146z"/>
	<path fill="#FFFFFF" d="M112.856,43.594h-0.972l-0.228-2.543h-2.626l-1.307,2.543h-0.972l5.038-9.355L112.856,43.594z
		 M109.402,40.295h2.195l-0.36-3.49L109.402,40.295z"/>
	<path fill="#FFFFFF" d="M115.139,39.168c0.18-0.876,0.192-1.451,0.192-2.123h0.899l0.012,0.576
		c0.456-0.336,0.839-0.576,1.379-0.576c0.587,0,0.719,0.145,0.971,0.588c0.444-0.336,0.828-0.6,1.355-0.6
		c0.863,0,1.295,0.563,1.115,1.427l-1.091,5.134h-0.899l1.091-5.134c0.096-0.432-0.084-0.671-0.444-0.671
		c-0.408,0-0.828,0.335-1.091,0.671l-1.091,5.134h-0.9l1.08-5.062c0.072-0.336,0.06-0.731-0.348-0.731
		c-0.432,0-0.948,0.383-1.2,0.779l-1.067,5.014h-0.899L115.139,39.168z"/>
	<path fill="#FFFFFF" d="M123.166,40.619c-0.336,1.763,0.336,2.351,1.319,2.351c0.708,0,1.487-0.323,2.146-0.684l0.216,0.804
		c-0.875,0.359-1.703,0.635-2.59,0.635c-1.895,0-2.303-1.631-1.955-3.298c0.36-1.679,1.5-3.382,3.418-3.382
		c2.135,0,1.942,2.387,1.811,3.082l-0.096,0.492H123.166z M126.692,39.863c0.191-1.055-0.192-2.062-1.2-2.062
		s-1.667,0.768-2.183,2.062H126.692z"/>
	<path fill="#FFFFFF" d="M130.569,43.594h-0.899l0.779-3.683c0.229-1.056,0.324-1.931,0.336-2.734h0.876l-0.061,1.224
		c0.648-0.756,1.319-1.355,2.279-1.355c1.199,0,1.235,1.176,1.031,2.146h-0.899c0.084-0.479,0.348-1.391-0.336-1.391
		c-0.659,0-2.099,0.982-2.543,3.118L130.569,43.594z"/>
	<path fill="#FFFFFF" d="M139.497,37.933h-1.823l0.168-0.756h2.723l-1.367,6.417h-0.899L139.497,37.933z M141.188,35.546
		c-0.096,0.432-0.503,0.755-0.923,0.755s-0.684-0.323-0.588-0.755c0.084-0.432,0.492-0.756,0.911-0.756
		C141.008,34.79,141.271,35.114,141.188,35.546z"/>
	<path fill="#FFFFFF" d="M148.652,42.55c-0.792,0.696-1.535,1.175-2.531,1.175c-1.188,0-2.614-0.73-2.074-3.273
		c0.539-2.566,2.171-3.406,3.454-3.406c1.055,0,1.679,0.576,2.062,1.428l-0.888,0.516c-0.191-0.648-0.54-1.188-1.331-1.188
		c-0.911,0-1.979,0.672-2.387,2.566c-0.42,2.003,0.479,2.603,1.308,2.603c0.707,0,1.379-0.54,1.919-1.056L148.652,42.55z"/>
	<path fill="#FFFFFF" d="M154.952,39.012c0.155-0.707-0.168-1.211-0.84-1.211c-0.563,0-1.151,0.264-1.715,0.479l-0.036-0.792
		c0.659-0.24,1.271-0.443,1.942-0.443c1.224,0,1.751,1.008,1.523,2.074l-0.588,2.783c-0.12,0.588-0.168,1.188-0.096,1.738
		l-0.863,0.108l-0.061-0.804c-0.539,0.516-1.079,0.779-1.751,0.779c-1.223,0-1.703-0.959-1.463-2.098
		c0.264-1.236,1.247-2.315,2.543-2.315c0.479,0,0.899,0.144,1.271,0.312L154.952,39.012z M154.664,40.379
		c-0.348-0.168-0.731-0.312-1.164-0.312c-0.911,0-1.438,0.792-1.606,1.606c-0.132,0.6,0.036,1.296,0.731,1.296
		s1.235-0.588,1.727-1.104v-0.024L154.664,40.379z"/>
	<path fill="#FFFFFF" d="M162.848,34.958l-0.336,1.56l-0.827,1.559h-0.648l-0.18-1.559l0.336-1.56H162.848z"/>
	<path fill="#FFFFFF" d="M170.036,38.52c-0.433-0.359-0.912-0.719-1.56-0.719c-0.54,0-1.127,0.396-1.26,0.971
		c-0.132,0.624,0.552,0.936,1.008,1.115c0.924,0.373,1.896,0.792,1.619,2.063c-0.228,1.056-1.331,1.774-2.327,1.774
		c-0.971,0-1.835-0.479-2.41-1.115l0.647-0.719c0.396,0.539,1.104,1.079,1.859,1.079c0.6,0,1.188-0.336,1.319-0.983
		c0.18-0.84-0.444-1.067-1.044-1.319c-0.839-0.349-1.799-0.78-1.559-1.931c0.203-0.936,1.223-1.691,2.338-1.691
		c0.804,0,1.38,0.287,1.919,0.744L170.036,38.52z"/>
	<path fill="#FFFFFF" d="M184.651,42.55c-0.792,0.696-1.535,1.175-2.531,1.175c-1.188,0-2.614-0.73-2.074-3.273
		c0.539-2.566,2.17-3.406,3.454-3.406c1.055,0,1.679,0.576,2.062,1.428l-0.888,0.516c-0.191-0.648-0.539-1.188-1.331-1.188
		c-0.911,0-1.979,0.672-2.387,2.566c-0.42,2.003,0.479,2.603,1.308,2.603c0.707,0,1.379-0.54,1.919-1.056L184.651,42.55z"/>
	<path fill="#FFFFFF" d="M193.051,37.177l-3.658,6.021c-0.563,0.924-1.439,2.352-2.614,2.352c-0.828,0-1.26-0.637-1.332-1.393
		l0.84-0.395c0.061,0.383,0.18,1.031,0.66,1.031c0.503,0,0.947-0.695,1.199-1.08l0.623-0.971l-0.875-5.565h0.972l0.623,4.366
		l2.603-4.366H193.051z"/>
	<path fill="#FFFFFF" d="M196.748,34.694l-0.576,2.71c0.504-0.239,0.911-0.359,1.439-0.359c1.031,0,2.435,0.84,1.919,3.286
		c-0.54,2.519-2.171,3.394-3.299,3.394c-0.743,0-0.983-0.252-1.415-0.73l-0.348,0.719l-0.827-0.107
		c0.42-0.756,0.647-1.571,0.815-2.387l1.392-6.524H196.748z M195.225,41.842c0.156,0.588,0.42,1.128,1.151,1.128
		c0.588,0,1.799-0.504,2.242-2.603c0.384-1.787-0.348-2.566-1.307-2.566c-0.444,0-0.912,0.228-1.331,0.516L195.225,41.842z"/>
	<path fill="#FFFFFF" d="M202.364,40.619c-0.335,1.763,0.336,2.351,1.319,2.351c0.708,0,1.487-0.323,2.147-0.684l0.216,0.804
		c-0.876,0.359-1.703,0.635-2.591,0.635c-1.895,0-2.303-1.631-1.955-3.298c0.36-1.679,1.499-3.382,3.418-3.382
		c2.135,0,1.943,2.387,1.812,3.082l-0.096,0.492H202.364z M205.891,39.863c0.192-1.055-0.191-2.062-1.199-2.062
		s-1.667,0.768-2.183,2.062H205.891z"/>
	<path fill="#FFFFFF" d="M209.769,43.594h-0.899l0.779-3.683c0.229-1.056,0.324-1.931,0.336-2.734h0.876L210.8,38.4
		c0.648-0.756,1.319-1.355,2.279-1.355c1.199,0,1.235,1.176,1.031,2.146h-0.899c0.084-0.479,0.348-1.391-0.336-1.391
		c-0.659,0-2.099,0.982-2.543,3.118L209.769,43.594z"/>
	<path fill="#FFFFFF" d="M219.428,43.725l-0.048-0.719c-0.636,0.479-0.972,0.719-1.715,0.719c-1.128,0-2.387-0.863-1.848-3.381
		c0.516-2.447,2.255-3.299,3.299-3.299c0.539,0,0.887,0.132,1.271,0.371l0.588-2.722h0.899l-1.403,6.608
		c-0.168,0.791-0.264,1.583-0.168,2.314L219.428,43.725z M220.195,38.328c-0.288-0.287-0.636-0.527-1.092-0.527
		c-0.959,0-2.026,0.803-2.398,2.578c-0.443,2.087,0.54,2.591,1.14,2.591c0.695,0,1.235-0.516,1.606-1.104L220.195,38.328z"/>
	<path fill="#FFFFFF" d="M223.964,40.619c-0.335,1.763,0.336,2.351,1.319,2.351c0.708,0,1.487-0.323,2.147-0.684l0.216,0.804
		c-0.876,0.359-1.703,0.635-2.591,0.635c-1.895,0-2.303-1.631-1.955-3.298c0.36-1.679,1.499-3.382,3.418-3.382
		c2.135,0,1.943,2.387,1.812,3.082l-0.096,0.492H223.964z M227.49,39.863c0.192-1.055-0.191-2.062-1.199-2.062
		s-1.667,0.768-2.183,2.062H227.49z"/>
	<path fill="#FFFFFF" d="M236.586,36.146c-0.456-0.216-0.948-0.6-1.5-0.6c-0.791,0-1.247,0.491-1.427,1.319l-0.156,0.719h2.063
		l-0.156,0.756h-2.062l-1.116,5.254h-0.899l1.116-5.254h-1.596l0.156-0.756h1.595l0.132-0.611c0.324-1.523,1.499-2.183,2.447-2.183
		c0.587,0,1.115,0.204,1.595,0.444L236.586,36.146z"/>
	<path fill="#FFFFFF" d="M238.364,40.619c-0.335,1.763,0.336,2.351,1.319,2.351c0.708,0,1.487-0.323,2.147-0.684l0.216,0.804
		c-0.876,0.359-1.703,0.635-2.591,0.635c-1.895,0-2.303-1.631-1.955-3.298c0.36-1.679,1.499-3.382,3.418-3.382
		c2.135,0,1.943,2.387,1.812,3.082l-0.096,0.492H238.364z M241.891,39.863c0.192-1.055-0.191-2.062-1.199-2.062
		s-1.667,0.768-2.183,2.062H241.891z"/>
	<path fill="#FFFFFF" d="M245.216,43.594h-0.899L245,40.367c0.229-1.08,0.42-2.171,0.396-3.19h0.863l-0.048,1.175
		c0.611-0.755,1.559-1.307,2.458-1.307c1.02,0,1.344,0.936,1.115,2.027l-0.959,4.521h-0.899l0.899-4.258
		c0.132-0.611,0.336-1.535-0.456-1.535c-0.852,0-2.11,0.863-2.59,3.118L245.216,43.594z"/>
	<path fill="#FFFFFF" d="M256.435,38.52c-0.433-0.359-0.912-0.719-1.56-0.719c-0.54,0-1.127,0.396-1.26,0.971
		c-0.132,0.624,0.552,0.936,1.008,1.115c0.924,0.373,1.896,0.792,1.619,2.063c-0.228,1.056-1.331,1.774-2.327,1.774
		c-0.971,0-1.835-0.479-2.41-1.115l0.647-0.719c0.396,0.539,1.104,1.079,1.859,1.079c0.6,0,1.188-0.336,1.319-0.983
		c0.18-0.84-0.444-1.067-1.044-1.319c-0.839-0.349-1.799-0.78-1.559-1.931c0.203-0.936,1.223-1.691,2.338-1.691
		c0.804,0,1.38,0.287,1.919,0.744L256.435,38.52z"/>
	<path fill="#FFFFFF" d="M259.964,40.619c-0.335,1.763,0.336,2.351,1.319,2.351c0.708,0,1.487-0.323,2.147-0.684l0.216,0.804
		c-0.876,0.359-1.703,0.635-2.591,0.635c-1.895,0-2.303-1.631-1.955-3.298c0.36-1.679,1.499-3.382,3.418-3.382
		c2.135,0,1.943,2.387,1.812,3.082l-0.096,0.492H259.964z M263.49,39.863c0.192-1.055-0.191-2.062-1.199-2.062
		s-1.667,0.768-2.183,2.062H263.49z"/>
</g>
</svg>
