<?xml version="1.0" encoding="utf-8"?>
<!-- Generator: Adobe Illustrator 16.0.0, SVG Export Plug-In . SVG Version: 6.00 Build 0)  -->
<!DOCTYPE svg PUBLIC "-//W3C//DTD SVG 1.1//EN" "http://www.w3.org/Graphics/SVG/1.1/DTD/svg11.dtd">
<svg version="1.1" id="Layer_1" xmlns="http://www.w3.org/2000/svg" xmlns:xlink="http://www.w3.org/1999/xlink" x="0px" y="0px"
	 width="330px" height="70px" viewBox="0 0 330 70" enable-background="new 0 0 330 70" xml:space="preserve">
<g>
	<path fill="#FFFFFF" d="M49.294,21.125h1.043l1.259,6.453h0.036L53,21.125h0.899l-1.847,8.719h-0.852l-1.355-6.968L49.821,22.9
		l-1.463,6.86h-0.899L49.294,21.125z"/>
	<path fill="#FFFFFF" d="M59.875,22.997c0.144-0.72-0.251-1.283-0.983-1.283c-1.823,0-2.471,2.47-2.758,3.802
		c-0.264,1.259-0.647,3.658,1.079,3.658c0.9,0,1.583-0.671,1.775-1.523h0.899c-0.384,1.403-1.427,2.279-2.866,2.279
		c-2.375,0-2.159-2.603-1.775-4.438c0.408-1.895,1.355-4.534,3.79-4.534c1.199,0,1.919,0.839,1.739,2.039H59.875z"/>
	<path fill="#FFFFFF" d="M67.076,22.997c0.144-0.72-0.251-1.283-0.983-1.283c-1.823,0-2.471,2.47-2.758,3.802
		c-0.264,1.259-0.647,3.658,1.079,3.658c0.9,0,1.583-0.671,1.775-1.523h0.899c-0.384,1.403-1.427,2.279-2.866,2.279
		c-2.375,0-2.159-2.603-1.775-4.438c0.408-1.895,1.355-4.534,3.79-4.534c1.199,0,1.919,0.839,1.739,2.039H67.076z"/>
	<path fill="#FFFFFF" d="M74.575,21.881H73.4l-1.523,7.125h1.175l-0.156,0.755h-3.238l0.156-0.755h1.164l1.523-7.125h-1.163
		l0.156-0.755h3.238L74.575,21.881z"/>
	<path fill="#FFFFFF" d="M81.475,22.997c0.144-0.72-0.251-1.283-0.983-1.283c-1.823,0-2.471,2.47-2.758,3.802
		c-0.264,1.259-0.647,3.658,1.079,3.658c0.9,0,1.583-0.671,1.775-1.523h0.899c-0.384,1.403-1.427,2.279-2.866,2.279
		c-2.375,0-2.159-2.603-1.775-4.438c0.408-1.895,1.355-4.534,3.79-4.534c1.199,0,1.919,0.839,1.739,2.039H81.475z"/>
	<path fill="#FFFFFF" d="M92.589,20.862h0.899l-0.731,3.406c0.588-0.611,1.367-1.055,2.159-1.055c0.768,0,1.595,0.24,1.043,2.866
		l-0.779,3.682H94.28l0.803-3.754c0.12-0.588,0.432-2.039-0.384-2.039c-0.671,0-1.403,0.6-1.799,1.164
		c-0.504,0.72-0.636,1.439-0.804,2.243l-0.503,2.387h-0.9L92.589,20.862z"/>
	<path fill="#FFFFFF" d="M99.058,26.786c-0.336,1.763,0.336,2.351,1.319,2.351c0.708,0,1.487-0.324,2.146-0.684l0.216,0.803
		c-0.875,0.36-1.703,0.636-2.591,0.636c-1.895,0-2.303-1.631-1.955-3.298c0.36-1.679,1.5-3.382,3.418-3.382
		c2.135,0,1.943,2.387,1.811,3.082l-0.096,0.492H99.058z M102.583,26.031c0.192-1.055-0.192-2.063-1.199-2.063
		s-1.667,0.768-2.183,2.063H102.583z"/>
	<path fill="#FFFFFF" d="M109.244,25.179c0.156-0.708-0.168-1.211-0.839-1.211c-0.564,0-1.151,0.264-1.715,0.48l-0.036-0.792
		c0.659-0.24,1.271-0.444,1.943-0.444c1.223,0,1.751,1.007,1.523,2.075l-0.588,2.783c-0.12,0.587-0.167,1.187-0.096,1.739
		l-0.863,0.108l-0.06-0.803c-0.54,0.516-1.08,0.779-1.751,0.779c-1.224,0-1.703-0.959-1.463-2.099
		c0.264-1.235,1.247-2.315,2.542-2.315c0.48,0,0.899,0.144,1.271,0.312L109.244,25.179z M108.956,26.546
		c-0.348-0.168-0.732-0.312-1.164-0.312c-0.912,0-1.439,0.792-1.607,1.607c-0.132,0.6,0.036,1.295,0.731,1.295
		c0.695,0,1.235-0.588,1.727-1.104V28.01L108.956,26.546z"/>
	<path fill="#FFFFFF" d="M116.12,29.893l-0.048-0.72c-0.636,0.48-0.972,0.72-1.715,0.72c-1.127,0-2.387-0.863-1.847-3.382
		c0.516-2.447,2.254-3.298,3.298-3.298c0.54,0,0.888,0.132,1.271,0.372l0.587-2.722h0.9l-1.403,6.608
		c-0.168,0.792-0.264,1.583-0.168,2.314L116.12,29.893z M116.887,24.496c-0.288-0.288-0.636-0.528-1.091-0.528
		c-0.959,0-2.027,0.804-2.399,2.579c-0.444,2.087,0.54,2.591,1.14,2.591c0.695,0,1.235-0.516,1.607-1.104L116.887,24.496z"/>
	<path fill="#FFFFFF" d="M122.444,32.219l0.576-2.698c-0.492,0.24-0.888,0.372-1.427,0.372c-1.043,0-2.435-0.852-1.919-3.298
		c0.54-2.519,2.171-3.382,3.298-3.382c0.744,0,0.984,0.24,1.416,0.72l0.348-0.744l0.84,0.108c-0.42,0.755-0.66,1.547-0.828,2.338
		l-1.403,6.584H122.444z M123.979,25.023c-0.192-0.576-0.432-1.056-1.14-1.056c-0.6,0-1.811,0.492-2.254,2.591
		c-0.36,1.667,0.251,2.579,1.307,2.579c0.456,0,0.912-0.24,1.319-0.528L123.979,25.023z"/>
	<path fill="#FFFFFF" d="M131.623,23.344h0.899l-0.66,3.106c-0.24,1.115-0.456,2.219-0.432,3.31h-0.852l0.06-1.235
		c-0.576,0.708-1.571,1.367-2.398,1.367c-1.139,0-1.415-0.971-1.175-2.087l0.947-4.461h0.899l-0.899,4.198
		c-0.132,0.6-0.336,1.595,0.456,1.595c0.887,0,2.123-0.996,2.59-3.167L131.623,23.344z"/>
	<path fill="#FFFFFF" d="M138.043,25.179c0.156-0.708-0.168-1.211-0.839-1.211c-0.564,0-1.151,0.264-1.715,0.48l-0.036-0.792
		c0.659-0.24,1.271-0.444,1.943-0.444c1.223,0,1.751,1.007,1.523,2.075l-0.588,2.783c-0.12,0.587-0.167,1.187-0.096,1.739
		l-0.863,0.108l-0.06-0.803c-0.54,0.516-1.08,0.779-1.751,0.779c-1.224,0-1.703-0.959-1.463-2.099
		c0.264-1.235,1.247-2.315,2.542-2.315c0.48,0,0.899,0.144,1.271,0.312L138.043,25.179z M137.756,26.546
		c-0.348-0.168-0.732-0.312-1.164-0.312c-0.912,0-1.439,0.792-1.607,1.607c-0.132,0.6,0.036,1.295,0.731,1.295
		c0.695,0,1.235-0.588,1.727-1.104V28.01L137.756,26.546z"/>
	<path fill="#FFFFFF" d="M142.461,29.761h-0.9l0.78-3.682c0.228-1.055,0.324-1.931,0.336-2.734h0.875l-0.06,1.223
		c0.647-0.755,1.319-1.355,2.279-1.355c1.199,0,1.235,1.175,1.031,2.147h-0.899c0.084-0.48,0.348-1.392-0.336-1.392
		c-0.66,0-2.099,0.983-2.542,3.119L142.461,29.761z"/>
	<path fill="#FFFFFF" d="M153.618,24.1h-2.291l-0.78,3.658c-0.132,0.624-0.276,1.379,0.54,1.379c0.684,0,1.224-0.564,1.595-1.127
		l0.815,0.216c-0.624,0.923-1.511,1.667-2.59,1.667c-1.043,0-1.595-0.503-1.188-2.422l0.708-3.371h-1.379l0.168-0.755h1.379
		l0.42-1.967h0.899l-0.419,1.967h2.291L153.618,24.1z"/>
	<path fill="#FFFFFF" d="M156.656,26.786c-0.335,1.763,0.336,2.351,1.319,2.351c0.708,0,1.487-0.324,2.147-0.684l0.216,0.803
		c-0.876,0.36-1.703,0.636-2.591,0.636c-1.895,0-2.303-1.631-1.955-3.298c0.36-1.679,1.499-3.382,3.418-3.382
		c2.135,0,1.943,2.387,1.812,3.082l-0.096,0.492H156.656z M160.183,26.031c0.192-1.055-0.191-2.063-1.199-2.063
		s-1.667,0.768-2.183,2.063H160.183z"/>
	<path fill="#FFFFFF" d="M164.06,29.761h-0.899l0.779-3.682c0.229-1.055,0.324-1.931,0.336-2.734h0.876l-0.061,1.223
		c0.648-0.755,1.319-1.355,2.279-1.355c1.199,0,1.235,1.175,1.031,2.147h-0.899c0.084-0.48,0.348-1.392-0.336-1.392
		c-0.659,0-2.099,0.983-2.543,3.119L164.06,29.761z"/>
	<path fill="#FFFFFF" d="M174.727,24.688c-0.433-0.36-0.912-0.72-1.56-0.72c-0.54,0-1.127,0.396-1.26,0.972
		c-0.132,0.624,0.552,0.936,1.008,1.115c0.924,0.372,1.896,0.792,1.619,2.063c-0.228,1.055-1.331,1.775-2.327,1.775
		c-0.971,0-1.835-0.479-2.41-1.115l0.647-0.72c0.396,0.54,1.104,1.08,1.859,1.08c0.6,0,1.188-0.336,1.319-0.983
		c0.18-0.84-0.444-1.067-1.044-1.319c-0.839-0.348-1.799-0.78-1.559-1.931c0.203-0.936,1.223-1.691,2.338-1.691
		c0.804,0,1.38,0.288,1.919,0.744L174.727,24.688z"/>
	<path fill="#FFFFFF" d="M187.388,24.1h-1.823l0.168-0.755h2.723l-1.367,6.417h-0.899L187.388,24.1z M189.078,21.713
		c-0.096,0.432-0.503,0.755-0.923,0.755s-0.684-0.324-0.588-0.755c0.084-0.432,0.491-0.756,0.911-0.756
		S189.162,21.281,189.078,21.713z"/>
	<path fill="#FFFFFF" d="M192.308,29.761h-0.899l0.684-3.226c0.229-1.08,0.42-2.171,0.396-3.19h0.863l-0.048,1.175
		c0.611-0.755,1.559-1.307,2.458-1.307c1.02,0,1.344,0.936,1.115,2.027l-0.959,4.521h-0.899l0.899-4.258
		c0.132-0.611,0.336-1.535-0.456-1.535c-0.852,0-2.11,0.864-2.59,3.119L192.308,29.761z"/>
	<path fill="#FFFFFF" d="M211.422,21.125h0.995l-3.802,8.719h-1.235l-0.072-8.719h0.983v7.328h0.024L211.422,21.125z"/>
	<path fill="#FFFFFF" d="M216.187,24.1h-1.823l0.168-0.755h2.723l-1.367,6.417h-0.899L216.187,24.1z M217.877,21.713
		c-0.096,0.432-0.503,0.755-0.923,0.755s-0.684-0.324-0.588-0.755c0.084-0.432,0.491-0.756,0.911-0.756
		S217.961,21.281,217.877,21.713z"/>
	<path fill="#FFFFFF" d="M221.659,29.761h-0.899l0.779-3.682c0.229-1.055,0.324-1.931,0.336-2.734h0.876l-0.061,1.223
		c0.648-0.755,1.319-1.355,2.279-1.355c1.199,0,1.235,1.175,1.031,2.147h-0.899c0.084-0.48,0.348-1.392-0.336-1.392
		c-0.659,0-2.099,0.983-2.543,3.119L221.659,29.761z"/>
	<path fill="#FFFFFF" d="M233.585,23.212c-0.384,0.779-0.6,1.583-0.779,2.398l-0.756,3.526c-0.432,2.003-2.015,2.579-2.938,2.579
		c-0.756,0-1.439-0.432-1.823-0.983l0.756-0.552c0.252,0.468,0.744,0.779,1.344,0.779c0.947,0,1.559-0.863,1.751-1.775l0.107-0.504
		c-0.563,0.324-1.007,0.54-1.643,0.54c-1.571,0-2.016-1.5-1.716-2.891c0.324-1.523,1.332-3.118,3.106-3.118
		c0.612,0,1.031,0.204,1.451,0.563l0.288-0.563H233.585z M232.086,24.759c-0.204-0.432-0.684-0.792-1.235-0.792
		c-1.188,0-1.835,1.271-2.039,2.255c-0.264,1.248,0.12,2.243,0.995,2.243c0.552,0,1.296-0.372,1.668-0.839L232.086,24.759z"/>
	<path fill="#FFFFFF" d="M237.786,24.1h-1.823l0.168-0.755h2.723l-1.367,6.417h-0.899L237.786,24.1z M239.477,21.713
		c-0.096,0.432-0.503,0.755-0.923,0.755s-0.684-0.324-0.588-0.755c0.084-0.432,0.491-0.756,0.911-0.756
		S239.561,21.281,239.477,21.713z"/>
	<path fill="#FFFFFF" d="M242.707,29.761h-0.899l0.684-3.226c0.229-1.08,0.42-2.171,0.396-3.19h0.863l-0.048,1.175
		c0.611-0.755,1.559-1.307,2.458-1.307c1.02,0,1.344,0.936,1.115,2.027l-0.959,4.521h-0.899l0.899-4.258
		c0.132-0.611,0.336-1.535-0.456-1.535c-0.852,0-2.11,0.864-2.59,3.119L242.707,29.761z"/>
	<path fill="#FFFFFF" d="M252.187,24.1h-1.823l0.168-0.755h2.723l-1.367,6.417h-0.899L252.187,24.1z M253.877,21.713
		c-0.096,0.432-0.503,0.755-0.923,0.755s-0.684-0.324-0.588-0.755c0.084-0.432,0.491-0.756,0.911-0.756
		S253.961,21.281,253.877,21.713z"/>
	<path fill="#FFFFFF" d="M260.441,25.179c0.155-0.708-0.168-1.211-0.84-1.211c-0.563,0-1.151,0.264-1.715,0.48l-0.036-0.792
		c0.659-0.24,1.271-0.444,1.942-0.444c1.224,0,1.751,1.007,1.523,2.075l-0.588,2.783c-0.12,0.587-0.168,1.187-0.096,1.739
		l-0.863,0.108l-0.061-0.803c-0.539,0.516-1.079,0.779-1.751,0.779c-1.223,0-1.703-0.959-1.463-2.099
		c0.264-1.235,1.247-2.315,2.543-2.315c0.479,0,0.899,0.144,1.271,0.312L260.441,25.179z M260.153,26.546
		c-0.348-0.168-0.731-0.312-1.164-0.312c-0.911,0-1.438,0.792-1.606,1.607c-0.132,0.6,0.036,1.295,0.731,1.295
		s1.235-0.588,1.727-1.104V28.01L260.153,26.546z"/>
	<path fill="#FFFFFF" d="M264.751,30.289c0.3-0.06,0.587-0.18,0.839-0.384c-0.432-0.036-0.707-0.372-0.611-0.828
		c0.12-0.552,0.611-0.936,1.151-0.936c0.6,0,0.876,0.528,0.756,1.091c-0.216,1.007-1.392,1.667-2.315,1.871L264.751,30.289z"/>
	<path fill="#FFFFFF" d="M49.39,38.862h0.899l-0.731,3.405c0.588-0.611,1.367-1.055,2.159-1.055c0.768,0,1.595,0.239,1.043,2.866
		l-0.779,3.682h-0.899l0.803-3.754c0.12-0.588,0.432-2.039-0.384-2.039c-0.671,0-1.403,0.6-1.799,1.164
		c-0.504,0.72-0.636,1.438-0.804,2.242l-0.503,2.387h-0.9L49.39,38.862z"/>
	<path fill="#FFFFFF" d="M55.858,44.786c-0.336,1.764,0.336,2.351,1.319,2.351c0.708,0,1.487-0.323,2.147-0.684l0.216,0.804
		c-0.875,0.36-1.703,0.636-2.591,0.636c-1.895,0-2.303-1.631-1.955-3.298c0.36-1.679,1.5-3.382,3.418-3.382
		c2.135,0,1.943,2.387,1.811,3.082l-0.096,0.491H55.858z M59.384,44.031c0.192-1.056-0.192-2.063-1.199-2.063
		s-1.667,0.768-2.183,2.063H59.384z"/>
	<path fill="#FFFFFF" d="M66.044,43.18c0.156-0.708-0.168-1.212-0.839-1.212c-0.564,0-1.151,0.265-1.715,0.48l-0.036-0.792
		c0.659-0.24,1.271-0.443,1.943-0.443c1.223,0,1.751,1.007,1.523,2.074l-0.588,2.782c-0.12,0.588-0.167,1.188-0.096,1.739
		l-0.863,0.108l-0.06-0.804c-0.54,0.516-1.08,0.779-1.751,0.779c-1.224,0-1.703-0.959-1.463-2.099
		c0.264-1.235,1.247-2.314,2.542-2.314c0.48,0,0.899,0.144,1.271,0.312L66.044,43.18z M65.757,44.547
		c-0.348-0.168-0.732-0.312-1.164-0.312c-0.912,0-1.439,0.791-1.607,1.606c-0.132,0.6,0.036,1.295,0.731,1.295
		c0.695,0,1.235-0.587,1.727-1.104V46.01L65.757,44.547z"/>
	<path fill="#FFFFFF" d="M70.462,47.761h-0.9l0.78-3.682c0.228-1.056,0.324-1.931,0.336-2.734h0.875l-0.06,1.223
		c0.647-0.755,1.319-1.354,2.279-1.354c1.199,0,1.235,1.175,1.031,2.146h-0.899c0.084-0.479,0.348-1.392-0.336-1.392
		c-0.66,0-2.099,0.983-2.542,3.119L70.462,47.761z"/>
	<path fill="#FFFFFF" d="M81.619,42.1h-2.291l-0.78,3.658c-0.132,0.624-0.276,1.379,0.54,1.379c0.684,0,1.224-0.563,1.595-1.127
		l0.815,0.216c-0.624,0.924-1.511,1.667-2.59,1.667c-1.043,0-1.595-0.504-1.188-2.422l0.708-3.371H77.05l0.168-0.755h1.379
		l0.42-1.967h0.899l-0.419,1.967h2.291L81.619,42.1z"/>
	<path fill="#FFFFFF" d="M91.102,44.559c0.528-2.482,2.027-3.346,3.25-3.346c2.267,0,2.063,2.303,1.847,3.346
		c-0.528,2.482-2.027,3.334-3.262,3.334C91.821,47.893,90.55,47.149,91.102,44.559z M95.299,44.559
		c0.228-1.104,0.3-2.591-1.103-2.591c-1.403,0-1.967,1.487-2.195,2.591c-0.24,1.104-0.312,2.578,1.091,2.578
		S95.06,45.662,95.299,44.559z"/>
	<path fill="#FFFFFF" d="M104.479,40.313c-0.456-0.216-0.947-0.6-1.499-0.6c-0.792,0-1.248,0.491-1.427,1.318l-0.156,0.72h2.062
		l-0.156,0.756h-2.063l-1.115,5.253h-0.899l1.115-5.253h-1.595l0.156-0.756h1.595l0.132-0.611c0.324-1.523,1.499-2.183,2.446-2.183
		c0.588,0,1.116,0.204,1.595,0.443L104.479,40.313z"/>
	<path fill="#FFFFFF" d="M117.547,47.761h-0.972l-0.228-2.542h-2.627l-1.307,2.542h-0.972l5.038-9.354L117.547,47.761z
		 M114.093,44.463h2.195l-0.36-3.49L114.093,44.463z"/>
	<path fill="#FFFFFF" d="M119.83,43.335c0.18-0.875,0.192-1.451,0.192-2.122h0.899l0.012,0.575c0.456-0.336,0.839-0.575,1.379-0.575
		c0.587,0,0.719,0.144,0.971,0.587c0.444-0.335,0.828-0.6,1.355-0.6c0.863,0,1.295,0.564,1.115,1.428l-1.091,5.133h-0.899
		l1.091-5.133c0.096-0.432-0.084-0.672-0.444-0.672c-0.408,0-0.828,0.336-1.091,0.672l-1.091,5.133h-0.9l1.08-5.061
		c0.072-0.336,0.06-0.732-0.348-0.732c-0.432,0-0.948,0.384-1.199,0.78l-1.068,5.013h-0.899L119.83,43.335z"/>
	<path fill="#FFFFFF" d="M127.857,44.786c-0.336,1.764,0.336,2.351,1.319,2.351c0.708,0,1.487-0.323,2.147-0.684l0.216,0.804
		c-0.875,0.36-1.703,0.636-2.591,0.636c-1.895,0-2.303-1.631-1.955-3.298c0.36-1.679,1.5-3.382,3.418-3.382
		c2.135,0,1.943,2.387,1.811,3.082l-0.096,0.491H127.857z M131.383,44.031c0.192-1.056-0.192-2.063-1.199-2.063
		s-1.667,0.768-2.183,2.063H131.383z"/>
	<path fill="#FFFFFF" d="M135.261,47.761h-0.899l0.78-3.682c0.228-1.056,0.324-1.931,0.336-2.734h0.875l-0.06,1.223
		c0.647-0.755,1.319-1.354,2.279-1.354c1.199,0,1.235,1.175,1.031,2.146h-0.899c0.084-0.479,0.348-1.392-0.336-1.392
		c-0.66,0-2.099,0.983-2.542,3.119L135.261,47.761z"/>
	<path fill="#FFFFFF" d="M144.188,42.1h-1.823l0.168-0.755h2.723l-1.368,6.416h-0.899L144.188,42.1z M145.879,39.714
		c-0.096,0.432-0.504,0.755-0.924,0.755c-0.419,0-0.684-0.323-0.587-0.755c0.084-0.433,0.492-0.756,0.912-0.756
		C145.699,38.958,145.963,39.281,145.879,39.714z"/>
	<path fill="#FFFFFF" d="M153.342,46.718c-0.792,0.695-1.535,1.175-2.531,1.175c-1.187,0-2.614-0.731-2.075-3.273
		c0.54-2.567,2.171-3.406,3.454-3.406c1.056,0,1.679,0.575,2.063,1.427l-0.888,0.516c-0.192-0.647-0.54-1.188-1.331-1.188
		c-0.912,0-1.979,0.672-2.387,2.567c-0.42,2.002,0.479,2.602,1.307,2.602c0.708,0,1.379-0.539,1.919-1.055L153.342,46.718z"/>
	<path fill="#FFFFFF" d="M159.643,43.18c0.156-0.708-0.167-1.212-0.839-1.212c-0.563,0-1.151,0.265-1.715,0.48l-0.036-0.792
		c0.659-0.24,1.271-0.443,1.942-0.443c1.224,0,1.751,1.007,1.523,2.074l-0.588,2.782c-0.12,0.588-0.168,1.188-0.096,1.739
		l-0.863,0.108l-0.061-0.804c-0.539,0.516-1.079,0.779-1.751,0.779c-1.223,0-1.703-0.959-1.463-2.099
		c0.264-1.235,1.247-2.314,2.543-2.314c0.479,0,0.899,0.144,1.271,0.312L159.643,43.18z M159.355,44.547
		c-0.348-0.168-0.731-0.312-1.164-0.312c-0.911,0-1.438,0.791-1.606,1.606c-0.132,0.6,0.036,1.295,0.731,1.295
		s1.235-0.587,1.727-1.104V46.01L159.355,44.547z"/>
	<path fill="#FFFFFF" d="M167.538,39.126l-0.336,1.559l-0.827,1.56h-0.648l-0.18-1.56l0.336-1.559H167.538z"/>
	<path fill="#FFFFFF" d="M174.727,42.688c-0.433-0.359-0.912-0.72-1.56-0.72c-0.54,0-1.127,0.396-1.26,0.972
		c-0.132,0.624,0.552,0.936,1.008,1.115c0.924,0.372,1.896,0.792,1.619,2.062c-0.228,1.056-1.331,1.775-2.327,1.775
		c-0.971,0-1.835-0.479-2.41-1.115l0.647-0.72c0.396,0.54,1.104,1.079,1.859,1.079c0.6,0,1.188-0.336,1.319-0.983
		c0.18-0.839-0.444-1.066-1.044-1.318c-0.839-0.349-1.799-0.78-1.559-1.932c0.203-0.936,1.223-1.69,2.338-1.69
		c0.804,0,1.38,0.287,1.919,0.743L174.727,42.688z"/>
	<path fill="#FFFFFF" d="M189.343,46.718c-0.792,0.695-1.535,1.175-2.531,1.175c-1.188,0-2.614-0.731-2.074-3.273
		c0.539-2.567,2.171-3.406,3.454-3.406c1.055,0,1.679,0.575,2.062,1.427l-0.888,0.516c-0.191-0.647-0.54-1.188-1.331-1.188
		c-0.911,0-1.979,0.672-2.387,2.567c-0.42,2.002,0.479,2.602,1.308,2.602c0.707,0,1.379-0.539,1.919-1.055L189.343,46.718z"/>
	<path fill="#FFFFFF" d="M197.741,41.345l-3.658,6.021c-0.563,0.923-1.439,2.351-2.614,2.351c-0.828,0-1.26-0.636-1.332-1.392
		l0.84-0.396c0.061,0.384,0.18,1.031,0.66,1.031c0.503,0,0.947-0.695,1.199-1.079l0.623-0.972l-0.875-5.564h0.972l0.623,4.365
		l2.603-4.365H197.741z"/>
	<path fill="#FFFFFF" d="M201.439,38.862l-0.576,2.71c0.504-0.24,0.911-0.359,1.439-0.359c1.031,0,2.435,0.839,1.919,3.286
		c-0.54,2.519-2.171,3.394-3.298,3.394c-0.744,0-0.984-0.252-1.416-0.731l-0.348,0.72l-0.827-0.108
		c0.42-0.755,0.647-1.571,0.815-2.386l1.391-6.524H201.439z M199.916,46.01c0.156,0.588,0.42,1.127,1.151,1.127
		c0.588,0,1.799-0.503,2.242-2.602c0.384-1.787-0.348-2.567-1.307-2.567c-0.444,0-0.912,0.229-1.331,0.516L199.916,46.01z"/>
	<path fill="#FFFFFF" d="M207.056,44.786c-0.335,1.764,0.336,2.351,1.319,2.351c0.708,0,1.487-0.323,2.147-0.684l0.216,0.804
		c-0.876,0.36-1.703,0.636-2.591,0.636c-1.895,0-2.303-1.631-1.955-3.298c0.36-1.679,1.499-3.382,3.418-3.382
		c2.135,0,1.943,2.387,1.812,3.082l-0.096,0.491H207.056z M210.582,44.031c0.192-1.056-0.191-2.063-1.199-2.063
		s-1.667,0.768-2.183,2.063H210.582z"/>
	<path fill="#FFFFFF" d="M214.459,47.761h-0.899l0.779-3.682c0.229-1.056,0.324-1.931,0.336-2.734h0.876l-0.061,1.223
		c0.648-0.755,1.319-1.354,2.279-1.354c1.199,0,1.235,1.175,1.031,2.146h-0.899c0.084-0.479,0.348-1.392-0.336-1.392
		c-0.659,0-2.099,0.983-2.543,3.119L214.459,47.761z"/>
	<path fill="#FFFFFF" d="M224.118,47.893l-0.048-0.72c-0.636,0.479-0.972,0.72-1.715,0.72c-1.128,0-2.387-0.863-1.848-3.382
		c0.516-2.446,2.255-3.298,3.299-3.298c0.539,0,0.887,0.132,1.271,0.371l0.588-2.722h0.899l-1.403,6.608
		c-0.168,0.791-0.264,1.582-0.168,2.314L224.118,47.893z M224.886,42.496c-0.288-0.288-0.636-0.528-1.092-0.528
		c-0.959,0-2.026,0.804-2.398,2.579c-0.443,2.087,0.54,2.59,1.14,2.59c0.695,0,1.235-0.516,1.606-1.104L224.886,42.496z"/>
	<path fill="#FFFFFF" d="M228.655,44.786c-0.335,1.764,0.336,2.351,1.319,2.351c0.708,0,1.487-0.323,2.147-0.684l0.216,0.804
		c-0.876,0.36-1.703,0.636-2.591,0.636c-1.895,0-2.303-1.631-1.955-3.298c0.36-1.679,1.499-3.382,3.418-3.382
		c2.135,0,1.943,2.387,1.812,3.082l-0.096,0.491H228.655z M232.182,44.031c0.192-1.056-0.191-2.063-1.199-2.063
		s-1.667,0.768-2.183,2.063H232.182z"/>
	<path fill="#FFFFFF" d="M241.276,40.313c-0.456-0.216-0.948-0.6-1.5-0.6c-0.791,0-1.247,0.491-1.427,1.318l-0.156,0.72h2.063
		l-0.156,0.756h-2.062l-1.116,5.253h-0.899l1.116-5.253h-1.596l0.156-0.756h1.595l0.132-0.611c0.324-1.523,1.499-2.183,2.447-2.183
		c0.587,0,1.115,0.204,1.595,0.443L241.276,40.313z"/>
	<path fill="#FFFFFF" d="M243.055,44.786c-0.335,1.764,0.336,2.351,1.319,2.351c0.708,0,1.487-0.323,2.147-0.684l0.216,0.804
		c-0.876,0.36-1.703,0.636-2.591,0.636c-1.895,0-2.303-1.631-1.955-3.298c0.36-1.679,1.499-3.382,3.418-3.382
		c2.135,0,1.943,2.387,1.812,3.082l-0.096,0.491H243.055z M246.581,44.031c0.192-1.056-0.191-2.063-1.199-2.063
		s-1.667,0.768-2.183,2.063H246.581z"/>
	<path fill="#FFFFFF" d="M249.907,47.761h-0.899l0.684-3.226c0.229-1.08,0.42-2.171,0.396-3.19h0.863l-0.048,1.175
		c0.611-0.755,1.559-1.307,2.458-1.307c1.02,0,1.344,0.936,1.115,2.026l-0.959,4.521h-0.899l0.899-4.258
		c0.132-0.611,0.336-1.535-0.456-1.535c-0.852,0-2.11,0.864-2.59,3.119L249.907,47.761z"/>
	<path fill="#FFFFFF" d="M261.125,42.688c-0.433-0.359-0.912-0.72-1.56-0.72c-0.54,0-1.127,0.396-1.26,0.972
		c-0.132,0.624,0.552,0.936,1.008,1.115c0.924,0.372,1.896,0.792,1.619,2.062c-0.228,1.056-1.331,1.775-2.327,1.775
		c-0.971,0-1.835-0.479-2.41-1.115l0.647-0.72c0.396,0.54,1.104,1.079,1.859,1.079c0.6,0,1.188-0.336,1.319-0.983
		c0.18-0.839-0.444-1.066-1.044-1.318c-0.839-0.349-1.799-0.78-1.559-1.932c0.203-0.936,1.223-1.69,2.338-1.69
		c0.804,0,1.38,0.287,1.919,0.743L261.125,42.688z"/>
	<path fill="#FFFFFF" d="M264.654,44.786c-0.335,1.764,0.336,2.351,1.319,2.351c0.708,0,1.487-0.323,2.147-0.684l0.216,0.804
		c-0.876,0.36-1.703,0.636-2.591,0.636c-1.895,0-2.303-1.631-1.955-3.298c0.36-1.679,1.499-3.382,3.418-3.382
		c2.135,0,1.943,2.387,1.812,3.082l-0.096,0.491H264.654z M268.181,44.031c0.192-1.056-0.191-2.063-1.199-2.063
		s-1.667,0.768-2.183,2.063H268.181z"/>
</g>
</svg>
