<?xml version="1.0" standalone="no"?><!-- Generator: Adobe Fireworks CS6, Export SVG Extension by Aaron Beall (http://fireworks.abeall.com) . Version: 0.6.1  --><!DOCTYPE svg PUBLIC "-//W3C//DTD SVG 1.1//EN" "http://www.w3.org/Graphics/SVG/1.1/DTD/svg11.dtd"><svg id="Untitled-Page%201" viewBox="0 0 727 384" style="background-color:#ffffff00" version="1.1"	xmlns="http://www.w3.org/2000/svg" xmlns:xlink="http://www.w3.org/1999/xlink" xml:space="preserve"	x="0px" y="0px" width="727px" height="384px">	<g id="Layer%201">		<g id="title-m">			<path d="M 110.026 28.008 L 88.705 28.008 L 88.705 96.339 L 80.905 96.339 L 80.905 28.008 L 60 28.008 L 60 21.456 L 110.026 21.456 L 110.026 28.008 L 110.026 28.008 L 110.026 28.008 Z" fill="#000000"/>			<path d="M 128.874 54.217 L 154.875 54.217 L 154.875 21.456 L 162.675 21.456 L 162.675 96.339 L 154.875 96.339 L 154.875 60.77 L 128.874 60.77 L 128.874 96.339 L 121.074 96.339 L 121.074 21.456 L 128.874 21.456 L 128.874 54.217 L 128.874 54.217 L 128.874 54.217 Z" fill="#000000"/>			<path d="M 225.945 28.008 L 194.848 28.008 L 194.848 54.633 L 217.209 54.633 L 217.209 61.185 L 194.848 61.185 L 194.848 89.786 L 226.673 89.786 L 226.673 96.338 L 187.047 96.338 L 187.047 21.456 L 225.944 21.456 L 225.945 28.008 L 225.945 28.008 L 225.945 28.008 L 225.945 28.008 Z" fill="#000000"/>			<path d="M 327.513 66.451 L 327.513 59.899 L 352.993 59.899 L 352.993 98.796 L 345.192 98.796 L 345.192 91.516 C 341.344 96.196 335.624 98.796 329.488 98.796 C 323.456 98.796 306.919 97.756 306.919 61.563 C 306.919 31.922 315.968 21.001 330.528 21.001 C 343.217 21.001 349.145 29.945 349.352 41.594 L 341.552 41.594 C 342.176 34.73 338.848 27.553 330.944 27.553 C 315.344 27.553 314.719 49.29 314.719 60.418 C 314.719 70.818 315.239 92.243 329.904 92.243 C 337.184 92.243 345.192 86.419 345.192 71.442 L 345.192 66.45 L 327.513 66.45 L 327.513 66.451 L 327.513 66.451 L 327.513 66.451 Z" fill="#000000"/>			<path d="M 412.7 33.013 L 381.603 33.013 L 381.603 59.638 L 403.963 59.638 L 403.963 66.19 L 381.603 66.19 L 381.603 94.791 L 413.428 94.791 L 413.428 101.343 L 373.803 101.343 L 373.803 26.461 L 412.7 26.461 L 412.7 33.013 L 412.7 33.013 L 412.7 33.013 Z" fill="#000000"/>			<path d="M 475.62 33.013 L 444.522 33.013 L 444.522 59.638 L 466.883 59.638 L 466.883 66.19 L 444.522 66.19 L 444.522 94.791 L 476.347 94.791 L 476.347 101.343 L 436.721 101.343 L 436.721 26.461 L 475.619 26.461 L 475.62 33.013 L 475.62 33.013 L 475.62 33.013 L 475.62 33.013 Z" fill="#000000"/>			<path d="M 506.401 59.43 C 511.809 58.806 524.602 45.805 531.881 25.525 L 539.578 29.581 L 533.441 39.877 C 523.56 56.414 518.464 60.574 513.68 63.59 L 546.025 101.343 L 535.625 101.343 L 507.024 66.086 L 506.4 66.086 L 506.4 101.343 L 498.599 101.343 L 498.599 26.461 L 506.4 26.461 L 506.4 59.43 L 506.401 59.43 L 506.401 59.43 L 506.401 59.43 Z" fill="#000000"/>			<path d="M 594.633 39.981 C 590.057 35.925 584.856 31.557 578.408 31.557 C 571.752 31.557 566.344 36.133 566.344 42.998 C 566.344 46.95 567.071 50.486 577.16 56.623 L 583.088 60.263 C 596.817 68.687 600.561 72.64 600.561 81.376 C 600.561 94.792 591.617 102.801 578.512 102.801 C 568.84 102.801 561.663 98.121 555.839 90.633 L 561.871 85.849 C 565.512 91.673 571.336 96.249 578.512 96.249 C 586.313 96.249 592.76 90.425 592.76 82.416 C 592.76 76.384 592.344 74.304 579.136 66.399 L 572.375 62.343 C 564.991 57.975 558.543 52.879 558.543 43.518 C 558.543 31.765 567.487 25.005 578.72 25.005 C 586.52 25.005 593.697 29.165 599.313 34.365 L 594.633 39.981 L 594.633 39.981 L 594.633 39.981 Z" fill="#000000"/>			<path d="M 719.633 268.981 C 715.057 264.925 709.856 260.557 703.408 260.557 C 696.752 260.557 691.344 265.133 691.344 271.998 C 691.344 275.95 692.071 279.486 702.16 285.623 L 708.088 289.263 C 721.817 297.687 725.561 301.64 725.561 310.376 C 725.561 323.792 716.617 331.801 703.512 331.801 C 693.84 331.801 686.663 327.121 680.839 319.633 L 686.871 314.849 C 690.512 320.673 696.336 325.249 703.512 325.249 C 711.313 325.249 717.76 319.425 717.76 311.416 C 717.76 305.384 717.344 303.304 704.136 295.399 L 697.375 291.343 C 689.991 286.975 683.543 281.879 683.543 272.518 C 683.543 260.765 692.487 254.005 703.72 254.005 C 711.52 254.005 718.697 258.165 724.313 263.365 L 719.633 268.981 L 719.633 268.981 L 719.633 268.981 Z" fill="#000000"/>			<path d="M 79.956 139.795 C 101.797 139.795 102.941 164.756 102.941 178.692 C 102.941 188.676 103.669 217.589 79.956 217.589 C 56.867 217.589 56.971 189.3 56.971 178.692 C 56.971 147.387 67.372 139.795 79.956 139.795 L 79.956 139.795 L 79.956 139.795 ZM 95.141 178.692 C 95.141 171.828 96.181 146.347 79.956 146.347 C 63.315 146.347 64.771 174.324 64.771 178.692 C 64.771 187.22 64.355 211.037 79.956 211.037 C 87.756 211.037 95.141 205.838 95.141 178.692 L 95.141 178.692 L 95.141 178.692 Z" fill="#000000"/>			<path d="M 123.634 141.251 L 132.682 141.251 L 155.459 197.205 L 155.771 197.205 L 155.771 141.251 L 163.571 141.251 L 163.571 216.861 L 156.187 216.861 L 131.642 156.435 L 131.434 156.643 L 131.434 216.133 L 123.634 216.133 L 123.634 141.251 L 123.634 141.251 L 123.634 141.251 L 123.634 141.251 Z" fill="#000000"/>			<path d="M 290.775 147.803 L 269.454 147.803 L 269.454 216.134 L 261.654 216.134 L 261.654 147.803 L 240.749 147.803 L 240.749 141.251 L 290.775 141.251 L 290.775 147.803 L 290.775 147.803 L 290.775 147.803 Z" fill="#000000"/>			<path d="M 315.629 174.012 L 341.629 174.012 L 341.629 141.251 L 349.43 141.251 L 349.43 216.134 L 341.629 216.134 L 341.629 180.565 L 315.629 180.565 L 315.629 216.134 L 307.828 216.134 L 307.828 141.251 L 315.629 141.251 L 315.629 174.012 L 315.629 174.012 L 315.629 174.012 Z" fill="#000000"/>			<path d="M 413.701 147.803 L 382.604 147.803 L 382.604 174.428 L 404.964 174.428 L 404.964 180.981 L 382.604 180.981 L 382.604 209.583 L 414.429 209.583 L 414.429 216.135 L 374.804 216.135 L 374.804 141.252 L 413.701 141.252 L 413.701 147.803 L 413.701 147.803 L 413.701 147.803 L 413.701 147.803 Z" fill="#000000"/>			<path d="M 97.704 260.592 L 65.359 260.592 L 65.359 286.592 L 89.592 286.592 L 89.592 293.145 L 65.359 293.145 L 65.359 328.922 L 57.559 328.922 L 57.559 254.039 L 97.705 254.039 L 97.704 260.592 L 97.704 260.592 L 97.704 260.592 L 97.704 260.592 Z" fill="#000000"/>			<path d="M 118.294 254.039 L 137.743 254.039 C 156.464 254.039 158.128 270.888 158.128 275.256 C 158.128 282.952 155.216 290.025 144.816 295.953 L 164.993 328.922 L 155.529 328.922 L 137.328 297.721 C 133.584 297.824 129.84 297.824 126.095 297.929 L 126.095 328.922 L 118.295 328.922 L 118.294 254.039 L 118.294 254.039 L 118.294 254.039 L 118.294 254.039 ZM 133.478 291.272 C 144.086 291.272 150.327 285.864 150.327 274.839 C 150.327 264.855 146.167 260.591 133.79 260.591 L 126.094 260.591 L 126.094 291.272 L 133.478 291.272 L 133.478 291.272 L 133.478 291.272 Z" fill="#000000"/>			<path d="M 198.789 252.583 C 220.63 252.583 221.774 277.544 221.774 291.481 C 221.774 301.465 222.502 330.378 198.789 330.378 C 175.7 330.378 175.804 302.089 175.804 291.481 C 175.804 260.176 186.205 252.583 198.789 252.583 L 198.789 252.583 L 198.789 252.583 ZM 213.974 291.48 C 213.974 284.616 215.014 259.134 198.789 259.134 C 182.148 259.134 183.604 287.112 183.604 291.48 C 183.604 300.008 183.188 323.826 198.789 323.826 C 206.589 323.826 213.974 318.625 213.974 291.48 L 213.974 291.48 L 213.974 291.48 Z" fill="#000000"/>			<path d="M 242.468 254.039 L 251.516 254.039 L 274.293 309.993 L 274.605 309.993 L 274.605 254.039 L 282.405 254.039 L 282.405 329.65 L 275.021 329.65 L 250.476 269.223 L 250.268 269.431 L 250.268 328.921 L 242.468 328.921 L 242.468 254.039 L 242.468 254.039 L 242.468 254.039 Z" fill="#000000"/>			<path d="M 349.691 260.592 L 328.371 260.592 L 328.371 328.922 L 320.57 328.922 L 320.57 260.592 L 299.666 260.592 L 299.666 254.039 L 349.691 254.039 L 349.691 260.592 L 349.691 260.592 L 349.691 260.592 Z" fill="#000000"/>			<path d="M 442.267 322.369 L 474.716 322.369 L 474.716 328.922 L 434.467 328.922 L 434.467 254.039 L 442.267 254.039 L 442.267 322.369 L 442.267 322.369 L 442.267 322.369 Z" fill="#000000"/>			<path d="M 526.506 260.592 L 516.315 260.592 L 516.315 322.369 L 526.506 322.369 L 526.506 328.922 L 498.426 328.922 L 498.426 322.369 L 508.514 322.369 L 508.514 260.592 L 498.426 260.592 L 498.426 254.039 L 526.506 254.039 L 526.506 260.592 L 526.506 260.592 L 526.506 260.592 Z" fill="#000000"/>			<path d="M 556.145 254.039 L 565.193 254.039 L 587.969 309.993 L 588.281 309.993 L 588.281 254.039 L 596.082 254.039 L 596.082 329.65 L 588.697 329.65 L 564.152 269.223 L 563.944 269.431 L 563.944 328.921 L 556.144 328.921 L 556.145 254.039 L 556.145 254.039 L 556.145 254.039 L 556.145 254.039 Z" fill="#000000"/>			<path d="M 660.457 260.592 L 629.359 260.592 L 629.359 287.217 L 651.72 287.217 L 651.72 293.769 L 629.359 293.769 L 629.359 322.37 L 661.184 322.37 L 661.184 328.923 L 621.558 328.923 L 621.558 254.04 L 660.456 254.04 L 660.457 260.592 L 660.457 260.592 L 660.457 260.592 L 660.457 260.592 Z" fill="#000000"/>			<rect x="3" y="-54.5" width="442" height="11" fill="#ff2600"/>		</g>	</g></svg>