<?xml version="1.0" encoding="utf-8"?>
<!-- Generator: Adobe Illustrator 16.0.0, SVG Export Plug-In . SVG Version: 6.00 Build 0)  -->
<!DOCTYPE svg PUBLIC "-//W3C//DTD SVG 1.1//EN" "http://www.w3.org/Graphics/SVG/1.1/DTD/svg11.dtd">
<svg version="1.1" id="Layer_1" xmlns="http://www.w3.org/2000/svg" xmlns:xlink="http://www.w3.org/1999/xlink" x="0px" y="0px"
	 width="229.408px" height="87.054px" viewBox="134.921 73.81 229.408 87.054"
	 enable-background="new 134.921 73.81 229.408 87.054" xml:space="preserve">
<g>
	<path fill="#FF1E00" d="M156.329,85.783h0.036l3.223-11.578h0.99l-3.781,13.09h-1.134l-0.522-6.518l-3.241,6.518h-1.134
		l1.765-13.09h0.99l-1.71,11.578h0.036l3.763-7.202L156.329,85.783z"/>
	<path fill="#FF1E00" d="M168.371,86.503c-1.207,0.486-2.359,0.864-3.583,0.864c-2.791,0-3.295-2.503-2.773-4.916
		c0.504-2.413,2.125-5.006,4.934-5.006c1.603,0,3.241,1.152,2.413,5.096h-6.518c-0.558,3.349,0.666,4.105,2.125,4.105
		c1.081,0,2.197-0.396,3.205-0.937L168.371,86.503z M168.659,81.822c0.432-1.638-0.108-3.655-1.981-3.655
		c-1.854,0-3.385,1.98-3.691,3.655H168.659z"/>
	<path fill="#FF1E00" d="M190.079,83.82c-0.252,1.17-0.414,2.323-0.306,3.439l-0.81,0.108l-0.018-1.567
		c-0.72,0.991-1.747,1.567-2.863,1.567c-1.603,0-3.421-1.314-2.629-5.024c0.81-3.817,3.475-4.897,4.79-4.897
		c0.846,0,1.621,0.288,2.161,0.811l0.954-4.447h0.846L190.079,83.82z M190.223,79.103c-0.486-0.522-1.134-0.936-1.927-0.936
		c-1.08,0-3.259,0.738-4.015,4.231c-0.702,3.295,0.882,4.25,1.963,4.25c1.206,0,2.179-0.882,2.791-1.909L190.223,79.103z"/>
	<path fill="#FF1E00" d="M194.559,82.398c0.792-3.709,2.971-4.952,4.699-4.952c1.584,0,3.421,1.062,2.593,4.952
		c-0.81,3.871-3.097,4.97-4.699,4.97S193.73,86.287,194.559,82.398z M201.004,82.398c0.396-1.854,0.432-4.231-1.909-4.231
		c-2.323,0-3.295,2.376-3.691,4.231c-0.396,1.873-0.432,4.25,1.891,4.25C199.636,86.647,200.608,84.252,201.004,82.398z"/>
	<path fill="#FF1E00" d="M205.484,87.169h-0.846l1.008-4.771c0.342-1.621,0.648-3.241,0.666-4.861h0.792l-0.252,2.737h0.036
		c0.667-1.422,2.485-2.827,3.998-2.827c1.729,0,1.89,1.495,1.584,2.935l-1.44,6.788h-0.846l1.351-6.392
		c0.234-1.098,0.558-2.61-0.918-2.61c-1.368,0-3.529,1.368-4.303,5.077L205.484,87.169z"/>
	<path fill="#FF1E00" d="M219.777,77.249c0.594-0.162,1.278-0.504,1.638-1.062c-0.144,0.018-0.252,0.054-0.36,0.054
		c-0.667,0-1.008-0.45-0.864-1.116c0.144-0.685,0.792-1.17,1.44-1.17c0.792,0,1.116,0.738,0.954,1.476
		c-0.27,1.297-1.764,2.251-2.971,2.575L219.777,77.249z"/>
	<path fill="#FF1E00" d="M234.052,78.365h-3.493l-1.387,6.5c-0.198,0.918-0.036,1.783,1.135,1.783c1.062,0,1.98-0.792,2.575-1.693
		l0.774,0.198c-0.864,1.224-2.106,2.215-3.529,2.215c-1.225,0-2.215-0.594-1.692-3.007l1.278-5.996h-2.143l0.144-0.72h2.143
		l0.666-3.061h0.846l-0.666,3.061h3.493L234.052,78.365z"/>
	<path fill="#FF1E00" d="M249.548,87.169h-0.846l1.404-6.59l0.306-3.043h0.81l-0.252,2.665l0.036,0.036
		c0.864-1.314,2.179-2.791,3.817-2.791c1.584,0,1.657,1.585,1.387,2.881h-0.846c0.162-0.882,0.378-2.16-0.774-2.16
		c-0.972,0-3.439,1.512-4.213,5.131L249.548,87.169z"/>
	<path fill="#FF1E00" d="M265.568,86.503c-1.205,0.486-2.357,0.864-3.582,0.864c-2.792,0-3.295-2.503-2.773-4.916
		c0.504-2.413,2.125-5.006,4.934-5.006c1.604,0,3.24,1.152,2.412,5.096h-6.518c-0.558,3.349,0.666,4.105,2.125,4.105
		c1.08,0,2.197-0.396,3.205-0.937L265.568,86.503z M265.857,81.822c0.432-1.638-0.107-3.655-1.98-3.655
		c-1.855,0-3.385,1.98-3.691,3.655H265.857z"/>
	<path fill="#FF1E00" d="M274.118,90.986l0.937-4.429c-0.773,0.522-1.674,0.811-2.521,0.811c-1.296,0-3.528-1.081-2.72-4.897
		c0.812-3.745,3.17-5.024,4.771-5.024c1.117,0,1.909,0.576,2.18,1.567h0.035l0.666-1.567l0.775,0.108
		c-0.596,1.116-0.9,2.269-1.152,3.421l-2.125,10.011L274.118,90.986L274.118,90.986z M276.441,80.075
		c-0.271-1.026-0.738-1.908-2-1.908c-1.08,0-3.062,0.954-3.762,4.249c-0.738,3.475,1.133,4.231,2.215,4.231
		c0.791,0,1.619-0.414,2.34-0.937L276.441,80.075z"/>
	<path fill="#FF1E00" d="M287.871,77.645h0.846l-0.99,4.699c-0.342,1.621-0.629,3.241-0.647,4.826h-0.791l0.215-2.701h-0.035
		c-0.665,1.422-2.483,2.899-3.979,2.899c-1.729,0-1.892-1.567-1.585-3.007l1.423-6.716h0.847l-1.332,6.32
		c-0.379,1.801-0.127,2.683,0.9,2.683c1.404,0,3.564-1.549,4.32-5.15L287.871,77.645z"/>
	<path fill="#FF1E00" d="M295.934,78.365h-2.771l0.145-0.72h3.618l-2.016,9.525h-0.847L295.934,78.365z M298.021,74.89
		c-0.107,0.522-0.629,0.937-1.151,0.937s-0.847-0.414-0.737-0.937c0.107-0.522,0.611-0.936,1.135-0.936
		C297.79,73.954,298.131,74.368,298.021,74.89z"/>
	<path fill="#FF1E00" d="M303.547,87.169h-0.846l1.404-6.59l0.306-3.043h0.81l-0.252,2.665l0.037,0.036
		c0.863-1.314,2.178-2.791,3.816-2.791c1.584,0,1.655,1.585,1.387,2.881h-0.846c0.162-0.882,0.377-2.16-0.775-2.16
		c-0.972,0-3.438,1.512-4.213,5.131L303.547,87.169z"/>
	<path fill="#FF1E00" d="M319.568,86.503c-1.207,0.486-2.359,0.864-3.583,0.864c-2.791,0-3.296-2.503-2.772-4.916
		c0.504-2.413,2.124-5.006,4.934-5.006c1.603,0,3.24,1.152,2.412,5.096h-6.518c-0.559,3.349,0.666,4.105,2.124,4.105
		c1.081,0,2.196-0.396,3.205-0.937L319.568,86.503z M319.856,81.822c0.433-1.638-0.108-3.655-1.981-3.655
		c-1.854,0-3.385,1.98-3.69,3.655H319.856z"/>
	<path fill="#FF1E00" d="M334.956,82.398c0.792-3.709,2.971-4.952,4.699-4.952c1.585,0,3.421,1.062,2.593,4.952
		c-0.812,3.871-3.097,4.97-4.699,4.97C335.947,87.368,334.128,86.287,334.956,82.398z M341.402,82.398
		c0.396-1.854,0.432-4.231-1.909-4.231c-2.323,0-3.295,2.376-3.69,4.231c-0.396,1.873-0.433,4.25,1.892,4.25
		C340.033,86.647,341.006,84.252,341.402,82.398z"/>
	<path fill="#FF1E00" d="M352.67,77.645h0.846l-0.989,4.699c-0.343,1.621-0.63,3.241-0.648,4.826h-0.791l0.215-2.701h-0.035
		c-0.666,1.422-2.483,2.899-3.979,2.899c-1.729,0-1.891-1.567-1.585-3.007l1.423-6.716h0.847l-1.332,6.32
		c-0.379,1.801-0.127,2.683,0.9,2.683c1.404,0,3.564-1.549,4.32-5.15L352.67,77.645z"/>
	<path fill="#FF1E00" d="M357.546,87.169h-0.847l1.403-6.59l0.308-3.043h0.811l-0.252,2.665l0.035,0.036
		c0.865-1.314,2.18-2.791,3.817-2.791c1.585,0,1.656,1.585,1.387,2.881h-0.847c0.162-0.882,0.379-2.16-0.773-2.16
		c-0.973,0-3.438,1.512-4.214,5.131L357.546,87.169z"/>
	<path fill="#FF1E00" d="M160.416,99.448c-0.828-0.396-1.278-0.774-2.071-0.774c-1.242,0-2.143,0.666-2.413,1.944l-0.36,1.675h3.151
		l-0.162,0.72h-3.151l-1.729,8.156h-0.846l1.729-8.156h-2.449l0.162-0.72h2.448l0.234-1.081c0.54-2.467,2.088-3.259,3.439-3.259
		c0.792,0,1.566,0.288,2.215,0.594L160.416,99.448z"/>
	<path fill="#FF1E00" d="M162.159,106.398c0.792-3.709,2.971-4.952,4.699-4.952c1.584,0,3.421,1.062,2.593,4.952
		c-0.81,3.871-3.097,4.97-4.699,4.97S161.331,110.287,162.159,106.398z M168.605,106.398c0.396-1.854,0.432-4.231-1.909-4.231
		c-2.323,0-3.295,2.376-3.691,4.231c-0.396,1.873-0.432,4.25,1.891,4.25C167.237,110.647,168.209,108.252,168.605,106.398z"/>
	<path fill="#FF1E00" d="M177.82,98.53h-2.809l0.162-0.72h3.655l-2.845,13.36h-0.846L177.82,98.53z"/>
	<path fill="#FF1E00" d="M191.663,101.645c-2.088,2.017-2.953,2.917-4.717,4.339l3.511,5.186h-1.134l-2.989-4.699l-1.08,0.882
		l-0.811,3.817h-0.846l2.845-13.36h0.846l-1.818,8.534c1.783-1.404,3.565-2.971,5.096-4.699H191.663z"/>
	<path fill="#FF1E00" d="M201.094,103.157c-0.648-0.541-1.404-0.99-2.358-0.99c-0.954,0-2.035,0.72-2.251,1.729
		c-0.234,1.116,0.9,1.638,1.693,1.962c1.333,0.558,2.737,1.134,2.34,2.989c-0.324,1.584-1.926,2.521-3.385,2.521
		c-1.188,0-2.575-0.738-3.259-1.531l0.612-0.684c0.612,0.774,1.71,1.495,2.827,1.495c1.062,0,2.106-0.594,2.358-1.747
		c0.306-1.422-0.72-1.836-1.747-2.269c-1.206-0.504-2.628-1.116-2.269-2.809c0.288-1.351,1.873-2.377,3.295-2.377
		c1.099,0,1.909,0.378,2.647,1.009L201.094,103.157z"/>
	<path fill="#FF1E00" d="M223.252,102.365h-3.493l-1.387,6.5c-0.198,0.918-0.036,1.783,1.135,1.783c1.062,0,1.98-0.792,2.575-1.693
		l0.774,0.198c-0.864,1.224-2.106,2.215-3.529,2.215c-1.225,0-2.215-0.594-1.692-3.007l1.278-5.996h-2.143l0.144-0.72h2.143
		l0.666-3.061h0.846l-0.666,3.061h3.493L223.252,102.365z"/>
	<path fill="#FF1E00" d="M226.958,106.398c0.792-3.709,2.971-4.952,4.699-4.952c1.584,0,3.421,1.062,2.593,4.952
		c-0.81,3.871-3.097,4.97-4.699,4.97C227.949,111.368,226.13,110.287,226.958,106.398z M233.404,106.398
		c0.396-1.854,0.432-4.231-1.909-4.231c-2.323,0-3.295,2.376-3.691,4.231c-0.396,1.873-0.432,4.25,1.891,4.25
		C232.036,110.647,233.008,108.252,233.404,106.398z"/>
	<path fill="#FF1E00" d="M248.576,101.645h0.936l-0.432,8.229h0.036l2.917-5.78h0.918l0.432,5.78h0.036l3.061-8.229h0.918
		l-3.727,9.651h-0.918l-0.504-6.158l-3.097,6.158h-0.918L248.576,101.645z"/>
	<path fill="#FF1E00" d="M265.568,110.503c-1.205,0.486-2.357,0.864-3.582,0.864c-2.792,0-3.295-2.503-2.773-4.916
		c0.504-2.413,2.125-5.006,4.934-5.006c1.604,0,3.24,1.152,2.412,5.096h-6.518c-0.558,3.349,0.666,4.105,2.125,4.105
		c1.08,0,2.197-0.396,3.205-0.937L265.568,110.503z M265.857,105.822c0.432-1.638-0.107-3.655-1.98-3.655
		c-1.855,0-3.385,1.98-3.691,3.655H265.857z"/>
	<path fill="#FF1E00" d="M274.838,111.368c-0.07-0.522-0.09-1.081-0.018-1.621c-0.863,0.954-1.711,1.621-2.953,1.621
		c-1.746,0-2.358-1.422-2.016-3.025c0.396-1.819,1.746-3.385,3.582-3.385c0.774,0,1.604,0.306,2.196,0.63
		c0.56-2.413,0.343-3.421-1.226-3.421c-0.827,0-1.584,0.288-2.411,0.63l-0.037-0.774c0.899-0.324,1.767-0.576,2.666-0.576
		c1.746,0,2.521,1.225,2.017,3.349c-0.307,1.296-0.611,2.593-0.937,3.889c-0.218,0.918-0.162,1.783-0.072,2.575L274.838,111.368z
		 M275.434,106.254c-0.522-0.306-1.188-0.576-1.944-0.576c-1.585,0-2.503,1.333-2.791,2.737c-0.234,1.062,0.106,2.233,1.313,2.233
		c1.188,0,2.106-0.955,2.898-1.927L275.434,106.254z"/>
	<path fill="#FF1E00" d="M281.947,111.169h-0.846l1.403-6.59l0.306-3.043h0.811l-0.252,2.665l0.037,0.036
		c0.863-1.314,2.178-2.791,3.816-2.791c1.584,0,1.655,1.585,1.387,2.881h-0.847c0.162-0.882,0.378-2.16-0.774-2.16
		c-0.973,0-3.438,1.512-4.213,5.131L281.947,111.169z"/>
	<path fill="#FF1E00" d="M307.238,111.368c-0.072-0.522-0.09-1.081-0.019-1.621c-0.864,0.954-1.711,1.621-2.952,1.621
		c-1.748,0-2.359-1.422-2.019-3.025c0.396-1.819,1.747-3.385,3.584-3.385c0.773,0,1.602,0.306,2.196,0.63
		c0.558-2.413,0.343-3.421-1.226-3.421c-0.827,0-1.585,0.288-2.413,0.63l-0.035-0.774c0.9-0.324,1.765-0.576,2.664-0.576
		c1.747,0,2.521,1.225,2.019,3.349c-0.307,1.296-0.613,2.593-0.938,3.889c-0.215,0.918-0.161,1.783-0.07,2.575L307.238,111.368z
		 M307.832,106.254c-0.521-0.306-1.188-0.576-1.943-0.576c-1.586,0-2.504,1.333-2.791,2.737c-0.233,1.062,0.107,2.233,1.313,2.233
		c1.188,0,2.105-0.955,2.898-1.927L307.832,106.254z"/>
	<path fill="#FF1E00" d="M330.674,109.765c-1.098,0.954-2.143,1.603-3.492,1.603c-1.676,0-3.764-1.044-2.953-4.862
		c0.828-3.853,3.205-5.06,4.987-5.06c1.44,0,2.341,0.756,2.862,1.927l-0.863,0.504c-0.289-0.991-0.99-1.71-2.161-1.71
		c-1.188,0-3.205,0.738-3.942,4.195c-0.702,3.277,0.811,4.286,2.195,4.286c1.045,0,2.107-0.72,2.918-1.495L330.674,109.765z"/>
	<path fill="#FF1E00" d="M334.956,106.398c0.792-3.709,2.971-4.952,4.699-4.952c1.585,0,3.421,1.062,2.593,4.952
		c-0.812,3.871-3.097,4.97-4.699,4.97C335.947,111.368,334.128,110.287,334.956,106.398z M341.402,106.398
		c0.396-1.854,0.432-4.231-1.909-4.231c-2.323,0-3.295,2.376-3.69,4.231c-0.396,1.873-0.433,4.25,1.892,4.25
		C340.033,110.647,341.006,108.252,341.402,106.398z"/>
	<path fill="#FF1E00" d="M350.438,111.368c-0.071-0.522-0.09-1.081-0.018-1.621c-0.865,0.954-1.711,1.621-2.953,1.621
		c-1.747,0-2.358-1.422-2.018-3.025c0.396-1.819,1.747-3.385,3.584-3.385c0.772,0,1.602,0.306,2.195,0.63
		c0.559-2.413,0.344-3.421-1.225-3.421c-0.828,0-1.585,0.288-2.413,0.63l-0.035-0.774c0.9-0.324,1.765-0.576,2.664-0.576
		c1.747,0,2.521,1.225,2.019,3.349c-0.308,1.296-0.613,2.593-0.938,3.889c-0.215,0.918-0.162,1.783-0.071,2.575L350.438,111.368z
		 M351.031,106.254c-0.521-0.306-1.188-0.576-1.944-0.576c-1.585,0-2.503,1.333-2.791,2.737c-0.232,1.062,0.108,2.233,1.314,2.233
		c1.188,0,2.105-0.955,2.898-1.927L351.031,106.254z"/>
	<path fill="#FF1E00" d="M363.65,102.365h-3.494l-1.388,6.5c-0.196,0.918-0.034,1.783,1.136,1.783c1.062,0,1.979-0.792,2.575-1.693
		l0.773,0.198c-0.865,1.224-2.106,2.215-3.529,2.215c-1.225,0-2.215-0.594-1.691-3.007l1.278-5.996h-2.144l0.146-0.72h2.143
		l0.666-3.061h0.846l-0.666,3.061h3.493L363.65,102.365z"/>
	<path fill="#FF1E00" d="M156.041,135.367c-0.072-0.521-0.09-1.08-0.018-1.62c-0.864,0.954-1.711,1.62-2.953,1.62
		c-1.747,0-2.359-1.422-2.017-3.024c0.396-1.819,1.747-3.386,3.583-3.386c0.774,0,1.603,0.307,2.197,0.631
		c0.558-2.413,0.342-3.421-1.225-3.421c-0.828,0-1.584,0.288-2.413,0.63l-0.036-0.773c0.9-0.323,1.765-0.576,2.665-0.576
		c1.747,0,2.521,1.225,2.017,3.349c-0.306,1.297-0.612,2.595-0.937,3.89c-0.216,0.92-0.162,1.782-0.072,2.575L156.041,135.367z
		 M156.635,130.254c-0.522-0.307-1.188-0.576-1.944-0.576c-1.584,0-2.503,1.332-2.791,2.736c-0.234,1.062,0.108,2.232,1.314,2.232
		c1.188,0,2.106-0.953,2.899-1.927L156.635,130.254z"/>
	<path fill="#FF1E00" d="M162.285,135.17h-0.846l1.008-4.771c0.342-1.621,0.648-3.24,0.666-4.86h0.792l-0.252,2.735h0.036
		c0.667-1.422,2.485-2.826,3.998-2.826c1.729,0,1.89,1.494,1.584,2.935l-1.44,6.789h-0.846l1.351-6.394
		c0.234-1.098,0.558-2.609-0.918-2.609c-1.368,0-3.529,1.368-4.303,5.077L162.285,135.17z"/>
	<path fill="#FF1E00" d="M179.279,131.82c-0.252,1.17-0.414,2.322-0.306,3.438l-0.81,0.107l-0.018-1.566
		c-0.72,0.99-1.747,1.566-2.863,1.566c-1.603,0-3.421-1.314-2.629-5.023c0.81-3.815,3.475-4.897,4.79-4.897
		c0.846,0,1.621,0.289,2.161,0.812l0.954-4.446h0.846L179.279,131.82z M179.423,127.104c-0.486-0.521-1.134-0.937-1.927-0.937
		c-1.08,0-3.259,0.737-4.015,4.231c-0.702,3.295,0.882,4.248,1.963,4.248c1.206,0,2.179-0.881,2.791-1.908L179.423,127.104z"/>
	<path fill="#FF1E00" d="M201.653,126.365h-3.493l-1.387,6.5c-0.198,0.918-0.036,1.781,1.135,1.781c1.062,0,1.98-0.791,2.575-1.691
		l0.774,0.197c-0.864,1.225-2.106,2.215-3.529,2.215c-1.225,0-2.215-0.594-1.692-3.008l1.278-5.994h-2.143l0.144-0.721h2.143
		l0.666-3.062h0.846l-0.666,3.062h3.493L201.653,126.365z"/>
	<path fill="#FF1E00" d="M209.536,126.365h-2.773l0.144-0.721h3.619l-2.017,9.524h-0.846L209.536,126.365z M211.624,122.891
		c-0.108,0.521-0.63,0.937-1.152,0.937s-0.846-0.414-0.738-0.937s0.612-0.938,1.134-0.938S211.732,122.367,211.624,122.891z"/>
	<path fill="#FF1E00" d="M222.37,134.504c-1.207,0.485-2.359,0.863-3.583,0.863c-2.791,0-3.295-2.502-2.773-4.915
		c0.504-2.413,2.125-5.006,4.934-5.006c1.603,0,3.241,1.151,2.413,5.096h-6.518c-0.558,3.349,0.666,4.104,2.125,4.104
		c1.081,0,2.197-0.396,3.205-0.937L222.37,134.504z M222.658,129.822c0.432-1.639-0.108-3.655-1.981-3.655
		c-1.854,0-3.385,1.979-3.691,3.655H222.658z"/>
	<path fill="#FF1E00" d="M228.2,136.412c0.594-0.162,1.278-0.504,1.639-1.062c-0.054,0-0.126,0.019-0.18,0.036
		c-0.072,0-0.126,0.019-0.18,0.019c-0.666,0-0.99-0.45-0.864-1.116c0.144-0.685,0.792-1.17,1.44-1.17
		c0.792,0,1.117,0.737,0.955,1.478c-0.288,1.295-1.765,2.25-2.971,2.573L228.2,136.412z"/>
	<path fill="#FF1E00" d="M242.133,122.205l-0.504,2.342l-1.242,2.322h-0.973l-0.27-2.322l0.504-2.342H242.133z M246.382,122.205
		l-0.504,2.342l-1.243,2.322h-0.972l-0.27-2.322l0.504-2.342H246.382z"/>
	<path fill="#FF1E00" d="M149.916,156.459v-0.32h1.887v0.32H149.916z"/>
	<path fill="#FF1E00" d="M161.73,153.412v3.936c0,1.392-0.504,1.935-1.551,1.935c-0.927,0-1.439-0.496-1.439-1.847v-0.617h0.376
		v0.824c0,0.912,0.328,1.327,1.055,1.318c0.815-0.016,1.183-0.527,1.183-1.318v-3.91h-1.087v-0.319L161.73,153.412L161.73,153.412z"
		/>
	<path fill="#FF1E00" d="M166.242,159.258c-0.08-0.232-0.136-0.48-0.16-0.721c-0.296,0.424-0.607,0.721-1.159,0.721
		c-0.776,0-1.175-0.632-1.175-1.344c0-0.809,0.456-1.503,1.271-1.503c0.344,0,0.736,0.136,1.032,0.28
		c0.024-1.072-0.168-1.521-0.864-1.521c-0.368,0-0.68,0.128-1.015,0.279l-0.088-0.345c0.368-0.144,0.728-0.256,1.127-0.256
		c0.776,0,1.239,0.545,1.215,1.487l-0.048,1.728c-0.008,0.408,0.096,0.791,0.208,1.144L166.242,159.258z M166.026,156.986
		c-0.264-0.137-0.583-0.256-0.919-0.256c-0.704,0-0.983,0.592-0.983,1.215c0,0.473,0.264,0.992,0.8,0.992
		c0.528,0,0.847-0.424,1.103-0.855L166.026,156.986L166.026,156.986z"/>
	<path fill="#FF1E00" d="M169.003,159.17h-0.376v-2.119c0-0.72-0.024-1.439-0.167-2.158h0.352l0.152,1.215h0.016
		c0.16-0.631,0.832-1.256,1.503-1.256c0.768,0,0.983,0.664,0.983,1.305v3.015h-0.375v-2.839c0-0.487,0-1.159-0.656-1.159
		c-0.607,0-1.431,0.607-1.431,2.254L169.003,159.17L169.003,159.17z"/>
	<path fill="#FF1E00" d="M176.441,158.873c-0.488,0.217-0.968,0.385-1.511,0.385c-1.239,0-1.695-1.111-1.695-2.184
		c0-1.071,0.472-2.223,1.719-2.223c0.711,0,1.551,0.512,1.551,2.264h-2.895c0.072,1.486,0.688,1.822,1.335,1.822
		c0.479,0,0.935-0.177,1.335-0.416L176.441,158.873z M176.129,156.795c0.04-0.729-0.392-1.623-1.223-1.623
		c-0.824,0-1.319,0.879-1.295,1.623H176.129z"/>
	<path fill="#FF1E00" d="M180.865,155.26h-1.551v2.887c0,0.407,0.152,0.791,0.672,0.791c0.472,0,0.799-0.352,0.983-0.752l0.36,0.088
		c-0.264,0.545-0.728,0.984-1.359,0.984c-0.543,0-1.031-0.264-1.031-1.336v-2.662h-0.952v-0.32h0.952v-1.358h0.375v1.358h1.551
		V155.26z"/>
	<path fill="#FF1E00" d="M188.25,153.932l-0.016,0.018v5.222h-0.375v-5.758h0.543l1.959,4.935l0.016-0.017v-4.918h0.376v5.813
		h-0.392L188.25,153.932z"/>
	<path fill="#FF1E00" d="M195.041,159.258c-0.08-0.232-0.136-0.48-0.16-0.721c-0.296,0.424-0.607,0.721-1.159,0.721
		c-0.776,0-1.175-0.632-1.175-1.344c0-0.809,0.456-1.503,1.271-1.503c0.344,0,0.736,0.136,1.032,0.28
		c0.024-1.072-0.168-1.521-0.864-1.521c-0.368,0-0.68,0.128-1.015,0.279l-0.088-0.345c0.368-0.144,0.728-0.256,1.127-0.256
		c0.776,0,1.239,0.545,1.215,1.487l-0.048,1.728c-0.008,0.408,0.096,0.791,0.208,1.144L195.041,159.258z M194.825,156.986
		c-0.264-0.137-0.583-0.256-0.919-0.256c-0.704,0-0.983,0.592-0.983,1.215c0,0.473,0.264,0.992,0.8,0.992
		c0.528,0,0.847-0.424,1.103-0.855L194.825,156.986L194.825,156.986z"/>
	<path fill="#FF1E00" d="M197.466,156.419c0-0.512-0.04-1.022-0.192-1.519l0.352-0.049l0.144,0.694h0.016
		c0.216-0.438,0.624-0.694,1.12-0.694c0.704,0,1.639,0.567,1.639,2.229c0,1.694-1.087,2.176-1.663,2.176
		c-0.376,0-0.752-0.129-1.04-0.36v1.968h-0.376V156.419L197.466,156.419z M197.842,158.521c0.264,0.231,0.583,0.416,0.943,0.416
		c0.48,0,1.383-0.336,1.383-1.879c0-1.472-0.792-1.888-1.271-1.888c-0.56,0-0.847,0.392-1.055,0.849V158.521z"/>
	<path fill="#FF1E00" d="M202.042,157.051c0-1.646,0.847-2.199,1.615-2.199c0.704,0,1.624,0.474,1.624,2.199
		c0,1.719-0.912,2.207-1.624,2.207C202.945,159.258,202.042,158.777,202.042,157.051z M204.904,157.051
		c0-0.824-0.208-1.879-1.248-1.879c-1.031,0-1.239,1.055-1.239,1.879c0,0.832,0.208,1.887,1.239,1.887
		C204.696,158.938,204.904,157.874,204.904,157.051z"/>
	<path fill="#FF1E00" d="M208.313,153.557h-1.248v-0.32h1.623v5.935h-0.375V153.557z"/>
	<path fill="#FF1E00" d="M213.168,155.26h-1.231v-0.32h1.607v4.23h-0.376V155.26L213.168,155.26z M213.768,153.717
		c0,0.231-0.191,0.416-0.423,0.416c-0.232,0-0.416-0.185-0.416-0.416c0-0.232,0.184-0.416,0.416-0.416
		C213.577,153.301,213.768,153.484,213.768,153.717z"/>
	<path fill="#FF1E00" d="M219.264,155.26h-1.551v2.887c0,0.407,0.152,0.791,0.672,0.791c0.472,0,0.799-0.352,0.983-0.752l0.36,0.088
		c-0.264,0.545-0.728,0.984-1.359,0.984c-0.543,0-1.031-0.264-1.031-1.336v-2.662h-0.952v-0.32h0.952v-1.358h0.375v1.358h1.551
		V155.26z"/>
	<path fill="#FF1E00" d="M223.84,159.258c-0.08-0.232-0.136-0.48-0.16-0.721c-0.296,0.424-0.607,0.721-1.159,0.721
		c-0.776,0-1.175-0.632-1.175-1.344c0-0.809,0.456-1.503,1.271-1.503c0.344,0,0.736,0.136,1.032,0.28
		c0.024-1.072-0.168-1.521-0.864-1.521c-0.368,0-0.68,0.128-1.015,0.279l-0.088-0.345c0.368-0.144,0.728-0.256,1.127-0.256
		c0.776,0,1.239,0.545,1.215,1.487l-0.048,1.728c-0.008,0.408,0.096,0.791,0.208,1.144L223.84,159.258z M223.624,156.986
		c-0.264-0.137-0.583-0.256-0.919-0.256c-0.704,0-0.983,0.592-0.983,1.215c0,0.473,0.264,0.992,0.8,0.992
		c0.528,0,0.847-0.424,1.103-0.855L223.624,156.986L223.624,156.986z"/>
	<path fill="#FF1E00" d="M226.601,159.17h-0.376v-2.119c0-0.72-0.024-1.439-0.167-2.158h0.352l0.152,1.215h0.016
		c0.16-0.631,0.832-1.256,1.503-1.256c0.768,0,0.983,0.664,0.983,1.305v3.015h-0.375v-2.839c0-0.487,0-1.159-0.656-1.159
		c-0.607,0-1.431,0.607-1.431,2.254L226.601,159.17L226.601,159.17z"/>
	<path fill="#FF1E00" d="M230.841,157.051c0-1.646,0.847-2.199,1.615-2.199c0.704,0,1.624,0.474,1.624,2.199
		c0,1.719-0.912,2.207-1.624,2.207S230.841,158.777,230.841,157.051z M233.703,157.051c0-0.824-0.208-1.879-1.248-1.879
		c-1.031,0-1.239,1.055-1.239,1.879c0,0.832,0.208,1.887,1.239,1.887C233.495,158.938,233.703,157.874,233.703,157.051z"/>
</g>
<g>
	<path fill="#FF1E00" d="M137.91,74.202l-0.504,2.341l-1.242,2.323h-0.973l-0.27-2.323l0.504-2.341H137.91z M142.159,74.202
		l-0.504,2.341l-1.243,2.323h-0.972l-0.27-2.323l0.504-2.341H142.159z"/>
</g>
</svg>
