<?xml version="1.0" encoding="utf-8"?>
<!-- Generator: Adobe Illustrator 17.0.0, SVG Export Plug-In . SVG Version: 6.00 Build 0)  -->
<!DOCTYPE svg PUBLIC "-//W3C//DTD SVG 1.1//EN" "http://www.w3.org/Graphics/SVG/1.1/DTD/svg11.dtd">
<svg version="1.1" id="Layer_1" xmlns="http://www.w3.org/2000/svg" xmlns:xlink="http://www.w3.org/1999/xlink" x="0px" y="0px"
	 width="232.896px" height="192.186px" viewBox="-16.355 0 232.896 192.186" enable-background="new -16.355 0 232.896 192.186"
	 xml:space="preserve">
<g>
	<path fill="#FF1E00" d="M10.227,0.972H8.426L5.978,12.496h1.8l-0.162,0.72H3.169l0.162-0.72h1.8L7.58,0.972h-1.8l0.144-0.72h4.447
		L10.227,0.972z"/>
	<path fill="#FF1E00" d="M22.755,1.494c-0.828-0.396-1.278-0.774-2.071-0.774c-1.242,0-2.143,0.666-2.413,1.944l-0.36,1.675h3.151
		l-0.162,0.72H17.75l-1.729,8.156h-0.846l1.729-8.156h-2.449l0.162-0.72h2.449L17.3,3.259C17.84,0.792,19.388,0,20.739,0
		c0.792,0,1.566,0.288,2.215,0.594L22.755,1.494z"/>
	<path fill="#FF1E00" d="M43.635,3.691l-5.474,9.057c-0.792,1.296-2.071,3.511-3.745,3.511c-1.081,0-1.692-0.846-1.8-1.818
		l0.792-0.378c0.09,0.648,0.378,1.477,1.17,1.477c0.918,0,1.621-1.062,2.088-1.783l1.062-1.638l-1.314-8.427h0.937l1.026,7.31
		l4.285-7.31H43.635z"/>
	<path fill="#FF1E00" d="M46.098,8.444c0.792-3.709,2.971-4.951,4.699-4.951c1.584,0,3.421,1.062,2.593,4.951
		c-0.81,3.871-3.097,4.97-4.699,4.97S45.27,12.333,46.098,8.444z M52.544,8.444c0.396-1.854,0.432-4.231-1.909-4.231
		c-2.322,0-3.295,2.377-3.691,4.231c-0.396,1.873-0.432,4.25,1.891,4.25C51.176,12.694,52.148,10.299,52.544,8.444z"/>
	<path fill="#FF1E00" d="M63.812,3.691h0.846l-0.99,4.7c-0.342,1.62-0.63,3.241-0.648,4.825h-0.792l0.216-2.701h-0.036
		c-0.667,1.422-2.485,2.899-3.979,2.899c-1.729,0-1.891-1.566-1.584-3.007l1.422-6.716h0.847l-1.333,6.32
		c-0.378,1.801-0.126,2.683,0.9,2.683c1.405,0,3.565-1.549,4.321-5.15L63.812,3.691z"/>
	<path fill="#FF1E00" d="M85.016,11.812c-1.099,0.954-2.143,1.603-3.493,1.603c-1.674,0-3.763-1.044-2.953-4.862
		c0.829-3.853,3.205-5.059,4.988-5.059c1.44,0,2.341,0.756,2.863,1.926l-0.864,0.504c-0.288-0.99-0.99-1.711-2.161-1.711
		c-1.188,0-3.205,0.738-3.943,4.195c-0.702,3.277,0.811,4.286,2.197,4.286c1.044,0,2.106-0.72,2.917-1.495L85.016,11.812z"/>
	<path fill="#FF1E00" d="M93.978,13.414c-0.072-0.522-0.09-1.081-0.018-1.621c-0.864,0.954-1.71,1.621-2.953,1.621
		c-1.747,0-2.359-1.423-2.017-3.025c0.396-1.819,1.747-3.385,3.583-3.385c0.774,0,1.603,0.306,2.197,0.63
		c0.558-2.413,0.342-3.421-1.225-3.421c-0.828,0-1.584,0.288-2.413,0.63l-0.036-0.774c0.9-0.324,1.765-0.576,2.665-0.576
		c1.747,0,2.521,1.224,2.017,3.349c-0.306,1.296-0.612,2.593-0.937,3.889c-0.216,0.918-0.162,1.783-0.072,2.575L93.978,13.414z
		 M94.573,8.3c-0.522-0.306-1.188-0.576-1.944-0.576c-1.584,0-2.503,1.333-2.791,2.737c-0.234,1.062,0.108,2.233,1.314,2.233
		c1.188,0,2.106-0.955,2.899-1.927L94.573,8.3z"/>
	<path fill="#FF1E00" d="M99.989,6.572c0.27-1.26,0.342-2.269,0.324-3.079h0.864l-0.036,1.242c0.702-0.756,1.566-1.242,2.502-1.242
		c0.774,0,1.099,0.468,1.225,1.152c0.612-0.612,1.386-1.152,2.214-1.152c1.225,0,1.693,0.81,1.44,1.999l-1.638,7.724h-0.846
		l1.638-7.688c0.198-0.972-0.198-1.332-0.864-1.332c-0.756,0-1.512,0.594-1.999,1.224l-1.656,7.796h-0.846l1.548-7.31
		c0.144-0.72,0.306-1.693-0.648-1.693c-0.81,0-1.692,0.667-2.161,1.387l-1.62,7.616h-0.847L99.989,6.572z"/>
	<path fill="#FF1E00" d="M117.109,12.55c-1.206,0.486-2.358,0.864-3.583,0.864c-2.791,0-3.295-2.503-2.773-4.916
		c0.504-2.413,2.125-5.005,4.933-5.005c1.603,0,3.241,1.152,2.413,5.095h-6.518c-0.558,3.349,0.667,4.105,2.125,4.105
		c1.08,0,2.197-0.396,3.205-0.937L117.109,12.55z M117.397,7.868c0.432-1.639-0.108-3.655-1.98-3.655
		c-1.854,0-3.385,1.981-3.691,3.655H117.397z"/>
	<path fill="#FF1E00" d="M139.591,4.411h-3.493l-1.387,6.5c-0.198,0.918-0.036,1.783,1.135,1.783c1.062,0,1.98-0.792,2.574-1.693
		l0.774,0.198c-0.864,1.225-2.106,2.215-3.529,2.215c-1.224,0-2.214-0.594-1.692-3.007l1.278-5.996h-2.143l0.145-0.72h2.143
		l0.666-3.061h0.847l-0.667,3.061h3.493L139.591,4.411z"/>
	<path fill="#FF1E00" d="M143.296,8.444c0.793-3.709,2.972-4.951,4.7-4.951c1.584,0,3.421,1.062,2.593,4.951
		c-0.811,3.871-3.098,4.97-4.7,4.97C144.288,13.414,142.468,12.333,143.296,8.444z M149.743,8.444
		c0.396-1.854,0.433-4.231-1.908-4.231c-2.323,0-3.295,2.377-3.691,4.231c-0.396,1.873-0.432,4.25,1.891,4.25
		C148.374,12.694,149.346,10.299,149.743,8.444z"/>
	<path fill="#FF1E00" d="M171.81,3.691h0.847l-0.99,4.7c-0.342,1.62-0.63,3.241-0.648,4.825h-0.792l0.216-2.701h-0.036
		c-0.666,1.422-2.484,2.899-3.979,2.899c-1.729,0-1.891-1.566-1.585-3.007l1.423-6.716h0.846l-1.332,6.32
		c-0.378,1.801-0.126,2.683,0.9,2.683c1.404,0,3.564-1.549,4.321-5.15L171.81,3.691z"/>
	<path fill="#FF1E00" d="M182.232,5.204c-0.647-0.541-1.404-0.991-2.358-0.991s-2.035,0.721-2.251,1.729
		c-0.233,1.117,0.9,1.639,1.692,1.963c1.333,0.558,2.737,1.134,2.341,2.989c-0.324,1.584-1.927,2.521-3.385,2.521
		c-1.188,0-2.575-0.738-3.259-1.531l0.612-0.684c0.612,0.774,1.71,1.495,2.826,1.495c1.062,0,2.107-0.594,2.359-1.747
		c0.306-1.422-0.721-1.837-1.747-2.269c-1.206-0.504-2.629-1.117-2.269-2.809c0.288-1.351,1.873-2.376,3.295-2.376
		c1.099,0,1.909,0.378,2.647,1.008L182.232,5.204z"/>
	<path fill="#FF1E00" d="M2.917,25.691h0.936l-0.432,8.229h0.036l2.917-5.78h0.918l0.432,5.78H7.76l3.061-8.229h0.918l-3.728,9.651
		H7.094L6.59,29.184l-3.097,6.158H2.575L2.917,25.691z"/>
	<path fill="#FF1E00" d="M17.876,26.411h-2.773l0.144-0.72h3.619l-2.017,9.525h-0.846L17.876,26.411z M19.964,22.936
		c-0.108,0.522-0.63,0.937-1.152,0.937c-0.522,0-0.846-0.414-0.738-0.937C18.182,22.414,18.686,22,19.208,22
		C19.73,22,20.073,22.414,19.964,22.936z"/>
	<path fill="#FF1E00" d="M31.593,26.411H28.1l-1.386,6.5c-0.198,0.918-0.036,1.783,1.134,1.783c1.062,0,1.98-0.792,2.575-1.693
		l0.774,0.198c-0.864,1.225-2.106,2.215-3.529,2.215c-1.225,0-2.215-0.594-1.692-3.007l1.278-5.996h-2.143l0.144-0.72h2.143
		l0.666-3.061h0.846l-0.666,3.061h3.493L31.593,26.411z"/>
	<path fill="#FF1E00" d="M37.585,21.856h0.846l-1.26,5.906h0.036c0.828-1.188,2.214-2.269,3.655-2.269
		c0.882,0,2.125,0.702,1.675,2.791l-1.477,6.932h-0.846l1.278-5.978c0.252-1.207,0.468-3.025-0.937-3.025
		c-1.602,0-3.475,1.999-3.943,4.213l-1.026,4.79H34.74L37.585,21.856z"/>
	<path fill="#FF1E00" d="M64.028,24.971c-0.468-0.54-1.08-1.008-1.854-1.08l-0.882,4.159c1.422,0.54,2.395,1.404,2.017,3.205
		c-0.36,1.674-1.674,2.665-3.295,2.809l-0.378,1.71h-0.846l0.378-1.71c-1.044-0.018-1.944-0.522-2.557-1.278l0.648-0.63
		c0.558,0.63,1.17,1.117,2.053,1.188l0.99-4.681c-1.188-0.415-2.214-1.351-1.891-2.881c0.306-1.44,1.71-2.449,3.061-2.611
		l0.288-1.314h0.846l-0.288,1.314c0.918,0.09,1.747,0.522,2.359,1.134L64.028,24.971z M61.309,23.926
		c-0.918,0.144-1.836,0.9-2.053,1.909c-0.216,0.972,0.504,1.71,1.225,2.017L61.309,23.926z M60.157,33.343
		c1.081-0.054,2.053-0.972,2.287-2.053c0.252-1.224-0.36-2.017-1.332-2.449L60.157,33.343z"/>
	<path fill="#FF1E00" d="M73.837,34.496l-0.162,0.72h-6.896c0.594-2.827,1.296-3.871,4.501-6.248
		c1.351-0.99,3.313-2.322,3.673-3.997c0.288-1.351-0.378-2.25-1.746-2.25c-1.639,0-2.773,1.26-3.205,2.773h-0.846
		C69.75,23.477,71.245,22,73.37,22c1.872,0,2.809,1.152,2.413,3.025c-0.396,1.891-2.215,3.133-3.745,4.285
		c-3.223,2.413-3.835,3.349-4.25,5.186H73.837z"/>
	<path fill="#FF1E00" d="M84.619,32.893c-0.774,1.458-2.052,2.575-3.673,2.575c-1.548,0-2.377-1.044-2.557-2.431
		c-0.18-1.278,0.126-2.935,0.432-4.303c0.27-1.278,0.666-2.953,1.314-4.159C80.928,23.116,82.17,22,83.809,22
		c1.566,0,2.377,1.044,2.557,2.431c0.18,1.296-0.126,2.935-0.414,4.303C85.682,29.994,85.268,31.705,84.619,32.893z M85.538,25.025
		c-0.072-1.152-0.54-2.323-1.873-2.323c-1.422,0-2.431,1.296-2.989,2.521c-0.45,1.026-0.792,2.449-1.008,3.511
		c-0.252,1.152-0.522,2.611-0.45,3.727c0.072,1.134,0.54,2.305,1.873,2.305c1.422,0,2.431-1.296,2.989-2.521
		c0.45-1.008,0.81-2.449,1.026-3.511C85.357,27.582,85.61,26.123,85.538,25.025z"/>
	<path fill="#FF1E00" d="M99.989,28.572c0.27-1.26,0.342-2.269,0.324-3.079h0.864l-0.036,1.242c0.702-0.756,1.566-1.242,2.502-1.242
		c0.774,0,1.099,0.468,1.225,1.152c0.612-0.612,1.386-1.152,2.214-1.152c1.225,0,1.693,0.81,1.44,1.999l-1.638,7.724h-0.846
		l1.638-7.688c0.198-0.972-0.198-1.332-0.864-1.332c-0.756,0-1.512,0.594-1.999,1.224l-1.656,7.796h-0.846l1.548-7.31
		c0.144-0.72,0.306-1.693-0.648-1.693c-0.81,0-1.692,0.667-2.161,1.387l-1.62,7.616h-0.847L99.989,28.572z"/>
	<path fill="#FF1E00" d="M115.074,26.411h-2.772l0.144-0.72h3.62l-2.018,9.525h-0.846L115.074,26.411z M117.163,22.936
		c-0.107,0.522-0.63,0.937-1.152,0.937c-0.521,0-0.846-0.414-0.738-0.937c0.108-0.522,0.612-0.936,1.135-0.936
		C116.928,22,117.271,22.414,117.163,22.936z"/>
	<path fill="#FF1E00" d="M126.559,22.576h-2.81l0.162-0.72h3.655l-2.845,13.36h-0.847L126.559,22.576z"/>
	<path fill="#FF1E00" d="M137.359,22.576h-2.81l0.162-0.72h3.655l-2.845,13.36h-0.847L137.359,22.576z"/>
	<path fill="#FF1E00" d="M147.474,26.411h-2.772l0.144-0.72h3.619l-2.017,9.525h-0.847L147.474,26.411z M149.563,22.936
		c-0.108,0.522-0.631,0.937-1.152,0.937c-0.522,0-0.847-0.414-0.738-0.937c0.107-0.522,0.612-0.936,1.134-0.936
		C149.329,22,149.67,22.414,149.563,22.936z"/>
	<path fill="#FF1E00" d="M154.096,30.444c0.793-3.709,2.972-4.951,4.7-4.951c1.584,0,3.421,1.062,2.593,4.951
		c-0.811,3.871-3.098,4.97-4.7,4.97S153.268,34.333,154.096,30.444z M160.542,30.444c0.396-1.854,0.433-4.231-1.908-4.231
		c-2.323,0-3.295,2.377-3.691,4.231c-0.396,1.873-0.433,4.25,1.891,4.25C159.174,34.694,160.146,32.299,160.542,30.444z"/>
	<path fill="#FF1E00" d="M165.022,35.216h-0.846l1.008-4.771c0.343-1.621,0.648-3.241,0.667-4.861h0.792l-0.252,2.737h0.036
		c0.666-1.422,2.484-2.827,3.997-2.827c1.729,0,1.891,1.494,1.584,2.935l-1.44,6.788h-0.846l1.351-6.392
		c0.233-1.098,0.558-2.611-0.919-2.611c-1.368,0-3.529,1.369-4.303,5.078L165.022,35.216z"/>
	<path fill="#FF1E00" d="M191.177,35.414c-0.072-0.522-0.09-1.081-0.018-1.621c-0.864,0.954-1.711,1.621-2.953,1.621
		c-1.746,0-2.358-1.423-2.017-3.025c0.396-1.819,1.746-3.385,3.583-3.385c0.774,0,1.603,0.306,2.196,0.63
		c0.559-2.413,0.343-3.421-1.224-3.421c-0.828,0-1.585,0.288-2.413,0.63l-0.036-0.774c0.9-0.324,1.765-0.576,2.665-0.576
		c1.746,0,2.521,1.224,2.017,3.349c-0.306,1.296-0.612,2.593-0.937,3.889c-0.216,0.918-0.162,1.783-0.072,2.575L191.177,35.414z
		 M191.772,30.3c-0.522-0.306-1.188-0.576-1.945-0.576c-1.584,0-2.502,1.333-2.79,2.737c-0.234,1.062,0.107,2.233,1.313,2.233
		c1.188,0,2.107-0.955,2.899-1.927L191.772,30.3z"/>
	<path fill="#FF1E00" d="M197.422,35.216h-0.847l1.008-4.771c0.343-1.621,0.648-3.241,0.667-4.861h0.792l-0.252,2.737h0.036
		c0.666-1.422,2.484-2.827,3.997-2.827c1.729,0,1.891,1.494,1.584,2.935l-1.44,6.788h-0.846l1.35-6.392
		c0.234-1.098,0.559-2.611-0.918-2.611c-1.368,0-3.529,1.369-4.303,5.078L197.422,35.216z"/>
	<path fill="#FF1E00" d="M214.415,31.867c-0.252,1.17-0.414,2.323-0.306,3.439l-0.811,0.108l-0.019-1.566
		c-0.72,0.99-1.746,1.566-2.862,1.566c-1.603,0-3.421-1.314-2.629-5.023c0.811-3.817,3.475-4.897,4.789-4.897
		c0.847,0,1.621,0.288,2.161,0.81l0.954-4.447h0.847L214.415,31.867z M214.559,27.149c-0.485-0.522-1.134-0.937-1.926-0.937
		c-1.081,0-3.26,0.738-4.016,4.231c-0.702,3.295,0.883,4.25,1.963,4.25c1.206,0,2.179-0.882,2.791-1.909L214.559,27.149z"/>
	<path fill="#FF1E00" d="M9.435,49.204c-0.648-0.541-1.405-0.991-2.359-0.991c-0.955,0-2.035,0.721-2.25,1.729
		c-0.234,1.117,0.9,1.639,1.692,1.963c1.332,0.558,2.737,1.134,2.341,2.989c-0.324,1.584-1.927,2.521-3.385,2.521
		c-1.188,0-2.575-0.738-3.259-1.531l0.612-0.684c0.612,0.774,1.711,1.495,2.827,1.495c1.062,0,2.106-0.594,2.358-1.747
		c0.306-1.422-0.72-1.837-1.746-2.269c-1.207-0.504-2.629-1.117-2.269-2.809c0.288-1.351,1.873-2.376,3.295-2.376
		c1.099,0,1.909,0.378,2.647,1.008L9.435,49.204z"/>
	<path fill="#FF1E00" d="M18.38,57.414c-0.072-0.522-0.09-1.081-0.018-1.621c-0.864,0.954-1.71,1.621-2.953,1.621
		c-1.747,0-2.359-1.423-2.017-3.025c0.396-1.819,1.747-3.385,3.583-3.385c0.774,0,1.603,0.306,2.197,0.63
		c0.558-2.413,0.342-3.421-1.225-3.421c-0.828,0-1.584,0.288-2.413,0.63l-0.036-0.774c0.9-0.324,1.765-0.576,2.665-0.576
		c1.747,0,2.521,1.224,2.017,3.349c-0.306,1.296-0.612,2.593-0.937,3.889c-0.216,0.918-0.162,1.783-0.072,2.575L18.38,57.414z
		 M18.974,52.3c-0.522-0.306-1.188-0.576-1.944-0.576c-1.584,0-2.503,1.333-2.791,2.737c-0.234,1.062,0.108,2.233,1.314,2.233
		c1.188,0,2.106-0.955,2.899-1.927L18.974,52.3z"/>
	<path fill="#FF1E00" d="M28.676,48.411h-2.773l0.144-0.72h3.619l-2.017,9.525h-0.846L28.676,48.411z M30.764,44.936
		c-0.108,0.522-0.63,0.937-1.152,0.937c-0.522,0-0.846-0.414-0.738-0.937C28.982,44.414,29.486,44,30.008,44
		C30.53,44,30.873,44.414,30.764,44.936z"/>
	<path fill="#FF1E00" d="M41.618,53.867c-0.252,1.17-0.414,2.323-0.306,3.439l-0.81,0.108l-0.018-1.566
		c-0.72,0.99-1.747,1.566-2.863,1.566c-1.603,0-3.421-1.314-2.629-5.023c0.81-3.817,3.475-4.897,4.79-4.897
		c0.846,0,1.62,0.288,2.161,0.81l0.954-4.447h0.846L41.618,53.867z M41.762,49.149c-0.486-0.522-1.134-0.937-1.927-0.937
		c-1.08,0-3.259,0.738-4.015,4.231c-0.702,3.295,0.882,4.25,1.963,4.25c1.206,0,2.178-0.882,2.791-1.909L41.762,49.149z"/>
	<path fill="#FF1E00" d="M47.34,58.458c0.594-0.162,1.278-0.504,1.639-1.062c-0.108,0.036-0.216,0.054-0.36,0.054
		c-0.666,0-0.99-0.45-0.864-1.116c0.144-0.684,0.792-1.17,1.44-1.17c0.792,0,1.117,0.738,0.955,1.477
		c-0.288,1.296-1.765,2.25-2.971,2.575L47.34,58.458z"/>
	<path fill="#FF1E00" d="M73.801,44.252L73.37,46.25l-0.991,2.431h-0.72l0.018-2.431l0.432-1.999H73.801z"/>
	<path fill="#FF1E00" d="M83.467,55.83h0.036l3.223-11.578h0.99l-3.781,13.09h-1.134l-0.522-6.518l-3.241,6.518h-1.134l1.765-13.09
		h0.99l-1.71,11.578h0.036l3.763-7.202L83.467,55.83z"/>
	<path fill="#FF1E00" d="M95.509,56.55c-1.207,0.486-2.359,0.864-3.583,0.864c-2.791,0-3.295-2.503-2.773-4.916
		c0.504-2.413,2.125-5.005,4.934-5.005c1.602,0,3.241,1.152,2.413,5.095h-6.518c-0.558,3.349,0.667,4.105,2.125,4.105
		c1.081,0,2.197-0.396,3.205-0.937L95.509,56.55z M95.797,51.868c0.432-1.639-0.108-3.655-1.98-3.655
		c-1.855,0-3.385,1.981-3.691,3.655H95.797z"/>
	<path fill="#FF1E00" d="M110.915,47.691h0.936l-0.432,8.229h0.036l2.917-5.78h0.919l0.432,5.78h0.036l3.061-8.229h0.919
		l-3.728,9.651h-0.918l-0.504-6.158l-3.097,6.158h-0.918L110.915,47.691z"/>
	<path fill="#FF1E00" d="M126.378,57.414c-0.072-0.522-0.09-1.081-0.018-1.621c-0.864,0.954-1.711,1.621-2.953,1.621
		c-1.746,0-2.358-1.423-2.017-3.025c0.396-1.819,1.746-3.385,3.583-3.385c0.774,0,1.603,0.306,2.196,0.63
		c0.559-2.413,0.343-3.421-1.224-3.421c-0.828,0-1.585,0.288-2.413,0.63l-0.036-0.774c0.9-0.324,1.765-0.576,2.665-0.576
		c1.746,0,2.521,1.224,2.017,3.349c-0.306,1.296-0.612,2.593-0.937,3.889c-0.216,0.918-0.162,1.783-0.072,2.575L126.378,57.414z
		 M126.973,52.3c-0.522-0.306-1.188-0.576-1.945-0.576c-1.584,0-2.502,1.333-2.79,2.737c-0.234,1.062,0.107,2.233,1.313,2.233
		c1.188,0,2.107-0.955,2.899-1.927L126.973,52.3z"/>
	<path fill="#FF1E00" d="M132.624,57.216h-0.847l1.008-4.771c0.343-1.621,0.648-3.241,0.667-4.861h0.792l-0.252,2.737h0.036
		c0.666-1.422,2.484-2.827,3.997-2.827c1.729,0,1.891,1.494,1.584,2.935l-1.44,6.788h-0.846l1.35-6.392
		c0.234-1.098,0.559-2.611-0.918-2.611c-1.368,0-3.529,1.369-4.303,5.078L132.624,57.216z"/>
	<path fill="#FF1E00" d="M143.422,57.216h-0.846l1.008-4.771c0.343-1.621,0.648-3.241,0.667-4.861h0.792l-0.252,2.737h0.036
		c0.666-1.422,2.484-2.827,3.997-2.827c1.729,0,1.891,1.494,1.584,2.935l-1.44,6.788h-0.846l1.351-6.392
		c0.233-1.098,0.558-2.611-0.919-2.611c-1.368,0-3.529,1.369-4.303,5.078L143.422,57.216z"/>
	<path fill="#FF1E00" d="M158.778,57.414c-0.072-0.522-0.09-1.081-0.018-1.621c-0.864,0.954-1.711,1.621-2.953,1.621
		c-1.746,0-2.358-1.423-2.017-3.025c0.396-1.819,1.746-3.385,3.583-3.385c0.774,0,1.603,0.306,2.196,0.63
		c0.559-2.413,0.343-3.421-1.224-3.421c-0.828,0-1.585,0.288-2.413,0.63l-0.036-0.774c0.9-0.324,1.765-0.576,2.665-0.576
		c1.746,0,2.521,1.224,2.017,3.349c-0.307,1.296-0.612,2.593-0.937,3.889c-0.216,0.918-0.162,1.783-0.072,2.575L158.778,57.414z
		 M159.373,52.3c-0.522-0.306-1.188-0.576-1.945-0.576c-1.584,0-2.502,1.333-2.79,2.737c-0.234,1.062,0.107,2.233,1.314,2.233
		c1.188,0,2.106-0.955,2.898-1.927L159.373,52.3z"/>
	<path fill="#FF1E00" d="M9.219,75.867c-0.252,1.17-0.414,2.323-0.306,3.439l-0.81,0.108l-0.018-1.566
		c-0.72,0.99-1.747,1.566-2.863,1.566c-1.603,0-3.421-1.314-2.629-5.023c0.81-3.817,3.475-4.897,4.79-4.897
		c0.846,0,1.62,0.288,2.161,0.81l0.954-4.447h0.846L9.219,75.867z M9.363,71.149c-0.486-0.522-1.134-0.937-1.927-0.937
		c-1.08,0-3.259,0.738-4.015,4.231c-0.702,3.295,0.882,4.25,1.963,4.25c1.206,0,2.178-0.882,2.791-1.909L9.363,71.149z"/>
	<path fill="#FF1E00" d="M17.876,70.411h-2.773l0.144-0.72h3.619l-2.017,9.525h-0.846L17.876,70.411z M19.964,66.936
		c-0.108,0.522-0.63,0.937-1.152,0.937c-0.522,0-0.846-0.414-0.738-0.937C18.182,66.414,18.686,66,19.208,66
		C19.73,66,20.073,66.414,19.964,66.936z"/>
	<path fill="#FF1E00" d="M31.035,71.204c-0.648-0.541-1.405-0.991-2.359-0.991c-0.955,0-2.035,0.721-2.25,1.729
		c-0.234,1.117,0.9,1.639,1.692,1.963c1.332,0.558,2.737,1.134,2.341,2.989c-0.324,1.584-1.927,2.521-3.385,2.521
		c-1.188,0-2.575-0.738-3.259-1.531l0.612-0.684c0.612,0.774,1.711,1.495,2.827,1.495c1.062,0,2.106-0.594,2.358-1.747
		c0.306-1.422-0.72-1.837-1.746-2.269c-1.207-0.504-2.629-1.117-2.269-2.809c0.288-1.351,1.873-2.376,3.295-2.376
		c1.099,0,1.909,0.378,2.647,1.008L31.035,71.204z"/>
	<path fill="#FF1E00" d="M39.979,79.414c-0.072-0.522-0.09-1.081-0.018-1.621c-0.864,0.954-1.71,1.621-2.953,1.621
		c-1.747,0-2.359-1.423-2.017-3.025c0.396-1.819,1.747-3.385,3.583-3.385c0.774,0,1.603,0.306,2.197,0.63
		c0.558-2.413,0.342-3.421-1.225-3.421c-0.828,0-1.584,0.288-2.413,0.63l-0.036-0.774c0.9-0.324,1.765-0.576,2.665-0.576
		c1.747,0,2.521,1.224,2.017,3.349c-0.306,1.296-0.612,2.593-0.937,3.889c-0.216,0.918-0.162,1.783-0.072,2.575L39.979,79.414z
		 M40.574,74.3c-0.522-0.306-1.188-0.576-1.944-0.576c-1.584,0-2.503,1.333-2.791,2.737c-0.234,1.062,0.108,2.233,1.314,2.233
		c1.188,0,2.106-0.955,2.899-1.927L40.574,74.3z"/>
	<path fill="#FF1E00" d="M49.159,65.856l-0.955,4.447c0.756-0.522,1.675-0.81,2.521-0.81c1.314,0,3.511,1.08,2.701,4.897
		c-0.792,3.709-3.169,5.023-4.753,5.023c-1.116,0-1.927-0.576-2.215-1.566l-0.666,1.566l-0.774-0.108
		c0.576-1.116,0.918-2.269,1.17-3.439l2.125-10.011H49.159z M46.836,76.785c0.252,1.026,0.702,1.909,1.962,1.909
		c1.081,0,3.061-0.937,3.763-4.25c0.756-3.493-1.134-4.231-2.215-4.231c-0.81,0-1.62,0.415-2.322,0.937L46.836,76.785z"/>
	<path fill="#FF1E00" d="M61.759,66.576h-2.809l0.162-0.72h3.655l-2.845,13.36h-0.846L61.759,66.576z"/>
	<path fill="#FF1E00" d="M73.91,78.55c-1.207,0.486-2.359,0.864-3.583,0.864c-2.791,0-3.295-2.503-2.773-4.916
		c0.504-2.413,2.125-5.005,4.934-5.005c1.602,0,3.241,1.152,2.413,5.095h-6.518c-0.558,3.349,0.667,4.105,2.125,4.105
		c1.081,0,2.197-0.396,3.205-0.937L73.91,78.55z M74.198,73.868c0.432-1.639-0.108-3.655-1.98-3.655
		c-1.855,0-3.385,1.981-3.691,3.655H74.198z"/>
	<path fill="#FF1E00" d="M95.509,78.55c-1.207,0.486-2.359,0.864-3.583,0.864c-2.791,0-3.295-2.503-2.773-4.916
		c0.504-2.413,2.125-5.005,4.934-5.005c1.602,0,3.241,1.152,2.413,5.095h-6.518c-0.558,3.349,0.667,4.105,2.125,4.105
		c1.081,0,2.197-0.396,3.205-0.937L95.509,78.55z M95.797,73.868c0.432-1.639-0.108-3.655-1.98-3.655
		c-1.855,0-3.385,1.981-3.691,3.655H95.797z"/>
	<path fill="#FF1E00" d="M108.091,69.691l-5.042,9.651h-0.99l-0.972-9.651h0.9l0.828,8.373l4.375-8.373H108.091z"/>
	<path fill="#FF1E00" d="M117.109,78.55c-1.206,0.486-2.358,0.864-3.583,0.864c-2.791,0-3.295-2.503-2.773-4.916
		c0.504-2.413,2.125-5.005,4.933-5.005c1.603,0,3.241,1.152,2.413,5.095h-6.518c-0.558,3.349,0.667,4.105,2.125,4.105
		c1.08,0,2.197-0.396,3.205-0.937L117.109,78.55z M117.397,73.868c0.432-1.639-0.108-3.655-1.98-3.655
		c-1.854,0-3.385,1.981-3.691,3.655H117.397z"/>
	<path fill="#FF1E00" d="M122.688,79.216h-0.847l1.404-6.59l0.306-3.043h0.811l-0.252,2.665l0.036,0.036
		c0.864-1.314,2.179-2.791,3.817-2.791c1.584,0,1.656,1.584,1.386,2.881h-0.846c0.162-0.882,0.378-2.161-0.774-2.161
		c-0.973,0-3.439,1.513-4.213,5.132L122.688,79.216z"/>
	<path fill="#FF1E00" d="M140.833,69.691l-5.474,9.057c-0.792,1.296-2.07,3.511-3.745,3.511c-1.08,0-1.692-0.846-1.801-1.818
		l0.792-0.378c0.091,0.648,0.379,1.477,1.171,1.477c0.918,0,1.62-1.062,2.089-1.783l1.062-1.638l-1.314-8.427h0.936l1.026,7.31
		l4.285-7.31H140.833z"/>
	<path fill="#FF1E00" d="M9.417,99.812c-1.099,0.954-2.143,1.603-3.493,1.603c-1.674,0-3.763-1.044-2.953-4.862
		c0.829-3.853,3.205-5.059,4.988-5.059c1.44,0,2.341,0.756,2.863,1.926l-0.864,0.504c-0.288-0.99-0.99-1.711-2.161-1.711
		c-1.188,0-3.205,0.738-3.943,4.195c-0.702,3.277,0.811,4.286,2.197,4.286c1.044,0,2.106-0.72,2.917-1.495L9.417,99.812z"/>
	<path fill="#FF1E00" d="M13.699,96.444c0.792-3.709,2.971-4.951,4.699-4.951c1.584,0,3.421,1.062,2.593,4.951
		c-0.81,3.871-3.097,4.97-4.699,4.97S12.871,100.333,13.699,96.444z M20.145,96.444c0.396-1.854,0.432-4.231-1.909-4.231
		c-2.322,0-3.295,2.377-3.691,4.231c-0.396,1.873-0.432,4.25,1.891,4.25C18.776,100.694,19.749,98.299,20.145,96.444z"/>
	<path fill="#FF1E00" d="M24.391,94.572c0.27-1.26,0.342-2.269,0.324-3.079h0.864l-0.036,1.242c0.702-0.756,1.566-1.242,2.502-1.242
		c0.774,0,1.099,0.468,1.225,1.152c0.612-0.612,1.386-1.152,2.214-1.152c1.225,0,1.693,0.81,1.44,1.999l-1.638,7.724H30.44
		l1.638-7.688c0.198-0.972-0.198-1.332-0.864-1.332c-0.756,0-1.512,0.594-1.999,1.224l-1.656,7.796h-0.846l1.548-7.31
		c0.144-0.72,0.306-1.693-0.648-1.693c-0.81,0-1.692,0.667-2.161,1.387l-1.62,7.616h-0.847L24.391,94.572z"/>
	<path fill="#FF1E00" d="M35.982,95.022c0.252-1.152,0.396-2.305,0.306-3.421l0.81-0.108v1.566h0.036
		c0.684-0.99,1.729-1.566,2.845-1.566c1.584,0,3.421,1.278,2.611,5.023c-0.81,3.817-3.475,4.897-4.771,4.897
		c-0.846,0-1.638-0.288-2.179-0.811l-0.936,4.43h-0.846L35.982,95.022z M35.82,99.757c0.486,0.522,1.117,0.937,1.927,0.937
		c1.08,0,3.277-0.756,4.015-4.231c0.702-3.313-0.882-4.25-1.962-4.25c-1.261,0-2.089,0.882-2.773,1.909L35.82,99.757z"/>
	<path fill="#FF1E00" d="M53.012,91.691h0.846l-0.99,4.7c-0.342,1.62-0.63,3.241-0.648,4.825h-0.792l0.216-2.701h-0.036
		c-0.667,1.422-2.485,2.899-3.979,2.899c-1.729,0-1.891-1.566-1.584-3.007l1.422-6.716h0.847l-1.333,6.32
		c-0.378,1.801-0.126,2.683,0.9,2.683c1.405,0,3.565-1.549,4.321-5.15L53.012,91.691z"/>
	<path fill="#FF1E00" d="M63.992,92.411h-3.493l-1.386,6.5c-0.198,0.918-0.036,1.783,1.134,1.783c1.062,0,1.98-0.792,2.575-1.693
		l0.774,0.198c-0.864,1.225-2.106,2.215-3.529,2.215c-1.225,0-2.215-0.594-1.692-3.007l1.278-5.996H57.51l0.144-0.72h2.143
		l0.666-3.061h0.846l-0.666,3.061h3.493L63.992,92.411z"/>
	<path fill="#FF1E00" d="M73.91,100.55c-1.207,0.486-2.359,0.864-3.583,0.864c-2.791,0-3.295-2.503-2.773-4.916
		c0.504-2.413,2.125-5.005,4.934-5.005c1.602,0,3.241,1.152,2.413,5.095h-6.518c-0.558,3.349,0.667,4.105,2.125,4.105
		c1.081,0,2.197-0.396,3.205-0.937L73.91,100.55z M74.198,95.868c0.432-1.639-0.108-3.655-1.98-3.655
		c-1.855,0-3.385,1.981-3.691,3.655H74.198z"/>
	<path fill="#FF1E00" d="M79.488,101.216h-0.846l1.404-6.59l0.306-3.043h0.81l-0.252,2.665l0.036,0.036
		c0.864-1.314,2.179-2.791,3.817-2.791c1.584,0,1.657,1.584,1.387,2.881h-0.846c0.162-0.882,0.378-2.161-0.774-2.161
		c-0.972,0-3.439,1.513-4.213,5.132L79.488,101.216z"/>
	<path fill="#FF1E00" d="M104.274,92.411h-2.773l0.144-0.72h3.619l-2.017,9.525h-0.846L104.274,92.411z M106.363,88.936
		c-0.108,0.522-0.63,0.937-1.152,0.937c-0.522,0-0.846-0.414-0.738-0.937c0.108-0.522,0.612-0.936,1.135-0.936
		C106.129,88,106.471,88.414,106.363,88.936z"/>
	<path fill="#FF1E00" d="M111.023,101.216h-0.846l1.008-4.771c0.342-1.621,0.648-3.241,0.666-4.861h0.792l-0.252,2.737h0.036
		c0.666-1.422,2.485-2.827,3.997-2.827c1.729,0,1.891,1.494,1.585,2.935l-1.44,6.788h-0.847l1.351-6.392
		c0.234-1.098,0.559-2.611-0.918-2.611c-1.369,0-3.529,1.369-4.304,5.078L111.023,101.216z"/>
	<path fill="#FF1E00" d="M139.825,88.972h-1.8l-2.449,11.523h1.801l-0.162,0.72h-4.447l0.162-0.72h1.801l2.448-11.523h-1.801
		l0.145-0.72h4.447L139.825,88.972z"/>
	<path fill="#FF1E00" d="M144.288,101.216h-0.847l1.404-6.59l0.306-3.043h0.811l-0.252,2.665l0.036,0.036
		c0.864-1.314,2.179-2.791,3.817-2.791c1.584,0,1.656,1.584,1.386,2.881h-0.846c0.162-0.882,0.378-2.161-0.774-2.161
		c-0.973,0-3.439,1.513-4.213,5.132L144.288,101.216z"/>
	<path fill="#FF1E00" d="M158.778,101.414c-0.072-0.522-0.09-1.081-0.018-1.621c-0.864,0.954-1.711,1.621-2.953,1.621
		c-1.746,0-2.358-1.423-2.017-3.025c0.396-1.819,1.746-3.385,3.583-3.385c0.774,0,1.603,0.306,2.196,0.63
		c0.559-2.413,0.343-3.421-1.224-3.421c-0.828,0-1.585,0.288-2.413,0.63l-0.036-0.774c0.9-0.324,1.765-0.576,2.665-0.576
		c1.746,0,2.521,1.224,2.017,3.349c-0.307,1.296-0.612,2.593-0.937,3.889c-0.216,0.918-0.162,1.783-0.072,2.575L158.778,101.414z
		 M159.373,96.3c-0.522-0.306-1.188-0.576-1.945-0.576c-1.584,0-2.502,1.333-2.79,2.737c-0.234,1.062,0.107,2.233,1.314,2.233
		c1.188,0,2.106-0.955,2.898-1.927L159.373,96.3z"/>
	<path fill="#FF1E00" d="M165.022,101.216h-0.846l1.008-4.771c0.343-1.621,0.648-3.241,0.667-4.861h0.792l-0.252,2.737h0.036
		c0.666-1.422,2.484-2.827,3.997-2.827c1.729,0,1.891,1.494,1.584,2.935l-1.44,6.788h-0.846l1.351-6.392
		c0.233-1.098,0.558-2.611-0.919-2.611c-1.368,0-3.529,1.369-4.303,5.078L165.022,101.216z"/>
	<path fill="#FF1E00" d="M176.939,102.458c0.594-0.162,1.278-0.504,1.638-1.062c-0.107,0.036-0.216,0.054-0.359,0.054
		c-0.666,0-0.99-0.45-0.864-1.116c0.144-0.684,0.792-1.17,1.44-1.17c0.792,0,1.116,0.738,0.954,1.477
		c-0.288,1.296-1.765,2.25-2.971,2.575L176.939,102.458z"/>
	<path fill="#FF1E00" d="M7.58,123.414c-0.072-0.522-0.09-1.08-0.018-1.621c-0.864,0.955-1.71,1.621-2.953,1.621
		c-1.747,0-2.359-1.423-2.017-3.025c0.396-1.818,1.747-3.385,3.583-3.385c0.774,0,1.603,0.307,2.197,0.63
		c0.558-2.412,0.342-3.421-1.225-3.421c-0.828,0-1.584,0.288-2.413,0.631l-0.036-0.774c0.9-0.324,1.765-0.576,2.665-0.576
		c1.747,0,2.521,1.224,2.017,3.349c-0.306,1.297-0.612,2.593-0.937,3.89c-0.216,0.918-0.162,1.782-0.072,2.574L7.58,123.414z
		 M8.174,118.301c-0.522-0.307-1.188-0.576-1.944-0.576c-1.584,0-2.503,1.332-2.791,2.736c-0.234,1.062,0.108,2.232,1.314,2.232
		c1.188,0,2.106-0.954,2.899-1.926L8.174,118.301z"/>
	<path fill="#FF1E00" d="M13.825,123.216h-0.846l1.008-4.771c0.342-1.62,0.648-3.241,0.666-4.861h0.792l-0.252,2.736h0.036
		c0.667-1.422,2.485-2.826,3.997-2.826c1.729,0,1.891,1.494,1.585,2.935l-1.44,6.788h-0.847l1.351-6.392
		c0.234-1.099,0.558-2.611-0.918-2.611c-1.368,0-3.529,1.369-4.303,5.078L13.825,123.216z"/>
	<path fill="#FF1E00" d="M30.818,119.867c-0.252,1.17-0.414,2.322-0.306,3.438l-0.81,0.108l-0.018-1.566
		c-0.72,0.99-1.747,1.566-2.863,1.566c-1.603,0-3.421-1.314-2.629-5.023c0.81-3.817,3.475-4.897,4.79-4.897
		c0.846,0,1.62,0.288,2.161,0.81l0.954-4.447h0.846L30.818,119.867z M30.962,115.149c-0.486-0.522-1.134-0.937-1.927-0.937
		c-1.08,0-3.259,0.738-4.015,4.231c-0.702,3.295,0.882,4.249,1.963,4.249c1.206,0,2.178-0.882,2.791-1.908L30.962,115.149z"/>
	<path fill="#FF1E00" d="M53.192,114.411h-3.493l-1.386,6.5c-0.198,0.918-0.036,1.782,1.134,1.782c1.062,0,1.98-0.792,2.575-1.692
		l0.774,0.198c-0.864,1.225-2.106,2.215-3.529,2.215c-1.225,0-2.215-0.595-1.692-3.007l1.278-5.996H46.71l0.144-0.72h2.143
		l0.666-3.062h0.846l-0.666,3.062h3.493L53.192,114.411z"/>
	<path fill="#FF1E00" d="M59.185,109.855h0.846l-1.26,5.906h0.036c0.828-1.188,2.214-2.269,3.655-2.269
		c0.882,0,2.125,0.702,1.675,2.791l-1.477,6.932h-0.846l1.278-5.978c0.252-1.207,0.468-3.025-0.937-3.025
		c-1.602,0-3.475,1.999-3.943,4.214l-1.026,4.789H56.34L59.185,109.855z"/>
	<path fill="#FF1E00" d="M73.91,122.55c-1.207,0.486-2.359,0.864-3.583,0.864c-2.791,0-3.295-2.503-2.773-4.916
		c0.504-2.412,2.125-5.005,4.934-5.005c1.602,0,3.241,1.152,2.413,5.096h-6.518c-0.558,3.349,0.667,4.104,2.125,4.104
		c1.081,0,2.197-0.396,3.205-0.936L73.91,122.55z M74.198,117.868c0.432-1.639-0.108-3.655-1.98-3.655
		c-1.855,0-3.385,1.98-3.691,3.655H74.198z"/>
	<path fill="#FF1E00" d="M86.834,113.691l-5.474,9.057c-0.792,1.296-2.071,3.511-3.745,3.511c-1.081,0-1.692-0.847-1.8-1.818
		l0.792-0.378c0.09,0.647,0.378,1.476,1.17,1.476c0.918,0,1.621-1.062,2.088-1.782l1.062-1.639l-1.314-8.426h0.937l1.026,7.31
		l4.285-7.31H86.834z"/>
	<path fill="#FF1E00" d="M95.401,110.252l-0.432,1.999l-0.991,2.431h-0.72l0.018-2.431l0.432-1.999H95.401z"/>
	<path fill="#FF1E00" d="M106.417,119.867c-0.252,1.17-0.414,2.322-0.306,3.438l-0.81,0.108l-0.018-1.566
		c-0.72,0.99-1.747,1.566-2.863,1.566c-1.603,0-3.421-1.314-2.629-5.023c0.81-3.817,3.475-4.897,4.79-4.897
		c0.846,0,1.62,0.288,2.161,0.81l0.954-4.447h0.846L106.417,119.867z M106.561,115.149c-0.486-0.522-1.134-0.937-1.927-0.937
		c-1.08,0-3.259,0.738-4.015,4.231c-0.702,3.295,0.882,4.249,1.963,4.249c1.206,0,2.178-0.882,2.791-1.908L106.561,115.149z"/>
	<path fill="#FF1E00" d="M123.984,109.855h0.847l-1.261,5.906h0.036c0.828-1.188,2.215-2.269,3.655-2.269
		c0.882,0,2.124,0.702,1.674,2.791l-1.477,6.932h-0.846l1.278-5.978c0.252-1.207,0.468-3.025-0.937-3.025
		c-1.603,0-3.475,1.999-3.943,4.214l-1.026,4.789h-0.846L123.984,109.855z"/>
	<path fill="#FF1E00" d="M137.178,123.414c-0.072-0.522-0.09-1.08-0.018-1.621c-0.864,0.955-1.711,1.621-2.953,1.621
		c-1.746,0-2.358-1.423-2.017-3.025c0.396-1.818,1.746-3.385,3.583-3.385c0.774,0,1.603,0.307,2.196,0.63
		c0.559-2.412,0.343-3.421-1.224-3.421c-0.828,0-1.585,0.288-2.413,0.631l-0.036-0.774c0.9-0.324,1.765-0.576,2.665-0.576
		c1.746,0,2.521,1.224,2.017,3.349c-0.307,1.297-0.612,2.593-0.937,3.89c-0.216,0.918-0.162,1.782-0.072,2.574L137.178,123.414z
		 M137.773,118.301c-0.522-0.307-1.188-0.576-1.945-0.576c-1.584,0-2.502,1.332-2.79,2.736c-0.234,1.062,0.107,2.232,1.314,2.232
		c1.188,0,2.106-0.954,2.898-1.926L137.773,118.301z"/>
	<path fill="#FF1E00" d="M151.291,113.691l-5.042,9.65h-0.99l-0.972-9.65h0.899l0.829,8.372l4.375-8.372H151.291z"/>
	<path fill="#FF1E00" d="M160.308,122.55c-1.206,0.486-2.358,0.864-3.583,0.864c-2.791,0-3.295-2.503-2.772-4.916
		c0.504-2.412,2.125-5.005,4.934-5.005c1.603,0,3.241,1.152,2.412,5.096h-6.518c-0.558,3.349,0.666,4.104,2.125,4.104
		c1.08,0,2.196-0.396,3.205-0.936L160.308,122.55z M160.596,117.868c0.433-1.639-0.107-3.655-1.98-3.655
		c-1.854,0-3.385,1.98-3.69,3.655H160.596z"/>
	<path fill="#FF1E00" d="M182.79,114.411h-3.493l-1.387,6.5c-0.198,0.918-0.036,1.782,1.135,1.782c1.062,0,1.98-0.792,2.574-1.692
		l0.774,0.198c-0.864,1.225-2.106,2.215-3.529,2.215c-1.224,0-2.214-0.595-1.692-3.007l1.278-5.996h-2.143l0.145-0.72h2.143
		l0.666-3.062h0.847l-0.667,3.062h3.493L182.79,114.411z"/>
	<path fill="#FF1E00" d="M186.496,118.444c0.793-3.709,2.972-4.951,4.7-4.951c1.584,0,3.421,1.062,2.593,4.951
		c-0.811,3.871-3.098,4.97-4.7,4.97C187.487,123.414,185.667,122.334,186.496,118.444z M192.942,118.444
		c0.396-1.854,0.433-4.231-1.908-4.231c-2.323,0-3.295,2.377-3.691,4.231c-0.396,1.873-0.432,4.249,1.891,4.249
		C191.574,122.693,192.545,120.299,192.942,118.444z"/>
	<path fill="#FF1E00" d="M3.889,145.216H3.043l1.404-6.59l0.306-3.043h0.81l-0.252,2.665l0.036,0.036
		c0.864-1.314,2.179-2.791,3.817-2.791c1.584,0,1.657,1.584,1.387,2.881H9.705c0.162-0.883,0.378-2.161-0.774-2.161
		c-0.972,0-3.439,1.513-4.213,5.132L3.889,145.216z"/>
	<path fill="#FF1E00" d="M19.911,144.55c-1.207,0.486-2.359,0.864-3.583,0.864c-2.791,0-3.295-2.503-2.773-4.916
		c0.504-2.412,2.125-5.005,4.934-5.005c1.602,0,3.241,1.152,2.413,5.096h-6.518c-0.558,3.349,0.667,4.104,2.125,4.104
		c1.081,0,2.197-0.396,3.205-0.936L19.911,144.55z M20.199,139.868c0.432-1.639-0.108-3.655-1.98-3.655
		c-1.855,0-3.385,1.98-3.691,3.655H20.199z"/>
	<path fill="#FF1E00" d="M25.183,139.021c0.252-1.152,0.396-2.305,0.306-3.421l0.81-0.107v1.566h0.036
		c0.684-0.99,1.729-1.566,2.845-1.566c1.584,0,3.421,1.278,2.611,5.023c-0.81,3.817-3.475,4.897-4.771,4.897
		c-0.846,0-1.638-0.288-2.179-0.811l-0.936,4.43h-0.846L25.183,139.021z M25.02,143.758c0.486,0.521,1.117,0.936,1.927,0.936
		c1.08,0,3.277-0.756,4.015-4.23c0.702-3.313-0.882-4.25-1.962-4.25c-1.261,0-2.089,0.883-2.773,1.909L25.02,143.758z"/>
	<path fill="#FF1E00" d="M40.16,132.576h-2.809l0.162-0.721h3.655l-2.845,13.36h-0.846L40.16,132.576z"/>
	<path fill="#FF1E00" d="M50.779,145.414c-0.072-0.522-0.09-1.08-0.018-1.621c-0.864,0.955-1.71,1.621-2.953,1.621
		c-1.747,0-2.359-1.423-2.017-3.025c0.396-1.818,1.747-3.385,3.583-3.385c0.774,0,1.603,0.307,2.197,0.63
		c0.558-2.412,0.342-3.421-1.225-3.421c-0.828,0-1.584,0.288-2.413,0.631l-0.036-0.774c0.9-0.324,1.765-0.576,2.665-0.576
		c1.747,0,2.521,1.224,2.017,3.349c-0.306,1.297-0.612,2.593-0.937,3.89c-0.216,0.918-0.162,1.782-0.072,2.574L50.779,145.414z
		 M51.374,140.301c-0.522-0.307-1.188-0.576-1.944-0.576c-1.584,0-2.503,1.332-2.791,2.736c-0.234,1.062,0.108,2.232,1.314,2.232
		c1.188,0,2.106-0.954,2.899-1.926L51.374,140.301z"/>
	<path fill="#FF1E00" d="M63.416,143.812c-1.099,0.954-2.143,1.603-3.493,1.603c-1.674,0-3.763-1.045-2.953-4.861
		c0.829-3.854,3.205-5.06,4.988-5.06c1.44,0,2.341,0.756,2.863,1.927l-0.864,0.504c-0.288-0.99-0.99-1.711-2.161-1.711
		c-1.188,0-3.205,0.738-3.943,4.195c-0.702,3.277,0.811,4.285,2.197,4.285c1.044,0,2.106-0.72,2.917-1.494L63.416,143.812z"/>
	<path fill="#FF1E00" d="M73.91,144.55c-1.207,0.486-2.359,0.864-3.583,0.864c-2.791,0-3.295-2.503-2.773-4.916
		c0.504-2.412,2.125-5.005,4.934-5.005c1.602,0,3.241,1.152,2.413,5.096h-6.518c-0.558,3.349,0.667,4.104,2.125,4.104
		c1.081,0,2.197-0.396,3.205-0.936L73.91,144.55z M74.198,139.868c0.432-1.639-0.108-3.655-1.98-3.655
		c-1.855,0-3.385,1.98-3.691,3.655H74.198z"/>
	<path fill="#FF1E00" d="M96.392,136.411h-3.493l-1.386,6.5c-0.198,0.918-0.036,1.782,1.134,1.782c1.062,0,1.98-0.792,2.575-1.692
		l0.774,0.198c-0.864,1.225-2.106,2.215-3.529,2.215c-1.225,0-2.215-0.595-1.692-3.007l1.278-5.996H89.91l0.144-0.72h2.143
		l0.666-3.062h0.846l-0.666,3.062h3.493L96.392,136.411z"/>
	<path fill="#FF1E00" d="M102.384,131.855h0.846l-1.26,5.906h0.036c0.828-1.188,2.214-2.269,3.655-2.269
		c0.882,0,2.125,0.702,1.675,2.791l-1.477,6.932h-0.846l1.278-5.978c0.252-1.207,0.468-3.025-0.937-3.025
		c-1.602,0-3.475,1.999-3.943,4.214l-1.026,4.789h-0.846L102.384,131.855z"/>
	<path fill="#FF1E00" d="M117.109,144.55c-1.206,0.486-2.358,0.864-3.583,0.864c-2.791,0-3.295-2.503-2.773-4.916
		c0.504-2.412,2.125-5.005,4.933-5.005c1.603,0,3.241,1.152,2.413,5.096h-6.518c-0.558,3.349,0.667,4.104,2.125,4.104
		c1.08,0,2.197-0.396,3.205-0.936L117.109,144.55z M117.397,139.868c0.432-1.639-0.108-3.655-1.98-3.655
		c-1.854,0-3.385,1.98-3.691,3.655H117.397z"/>
	<path fill="#FF1E00" d="M121.589,138.572c0.27-1.261,0.342-2.27,0.324-3.079h0.864l-0.036,1.242
		c0.702-0.756,1.566-1.242,2.503-1.242c0.773,0,1.098,0.468,1.224,1.152c0.612-0.612,1.387-1.152,2.215-1.152
		c1.225,0,1.692,0.81,1.44,1.998l-1.639,7.725h-0.846l1.639-7.688c0.197-0.972-0.198-1.332-0.864-1.332
		c-0.757,0-1.513,0.594-1.999,1.225l-1.656,7.796h-0.847l1.549-7.311c0.144-0.72,0.306-1.692-0.648-1.692
		c-0.811,0-1.692,0.666-2.16,1.387l-1.621,7.616h-0.846L121.589,138.572z"/>
	<path fill="#FF1E00" d="M138.601,132.252l-0.433,1.999l-0.99,2.431h-0.72l0.018-2.431l0.433-1.999H138.601z"/>
	<path fill="#FF1E00" d="M155.771,139.112l0.162-0.721h4.249l-0.162,0.721H155.771z"/>
	<path fill="#FF1E00" d="M175.823,145.216h-0.847l1.008-4.771c0.343-1.62,0.648-3.241,0.667-4.861h0.792l-0.252,2.736h0.036
		c0.666-1.422,2.484-2.826,3.997-2.826c1.729,0,1.891,1.494,1.584,2.935l-1.44,6.788h-0.846l1.35-6.392
		c0.234-1.099,0.559-2.611-0.918-2.611c-1.368,0-3.529,1.369-4.303,5.078L175.823,145.216z"/>
	<path fill="#FF1E00" d="M186.496,140.444c0.793-3.709,2.972-4.951,4.7-4.951c1.584,0,3.421,1.062,2.593,4.951
		c-0.811,3.871-3.098,4.97-4.7,4.97C187.487,145.414,185.667,144.334,186.496,140.444z M192.942,140.444
		c0.396-1.854,0.433-4.231-1.908-4.231c-2.323,0-3.295,2.377-3.691,4.231c-0.396,1.873-0.432,4.249,1.891,4.249
		C191.574,144.693,192.545,142.299,192.942,140.444z"/>
	<path fill="#FF1E00" d="M204.39,136.411h-3.493l-1.387,6.5c-0.198,0.918-0.036,1.782,1.135,1.782c1.062,0,1.98-0.792,2.574-1.692
		l0.774,0.198c-0.864,1.225-2.106,2.215-3.529,2.215c-1.224,0-2.214-0.595-1.692-3.007l1.278-5.996h-2.143l0.145-0.72h2.143
		l0.666-3.062h0.847l-0.667,3.062h3.493L204.39,136.411z"/>
	<path fill="#FF1E00" d="M7.58,167.414c-0.072-0.522-0.09-1.08-0.018-1.621c-0.864,0.955-1.71,1.621-2.953,1.621
		c-1.747,0-2.359-1.423-2.017-3.025c0.396-1.818,1.747-3.385,3.583-3.385c0.774,0,1.603,0.307,2.197,0.63
		c0.558-2.412,0.342-3.421-1.225-3.421c-0.828,0-1.584,0.288-2.413,0.631l-0.036-0.774c0.9-0.324,1.765-0.576,2.665-0.576
		c1.747,0,2.521,1.224,2.017,3.349c-0.306,1.297-0.612,2.593-0.937,3.89c-0.216,0.918-0.162,1.782-0.072,2.574L7.58,167.414z
		 M8.174,162.301c-0.522-0.307-1.188-0.576-1.944-0.576c-1.584,0-2.503,1.332-2.791,2.736c-0.234,1.062,0.108,2.232,1.314,2.232
		c1.188,0,2.106-0.954,2.899-1.926L8.174,162.301z"/>
	<path fill="#FF1E00" d="M25.183,161.021c0.252-1.152,0.396-2.305,0.306-3.421l0.81-0.107v1.566h0.036
		c0.684-0.99,1.729-1.566,2.845-1.566c1.584,0,3.421,1.278,2.611,5.023c-0.81,3.817-3.475,4.897-4.771,4.897
		c-0.846,0-1.638-0.288-2.179-0.811l-0.936,4.43h-0.846L25.183,161.021z M25.02,165.758c0.486,0.521,1.117,0.936,1.927,0.936
		c1.08,0,3.277-0.756,4.015-4.23c0.702-3.313-0.882-4.25-1.962-4.25c-1.261,0-2.089,0.883-2.773,1.909L25.02,165.758z"/>
	<path fill="#FF1E00" d="M36.289,167.216h-0.846l1.404-6.59l0.306-3.043h0.81l-0.252,2.665l0.036,0.036
		c0.864-1.314,2.179-2.791,3.817-2.791c1.584,0,1.657,1.584,1.387,2.881h-0.846c0.162-0.883,0.378-2.161-0.774-2.161
		c-0.972,0-3.439,1.513-4.213,5.132L36.289,167.216z"/>
	<path fill="#FF1E00" d="M46.098,162.444c0.792-3.709,2.971-4.951,4.699-4.951c1.584,0,3.421,1.062,2.593,4.951
		c-0.81,3.871-3.097,4.97-4.699,4.97S45.27,166.334,46.098,162.444z M52.544,162.444c0.396-1.854,0.432-4.231-1.909-4.231
		c-2.322,0-3.295,2.377-3.691,4.231c-0.396,1.873-0.432,4.249,1.891,4.249C51.176,166.693,52.148,164.299,52.544,162.444z"/>
	<path fill="#FF1E00" d="M59.959,153.855l-0.955,4.447c0.756-0.521,1.675-0.81,2.521-0.81c1.314,0,3.511,1.08,2.701,4.897
		c-0.792,3.709-3.169,5.023-4.753,5.023c-1.116,0-1.927-0.576-2.215-1.566l-0.666,1.566l-0.774-0.108
		c0.576-1.116,0.918-2.269,1.17-3.438l2.125-10.012H59.959z M57.636,164.785c0.252,1.026,0.702,1.908,1.962,1.908
		c1.081,0,3.061-0.936,3.763-4.249c0.756-3.493-1.134-4.231-2.215-4.231c-0.81,0-1.62,0.414-2.322,0.937L57.636,164.785z"/>
	<path fill="#FF1E00" d="M72.559,154.576H69.75l0.162-0.721h3.655l-2.845,13.36h-0.846L72.559,154.576z"/>
	<path fill="#FF1E00" d="M84.709,166.55c-1.207,0.486-2.359,0.864-3.583,0.864c-2.791,0-3.295-2.503-2.773-4.916
		c0.504-2.412,2.125-5.005,4.934-5.005c1.602,0,3.241,1.152,2.413,5.096h-6.518c-0.558,3.349,0.667,4.104,2.125,4.104
		c1.081,0,2.197-0.396,3.205-0.936L84.709,166.55z M84.998,161.868c0.432-1.639-0.108-3.655-1.98-3.655
		c-1.855,0-3.385,1.98-3.691,3.655H84.998z"/>
	<path fill="#FF1E00" d="M89.189,160.572c0.27-1.261,0.342-2.27,0.324-3.079h0.864l-0.036,1.242
		c0.702-0.756,1.566-1.242,2.502-1.242c0.774,0,1.099,0.468,1.225,1.152c0.612-0.612,1.386-1.152,2.214-1.152
		c1.225,0,1.693,0.81,1.44,1.998l-1.638,7.725h-0.846l1.638-7.688c0.198-0.972-0.198-1.332-0.864-1.332
		c-0.756,0-1.512,0.594-1.999,1.225l-1.656,7.796h-0.846l1.548-7.311c0.144-0.72,0.306-1.692-0.648-1.692
		c-0.81,0-1.692,0.666-2.161,1.387l-1.62,7.616h-0.847L89.189,160.572z"/>
	<path fill="#FF1E00" d="M103.068,165.037c0.667,0,1.099,0.559,0.955,1.225s-0.811,1.206-1.477,1.206
		c-0.667,0-1.098-0.54-0.955-1.206C101.736,165.596,102.402,165.037,103.068,165.037z"/>
	<path fill="#FF1E00" d="M115.272,154.252l-0.504,2.341l-1.242,2.322h-0.973l-0.27-2.322l0.504-2.341H115.272z M119.522,154.252
		l-0.505,2.341l-1.242,2.322h-0.973l-0.27-2.322l0.504-2.341H119.522z"/>
	<path fill="#FF0000" d="M2.549,184.467v-0.56h3.306v0.56H2.549z"/>
	<path fill="#FF0000" d="M23.229,179.131v6.892c0,2.437-0.883,3.39-2.718,3.39c-1.625,0-2.521-0.869-2.521-3.236v-1.078h0.659v1.442
		c0,1.598,0.574,2.325,1.849,2.312c1.429-0.028,2.073-0.925,2.073-2.312v-6.85h-1.905v-0.56H23.229z"/>
	<path fill="#FF0000" d="M26.572,185.504c0-2.886,1.485-3.853,2.83-3.853c1.233,0,2.844,0.827,2.844,3.853
		c0,3.012-1.597,3.866-2.844,3.866S26.572,188.529,26.572,185.504z M31.587,185.504c0-1.443-0.364-3.292-2.186-3.292
		c-1.807,0-2.171,1.849-2.171,3.292c0,1.457,0.364,3.306,2.171,3.306C31.223,188.81,31.587,186.946,31.587,185.504z"/>
	<path fill="#FF0000" d="M35.953,189.216h-0.658v-3.712c0-1.261-0.042-2.521-0.294-3.782h0.616l0.266,2.129h0.028
		c0.28-1.106,1.457-2.199,2.634-2.199c1.345,0,1.723,1.163,1.723,2.283v5.281h-0.658v-4.973c0-0.854,0-2.031-1.148-2.031
		c-1.065,0-2.508,1.064-2.508,3.95V189.216z"/>
	<path fill="#FF0000" d="M54.111,179.522c-0.434,0.126-0.911,0.393-1.092,0.826c0.098-0.014,0.182-0.042,0.266-0.042
		c0.518,0,0.854,0.351,0.854,0.869c0,0.532-0.42,0.91-0.925,0.91c-0.616,0-0.98-0.574-0.98-1.148c0-1.009,0.995-1.751,1.877-2.003
		V179.522z M57.235,179.522c-0.434,0.126-0.91,0.393-1.092,0.826c0.098-0.014,0.182-0.042,0.266-0.042
		c0.518,0,0.854,0.351,0.854,0.869c0,0.532-0.42,0.91-0.925,0.91c-0.616,0-0.98-0.574-0.98-1.148c0-1.009,0.995-1.751,1.877-2.003
		V179.522z"/>
	<path fill="#FF0000" d="M60.999,183.697h3.992v-4.566h0.658v10.085h-0.658v-4.959h-3.992v4.959H60.34v-10.085h0.658V183.697z"/>
	<path fill="#FF0000" d="M73.265,181.806h0.658v3.656c0,1.261,0.042,2.521,0.294,3.754h-0.616l-0.28-2.102h-0.028
		c-0.28,1.107-1.457,2.256-2.619,2.256c-1.345,0-1.723-1.219-1.723-2.34v-5.225h0.658v4.917c0,1.4,0.35,2.087,1.149,2.087
		c1.092,0,2.507-1.205,2.507-4.006V181.806z"/>
	<path fill="#FF0000" d="M76.678,184.047c0-0.98-0.112-1.765-0.266-2.396h0.672l0.182,0.967c0.42-0.588,1.008-0.967,1.737-0.967
		c0.603,0,0.938,0.364,1.148,0.896c0.378-0.476,0.883-0.896,1.527-0.896c0.953,0,1.457,0.631,1.457,1.556v6.009h-0.658v-5.981
		c0-0.756-0.364-1.036-0.883-1.036c-0.588,0-1.079,0.462-1.358,0.952v6.065h-0.659v-5.688c0-0.56-0.042-1.316-0.784-1.316
		c-0.63,0-1.205,0.519-1.457,1.079v5.925h-0.658V184.047z"/>
	<path fill="#FF0000" d="M85.764,184.397c0-0.896-0.07-1.793-0.336-2.662l0.616-0.084l0.252,1.219h0.028
		c0.378-0.771,1.093-1.219,1.961-1.219c1.233,0,2.872,0.995,2.872,3.908c0,2.97-1.905,3.811-2.914,3.811
		c-0.658,0-1.316-0.225-1.821-0.631v3.446h-0.658V184.397z M86.422,188.081c0.462,0.406,1.022,0.729,1.653,0.729
		c0.84,0,2.423-0.588,2.423-3.292c0-2.577-1.387-3.306-2.227-3.306c-0.98,0-1.485,0.687-1.849,1.485V188.081z"/>
	<path fill="#FF0000" d="M99.374,188.697c-0.854,0.379-1.695,0.673-2.647,0.673c-2.171,0-2.969-1.947-2.969-3.824
		s0.826-3.895,3.011-3.895c1.247,0,2.718,0.896,2.718,3.965h-5.071c0.126,2.605,1.205,3.193,2.339,3.193
		c0.84,0,1.639-0.309,2.339-0.729L99.374,188.697z M98.829,185.056c0.07-1.274-0.687-2.844-2.144-2.844
		c-1.442,0-2.311,1.541-2.269,2.844H98.829z"/>
	<path fill="#FF0000" d="M103.825,189.216h-0.659v-5.127l-0.266-2.367h0.63l0.252,2.102c0.491-1.022,1.261-2.172,2.536-2.172
		c1.232,0,1.555,1.233,1.555,2.241h-0.658c-0.014-0.686-0.056-1.681-0.953-1.681c-0.756,0-2.437,1.177-2.437,3.992V189.216z"/>
	<path fill="#FF0000" d="M115.81,186.61c0,0.91,0.07,1.807,0.337,2.676l-0.617,0.084l-0.266-1.219
		c-0.393,0.771-1.106,1.219-1.976,1.219c-1.246,0-2.871-1.022-2.871-3.908c0-2.97,1.891-3.811,2.913-3.811
		c0.659,0,1.317,0.225,1.821,0.631v-3.46h0.658V186.61z M115.152,182.94c-0.462-0.406-1.036-0.729-1.652-0.729
		c-0.841,0-2.424,0.574-2.424,3.292c0,2.563,1.387,3.306,2.228,3.306c0.938,0,1.541-0.687,1.849-1.484V182.94z"/>
	<path fill="#FF0000" d="M121.646,182.366h-2.157v-0.561h2.816v7.41h-0.659V182.366z M122.697,179.663
		c0,0.406-0.336,0.728-0.742,0.728s-0.729-0.321-0.729-0.728s0.322-0.729,0.729-0.729S122.697,179.257,122.697,179.663z"/>
	<path fill="#FF0000" d="M128.351,189.216h-0.658v-3.712c0-1.261-0.042-2.521-0.295-3.782h0.616l0.267,2.129h0.028
		c0.28-1.106,1.456-2.199,2.633-2.199c1.345,0,1.724,1.163,1.724,2.283v5.281h-0.659v-4.973c0-0.854,0-2.031-1.148-2.031
		c-1.064,0-2.507,1.064-2.507,3.95V189.216z"/>
	<path fill="#FF0000" d="M141.233,181.806c-1.471,1.765-1.892,2.354-2.956,3.376l3.586,4.034h-0.882l-3.096-3.656l-0.701,0.687v2.97
		h-0.658v-10.394h0.658v6.64c1.149-1.093,2.283-2.312,3.194-3.656H141.233z"/>
	<path fill="#FF0000" d="M144.66,181.498c0.434-0.127,0.91-0.393,1.093-0.827c-0.099,0.015-0.183,0.042-0.267,0.042
		c-0.519,0-0.854-0.35-0.854-0.868c0-0.532,0.42-0.91,0.925-0.91c0.616,0,0.98,0.574,0.98,1.148c0,1.009-0.995,1.751-1.877,2.003
		V181.498z M147.783,181.498c0.435-0.127,0.911-0.393,1.093-0.827c-0.098,0.015-0.182,0.042-0.266,0.042
		c-0.519,0-0.854-0.35-0.854-0.868c0-0.532,0.42-0.91,0.924-0.91c0.616,0,0.98,0.574,0.98,1.148c0,1.009-0.994,1.751-1.877,2.003
		V181.498z"/>
	<path fill="#FF0000" d="M166.094,179.131h0.729v10.085h-0.658v-8.755h-0.027l-2.34,5.604l-2.339-5.604l-0.028,0.028v8.727h-0.658
		v-10.085h0.729l2.297,5.547L166.094,179.131z"/>
	<path fill="#FF0000" d="M172.042,182.366h-2.157v-0.561h2.816v7.41h-0.659V182.366z M173.093,179.663
		c0,0.406-0.336,0.728-0.742,0.728s-0.729-0.321-0.729-0.728s0.322-0.729,0.729-0.729S173.093,179.257,173.093,179.663z"/>
	<path fill="#FF0000" d="M180.344,179.383h-2.186v-0.561h2.844v10.394h-0.658V179.383z"/>
	<path fill="#FF0000" d="M188.744,179.383h-2.186v-0.561h2.844v10.394h-0.658V179.383z"/>
	<path fill="#FF0000" d="M200.168,188.697c-0.854,0.379-1.694,0.673-2.647,0.673c-2.171,0-2.97-1.947-2.97-3.824
		s0.827-3.895,3.012-3.895c1.247,0,2.718,0.896,2.718,3.965h-5.071c0.127,2.605,1.205,3.193,2.34,3.193
		c0.841,0,1.639-0.309,2.339-0.729L200.168,188.697z M199.623,185.056c0.069-1.274-0.687-2.844-2.144-2.844
		c-1.442,0-2.312,1.541-2.27,2.844H199.623z"/>
	<path fill="#FF0000" d="M204.618,189.216h-0.658v-5.127l-0.266-2.367h0.63l0.252,2.102c0.49-1.022,1.261-2.172,2.535-2.172
		c1.233,0,1.556,1.233,1.556,2.241h-0.659c-0.014-0.686-0.056-1.681-0.952-1.681c-0.756,0-2.438,1.177-2.438,3.992V189.216z"/>
</g>
<path fill="#FF1E00" d="M-13.366,0l-0.504,2.341l-1.242,2.322h-0.973l-0.27-2.322L-15.851,0H-13.366z M-9.116,0l-0.505,2.341
	l-1.242,2.322h-0.973l-0.27-2.322L-11.602,0H-9.116z"/>
</svg>
