<?xml version="1.0" encoding="utf-8"?>
<!-- Generator: Adobe Illustrator 17.0.0, SVG Export Plug-In . SVG Version: 6.00 Build 0)  -->
<!DOCTYPE svg PUBLIC "-//W3C//DTD SVG 1.1//EN" "http://www.w3.org/Graphics/SVG/1.1/DTD/svg11.dtd">
<svg version="1.1" id="Layer_1" xmlns="http://www.w3.org/2000/svg" xmlns:xlink="http://www.w3.org/1999/xlink" x="0px" y="0px"
	 width="492.637px" height="115.529px" viewBox="-403.316 0 492.637 115.529" enable-background="new -403.316 0 492.637 115.529"
	 xml:space="preserve">
<g>
	<path fill="#FF0000" d="M-396.676,0l-1.12,5.199l-2.76,5.159h-2.16l-0.6-5.159l1.12-5.199H-396.676z M-387.238,0l-1.12,5.199
		l-2.76,5.159h-2.16l-0.6-5.159l1.12-5.199H-387.238z"/>
</g>
<g>
	<path fill="#FF1E00" d="M-364.116,20.039h0.06l5.37-19.29h1.65l-6.299,21.81h-1.89l-0.87-10.859l-5.399,10.859h-1.89l2.94-21.81
		h1.65l-2.85,19.29h0.06l6.27-12L-364.116,20.039z"/>
	<path fill="#FF1E00" d="M-344.047,21.239c-2.01,0.811-3.93,1.44-5.97,1.44c-4.649,0-5.49-4.17-4.62-8.189
		c0.84-4.021,3.54-8.34,8.22-8.34c2.67,0,5.4,1.92,4.02,8.489h-10.859c-0.93,5.58,1.11,6.84,3.54,6.84c1.8,0,3.66-0.66,5.34-1.56
		L-344.047,21.239z M-343.567,13.44c0.72-2.73-0.18-6.09-3.3-6.09c-3.09,0-5.64,3.3-6.149,6.09H-343.567z"/>
	<path fill="#FF1E00" d="M-307.868,16.769c-0.42,1.95-0.69,3.87-0.51,5.73l-1.35,0.18l-0.03-2.61c-1.2,1.65-2.91,2.61-4.77,2.61
		c-2.67,0-5.7-2.19-4.38-8.37c1.35-6.359,5.79-8.159,7.979-8.159c1.41,0,2.7,0.479,3.6,1.35l1.59-7.409h1.41L-307.868,16.769z
		 M-307.628,8.91c-0.81-0.87-1.89-1.56-3.209-1.56c-1.8,0-5.43,1.229-6.69,7.05c-1.17,5.489,1.47,7.079,3.27,7.079
		c2.01,0,3.63-1.47,4.65-3.18L-307.628,8.91z"/>
	<path fill="#FF1E00" d="M-300.398,14.4c1.32-6.181,4.95-8.25,7.83-8.25c2.64,0,5.7,1.77,4.32,8.25
		c-1.35,6.449-5.16,8.279-7.83,8.279S-301.778,20.879-300.398,14.4z M-289.658,14.4c0.66-3.09,0.72-7.05-3.18-7.05
		c-3.87,0-5.49,3.96-6.15,7.05c-0.66,3.119-0.72,7.079,3.15,7.079C-291.938,21.479-290.318,17.49-289.658,14.4z"/>
	<path fill="#FF1E00" d="M-282.188,22.349h-1.41l1.68-7.949c0.57-2.7,1.08-5.4,1.11-8.101h1.32l-0.42,4.561h0.06
		c1.11-2.37,4.14-4.71,6.66-4.71c2.88,0,3.15,2.49,2.64,4.89l-2.4,11.31h-1.41l2.25-10.649c0.39-1.83,0.93-4.35-1.53-4.35
		c-2.28,0-5.88,2.279-7.169,8.459L-282.188,22.349z"/>
	<path fill="#FF1E00" d="M-258.369,5.82c0.99-0.27,2.13-0.84,2.73-1.77c-0.24,0.029-0.42,0.09-0.6,0.09c-1.11,0-1.68-0.75-1.44-1.86
		c0.24-1.14,1.32-1.95,2.4-1.95c1.32,0,1.86,1.23,1.59,2.46c-0.45,2.16-2.94,3.75-4.95,4.29L-258.369,5.82z"/>
	<path fill="#FF1E00" d="M-234.579,7.68h-5.82l-2.31,10.829c-0.33,1.53-0.06,2.97,1.89,2.97c1.77,0,3.3-1.319,4.29-2.819l1.29,0.33
		c-1.44,2.039-3.51,3.689-5.88,3.689c-2.04,0-3.689-0.99-2.82-5.01l2.13-9.989h-3.57l0.24-1.2h3.57l1.11-5.1h1.41l-1.11,5.1h5.82
		L-234.579,7.68z"/>
	<path fill="#FF1E00" d="M-208.75,22.349h-1.41l2.34-10.979l0.51-5.07h1.35l-0.42,4.44l0.06,0.06c1.44-2.189,3.63-4.649,6.36-4.649
		c2.64,0,2.76,2.64,2.31,4.8h-1.41c0.27-1.47,0.63-3.6-1.29-3.6c-1.62,0-5.73,2.52-7.02,8.549L-208.75,22.349z"/>
	<path fill="#FF1E00" d="M-182.051,21.239c-2.01,0.811-3.93,1.44-5.97,1.44c-4.65,0-5.49-4.17-4.62-8.189
		c0.84-4.021,3.54-8.34,8.22-8.34c2.67,0,5.4,1.92,4.02,8.489h-10.859c-0.93,5.58,1.11,6.84,3.54,6.84c1.8,0,3.66-0.66,5.34-1.56
		L-182.051,21.239z M-181.571,13.44c0.72-2.73-0.18-6.09-3.3-6.09c-3.09,0-5.64,3.3-6.149,6.09H-181.571z"/>
	<path fill="#FF1E00" d="M-167.801,28.708l1.56-7.379c-1.29,0.869-2.79,1.35-4.2,1.35c-2.16,0-5.88-1.8-4.53-8.16
		c1.35-6.239,5.28-8.369,7.95-8.369c1.86,0,3.18,0.96,3.63,2.609h0.06l1.11-2.609l1.29,0.18c-0.99,1.86-1.5,3.78-1.92,5.7
		l-3.54,16.679H-167.801z M-163.932,10.53c-0.45-1.71-1.23-3.18-3.33-3.18c-1.8,0-5.1,1.59-6.27,7.079
		c-1.23,5.79,1.89,7.05,3.69,7.05c1.32,0,2.7-0.689,3.9-1.56L-163.932,10.53z"/>
	<path fill="#FF1E00" d="M-144.882,6.48h1.41l-1.65,7.829c-0.57,2.7-1.05,5.4-1.08,8.04h-1.32l0.36-4.5h-0.06
		c-1.11,2.37-4.14,4.83-6.629,4.83c-2.88,0-3.15-2.61-2.64-5.01l2.37-11.189h1.41l-2.22,10.529c-0.63,3-0.21,4.47,1.5,4.47
		c2.34,0,5.939-2.58,7.2-8.579L-144.882,6.48z"/>
	<path fill="#FF1E00" d="M-131.442,7.68h-4.62l0.24-1.2h6.03l-3.36,15.869h-1.41L-131.442,7.68z M-127.962,1.89
		c-0.18,0.87-1.05,1.56-1.92,1.56c-0.87,0-1.41-0.689-1.23-1.56c0.18-0.87,1.02-1.561,1.89-1.561
		C-128.352,0.33-127.783,1.02-127.962,1.89z"/>
	<path fill="#FF1E00" d="M-118.753,22.349h-1.41l2.34-10.979l0.51-5.07h1.35l-0.42,4.44l0.06,0.06c1.44-2.189,3.63-4.649,6.36-4.649
		c2.64,0,2.76,2.64,2.31,4.8h-1.41c0.27-1.47,0.63-3.6-1.29-3.6c-1.62,0-5.73,2.52-7.02,8.549L-118.753,22.349z"/>
	<path fill="#FF1E00" d="M-92.054,21.239c-2.01,0.811-3.93,1.44-5.97,1.44c-4.649,0-5.49-4.17-4.62-8.189
		c0.84-4.021,3.54-8.34,8.22-8.34c2.67,0,5.4,1.92,4.02,8.489h-10.859c-0.93,5.58,1.11,6.84,3.54,6.84c1.8,0,3.66-0.66,5.34-1.56
		L-92.054,21.239z M-91.574,13.44c0.72-2.73-0.18-6.09-3.3-6.09c-3.09,0-5.64,3.3-6.149,6.09H-91.574z"/>
	<path fill="#FF1E00" d="M-66.404,14.4c1.32-6.181,4.95-8.25,7.83-8.25c2.64,0,5.7,1.77,4.32,8.25
		c-1.35,6.449-5.16,8.279-7.83,8.279C-64.754,22.679-67.784,20.879-66.404,14.4z M-55.664,14.4c0.66-3.09,0.72-7.05-3.18-7.05
		c-3.87,0-5.49,3.96-6.15,7.05c-0.66,3.119-0.72,7.079,3.15,7.079C-57.944,21.479-56.325,17.49-55.664,14.4z"/>
	<path fill="#FF1E00" d="M-36.885,6.48h1.41l-1.65,7.829c-0.57,2.7-1.05,5.4-1.08,8.04h-1.32l0.36-4.5h-0.06
		c-1.11,2.37-4.14,4.83-6.629,4.83c-2.88,0-3.15-2.61-2.64-5.01l2.37-11.189h1.41l-2.22,10.529c-0.63,3-0.21,4.47,1.5,4.47
		c2.34,0,5.939-2.58,7.2-8.579L-36.885,6.48z"/>
	<path fill="#FF1E00" d="M-28.755,22.349h-1.41l2.34-10.979l0.51-5.07h1.35l-0.42,4.44l0.06,0.06c1.44-2.189,3.63-4.649,6.36-4.649
		c2.64,0,2.76,2.64,2.31,4.8h-1.41c0.27-1.47,0.63-3.6-1.29-3.6c-1.62,0-5.73,2.52-7.02,8.549L-28.755,22.349z"/>
	<path fill="#FF1E00" d="M20.684,2.82c-1.38-0.66-2.13-1.29-3.45-1.29c-2.07,0-3.57,1.11-4.02,3.24l-0.6,2.79h5.25l-0.27,1.199
		h-5.25l-2.88,13.59h-1.41l2.88-13.59h-4.08l0.27-1.199h4.08l0.39-1.8c0.9-4.11,3.48-5.431,5.729-5.431c1.32,0,2.61,0.48,3.69,0.99
		L20.684,2.82z"/>
	<path fill="#FF1E00" d="M23.593,14.4c1.32-6.181,4.95-8.25,7.83-8.25c2.64,0,5.7,1.77,4.32,8.25c-1.35,6.449-5.16,8.279-7.83,8.279
		S22.213,20.879,23.593,14.4z M34.333,14.4c0.66-3.09,0.72-7.05-3.18-7.05c-3.87,0-5.49,3.96-6.15,7.05
		c-0.66,3.119-0.72,7.079,3.15,7.079C32.053,21.479,33.673,17.49,34.333,14.4z"/>
	<path fill="#FF1E00" d="M49.693,1.289h-4.68l0.27-1.199h6.09l-4.74,22.259h-1.41L49.693,1.289z"/>
	<path fill="#FF1E00" d="M72.762,6.48c-3.479,3.359-4.919,4.859-7.859,7.229l5.85,8.64h-1.89l-4.98-7.83l-1.8,1.471l-1.35,6.359
		h-1.41l4.74-22.259h1.41l-3.03,14.219c2.97-2.34,5.94-4.949,8.49-7.829H72.762z"/>
	<path fill="#FF1E00" d="M88.482,8.999c-1.08-0.899-2.34-1.649-3.93-1.649s-3.39,1.199-3.75,2.88c-0.39,1.859,1.5,2.729,2.82,3.27
		c2.22,0.93,4.56,1.89,3.9,4.979c-0.54,2.641-3.21,4.2-5.64,4.2c-1.98,0-4.29-1.23-5.43-2.55l1.02-1.14
		c1.02,1.289,2.85,2.489,4.709,2.489c1.77,0,3.51-0.99,3.93-2.91c0.51-2.369-1.2-3.06-2.91-3.779c-2.01-0.84-4.38-1.86-3.78-4.68
		c0.48-2.25,3.12-3.96,5.49-3.96c1.83,0,3.18,0.63,4.41,1.68L88.482,8.999z"/>
	<path fill="#FF1E00" d="M-360.576,52.68h-5.82l-2.31,10.829c-0.33,1.53-0.06,2.97,1.89,2.97c1.77,0,3.3-1.319,4.29-2.819l1.29,0.33
		c-1.44,2.039-3.51,3.689-5.88,3.689c-2.04,0-3.689-0.99-2.82-5.01l2.13-9.989h-3.57l0.24-1.2h3.57l1.11-5.1h1.41l-1.11,5.1h5.82
		L-360.576,52.68z"/>
	<path fill="#FF1E00" d="M-354.396,59.4c1.32-6.181,4.95-8.25,7.83-8.25c2.64,0,5.7,1.77,4.32,8.25
		c-1.35,6.449-5.16,8.279-7.83,8.279C-352.746,67.679-355.776,65.879-354.396,59.4z M-343.657,59.4c0.66-3.09,0.72-7.05-3.18-7.05
		c-3.87,0-5.49,3.96-6.15,7.05c-0.66,3.119-0.72,7.079,3.15,7.079C-345.936,66.479-344.317,62.49-343.657,59.4z"/>
	<path fill="#FF1E00" d="M-318.367,51.48h1.56l-0.72,13.709h0.06l4.86-9.629h1.53l0.72,9.629h0.06l5.1-13.709h1.53l-6.209,16.079
		h-1.53l-0.84-10.26l-5.16,10.26h-1.53L-318.367,51.48z"/>
	<path fill="#FF1E00" d="M-290.048,66.239c-2.01,0.811-3.93,1.44-5.97,1.44c-4.65,0-5.49-4.17-4.62-8.189
		c0.84-4.021,3.54-8.34,8.22-8.34c2.67,0,5.4,1.92,4.02,8.489h-10.859c-0.93,5.58,1.11,6.84,3.54,6.84c1.8,0,3.66-0.66,5.34-1.56
		L-290.048,66.239z M-289.568,58.44c0.72-2.73-0.18-6.09-3.3-6.09c-3.09,0-5.64,3.3-6.149,6.09H-289.568z"/>
	<path fill="#FF1E00" d="M-274.599,67.679c-0.12-0.87-0.15-1.8-0.03-2.7c-1.44,1.59-2.85,2.7-4.92,2.7c-2.91,0-3.93-2.37-3.36-5.04
		c0.66-3.029,2.91-5.64,5.97-5.64c1.29,0,2.67,0.51,3.66,1.05c0.93-4.02,0.57-5.699-2.04-5.699c-1.38,0-2.64,0.479-4.02,1.05
		l-0.06-1.29c1.5-0.54,2.94-0.96,4.44-0.96c2.91,0,4.2,2.04,3.36,5.58c-0.51,2.159-1.02,4.319-1.56,6.479
		c-0.36,1.529-0.27,2.97-0.12,4.29L-274.599,67.679z M-273.608,59.16c-0.87-0.51-1.98-0.96-3.24-0.96c-2.64,0-4.169,2.22-4.649,4.56
		c-0.39,1.77,0.18,3.72,2.189,3.72c1.98,0,3.51-1.59,4.83-3.21L-273.608,59.16z"/>
	<path fill="#FF1E00" d="M-262.749,67.349h-1.41l2.34-10.979l0.51-5.07h1.35l-0.42,4.44l0.06,0.06c1.44-2.189,3.63-4.649,6.36-4.649
		c2.64,0,2.76,2.64,2.31,4.8h-1.41c0.27-1.47,0.63-3.6-1.29-3.6c-1.62,0-5.73,2.52-7.02,8.549L-262.749,67.349z"/>
	<path fill="#FF1E00" d="M-220.6,67.679c-0.12-0.87-0.15-1.8-0.03-2.7c-1.44,1.59-2.85,2.7-4.92,2.7c-2.91,0-3.93-2.37-3.36-5.04
		c0.66-3.029,2.91-5.64,5.97-5.64c1.29,0,2.67,0.51,3.66,1.05c0.93-4.02,0.57-5.699-2.04-5.699c-1.38,0-2.64,0.479-4.02,1.05
		l-0.06-1.29c1.5-0.54,2.94-0.96,4.44-0.96c2.91,0,4.2,2.04,3.36,5.58c-0.51,2.159-1.02,4.319-1.56,6.479
		c-0.36,1.529-0.27,2.97-0.12,4.29L-220.6,67.679z M-219.61,59.16c-0.87-0.51-1.98-0.96-3.24-0.96c-2.64,0-4.169,2.22-4.649,4.56
		c-0.39,1.77,0.18,3.72,2.19,3.72c1.979,0,3.51-1.59,4.83-3.21L-219.61,59.16z"/>
	<path fill="#FF1E00" d="M-181.541,65.009c-1.83,1.59-3.57,2.67-5.82,2.67c-2.79,0-6.27-1.74-4.92-8.1
		c1.38-6.42,5.34-8.43,8.31-8.43c2.4,0,3.9,1.26,4.77,3.21l-1.44,0.84c-0.48-1.65-1.65-2.85-3.6-2.85
		c-1.979,0-5.339,1.229-6.569,6.989c-1.17,5.46,1.35,7.14,3.66,7.14c1.74,0,3.51-1.2,4.86-2.489L-181.541,65.009z"/>
	<path fill="#FF1E00" d="M-174.401,59.4c1.32-6.181,4.95-8.25,7.83-8.25c2.64,0,5.7,1.77,4.32,8.25
		c-1.35,6.449-5.16,8.279-7.83,8.279C-172.751,67.679-175.781,65.879-174.401,59.4z M-163.661,59.4c0.66-3.09,0.72-7.05-3.18-7.05
		c-3.87,0-5.49,3.96-6.15,7.05c-0.66,3.119-0.72,7.079,3.15,7.079C-165.941,66.479-164.322,62.49-163.661,59.4z"/>
	<path fill="#FF1E00" d="M-148.602,67.679c-0.12-0.87-0.15-1.8-0.03-2.7c-1.44,1.59-2.85,2.7-4.92,2.7c-2.91,0-3.93-2.37-3.36-5.04
		c0.66-3.029,2.91-5.64,5.97-5.64c1.29,0,2.67,0.51,3.66,1.05c0.93-4.02,0.57-5.699-2.04-5.699c-1.38,0-2.64,0.479-4.02,1.05
		l-0.06-1.29c1.5-0.54,2.94-0.96,4.44-0.96c2.91,0,4.2,2.04,3.36,5.58c-0.51,2.159-1.02,4.319-1.56,6.479
		c-0.36,1.529-0.27,2.97-0.12,4.29L-148.602,67.679z M-147.612,59.16c-0.87-0.51-1.98-0.96-3.24-0.96c-2.64,0-4.169,2.22-4.649,4.56
		c-0.39,1.77,0.18,3.72,2.19,3.72c1.979,0,3.51-1.59,4.83-3.21L-147.612,59.16z"/>
	<path fill="#FF1E00" d="M-126.582,52.68h-5.82l-2.31,10.829c-0.33,1.53-0.06,2.97,1.89,2.97c1.77,0,3.3-1.319,4.29-2.819l1.29,0.33
		c-1.44,2.039-3.51,3.689-5.88,3.689c-2.04,0-3.689-0.99-2.82-5.01l2.13-9.989h-3.57l0.24-1.2h3.57l1.11-5.1h1.41l-1.11,5.1h5.82
		L-126.582,52.68z"/>
	<path fill="#FF1E00" d="M-94.603,67.679c-0.12-0.87-0.15-1.8-0.03-2.7c-1.44,1.59-2.85,2.7-4.92,2.7c-2.91,0-3.93-2.37-3.36-5.04
		c0.66-3.029,2.91-5.64,5.97-5.64c1.29,0,2.67,0.51,3.66,1.05c0.93-4.02,0.57-5.699-2.04-5.699c-1.38,0-2.64,0.479-4.02,1.05
		l-0.06-1.29c1.5-0.54,2.94-0.96,4.44-0.96c2.91,0,4.2,2.04,3.36,5.58c-0.51,2.159-1.02,4.319-1.56,6.479
		c-0.36,1.529-0.27,2.97-0.12,4.29L-94.603,67.679z M-93.613,59.16c-0.87-0.51-1.98-0.96-3.24-0.96c-2.64,0-4.169,2.22-4.649,4.56
		c-0.39,1.77,0.18,3.72,2.189,3.72c1.98,0,3.51-1.59,4.83-3.21L-93.613,59.16z"/>
	<path fill="#FF1E00" d="M-84.193,67.349h-1.41l1.68-7.949c0.57-2.7,1.08-5.4,1.11-8.101h1.32l-0.42,4.561h0.06
		c1.11-2.37,4.14-4.71,6.66-4.71c2.88,0,3.15,2.49,2.64,4.89l-2.4,11.31h-1.41l2.25-10.649c0.39-1.83,0.93-4.35-1.53-4.35
		c-2.28,0-5.88,2.279-7.169,8.459L-84.193,67.349z"/>
	<path fill="#FF1E00" d="M-55.874,61.769c-0.42,1.95-0.69,3.87-0.51,5.73l-1.35,0.18l-0.03-2.61c-1.2,1.65-2.91,2.61-4.77,2.61
		c-2.67,0-5.7-2.19-4.38-8.37c1.35-6.359,5.79-8.159,7.979-8.159c1.41,0,2.7,0.479,3.6,1.35l1.59-7.409h1.41L-55.874,61.769z
		 M-55.635,53.91c-0.81-0.87-1.89-1.56-3.209-1.56c-1.8,0-5.43,1.229-6.69,7.05c-1.17,5.489,1.47,7.079,3.27,7.079
		c2.01,0,3.63-1.47,4.65-3.18L-55.635,53.91z"/>
	<path fill="#FF1E00" d="M-18.585,52.68h-5.82l-2.31,10.829c-0.33,1.53-0.06,2.97,1.89,2.97c1.77,0,3.3-1.319,4.29-2.819l1.29,0.33
		c-1.44,2.039-3.51,3.689-5.88,3.689c-2.04,0-3.689-0.99-2.82-5.01l2.13-9.989h-3.57l0.24-1.2h3.57l1.11-5.1h1.41l-1.11,5.1h5.82
		L-18.585,52.68z"/>
	<path fill="#FF1E00" d="M-5.446,52.68h-4.62l0.24-1.2h6.03l-3.36,15.869h-1.41L-5.446,52.68z M-1.966,46.89
		c-0.18,0.87-1.05,1.56-1.92,1.56c-0.87,0-1.41-0.689-1.23-1.56c0.18-0.87,1.02-1.561,1.89-1.561
		C-2.356,45.33-1.786,46.02-1.966,46.89z"/>
	<path fill="#FF1E00" d="M15.943,66.239c-2.01,0.811-3.93,1.44-5.97,1.44c-4.649,0-5.49-4.17-4.62-8.189
		c0.84-4.021,3.54-8.34,8.22-8.34c2.67,0,5.4,1.92,4.02,8.489H6.734c-0.93,5.58,1.11,6.84,3.54,6.84c1.8,0,3.66-0.66,5.34-1.56
		L15.943,66.239z M16.423,58.44c0.72-2.73-0.18-6.09-3.3-6.09c-3.09,0-5.64,3.3-6.149,6.09H16.423z"/>
	<path fill="#FF1E00" d="M28.544,63.719c1.11,0,1.83,0.93,1.59,2.04c-0.24,1.109-1.35,2.01-2.46,2.01s-1.83-0.9-1.59-2.01
		C26.323,64.649,27.433,63.719,28.544,63.719z"/>
	<path fill="#FF1E00" d="M48.883,45.749l-0.84,3.9l-2.07,3.87h-1.62l-0.45-3.87l0.84-3.9H48.883z M55.963,45.749l-0.84,3.9
		l-2.07,3.87h-1.62l-0.45-3.87l0.84-3.9H55.963z"/>
	<path fill="#FF1E00" d="M-374.495,107.264v-0.6h3.54v0.6H-374.495z"/>
	<path fill="#FF1E00" d="M-352.341,101.549v7.38c0,2.61-0.945,3.63-2.91,3.63c-1.74,0-2.7-0.93-2.7-3.465v-1.155h0.705v1.545
		c0,1.71,0.615,2.49,1.98,2.476c1.53-0.03,2.22-0.99,2.22-2.476v-7.334h-2.04v-0.601H-352.341z"/>
	<path fill="#FF1E00" d="M-343.881,112.514c-0.15-0.435-0.255-0.9-0.3-1.35c-0.555,0.795-1.14,1.35-2.175,1.35
		c-1.455,0-2.205-1.185-2.205-2.52c0-1.516,0.855-2.82,2.385-2.82c0.645,0,1.38,0.255,1.935,0.525
		c0.045-2.011-0.315-2.851-1.62-2.851c-0.69,0-1.275,0.24-1.905,0.525l-0.165-0.646c0.69-0.27,1.365-0.479,2.115-0.479
		c1.455,0,2.325,1.02,2.28,2.79l-0.09,3.239c-0.015,0.766,0.18,1.485,0.39,2.146L-343.881,112.514z M-344.286,108.254
		c-0.495-0.255-1.095-0.48-1.725-0.48c-1.32,0-1.845,1.11-1.845,2.28c0,0.885,0.495,1.86,1.5,1.86c0.99,0,1.59-0.795,2.07-1.605
		V108.254z"/>
	<path fill="#FF1E00" d="M-338.705,112.349h-0.705v-3.975c0-1.351-0.045-2.7-0.315-4.05h0.66l0.285,2.279h0.03
		c0.3-1.185,1.56-2.354,2.82-2.354c1.44,0,1.845,1.245,1.845,2.445v5.654h-0.705v-5.325c0-0.915,0-2.175-1.23-2.175
		c-1.14,0-2.685,1.141-2.685,4.23V112.349z"/>
	<path fill="#FF1E00" d="M-324.756,111.794c-0.915,0.404-1.815,0.72-2.835,0.72c-2.325,0-3.18-2.085-3.18-4.095
		s0.885-4.17,3.225-4.17c1.335,0,2.91,0.96,2.91,4.245h-5.43c0.135,2.789,1.29,3.42,2.505,3.42c0.9,0,1.755-0.33,2.505-0.78
		L-324.756,111.794z M-325.341,107.894c0.075-1.364-0.735-3.045-2.295-3.045c-1.545,0-2.475,1.65-2.43,3.045H-325.341z"/>
	<path fill="#FF1E00" d="M-316.461,105.014h-2.91v5.415c0,0.765,0.285,1.485,1.26,1.485c0.885,0,1.5-0.66,1.845-1.41l0.675,0.165
		c-0.495,1.02-1.365,1.845-2.55,1.845c-1.02,0-1.935-0.495-1.935-2.505v-4.995h-1.785v-0.6h1.785v-2.55h0.705v2.55h2.91V105.014z"/>
	<path fill="#FF1E00" d="M-302.616,102.525l-0.03,0.029v9.795h-0.705v-10.8h1.02l3.675,9.255l0.03-0.03v-9.225h0.705v10.905h-0.735
		L-302.616,102.525z"/>
	<path fill="#FF1E00" d="M-289.881,112.514c-0.15-0.435-0.255-0.9-0.3-1.35c-0.555,0.795-1.14,1.35-2.175,1.35
		c-1.455,0-2.205-1.185-2.205-2.52c0-1.516,0.855-2.82,2.385-2.82c0.645,0,1.38,0.255,1.935,0.525
		c0.045-2.011-0.315-2.851-1.62-2.851c-0.69,0-1.275,0.24-1.905,0.525l-0.165-0.646c0.69-0.27,1.365-0.479,2.115-0.479
		c1.455,0,2.325,1.02,2.28,2.79l-0.09,3.239c-0.015,0.766,0.18,1.485,0.39,2.146L-289.881,112.514z M-290.286,108.254
		c-0.495-0.255-1.095-0.48-1.725-0.48c-1.32,0-1.845,1.11-1.845,2.28c0,0.885,0.495,1.86,1.5,1.86c0.99,0,1.59-0.795,2.07-1.605
		V108.254z"/>
	<path fill="#FF1E00" d="M-285.335,107.189c0-0.96-0.075-1.92-0.36-2.85l0.66-0.09l0.27,1.305h0.03
		c0.405-0.825,1.17-1.305,2.1-1.305c1.32,0,3.075,1.064,3.075,4.185c0,3.18-2.04,4.08-3.12,4.08c-0.705,0-1.41-0.24-1.95-0.675
		v3.689h-0.705V107.189z M-284.631,111.134c0.495,0.435,1.095,0.78,1.77,0.78c0.9,0,2.595-0.631,2.595-3.525
		c0-2.76-1.485-3.54-2.385-3.54c-1.05,0-1.59,0.735-1.98,1.59V111.134z"/>
	<path fill="#FF1E00" d="M-276.756,108.374c0-3.09,1.59-4.125,3.03-4.125c1.32,0,3.045,0.885,3.045,4.125
		c0,3.225-1.71,4.14-3.045,4.14S-276.756,111.614-276.756,108.374z M-271.386,108.374c0-1.545-0.39-3.525-2.34-3.525
		c-1.935,0-2.325,1.98-2.325,3.525c0,1.56,0.39,3.54,2.325,3.54C-271.776,111.914-271.386,109.919-271.386,108.374z"/>
	<path fill="#FF1E00" d="M-264.995,101.82h-2.34v-0.601h3.044v11.13h-0.705V101.82z"/>
	<path fill="#FF1E00" d="M-255.891,105.014h-2.31v-0.6h3.015v7.935h-0.705V105.014z M-254.766,102.12c0,0.435-0.36,0.78-0.795,0.78
		c-0.435,0-0.78-0.346-0.78-0.78c0-0.436,0.345-0.78,0.78-0.78C-255.126,101.339-254.766,101.684-254.766,102.12z"/>
	<path fill="#FF1E00" d="M-244.461,105.014h-2.91v5.415c0,0.765,0.285,1.485,1.26,1.485c0.885,0,1.5-0.66,1.845-1.41l0.675,0.165
		c-0.495,1.02-1.365,1.845-2.55,1.845c-1.02,0-1.935-0.495-1.935-2.505v-4.995h-1.785v-0.6h1.785v-2.55h0.705v2.55h2.91V105.014z"/>
	<path fill="#FF1E00" d="M-235.881,112.514c-0.15-0.435-0.255-0.9-0.3-1.35c-0.555,0.795-1.14,1.35-2.175,1.35
		c-1.455,0-2.205-1.185-2.205-2.52c0-1.516,0.855-2.82,2.385-2.82c0.645,0,1.38,0.255,1.935,0.525
		c0.045-2.011-0.315-2.851-1.62-2.851c-0.69,0-1.275,0.24-1.905,0.525l-0.165-0.646c0.69-0.27,1.365-0.479,2.115-0.479
		c1.455,0,2.325,1.02,2.28,2.79l-0.09,3.239c-0.015,0.766,0.18,1.485,0.39,2.146L-235.881,112.514z M-236.286,108.254
		c-0.495-0.255-1.095-0.48-1.725-0.48c-1.32,0-1.845,1.11-1.845,2.28c0,0.885,0.495,1.86,1.5,1.86c0.99,0,1.59-0.795,2.07-1.605
		V108.254z"/>
	<path fill="#FF1E00" d="M-230.705,112.349h-0.705v-3.975c0-1.351-0.045-2.7-0.315-4.05h0.66l0.285,2.279h0.03
		c0.3-1.185,1.56-2.354,2.82-2.354c1.44,0,1.845,1.245,1.845,2.445v5.654h-0.705v-5.325c0-0.915,0-2.175-1.23-2.175
		c-1.14,0-2.685,1.141-2.685,4.23V112.349z"/>
	<path fill="#FF1E00" d="M-222.756,108.374c0-3.09,1.59-4.125,3.03-4.125c1.32,0,3.045,0.885,3.045,4.125
		c0,3.225-1.71,4.14-3.045,4.14S-222.756,111.614-222.756,108.374z M-217.386,108.374c0-1.545-0.39-3.525-2.34-3.525
		c-1.935,0-2.325,1.98-2.325,3.525c0,1.56,0.39,3.54,2.325,3.54C-217.776,111.914-217.386,109.919-217.386,108.374z"/>
</g>
</svg>
