<?xml version="1.0" encoding="utf-8"?>
<!-- Generator: Adobe Illustrator 17.0.0, SVG Export Plug-In . SVG Version: 6.00 Build 0)  -->
<!DOCTYPE svg PUBLIC "-//W3C//DTD SVG 1.1//EN" "http://www.w3.org/Graphics/SVG/1.1/DTD/svg11.dtd">
<svg version="1.1" id="Layer_1" xmlns="http://www.w3.org/2000/svg" xmlns:xlink="http://www.w3.org/1999/xlink" x="0px" y="0px"
	 width="256.54px" height="208.012px" viewBox="100.9 66.295 256.54 208.012" enable-background="new 100.9 66.295 256.54 208.012"
	 xml:space="preserve">
<g>
	<path d="M106.589,78.269h0.036l3.223-11.578h0.99l-3.781,13.09h-1.134l-0.522-6.518l-3.241,6.518h-1.134l1.765-13.09h0.99
		l-1.71,11.578h0.036l3.763-7.202L106.589,78.269z"/>
	<path d="M118.632,78.989c-1.207,0.486-2.359,0.864-3.583,0.864c-2.791,0-3.295-2.503-2.773-4.916
		c0.504-2.413,2.125-5.006,4.934-5.006c1.603,0,3.241,1.152,2.413,5.096h-6.518c-0.558,3.349,0.666,4.105,2.125,4.105
		c1.081,0,2.197-0.396,3.205-0.937L118.632,78.989z M118.92,74.307c0.432-1.638-0.108-3.655-1.981-3.655
		c-1.854,0-3.385,1.98-3.691,3.655H118.92z"/>
	<path d="M133.912,73.011c0.27-1.26,0.342-2.269,0.324-3.079h0.864l-0.036,1.243c0.702-0.756,1.566-1.243,2.502-1.243
		c0.774,0,1.099,0.468,1.225,1.152c0.612-0.612,1.386-1.152,2.214-1.152c1.225,0,1.693,0.811,1.44,1.999l-1.638,7.724h-0.846
		l1.638-7.688c0.198-0.972-0.198-1.332-0.864-1.332c-0.756,0-1.512,0.594-1.999,1.224l-1.656,7.796h-0.847l1.549-7.31
		c0.144-0.72,0.306-1.692-0.648-1.692c-0.81,0-1.692,0.666-2.161,1.386l-1.621,7.616h-0.846L133.912,73.011z"/>
	<path d="M149.501,79.853c-0.072-0.522-0.09-1.081-0.018-1.621c-0.864,0.954-1.711,1.621-2.953,1.621
		c-1.747,0-2.359-1.422-2.017-3.025c0.396-1.819,1.747-3.385,3.583-3.385c0.774,0,1.603,0.306,2.197,0.63
		c0.558-2.413,0.342-3.421-1.225-3.421c-0.828,0-1.584,0.288-2.413,0.63l-0.036-0.774c0.9-0.324,1.765-0.576,2.665-0.576
		c1.747,0,2.521,1.225,2.017,3.349c-0.306,1.296-0.612,2.593-0.937,3.889c-0.216,0.918-0.162,1.783-0.072,2.575L149.501,79.853z
		 M150.095,74.739c-0.522-0.306-1.188-0.576-1.944-0.576c-1.584,0-2.503,1.333-2.791,2.737c-0.234,1.062,0.108,2.233,1.314,2.233
		c1.188,0,2.106-0.955,2.899-1.927L150.095,74.739z"/>
	<path d="M163.523,70.13c-2.088,2.017-2.953,2.917-4.717,4.339l3.511,5.186h-1.134l-2.989-4.699l-1.08,0.882l-0.811,3.817h-0.846
		l2.845-13.36h0.846l-1.818,8.534c1.783-1.404,3.565-2.971,5.096-4.699H163.523z"/>
	<path d="M172.631,78.989c-1.207,0.486-2.359,0.864-3.583,0.864c-2.791,0-3.295-2.503-2.773-4.916
		c0.504-2.413,2.125-5.006,4.934-5.006c1.603,0,3.241,1.152,2.413,5.096h-6.518c-0.558,3.349,0.666,4.105,2.125,4.105
		c1.081,0,2.197-0.396,3.205-0.937L172.631,78.989z M172.919,74.307c0.432-1.638-0.108-3.655-1.981-3.655
		c-1.854,0-3.385,1.98-3.691,3.655H172.919z"/>
	<path d="M188.019,74.883c0.792-3.709,2.971-4.952,4.699-4.952c1.584,0,3.421,1.062,2.593,4.952c-0.81,3.871-3.097,4.97-4.699,4.97
		S187.19,78.773,188.019,74.883z M194.464,74.883c0.396-1.854,0.432-4.231-1.909-4.231c-2.323,0-3.295,2.376-3.691,4.231
		c-0.396,1.873-0.432,4.25,1.891,4.25C193.096,79.133,194.068,76.738,194.464,74.883z"/>
	<path d="M205.732,70.13h0.846l-0.99,4.699c-0.342,1.621-0.63,3.241-0.648,4.826h-0.792l0.216-2.701h-0.036
		c-0.667,1.422-2.485,2.899-3.979,2.899c-1.729,0-1.891-1.567-1.584-3.007l1.422-6.716h0.846l-1.332,6.32
		c-0.378,1.801-0.126,2.683,0.9,2.683c1.404,0,3.565-1.549,4.321-5.15L205.732,70.13z"/>
	<path d="M210.608,79.655h-0.846l1.404-6.59l0.306-3.043h0.81l-0.252,2.665l0.036,0.036c0.864-1.314,2.179-2.791,3.817-2.791
		c1.584,0,1.657,1.585,1.387,2.881h-0.846c0.162-0.882,0.378-2.16-0.774-2.16c-0.972,0-3.439,1.512-4.213,5.131L210.608,79.655z"/>
	<path d="M231.236,70.13h0.936l-0.432,8.229h0.036l2.917-5.78h0.918l0.432,5.78h0.036l3.061-8.229h0.918l-3.727,9.651h-0.918
		l-0.504-6.158l-3.097,6.158h-0.918L231.236,70.13z"/>
	<path d="M246.699,79.853c-0.072-0.522-0.09-1.081-0.018-1.621c-0.864,0.954-1.711,1.621-2.953,1.621
		c-1.747,0-2.359-1.422-2.017-3.025c0.396-1.819,1.747-3.385,3.583-3.385c0.774,0,1.603,0.306,2.196,0.63
		c0.559-2.413,0.343-3.421-1.224-3.421c-0.829,0-1.585,0.288-2.413,0.63l-0.036-0.774c0.9-0.324,1.765-0.576,2.665-0.576
		c1.746,0,2.521,1.225,2.017,3.349c-0.307,1.296-0.612,2.593-0.937,3.889c-0.216,0.918-0.162,1.783-0.072,2.575L246.699,79.853z
		 M247.293,74.739c-0.522-0.306-1.188-0.576-1.945-0.576c-1.584,0-2.503,1.333-2.791,2.737c-0.234,1.062,0.108,2.233,1.314,2.233
		c1.188,0,2.107-0.955,2.899-1.927L247.293,74.739z"/>
	<path d="M261.154,70.13l-5.474,9.057c-0.792,1.296-2.07,3.511-3.745,3.511c-1.08,0-1.692-0.846-1.801-1.819l0.793-0.378
		c0.09,0.648,0.378,1.477,1.17,1.477c0.918,0,1.62-1.062,2.089-1.783l1.062-1.638l-1.313-8.427h0.936l1.026,7.31l4.285-7.31H261.154
		z"/>
	<path d="M281.511,70.85h-3.493l-1.387,6.5c-0.198,0.918-0.036,1.783,1.135,1.783c1.062,0,1.98-0.792,2.574-1.693l0.774,0.198
		c-0.864,1.224-2.106,2.215-3.529,2.215c-1.224,0-2.214-0.594-1.692-3.007l1.278-5.996h-2.143l0.145-0.72h2.143l0.666-3.061h0.847
		l-0.667,3.061h3.493L281.511,70.85z"/>
	<path d="M285.216,74.883c0.793-3.709,2.972-4.952,4.7-4.952c1.584,0,3.421,1.062,2.593,4.952c-0.811,3.871-3.098,4.97-4.7,4.97
		S284.388,78.773,285.216,74.883z M291.663,74.883c0.396-1.854,0.433-4.231-1.908-4.231c-2.323,0-3.295,2.376-3.691,4.231
		c-0.396,1.873-0.433,4.25,1.891,4.25C290.294,79.133,291.266,76.738,291.663,74.883z"/>
	<path d="M313.911,70.85h-3.493l-1.387,6.5c-0.198,0.918-0.036,1.783,1.135,1.783c1.062,0,1.98-0.792,2.574-1.693l0.774,0.198
		c-0.864,1.224-2.106,2.215-3.529,2.215c-1.224,0-2.214-0.594-1.692-3.007l1.278-5.996h-2.143l0.145-0.72h2.143l0.666-3.061h0.847
		l-0.667,3.061h3.493L313.911,70.85z"/>
	<path d="M319.903,66.295h0.847l-1.261,5.906h0.036c0.828-1.188,2.215-2.269,3.655-2.269c0.882,0,2.124,0.703,1.674,2.791
		l-1.477,6.932h-0.846l1.278-5.978c0.252-1.206,0.468-3.024-0.937-3.024c-1.603,0-3.475,1.999-3.943,4.213l-1.026,4.79h-0.846
		L319.903,66.295z"/>
	<path d="M334.627,78.989c-1.206,0.486-2.358,0.864-3.583,0.864c-2.791,0-3.295-2.503-2.772-4.916
		c0.504-2.413,2.125-5.006,4.934-5.006c1.603,0,3.241,1.152,2.412,5.096H329.1c-0.558,3.349,0.666,4.105,2.125,4.105
		c1.08,0,2.196-0.396,3.205-0.937L334.627,78.989z M334.916,74.307c0.433-1.638-0.107-3.655-1.98-3.655
		c-1.854,0-3.385,1.98-3.69,3.655H334.916z"/>
	<path d="M103.907,87.895h0.846l-1.26,5.906h0.036c0.828-1.188,2.214-2.269,3.655-2.269c0.882,0,2.125,0.703,1.675,2.791
		l-1.477,6.932h-0.846l1.278-5.978c0.252-1.206,0.468-3.024-0.937-3.024c-1.603,0-3.475,1.999-3.943,4.213l-1.026,4.79h-0.846
		L103.907,87.895z"/>
	<path d="M112.42,96.483c0.792-3.709,2.971-4.952,4.699-4.952c1.584,0,3.421,1.062,2.593,4.952c-0.81,3.871-3.097,4.97-4.699,4.97
		S111.592,100.372,112.42,96.483z M118.866,96.483c0.396-1.854,0.432-4.231-1.909-4.231c-2.323,0-3.295,2.376-3.691,4.231
		c-0.396,1.873-0.432,4.25,1.891,4.25C117.498,100.733,118.47,98.337,118.866,96.483z"/>
	<path d="M130.314,92.45h-3.493l-1.387,6.5c-0.198,0.918-0.036,1.783,1.135,1.783c1.062,0,1.98-0.792,2.575-1.693l0.774,0.198
		c-0.864,1.224-2.106,2.215-3.529,2.215c-1.225,0-2.215-0.594-1.692-3.007l1.278-5.996h-2.143l0.144-0.72h2.143l0.666-3.061h0.846
		l-0.666,3.061h3.493L130.314,92.45z"/>
	<path d="M140.231,100.588c-1.207,0.486-2.359,0.864-3.583,0.864c-2.791,0-3.295-2.503-2.773-4.916
		c0.504-2.413,2.125-5.006,4.934-5.006c1.603,0,3.241,1.152,2.413,5.096h-6.518c-0.558,3.349,0.666,4.105,2.125,4.105
		c1.081,0,2.197-0.396,3.205-0.937L140.231,100.588z M140.52,95.907c0.432-1.638-0.108-3.655-1.981-3.655
		c-1.854,0-3.385,1.98-3.691,3.655H140.52z"/>
	<path d="M149.681,88.615h-2.809l0.162-0.72h3.655l-2.845,13.36h-0.846L149.681,88.615z"/>
	<path d="M159.238,91.334c0.594-0.162,1.278-0.504,1.638-1.062c-0.144,0.018-0.252,0.054-0.36,0.054
		c-0.667,0-1.008-0.45-0.864-1.116c0.144-0.685,0.792-1.17,1.44-1.17c0.792,0,1.116,0.738,0.954,1.476
		c-0.27,1.297-1.764,2.251-2.971,2.575L159.238,91.334z"/>
	<path d="M172.955,93.242c-0.648-0.541-1.404-0.99-2.358-0.99s-2.035,0.72-2.251,1.729c-0.234,1.116,0.9,1.638,1.693,1.962
		c1.333,0.558,2.737,1.134,2.34,2.989c-0.324,1.584-1.926,2.521-3.385,2.521c-1.188,0-2.575-0.738-3.259-1.531l0.612-0.684
		c0.612,0.774,1.71,1.495,2.827,1.495c1.062,0,2.106-0.594,2.358-1.747c0.306-1.422-0.72-1.836-1.747-2.269
		c-1.206-0.504-2.628-1.116-2.269-2.809c0.288-1.351,1.873-2.377,3.295-2.377c1.099,0,1.909,0.378,2.647,1.009L172.955,93.242z"/>
	<path d="M194.933,91.73h0.846l-0.99,4.699c-0.342,1.621-0.63,3.241-0.648,4.826h-0.792l0.216-2.701h-0.036
		c-0.667,1.422-2.485,2.899-3.979,2.899c-1.729,0-1.891-1.567-1.584-3.007l1.422-6.716h0.846l-1.332,6.32
		c-0.378,1.801-0.126,2.683,0.9,2.683c1.404,0,3.565-1.549,4.321-5.15L194.933,91.73z"/>
	<path d="M198.944,101.254h-0.846l1.008-4.771c0.342-1.621,0.648-3.241,0.666-4.861h0.792l-0.252,2.737h0.036
		c0.667-1.422,2.485-2.827,3.998-2.827c1.729,0,1.89,1.495,1.584,2.935l-1.44,6.788h-0.846l1.351-6.392
		c0.234-1.098,0.558-2.61-0.918-2.61c-1.368,0-3.529,1.368-4.303,5.077L198.944,101.254z"/>
	<path d="M209.51,94.61c0.27-1.26,0.342-2.269,0.324-3.079h0.864l-0.036,1.243c0.702-0.756,1.566-1.243,2.502-1.243
		c0.774,0,1.099,0.468,1.225,1.152c0.612-0.612,1.386-1.152,2.214-1.152c1.225,0,1.693,0.811,1.44,1.999l-1.638,7.724h-0.846
		l1.638-7.688c0.198-0.972-0.198-1.332-0.864-1.332c-0.756,0-1.512,0.594-1.999,1.224l-1.656,7.796h-0.847l1.549-7.31
		c0.144-0.72,0.306-1.692-0.648-1.692c-0.81,0-1.692,0.666-2.161,1.386l-1.621,7.616h-0.846L209.51,94.61z"/>
	<path d="M225.099,101.453c-0.072-0.522-0.09-1.081-0.018-1.621c-0.864,0.954-1.711,1.621-2.953,1.621
		c-1.747,0-2.359-1.422-2.017-3.025c0.396-1.819,1.747-3.385,3.583-3.385c0.774,0,1.603,0.306,2.197,0.63
		c0.558-2.413,0.342-3.421-1.225-3.421c-0.828,0-1.584,0.288-2.413,0.63l-0.036-0.774c0.9-0.324,1.765-0.576,2.665-0.576
		c1.747,0,2.521,1.225,2.017,3.349c-0.306,1.296-0.612,2.593-0.937,3.889c-0.216,0.918-0.162,1.783-0.072,2.575L225.099,101.453z
		 M225.693,96.339c-0.522-0.306-1.188-0.576-1.944-0.576c-1.584,0-2.503,1.333-2.791,2.737c-0.234,1.062,0.108,2.233,1.314,2.233
		c1.188,0,2.106-0.955,2.899-1.927L225.693,96.339z"/>
	<path d="M231.344,101.254h-0.846l1.008-4.771c0.342-1.621,0.648-3.241,0.666-4.861h0.792l-0.252,2.737h0.036
		c0.667-1.422,2.485-2.827,3.998-2.827c1.729,0,1.89,1.495,1.584,2.935l-1.44,6.788h-0.846l1.351-6.392
		c0.234-1.098,0.558-2.61-0.918-2.61c-1.368,0-3.529,1.368-4.303,5.077L231.344,101.254z"/>
	<path d="M242.144,101.254h-0.846l1.008-4.771c0.342-1.621,0.648-3.241,0.666-4.861h0.792l-0.252,2.737h0.036
		c0.667-1.422,2.485-2.827,3.998-2.827c1.729,0,1.891,1.495,1.584,2.935l-1.44,6.788h-0.846l1.35-6.392
		c0.234-1.098,0.559-2.61-0.918-2.61c-1.368,0-3.529,1.368-4.303,5.077L242.144,101.254z"/>
	<path d="M259.029,100.588c-1.206,0.486-2.358,0.864-3.583,0.864c-2.79,0-3.295-2.503-2.772-4.916
		c0.504-2.413,2.125-5.006,4.934-5.006c1.603,0,3.241,1.152,2.412,5.096h-6.518c-0.559,3.349,0.666,4.105,2.125,4.105
		c1.08,0,2.196-0.396,3.205-0.937L259.029,100.588z M259.317,95.907c0.433-1.638-0.107-3.655-1.98-3.655
		c-1.854,0-3.385,1.98-3.69,3.655H259.317z"/>
	<path d="M269.937,97.905c-0.252,1.17-0.414,2.323-0.306,3.439l-0.811,0.108l-0.019-1.567c-0.72,0.991-1.746,1.567-2.862,1.567
		c-1.603,0-3.421-1.314-2.629-5.024c0.811-3.817,3.475-4.897,4.789-4.897c0.847,0,1.621,0.288,2.161,0.811l0.954-4.447h0.847
		L269.937,97.905z M270.082,93.188c-0.486-0.522-1.135-0.936-1.927-0.936c-1.081,0-3.259,0.738-4.016,4.231
		c-0.702,3.295,0.883,4.25,1.963,4.25c1.206,0,2.179-0.882,2.791-1.909L270.082,93.188z"/>
	<path d="M108.138,121.45c-1.099,0.954-2.143,1.603-3.493,1.603c-1.675,0-3.763-1.045-2.953-4.861
		c0.829-3.854,3.205-5.06,4.988-5.06c1.44,0,2.34,0.756,2.863,1.927l-0.864,0.504c-0.288-0.99-0.99-1.711-2.161-1.711
		c-1.188,0-3.205,0.738-3.943,4.195c-0.702,3.277,0.811,4.285,2.197,4.285c1.044,0,2.106-0.72,2.917-1.494L108.138,121.45z"/>
	<path d="M112.42,118.083c0.792-3.709,2.971-4.951,4.699-4.951c1.584,0,3.421,1.062,2.593,4.951c-0.81,3.871-3.097,4.97-4.699,4.97
		S111.592,121.973,112.42,118.083z M118.866,118.083c0.396-1.854,0.432-4.231-1.909-4.231c-2.323,0-3.295,2.377-3.691,4.231
		c-0.396,1.873-0.432,4.249,1.891,4.249C117.498,122.332,118.47,119.938,118.866,118.083z"/>
	<path d="M123.112,116.211c0.27-1.261,0.342-2.27,0.324-3.079h0.864l-0.036,1.242c0.702-0.756,1.566-1.242,2.502-1.242
		c0.774,0,1.099,0.468,1.225,1.152c0.612-0.612,1.386-1.152,2.214-1.152c1.225,0,1.693,0.81,1.44,1.998l-1.638,7.725h-0.846
		l1.638-7.688c0.198-0.972-0.198-1.332-0.864-1.332c-0.756,0-1.512,0.594-1.999,1.225l-1.656,7.796h-0.847l1.549-7.311
		c0.144-0.72,0.306-1.692-0.648-1.692c-0.81,0-1.692,0.666-2.161,1.387l-1.621,7.616h-0.846L123.112,116.211z"/>
	<path d="M134.704,116.661c0.252-1.152,0.396-2.305,0.306-3.422l0.81-0.107v1.566h0.036c0.684-0.99,1.729-1.566,2.845-1.566
		c1.584,0,3.421,1.278,2.611,5.023c-0.81,3.817-3.475,4.897-4.771,4.897c-0.846,0-1.638-0.288-2.178-0.811l-0.937,4.43h-0.846
		L134.704,116.661z M134.542,121.397c0.486,0.521,1.116,0.936,1.927,0.936c1.08,0,3.277-0.756,4.015-4.231
		c0.702-3.312-0.882-4.249-1.962-4.249c-1.261,0-2.089,0.883-2.773,1.909L134.542,121.397z"/>
	<path d="M151.733,113.33h0.846l-0.99,4.699c-0.342,1.62-0.63,3.241-0.648,4.825h-0.792l0.216-2.701h-0.036
		c-0.667,1.423-2.485,2.899-3.979,2.899c-1.729,0-1.891-1.566-1.584-3.007l1.422-6.716h0.846l-1.332,6.319
		c-0.378,1.801-0.126,2.683,0.9,2.683c1.404,0,3.565-1.548,4.321-5.149L151.733,113.33z"/>
	<path d="M162.713,114.05h-3.493l-1.387,6.5c-0.198,0.918-0.036,1.782,1.135,1.782c1.062,0,1.98-0.792,2.575-1.692l0.774,0.198
		c-0.864,1.225-2.106,2.215-3.529,2.215c-1.225,0-2.215-0.595-1.692-3.007l1.278-5.996h-2.143l0.144-0.72h2.143l0.666-3.062h0.846
		l-0.666,3.062h3.493L162.713,114.05z"/>
	<path d="M172.631,122.189c-1.207,0.486-2.359,0.864-3.583,0.864c-2.791,0-3.295-2.503-2.773-4.916
		c0.504-2.412,2.125-5.005,4.934-5.005c1.603,0,3.241,1.152,2.413,5.096h-6.518c-0.558,3.349,0.666,4.104,2.125,4.104
		c1.081,0,2.197-0.396,3.205-0.936L172.631,122.189z M172.919,117.507c0.432-1.639-0.108-3.655-1.981-3.655
		c-1.854,0-3.385,1.98-3.691,3.655H172.919z"/>
	<path d="M178.209,122.855h-0.846l1.404-6.59l0.306-3.043h0.81l-0.252,2.665l0.036,0.036c0.864-1.314,2.179-2.791,3.817-2.791
		c1.584,0,1.657,1.584,1.387,2.881h-0.846c0.162-0.883,0.378-2.161-0.774-2.161c-0.972,0-3.439,1.513-4.213,5.132L178.209,122.855z"
		/>
	<path d="M199.809,122.855h-0.846l1.404-6.59l0.306-3.043h0.81l-0.252,2.665l0.036,0.036c0.864-1.314,2.179-2.791,3.817-2.791
		c1.584,0,1.657,1.584,1.387,2.881h-0.846c0.162-0.883,0.378-2.161-0.774-2.161c-0.972,0-3.439,1.513-4.213,5.132L199.809,122.855z"
		/>
	<path d="M209.618,118.083c0.792-3.709,2.971-4.951,4.699-4.951c1.584,0,3.421,1.062,2.593,4.951c-0.81,3.871-3.097,4.97-4.699,4.97
		S208.79,121.973,209.618,118.083z M216.064,118.083c0.396-1.854,0.432-4.231-1.909-4.231c-2.323,0-3.295,2.377-3.691,4.231
		c-0.396,1.873-0.432,4.249,1.891,4.249C214.696,122.332,215.668,119.938,216.064,118.083z"/>
	<path d="M220.418,118.083c0.792-3.709,2.971-4.951,4.699-4.951c1.584,0,3.421,1.062,2.593,4.951c-0.81,3.871-3.097,4.97-4.699,4.97
		S219.59,121.973,220.418,118.083z M226.864,118.083c0.396-1.854,0.432-4.231-1.909-4.231c-2.323,0-3.295,2.377-3.691,4.231
		c-0.396,1.873-0.432,4.249,1.891,4.249C225.496,122.332,226.468,119.938,226.864,118.083z"/>
	<path d="M231.11,116.211c0.27-1.261,0.342-2.27,0.324-3.079h0.864l-0.036,1.242c0.702-0.756,1.566-1.242,2.502-1.242
		c0.774,0,1.099,0.468,1.225,1.152c0.612-0.612,1.386-1.152,2.214-1.152c1.225,0,1.693,0.81,1.44,1.998l-1.638,7.725h-0.846
		l1.638-7.688c0.198-0.972-0.198-1.332-0.864-1.332c-0.756,0-1.512,0.594-1.999,1.225l-1.656,7.796h-0.847l1.549-7.311
		c0.144-0.72,0.306-1.692-0.648-1.692c-0.81,0-1.692,0.666-2.161,1.387l-1.621,7.616h-0.846L231.11,116.211z"/>
	<path d="M243.26,124.097c0.594-0.162,1.278-0.504,1.639-1.062c-0.108,0.036-0.216,0.055-0.36,0.055c-0.666,0-0.99-0.45-0.864-1.116
		c0.144-0.685,0.792-1.171,1.44-1.171c0.792,0,1.117,0.738,0.955,1.477c-0.288,1.297-1.765,2.251-2.971,2.575L243.26,124.097z"/>
	<path d="M263.635,113.33h0.937l-0.433,8.228h0.036l2.917-5.779h0.918l0.433,5.779h0.036l3.061-8.228h0.918l-3.727,9.65h-0.919
		l-0.504-6.158l-3.097,6.158h-0.918L263.635,113.33z"/>
	<path d="M276.704,109.494h0.847l-1.261,5.906h0.036c0.828-1.188,2.215-2.269,3.655-2.269c0.882,0,2.124,0.702,1.674,2.791
		l-1.477,6.932h-0.846l1.278-5.978c0.252-1.207,0.468-3.025-0.937-3.025c-1.603,0-3.475,1.999-3.943,4.214l-1.026,4.789h-0.846
		L276.704,109.494z"/>
	<path d="M291.428,122.189c-1.206,0.486-2.358,0.864-3.583,0.864c-2.791,0-3.295-2.503-2.772-4.916
		c0.504-2.412,2.125-5.005,4.934-5.005c1.603,0,3.241,1.152,2.412,5.096h-6.518c-0.558,3.349,0.666,4.104,2.125,4.104
		c1.08,0,2.196-0.396,3.205-0.936L291.428,122.189z M291.716,117.507c0.433-1.639-0.107-3.655-1.98-3.655
		c-1.854,0-3.385,1.98-3.69,3.655H291.716z"/>
	<path d="M297.007,122.855h-0.847l1.404-6.59l0.306-3.043h0.811l-0.252,2.665l0.036,0.036c0.864-1.314,2.179-2.791,3.817-2.791
		c1.584,0,1.656,1.584,1.386,2.881h-0.846c0.162-0.883,0.378-2.161-0.774-2.161c-0.973,0-3.439,1.513-4.213,5.132L297.007,122.855z"
		/>
	<path d="M313.028,122.189c-1.206,0.486-2.358,0.864-3.583,0.864c-2.791,0-3.295-2.503-2.772-4.916
		c0.504-2.412,2.125-5.005,4.934-5.005c1.603,0,3.241,1.152,2.412,5.096h-6.518c-0.558,3.349,0.666,4.104,2.125,4.104
		c1.08,0,2.196-0.396,3.205-0.936L313.028,122.189z M313.316,117.507c0.433-1.639-0.107-3.655-1.98-3.655
		c-1.854,0-3.385,1.98-3.69,3.655H313.316z"/>
	<path d="M332.593,114.05h-2.772l0.144-0.72h3.619l-2.017,9.524h-0.847L332.593,114.05z M334.682,110.575
		c-0.108,0.521-0.631,0.936-1.152,0.936c-0.522,0-0.847-0.414-0.738-0.936c0.107-0.522,0.612-0.937,1.134-0.937
		C334.448,109.639,334.79,110.053,334.682,110.575z"/>
	<path d="M339.341,122.855h-0.846l1.008-4.771c0.343-1.62,0.648-3.241,0.667-4.861h0.792l-0.252,2.736h0.036
		c0.666-1.422,2.484-2.826,3.997-2.826c1.729,0,1.891,1.494,1.584,2.935l-1.44,6.788h-0.846l1.351-6.392
		c0.233-1.099,0.558-2.611-0.919-2.611c-1.368,0-3.529,1.368-4.303,5.078L339.341,122.855z"/>
	<path d="M108.156,136.442c-0.648-0.54-1.404-0.99-2.358-0.99s-2.035,0.721-2.251,1.729c-0.234,1.116,0.9,1.639,1.693,1.963
		c1.333,0.559,2.737,1.135,2.34,2.989c-0.324,1.584-1.926,2.521-3.385,2.521c-1.188,0-2.575-0.738-3.259-1.53l0.612-0.685
		c0.612,0.774,1.71,1.494,2.827,1.494c1.062,0,2.106-0.594,2.358-1.746c0.306-1.423-0.72-1.837-1.747-2.269
		c-1.206-0.505-2.628-1.116-2.269-2.81c0.288-1.35,1.873-2.376,3.295-2.376c1.099,0,1.909,0.378,2.647,1.008L108.156,136.442z"/>
	<path d="M118.632,143.789c-1.207,0.486-2.359,0.864-3.583,0.864c-2.791,0-3.295-2.503-2.773-4.916
		c0.504-2.412,2.125-5.005,4.934-5.005c1.603,0,3.241,1.152,2.413,5.096h-6.518c-0.558,3.349,0.666,4.104,2.125,4.104
		c1.081,0,2.197-0.396,3.205-0.936L118.632,143.789z M118.92,139.108c0.432-1.639-0.108-3.655-1.981-3.655
		c-1.854,0-3.385,1.98-3.691,3.655H118.92z"/>
	<path d="M129.738,143.051c-1.099,0.954-2.143,1.603-3.493,1.603c-1.675,0-3.763-1.045-2.953-4.861
		c0.829-3.854,3.205-5.06,4.988-5.06c1.44,0,2.34,0.756,2.863,1.927l-0.864,0.504c-0.288-0.99-0.99-1.711-2.161-1.711
		c-1.188,0-3.205,0.738-3.943,4.195c-0.702,3.277,0.811,4.285,2.197,4.285c1.044,0,2.106-0.72,2.917-1.494L129.738,143.051z"/>
	<path d="M134.02,139.684c0.792-3.709,2.971-4.951,4.699-4.951c1.584,0,3.421,1.062,2.593,4.951c-0.81,3.871-3.097,4.97-4.699,4.97
		S133.191,143.573,134.02,139.684z M140.465,139.684c0.396-1.854,0.432-4.231-1.909-4.231c-2.323,0-3.295,2.377-3.691,4.231
		c-0.396,1.873-0.432,4.249,1.891,4.249C139.097,143.933,140.069,141.538,140.465,139.684z"/>
	<path d="M144.945,144.455h-0.846l1.008-4.771c0.342-1.62,0.648-3.241,0.666-4.861h0.792l-0.252,2.736h0.036
		c0.667-1.422,2.485-2.826,3.998-2.826c1.729,0,1.89,1.494,1.584,2.935l-1.44,6.788h-0.846l1.351-6.392
		c0.234-1.099,0.558-2.611-0.918-2.611c-1.368,0-3.529,1.369-4.303,5.078L144.945,144.455z"/>
	<path d="M161.939,141.107c-0.252,1.17-0.414,2.322-0.306,3.438l-0.81,0.108l-0.018-1.566c-0.72,0.99-1.747,1.566-2.863,1.566
		c-1.603,0-3.421-1.314-2.629-5.023c0.81-3.817,3.475-4.897,4.79-4.897c0.846,0,1.621,0.288,2.161,0.81l0.954-4.447h0.846
		L161.939,141.107z M162.083,136.389c-0.486-0.522-1.134-0.937-1.927-0.937c-1.08,0-3.259,0.738-4.015,4.231
		c-0.702,3.295,0.882,4.249,1.963,4.249c1.206,0,2.179-0.882,2.791-1.908L162.083,136.389z"/>
	<path d="M172.955,136.442c-0.648-0.54-1.404-0.99-2.358-0.99s-2.035,0.721-2.251,1.729c-0.234,1.116,0.9,1.639,1.693,1.963
		c1.333,0.559,2.737,1.135,2.34,2.989c-0.324,1.584-1.926,2.521-3.385,2.521c-1.188,0-2.575-0.738-3.259-1.53l0.612-0.685
		c0.612,0.774,1.71,1.494,2.827,1.494c1.062,0,2.106-0.594,2.358-1.746c0.306-1.423-0.72-1.837-1.747-2.269
		c-1.206-0.505-2.628-1.116-2.269-2.81c0.288-1.35,1.873-2.376,3.295-2.376c1.099,0,1.909,0.378,2.647,1.008L172.955,136.442z"/>
	<path d="M178.461,145.697c0.594-0.162,1.278-0.504,1.639-1.062c-0.108,0.036-0.216,0.055-0.36,0.055
		c-0.666,0-0.99-0.45-0.864-1.116c0.144-0.685,0.792-1.171,1.44-1.171c0.792,0,1.117,0.738,0.955,1.477
		c-0.288,1.296-1.765,2.251-2.971,2.575L178.461,145.697z"/>
	<path d="M206.543,133.328c-0.648-0.702-1.422-1.369-2.539-1.369c-1.314,0-2.593,0.9-2.881,2.269
		c-0.216,1.009,0.072,1.693,1.458,2.647l0.936,0.648c1.801,1.242,2.575,1.98,2.233,3.583c-0.468,2.232-2.233,3.601-4.447,3.601
		c-1.531,0-2.575-0.72-3.241-1.908l0.756-0.522c0.468,0.99,1.404,1.711,2.647,1.711c1.512,0,3.007-1.117,3.331-2.665
		c0.252-1.225,0.216-1.692-1.873-3.115l-1.062-0.72c-1.099-0.738-1.999-1.603-1.657-3.169c0.414-1.945,2.125-3.079,3.997-3.079
		c1.225,0,2.269,0.648,2.989,1.458L206.543,133.328z"/>
	<path d="M216.712,135.65h-3.493l-1.387,6.5c-0.198,0.918-0.036,1.782,1.135,1.782c1.062,0,1.98-0.792,2.575-1.692l0.774,0.198
		c-0.864,1.225-2.106,2.215-3.529,2.215c-1.225,0-2.215-0.595-1.692-3.007l1.278-5.996h-2.143l0.144-0.72h2.143l0.666-3.062h0.846
		l-0.666,3.062h3.493L216.712,135.65z"/>
	<path d="M221.408,144.455h-0.846l1.404-6.59l0.306-3.043h0.81l-0.252,2.665l0.036,0.036c0.864-1.314,2.179-2.791,3.817-2.791
		c1.584,0,1.657,1.584,1.387,2.881h-0.846c0.162-0.883,0.378-2.161-0.774-2.161c-0.972,0-3.439,1.513-4.213,5.132L221.408,144.455z"
		/>
	<path d="M237.43,143.789c-1.207,0.486-2.359,0.864-3.583,0.864c-2.791,0-3.295-2.503-2.773-4.916
		c0.504-2.412,2.125-5.005,4.934-5.005c1.603,0,3.241,1.152,2.413,5.096h-6.518c-0.558,3.349,0.666,4.104,2.125,4.104
		c1.081,0,2.197-0.396,3.205-0.936L237.43,143.789z M237.718,139.108c0.432-1.639-0.108-3.655-1.981-3.655
		c-1.854,0-3.385,1.98-3.691,3.655H237.718z"/>
	<path d="M248.229,143.789c-1.206,0.486-2.358,0.864-3.583,0.864c-2.791,0-3.295-2.503-2.773-4.916
		c0.504-2.412,2.125-5.005,4.934-5.005c1.603,0,3.241,1.152,2.412,5.096h-6.518c-0.558,3.349,0.666,4.104,2.125,4.104
		c1.081,0,2.197-0.396,3.206-0.936L248.229,143.789z M248.517,139.108c0.433-1.639-0.107-3.655-1.98-3.655
		c-1.854,0-3.385,1.98-3.691,3.655H248.517z"/>
	<path d="M259.912,135.65h-3.493l-1.387,6.5c-0.198,0.918-0.036,1.782,1.135,1.782c1.062,0,1.98-0.792,2.574-1.692l0.774,0.198
		c-0.864,1.225-2.106,2.215-3.529,2.215c-1.224,0-2.214-0.595-1.692-3.007l1.278-5.996h-2.143l0.145-0.72h2.143l0.666-3.062h0.847
		l-0.667,3.062h3.493L259.912,135.65z"/>
	<path d="M280.935,143.051c-1.099,0.954-2.143,1.603-3.493,1.603c-1.675,0-3.763-1.045-2.953-4.861
		c0.828-3.854,3.205-5.06,4.987-5.06c1.44,0,2.341,0.756,2.863,1.927l-0.864,0.504c-0.288-0.99-0.99-1.711-2.161-1.711
		c-1.188,0-3.204,0.738-3.942,4.195c-0.702,3.277,0.81,4.285,2.196,4.285c1.044,0,2.106-0.72,2.917-1.494L280.935,143.051z"/>
	<path d="M285.216,139.684c0.793-3.709,2.972-4.951,4.7-4.951c1.584,0,3.421,1.062,2.593,4.951c-0.811,3.871-3.098,4.97-4.7,4.97
		S284.388,143.573,285.216,139.684z M291.663,139.684c0.396-1.854,0.433-4.231-1.908-4.231c-2.323,0-3.295,2.377-3.691,4.231
		c-0.396,1.873-0.433,4.249,1.891,4.249C290.294,143.933,291.266,141.538,291.663,139.684z"/>
	<path d="M302.93,134.931h0.847l-0.99,4.699c-0.342,1.62-0.63,3.24-0.648,4.825h-0.792l0.216-2.701h-0.036
		c-0.666,1.423-2.484,2.899-3.979,2.899c-1.729,0-1.891-1.566-1.585-3.007l1.423-6.716h0.846l-1.332,6.319
		c-0.378,1.801-0.126,2.683,0.9,2.683c1.404,0,3.564-1.548,4.321-5.149L302.93,134.931z"/>
	<path d="M311.678,131.816h-2.81l0.162-0.721h3.655l-2.845,13.36h-0.847L311.678,131.816z"/>
	<path d="M323.936,141.107c-0.252,1.17-0.414,2.322-0.306,3.438l-0.811,0.108l-0.019-1.566c-0.72,0.99-1.746,1.566-2.862,1.566
		c-1.603,0-3.421-1.314-2.629-5.023c0.811-3.817,3.475-4.897,4.789-4.897c0.847,0,1.621,0.288,2.161,0.81l0.954-4.447h0.847
		L323.936,141.107z M324.08,136.389c-0.485-0.522-1.134-0.937-1.926-0.937c-1.081,0-3.26,0.738-4.016,4.231
		c-0.702,3.295,0.883,4.249,1.963,4.249c1.206,0,2.179-0.882,2.791-1.908L324.08,136.389z"/>
	<path d="M105.797,157.25h-2.773l0.144-0.72h3.619l-2.017,9.524h-0.846L105.797,157.25z M107.886,153.775
		c-0.108,0.521-0.63,0.936-1.152,0.936c-0.522,0-0.846-0.414-0.738-0.936c0.108-0.522,0.612-0.937,1.134-0.937
		C107.652,152.839,107.994,153.253,107.886,153.775z"/>
	<path d="M112.546,166.055H111.7l1.008-4.771c0.342-1.62,0.648-3.241,0.666-4.861h0.792l-0.252,2.736h0.036
		c0.667-1.422,2.485-2.826,3.998-2.826c1.729,0,1.89,1.494,1.584,2.935l-1.44,6.788h-0.846l1.351-6.392
		c0.234-1.099,0.558-2.611-0.918-2.611c-1.368,0-3.529,1.369-4.303,5.078L112.546,166.055z"/>
	<path d="M129.755,158.042c-0.648-0.54-1.404-0.99-2.358-0.99s-2.035,0.721-2.251,1.729c-0.234,1.116,0.9,1.639,1.693,1.963
		c1.333,0.559,2.737,1.135,2.34,2.989c-0.324,1.584-1.926,2.521-3.385,2.521c-1.188,0-2.575-0.738-3.259-1.53l0.612-0.685
		c0.612,0.774,1.71,1.494,2.827,1.494c1.062,0,2.106-0.594,2.358-1.746c0.306-1.423-0.72-1.837-1.747-2.269
		c-1.206-0.505-2.628-1.116-2.269-2.81c0.288-1.35,1.873-2.376,3.295-2.376c1.099,0,1.909,0.378,2.647,1.008L129.755,158.042z"/>
	<path d="M141.114,157.25h-3.493l-1.387,6.5c-0.198,0.918-0.036,1.782,1.135,1.782c1.062,0,1.98-0.792,2.575-1.692l0.774,0.198
		c-0.864,1.225-2.106,2.215-3.529,2.215c-1.225,0-2.215-0.595-1.692-3.007l1.278-5.996h-2.143l0.144-0.72h2.143l0.666-3.062h0.846
		l-0.666,3.062h3.493L141.114,157.25z"/>
	<path d="M149.501,166.253c-0.072-0.522-0.09-1.08-0.018-1.621c-0.864,0.955-1.711,1.621-2.953,1.621
		c-1.747,0-2.359-1.423-2.017-3.025c0.396-1.818,1.747-3.385,3.583-3.385c0.774,0,1.603,0.307,2.197,0.63
		c0.558-2.412,0.342-3.421-1.225-3.421c-0.828,0-1.584,0.288-2.413,0.631l-0.036-0.774c0.9-0.324,1.765-0.576,2.665-0.576
		c1.747,0,2.521,1.224,2.017,3.349c-0.306,1.297-0.612,2.593-0.937,3.89c-0.216,0.918-0.162,1.782-0.072,2.574L149.501,166.253z
		 M150.095,161.14c-0.522-0.307-1.188-0.576-1.944-0.576c-1.584,0-2.503,1.332-2.791,2.736c-0.234,1.062,0.108,2.232,1.314,2.232
		c1.188,0,2.106-0.954,2.899-1.926L150.095,161.14z"/>
	<path d="M160.48,153.415h-2.809l0.162-0.721h3.655l-2.845,13.36h-0.846L160.48,153.415z"/>
	<path d="M171.28,153.415h-2.809l0.162-0.721h3.655l-2.845,13.36h-0.846L171.28,153.415z"/>
	<path d="M187.911,159.411c0.27-1.261,0.342-2.27,0.324-3.079h0.864l-0.036,1.242c0.702-0.756,1.566-1.242,2.502-1.242
		c0.774,0,1.099,0.468,1.225,1.152c0.612-0.612,1.386-1.152,2.214-1.152c1.225,0,1.693,0.81,1.44,1.998l-1.638,7.725h-0.846
		l1.638-7.688c0.198-0.972-0.198-1.332-0.864-1.332c-0.756,0-1.512,0.594-1.999,1.225l-1.656,7.796h-0.847l1.549-7.311
		c0.144-0.72,0.306-1.692-0.648-1.692c-0.81,0-1.692,0.666-2.161,1.387l-1.621,7.616h-0.846L187.911,159.411z"/>
	<path d="M203.5,166.253c-0.072-0.522-0.09-1.08-0.018-1.621c-0.864,0.955-1.711,1.621-2.953,1.621
		c-1.747,0-2.359-1.423-2.017-3.025c0.396-1.818,1.747-3.385,3.583-3.385c0.774,0,1.603,0.307,2.197,0.63
		c0.558-2.412,0.342-3.421-1.225-3.421c-0.828,0-1.584,0.288-2.413,0.631l-0.036-0.774c0.9-0.324,1.765-0.576,2.665-0.576
		c1.747,0,2.521,1.224,2.017,3.349c-0.306,1.297-0.612,2.593-0.937,3.89c-0.216,0.918-0.162,1.782-0.072,2.574L203.5,166.253z
		 M204.094,161.14c-0.522-0.307-1.188-0.576-1.944-0.576c-1.584,0-2.503,1.332-2.791,2.736c-0.234,1.062,0.108,2.232,1.314,2.232
		c1.188,0,2.106-0.954,2.899-1.926L204.094,161.14z"/>
	<path d="M214.48,153.415h-2.809l0.162-0.721h3.655l-2.845,13.36h-0.846L214.48,153.415z"/>
	<path d="M220.436,156.53h0.936l-0.432,8.229h0.036l2.917-5.78h0.918l0.432,5.78h0.036l3.061-8.229h0.918l-3.727,9.65h-0.918
		l-0.504-6.158l-3.097,6.158h-0.918L220.436,156.53z"/>
	<path d="M235.899,166.253c-0.072-0.522-0.09-1.08-0.018-1.621c-0.864,0.955-1.711,1.621-2.953,1.621
		c-1.747,0-2.359-1.423-2.017-3.025c0.396-1.818,1.747-3.385,3.583-3.385c0.774,0,1.603,0.307,2.197,0.63
		c0.558-2.412,0.342-3.421-1.225-3.421c-0.828,0-1.584,0.288-2.413,0.631l-0.036-0.774c0.9-0.324,1.765-0.576,2.665-0.576
		c1.747,0,2.521,1.224,2.017,3.349c-0.306,1.297-0.612,2.593-0.937,3.89c-0.216,0.918-0.162,1.782-0.072,2.574L235.899,166.253z
		 M236.493,161.14c-0.522-0.307-1.188-0.576-1.944-0.576c-1.584,0-2.503,1.332-2.791,2.736c-0.234,1.062,0.108,2.232,1.314,2.232
		c1.188,0,2.106-0.954,2.899-1.926L236.493,161.14z"/>
	<path d="M243.008,166.055h-0.846l1.404-6.59l0.306-3.043h0.81l-0.252,2.665l0.036,0.036c0.864-1.314,2.179-2.791,3.817-2.791
		c1.584,0,1.656,1.584,1.386,2.881h-0.846c0.162-0.883,0.378-2.161-0.774-2.161c-0.973,0-3.439,1.513-4.213,5.132L243.008,166.055z"
		/>
	<path d="M259.029,165.389c-1.206,0.486-2.358,0.864-3.583,0.864c-2.79,0-3.295-2.503-2.772-4.916
		c0.504-2.412,2.125-5.005,4.934-5.005c1.603,0,3.241,1.152,2.412,5.096h-6.518c-0.559,3.349,0.666,4.104,2.125,4.104
		c1.08,0,2.196-0.396,3.205-0.936L259.029,165.389z M259.317,160.707c0.433-1.639-0.107-3.655-1.98-3.655
		c-1.854,0-3.385,1.98-3.69,3.655H259.317z"/>
	<path d="M281.511,157.25h-3.493l-1.387,6.5c-0.198,0.918-0.036,1.782,1.135,1.782c1.062,0,1.98-0.792,2.574-1.692l0.774,0.198
		c-0.864,1.225-2.106,2.215-3.529,2.215c-1.224,0-2.214-0.595-1.692-3.007l1.278-5.996h-2.143l0.145-0.72h2.143l0.666-3.062h0.847
		l-0.667,3.062h3.493L281.511,157.25z"/>
	<path d="M285.216,161.283c0.793-3.709,2.972-4.951,4.7-4.951c1.584,0,3.421,1.062,2.593,4.951c-0.811,3.871-3.098,4.97-4.7,4.97
		S284.388,165.173,285.216,161.283z M291.663,161.283c0.396-1.854,0.433-4.231-1.908-4.231c-2.323,0-3.295,2.377-3.691,4.231
		c-0.396,1.873-0.433,4.249,1.891,4.249C290.294,165.532,291.266,163.138,291.663,161.283z"/>
	<path d="M313.352,158.042c-0.647-0.54-1.404-0.99-2.358-0.99s-2.035,0.721-2.251,1.729c-0.233,1.116,0.9,1.639,1.692,1.963
		c1.333,0.559,2.737,1.135,2.341,2.989c-0.324,1.584-1.927,2.521-3.385,2.521c-1.188,0-2.575-0.738-3.259-1.53l0.612-0.685
		c0.612,0.774,1.71,1.494,2.826,1.494c1.062,0,2.107-0.594,2.359-1.746c0.306-1.423-0.721-1.837-1.747-2.269
		c-1.206-0.505-2.629-1.116-2.269-2.81c0.288-1.35,1.873-2.376,3.295-2.376c1.099,0,1.909,0.378,2.647,1.008L313.352,158.042z"/>
	<path d="M317.634,156.53h0.937l-0.433,8.229h0.036l2.917-5.78h0.918l0.433,5.78h0.036l3.061-8.229h0.918l-3.727,9.65h-0.919
		l-0.504-6.158l-3.097,6.158h-0.918L317.634,156.53z"/>
	<path d="M332.593,157.25h-2.772l0.144-0.72h3.619l-2.017,9.524h-0.847L332.593,157.25z M334.682,153.775
		c-0.108,0.521-0.631,0.936-1.152,0.936c-0.522,0-0.847-0.414-0.738-0.936c0.107-0.522,0.612-0.937,1.134-0.937
		C334.448,152.839,334.79,153.253,334.682,153.775z"/>
	<path d="M339.9,159.86c0.252-1.152,0.396-2.305,0.307-3.421l0.81-0.107v1.566h0.036c0.685-0.99,1.729-1.566,2.845-1.566
		c1.585,0,3.421,1.278,2.611,5.023c-0.811,3.817-3.476,4.897-4.771,4.897c-0.847,0-1.639-0.288-2.179-0.811l-0.937,4.43h-0.847
		L339.9,159.86z M339.738,164.597c0.486,0.521,1.116,0.936,1.927,0.936c1.08,0,3.277-0.756,4.015-4.23
		c0.703-3.313-0.882-4.25-1.962-4.25c-1.261,0-2.089,0.883-2.773,1.909L339.738,164.597z"/>
	<path d="M356.227,165.389c-1.206,0.486-2.358,0.864-3.583,0.864c-2.791,0-3.295-2.503-2.772-4.916
		c0.504-2.412,2.125-5.005,4.934-5.005c1.603,0,3.241,1.152,2.412,5.096H350.7c-0.558,3.349,0.666,4.104,2.125,4.104
		c1.08,0,2.196-0.396,3.205-0.936L356.227,165.389z M356.515,160.707c0.433-1.639-0.107-3.655-1.98-3.655
		c-1.854,0-3.385,1.98-3.69,3.655H356.515z"/>
	<path d="M107.832,186.988c-1.207,0.486-2.359,0.864-3.583,0.864c-2.791,0-3.295-2.503-2.773-4.916
		c0.504-2.412,2.125-5.005,4.934-5.005c1.603,0,3.241,1.152,2.413,5.096h-6.518c-0.558,3.349,0.666,4.104,2.125,4.104
		c1.081,0,2.197-0.396,3.205-0.936L107.832,186.988z M108.12,182.307c0.432-1.639-0.108-3.655-1.981-3.655
		c-1.854,0-3.385,1.98-3.691,3.655H108.12z"/>
	<path d="M120.414,178.13l-5.042,9.65h-0.99l-0.972-9.65h0.9l0.828,8.372l4.375-8.372H120.414z"/>
	<path d="M129.432,186.988c-1.207,0.486-2.359,0.864-3.583,0.864c-2.791,0-3.295-2.503-2.773-4.916
		c0.504-2.412,2.125-5.005,4.934-5.005c1.603,0,3.241,1.152,2.413,5.096h-6.518c-0.558,3.349,0.666,4.104,2.125,4.104
		c1.081,0,2.197-0.396,3.205-0.936L129.432,186.988z M129.72,182.307c0.432-1.639-0.108-3.655-1.981-3.655
		c-1.854,0-3.385,1.98-3.691,3.655H129.72z"/>
	<path d="M135.01,187.654h-0.846l1.404-6.59l0.306-3.043h0.81l-0.252,2.665l0.036,0.036c0.864-1.314,2.179-2.791,3.817-2.791
		c1.584,0,1.657,1.584,1.387,2.881h-0.846c0.162-0.883,0.378-2.161-0.774-2.161c-0.972,0-3.439,1.513-4.213,5.132L135.01,187.654z"
		/>
	<path d="M153.156,178.13l-5.474,9.057c-0.792,1.296-2.071,3.511-3.745,3.511c-1.08,0-1.692-0.847-1.801-1.818l0.792-0.378
		c0.09,0.647,0.378,1.476,1.17,1.476c0.918,0,1.621-1.062,2.088-1.782l1.062-1.639l-1.314-8.426h0.937l1.026,7.31l4.286-7.31
		H153.156z"/>
	<path d="M172.937,186.25c-1.099,0.954-2.143,1.603-3.493,1.603c-1.675,0-3.763-1.045-2.953-4.861
		c0.829-3.854,3.205-5.06,4.988-5.06c1.44,0,2.34,0.756,2.863,1.927l-0.864,0.504c-0.288-0.99-0.99-1.711-2.161-1.711
		c-1.188,0-3.205,0.738-3.943,4.195c-0.702,3.277,0.811,4.285,2.197,4.285c1.044,0,2.106-0.72,2.917-1.494L172.937,186.25z"/>
	<path d="M178.209,187.654h-0.846l1.404-6.59l0.306-3.043h0.81l-0.252,2.665l0.036,0.036c0.864-1.314,2.179-2.791,3.817-2.791
		c1.584,0,1.657,1.584,1.387,2.881h-0.846c0.162-0.883,0.378-2.161-0.774-2.161c-0.972,0-3.439,1.513-4.213,5.132L178.209,187.654z"
		/>
	<path d="M194.23,186.988c-1.207,0.486-2.359,0.864-3.583,0.864c-2.791,0-3.295-2.503-2.773-4.916
		c0.504-2.412,2.125-5.005,4.934-5.005c1.603,0,3.241,1.152,2.413,5.096h-6.518c-0.558,3.349,0.666,4.104,2.125,4.104
		c1.081,0,2.197-0.396,3.205-0.936L194.23,186.988z M194.519,182.307c0.432-1.639-0.108-3.655-1.981-3.655
		c-1.854,0-3.385,1.98-3.691,3.655H194.519z"/>
	<path d="M205.138,184.306c-0.252,1.17-0.414,2.322-0.306,3.438l-0.81,0.108l-0.018-1.566c-0.72,0.99-1.747,1.566-2.863,1.566
		c-1.603,0-3.421-1.314-2.629-5.023c0.81-3.817,3.475-4.897,4.79-4.897c0.846,0,1.621,0.288,2.161,0.81l0.954-4.447h0.846
		L205.138,184.306z M205.282,179.588c-0.486-0.522-1.134-0.937-1.927-0.937c-1.08,0-3.259,0.738-4.015,4.231
		c-0.702,3.295,0.882,4.249,1.963,4.249c1.206,0,2.179-0.882,2.791-1.908L205.282,179.588z"/>
	<path d="M213.795,178.85h-2.773l0.144-0.72h3.619l-2.017,9.524h-0.846L213.795,178.85z M215.884,175.375
		c-0.108,0.521-0.63,0.936-1.152,0.936c-0.522,0-0.846-0.414-0.738-0.936c0.108-0.522,0.612-0.937,1.134-0.937
		C215.65,174.439,215.992,174.853,215.884,175.375z"/>
	<path d="M227.512,178.85h-3.493l-1.387,6.5c-0.198,0.918-0.036,1.782,1.135,1.782c1.062,0,1.98-0.792,2.575-1.692l0.774,0.198
		c-0.864,1.225-2.106,2.215-3.529,2.215c-1.225,0-2.215-0.595-1.692-3.007l1.278-5.996h-2.143l0.144-0.72h2.143l0.666-3.062h0.846
		l-0.666,3.062h3.493L227.512,178.85z"/>
	<path d="M248.536,186.25c-1.099,0.954-2.143,1.603-3.493,1.603c-1.675,0-3.763-1.045-2.953-4.861
		c0.829-3.854,3.205-5.06,4.987-5.06c1.44,0,2.341,0.756,2.863,1.927l-0.864,0.504c-0.288-0.99-0.99-1.711-2.161-1.711
		c-1.188,0-3.205,0.738-3.943,4.195c-0.702,3.277,0.811,4.285,2.197,4.285c1.044,0,2.106-0.72,2.917-1.494L248.536,186.25z"/>
	<path d="M257.499,187.853c-0.072-0.522-0.09-1.08-0.018-1.621c-0.864,0.955-1.711,1.621-2.953,1.621
		c-1.746,0-2.358-1.423-2.017-3.025c0.396-1.818,1.746-3.385,3.583-3.385c0.774,0,1.603,0.307,2.196,0.63
		c0.559-2.412,0.343-3.421-1.224-3.421c-0.828,0-1.585,0.288-2.413,0.631l-0.036-0.774c0.9-0.324,1.765-0.576,2.665-0.576
		c1.746,0,2.521,1.224,2.017,3.349c-0.306,1.297-0.612,2.593-0.937,3.89c-0.216,0.918-0.162,1.782-0.072,2.574L257.499,187.853z
		 M258.093,182.739c-0.522-0.307-1.188-0.576-1.945-0.576c-1.584,0-2.502,1.332-2.79,2.736c-0.234,1.062,0.107,2.232,1.313,2.232
		c1.188,0,2.107-0.954,2.899-1.926L258.093,182.739z"/>
	<path d="M264.607,187.654h-0.846l1.404-6.59l0.307-3.043h0.81l-0.252,2.665l0.036,0.036c0.864-1.314,2.179-2.791,3.817-2.791
		c1.584,0,1.656,1.584,1.386,2.881h-0.846c0.162-0.883,0.378-2.161-0.774-2.161c-0.973,0-3.439,1.513-4.213,5.132L264.607,187.654z"
		/>
	<path d="M280.737,184.306c-0.252,1.17-0.414,2.322-0.306,3.438l-0.811,0.108l-0.019-1.566c-0.72,0.99-1.746,1.566-2.862,1.566
		c-1.603,0-3.421-1.314-2.629-5.023c0.811-3.817,3.475-4.897,4.789-4.897c0.847,0,1.621,0.288,2.161,0.81l0.954-4.447h0.847
		L280.737,184.306z M280.88,179.588c-0.485-0.522-1.134-0.937-1.926-0.937c-1.081,0-3.26,0.738-4.016,4.231
		c-0.702,3.295,0.883,4.249,1.963,4.249c1.206,0,2.179-0.882,2.791-1.908L280.88,179.588z"/>
	<path d="M101.746,209.255H100.9l1.008-4.771c0.342-1.62,0.648-3.241,0.666-4.861h0.792l-0.252,2.736h0.036
		c0.667-1.422,2.485-2.826,3.998-2.826c1.729,0,1.89,1.494,1.584,2.935l-1.44,6.788h-0.846l1.351-6.392
		c0.234-1.099,0.558-2.611-0.918-2.611c-1.368,0-3.529,1.368-4.303,5.078L101.746,209.255z"/>
	<path d="M119.334,199.731h0.846l-0.99,4.699c-0.342,1.62-0.63,3.241-0.648,4.825h-0.792l0.216-2.701h-0.036
		c-0.667,1.423-2.485,2.899-3.979,2.899c-1.729,0-1.891-1.566-1.584-3.007l1.422-6.716h0.846l-1.332,6.319
		c-0.378,1.801-0.126,2.683,0.9,2.683c1.404,0,3.565-1.548,4.321-5.149L119.334,199.731z"/>
	<path d="M123.112,202.611c0.27-1.261,0.342-2.27,0.324-3.079h0.864l-0.036,1.242c0.702-0.756,1.566-1.242,2.502-1.242
		c0.774,0,1.099,0.468,1.225,1.152c0.612-0.612,1.386-1.152,2.214-1.152c1.225,0,1.693,0.81,1.44,1.998l-1.638,7.725h-0.846
		l1.638-7.688c0.198-0.972-0.198-1.332-0.864-1.332c-0.756,0-1.512,0.594-1.999,1.225l-1.656,7.796h-0.847l1.549-7.311
		c0.144-0.72,0.306-1.692-0.648-1.692c-0.81,0-1.692,0.666-2.161,1.387l-1.621,7.616h-0.846L123.112,202.611z"/>
	<path d="M137.081,195.895l-0.955,4.447c0.756-0.521,1.675-0.81,2.521-0.81c1.314,0,3.511,1.08,2.701,4.897
		c-0.792,3.709-3.169,5.023-4.753,5.023c-1.116,0-1.927-0.576-2.215-1.566l-0.666,1.566l-0.774-0.108
		c0.576-1.116,0.918-2.269,1.17-3.438l2.125-10.012H137.081z M134.758,206.824c0.252,1.026,0.702,1.908,1.962,1.908
		c1.081,0,3.061-0.936,3.763-4.249c0.756-3.493-1.134-4.231-2.215-4.231c-0.81,0-1.62,0.414-2.323,0.937L134.758,206.824z"/>
	<path d="M151.031,208.589c-1.207,0.486-2.359,0.864-3.583,0.864c-2.791,0-3.295-2.503-2.773-4.916
		c0.504-2.412,2.125-5.005,4.934-5.005c1.603,0,3.241,1.152,2.413,5.096h-6.518c-0.558,3.349,0.666,4.104,2.125,4.104
		c1.081,0,2.197-0.396,3.205-0.936L151.031,208.589z M151.319,203.907c0.432-1.639-0.108-3.655-1.981-3.655
		c-1.854,0-3.385,1.98-3.691,3.655H151.319z"/>
	<path d="M156.609,209.255h-0.846l1.404-6.59l0.306-3.043h0.81l-0.252,2.665l0.036,0.036c0.864-1.314,2.179-2.791,3.817-2.791
		c1.584,0,1.657,1.584,1.387,2.881h-0.846c0.162-0.883,0.378-2.161-0.774-2.161c-0.972,0-3.439,1.513-4.213,5.132L156.609,209.255z"
		/>
	<path d="M169.39,207.076c0.667,0,1.099,0.559,0.955,1.225s-0.811,1.206-1.477,1.206s-1.099-0.54-0.954-1.206
		C168.057,207.635,168.724,207.076,169.39,207.076z"/>
	<path d="M192.7,196.291l-0.432,1.999l-0.99,2.431h-0.72l0.018-2.431l0.432-1.999H192.7z M195.563,196.291l-0.433,1.999l-0.99,2.431
		h-0.72l0.018-2.431l0.432-1.999H195.563z"/>
	<path d="M208.091,197.011h-3.745l-2.611,12.244h-0.846l2.61-12.244h-3.727l0.144-0.72h8.318L208.091,197.011z"/>
	<path d="M211.905,195.895h0.846l-1.26,5.906h0.036c0.828-1.188,2.214-2.269,3.655-2.269c0.882,0,2.125,0.702,1.675,2.791
		l-1.477,6.932h-0.846l1.278-5.978c0.252-1.207,0.468-3.025-0.937-3.025c-1.603,0-3.475,1.999-3.943,4.214l-1.026,4.789h-0.846
		L211.905,195.895z"/>
	<path d="M226.63,208.589c-1.207,0.486-2.359,0.864-3.583,0.864c-2.791,0-3.295-2.503-2.773-4.916
		c0.504-2.412,2.125-5.005,4.934-5.005c1.603,0,3.241,1.152,2.413,5.096h-6.518c-0.558,3.349,0.666,4.104,2.125,4.104
		c1.081,0,2.197-0.396,3.205-0.936L226.63,208.589z M226.918,203.907c0.432-1.639-0.108-3.655-1.981-3.655
		c-1.854,0-3.385,1.98-3.691,3.655H226.918z"/>
	<path d="M239.554,199.731l-5.474,9.057c-0.792,1.296-2.071,3.511-3.745,3.511c-1.08,0-1.692-0.847-1.801-1.818l0.792-0.378
		c0.09,0.647,0.378,1.476,1.17,1.476c0.918,0,1.621-1.062,2.088-1.782l1.062-1.639l-1.314-8.426h0.937l1.026,7.31l4.286-7.31
		H239.554z"/>
	<path d="M248.122,196.291l-0.433,1.999l-0.99,2.431h-0.72l0.018-2.431l0.433-1.999H248.122z"/>
	<path d="M253.808,209.255h-0.847l1.404-6.59l0.306-3.043h0.811l-0.252,2.665l0.036,0.036c0.864-1.314,2.179-2.791,3.817-2.791
		c1.584,0,1.656,1.584,1.386,2.881h-0.846c0.162-0.883,0.378-2.161-0.774-2.161c-0.973,0-3.439,1.513-4.213,5.132L253.808,209.255z"
		/>
	<path d="M269.829,208.589c-1.206,0.486-2.358,0.864-3.583,0.864c-2.791,0-3.295-2.503-2.772-4.916
		c0.504-2.412,2.125-5.005,4.934-5.005c1.603,0,3.241,1.152,2.412,5.096h-6.518c-0.558,3.349,0.666,4.104,2.125,4.104
		c1.08,0,2.196-0.396,3.205-0.936L269.829,208.589z M270.117,203.907c0.433-1.639-0.107-3.655-1.98-3.655
		c-1.854,0-3.385,1.98-3.69,3.655H270.117z"/>
	<path d="M290.079,196.615h-2.81l0.162-0.721h3.655l-2.845,13.36h-0.847L290.079,196.615z"/>
	<path d="M300.194,200.45h-2.772l0.144-0.72h3.619l-2.017,9.524h-0.847L300.194,200.45z M302.283,196.976
		c-0.108,0.521-0.631,0.936-1.152,0.936c-0.522,0-0.847-0.414-0.738-0.936c0.107-0.522,0.612-0.937,1.134-0.937
		C302.048,196.039,302.39,196.453,302.283,196.976z"/>
	<path d="M314.72,199.731c-2.088,2.017-2.952,2.916-4.717,4.339l3.511,5.186h-1.134l-2.989-4.699l-1.08,0.882l-0.811,3.817h-0.847
		l2.846-13.36h0.846l-1.818,8.535c1.782-1.404,3.565-2.971,5.096-4.699H314.72z"/>
	<path d="M323.828,208.589c-1.206,0.486-2.358,0.864-3.583,0.864c-2.79,0-3.295-2.503-2.772-4.916
		c0.504-2.412,2.125-5.005,4.934-5.005c1.603,0,3.241,1.152,2.412,5.096H318.3c-0.559,3.349,0.666,4.104,2.125,4.104
		c1.08,0,2.196-0.396,3.205-0.936L323.828,208.589z M324.116,203.907c0.433-1.639-0.107-3.655-1.98-3.655
		c-1.854,0-3.385,1.98-3.69,3.655H324.116z"/>
	<path d="M107.832,230.189c-1.207,0.486-2.359,0.864-3.583,0.864c-2.791,0-3.295-2.503-2.773-4.916
		c0.504-2.412,2.125-5.005,4.934-5.005c1.603,0,3.241,1.152,2.413,5.096h-6.518c-0.558,3.349,0.666,4.104,2.125,4.104
		c1.081,0,2.197-0.396,3.205-0.936L107.832,230.189z M108.12,225.507c0.432-1.639-0.108-3.655-1.981-3.655
		c-1.854,0-3.385,1.98-3.691,3.655H108.12z"/>
	<path d="M120.414,221.33l-5.042,9.65h-0.99l-0.972-9.65h0.9l0.828,8.372l4.375-8.372H120.414z"/>
	<path d="M129.432,230.189c-1.207,0.486-2.359,0.864-3.583,0.864c-2.791,0-3.295-2.503-2.773-4.916
		c0.504-2.412,2.125-5.005,4.934-5.005c1.603,0,3.241,1.152,2.413,5.096h-6.518c-0.558,3.349,0.666,4.104,2.125,4.104
		c1.081,0,2.197-0.396,3.205-0.936L129.432,230.189z M129.72,225.507c0.432-1.639-0.108-3.655-1.981-3.655
		c-1.854,0-3.385,1.98-3.691,3.655H129.72z"/>
	<path d="M135.01,230.855h-0.846l1.404-6.59l0.306-3.043h0.81l-0.252,2.665l0.036,0.036c0.864-1.314,2.179-2.791,3.817-2.791
		c1.584,0,1.657,1.584,1.387,2.881h-0.846c0.162-0.883,0.378-2.161-0.774-2.161c-0.972,0-3.439,1.513-4.213,5.132L135.01,230.855z"
		/>
	<path d="M153.156,221.33l-5.474,9.057c-0.792,1.296-2.071,3.511-3.745,3.511c-1.08,0-1.692-0.847-1.801-1.818l0.792-0.378
		c0.09,0.647,0.378,1.476,1.17,1.476c0.918,0,1.621-1.062,2.088-1.782l1.062-1.639l-1.314-8.426h0.937l1.026,7.31l4.286-7.31
		H153.156z"/>
	<path d="M166.419,226.083c0.792-3.709,2.971-4.951,4.699-4.951c1.584,0,3.421,1.062,2.593,4.951c-0.81,3.871-3.097,4.97-4.699,4.97
		S165.591,229.973,166.419,226.083z M172.865,226.083c0.396-1.854,0.432-4.231-1.909-4.231c-2.323,0-3.295,2.377-3.691,4.231
		c-0.396,1.873-0.432,4.249,1.891,4.249C171.497,230.332,172.469,227.938,172.865,226.083z"/>
	<path d="M184.313,222.05h-3.493l-1.387,6.5c-0.198,0.918-0.036,1.782,1.135,1.782c1.062,0,1.98-0.792,2.575-1.692l0.774,0.198
		c-0.864,1.225-2.106,2.215-3.529,2.215c-1.225,0-2.215-0.595-1.692-3.007l1.278-5.996h-2.143l0.144-0.72h2.143l0.666-3.062h0.846
		l-0.666,3.062h3.493L184.313,222.05z"/>
	<path d="M190.305,217.494h0.846l-1.26,5.906h0.036c0.828-1.188,2.214-2.269,3.655-2.269c0.882,0,2.125,0.702,1.675,2.791
		l-1.477,6.932h-0.846l1.278-5.978c0.252-1.207,0.468-3.025-0.937-3.025c-1.603,0-3.475,1.999-3.943,4.214l-1.026,4.789h-0.846
		L190.305,217.494z"/>
	<path d="M205.03,230.189c-1.207,0.486-2.359,0.864-3.583,0.864c-2.791,0-3.295-2.503-2.773-4.916
		c0.504-2.412,2.125-5.005,4.934-5.005c1.603,0,3.241,1.152,2.413,5.096h-6.518c-0.558,3.349,0.666,4.104,2.125,4.104
		c1.081,0,2.197-0.396,3.205-0.936L205.03,230.189z M205.318,225.507c0.432-1.639-0.108-3.655-1.981-3.655
		c-1.854,0-3.385,1.98-3.691,3.655H205.318z"/>
	<path d="M210.608,230.855h-0.846l1.404-6.59l0.306-3.043h0.81l-0.252,2.665l0.036,0.036c0.864-1.314,2.179-2.791,3.817-2.791
		c1.584,0,1.657,1.584,1.387,2.881h-0.846c0.162-0.883,0.378-2.161-0.774-2.161c-0.972,0-3.439,1.513-4.213,5.132L210.608,230.855z"
		/>
	<path d="M233.504,217.494h0.846l-1.26,5.906h0.036c0.828-1.188,2.214-2.269,3.655-2.269c0.882,0,2.125,0.702,1.675,2.791
		l-1.477,6.932h-0.846l1.278-5.978c0.252-1.207,0.468-3.025-0.937-3.025c-1.603,0-3.475,1.999-3.943,4.214l-1.026,4.789h-0.846
		L233.504,217.494z"/>
	<path d="M242.018,226.083c0.792-3.709,2.971-4.951,4.7-4.951c1.584,0,3.421,1.062,2.593,4.951c-0.811,3.871-3.098,4.97-4.7,4.97
		C243.008,231.053,241.189,229.973,242.018,226.083z M248.463,226.083c0.396-1.854,0.433-4.231-1.908-4.231
		c-2.323,0-3.295,2.377-3.691,4.231c-0.396,1.873-0.432,4.249,1.891,4.249C247.095,230.332,248.067,227.938,248.463,226.083z"/>
	<path d="M259.912,222.05h-3.493l-1.387,6.5c-0.198,0.918-0.036,1.782,1.135,1.782c1.062,0,1.98-0.792,2.574-1.692l0.774,0.198
		c-0.864,1.225-2.106,2.215-3.529,2.215c-1.224,0-2.214-0.595-1.692-3.007l1.278-5.996h-2.143l0.145-0.72h2.143l0.666-3.062h0.847
		l-0.667,3.062h3.493L259.912,222.05z"/>
	<path d="M269.829,230.189c-1.206,0.486-2.358,0.864-3.583,0.864c-2.791,0-3.295-2.503-2.772-4.916
		c0.504-2.412,2.125-5.005,4.934-5.005c1.603,0,3.241,1.152,2.412,5.096h-6.518c-0.558,3.349,0.666,4.104,2.125,4.104
		c1.08,0,2.196-0.396,3.205-0.936L269.829,230.189z M270.117,225.507c0.433-1.639-0.107-3.655-1.98-3.655
		c-1.854,0-3.385,1.98-3.69,3.655H270.117z"/>
	<path d="M279.279,218.215h-2.81l0.162-0.721h3.655l-2.845,13.36h-0.847L279.279,218.215z"/>
	<path d="M303.345,218.61h-1.801l-2.449,11.523h1.801l-0.162,0.721h-4.447l0.162-0.721h1.801l2.448-11.523h-1.801l0.145-0.72h4.447
		L303.345,218.61z"/>
	<path d="M312.92,217.891l-0.433,1.999l-0.99,2.431h-0.72l0.018-2.431l0.433-1.999H312.92z"/>
	<path d="M325.611,221.33l-5.042,9.65h-0.99l-0.972-9.65h0.899l0.829,8.372l4.375-8.372H325.611z"/>
	<path d="M334.627,230.189c-1.206,0.486-2.358,0.864-3.583,0.864c-2.791,0-3.295-2.503-2.772-4.916
		c0.504-2.412,2.125-5.005,4.934-5.005c1.603,0,3.241,1.152,2.412,5.096H329.1c-0.558,3.349,0.666,4.104,2.125,4.104
		c1.08,0,2.196-0.396,3.205-0.936L334.627,230.189z M334.916,225.507c0.433-1.639-0.107-3.655-1.98-3.655
		c-1.854,0-3.385,1.98-3.69,3.655H334.916z"/>
	<path d="M108.714,243.65h-3.493l-1.387,6.5c-0.198,0.918-0.036,1.782,1.135,1.782c1.062,0,1.98-0.792,2.575-1.692l0.774,0.198
		c-0.864,1.225-2.106,2.215-3.529,2.215c-1.225,0-2.215-0.595-1.692-3.007l1.278-5.996h-2.143l0.144-0.72h2.143l0.666-3.062h0.846
		l-0.666,3.062h3.493L108.714,243.65z"/>
	<path d="M113.41,252.455h-0.846l1.404-6.59l0.306-3.043h0.81l-0.252,2.665l0.036,0.036c0.864-1.314,2.179-2.791,3.817-2.791
		c1.584,0,1.657,1.584,1.387,2.881h-0.846c0.162-0.883,0.378-2.161-0.774-2.161c-0.972,0-3.439,1.513-4.213,5.132L113.41,252.455z"
		/>
	<path d="M127.397,243.65h-2.773l0.144-0.72h3.619l-2.017,9.524h-0.846L127.397,243.65z M129.485,240.176
		c-0.108,0.521-0.63,0.936-1.152,0.936c-0.522,0-0.846-0.414-0.738-0.936c0.108-0.522,0.612-0.937,1.134-0.937
		C129.251,239.239,129.594,239.653,129.485,240.176z"/>
	<path d="M140.231,251.789c-1.207,0.486-2.359,0.864-3.583,0.864c-2.791,0-3.295-2.503-2.773-4.916
		c0.504-2.412,2.125-5.005,4.934-5.005c1.603,0,3.241,1.152,2.413,5.096h-6.518c-0.558,3.349,0.666,4.104,2.125,4.104
		c1.081,0,2.197-0.396,3.205-0.936L140.231,251.789z M140.52,247.108c0.432-1.639-0.108-3.655-1.981-3.655
		c-1.854,0-3.385,1.98-3.691,3.655H140.52z"/>
	<path d="M151.139,249.107c-0.252,1.17-0.414,2.322-0.306,3.438l-0.81,0.108l-0.018-1.566c-0.72,0.99-1.747,1.566-2.863,1.566
		c-1.603,0-3.421-1.314-2.629-5.023c0.81-3.817,3.475-4.897,4.79-4.897c0.846,0,1.621,0.288,2.161,0.81l0.954-4.447h0.846
		L151.139,249.107z M151.283,244.389c-0.486-0.522-1.134-0.937-1.927-0.937c-1.08,0-3.259,0.738-4.015,4.231
		c-0.702,3.295,0.882,4.249,1.963,4.249c1.206,0,2.179-0.882,2.791-1.908L151.283,244.389z"/>
	<path d="M173.513,243.65h-3.493l-1.387,6.5c-0.198,0.918-0.036,1.782,1.135,1.782c1.062,0,1.98-0.792,2.575-1.692l0.774,0.198
		c-0.864,1.225-2.106,2.215-3.529,2.215c-1.225,0-2.215-0.595-1.692-3.007l1.278-5.996h-2.143l0.144-0.72h2.143l0.666-3.062h0.846
		l-0.666,3.062h3.493L173.513,243.65z"/>
	<path d="M177.219,247.684c0.792-3.709,2.971-4.951,4.699-4.951c1.584,0,3.421,1.062,2.593,4.951c-0.81,3.871-3.097,4.97-4.699,4.97
		S176.391,251.573,177.219,247.684z M183.665,247.684c0.396-1.854,0.432-4.231-1.909-4.231c-2.323,0-3.295,2.377-3.691,4.231
		c-0.396,1.873-0.432,4.249,1.891,4.249C182.296,251.933,183.269,249.538,183.665,247.684z"/>
	<path d="M198.656,253.697c0.414,0.666,1.242,1.08,2.125,1.08c1.062,0,2.575-0.773,3.097-3.169l0.252-1.17
		c-0.792,0.685-1.999,1.17-2.935,1.17c-2.269,0-2.809-2.269-2.395-4.249c0.468-2.196,1.891-4.627,4.483-4.627
		c1.062,0,1.674,0.468,2.358,1.098l0.486-1.098h0.864c-0.792,1.639-1.152,3.349-1.494,5.023l-0.829,3.961
		c-0.594,2.809-2.755,3.781-4.213,3.781c-0.99,0-1.98-0.576-2.502-1.278L198.656,253.697z M205.282,244.839
		c-0.396-0.792-1.188-1.387-2.197-1.387c-1.962,0-3.061,2.125-3.403,3.745c-0.63,3.007,0.954,3.691,1.729,3.691
		c0.972,0,2.214-0.612,2.899-1.458L205.282,244.839z"/>
	<path d="M209.618,247.684c0.792-3.709,2.971-4.951,4.699-4.951c1.584,0,3.421,1.062,2.593,4.951c-0.81,3.871-3.097,4.97-4.699,4.97
		S208.79,251.573,209.618,247.684z M216.064,247.684c0.396-1.854,0.432-4.231-1.909-4.231c-2.323,0-3.295,2.377-3.691,4.231
		c-0.396,1.873-0.432,4.249,1.891,4.249C214.696,251.933,215.668,249.538,216.064,247.684z"/>
	<path d="M235.395,243.65h-2.773l0.144-0.72h3.619l-2.017,9.524h-0.846L235.395,243.65z M237.483,240.176
		c-0.108,0.521-0.63,0.936-1.152,0.936c-0.522,0-0.846-0.414-0.738-0.936c0.108-0.522,0.612-0.937,1.134-0.937
		C237.25,239.239,237.592,239.653,237.483,240.176z"/>
	<path d="M242.144,252.455h-0.846l1.008-4.771c0.342-1.62,0.648-3.241,0.666-4.861h0.792l-0.252,2.736h0.036
		c0.667-1.422,2.485-2.826,3.998-2.826c1.729,0,1.891,1.494,1.584,2.935l-1.44,6.788h-0.846l1.35-6.392
		c0.234-1.099,0.559-2.611-0.918-2.611c-1.368,0-3.529,1.369-4.303,5.078L242.144,252.455z"/>
	<path d="M259.912,243.65h-3.493l-1.387,6.5c-0.198,0.918-0.036,1.782,1.135,1.782c1.062,0,1.98-0.792,2.574-1.692l0.774,0.198
		c-0.864,1.225-2.106,2.215-3.529,2.215c-1.224,0-2.214-0.595-1.692-3.007l1.278-5.996h-2.143l0.145-0.72h2.143l0.666-3.062h0.847
		l-0.667,3.062h3.493L259.912,243.65z"/>
	<path d="M263.617,247.684c0.793-3.709,2.972-4.951,4.7-4.951c1.584,0,3.421,1.062,2.593,4.951c-0.811,3.871-3.098,4.97-4.7,4.97
		S262.789,251.573,263.617,247.684z M270.063,247.684c0.396-1.854,0.433-4.231-1.908-4.231c-2.323,0-3.295,2.377-3.691,4.231
		c-0.396,1.873-0.433,4.249,1.891,4.249C268.695,251.933,269.667,249.538,270.063,247.684z"/>
	<path d="M277.388,250.276c0.666,0,1.098,0.559,0.954,1.225c-0.145,0.666-0.811,1.206-1.477,1.206s-1.099-0.54-0.954-1.206
		C276.055,250.835,276.721,250.276,277.388,250.276z"/>
	<path d="M303.111,243.65h-3.493l-1.387,6.5c-0.198,0.918-0.036,1.782,1.135,1.782c1.062,0,1.98-0.792,2.574-1.692l0.774,0.198
		c-0.864,1.225-2.106,2.215-3.529,2.215c-1.224,0-2.214-0.595-1.692-3.007l1.278-5.996h-2.143l0.145-0.72h2.143l0.666-3.062h0.847
		l-0.667,3.062h3.493L303.111,243.65z"/>
	<path d="M309.103,239.095h0.847l-1.261,5.906h0.036c0.828-1.188,2.215-2.269,3.655-2.269c0.882,0,2.124,0.702,1.674,2.791
		l-1.477,6.932h-0.846l1.278-5.978c0.252-1.207,0.468-3.025-0.937-3.025c-1.603,0-3.475,1.999-3.943,4.214l-1.026,4.789h-0.846
		L309.103,239.095z"/>
	<path d="M323.828,251.789c-1.206,0.486-2.358,0.864-3.583,0.864c-2.79,0-3.295-2.503-2.772-4.916
		c0.504-2.412,2.125-5.005,4.934-5.005c1.603,0,3.241,1.152,2.412,5.096H318.3c-0.559,3.349,0.666,4.104,2.125,4.104
		c1.08,0,2.196-0.396,3.205-0.936L323.828,251.789z M324.116,247.108c0.433-1.639-0.107-3.655-1.98-3.655
		c-1.854,0-3.385,1.98-3.69,3.655H324.116z"/>
	<path d="M336.752,242.931l-5.474,9.057c-0.792,1.296-2.07,3.511-3.745,3.511c-1.08,0-1.692-0.847-1.801-1.818l0.792-0.378
		c0.091,0.647,0.379,1.476,1.171,1.476c0.918,0,1.62-1.062,2.089-1.782l1.062-1.639l-1.314-8.426h0.936l1.026,7.31l4.285-7.31
		H336.752z"/>
	<path d="M110.677,262.333c-0.828-0.396-1.278-0.774-2.071-0.774c-1.242,0-2.143,0.667-2.413,1.945l-0.36,1.674h3.151l-0.162,0.721
		h-3.151l-1.729,8.156h-0.846l1.729-8.156h-2.449l0.162-0.721h2.448l0.234-1.08c0.54-2.467,2.088-3.259,3.439-3.259
		c0.792,0,1.566,0.288,2.215,0.594L110.677,262.333z"/>
	<path d="M117.101,274.253c-0.072-0.522-0.09-1.08-0.018-1.621c-0.864,0.955-1.711,1.621-2.953,1.621
		c-1.747,0-2.359-1.423-2.017-3.025c0.396-1.818,1.747-3.385,3.583-3.385c0.774,0,1.603,0.307,2.197,0.63
		c0.558-2.412,0.342-3.421-1.225-3.421c-0.828,0-1.584,0.288-2.413,0.631l-0.036-0.774c0.9-0.324,1.765-0.576,2.665-0.576
		c1.747,0,2.521,1.224,2.017,3.349c-0.306,1.297-0.612,2.593-0.937,3.89c-0.216,0.918-0.162,1.782-0.072,2.574L117.101,274.253z
		 M117.695,269.14c-0.522-0.307-1.188-0.576-1.944-0.576c-1.584,0-2.503,1.332-2.791,2.736c-0.234,1.062,0.108,2.232,1.314,2.232
		c1.188,0,2.106-0.954,2.899-1.926L117.695,269.14z"/>
	<path d="M127.397,265.25h-2.773l0.144-0.72h3.619l-2.017,9.524h-0.846L127.397,265.25z M129.485,261.775
		c-0.108,0.521-0.63,0.936-1.152,0.936c-0.522,0-0.846-0.414-0.738-0.936c0.108-0.522,0.612-0.937,1.134-0.937
		C129.251,260.839,129.594,261.253,129.485,261.775z"/>
	<path d="M138.881,261.415h-2.809l0.162-0.721h3.655l-2.845,13.36h-0.846L138.881,261.415z"/>
	<path d="M147.79,271.876c0.667,0,1.099,0.559,0.955,1.225s-0.811,1.206-1.477,1.206s-1.099-0.54-0.954-1.206
		C146.458,272.435,147.124,271.876,147.79,271.876z"/>
	<path d="M160.3,261.091l-0.432,1.999l-0.99,2.431h-0.72l0.018-2.431l0.432-1.999H160.3z M163.164,261.091l-0.433,1.999l-0.99,2.431
		h-0.72l0.018-2.431l0.432-1.999H163.164z"/>
</g>
</svg>
