<?xml version="1.0" encoding="utf-8"?>
<!-- Generator: Adobe Illustrator 17.0.0, SVG Export Plug-In . SVG Version: 6.00 Build 0)  -->
<!DOCTYPE svg PUBLIC "-//W3C//DTD SVG 1.1//EN" "http://www.w3.org/Graphics/SVG/1.1/DTD/svg11.dtd">
<svg version="1.1" id="Layer_1" xmlns="http://www.w3.org/2000/svg" xmlns:xlink="http://www.w3.org/1999/xlink" x="0px" y="0px"
	 width="162.337px" height="78.642px" viewBox="-154.761 -72.633 162.337 78.642"
	 enable-background="new -154.761 -72.633 162.337 78.642" xml:space="preserve">
<path fill="#7F7F7F" d="M-151.772-72.633l-0.504,2.341l-1.242,2.323h-0.973l-0.27-2.323l0.504-2.341H-151.772z M-147.523-72.633
	l-0.504,2.341l-1.243,2.323h-0.972l-0.27-2.323l0.504-2.341H-147.523z"/>
<g>
	<path fill="#7F7F7F" d="M-115.939-69.031c0.594-0.162,1.278-0.504,1.638-1.062c-0.144,0.018-0.252,0.054-0.36,0.054
		c-0.667,0-1.008-0.45-0.864-1.116c0.144-0.685,0.792-1.17,1.44-1.17c0.792,0,1.116,0.738,0.954,1.476
		c-0.27,1.297-1.764,2.251-2.971,2.575L-115.939-69.031z"/>
	<path fill="#7F7F7F" d="M-19.39-22.889c0.667,0,1.099,0.558,0.955,1.225c-0.144,0.666-0.811,1.206-1.477,1.206
		s-1.099-0.54-0.954-1.206C-20.722-22.331-20.056-22.889-19.39-22.889z"/>
	<g>
		<path fill="#7F7F7F" d="M-133.83-71.354h-1.8l-2.449,11.523h1.801l-0.162,0.72h-4.447l0.162-0.72h1.8l2.449-11.523h-1.8
			l0.144-0.72h4.447L-133.83-71.354z"/>
		<path fill="#7F7F7F" d="M-123.264-67.915h-3.493l-1.387,6.5c-0.198,0.918-0.036,1.783,1.135,1.783c1.062,0,1.98-0.792,2.575-1.693
			l0.774,0.198c-0.864,1.224-2.106,2.215-3.529,2.215c-1.225,0-2.215-0.594-1.692-3.007l1.278-5.996h-2.143l0.144-0.72h2.143
			l0.666-3.061h0.846l-0.666,3.061h3.493L-123.264-67.915z"/>
		<path fill="#7F7F7F" d="M-102.223-67.123c-0.648-0.541-1.404-0.99-2.358-0.99s-2.035,0.72-2.251,1.729
			c-0.234,1.116,0.9,1.638,1.693,1.962c1.333,0.558,2.737,1.134,2.34,2.989c-0.324,1.584-1.926,2.521-3.385,2.521
			c-1.188,0-2.575-0.738-3.259-1.531l0.612-0.684c0.612,0.774,1.71,1.495,2.827,1.495c1.062,0,2.106-0.594,2.358-1.747
			c0.306-1.422-0.72-1.836-1.747-2.269c-1.206-0.504-2.628-1.116-2.269-2.809c0.288-1.351,1.873-2.377,3.295-2.377
			c1.099,0,1.909,0.378,2.647,1.009L-102.223-67.123z"/>
		<path fill="#7F7F7F" d="M-82.298-71.75h-2.809l0.162-0.72h3.655l-2.845,13.36h-0.846L-82.298-71.75z"/>
		<path fill="#7F7F7F" d="M-72.182-67.915h-2.773l0.144-0.72h3.619l-2.017,9.525h-0.846L-72.182-67.915z M-70.094-71.39
			c-0.108,0.522-0.63,0.937-1.152,0.937s-0.846-0.414-0.738-0.937c0.108-0.522,0.612-0.936,1.134-0.936
			C-70.328-72.326-69.985-71.912-70.094-71.39z"/>
		<path fill="#7F7F7F" d="M-58.465-67.915h-3.493l-1.387,6.5c-0.198,0.918-0.036,1.783,1.135,1.783c1.062,0,1.98-0.792,2.575-1.693
			l0.774,0.198c-0.864,1.224-2.106,2.215-3.529,2.215c-1.225,0-2.215-0.594-1.692-3.007l1.278-5.996h-2.143l0.144-0.72h2.143
			l0.666-3.061h0.846l-0.666,3.061h3.493L-58.465-67.915z"/>
		<path fill="#7F7F7F" d="M-48.548-59.777c-1.207,0.486-2.359,0.864-3.583,0.864c-2.791,0-3.295-2.503-2.773-4.916
			c0.504-2.413,2.125-5.006,4.934-5.006c1.603,0,3.241,1.152,2.413,5.096h-6.518c-0.558,3.349,0.666,4.105,2.125,4.105
			c1.081,0,2.197-0.396,3.205-0.937L-48.548-59.777z M-48.26-64.458c0.432-1.638-0.108-3.655-1.981-3.655
			c-1.854,0-3.385,1.98-3.691,3.655H-48.26z"/>
		<path fill="#7F7F7F" d="M-42.97-59.111h-0.846l1.404-6.59l0.306-3.043h0.81l-0.252,2.665l0.036,0.036
			c0.864-1.314,2.179-2.791,3.817-2.791c1.584,0,1.657,1.585,1.387,2.881h-0.846c0.162-0.882,0.378-2.16-0.774-2.16
			c-0.972,0-3.439,1.512-4.213,5.131L-42.97-59.111z"/>
		<path fill="#7F7F7F" d="M-28.479-58.912c-0.072-0.522-0.09-1.081-0.018-1.621c-0.864,0.954-1.711,1.621-2.953,1.621
			c-1.747,0-2.359-1.422-2.017-3.025c0.396-1.819,1.747-3.385,3.583-3.385c0.774,0,1.603,0.306,2.197,0.63
			c0.558-2.413,0.342-3.421-1.225-3.421c-0.828,0-1.584,0.288-2.413,0.63l-0.036-0.774c0.9-0.324,1.765-0.576,2.665-0.576
			c1.747,0,2.521,1.225,2.017,3.349c-0.306,1.296-0.612,2.593-0.937,3.889c-0.216,0.918-0.162,1.783-0.072,2.575L-28.479-58.912z
			 M-27.885-64.026c-0.522-0.306-1.188-0.576-1.944-0.576c-1.584,0-2.503,1.333-2.791,2.737c-0.234,1.062,0.108,2.233,1.314,2.233
			c1.188,0,2.106-0.955,2.899-1.927L-27.885-64.026z"/>
		<path fill="#7F7F7F" d="M-17.499-71.75h-2.809l0.162-0.72h3.655l-2.845,13.36h-0.846L-17.499-71.75z"/>
		<path fill="#7F7F7F" d="M-6.699-71.75h-2.809l0.162-0.72h3.655l-2.845,13.36h-0.846L-6.699-71.75z"/>
		<path fill="#7F7F7F" d="M7.576-68.635l-5.474,9.057c-0.792,1.296-2.071,3.511-3.745,3.511c-1.08,0-1.692-0.846-1.801-1.819
			l0.792-0.378c0.09,0.648,0.378,1.477,1.17,1.477c0.918,0,1.621-1.062,2.088-1.783l1.062-1.638l-1.314-8.427h0.937l1.026,7.31
			l4.286-7.31H7.576z"/>
		<path fill="#7F7F7F" d="M-134.064-48.716h-3.493l-1.387,6.5c-0.198,0.918-0.036,1.783,1.135,1.783c1.062,0,1.98-0.792,2.575-1.693
			l0.774,0.198c-0.864,1.225-2.106,2.215-3.529,2.215c-1.225,0-2.215-0.594-1.692-3.007l1.278-5.996h-2.143l0.144-0.72h2.143
			l0.666-3.061h0.846l-0.666,3.061h3.493L-134.064-48.716z"/>
		<path fill="#7F7F7F" d="M-125.677-39.713c-0.072-0.522-0.09-1.081-0.018-1.621c-0.864,0.954-1.711,1.621-2.953,1.621
			c-1.747,0-2.359-1.423-2.017-3.025c0.396-1.819,1.747-3.385,3.583-3.385c0.774,0,1.603,0.306,2.197,0.63
			c0.558-2.413,0.342-3.421-1.225-3.421c-0.828,0-1.584,0.288-2.413,0.63l-0.036-0.774c0.9-0.324,1.765-0.576,2.665-0.576
			c1.747,0,2.521,1.224,2.017,3.349c-0.306,1.296-0.612,2.593-0.937,3.889c-0.216,0.918-0.162,1.783-0.072,2.575L-125.677-39.713z
			 M-125.083-44.826c-0.522-0.306-1.188-0.576-1.944-0.576c-1.584,0-2.503,1.333-2.791,2.737c-0.234,1.062,0.108,2.233,1.314,2.233
			c1.188,0,2.106-0.955,2.899-1.927L-125.083-44.826z"/>
		<path fill="#7F7F7F" d="M-111.654-49.436c-2.088,2.017-2.953,2.917-4.717,4.339l3.511,5.186h-1.134l-2.989-4.699l-1.08,0.882
			l-0.811,3.817h-0.846l2.845-13.36h0.846l-1.818,8.535c1.783-1.405,3.565-2.971,5.096-4.7H-111.654z"/>
		<path fill="#7F7F7F" d="M-104.581-48.716h-2.773l0.144-0.72h3.619l-2.017,9.525h-0.846L-104.581-48.716z M-102.493-52.191
			c-0.108,0.522-0.63,0.937-1.152,0.937s-0.846-0.414-0.738-0.937c0.108-0.522,0.612-0.936,1.134-0.936
			C-102.727-53.127-102.385-52.713-102.493-52.191z"/>
		<path fill="#7F7F7F" d="M-97.833-39.911h-0.846l1.008-4.771c0.342-1.621,0.648-3.241,0.666-4.861h0.792l-0.252,2.737h0.036
			c0.667-1.422,2.485-2.827,3.998-2.827c1.729,0,1.89,1.494,1.584,2.935l-1.44,6.788h-0.846l1.351-6.392
			c0.234-1.098,0.558-2.611-0.918-2.611c-1.368,0-3.529,1.369-4.303,5.078L-97.833-39.911z"/>
		<path fill="#7F7F7F" d="M-87.321-38.669c0.414,0.667,1.242,1.081,2.125,1.081c1.062,0,2.575-0.774,3.097-3.169l0.252-1.17
			c-0.792,0.684-1.999,1.17-2.935,1.17c-2.269,0-2.809-2.269-2.395-4.25c0.468-2.196,1.891-4.627,4.483-4.627
			c1.062,0,1.674,0.468,2.358,1.098l0.486-1.098h0.864c-0.792,1.638-1.152,3.349-1.494,5.023l-0.829,3.961
			c-0.594,2.809-2.755,3.781-4.213,3.781c-0.99,0-1.98-0.576-2.502-1.278L-87.321-38.669z M-80.695-47.527
			c-0.396-0.792-1.188-1.387-2.197-1.387c-1.962,0-3.061,2.125-3.403,3.745c-0.63,3.007,0.954,3.691,1.729,3.691
			c0.972,0,2.214-0.612,2.899-1.458L-80.695-47.527z"/>
		<path fill="#7F7F7F" d="M-59.041-41.315c-1.099,0.954-2.143,1.603-3.493,1.603c-1.675,0-3.763-1.044-2.953-4.862
			c0.829-3.853,3.205-5.059,4.988-5.059c1.44,0,2.34,0.756,2.863,1.926l-0.864,0.504c-0.288-0.99-0.99-1.711-2.161-1.711
			c-1.188,0-3.205,0.738-3.943,4.195c-0.702,3.277,0.811,4.286,2.197,4.286c1.044,0,2.106-0.72,2.917-1.495L-59.041-41.315z"/>
		<path fill="#7F7F7F" d="M-50.078-39.713c-0.072-0.522-0.09-1.081-0.018-1.621c-0.864,0.954-1.711,1.621-2.953,1.621
			c-1.747,0-2.359-1.423-2.017-3.025c0.396-1.819,1.747-3.385,3.583-3.385c0.774,0,1.603,0.306,2.197,0.63
			c0.558-2.413,0.342-3.421-1.225-3.421c-0.828,0-1.584,0.288-2.413,0.63l-0.036-0.774c0.9-0.324,1.765-0.576,2.665-0.576
			c1.747,0,2.521,1.224,2.017,3.349c-0.306,1.296-0.612,2.593-0.937,3.889c-0.216,0.918-0.162,1.783-0.072,2.575L-50.078-39.713z
			 M-49.484-44.826c-0.522-0.306-1.188-0.576-1.944-0.576c-1.584,0-2.503,1.333-2.791,2.737c-0.234,1.062,0.108,2.233,1.314,2.233
			c1.188,0,2.106-0.955,2.899-1.927L-49.484-44.826z"/>
		<path fill="#7F7F7F" d="M-43.834-39.911h-0.846l1.008-4.771c0.342-1.621,0.648-3.241,0.666-4.861h0.792l-0.252,2.737h0.036
			c0.667-1.422,2.485-2.827,3.998-2.827c1.729,0,1.89,1.494,1.584,2.935l-1.44,6.788h-0.846l1.351-6.392
			c0.234-1.098,0.558-2.611-0.918-2.611c-1.368,0-3.529,1.369-4.303,5.078L-43.834-39.911z"/>
		<path fill="#7F7F7F" d="M-26.84-43.26c-0.252,1.17-0.414,2.323-0.306,3.439l-0.81,0.108l-0.018-1.566
			c-0.72,0.99-1.747,1.566-2.863,1.566c-1.603,0-3.421-1.314-2.629-5.023c0.81-3.817,3.475-4.897,4.79-4.897
			c0.846,0,1.621,0.288,2.161,0.81l0.954-4.447h0.846L-26.84-43.26z M-26.696-47.977c-0.486-0.522-1.134-0.937-1.927-0.937
			c-1.08,0-3.259,0.738-4.015,4.231c-0.702,3.295,0.882,4.25,1.963,4.25c1.206,0,2.179-0.882,2.791-1.909L-26.696-47.977z"/>
		<path fill="#7F7F7F" d="M-14.024-49.436l-5.474,9.057c-0.792,1.296-2.071,3.511-3.745,3.511c-1.08,0-1.692-0.846-1.801-1.818
			l0.792-0.378c0.09,0.648,0.378,1.477,1.17,1.477c0.918,0,1.621-1.062,2.088-1.783l1.062-1.638l-1.314-8.427h0.937l1.026,7.31
			l4.286-7.31h0.973V-49.436z"/>
		<path fill="#7F7F7F" d="M-132.101-32.432c-0.828-0.396-1.278-0.774-2.071-0.774c-1.242,0-2.143,0.666-2.413,1.944l-0.36,1.675
			h3.151l-0.162,0.72h-3.151l-1.729,8.156h-0.846l1.729-8.156h-2.449l0.162-0.72h2.448l0.234-1.081
			c0.54-2.467,2.088-3.259,3.439-3.259c0.792,0,1.566,0.288,2.215,0.594L-132.101-32.432z"/>
		<path fill="#7F7F7F" d="M-129.368-20.711h-0.846l1.404-6.59l0.306-3.043h0.81l-0.252,2.665l0.036,0.036
			c0.864-1.314,2.179-2.791,3.817-2.791c1.584,0,1.657,1.584,1.387,2.881h-0.846c0.162-0.882,0.378-2.161-0.774-2.161
			c-0.972,0-3.439,1.513-4.213,5.132L-129.368-20.711z"/>
		<path fill="#7F7F7F" d="M-119.558-25.482c0.792-3.709,2.971-4.951,4.699-4.951c1.584,0,3.421,1.062,2.593,4.951
			c-0.81,3.871-3.097,4.97-4.699,4.97S-120.387-21.593-119.558-25.482z M-113.113-25.482c0.396-1.854,0.432-4.231-1.909-4.231
			c-2.323,0-3.295,2.377-3.691,4.231c-0.396,1.873-0.432,4.25,1.891,4.25C-114.481-21.233-113.509-23.628-113.113-25.482z"/>
		<path fill="#7F7F7F" d="M-108.867-27.355c0.27-1.26,0.342-2.269,0.324-3.079h0.864l-0.036,1.242
			c0.702-0.756,1.566-1.242,2.502-1.242c0.774,0,1.099,0.468,1.225,1.152c0.612-0.612,1.386-1.152,2.214-1.152
			c1.225,0,1.693,0.81,1.44,1.999l-1.638,7.724h-0.846l1.638-7.688c0.198-0.972-0.198-1.332-0.864-1.332
			c-0.756,0-1.512,0.594-1.999,1.224l-1.656,7.796h-0.847l1.549-7.31c0.144-0.72,0.306-1.693-0.648-1.693
			c-0.81,0-1.692,0.667-2.161,1.387l-1.621,7.616h-0.846L-108.867-27.355z"/>
		<path fill="#7F7F7F" d="M-84.098-34.07l-0.955,4.447c0.756-0.522,1.675-0.81,2.521-0.81c1.314,0,3.511,1.08,2.701,4.897
			c-0.792,3.709-3.169,5.023-4.753,5.023c-1.116,0-1.927-0.576-2.215-1.566l-0.666,1.566l-0.774-0.108
			c0.576-1.116,0.918-2.269,1.17-3.439l2.125-10.011L-84.098-34.07L-84.098-34.07z M-86.421-23.141
			c0.252,1.026,0.702,1.909,1.962,1.909c1.081,0,3.061-0.937,3.763-4.25c0.756-3.493-1.134-4.231-2.215-4.231
			c-0.81,0-1.62,0.415-2.323,0.937L-86.421-23.141z"/>
		<path fill="#7F7F7F" d="M-71.678-20.512c-0.072-0.522-0.09-1.081-0.018-1.621c-0.864,0.954-1.711,1.621-2.953,1.621
			c-1.747,0-2.359-1.423-2.017-3.025c0.396-1.819,1.747-3.385,3.583-3.385c0.774,0,1.603,0.306,2.197,0.63
			c0.558-2.413,0.342-3.421-1.225-3.421c-0.828,0-1.584,0.288-2.413,0.63l-0.036-0.774c0.9-0.324,1.765-0.576,2.665-0.576
			c1.747,0,2.521,1.224,2.017,3.349c-0.306,1.296-0.612,2.593-0.937,3.889c-0.216,0.918-0.162,1.783-0.072,2.575L-71.678-20.512z
			 M-71.084-25.626c-0.522-0.306-1.188-0.576-1.944-0.576c-1.584,0-2.503,1.333-2.791,2.737c-0.234,1.062,0.108,2.233,1.314,2.233
			c1.188,0,2.106-0.955,2.899-1.927L-71.084-25.626z"/>
		<path fill="#7F7F7F" d="M-62.498-34.07l-0.955,4.447c0.756-0.522,1.675-0.81,2.521-0.81c1.314,0,3.511,1.08,2.701,4.897
			c-0.792,3.709-3.169,5.023-4.753,5.023c-1.116,0-1.927-0.576-2.215-1.566l-0.666,1.566l-0.774-0.108
			c0.576-1.116,0.918-2.269,1.17-3.439l2.125-10.011L-62.498-34.07L-62.498-34.07z M-64.821-23.141
			c0.252,1.026,0.702,1.909,1.962,1.909c1.081,0,3.061-0.937,3.763-4.25c0.756-3.493-1.134-4.231-2.215-4.231
			c-0.81,0-1.62,0.415-2.323,0.937L-64.821-23.141z"/>
		<path fill="#7F7F7F" d="M-50.582-29.515h-2.773l0.144-0.72h3.619l-2.017,9.525h-0.846L-50.582-29.515z M-48.494-32.99
			c-0.108,0.522-0.63,0.937-1.152,0.937s-0.846-0.414-0.738-0.937c0.108-0.522,0.612-0.936,1.134-0.936
			C-48.728-33.926-48.386-33.512-48.494-32.99z"/>
		<path fill="#7F7F7F" d="M-37.748-21.377c-1.207,0.486-2.359,0.864-3.583,0.864c-2.791,0-3.295-2.503-2.773-4.916
			c0.504-2.413,2.125-5.005,4.934-5.005c1.603,0,3.241,1.152,2.413,5.095h-6.518c-0.558,3.349,0.666,4.105,2.125,4.105
			c1.081,0,2.197-0.396,3.205-0.937L-37.748-21.377z M-37.46-26.058c0.432-1.639-0.108-3.655-1.981-3.655
			c-1.854,0-3.385,1.981-3.691,3.655H-37.46z"/>
		<path fill="#7F7F7F" d="M-26.624-28.723c-0.648-0.541-1.404-0.991-2.358-0.991s-2.035,0.721-2.251,1.729
			c-0.234,1.117,0.9,1.639,1.693,1.963c1.333,0.558,2.737,1.134,2.34,2.989c-0.324,1.584-1.926,2.521-3.385,2.521
			c-1.188,0-2.575-0.738-3.259-1.531l0.612-0.684c0.612,0.774,1.71,1.495,2.827,1.495c1.062,0,2.106-0.594,2.358-1.747
			c0.306-1.422-0.72-1.837-1.747-2.269c-1.206-0.504-2.628-1.117-2.269-2.809c0.288-1.351,1.873-2.376,3.295-2.376
			c1.099,0,1.909,0.378,2.647,1.008L-26.624-28.723z"/>
		<path fill="#7F7F7F" d="M-7.185-33.674l-0.504,2.341l-1.242,2.323h-0.973l-0.27-2.323l0.504-2.341H-7.185z M-2.936-33.674
			l-0.504,2.341l-1.243,2.323h-0.972l-0.27-2.323l0.504-2.341H-2.936z"/>
	</g>
</g>
<g>
	<path fill="#7F7F7F" d="M-142.023,1.106l0.126-0.561h3.306l-0.126,0.561H-142.023z"/>
	<path fill="#7F7F7F" d="M-128.539-4.23h0.729l-2.143,10.085h-0.659l1.863-8.755h-0.028l-3.53,5.603l-1.148-5.603l-0.042,0.028
		l-1.849,8.727h-0.658l2.143-10.085h0.729l1.121,5.547L-128.539-4.23z"/>
	<path fill="#7F7F7F" d="M-126.526,2.143c0.616-2.886,2.311-3.852,3.656-3.852c1.233,0,2.662,0.826,2.017,3.852
		c-0.63,3.012-2.409,3.866-3.656,3.866C-125.756,6.009-127.171,5.168-126.526,2.143z M-121.512,2.143
		c0.308-1.443,0.336-3.292-1.485-3.292c-1.807,0-2.563,1.849-2.872,3.292c-0.308,1.457-0.336,3.306,1.471,3.306
		C-122.576,5.449-121.82,3.586-121.512,2.143z"/>
	<path fill="#7F7F7F" d="M-115.745-4.539l-0.743,3.46c0.588-0.406,1.303-0.63,1.961-0.63c1.023,0,2.731,0.84,2.102,3.81
		c-0.617,2.885-2.466,3.908-3.698,3.908c-0.869,0-1.499-0.448-1.723-1.219l-0.518,1.219l-0.603-0.084
		c0.448-0.868,0.715-1.765,0.911-2.675l1.653-7.788H-115.745z M-117.552,3.964c0.196,0.798,0.546,1.485,1.527,1.485
		c0.84,0,2.381-0.729,2.927-3.306c0.588-2.718-0.882-3.292-1.723-3.292c-0.63,0-1.261,0.322-1.807,0.729L-117.552,3.964z"/>
	<path fill="#7F7F7F" d="M-109.81,0.686c0.21-0.98,0.266-1.765,0.252-2.395h0.672l-0.028,0.966c0.546-0.588,1.218-0.966,1.947-0.966
		c0.603,0,0.854,0.364,0.953,0.896c0.476-0.477,1.079-0.896,1.723-0.896c0.953,0,1.317,0.63,1.121,1.555l-1.274,6.009h-0.658
		l1.274-5.981c0.154-0.756-0.154-1.036-0.672-1.036c-0.588,0-1.177,0.462-1.555,0.952l-1.289,6.065h-0.659l1.205-5.687
		c0.112-0.561,0.238-1.317-0.504-1.317c-0.63,0-1.317,0.519-1.681,1.079l-1.261,5.925h-0.658L-109.81,0.686z"/>
	<path fill="#7F7F7F" d="M-97.685,6.009c-0.056-0.406-0.07-0.841-0.014-1.261c-0.672,0.742-1.331,1.261-2.297,1.261
		c-1.359,0-1.835-1.107-1.569-2.354c0.308-1.415,1.359-2.633,2.788-2.633c0.602,0,1.247,0.238,1.709,0.49
		c0.434-1.877,0.266-2.662-0.953-2.662c-0.645,0-1.233,0.224-1.877,0.49l-0.028-0.602c0.701-0.252,1.373-0.448,2.073-0.448
		c1.359,0,1.961,0.953,1.569,2.605c-0.238,1.008-0.476,2.017-0.729,3.025c-0.168,0.714-0.126,1.387-0.056,2.003L-97.685,6.009z
		 M-97.223,2.031c-0.406-0.238-0.924-0.448-1.513-0.448c-1.233,0-1.947,1.037-2.171,2.129c-0.182,0.826,0.084,1.737,1.022,1.737
		c0.925,0,1.639-0.742,2.255-1.499L-97.223,2.031z"/>
	<path fill="#7F7F7F" d="M-92.829,5.855h-0.659l0.785-3.712c0.266-1.261,0.504-2.521,0.518-3.782h0.616l-0.196,2.129h0.028
		c0.519-1.107,1.933-2.199,3.11-2.199c1.345,0,1.471,1.163,1.232,2.283l-1.121,5.281h-0.658l1.05-4.973
		c0.182-0.854,0.435-2.031-0.714-2.031c-1.064,0-2.745,1.064-3.348,3.95L-92.829,5.855z"/>
</g>
</svg>
