<?xml version="1.0" encoding="utf-8"?>
<!-- Generator: Adobe Illustrator 17.0.0, SVG Export Plug-In . SVG Version: 6.00 Build 0)  -->
<!DOCTYPE svg PUBLIC "-//W3C//DTD SVG 1.1//EN" "http://www.w3.org/Graphics/SVG/1.1/DTD/svg11.dtd">
<svg version="1.1" id="Layer_1" xmlns="http://www.w3.org/2000/svg" xmlns:xlink="http://www.w3.org/1999/xlink" x="0px" y="0px"
	 width="535.572px" height="315.78px" viewBox="52.916 18.966 535.572 315.78"
	 enable-background="new 52.916 18.966 535.572 315.78" xml:space="preserve">
<g>
	<path fill="#FFFFFF" d="M58.317,45.295h11.852l-0.338,1.5H56.216l5.739-27.004h1.763L58.317,45.295z"/>
	<path fill="#FFFFFF" d="M87.117,28.455h-5.776l0.301-1.5h7.539l-4.201,19.841h-1.763L87.117,28.455z M91.468,21.216
		c-0.225,1.087-1.312,1.95-2.4,1.95s-1.763-0.863-1.537-1.95c0.225-1.088,1.275-1.95,2.362-1.95
		C90.98,19.266,91.692,20.128,91.468,21.216z"/>
	<path fill="#FFFFFF" d="M117.381,26.954c-4.351,4.201-6.151,6.076-9.827,9.039l7.314,10.802h-2.363l-6.227-9.789l-2.25,1.838
		l-1.688,7.951h-1.763l5.926-27.83h1.763l-3.788,17.778c3.713-2.925,7.427-6.188,10.614-9.789H117.381z"/>
	<path fill="#FFFFFF" d="M136.354,45.408c-2.513,1.013-4.913,1.8-7.464,1.8c-5.813,0-6.863-5.213-5.776-10.239
		c1.051-5.026,4.426-10.427,10.277-10.427c3.338,0,6.751,2.4,5.025,10.614h-13.576c-1.163,6.976,1.387,8.551,4.426,8.551
		c2.25,0,4.575-0.825,6.676-1.95L136.354,45.408z M136.954,35.656c0.9-3.413-0.225-7.614-4.125-7.614
		c-3.863,0-7.051,4.125-7.689,7.614H136.954z"/>
	<path fill="#FFFFFF" d="M168.188,32.955c0.562-2.625,0.713-4.726,0.676-6.414h1.801l-0.076,2.588
		c1.463-1.575,3.264-2.588,5.214-2.588c1.612,0,2.288,0.975,2.55,2.4c1.275-1.275,2.889-2.4,4.613-2.4
		c2.551,0,3.525,1.688,3.001,4.163l-3.413,16.09h-1.763l3.413-16.015c0.412-2.025-0.412-2.775-1.801-2.775
		c-1.574,0-3.15,1.238-4.162,2.55l-3.451,16.24h-1.763l3.226-15.228c0.3-1.5,0.637-3.525-1.351-3.525
		c-1.688,0-3.525,1.388-4.501,2.888l-3.375,15.865h-1.763L168.188,32.955z"/>
	<path fill="#FFFFFF" d="M190.913,36.856c1.65-7.727,6.189-10.314,9.789-10.314c3.301,0,7.127,2.213,5.401,10.314
		c-1.688,8.063-6.451,10.352-9.789,10.352S189.188,44.957,190.913,36.856z M204.341,36.856c0.825-3.863,0.9-8.814-3.976-8.814
		c-4.839,0-6.864,4.951-7.688,8.814c-0.826,3.9-0.9,8.851,3.938,8.851C201.49,45.707,203.515,40.719,204.341,36.856z"/>
	<path fill="#FFFFFF" d="M227.028,30.105c-1.351-1.125-2.926-2.062-4.914-2.062s-4.238,1.5-4.688,3.601
		c-0.488,2.325,1.875,3.413,3.525,4.088c2.775,1.163,5.701,2.363,4.875,6.226c-0.675,3.301-4.013,5.251-7.051,5.251
		c-2.476,0-5.363-1.538-6.789-3.188l1.275-1.425c1.275,1.613,3.563,3.113,5.889,3.113c2.213,0,4.389-1.237,4.914-3.638
		c0.637-2.963-1.501-3.826-3.639-4.726c-2.514-1.05-5.477-2.325-4.727-5.851c0.601-2.813,3.901-4.951,6.864-4.951
		c2.288,0,3.976,0.788,5.514,2.101L227.028,30.105z"/>
	<path fill="#FFFFFF" d="M250.69,28.455h-7.277l-2.887,13.54c-0.413,1.913-0.076,3.713,2.362,3.713c2.213,0,4.126-1.65,5.363-3.525
		l1.612,0.413c-1.8,2.55-4.388,4.613-7.351,4.613c-2.55,0-4.613-1.238-3.526-6.264l2.664-12.489h-4.464l0.3-1.5h4.464l1.388-6.376
		h1.763l-1.388,6.376h7.275L250.69,28.455z"/>
	<path fill="#FFFFFF" d="M285.675,18.966h1.763l-2.626,12.302h0.076c1.725-2.476,4.613-4.726,7.613-4.726
		c1.838,0,4.426,1.463,3.488,5.813l-3.076,14.44h-1.762l2.662-12.452c0.525-2.513,0.975-6.301-1.95-6.301
		c-3.338,0-7.239,4.163-8.214,8.776l-2.138,9.977h-1.763L285.675,18.966z"/>
	<path fill="#FFFFFF" d="M313.163,47.208c-0.15-1.088-0.188-2.25-0.038-3.375c-1.8,1.988-3.562,3.375-6.151,3.375
		c-3.638,0-4.913-2.963-4.2-6.301c0.825-3.788,3.638-7.051,7.464-7.051c1.612,0,3.338,0.637,4.575,1.312
		c1.163-5.026,0.713-7.126-2.55-7.126c-1.726,0-3.301,0.6-5.026,1.312l-0.074-1.613c1.875-0.675,3.675-1.2,5.551-1.2
		c3.638,0,5.251,2.551,4.2,6.976c-0.638,2.701-1.275,5.401-1.95,8.102c-0.45,1.913-0.338,3.713-0.15,5.363L313.163,47.208z
		 M314.4,36.556c-1.088-0.638-2.476-1.2-4.051-1.2c-3.301,0-5.213,2.775-5.813,5.701c-0.487,2.213,0.226,4.65,2.738,4.65
		c2.476,0,4.388-1.988,6.038-4.013L314.4,36.556z"/>
	<path fill="#FFFFFF" d="M339.487,43.87c-2.287,1.988-4.463,3.338-7.275,3.338c-3.488,0-7.839-2.175-6.151-10.126
		c1.726-8.026,6.676-10.54,10.39-10.54c3,0,4.875,1.575,5.963,4.013l-1.8,1.05c-0.601-2.063-2.063-3.563-4.501-3.563
		c-2.476,0-6.676,1.538-8.214,8.739c-1.463,6.826,1.688,8.926,4.575,8.926c2.176,0,4.389-1.5,6.076-3.113L339.487,43.87z"/>
	<path fill="#FFFFFF" d="M364.876,26.954c-4.351,4.201-6.151,6.076-9.827,9.039l7.314,10.802H360l-6.226-9.789l-2.251,1.838
		l-1.688,7.951h-1.763l5.926-27.83h1.763l-3.788,17.778c3.713-2.925,7.426-6.188,10.614-9.789H364.876z"/>
	<path fill="#FFFFFF" d="M383.85,45.408c-2.514,1.013-4.914,1.8-7.464,1.8c-5.813,0-6.864-5.213-5.776-10.239
		c1.051-5.026,4.426-10.427,10.276-10.427c3.339,0,6.752,2.4,5.026,10.614h-13.577c-1.163,6.976,1.388,8.551,4.426,8.551
		c2.25,0,4.575-0.825,6.676-1.95L383.85,45.408z M384.45,35.656c0.9-3.413-0.225-7.614-4.126-7.614
		c-3.862,0-7.051,4.125-7.688,7.614H384.45z"/>
	<path fill="#FFFFFF" d="M395.473,46.795h-1.763l2.925-13.727l0.638-6.339h1.688l-0.525,5.551l0.075,0.075
		c1.8-2.738,4.538-5.813,7.951-5.813c3.301,0,3.45,3.301,2.888,6.001h-1.763c0.338-1.838,0.788-4.5-1.612-4.5
		c-2.025,0-7.164,3.15-8.777,10.689L395.473,46.795z"/>
	<path fill="#FFFFFF" d="M429.525,30.105c-1.351-1.125-2.926-2.062-4.913-2.062c-1.988,0-4.238,1.5-4.688,3.601
		c-0.487,2.325,1.875,3.413,3.525,4.088c2.775,1.163,5.701,2.363,4.876,6.226c-0.675,3.301-4.014,5.251-7.051,5.251
		c-2.476,0-5.364-1.538-6.789-3.188l1.275-1.425c1.275,1.613,3.562,3.113,5.889,3.113c2.213,0,4.388-1.237,4.913-3.638
		c0.638-2.963-1.5-3.826-3.639-4.726c-2.513-1.05-5.476-2.325-4.726-5.851c0.601-2.813,3.9-4.951,6.864-4.951
		c2.287,0,3.976,0.788,5.513,2.101L429.525,30.105z"/>
	<path fill="#FFFFFF" d="M440.998,49.383c1.238-0.337,2.663-1.05,3.413-2.213c-0.225,0.075-0.449,0.113-0.75,0.113
		c-1.388,0-2.062-0.938-1.8-2.326c0.3-1.425,1.65-2.438,3-2.438c1.65,0,2.325,1.538,1.988,3.076
		c-0.601,2.701-3.676,4.688-6.188,5.363L440.998,49.383z"/>
	<path fill="#FFFFFF" d="M73.018,66.457h1.951l-5.738,27.004h-1.764l4.988-23.441h-0.074l-9.451,15.002L59.854,70.02l-0.112,0.075
		l-4.951,23.366h-1.763l5.738-27.004h1.951l3,14.853L73.018,66.457z"/>
	<path fill="#FFFFFF" d="M78.416,83.523c1.65-7.727,6.188-10.314,9.789-10.314c3.3,0,7.126,2.213,5.401,10.314
		c-1.688,8.063-6.451,10.352-9.789,10.352C80.478,93.874,76.69,91.624,78.416,83.523z M91.843,83.523
		c0.826-3.863,0.9-8.814-3.975-8.814c-4.839,0-6.864,4.951-7.689,8.814c-0.825,3.9-0.9,8.851,3.938,8.851
		C88.993,92.374,91.018,87.386,91.843,83.523z"/>
	<path fill="#FFFFFF" d="M107.292,65.632l-1.988,9.264c1.575-1.088,3.488-1.688,5.251-1.688c2.737,0,7.313,2.25,5.626,10.202
		c-1.65,7.727-6.602,10.464-9.902,10.464c-2.324,0-4.013-1.2-4.613-3.263l-1.387,3.263l-1.613-0.225
		c1.2-2.325,1.913-4.726,2.438-7.164l4.426-20.854H107.292z M102.453,88.398c0.525,2.138,1.463,3.976,4.089,3.976
		c2.25,0,6.375-1.95,7.838-8.851c1.576-7.276-2.363-8.814-4.613-8.814c-1.688,0-3.375,0.862-4.838,1.95L102.453,88.398z"/>
	<path fill="#FFFFFF" d="M123.19,79.622c0.562-2.625,0.712-4.726,0.675-6.414h1.8l-0.074,2.588c1.463-1.575,3.263-2.588,5.213-2.588
		c1.613,0,2.287,0.975,2.551,2.4c1.275-1.275,2.888-2.4,4.613-2.4c2.55,0,3.525,1.688,3,4.163l-3.413,16.09h-1.763l3.413-16.015
		c0.413-2.025-0.413-2.775-1.8-2.775c-1.576,0-3.15,1.238-4.164,2.55l-3.45,16.24h-1.763l3.226-15.228
		c0.3-1.5,0.638-3.525-1.351-3.525c-1.688,0-3.525,1.388-4.5,2.888l-3.376,15.865h-1.763L123.19,79.622z"/>
	<path fill="#FFFFFF" d="M155.666,93.874c-0.149-1.088-0.188-2.25-0.038-3.375c-1.8,1.988-3.562,3.375-6.15,3.375
		c-3.639,0-4.913-2.963-4.201-6.301c0.826-3.788,3.639-7.051,7.465-7.051c1.612,0,3.338,0.638,4.575,1.312
		c1.163-5.026,0.712-7.126-2.55-7.126c-1.727,0-3.301,0.6-5.026,1.312l-0.075-1.613c1.875-0.675,3.676-1.2,5.551-1.2
		c3.639,0,5.251,2.55,4.201,6.976c-0.638,2.701-1.275,5.401-1.951,8.102c-0.449,1.913-0.337,3.713-0.149,5.363L155.666,93.874z
		 M156.903,83.223c-1.088-0.638-2.475-1.2-4.051-1.2c-3.3,0-5.213,2.775-5.812,5.701c-0.488,2.213,0.225,4.65,2.737,4.65
		c2.476,0,4.389-1.988,6.038-4.013L156.903,83.223z"/>
	<path fill="#FFFFFF" d="M168.677,93.462h-1.764l2.102-9.939c0.712-3.375,1.35-6.751,1.387-10.127h1.65l-0.525,5.701h0.076
		c1.387-2.963,5.176-5.889,8.326-5.889c3.6,0,3.938,3.113,3.301,6.114l-3.001,14.14h-1.763l2.812-13.314
		c0.488-2.288,1.163-5.438-1.912-5.438c-2.852,0-7.352,2.851-8.965,10.577L168.677,93.462z"/>
	<path fill="#FFFFFF" d="M222.114,75.121h-5.775l0.3-1.5h7.538l-4.2,19.841h-1.763L222.114,75.121z M226.466,67.883
		c-0.226,1.087-1.313,1.95-2.4,1.95c-1.088,0-1.764-0.863-1.539-1.95c0.226-1.088,1.275-1.95,2.363-1.95
		S226.69,66.795,226.466,67.883z"/>
	<path fill="#FFFFFF" d="M249.527,76.771c-1.351-1.125-2.926-2.062-4.913-2.062c-1.988,0-4.238,1.5-4.688,3.601
		c-0.487,2.325,1.875,3.413,3.525,4.088c2.775,1.163,5.701,2.363,4.876,6.226c-0.676,3.301-4.014,5.251-7.051,5.251
		c-2.477,0-5.363-1.538-6.789-3.188l1.275-1.425c1.275,1.613,3.562,3.113,5.889,3.113c2.213,0,4.388-1.237,4.913-3.638
		c0.638-2.963-1.501-3.826-3.638-4.726c-2.514-1.05-5.477-2.325-4.727-5.851c0.6-2.812,3.9-4.951,6.863-4.951
		c2.289,0,3.977,0.788,5.514,2.101L249.527,76.771z"/>
	<path fill="#FFFFFF" d="M294.076,86.486c-0.524,2.438-0.862,4.838-0.638,7.164l-1.688,0.225l-0.037-3.263
		c-1.501,2.063-3.639,3.263-5.964,3.263c-3.339,0-7.126-2.738-5.476-10.464c1.688-7.951,7.238-10.202,9.977-10.202
		c1.762,0,3.375,0.6,4.5,1.688l1.988-9.264h1.763L294.076,86.486z M294.376,76.659c-1.012-1.088-2.363-1.95-4.013-1.95
		c-2.251,0-6.789,1.538-8.364,8.814c-1.463,6.863,1.838,8.851,4.088,8.851c2.514,0,4.539-1.837,5.814-3.976L294.376,76.659z"/>
	<path fill="#FFFFFF" d="M313.163,93.874c-0.15-1.088-0.188-2.25-0.038-3.375c-1.8,1.988-3.562,3.375-6.151,3.375
		c-3.638,0-4.913-2.963-4.2-6.301c0.825-3.788,3.638-7.051,7.464-7.051c1.612,0,3.338,0.638,4.575,1.312
		c1.163-5.026,0.713-7.126-2.55-7.126c-1.726,0-3.301,0.6-5.026,1.312l-0.074-1.613c1.875-0.675,3.675-1.2,5.551-1.2
		c3.638,0,5.251,2.55,4.2,6.976c-0.638,2.701-1.275,5.401-1.95,8.102c-0.45,1.913-0.338,3.713-0.15,5.363L313.163,93.874z
		 M314.4,83.223c-1.088-0.638-2.476-1.2-4.051-1.2c-3.301,0-5.213,2.775-5.813,5.701c-0.487,2.213,0.226,4.65,2.738,4.65
		c2.476,0,4.388-1.988,6.038-4.013L314.4,83.223z"/>
	<path fill="#FFFFFF" d="M325.685,79.622c0.562-2.625,0.713-4.726,0.675-6.414h1.801l-0.075,2.588
		c1.463-1.575,3.263-2.588,5.213-2.588c1.613,0,2.288,0.975,2.551,2.4c1.275-1.275,2.888-2.4,4.613-2.4
		c2.551,0,3.525,1.688,3.001,4.163l-3.413,16.09h-1.764l3.413-16.015c0.413-2.025-0.412-2.775-1.8-2.775
		c-1.575,0-3.15,1.238-4.163,2.55l-3.451,16.24h-1.763l3.226-15.228c0.301-1.5,0.638-3.525-1.35-3.525
		c-1.688,0-3.525,1.388-4.501,2.888l-3.376,15.865h-1.763L325.685,79.622z"/>
	<path fill="#FFFFFF" d="M358.162,93.874c-0.15-1.088-0.188-2.25-0.037-3.375c-1.801,1.988-3.563,3.375-6.151,3.375
		c-3.638,0-4.913-2.963-4.201-6.301c0.825-3.788,3.639-7.051,7.464-7.051c1.613,0,3.339,0.638,4.576,1.312
		c1.163-5.026,0.713-7.126-2.551-7.126c-1.725,0-3.3,0.6-5.025,1.312l-0.075-1.613c1.875-0.675,3.676-1.2,5.551-1.2
		c3.639,0,5.251,2.55,4.201,6.976c-0.638,2.701-1.275,5.401-1.95,8.102c-0.45,1.913-0.338,3.713-0.15,5.363L358.162,93.874z
		 M359.399,83.223c-1.087-0.638-2.475-1.2-4.05-1.2c-3.301,0-5.214,2.775-5.813,5.701c-0.488,2.213,0.225,4.65,2.737,4.65
		c2.476,0,4.389-1.988,6.039-4.013L359.399,83.223z"/>
	<path fill="#FFFFFF" d="M370.573,96.05c0.862,1.388,2.588,2.25,4.426,2.25c2.213,0,5.363-1.613,6.451-6.601l0.524-2.438
		c-1.65,1.425-4.163,2.438-6.113,2.438c-4.726,0-5.851-4.726-4.988-8.852c0.976-4.576,3.938-9.639,9.339-9.639
		c2.213,0,3.488,0.975,4.913,2.288l1.013-2.288h1.801c-1.65,3.413-2.4,6.976-3.113,10.464l-1.726,8.251
		c-1.237,5.851-5.738,7.876-8.776,7.876c-2.062,0-4.125-1.2-5.213-2.663L370.573,96.05z M384.375,77.597
		c-0.825-1.65-2.476-2.888-4.575-2.888c-4.089,0-6.376,4.426-7.089,7.801c-1.312,6.263,1.987,7.688,3.601,7.688
		c2.025,0,4.613-1.275,6.038-3.038L384.375,77.597z"/>
	<path fill="#FFFFFF" d="M406.35,92.074c-2.514,1.013-4.914,1.8-7.464,1.8c-5.813,0-6.864-5.213-5.776-10.239
		c1.051-5.026,4.426-10.427,10.276-10.427c3.339,0,6.752,2.4,5.026,10.614h-13.577c-1.163,6.976,1.388,8.551,4.426,8.551
		c2.25,0,4.575-0.825,6.676-1.95L406.35,92.074z M406.95,82.323c0.9-3.413-0.225-7.614-4.126-7.614
		c-3.862,0-7.051,4.125-7.688,7.614H406.95z"/>
	<path fill="#FFFFFF" d="M429.075,86.486c-0.525,2.438-0.862,4.838-0.638,7.164l-1.688,0.225l-0.038-3.263
		c-1.5,2.063-3.638,3.263-5.963,3.263c-3.338,0-7.126-2.738-5.477-10.464c1.688-7.951,7.239-10.202,9.978-10.202
		c1.763,0,3.375,0.6,4.5,1.688l1.988-9.264h1.763L429.075,86.486z M429.375,76.659c-1.013-1.088-2.362-1.95-4.013-1.95
		c-2.251,0-6.789,1.538-8.364,8.814c-1.463,6.863,1.838,8.851,4.088,8.851c2.514,0,4.539-1.837,5.813-3.976L429.375,76.659z"/>
	<path fill="#FFFFFF" d="M470.662,93.874c-0.15-1.088-0.188-2.25-0.037-3.375c-1.801,1.988-3.563,3.375-6.151,3.375
		c-3.638,0-4.913-2.963-4.201-6.301c0.825-3.788,3.639-7.051,7.464-7.051c1.613,0,3.339,0.638,4.576,1.312
		c1.163-5.026,0.713-7.126-2.551-7.126c-1.725,0-3.3,0.6-5.025,1.312l-0.075-1.613c1.875-0.675,3.676-1.2,5.551-1.2
		c3.639,0,5.251,2.55,4.201,6.976c-0.638,2.701-1.275,5.401-1.95,8.102c-0.45,1.913-0.338,3.713-0.15,5.363L470.662,93.874z
		 M471.899,83.223c-1.087-0.638-2.475-1.2-4.05-1.2c-3.301,0-5.214,2.775-5.813,5.701c-0.488,2.213,0.225,4.65,2.737,4.65
		c2.476,0,4.389-1.988,6.039-4.013L471.899,83.223z"/>
	<path fill="#FFFFFF" d="M483.673,93.462h-1.763l2.101-9.939c0.713-3.375,1.351-6.751,1.388-10.127h1.65l-0.525,5.701h0.075
		c1.388-2.963,5.176-5.889,8.326-5.889c3.601,0,3.938,3.113,3.301,6.114l-3.001,14.14h-1.763l2.813-13.314
		c0.487-2.288,1.162-5.438-1.913-5.438c-2.851,0-7.352,2.851-8.964,10.577L483.673,93.462z"/>
	<path fill="#FFFFFF" d="M519.075,86.486c-0.525,2.438-0.862,4.838-0.638,7.164l-1.688,0.225l-0.038-3.263
		c-1.5,2.063-3.638,3.263-5.963,3.263c-3.338,0-7.126-2.738-5.477-10.464c1.688-7.951,7.239-10.202,9.978-10.202
		c1.763,0,3.375,0.6,4.5,1.688l1.988-9.264h1.763L519.075,86.486z M519.375,76.659c-1.013-1.088-2.362-1.95-4.013-1.95
		c-2.251,0-6.789,1.538-8.364,8.814c-1.463,6.863,1.838,8.851,4.088,8.851c2.514,0,4.539-1.837,5.814-3.976L519.375,76.659z"/>
	<path fill="#FFFFFF" d="M60.68,112.299h1.763l-2.625,12.302h0.074c1.726-2.476,4.613-4.726,7.614-4.726
		c1.838,0,4.426,1.463,3.487,5.813l-3.074,14.44h-1.764l2.663-12.452c0.525-2.513,0.976-6.301-1.95-6.301
		c-3.338,0-7.238,4.163-8.214,8.776l-2.138,9.977h-1.763L60.68,112.299z"/>
	<path fill="#FFFFFF" d="M92.818,120.288h1.763l-2.062,9.789c-0.713,3.375-1.312,6.751-1.351,10.052h-1.65l0.45-5.626h-0.075
		c-1.388,2.963-5.176,6.039-8.288,6.039c-3.602,0-3.938-3.263-3.301-6.264l2.963-13.99h1.763l-2.775,13.165
		c-0.788,3.751-0.263,5.588,1.875,5.588c2.926,0,7.427-3.225,9.001-10.727L92.818,120.288z"/>
	<path fill="#FFFFFF" d="M101.178,140.128h-1.763l2.101-9.939c0.712-3.375,1.351-6.751,1.388-10.127h1.65l-0.525,5.701h0.075
		c1.388-2.963,5.176-5.889,8.326-5.889c3.601,0,3.938,3.113,3.301,6.114l-3.001,14.14h-1.762l2.812-13.314
		c0.487-2.288,1.162-5.438-1.913-5.438c-2.851,0-7.351,2.85-8.964,10.577L101.178,140.128z"/>
	<path fill="#FFFFFF" d="M123.077,142.716c0.863,1.388,2.588,2.25,4.426,2.25c2.213,0,5.363-1.613,6.451-6.601l0.525-2.438
		c-1.65,1.425-4.164,2.438-6.113,2.438c-4.727,0-5.852-4.726-4.988-8.852c0.975-4.576,3.938-9.639,9.338-9.639
		c2.213,0,3.488,0.975,4.914,2.288l1.013-2.288h1.8c-1.65,3.413-2.4,6.976-3.113,10.464l-1.725,8.251
		c-1.238,5.851-5.738,7.876-8.776,7.876c-2.063,0-4.126-1.2-5.214-2.663L123.077,142.716z M136.88,124.263
		c-0.825-1.65-2.476-2.888-4.576-2.888c-4.088,0-6.376,4.426-7.088,7.801c-1.313,6.263,1.987,7.688,3.6,7.688
		c2.025,0,4.613-1.275,6.039-3.038L136.88,124.263z"/>
	<path fill="#FFFFFF" d="M147.977,140.128h-1.764l2.926-13.727l0.638-6.339h1.688l-0.525,5.551l0.074,0.075
		c1.801-2.738,4.539-5.813,7.952-5.813c3.3,0,3.45,3.301,2.888,6.001h-1.763c0.337-1.838,0.788-4.5-1.612-4.5
		c-2.025,0-7.164,3.15-8.777,10.689L147.977,140.128z"/>
	<path fill="#FFFFFF" d="M185.779,120.288l-11.401,18.866c-1.65,2.7-4.313,7.313-7.802,7.313c-2.251,0-3.525-1.763-3.751-3.788
		l1.65-0.788c0.188,1.35,0.788,3.076,2.438,3.076c1.914,0,3.376-2.213,4.352-3.713l2.213-3.413l-2.738-17.553h1.95l2.138,15.228
		l8.927-15.228H185.779z"/>
	<path fill="#FFFFFF" d="M197.102,135.59c1.387,0,2.287,1.163,1.987,2.55s-1.688,2.513-3.075,2.513
		c-1.389,0-2.288-1.125-1.988-2.513C194.327,136.753,195.714,135.59,197.102,135.59z"/>
	<path fill="#FFFFFF" d="M238.913,125.351h10.689l2.588-12.227h1.763l-5.739,27.004h-1.762l2.812-13.277h-10.689l-2.812,13.277
		h-1.764l5.739-27.004h1.763L238.913,125.351z"/>
	<path fill="#FFFFFF" d="M271.351,138.741c-2.513,1.013-4.913,1.8-7.464,1.8c-5.813,0-6.863-5.213-5.775-10.239
		c1.05-5.026,4.426-10.427,10.276-10.427c3.338,0,6.751,2.4,5.026,10.614h-13.578c-1.162,6.976,1.389,8.551,4.426,8.551
		c2.25,0,4.576-0.825,6.676-1.95L271.351,138.741z M271.952,128.989c0.9-3.413-0.226-7.614-4.126-7.614
		c-3.863,0-7.052,4.125-7.688,7.614H271.952z"/>
	<path fill="#FFFFFF" d="M303.073,142.716c0.863,1.388,2.588,2.25,4.426,2.25c2.213,0,5.363-1.613,6.451-6.601l0.525-2.438
		c-1.65,1.425-4.163,2.438-6.113,2.438c-4.727,0-5.852-4.726-4.988-8.852c0.975-4.576,3.938-9.639,9.339-9.639
		c2.213,0,3.487,0.975,4.913,2.288l1.013-2.288h1.8c-1.65,3.413-2.4,6.976-3.112,10.464l-1.726,8.251
		c-1.237,5.851-5.738,7.876-8.776,7.876c-2.062,0-4.126-1.2-5.214-2.663L303.073,142.716z M316.876,124.263
		c-0.825-1.65-2.476-2.888-4.576-2.888c-4.088,0-6.376,4.426-7.089,7.801c-1.312,6.263,1.988,7.688,3.601,7.688
		c2.025,0,4.613-1.275,6.039-3.038L316.876,124.263z"/>
	<path fill="#FFFFFF" d="M325.91,130.189c1.65-7.727,6.188-10.314,9.789-10.314c3.301,0,7.127,2.213,5.401,10.314
		c-1.688,8.063-6.451,10.352-9.789,10.352S324.185,138.29,325.91,130.189z M339.338,130.189c0.825-3.863,0.9-8.814-3.976-8.814
		c-4.839,0-6.864,4.951-7.689,8.814c-0.824,3.9-0.899,8.851,3.938,8.851C336.487,139.04,338.513,134.052,339.338,130.189z"/>
	<path fill="#FFFFFF" d="M363.187,121.788h-7.275l-2.889,13.54c-0.412,1.913-0.074,3.713,2.363,3.713
		c2.213,0,4.126-1.65,5.363-3.525l1.613,0.413c-1.801,2.55-4.389,4.613-7.352,4.613c-2.551,0-4.613-1.238-3.525-6.264l2.663-12.489
		h-4.464l0.3-1.5h4.464l1.388-6.376h1.763l-1.388,6.376h7.276L363.187,121.788z"/>
	<path fill="#FFFFFF" d="M407.7,140.128h-1.987l-0.676-8.214h-9.188l-4.238,8.214h-1.95l14.965-28.092L407.7,140.128z
		 M396.523,130.414h8.439l-1.351-13.578L396.523,130.414z"/>
	<path fill="#FFFFFF" d="M423.449,119.462c1.237-0.337,2.663-1.05,3.413-2.213c-0.3,0.038-0.525,0.113-0.75,0.113
		c-1.388,0-2.101-0.938-1.801-2.326c0.301-1.425,1.65-2.438,3.001-2.438c1.65,0,2.325,1.538,1.987,3.075
		c-0.562,2.701-3.675,4.688-6.188,5.363L423.449,119.462z"/>
	<path fill="#FFFFFF" d="M452.025,123.438c-1.351-1.125-2.926-2.062-4.913-2.062c-1.988,0-4.238,1.5-4.688,3.601
		c-0.487,2.325,1.875,3.413,3.525,4.088c2.775,1.163,5.701,2.363,4.876,6.226c-0.675,3.301-4.014,5.251-7.051,5.251
		c-2.476,0-5.364-1.538-6.789-3.188l1.275-1.425c1.275,1.613,3.562,3.113,5.889,3.113c2.213,0,4.388-1.237,4.913-3.638
		c0.638-2.963-1.5-3.826-3.639-4.726c-2.513-1.05-5.476-2.325-4.726-5.851c0.601-2.813,3.9-4.951,6.864-4.951
		c2.287,0,3.976,0.788,5.513,2.101L452.025,123.438z"/>
	<path fill="#FFFFFF" d="M492.112,121.788h-5.776l0.3-1.5h7.539l-4.201,19.841h-1.763L492.112,121.788z M496.463,114.549
		c-0.226,1.087-1.312,1.95-2.4,1.95s-1.763-0.863-1.538-1.95c0.226-1.088,1.275-1.95,2.363-1.95S496.687,113.461,496.463,114.549z"
		/>
	<path fill="#FFFFFF" d="M506.173,140.128h-1.763l2.101-9.939c0.713-3.375,1.351-6.751,1.388-10.127h1.65l-0.525,5.701h0.075
		c1.388-2.963,5.176-5.889,8.326-5.889c3.601,0,3.938,3.113,3.301,6.114l-3.001,14.14h-1.763l2.813-13.314
		c0.487-2.288,1.162-5.438-1.913-5.438c-2.851,0-7.352,2.85-8.964,10.577L506.173,140.128z"/>
	<path fill="#FFFFFF" d="M69.531,170.105c-1.351-1.125-2.926-2.062-4.913-2.062c-1.988,0-4.238,1.5-4.688,3.601
		c-0.487,2.325,1.875,3.413,3.525,4.088c2.775,1.163,5.701,2.363,4.876,6.226c-0.676,3.301-4.014,5.251-7.051,5.251
		c-2.477,0-5.363-1.538-6.789-3.188l1.275-1.425c1.275,1.613,3.562,3.113,5.889,3.113c2.213,0,4.388-1.237,4.913-3.638
		c0.638-2.963-1.501-3.826-3.638-4.726c-2.514-1.05-5.477-2.325-4.727-5.851c0.6-2.813,3.9-4.951,6.863-4.951
		c2.289,0,3.977,0.788,5.514,2.101L69.531,170.105z"/>
	<path fill="#FFFFFF" d="M91.993,183.87c-2.288,1.988-4.463,3.338-7.276,3.338c-3.487,0-7.839-2.175-6.151-10.126
		c1.726-8.026,6.677-10.54,10.39-10.54c3.001,0,4.876,1.575,5.964,4.013l-1.801,1.05c-0.6-2.063-2.062-3.563-4.5-3.563
		c-2.477,0-6.677,1.538-8.215,8.739c-1.463,6.826,1.688,8.926,4.576,8.926c2.176,0,4.389-1.5,6.076-3.113L91.993,183.87z"/>
	<path fill="#FFFFFF" d="M105.679,158.966h1.763l-2.626,12.302h0.076c1.725-2.476,4.613-4.726,7.613-4.726
		c1.838,0,4.426,1.463,3.488,5.813l-3.076,14.44h-1.762l2.662-12.452c0.525-2.513,0.975-6.301-1.95-6.301
		c-3.338,0-7.239,4.163-8.214,8.776l-2.138,9.977h-1.763L105.679,158.966z"/>
	<path fill="#FFFFFF" d="M123.415,176.856c1.65-7.727,6.188-10.314,9.789-10.314c3.301,0,7.126,2.213,5.4,10.314
		c-1.688,8.063-6.451,10.352-9.789,10.352S121.689,184.957,123.415,176.856z M136.843,176.856c0.824-3.863,0.899-8.814-3.977-8.814
		c-4.838,0-6.863,4.951-7.688,8.814c-0.825,3.9-0.9,8.851,3.938,8.851C133.991,185.707,136.016,180.719,136.843,176.856z"/>
	<path fill="#FFFFFF" d="M145.915,176.856c1.65-7.727,6.188-10.314,9.789-10.314c3.3,0,7.125,2.213,5.4,10.314
		c-1.688,8.063-6.451,10.352-9.789,10.352S144.188,184.957,145.915,176.856z M159.342,176.856c0.825-3.863,0.899-8.814-3.976-8.814
		c-4.838,0-6.863,4.951-7.689,8.814c-0.824,3.9-0.899,8.851,3.938,8.851C156.491,185.707,158.516,180.719,159.342,176.856z"/>
	<path fill="#FFFFFF" d="M178.54,160.466h-5.851l0.338-1.5h7.614l-5.927,27.83h-1.763L178.54,160.466z"/>
	<path fill="#FFFFFF" d="M190.951,166.954h1.95l-0.9,17.14h0.075l6.076-12.039h1.913l0.9,12.039h0.074l6.376-17.14h1.913
		l-7.764,20.104h-1.913l-1.05-12.827l-6.451,12.827h-1.913L190.951,166.954z"/>
	<path fill="#FFFFFF" d="M213.413,176.856c1.65-7.727,6.188-10.314,9.789-10.314c3.301,0,7.126,2.213,5.4,10.314
		c-1.688,8.063-6.451,10.352-9.789,10.352S211.687,184.957,213.413,176.856z M226.841,176.856c0.824-3.863,0.899-8.814-3.977-8.814
		c-4.838,0-6.863,4.951-7.688,8.814c-0.825,3.9-0.9,8.851,3.938,8.851C223.989,185.707,226.014,180.719,226.841,176.856z"/>
	<path fill="#FFFFFF" d="M237.975,186.795h-1.764l2.926-13.727l0.638-6.339h1.688l-0.525,5.551l0.074,0.075
		c1.801-2.738,4.539-5.813,7.952-5.813c3.3,0,3.45,3.301,2.888,6.001h-1.763c0.337-1.838,0.788-4.5-1.612-4.5
		c-2.025,0-7.164,3.15-8.777,10.689L237.975,186.795z"/>
	<path fill="#FFFFFF" d="M274.877,166.954c-4.351,4.201-6.151,6.076-9.826,9.039l7.313,10.802h-2.363l-6.226-9.789l-2.251,1.838
		l-1.688,7.951h-1.763l5.927-27.83h1.762l-3.787,17.778c3.713-2.925,7.426-6.188,10.613-9.789H274.877z"/>
	<path fill="#FFFFFF" d="M313.163,187.208c-0.15-1.088-0.188-2.25-0.038-3.375c-1.8,1.988-3.562,3.375-6.151,3.375
		c-3.638,0-4.913-2.963-4.2-6.301c0.825-3.788,3.638-7.051,7.464-7.051c1.612,0,3.338,0.637,4.575,1.312
		c1.163-5.026,0.713-7.126-2.55-7.126c-1.726,0-3.301,0.6-5.026,1.312l-0.074-1.613c1.875-0.675,3.675-1.2,5.551-1.2
		c3.638,0,5.251,2.551,4.2,6.976c-0.638,2.701-1.275,5.401-1.95,8.102c-0.45,1.913-0.338,3.713-0.15,5.363L313.163,187.208z
		 M314.4,176.556c-1.088-0.638-2.476-1.2-4.051-1.2c-3.301,0-5.213,2.775-5.813,5.701c-0.487,2.213,0.226,4.65,2.738,4.65
		c2.476,0,4.388-1.988,6.038-4.013L314.4,176.556z"/>
	<path fill="#FFFFFF" d="M326.173,186.795h-1.763l2.101-9.939c0.713-3.375,1.351-6.751,1.388-10.127h1.65l-0.525,5.701h0.075
		c1.388-2.963,5.176-5.889,8.326-5.889c3.601,0,3.938,3.113,3.301,6.114l-3.001,14.14h-1.763l2.813-13.314
		c0.487-2.288,1.162-5.438-1.913-5.438c-2.851,0-7.352,2.85-8.964,10.577L326.173,186.795z"/>
	<path fill="#FFFFFF" d="M361.575,179.819c-0.525,2.438-0.862,4.838-0.638,7.164l-1.688,0.225l-0.038-3.263
		c-1.5,2.063-3.638,3.263-5.963,3.263c-3.338,0-7.126-2.738-5.477-10.464c1.688-7.951,7.239-10.202,9.978-10.202
		c1.763,0,3.375,0.6,4.5,1.688l1.988-9.264h1.763L361.575,179.819z M361.875,169.993c-1.013-1.088-2.362-1.95-4.013-1.95
		c-2.251,0-6.789,1.538-8.364,8.814c-1.463,6.863,1.838,8.851,4.088,8.851c2.514,0,4.539-1.837,5.813-3.976L361.875,169.993z"/>
	<path fill="#FFFFFF" d="M412.651,161.291h-12.077l-2.288,10.652h9.077l-0.301,1.5h-9.076l-2.851,13.352h-1.763l5.738-27.004h13.84
		L412.651,161.291z"/>
	<path fill="#FFFFFF" d="M422.098,182.257c1.388,0,2.288,1.163,1.988,2.55s-1.688,2.513-3.075,2.513s-2.288-1.125-1.988-2.513
		S420.711,182.257,422.098,182.257z"/>
	<path fill="#FFFFFF" d="M452.025,170.105c-1.351-1.125-2.926-2.062-4.913-2.062c-1.988,0-4.238,1.5-4.688,3.601
		c-0.487,2.325,1.875,3.413,3.525,4.088c2.775,1.163,5.701,2.363,4.876,6.226c-0.675,3.301-4.014,5.251-7.051,5.251
		c-2.476,0-5.364-1.538-6.789-3.188l1.275-1.425c1.275,1.613,3.562,3.113,5.889,3.113c2.213,0,4.388-1.237,4.913-3.638
		c0.638-2.963-1.5-3.826-3.639-4.726c-2.513-1.05-5.476-2.325-4.726-5.851c0.601-2.813,3.9-4.951,6.864-4.951
		c2.287,0,3.976,0.788,5.513,2.101L452.025,170.105z"/>
	<path fill="#FFFFFF" d="M492.112,168.455h-5.776l0.3-1.5h7.539l-4.201,19.841h-1.763L492.112,168.455z M496.463,161.216
		c-0.226,1.087-1.312,1.95-2.4,1.95s-1.763-0.863-1.538-1.95c0.226-1.088,1.275-1.95,2.363-1.95S496.687,160.128,496.463,161.216z"
		/>
	<path fill="#FFFFFF" d="M506.173,186.795h-1.763l2.101-9.939c0.713-3.375,1.351-6.751,1.388-10.127h1.65l-0.525,5.701h0.075
		c1.388-2.963,5.176-5.889,8.326-5.889c3.601,0,3.938,3.113,3.301,6.114l-3.001,14.14h-1.763l2.813-13.314
		c0.487-2.288,1.162-5.438-1.913-5.438c-2.851,0-7.352,2.85-8.964,10.577L506.173,186.795z"/>
	<path fill="#FFFFFF" d="M69.493,230.537c-2.287,1.988-4.463,3.338-7.275,3.338c-3.488,0-7.839-2.175-6.151-10.126
		c1.726-8.026,6.677-10.54,10.39-10.54c3,0,4.875,1.575,5.963,4.013l-1.801,1.05c-0.6-2.063-2.062-3.563-4.5-3.563
		c-2.476,0-6.676,1.538-8.214,8.739c-1.463,6.826,1.688,8.926,4.575,8.926c2.176,0,4.389-1.5,6.076-3.113L69.493,230.537z"/>
	<path fill="#FFFFFF" d="M78.416,223.523c1.65-7.727,6.188-10.314,9.789-10.314c3.3,0,7.126,2.213,5.401,10.314
		c-1.688,8.063-6.451,10.352-9.789,10.352C80.478,233.874,76.69,231.624,78.416,223.523z M91.843,223.523
		c0.826-3.863,0.9-8.814-3.975-8.814c-4.839,0-6.864,4.951-7.689,8.814c-0.825,3.9-0.9,8.851,3.938,8.851
		C88.993,232.374,91.018,227.386,91.843,223.523z"/>
	<path fill="#FFFFFF" d="M101.178,233.462h-1.763l2.101-9.939c0.712-3.375,1.351-6.751,1.388-10.127h1.65l-0.525,5.701h0.075
		c1.388-2.963,5.176-5.889,8.326-5.889c3.601,0,3.938,3.113,3.301,6.114l-3.001,14.14h-1.762l2.812-13.314
		c0.487-2.288,1.162-5.438-1.913-5.438c-2.851,0-7.351,2.851-8.964,10.577L101.178,233.462z"/>
	<path fill="#FFFFFF" d="M136.579,226.486c-0.524,2.438-0.862,4.838-0.637,7.164l-1.688,0.225l-0.038-3.263
		c-1.501,2.063-3.638,3.263-5.964,3.263c-3.338,0-7.126-2.738-5.476-10.464c1.688-7.951,7.239-10.202,9.977-10.202
		c1.763,0,3.376,0.6,4.501,1.688l1.988-9.264h1.762L136.579,226.486z M136.88,216.659c-1.013-1.088-2.363-1.95-4.014-1.95
		c-2.25,0-6.788,1.538-8.363,8.814c-1.463,6.863,1.838,8.851,4.088,8.851c2.513,0,4.538-1.837,5.813-3.976L136.88,216.659z"/>
	<path fill="#FFFFFF" d="M160.317,213.621h1.762l-2.062,9.789c-0.713,3.375-1.312,6.751-1.35,10.052h-1.65l0.449-5.626h-0.074
		c-1.389,2.963-5.176,6.039-8.289,6.039c-3.601,0-3.938-3.263-3.301-6.264l2.963-13.99h1.764l-2.775,13.165
		c-0.788,3.751-0.264,5.588,1.875,5.588c2.926,0,7.426-3.225,9.001-10.727L160.317,213.621z"/>
	<path fill="#FFFFFF" d="M181.991,230.537c-2.288,1.988-4.463,3.338-7.276,3.338c-3.487,0-7.839-2.175-6.151-10.126
		c1.726-8.026,6.677-10.54,10.39-10.54c3.001,0,4.876,1.575,5.964,4.013l-1.801,1.05c-0.6-2.063-2.062-3.563-4.5-3.563
		c-2.477,0-6.677,1.538-8.215,8.739c-1.463,6.826,1.688,8.926,4.576,8.926c2.176,0,4.389-1.5,6.076-3.113L181.991,230.537z"/>
	<path fill="#FFFFFF" d="M205.69,215.121h-7.275l-2.889,13.54c-0.412,1.913-0.074,3.713,2.363,3.713c2.213,0,4.125-1.65,5.363-3.525
		l1.613,0.413c-1.801,2.55-4.389,4.613-7.352,4.613c-2.551,0-4.613-1.238-3.525-6.264l2.662-12.489h-4.463l0.301-1.5h4.463
		l1.388-6.376h1.763l-1.388,6.376h7.276L205.69,215.121z"/>
	<path fill="#FFFFFF" d="M219.601,228.924c1.388,0,2.288,1.163,1.987,2.55c-0.3,1.388-1.688,2.513-3.075,2.513
		s-2.288-1.125-1.987-2.513C216.826,230.086,218.214,228.924,219.601,228.924z"/>
	<path fill="#FFFFFF" d="M268.163,206.457l-0.899,4.163l-2.063,5.063h-1.5l0.037-5.063l0.9-4.163H268.163z M274.127,206.457
		l-0.899,4.163l-2.063,5.063h-1.5l0.037-5.063l0.9-4.163H274.127z"/>
	<path fill="#FFFFFF" d="M296.177,207.958h-3.751l-5.101,24.004h3.75l-0.337,1.5h-9.265l0.338-1.5h3.751l5.101-24.004h-3.75
		l0.299-1.5h9.265L296.177,207.958z"/>
	<path fill="#FFFFFF" d="M325.948,213.621h1.95l-0.9,17.141h0.075l6.076-12.04h1.913l0.899,12.04h0.075l6.376-17.141h1.913
		l-7.764,20.104h-1.913l-1.05-12.827l-6.451,12.827h-1.913L325.948,213.621z"/>
	<path fill="#FFFFFF" d="M358.162,233.874c-0.15-1.088-0.188-2.25-0.037-3.375c-1.801,1.988-3.563,3.375-6.151,3.375
		c-3.638,0-4.913-2.963-4.201-6.301c0.825-3.788,3.639-7.051,7.464-7.051c1.613,0,3.339,0.638,4.576,1.312
		c1.163-5.026,0.713-7.126-2.551-7.126c-1.725,0-3.3,0.6-5.025,1.312l-0.075-1.613c1.875-0.675,3.676-1.2,5.551-1.2
		c3.639,0,5.251,2.55,4.201,6.976c-0.638,2.701-1.275,5.401-1.95,8.102c-0.45,1.913-0.338,3.713-0.15,5.363L358.162,233.874z
		 M359.399,223.223c-1.087-0.638-2.475-1.2-4.05-1.2c-3.301,0-5.214,2.775-5.813,5.701c-0.488,2.213,0.225,4.65,2.737,4.65
		c2.476,0,4.389-1.988,6.039-4.013L359.399,223.223z"/>
	<path fill="#FFFFFF" d="M384.525,216.771c-1.351-1.125-2.926-2.062-4.913-2.062c-1.988,0-4.238,1.5-4.688,3.601
		c-0.487,2.325,1.875,3.413,3.525,4.088c2.775,1.163,5.701,2.363,4.876,6.226c-0.675,3.301-4.014,5.251-7.051,5.251
		c-2.476,0-5.364-1.538-6.789-3.188l1.275-1.425c1.275,1.613,3.562,3.113,5.889,3.113c2.213,0,4.388-1.237,4.913-3.638
		c0.638-2.963-1.5-3.826-3.639-4.726c-2.513-1.05-5.476-2.325-4.726-5.851c0.601-2.812,3.9-4.951,6.864-4.951
		c2.287,0,3.976,0.788,5.513,2.101L384.525,216.771z"/>
	<path fill="#FFFFFF" d="M422.286,205.632l-1.987,9.264c1.575-1.088,3.488-1.688,5.251-1.688c2.737,0,7.313,2.25,5.626,10.202
		c-1.65,7.727-6.602,10.464-9.901,10.464c-2.326,0-4.014-1.2-4.613-3.263l-1.389,3.263l-1.612-0.225
		c1.2-2.325,1.913-4.726,2.438-7.164l4.426-20.854H422.286z M417.448,228.398c0.525,2.138,1.463,3.976,4.088,3.976
		c2.251,0,6.376-1.95,7.839-8.851c1.575-7.276-2.362-8.814-4.613-8.814c-1.688,0-3.375,0.862-4.838,1.95L417.448,228.398z"/>
	<path fill="#FFFFFF" d="M438.41,223.523c1.65-7.727,6.188-10.314,9.789-10.314c3.301,0,7.127,2.213,5.401,10.314
		c-1.688,8.063-6.451,10.352-9.789,10.352S436.685,231.624,438.41,223.523z M451.838,223.523c0.825-3.863,0.9-8.814-3.976-8.814
		c-4.839,0-6.864,4.951-7.689,8.814c-0.824,3.9-0.899,8.851,3.938,8.851C448.987,232.374,451.013,227.386,451.838,223.523z"/>
	<path fill="#FFFFFF" d="M462.973,233.462h-1.763l2.925-13.727l0.638-6.339h1.688l-0.525,5.551l0.075,0.075
		c1.8-2.738,4.538-5.813,7.951-5.813c3.301,0,3.45,3.301,2.888,6.001h-1.763c0.338-1.838,0.788-4.5-1.612-4.5
		c-2.025,0-7.164,3.15-8.777,10.689L462.973,233.462z"/>
	<path fill="#FFFFFF" d="M496.35,232.074c-2.514,1.013-4.914,1.8-7.464,1.8c-5.813,0-6.864-5.213-5.776-10.239
		c1.051-5.026,4.426-10.427,10.276-10.427c3.339,0,6.752,2.4,5.026,10.614h-13.577c-1.163,6.976,1.388,8.551,4.426,8.551
		c2.25,0,4.575-0.825,6.676-1.95L496.35,232.074z M496.95,222.323c0.9-3.413-0.225-7.614-4.126-7.614
		c-3.862,0-7.051,4.125-7.688,7.614H496.95z"/>
	<path fill="#FFFFFF" d="M519.075,226.486c-0.525,2.438-0.862,4.838-0.638,7.164l-1.688,0.225l-0.038-3.263
		c-1.5,2.063-3.638,3.263-5.963,3.263c-3.338,0-7.126-2.738-5.477-10.464c1.688-7.951,7.239-10.202,9.978-10.202
		c1.763,0,3.375,0.6,4.5,1.688l1.988-9.264h1.763L519.075,226.486z M519.375,216.659c-1.013-1.088-2.362-1.95-4.013-1.95
		c-2.251,0-6.789,1.538-8.364,8.814c-1.463,6.863,1.838,8.851,4.088,8.851c2.514,0,4.539-1.837,5.814-3.976L519.375,216.659z"/>
	<path fill="#FFFFFF" d="M534.599,228.924c1.388,0,2.288,1.163,1.988,2.55s-1.688,2.513-3.075,2.513s-2.288-1.125-1.988-2.513
		S533.211,228.924,534.599,228.924z"/>
	<path fill="#FFFFFF" d="M560.662,206.457l-0.9,4.163l-2.062,5.063h-1.5l0.037-5.063l0.9-4.163H560.662z M566.626,206.457
		l-0.9,4.163l-2.062,5.063h-1.501l0.038-5.063l0.899-4.163H566.626z"/>
	<path fill="#FFFFFF" d="M60.68,252.299h1.763l-2.625,12.302h0.074c1.726-2.476,4.613-4.726,7.614-4.726
		c1.838,0,4.426,1.463,3.487,5.813l-3.074,14.44h-1.764l2.663-12.452c0.525-2.513,0.976-6.301-1.95-6.301
		c-3.338,0-7.238,4.163-8.214,8.776l-2.138,9.977h-1.763L60.68,252.299z"/>
	<path fill="#FFFFFF" d="M91.355,278.741c-2.513,1.013-4.913,1.8-7.464,1.8c-5.813,0-6.863-5.213-5.775-10.239
		c1.05-5.026,4.426-10.427,10.276-10.427c3.338,0,6.751,2.4,5.026,10.614H79.841c-1.162,6.976,1.389,8.551,4.426,8.551
		c2.25,0,4.576-0.825,6.676-1.95L91.355,278.741z M91.956,268.99c0.9-3.413-0.226-7.614-4.126-7.614
		c-3.863,0-7.052,4.125-7.688,7.614H91.956z"/>
	<path fill="#FFFFFF" d="M133.542,253.8h-5.852l0.338-1.5h7.613l-5.926,27.83h-1.763L133.542,253.8z"/>
	<path fill="#FFFFFF" d="M155.666,280.541c-0.149-1.088-0.188-2.25-0.038-3.375c-1.8,1.988-3.562,3.375-6.15,3.375
		c-3.639,0-4.913-2.963-4.201-6.301c0.826-3.788,3.639-7.051,7.465-7.051c1.612,0,3.338,0.638,4.575,1.312
		c1.163-5.026,0.712-7.126-2.55-7.126c-1.727,0-3.301,0.6-5.026,1.312l-0.075-1.613c1.875-0.675,3.676-1.2,5.551-1.2
		c3.639,0,5.251,2.55,4.201,6.976c-0.638,2.701-1.275,5.401-1.951,8.102c-0.449,1.913-0.337,3.713-0.149,5.363L155.666,280.541z
		 M156.903,269.89c-1.088-0.638-2.475-1.2-4.051-1.2c-3.3,0-5.213,2.775-5.812,5.701c-0.488,2.213,0.225,4.65,2.737,4.65
		c2.476,0,4.389-1.988,6.038-4.013L156.903,269.89z"/>
	<path fill="#FFFFFF" d="M168.188,266.289c0.562-2.625,0.713-4.726,0.676-6.414h1.801l-0.076,2.588
		c1.463-1.575,3.264-2.588,5.214-2.588c1.612,0,2.288,0.975,2.55,2.4c1.275-1.275,2.889-2.4,4.613-2.4
		c2.551,0,3.525,1.688,3.001,4.163l-3.413,16.09h-1.763l3.413-16.015c0.412-2.025-0.412-2.775-1.801-2.775
		c-1.574,0-3.15,1.238-4.162,2.55l-3.451,16.24h-1.763l3.226-15.228c0.3-1.5,0.637-3.525-1.351-3.525
		c-1.688,0-3.525,1.388-4.501,2.888l-3.375,15.865h-1.763L168.188,266.289z"/>
	<path fill="#FFFFFF" d="M203.852,278.741c-2.512,1.013-4.912,1.8-7.463,1.8c-5.813,0-6.863-5.213-5.776-10.239
		c1.05-5.026,4.426-10.427,10.276-10.427c3.338,0,6.752,2.4,5.026,10.614h-13.577c-1.163,6.976,1.388,8.551,4.426,8.551
		c2.25,0,4.576-0.825,6.676-1.95L203.852,278.741z M204.453,268.99c0.9-3.413-0.226-7.614-4.126-7.614
		c-3.863,0-7.051,4.125-7.688,7.614H204.453z"/>
	<path fill="#FFFFFF" d="M213.676,280.129h-1.763l2.1-9.939c0.713-3.375,1.351-6.751,1.389-10.127h1.65l-0.525,5.701h0.074
		c1.389-2.963,5.176-5.889,8.326-5.889c3.602,0,3.939,3.113,3.301,6.114l-3,14.14h-1.763l2.812-13.314
		c0.487-2.288,1.163-5.438-1.913-5.438c-2.85,0-7.351,2.851-8.963,10.577L213.676,280.129z"/>
	<path fill="#FFFFFF" d="M250.69,261.788h-7.277l-2.887,13.54c-0.413,1.913-0.076,3.713,2.362,3.713c2.213,0,4.126-1.65,5.363-3.525
		l1.612,0.413c-1.8,2.55-4.388,4.613-7.351,4.613c-2.55,0-4.613-1.238-3.526-6.264l2.664-12.489h-4.464l0.3-1.5h4.464l1.388-6.376
		h1.763l-1.388,6.376h7.275L250.69,261.788z"/>
	<path fill="#FFFFFF" d="M272.026,263.438c-1.35-1.125-2.926-2.062-4.913-2.062s-4.238,1.5-4.688,3.601
		c-0.487,2.325,1.875,3.413,3.525,4.088c2.775,1.163,5.701,2.363,4.877,6.226c-0.676,3.301-4.014,5.251-7.052,5.251
		c-2.476,0-5.363-1.538-6.788-3.188l1.275-1.425c1.274,1.613,3.562,3.113,5.888,3.113c2.213,0,4.388-1.237,4.913-3.638
		c0.638-2.963-1.5-3.826-3.638-4.726c-2.513-1.05-5.476-2.325-4.726-5.851c0.6-2.812,3.9-4.951,6.863-4.951
		c2.288,0,3.976,0.788,5.514,2.101L272.026,263.438z"/>
	<path fill="#FFFFFF" d="M287.1,275.591c1.387,0,2.287,1.163,1.987,2.55s-1.688,2.513-3.075,2.513c-1.389,0-2.288-1.125-1.988-2.513
		C284.325,276.753,285.712,275.591,287.1,275.591z"/>
	<path fill="#FFFFFF" d="M335.662,253.124l-0.9,4.163l-2.062,5.063h-1.5l0.037-5.063l0.9-4.163H335.662z M341.626,253.124
		l-0.9,4.163l-2.062,5.063h-1.501l0.038-5.063l0.899-4.163H341.626z"/>
	<path fill="#FFFFFF" d="M367.726,254.625h-7.802l-5.438,25.504h-1.763l5.438-25.504h-7.764l0.3-1.5h17.328L367.726,254.625z"/>
	<path fill="#FFFFFF" d="M375.674,252.299h1.763l-2.625,12.302h0.074c1.726-2.476,4.613-4.726,7.614-4.726
		c1.838,0,4.426,1.463,3.488,5.813l-3.076,14.44h-1.763l2.663-12.452c0.525-2.513,0.976-6.301-1.95-6.301
		c-3.338,0-7.238,4.163-8.214,8.776l-2.138,9.977h-1.763L375.674,252.299z"/>
	<path fill="#FFFFFF" d="M406.35,278.741c-2.514,1.013-4.914,1.8-7.464,1.8c-5.813,0-6.864-5.213-5.776-10.239
		c1.051-5.026,4.426-10.427,10.276-10.427c3.339,0,6.752,2.4,5.026,10.614h-13.577c-1.163,6.976,1.388,8.551,4.426,8.551
		c2.25,0,4.575-0.825,6.676-1.95L406.35,278.741z M406.95,268.99c0.9-3.413-0.225-7.614-4.126-7.614
		c-3.862,0-7.051,4.125-7.688,7.614H406.95z"/>
	<path fill="#FFFFFF" d="M433.276,260.288l-11.402,18.866c-1.65,2.7-4.313,7.313-7.801,7.313c-2.251,0-3.526-1.763-3.751-3.788
		l1.65-0.788c0.188,1.35,0.787,3.076,2.438,3.076c1.913,0,3.376-2.213,4.351-3.713l2.213-3.413l-2.737-17.553h1.95l2.138,15.228
		l8.927-15.228H433.276z"/>
	<path fill="#FFFFFF" d="M474.075,273.153c-0.525,2.438-0.862,4.838-0.638,7.164l-1.688,0.225l-0.038-3.263
		c-1.5,2.063-3.638,3.263-5.963,3.263c-3.338,0-7.126-2.738-5.477-10.464c1.688-7.951,7.239-10.202,9.978-10.202
		c1.763,0,3.375,0.6,4.5,1.688l1.988-9.264h1.763L474.075,273.153z M474.375,263.326c-1.013-1.088-2.362-1.95-4.013-1.95
		c-2.251,0-6.789,1.538-8.364,8.814c-1.463,6.863,1.838,8.851,4.088,8.851c2.514,0,4.539-1.837,5.813-3.976L474.375,263.326z"/>
	<path fill="#FFFFFF" d="M492.112,261.788h-5.776l0.3-1.5h7.539l-4.201,19.841h-1.763L492.112,261.788z M496.463,254.55
		c-0.226,1.087-1.312,1.95-2.4,1.95s-1.763-0.863-1.538-1.95c0.226-1.088,1.275-1.95,2.363-1.95S496.687,253.462,496.463,254.55z"/>
	<path fill="#FFFFFF" d="M519.075,273.153c-0.525,2.438-0.862,4.838-0.638,7.164l-1.688,0.225l-0.038-3.263
		c-1.5,2.063-3.638,3.263-5.963,3.263c-3.338,0-7.126-2.738-5.477-10.464c1.688-7.951,7.239-10.202,9.978-10.202
		c1.763,0,3.375,0.6,4.5,1.688l1.988-9.264h1.763L519.075,273.153z M519.375,263.326c-1.013-1.088-2.362-1.95-4.013-1.95
		c-2.251,0-6.789,1.538-8.364,8.814c-1.463,6.863,1.838,8.851,4.088,8.851c2.514,0,4.539-1.837,5.814-3.976L519.375,263.326z"/>
	<path fill="#FFFFFF" d="M528.673,280.129h-1.763l2.101-9.939c0.713-3.375,1.351-6.751,1.388-10.127h1.65l-0.525,5.701h0.075
		c1.388-2.963,5.176-5.889,8.326-5.889c3.601,0,3.938,3.113,3.301,6.114l-3.001,14.14h-1.763l2.813-13.314
		c0.487-2.288,1.162-5.438-1.913-5.438c-2.851,0-7.352,2.851-8.964,10.577L528.673,280.129z"/>
	<path fill="#FFFFFF" d="M563.625,253.124l-0.9,4.163l-2.062,5.063h-1.5l0.037-5.063l0.9-4.163H563.625z"/>
	<path fill="#FFFFFF" d="M588.187,261.788h-7.275l-2.889,13.54c-0.412,1.913-0.074,3.713,2.363,3.713
		c2.213,0,4.126-1.65,5.363-3.525l1.613,0.413c-1.801,2.55-4.389,4.613-7.352,4.613c-2.551,0-4.613-1.238-3.525-6.264l2.663-12.489
		h-4.464l0.3-1.5h4.464l1.388-6.376h1.763l-1.388,6.376h7.276L588.187,261.788z"/>
	<path fill="#FFFFFF" d="M57.342,313.892c0.524-2.4,0.825-4.801,0.638-7.126l1.688-0.225v3.263h0.075
		c1.425-2.063,3.601-3.263,5.926-3.263c3.301,0,7.126,2.663,5.438,10.464c-1.688,7.951-7.238,10.201-9.939,10.201
		c-1.763,0-3.412-0.6-4.538-1.688l-1.95,9.227h-1.763L57.342,313.892z M57.004,323.757c1.013,1.088,2.325,1.95,4.013,1.95
		c2.251,0,6.826-1.575,8.364-8.813c1.463-6.901-1.837-8.852-4.088-8.852c-2.626,0-4.351,1.838-5.776,3.976L57.004,323.757z"/>
	<path fill="#FFFFFF" d="M92.818,306.954h1.763l-2.062,9.789c-0.713,3.375-1.312,6.751-1.351,10.052h-1.65l0.45-5.626h-0.075
		c-1.388,2.963-5.176,6.038-8.288,6.038c-3.602,0-3.938-3.263-3.301-6.263l2.963-13.99h1.763l-2.775,13.165
		c-0.788,3.751-0.263,5.588,1.875,5.588c2.926,0,7.427-3.225,9.001-10.727L92.818,306.954z"/>
	<path fill="#FFFFFF" d="M114.53,310.104c-1.351-1.125-2.926-2.062-4.914-2.062c-1.987,0-4.237,1.5-4.688,3.601
		c-0.488,2.325,1.875,3.413,3.525,4.088c2.775,1.163,5.701,2.363,4.876,6.226c-0.675,3.3-4.013,5.25-7.052,5.25
		c-2.475,0-5.363-1.537-6.788-3.188l1.275-1.425c1.274,1.613,3.563,3.113,5.888,3.113c2.213,0,4.389-1.237,4.914-3.638
		c0.637-2.963-1.5-3.826-3.639-4.726c-2.513-1.05-5.476-2.325-4.726-5.851c0.601-2.812,3.901-4.951,6.864-4.951
		c2.287,0,3.975,0.788,5.513,2.101L114.53,310.104z"/>
	<path fill="#FFFFFF" d="M128.179,298.965h1.762l-2.625,12.302h0.075c1.726-2.476,4.613-4.726,7.614-4.726
		c1.838,0,4.426,1.463,3.487,5.813l-3.075,14.44h-1.763l2.663-12.452c0.525-2.513,0.975-6.301-1.951-6.301
		c-3.338,0-7.238,4.163-8.213,8.776l-2.139,9.977h-1.762L128.179,298.965z"/>
	<path fill="#FFFFFF" d="M168.188,312.955c0.562-2.625,0.713-4.726,0.676-6.414h1.801l-0.076,2.588
		c1.463-1.575,3.264-2.588,5.214-2.588c1.612,0,2.288,0.975,2.55,2.4c1.275-1.275,2.889-2.4,4.613-2.4
		c2.551,0,3.525,1.688,3.001,4.163l-3.413,16.09h-1.763l3.413-16.015c0.412-2.025-0.412-2.775-1.801-2.775
		c-1.574,0-3.15,1.238-4.162,2.55l-3.451,16.24h-1.763l3.226-15.228c0.3-1.5,0.637-3.525-1.351-3.525
		c-1.688,0-3.525,1.388-4.501,2.888l-3.375,15.865h-1.763L168.188,312.955z"/>
	<path fill="#FFFFFF" d="M203.852,325.407c-2.512,1.013-4.912,1.8-7.463,1.8c-5.813,0-6.863-5.213-5.776-10.239
		c1.05-5.026,4.426-10.427,10.276-10.427c3.338,0,6.752,2.4,5.026,10.614h-13.577c-1.163,6.976,1.388,8.551,4.426,8.551
		c2.25,0,4.576-0.825,6.676-1.95L203.852,325.407z M204.453,315.656c0.9-3.413-0.226-7.614-4.126-7.614
		c-3.863,0-7.051,4.125-7.688,7.614H204.453z"/>
	<path fill="#FFFFFF" d="M219.601,322.257c1.388,0,2.288,1.163,1.987,2.55c-0.3,1.389-1.688,2.514-3.075,2.514
		s-2.288-1.125-1.987-2.514C216.826,323.419,218.214,322.257,219.601,322.257z"/>
	<path fill="#FFFFFF" d="M245.664,299.79l-0.899,4.163l-2.063,5.063H241.2l0.038-5.063l0.9-4.163H245.664z M251.628,299.79
		l-0.9,4.163l-2.062,5.063h-1.5l0.037-5.063l0.9-4.163H251.628z"/>
</g>
</svg>
