<?xml version="1.0" encoding="utf-8"?>
<!-- Generator: Adobe Illustrator 17.0.0, SVG Export Plug-In . SVG Version: 6.00 Build 0)  -->
<!DOCTYPE svg PUBLIC "-//W3C//DTD SVG 1.1//EN" "http://www.w3.org/Graphics/SVG/1.1/DTD/svg11.dtd">
<svg version="1.1" id="Layer_1" xmlns="http://www.w3.org/2000/svg" xmlns:xlink="http://www.w3.org/1999/xlink" x="0px" y="0px"
	 width="705.366px" height="229.438px" viewBox="-403.315 0 705.366 229.438" enable-background="new -403.315 0 705.366 229.438"
	 xml:space="preserve">
<g>
	<path fill="#FF1E00" d="M-365.794,1.859h-3l-4.08,19.199h3l-0.27,1.2h-7.41l0.27-1.2h3l4.08-19.199h-3l0.24-1.2h7.41
		L-365.794,1.859z"/>
	<path fill="#FF1E00" d="M-344.915,2.729c-1.38-0.66-2.13-1.29-3.45-1.29c-2.07,0-3.57,1.11-4.02,3.24l-0.6,2.79h5.25l-0.27,1.199
		h-5.25l-2.88,13.59h-1.41l2.88-13.59h-4.08l0.27-1.199h4.08l0.39-1.8c0.9-4.11,3.48-5.431,5.729-5.431c1.32,0,2.61,0.48,3.69,0.99
		L-344.915,2.729z"/>
	<path fill="#FF1E00" d="M-310.116,6.39l-9.12,15.089c-1.32,2.16-3.45,5.85-6.24,5.85c-1.8,0-2.82-1.409-3-3.029l1.32-0.63
		c0.15,1.08,0.63,2.46,1.95,2.46c1.53,0,2.7-1.771,3.48-2.97l1.77-2.73l-2.189-14.039h1.56l1.71,12.18l7.14-12.18H-310.116z"/>
	<path fill="#FF1E00" d="M-306.006,14.31c1.32-6.181,4.95-8.25,7.83-8.25c2.64,0,5.7,1.77,4.32,8.25
		c-1.35,6.449-5.16,8.279-7.83,8.279S-307.386,20.789-306.006,14.31z M-295.266,14.31c0.66-3.09,0.72-7.05-3.18-7.05
		c-3.87,0-5.49,3.96-6.15,7.05c-0.66,3.119-0.72,7.079,3.15,7.079C-297.546,21.389-295.926,17.399-295.266,14.31z"/>
	<path fill="#FF1E00" d="M-276.487,6.39h1.41l-1.65,7.829c-0.57,2.7-1.05,5.4-1.08,8.04h-1.32l0.36-4.5h-0.06
		c-1.11,2.37-4.14,4.83-6.629,4.83c-2.88,0-3.15-2.61-2.64-5.01l2.37-11.189h1.41l-2.22,10.529c-0.63,3-0.21,4.47,1.5,4.47
		c2.34,0,5.939-2.58,7.2-8.579L-276.487,6.39z"/>
	<path fill="#FF1E00" d="M-241.147,19.919c-1.83,1.59-3.57,2.67-5.82,2.67c-2.79,0-6.27-1.74-4.92-8.1
		c1.38-6.42,5.34-8.43,8.31-8.43c2.4,0,3.9,1.26,4.77,3.21l-1.44,0.84c-0.48-1.65-1.65-2.85-3.6-2.85
		c-1.979,0-5.339,1.229-6.569,6.989c-1.17,5.46,1.35,7.14,3.66,7.14c1.74,0,3.51-1.2,4.86-2.489L-241.147,19.919z"/>
	<path fill="#FF1E00" d="M-226.208,22.589c-0.12-0.87-0.15-1.8-0.03-2.7c-1.44,1.59-2.85,2.7-4.92,2.7c-2.91,0-3.93-2.37-3.36-5.04
		c0.66-3.029,2.91-5.64,5.97-5.64c1.29,0,2.67,0.51,3.66,1.05c0.93-4.02,0.57-5.699-2.04-5.699c-1.38,0-2.64,0.479-4.02,1.05
		l-0.06-1.29c1.5-0.54,2.94-0.96,4.44-0.96c2.91,0,4.2,2.04,3.36,5.58c-0.51,2.159-1.02,4.319-1.56,6.479
		c-0.36,1.529-0.27,2.97-0.12,4.29L-226.208,22.589z M-225.218,14.069c-0.87-0.51-1.98-0.96-3.24-0.96
		c-2.64,0-4.169,2.22-4.649,4.56c-0.39,1.77,0.18,3.72,2.19,3.72c1.979,0,3.51-1.59,4.83-3.21L-225.218,14.069z"/>
	<path fill="#FF1E00" d="M-216.188,11.189c0.45-2.101,0.57-3.78,0.54-5.13h1.44l-0.06,2.069c1.17-1.26,2.61-2.069,4.17-2.069
		c1.29,0,1.83,0.78,2.04,1.92c1.02-1.021,2.31-1.92,3.69-1.92c2.04,0,2.82,1.35,2.4,3.33l-2.73,12.869h-1.41l2.73-12.81
		c0.33-1.62-0.33-2.22-1.44-2.22c-1.26,0-2.52,0.99-3.33,2.04l-2.76,12.989h-1.41l2.58-12.18c0.24-1.2,0.51-2.819-1.08-2.819
		c-1.35,0-2.82,1.109-3.6,2.31l-2.7,12.689h-1.41L-216.188,11.189z"/>
	<path fill="#FF1E00" d="M-187.659,21.148c-2.01,0.811-3.93,1.44-5.97,1.44c-4.65,0-5.49-4.17-4.62-8.189
		c0.84-4.021,3.54-8.34,8.22-8.34c2.67,0,5.4,1.92,4.02,8.489h-10.859c-0.93,5.58,1.11,6.84,3.54,6.84c1.8,0,3.66-0.66,5.34-1.56
		L-187.659,21.148z M-187.179,13.35c0.72-2.73-0.18-6.09-3.3-6.09c-3.09,0-5.64,3.3-6.149,6.09H-187.179z"/>
	<path fill="#FF1E00" d="M-150.19,7.59h-5.82l-2.31,10.829c-0.33,1.53-0.06,2.97,1.89,2.97c1.77,0,3.3-1.319,4.29-2.819l1.29,0.33
		c-1.44,2.039-3.51,3.689-5.88,3.689c-2.04,0-3.689-0.99-2.82-5.01l2.13-9.989h-3.57l0.24-1.2h3.57l1.11-5.1h1.41l-1.11,5.1h5.82
		L-150.19,7.59z"/>
	<path fill="#FF1E00" d="M-144.01,14.31c1.32-6.181,4.95-8.25,7.83-8.25c2.64,0,5.7,1.77,4.32,8.25
		c-1.35,6.449-5.16,8.279-7.83,8.279C-142.36,22.589-145.39,20.789-144.01,14.31z M-133.271,14.31c0.66-3.09,0.72-7.05-3.18-7.05
		c-3.87,0-5.49,3.96-6.15,7.05c-0.66,3.119-0.72,7.079,3.15,7.079C-135.55,21.389-133.931,17.399-133.271,14.31z"/>
	<path fill="#FF1E00" d="M-96.492,6.39h1.41l-1.65,7.829c-0.57,2.7-1.05,5.4-1.08,8.04h-1.32l0.36-4.5h-0.06
		c-1.11,2.37-4.14,4.83-6.629,4.83c-2.88,0-3.15-2.61-2.64-5.01l2.37-11.189h1.41l-2.22,10.529c-0.63,3-0.21,4.47,1.5,4.47
		c2.34,0,5.939-2.58,7.2-8.579L-96.492,6.39z"/>
	<path fill="#FF1E00" d="M-79.122,8.909c-1.08-0.899-2.34-1.649-3.93-1.649s-3.39,1.199-3.75,2.88c-0.39,1.859,1.5,2.729,2.82,3.27
		c2.22,0.93,4.56,1.89,3.9,4.979c-0.54,2.641-3.21,4.2-5.64,4.2c-1.98,0-4.29-1.23-5.43-2.55l1.02-1.14
		c1.02,1.289,2.85,2.489,4.709,2.489c1.77,0,3.51-0.99,3.93-2.91c0.51-2.369-1.2-3.06-2.91-3.779c-2.01-0.84-4.38-1.86-3.78-4.68
		c0.48-2.25,3.12-3.96,5.49-3.96c1.83,0,3.18,0.63,4.41,1.68L-79.122,8.909z"/>
	<path fill="#FF1E00" d="M-53.982,6.39h1.56l-0.72,13.709h0.06l4.86-9.629h1.53l0.72,9.629h0.06l5.1-13.709h1.53l-6.209,16.079
		h-1.53l-0.84-10.26l-5.16,10.26h-1.53L-53.982,6.39z"/>
	<path fill="#FF1E00" d="M-29.053,7.59h-4.62l0.24-1.2h6.03l-3.36,15.869h-1.41L-29.053,7.59z M-25.573,1.8
		c-0.18,0.87-1.05,1.56-1.92,1.56c-0.87,0-1.41-0.689-1.23-1.56c0.18-0.87,1.02-1.561,1.89-1.561
		C-25.963,0.239-25.394,0.93-25.573,1.8z"/>
	<path fill="#FF1E00" d="M-6.194,7.59h-5.82l-2.31,10.829c-0.33,1.53-0.06,2.97,1.89,2.97c1.77,0,3.3-1.319,4.29-2.819l1.29,0.33
		c-1.44,2.039-3.51,3.689-5.88,3.689c-2.04,0-3.689-0.99-2.82-5.01l2.13-9.989h-3.57l0.24-1.2h3.57l1.11-5.1h1.41l-1.11,5.1h5.82
		L-6.194,7.59z"/>
	<path fill="#FF1E00" d="M3.796,0h1.41l-2.1,9.839h0.06c1.38-1.979,3.69-3.779,6.09-3.779c1.47,0,3.54,1.17,2.79,4.649l-2.46,11.55
		h-1.41l2.13-9.96c0.42-2.01,0.78-5.039-1.56-5.039c-2.67,0-5.79,3.329-6.57,7.02l-1.71,7.979h-1.41L3.796,0z"/>
	<path fill="#FF1E00" d="M47.865,5.189c-0.78-0.9-1.8-1.68-3.09-1.8l-1.47,6.93c2.37,0.9,3.99,2.34,3.36,5.34
		c-0.6,2.79-2.79,4.439-5.49,4.68l-0.63,2.85h-1.41l0.63-2.85c-1.74-0.03-3.24-0.87-4.26-2.13l1.08-1.05
		c0.93,1.05,1.95,1.859,3.42,1.979l1.65-7.8c-1.98-0.689-3.69-2.25-3.15-4.8c0.51-2.399,2.85-4.079,5.1-4.35L44.085,0h1.41
		l-0.48,2.189c1.53,0.15,2.91,0.87,3.93,1.89L47.865,5.189z M43.335,3.449c-1.53,0.24-3.06,1.5-3.42,3.181
		c-0.36,1.619,0.84,2.85,2.04,3.359L43.335,3.449z M41.415,19.139c1.8-0.09,3.419-1.62,3.81-3.42c0.42-2.04-0.6-3.359-2.22-4.079
		L41.415,19.139z"/>
	<path fill="#FF1E00" d="M64.214,21.059l-0.27,1.2h-11.49c0.99-4.71,2.16-6.45,7.5-10.409c2.25-1.65,5.52-3.87,6.12-6.66
		c0.48-2.25-0.63-3.75-2.91-3.75c-2.73,0-4.62,2.101-5.34,4.62h-1.41c0.99-3.36,3.48-5.82,7.02-5.82c3.12,0,4.68,1.92,4.02,5.04
		c-0.66,3.15-3.69,5.22-6.24,7.14c-5.37,4.021-6.39,5.58-7.08,8.64H64.214z"/>
	<path fill="#FF1E00" d="M82.184,18.389c-1.29,2.431-3.42,4.29-6.12,4.29c-2.58,0-3.96-1.74-4.26-4.05
		c-0.3-2.13,0.21-4.89,0.72-7.17c0.45-2.13,1.11-4.92,2.19-6.93c1.32-2.43,3.39-4.29,6.12-4.29c2.61,0,3.96,1.74,4.26,4.05
		c0.3,2.16-0.21,4.891-0.69,7.17C83.954,13.56,83.264,16.409,82.184,18.389z M83.713,5.279c-0.12-1.92-0.9-3.87-3.12-3.87
		c-2.37,0-4.05,2.16-4.98,4.2c-0.75,1.71-1.32,4.08-1.68,5.85c-0.42,1.92-0.87,4.35-0.75,6.21c0.12,1.89,0.9,3.84,3.12,3.84
		c2.37,0,4.05-2.16,4.98-4.2c0.75-1.68,1.35-4.079,1.71-5.85C83.414,9.539,83.833,7.109,83.713,5.279z"/>
	<path fill="#FF1E00" d="M107.803,11.189c0.45-2.101,0.57-3.78,0.54-5.13h1.44l-0.06,2.069c1.17-1.26,2.61-2.069,4.17-2.069
		c1.29,0,1.83,0.78,2.04,1.92c1.02-1.021,2.31-1.92,3.69-1.92c2.04,0,2.82,1.35,2.4,3.33l-2.73,12.869h-1.41l2.73-12.81
		c0.33-1.62-0.33-2.22-1.44-2.22c-1.26,0-2.52,0.99-3.33,2.04l-2.76,12.989h-1.41l2.58-12.18c0.24-1.2,0.51-2.819-1.08-2.819
		c-1.35,0-2.82,1.109-3.6,2.31l-2.7,12.689h-1.41L107.803,11.189z"/>
	<path fill="#FF1E00" d="M132.942,7.59h-4.62l0.24-1.2h6.03l-3.36,15.869h-1.41L132.942,7.59z M136.422,1.8
		c-0.18,0.87-1.05,1.56-1.92,1.56c-0.87,0-1.41-0.689-1.23-1.56c0.18-0.87,1.02-1.561,1.89-1.561
		C136.032,0.239,136.602,0.93,136.422,1.8z"/>
	<path fill="#FF1E00" d="M152.082,1.199h-4.68L147.672,0h6.09l-4.74,22.259h-1.41L152.082,1.199z"/>
	<path fill="#FF1E00" d="M170.082,1.199h-4.68L165.671,0h6.09l-4.74,22.259h-1.409L170.082,1.199z"/>
	<path fill="#FF1E00" d="M186.941,7.59h-4.619l0.24-1.2h6.029l-3.36,15.869h-1.409L186.941,7.59z M190.421,1.8
		c-0.18,0.87-1.05,1.56-1.92,1.56s-1.41-0.689-1.23-1.56c0.181-0.87,1.021-1.561,1.891-1.561S190.601,0.93,190.421,1.8z"/>
	<path fill="#FF1E00" d="M197.982,14.31c1.319-6.181,4.949-8.25,7.829-8.25c2.641,0,5.7,1.77,4.32,8.25
		c-1.351,6.449-5.16,8.279-7.83,8.279S196.602,20.789,197.982,14.31z M208.721,14.31c0.66-3.09,0.72-7.05-3.18-7.05
		c-3.87,0-5.49,3.96-6.15,7.05c-0.659,3.119-0.72,7.079,3.15,7.079C206.441,21.389,208.061,17.399,208.721,14.31z"/>
	<path fill="#FF1E00" d="M216.192,22.259h-1.41l1.68-7.949c0.57-2.7,1.08-5.4,1.11-8.101h1.319l-0.42,4.561h0.061
		c1.109-2.37,4.14-4.71,6.659-4.71c2.88,0,3.15,2.49,2.641,4.89l-2.4,11.31h-1.41l2.25-10.649c0.391-1.83,0.931-4.35-1.529-4.35
		c-2.28,0-5.88,2.279-7.17,8.459L216.192,22.259z"/>
	<path fill="#FF1E00" d="M259.782,22.589c-0.12-0.87-0.15-1.8-0.03-2.7c-1.44,1.59-2.85,2.7-4.92,2.7c-2.91,0-3.93-2.37-3.36-5.04
		c0.66-3.029,2.91-5.64,5.971-5.64c1.289,0,2.67,0.51,3.659,1.05c0.931-4.02,0.57-5.699-2.04-5.699c-1.38,0-2.64,0.479-4.02,1.05
		l-0.06-1.29c1.5-0.54,2.939-0.96,4.439-0.96c2.91,0,4.2,2.04,3.359,5.58c-0.51,2.159-1.02,4.319-1.56,6.479
		c-0.36,1.529-0.27,2.97-0.12,4.29L259.782,22.589z M260.771,14.069c-0.87-0.51-1.979-0.96-3.239-0.96c-2.641,0-4.17,2.22-4.65,4.56
		c-0.39,1.77,0.181,3.72,2.19,3.72c1.979,0,3.51-1.59,4.829-3.21L260.771,14.069z"/>
	<path fill="#FF1E00" d="M270.192,22.259h-1.41l1.68-7.949c0.57-2.7,1.08-5.4,1.11-8.101h1.319l-0.42,4.561h0.061
		c1.109-2.37,4.14-4.71,6.659-4.71c2.88,0,3.15,2.49,2.641,4.89l-2.4,11.31h-1.41l2.25-10.649c0.391-1.83,0.931-4.35-1.529-4.35
		c-2.28,0-5.88,2.279-7.17,8.459L270.192,22.259z"/>
	<path fill="#FF1E00" d="M298.511,16.679c-0.42,1.95-0.69,3.87-0.51,5.73l-1.351,0.18l-0.029-2.61c-1.2,1.65-2.91,2.61-4.771,2.61
		c-2.67,0-5.699-2.19-4.38-8.37c1.351-6.359,5.79-8.159,7.98-8.159c1.409,0,2.699,0.479,3.6,1.35L300.641,0h1.41L298.511,16.679z
		 M298.751,8.819c-0.811-0.87-1.891-1.56-3.21-1.56c-1.8,0-5.43,1.229-6.689,7.05c-1.17,5.489,1.47,7.079,3.27,7.079
		c2.01,0,3.63-1.47,4.649-3.18L298.751,8.819z"/>
	<path fill="#FF1E00" d="M-367.114,53.909c-1.08-0.899-2.34-1.649-3.93-1.649s-3.39,1.199-3.75,2.88
		c-0.39,1.859,1.5,2.729,2.82,3.27c2.22,0.93,4.56,1.89,3.9,4.979c-0.54,2.641-3.21,4.2-5.64,4.2c-1.98,0-4.29-1.23-5.43-2.55
		l1.02-1.14c1.02,1.289,2.85,2.489,4.709,2.489c1.77,0,3.51-0.99,3.93-2.91c0.51-2.369-1.2-3.06-2.91-3.779
		c-2.01-0.84-4.38-1.86-3.78-4.68c0.48-2.25,3.12-3.96,5.49-3.96c1.83,0,3.18,0.63,4.41,1.68L-367.114,53.909z"/>
	<path fill="#FF1E00" d="M-352.205,67.589c-0.12-0.87-0.15-1.8-0.03-2.7c-1.44,1.59-2.85,2.7-4.92,2.7c-2.91,0-3.93-2.37-3.36-5.04
		c0.66-3.029,2.91-5.64,5.97-5.64c1.29,0,2.67,0.51,3.66,1.05c0.93-4.02,0.57-5.699-2.04-5.699c-1.38,0-2.64,0.479-4.02,1.05
		l-0.06-1.29c1.5-0.54,2.94-0.96,4.44-0.96c2.91,0,4.2,2.04,3.36,5.58c-0.51,2.159-1.02,4.319-1.56,6.479
		c-0.36,1.529-0.27,2.97-0.12,4.29L-352.205,67.589z M-351.214,59.069c-0.87-0.51-1.98-0.96-3.24-0.96
		c-2.64,0-4.169,2.22-4.649,4.56c-0.39,1.77,0.18,3.72,2.189,3.72c1.98,0,3.51-1.59,4.83-3.21L-351.214,59.069z"/>
	<path fill="#FF1E00" d="M-335.045,52.59h-4.62l0.24-1.2h6.03l-3.36,15.869h-1.41L-335.045,52.59z M-331.565,46.8
		c-0.18,0.87-1.05,1.56-1.92,1.56c-0.87,0-1.41-0.689-1.23-1.56c0.18-0.87,1.02-1.561,1.89-1.561
		C-331.955,45.239-331.385,45.93-331.565,46.8z"/>
	<path fill="#FF1E00" d="M-313.476,61.679c-0.42,1.95-0.69,3.87-0.51,5.73l-1.35,0.18l-0.03-2.61c-1.2,1.65-2.91,2.61-4.77,2.61
		c-2.67,0-5.7-2.19-4.38-8.37c1.35-6.359,5.79-8.159,7.979-8.159c1.41,0,2.7,0.479,3.6,1.35l1.59-7.409h1.41L-313.476,61.679z
		 M-313.236,53.819c-0.81-0.87-1.89-1.56-3.209-1.56c-1.8,0-5.43,1.229-6.69,7.05c-1.17,5.489,1.47,7.079,3.27,7.079
		c2.01,0,3.63-1.47,4.65-3.18L-313.236,53.819z"/>
	<path fill="#FF1E00" d="M-303.936,69.329c0.99-0.271,2.13-0.841,2.729-1.771c-0.18,0.061-0.36,0.09-0.6,0.09
		c-1.11,0-1.65-0.75-1.44-1.859c0.24-1.141,1.32-1.95,2.4-1.95c1.32,0,1.86,1.23,1.59,2.46c-0.48,2.16-2.94,3.75-4.95,4.29
		L-303.936,69.329z"/>
	<path fill="#FF1E00" d="M-259.837,45.659l-0.72,3.33l-1.65,4.05h-1.2l0.03-4.05l0.72-3.33H-259.837z"/>
	<path fill="#FF1E00" d="M-243.728,64.949h0.06l5.37-19.29h1.65l-6.299,21.81h-1.89l-0.87-10.859l-5.399,10.859h-1.89l2.94-21.81
		h1.65l-2.85,19.29h0.06l6.27-12L-243.728,64.949z"/>
	<path fill="#FF1E00" d="M-223.658,66.148c-2.01,0.811-3.93,1.44-5.97,1.44c-4.65,0-5.49-4.17-4.62-8.189
		c0.84-4.021,3.54-8.34,8.22-8.34c2.67,0,5.4,1.92,4.02,8.489h-10.859c-0.93,5.58,1.11,6.84,3.54,6.84c1.8,0,3.66-0.66,5.34-1.56
		L-223.658,66.148z M-223.178,58.35c0.72-2.73-0.18-6.09-3.3-6.09c-3.09,0-5.64,3.3-6.149,6.09H-223.178z"/>
	<path fill="#FF1E00" d="M-197.979,51.39h1.56l-0.72,13.709h0.06l4.86-9.629h1.53l0.72,9.629h0.06l5.1-13.709h1.53l-6.209,16.079
		h-1.53l-0.84-10.26l-5.16,10.26h-1.53L-197.979,51.39z"/>
	<path fill="#FF1E00" d="M-172.209,67.589c-0.12-0.87-0.15-1.8-0.03-2.7c-1.44,1.59-2.85,2.7-4.92,2.7c-2.91,0-3.93-2.37-3.36-5.04
		c0.66-3.029,2.91-5.64,5.97-5.64c1.29,0,2.67,0.51,3.66,1.05c0.93-4.02,0.57-5.699-2.04-5.699c-1.38,0-2.64,0.479-4.02,1.05
		l-0.06-1.29c1.5-0.54,2.94-0.96,4.44-0.96c2.91,0,4.2,2.04,3.36,5.58c-0.51,2.159-1.02,4.319-1.56,6.479
		c-0.36,1.529-0.27,2.97-0.12,4.29L-172.209,67.589z M-171.219,59.069c-0.87-0.51-1.98-0.96-3.24-0.96
		c-2.64,0-4.169,2.22-4.649,4.56c-0.39,1.77,0.18,3.72,2.189,3.72c1.98,0,3.51-1.59,4.83-3.21L-171.219,59.069z"/>
	<path fill="#FF1E00" d="M-161.799,67.259h-1.41l1.68-7.949c0.57-2.7,1.08-5.4,1.11-8.101h1.32l-0.42,4.561h0.06
		c1.11-2.37,4.14-4.71,6.66-4.71c2.88,0,3.15,2.49,2.64,4.89l-2.4,11.31h-1.41l2.25-10.649c0.39-1.83,0.93-4.35-1.53-4.35
		c-2.28,0-5.88,2.279-7.169,8.459L-161.799,67.259z"/>
	<path fill="#FF1E00" d="M-143.8,67.259h-1.41l1.68-7.949c0.57-2.7,1.08-5.4,1.11-8.101h1.32l-0.42,4.561h0.06
		c1.11-2.37,4.14-4.71,6.66-4.71c2.88,0,3.15,2.49,2.64,4.89l-2.4,11.31h-1.41l2.25-10.649c0.39-1.83,0.93-4.35-1.53-4.35
		c-2.28,0-5.88,2.279-7.169,8.459L-143.8,67.259z"/>
	<path fill="#FF1E00" d="M-118.211,67.589c-0.12-0.87-0.15-1.8-0.03-2.7c-1.44,1.59-2.85,2.7-4.92,2.7c-2.91,0-3.93-2.37-3.36-5.04
		c0.66-3.029,2.91-5.64,5.97-5.64c1.29,0,2.67,0.51,3.66,1.05c0.93-4.02,0.57-5.699-2.04-5.699c-1.38,0-2.64,0.479-4.02,1.05
		l-0.06-1.29c1.5-0.54,2.94-0.96,4.44-0.96c2.91,0,4.2,2.04,3.36,5.58c-0.51,2.159-1.02,4.319-1.56,6.479
		c-0.36,1.529-0.27,2.97-0.12,4.29L-118.211,67.589z M-117.221,59.069c-0.87-0.51-1.98-0.96-3.24-0.96
		c-2.64,0-4.169,2.22-4.649,4.56c-0.39,1.77,0.18,3.72,2.19,3.72c1.979,0,3.51-1.59,4.83-3.21L-117.221,59.069z"/>
	<path fill="#FF1E00" d="M-79.482,61.679c-0.42,1.95-0.69,3.87-0.51,5.73l-1.35,0.18l-0.03-2.61c-1.2,1.65-2.91,2.61-4.77,2.61
		c-2.67,0-5.7-2.19-4.38-8.37c1.35-6.359,5.79-8.159,7.979-8.159c1.41,0,2.7,0.479,3.6,1.35l1.59-7.409h1.41L-79.482,61.679z
		 M-79.242,53.819c-0.81-0.87-1.89-1.56-3.21-1.56c-1.8,0-5.43,1.229-6.69,7.05c-1.17,5.489,1.47,7.079,3.27,7.079
		c2.01,0,3.63-1.47,4.65-3.18L-79.242,53.819z"/>
	<path fill="#FF1E00" d="M-65.052,52.59h-4.62l0.24-1.2h6.03l-3.36,15.869h-1.41L-65.052,52.59z M-61.572,46.8
		c-0.18,0.87-1.05,1.56-1.92,1.56c-0.87,0-1.41-0.689-1.23-1.56c0.18-0.87,1.02-1.561,1.89-1.561
		C-61.962,45.239-61.393,45.93-61.572,46.8z"/>
	<path fill="#FF1E00" d="M-43.123,53.909c-1.08-0.899-2.34-1.649-3.93-1.649s-3.39,1.199-3.75,2.88c-0.39,1.859,1.5,2.729,2.82,3.27
		c2.22,0.93,4.56,1.89,3.9,4.979c-0.54,2.641-3.21,4.2-5.64,4.2c-1.98,0-4.29-1.23-5.43-2.55l1.02-1.14
		c1.02,1.289,2.85,2.489,4.709,2.489c1.77,0,3.51-0.99,3.93-2.91c0.51-2.369-1.2-3.06-2.91-3.779c-2.01-0.84-4.38-1.86-3.78-4.68
		c0.48-2.25,3.12-3.96,5.49-3.96c1.83,0,3.18,0.63,4.41,1.68L-43.123,53.909z"/>
	<path fill="#FF1E00" d="M-28.213,67.589c-0.12-0.87-0.15-1.8-0.03-2.7c-1.44,1.59-2.85,2.7-4.92,2.7c-2.91,0-3.93-2.37-3.36-5.04
		c0.66-3.029,2.91-5.64,5.97-5.64c1.29,0,2.67,0.51,3.66,1.05c0.93-4.02,0.57-5.699-2.04-5.699c-1.38,0-2.64,0.479-4.02,1.05
		l-0.06-1.29c1.5-0.54,2.94-0.96,4.44-0.96c2.91,0,4.2,2.04,3.36,5.58c-0.51,2.159-1.02,4.319-1.56,6.479
		c-0.36,1.529-0.27,2.97-0.12,4.29L-28.213,67.589z M-27.223,59.069c-0.87-0.51-1.98-0.96-3.24-0.96c-2.64,0-4.169,2.22-4.649,4.56
		c-0.39,1.77,0.18,3.72,2.189,3.72c1.98,0,3.51-1.59,4.83-3.21L-27.223,59.069z"/>
	<path fill="#FF1E00" d="M-12.914,45l-1.59,7.409c1.26-0.87,2.79-1.35,4.2-1.35c2.19,0,5.85,1.8,4.5,8.159
		c-1.32,6.18-5.279,8.37-7.919,8.37c-1.86,0-3.21-0.96-3.69-2.61l-1.11,2.61l-1.29-0.18c0.96-1.86,1.53-3.78,1.95-5.73L-14.324,45
		H-12.914z M-16.784,63.209c0.42,1.71,1.17,3.18,3.27,3.18c1.8,0,5.1-1.56,6.27-7.079c1.26-5.82-1.89-7.05-3.69-7.05
		c-1.35,0-2.7,0.689-3.87,1.56L-16.784,63.209z"/>
	<path fill="#FF1E00" d="M8.086,46.199h-4.68L3.676,45h6.09l-4.74,22.259h-1.41L8.086,46.199z"/>
	<path fill="#FF1E00" d="M28.335,66.148c-2.01,0.811-3.93,1.44-5.97,1.44c-4.65,0-5.49-4.17-4.62-8.189
		c0.84-4.021,3.54-8.34,8.22-8.34c2.67,0,5.4,1.92,4.02,8.489H19.125c-0.93,5.58,1.11,6.84,3.54,6.84c1.8,0,3.66-0.66,5.34-1.56
		L28.335,66.148z M28.815,58.35c0.72-2.73-0.18-6.09-3.3-6.09c-3.09,0-5.64,3.3-6.149,6.09H28.815z"/>
	<path fill="#FF1E00" d="M64.334,66.148c-2.01,0.811-3.93,1.44-5.97,1.44c-4.65,0-5.49-4.17-4.62-8.189
		c0.84-4.021,3.54-8.34,8.22-8.34c2.67,0,5.4,1.92,4.02,8.489H55.125c-0.93,5.58,1.11,6.84,3.54,6.84c1.8,0,3.66-0.66,5.34-1.56
		L64.334,66.148z M64.814,58.35c0.72-2.73-0.18-6.09-3.3-6.09c-3.09,0-5.64,3.3-6.149,6.09H64.814z"/>
	<path fill="#FF1E00" d="M85.304,51.39l-8.4,16.079h-1.65l-1.62-16.079h1.5l1.38,13.949l7.29-13.949H85.304z"/>
	<path fill="#FF1E00" d="M100.333,66.148c-2.01,0.811-3.93,1.44-5.97,1.44c-4.65,0-5.49-4.17-4.62-8.189
		c0.84-4.021,3.54-8.34,8.22-8.34c2.67,0,5.4,1.92,4.02,8.489H91.124c-0.93,5.58,1.11,6.84,3.54,6.84c1.8,0,3.66-0.66,5.34-1.56
		L100.333,66.148z M100.813,58.35c0.72-2.73-0.18-6.09-3.3-6.09c-3.09,0-5.64,3.3-6.149,6.09H100.813z"/>
	<path fill="#FF1E00" d="M109.633,67.259h-1.41l2.34-10.979l0.51-5.07h1.35l-0.42,4.44l0.06,0.06c1.44-2.189,3.63-4.649,6.36-4.649
		c2.64,0,2.76,2.64,2.31,4.8h-1.41c0.27-1.47,0.63-3.6-1.29-3.6c-1.62,0-5.73,2.52-7.02,8.549L109.633,67.259z"/>
	<path fill="#FF1E00" d="M139.872,51.39l-9.12,15.089c-1.32,2.16-3.45,5.85-6.24,5.85c-1.8,0-2.82-1.409-3-3.029l1.32-0.63
		c0.15,1.08,0.63,2.46,1.95,2.46c1.53,0,2.7-1.771,3.48-2.97l1.77-2.73l-2.19-14.039h1.56l1.71,12.18l7.14-12.18H139.872z"/>
	<path fill="#FF1E00" d="M172.841,64.919c-1.83,1.59-3.57,2.67-5.82,2.67c-2.79,0-6.27-1.74-4.919-8.1
		c1.38-6.42,5.34-8.43,8.31-8.43c2.399,0,3.899,1.26,4.77,3.21l-1.44,0.84c-0.479-1.65-1.649-2.85-3.6-2.85
		c-1.979,0-5.339,1.229-6.569,6.989c-1.17,5.46,1.35,7.14,3.659,7.14c1.74,0,3.511-1.2,4.86-2.489L172.841,64.919z"/>
	<path fill="#FF1E00" d="M179.982,59.31c1.319-6.181,4.949-8.25,7.829-8.25c2.641,0,5.7,1.77,4.32,8.25
		c-1.351,6.449-5.16,8.279-7.83,8.279S178.602,65.789,179.982,59.31z M190.721,59.31c0.66-3.09,0.72-7.05-3.18-7.05
		c-3.87,0-5.49,3.96-6.15,7.05c-0.659,3.119-0.72,7.079,3.15,7.079C188.441,66.389,190.061,62.399,190.721,59.31z"/>
	<path fill="#FF1E00" d="M197.801,56.189c0.45-2.101,0.57-3.78,0.54-5.13h1.44l-0.061,2.069c1.17-1.26,2.61-2.069,4.17-2.069
		c1.29,0,1.83,0.78,2.04,1.92c1.021-1.021,2.311-1.92,3.69-1.92c2.039,0,2.819,1.35,2.399,3.33l-2.729,12.869h-1.41l2.729-12.81
		c0.33-1.62-0.33-2.22-1.439-2.22c-1.26,0-2.521,0.99-3.33,2.04l-2.76,12.989h-1.41l2.58-12.18c0.24-1.2,0.51-2.819-1.08-2.819
		c-1.35,0-2.819,1.109-3.6,2.31l-2.7,12.689h-1.41L197.801,56.189z"/>
	<path fill="#FF1E00" d="M217.122,56.939c0.42-1.92,0.66-3.84,0.51-5.7l1.351-0.18v2.609h0.06c1.14-1.649,2.88-2.609,4.74-2.609
		c2.64,0,5.699,2.13,4.35,8.369c-1.351,6.36-5.79,8.16-7.95,8.16c-1.409,0-2.729-0.48-3.63-1.35l-1.56,7.379h-1.41L217.122,56.939z
		 M216.852,64.829c0.81,0.87,1.859,1.56,3.209,1.56c1.801,0,5.46-1.26,6.69-7.05c1.17-5.52-1.47-7.079-3.271-7.079
		c-2.1,0-3.479,1.47-4.619,3.18L216.852,64.829z"/>
	<path fill="#FF1E00" d="M245.501,51.39h1.409l-1.649,7.829c-0.57,2.7-1.05,5.4-1.08,8.04h-1.32l0.36-4.5h-0.06
		c-1.11,2.37-4.141,4.83-6.63,4.83c-2.88,0-3.15-2.61-2.64-5.01l2.369-11.189h1.41l-2.22,10.529c-0.63,3-0.21,4.47,1.5,4.47
		c2.34,0,5.939-2.58,7.199-8.579L245.501,51.39z"/>
	<path fill="#FF1E00" d="M263.801,52.59h-5.82l-2.31,10.829c-0.33,1.53-0.06,2.97,1.89,2.97c1.771,0,3.3-1.319,4.29-2.819l1.29,0.33
		c-1.439,2.039-3.51,3.689-5.88,3.689c-2.04,0-3.689-0.99-2.819-5.01l2.13-9.989h-3.57l0.24-1.2h3.569l1.11-5.1h1.41l-1.11,5.1h5.82
		L263.801,52.59z"/>
	<path fill="#FF1E00" d="M280.332,66.148c-2.01,0.811-3.93,1.44-5.97,1.44c-4.65,0-5.49-4.17-4.62-8.189
		c0.84-4.021,3.54-8.34,8.22-8.34c2.67,0,5.399,1.92,4.02,8.489h-10.859c-0.93,5.58,1.11,6.84,3.54,6.84c1.8,0,3.66-0.66,5.34-1.56
		L280.332,66.148z M280.811,58.35c0.72-2.73-0.18-6.09-3.3-6.09c-3.09,0-5.64,3.3-6.149,6.09H280.811z"/>
	<path fill="#FF1E00" d="M289.631,67.259h-1.41l2.341-10.979l0.51-5.07h1.35l-0.42,4.44l0.06,0.06c1.44-2.189,3.63-4.649,6.36-4.649
		c2.64,0,2.76,2.64,2.31,4.8h-1.41c0.271-1.47,0.631-3.6-1.289-3.6c-1.62,0-5.73,2.52-7.021,8.549L289.631,67.259z"/>
	<path fill="#FF1E00" d="M-371.044,97.59h-4.62l0.24-1.2h6.03l-3.36,15.869h-1.41L-371.044,97.59z M-367.564,91.8
		c-0.18,0.87-1.05,1.56-1.92,1.56c-0.87,0-1.41-0.689-1.23-1.56c0.18-0.87,1.02-1.561,1.89-1.561
		C-367.954,90.239-367.384,90.93-367.564,91.8z"/>
	<path fill="#FF1E00" d="M-359.794,112.259h-1.41l1.68-7.949c0.57-2.7,1.08-5.4,1.11-8.101h1.32l-0.42,4.561h0.06
		c1.11-2.37,4.14-4.71,6.66-4.71c2.88,0,3.15,2.49,2.64,4.89l-2.4,11.31h-1.41l2.25-10.649c0.39-1.83,0.93-4.35-1.53-4.35
		c-2.28,0-5.88,2.279-7.169,8.459L-359.794,112.259z"/>
	<path fill="#FF1E00" d="M-311.795,91.859h-3l-4.08,19.199h3l-0.27,1.2h-7.41l0.27-1.2h3l4.08-19.199h-3l0.24-1.2h7.41
		L-311.795,91.859z"/>
	<path fill="#FF1E00" d="M-304.356,112.259h-1.41l2.34-10.979l0.51-5.07h1.35l-0.42,4.44l0.06,0.06
		c1.44-2.189,3.63-4.649,6.36-4.649c2.64,0,2.76,2.64,2.31,4.8h-1.41c0.27-1.47,0.63-3.6-1.29-3.6c-1.62,0-5.73,2.52-7.02,8.549
		L-304.356,112.259z"/>
	<path fill="#FF1E00" d="M-280.207,112.589c-0.12-0.87-0.15-1.8-0.03-2.7c-1.44,1.59-2.85,2.7-4.92,2.7c-2.91,0-3.93-2.37-3.36-5.04
		c0.66-3.029,2.91-5.64,5.97-5.64c1.29,0,2.67,0.51,3.66,1.05c0.93-4.02,0.57-5.699-2.04-5.699c-1.38,0-2.64,0.479-4.02,1.05
		l-0.06-1.29c1.5-0.54,2.94-0.96,4.44-0.96c2.91,0,4.2,2.04,3.36,5.58c-0.51,2.159-1.02,4.319-1.56,6.479
		c-0.36,1.529-0.27,2.97-0.12,4.29L-280.207,112.589z M-279.216,104.069c-0.87-0.51-1.98-0.96-3.24-0.96
		c-2.64,0-4.169,2.22-4.649,4.56c-0.39,1.77,0.18,3.72,2.189,3.72c1.98,0,3.51-1.59,4.83-3.21L-279.216,104.069z"/>
	<path fill="#FF1E00" d="M-269.796,112.259h-1.41l1.68-7.949c0.57-2.7,1.08-5.4,1.11-8.101h1.32l-0.42,4.561h0.06
		c1.11-2.37,4.14-4.71,6.66-4.71c2.88,0,3.15,2.49,2.64,4.89l-2.4,11.31h-1.41l2.25-10.649c0.39-1.83,0.93-4.35-1.53-4.35
		c-2.28,0-5.88,2.279-7.169,8.459L-269.796,112.259z"/>
	<path fill="#FF1E00" d="M-249.937,114.329c0.99-0.271,2.13-0.841,2.729-1.771c-0.18,0.061-0.36,0.09-0.6,0.09
		c-1.11,0-1.65-0.75-1.44-1.859c0.24-1.141,1.32-1.95,2.4-1.95c1.32,0,1.86,1.23,1.59,2.46c-0.48,2.16-2.94,3.75-4.95,4.29
		L-249.937,114.329z"/>
	<path fill="#FF1E00" d="M-208.208,112.589c-0.12-0.87-0.15-1.8-0.03-2.7c-1.44,1.59-2.85,2.7-4.92,2.7c-2.91,0-3.93-2.37-3.36-5.04
		c0.66-3.029,2.91-5.64,5.97-5.64c1.29,0,2.67,0.51,3.66,1.05c0.93-4.02,0.57-5.699-2.04-5.699c-1.38,0-2.64,0.479-4.02,1.05
		l-0.06-1.29c1.5-0.54,2.94-0.96,4.44-0.96c2.91,0,4.2,2.04,3.36,5.58c-0.51,2.159-1.02,4.319-1.56,6.479
		c-0.36,1.529-0.27,2.97-0.12,4.29L-208.208,112.589z M-207.218,104.069c-0.87-0.51-1.98-0.96-3.24-0.96
		c-2.64,0-4.169,2.22-4.649,4.56c-0.39,1.77,0.18,3.72,2.189,3.72c1.98,0,3.51-1.59,4.83-3.21L-207.218,104.069z"/>
	<path fill="#FF1E00" d="M-197.798,112.259h-1.41l1.68-7.949c0.57-2.7,1.08-5.4,1.11-8.101h1.32l-0.42,4.561h0.06
		c1.11-2.37,4.14-4.71,6.66-4.71c2.88,0,3.15,2.49,2.64,4.89l-2.4,11.31h-1.41l2.25-10.649c0.39-1.83,0.93-4.35-1.53-4.35
		c-2.28,0-5.88,2.279-7.169,8.459L-197.798,112.259z"/>
	<path fill="#FF1E00" d="M-169.479,106.679c-0.42,1.95-0.69,3.87-0.51,5.73l-1.35,0.18l-0.03-2.61c-1.2,1.65-2.91,2.61-4.77,2.61
		c-2.67,0-5.7-2.19-4.38-8.37c1.35-6.359,5.79-8.159,7.979-8.159c1.41,0,2.7,0.479,3.6,1.35l1.59-7.409h1.41L-169.479,106.679z
		 M-169.24,98.819c-0.81-0.87-1.89-1.56-3.209-1.56c-1.8,0-5.43,1.229-6.69,7.05c-1.17,5.489,1.47,7.079,3.27,7.079
		c2.01,0,3.63-1.47,4.65-3.18L-169.24,98.819z"/>
	<path fill="#FF1E00" d="M-132.19,97.59h-5.82l-2.31,10.829c-0.33,1.53-0.06,2.97,1.89,2.97c1.77,0,3.3-1.319,4.29-2.819l1.29,0.33
		c-1.44,2.039-3.51,3.689-5.88,3.689c-2.04,0-3.689-0.99-2.82-5.01l2.13-9.989h-3.57l0.24-1.2h3.57l1.11-5.1h1.41l-1.11,5.1h5.82
		L-132.19,97.59z"/>
	<path fill="#FF1E00" d="M-122.201,90h1.41l-2.1,9.839h0.06c1.38-1.979,3.69-3.779,6.09-3.779c1.47,0,3.54,1.17,2.79,4.649
		l-2.46,11.55h-1.41l2.13-9.96c0.42-2.01,0.78-5.039-1.56-5.039c-2.67,0-5.79,3.329-6.57,7.02l-1.71,7.979h-1.41L-122.201,90z"/>
	<path fill="#FF1E00" d="M-97.662,111.148c-2.01,0.811-3.93,1.44-5.97,1.44c-4.649,0-5.49-4.17-4.62-8.189
		c0.84-4.021,3.54-8.34,8.22-8.34c2.67,0,5.4,1.92,4.02,8.489h-10.859c-0.93,5.58,1.11,6.84,3.54,6.84c1.8,0,3.66-0.66,5.34-1.56
		L-97.662,111.148z M-97.182,103.35c0.72-2.73-0.18-6.09-3.3-6.09c-3.09,0-5.64,3.3-6.149,6.09H-97.182z"/>
	<path fill="#FF1E00" d="M-76.122,96.39l-9.12,15.089c-1.32,2.16-3.45,5.85-6.24,5.85c-1.8,0-2.82-1.409-3-3.029l1.32-0.63
		c0.15,1.08,0.63,2.46,1.95,2.46c1.53,0,2.7-1.771,3.48-2.97l1.77-2.73l-2.19-14.039h1.56l1.71,12.18l7.14-12.18H-76.122z"/>
	<path fill="#FF1E00" d="M-61.842,90.659l-0.72,3.33l-1.65,4.05h-1.2l0.03-4.05l0.72-3.33H-61.842z"/>
	<path fill="#FF1E00" d="M-43.483,106.679c-0.42,1.95-0.69,3.87-0.51,5.73l-1.35,0.18l-0.03-2.61c-1.2,1.65-2.91,2.61-4.77,2.61
		c-2.67,0-5.7-2.19-4.38-8.37c1.35-6.359,5.79-8.159,7.979-8.159c1.41,0,2.7,0.479,3.6,1.35l1.59-7.409h1.41L-43.483,106.679z
		 M-43.243,98.819c-0.81-0.87-1.89-1.56-3.21-1.56c-1.8,0-5.43,1.229-6.69,7.05c-1.17,5.489,1.47,7.079,3.27,7.079
		c2.01,0,3.63-1.47,4.65-3.18L-43.243,98.819z"/>
	<path fill="#FF1E00" d="M-14.204,90h1.41l-2.1,9.839h0.06c1.38-1.979,3.69-3.779,6.09-3.779c1.47,0,3.54,1.17,2.79,4.649
		l-2.46,11.55h-1.41l2.13-9.96c0.42-2.01,0.78-5.039-1.56-5.039c-2.67,0-5.79,3.329-6.57,7.02l-1.71,7.979h-1.41L-14.204,90z"/>
	<path fill="#FF1E00" d="M7.786,112.589c-0.12-0.87-0.15-1.8-0.03-2.7c-1.44,1.59-2.85,2.7-4.92,2.7c-2.91,0-3.93-2.37-3.36-5.04
		c0.66-3.029,2.91-5.64,5.97-5.64c1.29,0,2.67,0.51,3.66,1.05c0.93-4.02,0.57-5.699-2.04-5.699c-1.38,0-2.64,0.479-4.02,1.05
		l-0.06-1.29c1.5-0.54,2.94-0.96,4.44-0.96c2.91,0,4.2,2.04,3.36,5.58c-0.51,2.159-1.02,4.319-1.56,6.479
		c-0.36,1.529-0.27,2.97-0.12,4.29L7.786,112.589z M8.776,104.069c-0.87-0.51-1.98-0.96-3.24-0.96c-2.64,0-4.169,2.22-4.649,4.56
		c-0.39,1.77,0.18,3.72,2.189,3.72c1.98,0,3.51-1.59,4.83-3.21L8.776,104.069z"/>
	<path fill="#FF1E00" d="M31.305,96.39l-8.4,16.079h-1.65l-1.62-16.079h1.5l1.38,13.949l7.29-13.949H31.305z"/>
	<path fill="#FF1E00" d="M46.334,111.148c-2.01,0.811-3.93,1.44-5.97,1.44c-4.649,0-5.49-4.17-4.62-8.189
		c0.84-4.021,3.54-8.34,8.22-8.34c2.67,0,5.4,1.92,4.02,8.489H37.125c-0.93,5.58,1.11,6.84,3.54,6.84c1.8,0,3.66-0.66,5.34-1.56
		L46.334,111.148z M46.814,103.35c0.72-2.73-0.18-6.09-3.3-6.09c-3.09,0-5.64,3.3-6.149,6.09H46.814z"/>
	<path fill="#FF1E00" d="M83.804,97.59h-5.82l-2.31,10.829c-0.33,1.53-0.06,2.97,1.89,2.97c1.77,0,3.3-1.319,4.29-2.819l1.29,0.33
		c-1.44,2.039-3.51,3.689-5.88,3.689c-2.04,0-3.689-0.99-2.82-5.01l2.13-9.989h-3.57l0.24-1.2h3.57l1.11-5.1h1.41l-1.11,5.1h5.82
		L83.804,97.59z"/>
	<path fill="#FF1E00" d="M89.983,104.31c1.32-6.181,4.95-8.25,7.83-8.25c2.64,0,5.7,1.77,4.32,8.25
		c-1.35,6.449-5.16,8.279-7.83,8.279S88.604,110.789,89.983,104.31z M100.723,104.31c0.66-3.09,0.72-7.05-3.18-7.05
		c-3.87,0-5.49,3.96-6.15,7.05c-0.66,3.119-0.72,7.079,3.15,7.079C98.443,111.389,100.063,107.399,100.723,104.31z"/>
	<path fill="#FF1E00" d="M127.632,112.259h-1.41l2.34-10.979l0.51-5.07h1.35l-0.42,4.44l0.06,0.06c1.44-2.189,3.63-4.649,6.36-4.649
		c2.64,0,2.76,2.64,2.31,4.8h-1.41c0.27-1.47,0.63-3.6-1.29-3.6c-1.62,0-5.73,2.52-7.02,8.549L127.632,112.259z"/>
	<path fill="#FF1E00" d="M154.332,111.148c-2.01,0.811-3.93,1.44-5.97,1.44c-4.649,0-5.49-4.17-4.62-8.189
		c0.84-4.021,3.54-8.34,8.22-8.34c2.67,0,5.4,1.92,4.02,8.489h-10.859c-0.93,5.58,1.11,6.84,3.54,6.84c1.8,0,3.66-0.66,5.34-1.56
		L154.332,111.148z M154.812,103.35c0.72-2.73-0.18-6.09-3.3-6.09c-3.09,0-5.64,3.3-6.149,6.09H154.812z"/>
	<path fill="#FF1E00" d="M163.122,101.939c0.42-1.92,0.66-3.84,0.51-5.7l1.35-0.18v2.609h0.06c1.14-1.649,2.88-2.609,4.74-2.609
		c2.64,0,5.699,2.13,4.35,8.369c-1.351,6.36-5.79,8.16-7.95,8.16c-1.41,0-2.729-0.48-3.629-1.35l-1.56,7.379h-1.41L163.122,101.939z
		 M162.852,109.829c0.81,0.87,1.86,1.56,3.209,1.56c1.801,0,5.46-1.26,6.69-7.05c1.17-5.52-1.47-7.079-3.271-7.079
		c-2.1,0-3.479,1.47-4.62,3.18L162.852,109.829z"/>
	<path fill="#FF1E00" d="M188.082,91.199h-4.68l0.27-1.199h6.09l-4.74,22.259h-1.409L188.082,91.199z"/>
	<path fill="#FF1E00" d="M205.782,112.589c-0.12-0.87-0.15-1.8-0.03-2.7c-1.44,1.59-2.85,2.7-4.92,2.7c-2.91,0-3.93-2.37-3.36-5.04
		c0.66-3.029,2.91-5.64,5.971-5.64c1.289,0,2.67,0.51,3.659,1.05c0.931-4.02,0.57-5.699-2.04-5.699c-1.38,0-2.64,0.479-4.02,1.05
		l-0.06-1.29c1.5-0.54,2.939-0.96,4.439-0.96c2.91,0,4.2,2.04,3.359,5.58c-0.51,2.159-1.02,4.319-1.56,6.479
		c-0.36,1.529-0.27,2.97-0.12,4.29L205.782,112.589z M206.771,104.069c-0.87-0.51-1.979-0.96-3.239-0.96
		c-2.641,0-4.17,2.22-4.65,4.56c-0.39,1.77,0.181,3.72,2.19,3.72c1.979,0,3.51-1.59,4.829-3.21L206.771,104.069z"/>
	<path fill="#FF1E00" d="M226.841,109.919c-1.83,1.59-3.57,2.67-5.82,2.67c-2.789,0-6.27-1.74-4.919-8.1
		c1.38-6.42,5.34-8.43,8.31-8.43c2.399,0,3.899,1.26,4.77,3.21l-1.44,0.84c-0.479-1.65-1.649-2.85-3.6-2.85
		c-1.979,0-5.34,1.229-6.569,6.989c-1.17,5.46,1.35,7.14,3.659,7.14c1.74,0,3.511-1.2,4.86-2.489L226.841,109.919z"/>
	<path fill="#FF1E00" d="M244.332,111.148c-2.01,0.811-3.93,1.44-5.97,1.44c-4.65,0-5.49-4.17-4.62-8.189
		c0.84-4.021,3.54-8.34,8.22-8.34c2.67,0,5.399,1.92,4.02,8.489h-10.859c-0.93,5.58,1.11,6.84,3.54,6.84c1.8,0,3.66-0.66,5.34-1.56
		L244.332,111.148z M244.811,103.35c0.72-2.73-0.18-6.09-3.3-6.09c-3.09,0-5.64,3.3-6.149,6.09H244.811z"/>
	<path fill="#FF1E00" d="M-366.184,145.59h-5.82l-2.31,10.829c-0.33,1.53-0.06,2.97,1.89,2.97c1.77,0,3.3-1.319,4.29-2.819
		l1.29,0.33c-1.44,2.039-3.51,3.689-5.88,3.689c-2.04,0-3.689-0.99-2.82-5.01l2.13-9.989h-3.57l0.24-1.2h3.57l1.11-5.1h1.41
		l-1.11,5.1h5.82L-366.184,145.59z"/>
	<path fill="#FF1E00" d="M-356.194,138h1.41l-2.1,9.839h0.06c1.38-1.979,3.69-3.779,6.09-3.779c1.47,0,3.54,1.17,2.79,4.649
		l-2.46,11.55h-1.41l2.13-9.96c0.42-2.01,0.78-5.039-1.56-5.039c-2.67,0-5.79,3.329-6.57,7.02l-1.71,7.979h-1.41L-356.194,138z"/>
	<path fill="#FF1E00" d="M-331.655,159.148c-2.01,0.811-3.93,1.44-5.97,1.44c-4.65,0-5.49-4.17-4.62-8.189
		c0.84-4.021,3.54-8.34,8.22-8.34c2.67,0,5.4,1.92,4.02,8.489h-10.859c-0.93,5.58,1.11,6.84,3.54,6.84c1.8,0,3.66-0.66,5.34-1.56
		L-331.655,159.148z M-331.175,151.35c0.72-2.73-0.18-6.09-3.3-6.09c-3.09,0-5.64,3.3-6.149,6.09H-331.175z"/>
	<path fill="#FF1E00" d="M-324.185,149.189c0.45-2.101,0.57-3.78,0.54-5.13h1.44l-0.06,2.069c1.17-1.26,2.61-2.069,4.17-2.069
		c1.29,0,1.83,0.78,2.04,1.92c1.02-1.021,2.31-1.92,3.69-1.92c2.04,0,2.82,1.35,2.4,3.33l-2.73,12.869h-1.41l2.73-12.81
		c0.33-1.62-0.33-2.22-1.44-2.22c-1.26,0-2.52,0.99-3.33,2.04l-2.76,12.989h-1.41l2.58-12.18c0.24-1.2,0.51-2.819-1.08-2.819
		c-1.35,0-2.82,1.109-3.6,2.31l-2.7,12.689h-1.41L-324.185,149.189z"/>
	<path fill="#FF1E00" d="M-295.836,138.659l-0.72,3.33l-1.65,4.05h-1.2l0.03-4.05l0.72-3.33H-295.836z"/>
	<path fill="#FF1E00" d="M-267.217,150.089l0.27-1.199h7.08l-0.27,1.199H-267.217z"/>
	<path fill="#FF1E00" d="M-233.797,160.259h-1.41l1.68-7.949c0.57-2.7,1.08-5.4,1.11-8.101h1.32l-0.42,4.561h0.06
		c1.11-2.37,4.14-4.71,6.66-4.71c2.88,0,3.15,2.49,2.64,4.89l-2.4,11.31h-1.41l2.25-10.649c0.39-1.83,0.93-4.35-1.53-4.35
		c-2.28,0-5.88,2.279-7.169,8.459L-233.797,160.259z"/>
	<path fill="#FF1E00" d="M-216.008,152.31c1.32-6.181,4.95-8.25,7.83-8.25c2.64,0,5.7,1.77,4.32,8.25
		c-1.35,6.449-5.16,8.279-7.83,8.279C-214.358,160.589-217.388,158.789-216.008,152.31z M-205.269,152.31
		c0.66-3.09,0.72-7.05-3.18-7.05c-3.87,0-5.49,3.96-6.15,7.05c-0.66,3.119-0.72,7.079,3.15,7.079
		C-207.548,159.389-205.929,155.399-205.269,152.31z"/>
	<path fill="#FF1E00" d="M-186.189,145.59h-5.82l-2.31,10.829c-0.33,1.53-0.06,2.97,1.89,2.97c1.77,0,3.3-1.319,4.29-2.819
		l1.29,0.33c-1.44,2.039-3.51,3.689-5.88,3.689c-2.04,0-3.689-0.99-2.82-5.01l2.13-9.989h-3.57l0.24-1.2h3.57l1.11-5.1h1.41
		l-1.11,5.1h5.82L-186.189,145.59z"/>
	<path fill="#FF1E00" d="M-154.21,160.589c-0.12-0.87-0.15-1.8-0.03-2.7c-1.44,1.59-2.85,2.7-4.92,2.7c-2.91,0-3.93-2.37-3.36-5.04
		c0.66-3.029,2.91-5.64,5.97-5.64c1.29,0,2.67,0.51,3.66,1.05c0.93-4.02,0.57-5.699-2.04-5.699c-1.38,0-2.64,0.479-4.02,1.05
		l-0.06-1.29c1.5-0.54,2.94-0.96,4.44-0.96c2.91,0,4.2,2.04,3.36,5.58c-0.51,2.159-1.02,4.319-1.56,6.479
		c-0.36,1.529-0.27,2.97-0.12,4.29L-154.21,160.589z M-153.22,152.069c-0.87-0.51-1.98-0.96-3.24-0.96
		c-2.64,0-4.169,2.22-4.649,4.56c-0.39,1.77,0.18,3.72,2.19,3.72c1.979,0,3.51-1.59,4.83-3.21L-153.22,152.069z"/>
	<path fill="#FF1E00" d="M-124.871,149.939c0.42-1.92,0.66-3.84,0.51-5.7l1.35-0.18v2.609h0.06c1.14-1.649,2.88-2.609,4.74-2.609
		c2.64,0,5.7,2.13,4.35,8.369c-1.35,6.36-5.79,8.16-7.95,8.16c-1.41,0-2.73-0.48-3.63-1.35l-1.56,7.379h-1.41L-124.871,149.939z
		 M-125.141,157.829c0.81,0.87,1.86,1.56,3.21,1.56c1.8,0,5.46-1.26,6.69-7.05c1.17-5.52-1.47-7.079-3.27-7.079
		c-2.1,0-3.48,1.47-4.62,3.18L-125.141,157.829z"/>
	<path fill="#FF1E00" d="M-106.361,160.259h-1.41l2.34-10.979l0.51-5.07h1.35l-0.42,4.44l0.06,0.06
		c1.44-2.189,3.63-4.649,6.36-4.649c2.64,0,2.76,2.64,2.31,4.8h-1.41c0.27-1.47,0.63-3.6-1.29-3.6c-1.62,0-5.73,2.52-7.02,8.549
		L-106.361,160.259z"/>
	<path fill="#FF1E00" d="M-90.012,152.31c1.32-6.181,4.95-8.25,7.83-8.25c2.64,0,5.7,1.77,4.32,8.25
		c-1.35,6.449-5.16,8.279-7.83,8.279S-91.392,158.789-90.012,152.31z M-79.272,152.31c0.66-3.09,0.72-7.05-3.18-7.05
		c-3.87,0-5.49,3.96-6.15,7.05c-0.66,3.119-0.72,7.079,3.15,7.079C-81.552,159.389-79.932,155.399-79.272,152.31z"/>
	<path fill="#FF1E00" d="M-66.912,138l-1.59,7.409c1.26-0.87,2.79-1.35,4.2-1.35c2.19,0,5.85,1.8,4.5,8.159
		c-1.32,6.18-5.28,8.37-7.92,8.37c-1.86,0-3.21-0.96-3.69-2.61l-1.11,2.61l-1.29-0.18c0.96-1.86,1.53-3.78,1.95-5.73l3.54-16.679
		H-66.912z M-70.782,156.209c0.42,1.71,1.17,3.18,3.27,3.18c1.8,0,5.1-1.56,6.27-7.079c1.26-5.82-1.89-7.05-3.689-7.05
		c-1.35,0-2.7,0.689-3.87,1.56L-70.782,156.209z"/>
	<path fill="#FF1E00" d="M-45.913,139.199h-4.68l0.27-1.199h6.09l-4.74,22.259h-1.41L-45.913,139.199z"/>
	<path fill="#FF1E00" d="M-25.664,159.148c-2.01,0.811-3.93,1.44-5.97,1.44c-4.649,0-5.49-4.17-4.62-8.189
		c0.84-4.021,3.54-8.34,8.22-8.34c2.67,0,5.4,1.92,4.02,8.489h-10.859c-0.93,5.58,1.11,6.84,3.54,6.84c1.8,0,3.66-0.66,5.34-1.56
		L-25.664,159.148z M-25.184,151.35c0.72-2.73-0.18-6.09-3.3-6.09c-3.09,0-5.64,3.3-6.149,6.09H-25.184z"/>
	<path fill="#FF1E00" d="M-18.193,149.189c0.45-2.101,0.57-3.78,0.54-5.13h1.44l-0.06,2.069c1.17-1.26,2.61-2.069,4.17-2.069
		c1.29,0,1.83,0.78,2.04,1.92c1.02-1.021,2.31-1.92,3.69-1.92c2.04,0,2.82,1.35,2.4,3.33l-2.73,12.869h-1.41l2.73-12.81
		c0.33-1.62-0.33-2.22-1.44-2.22c-1.26,0-2.52,0.99-3.33,2.04l-2.76,12.989h-1.41l2.58-12.18c0.24-1.2,0.51-2.819-1.08-2.819
		c-1.35,0-2.82,1.109-3.6,2.31l-2.7,12.689h-1.41L-18.193,149.189z"/>
	<path fill="#FF1E00" d="M4.936,156.629c1.11,0,1.83,0.93,1.59,2.04c-0.24,1.109-1.35,2.01-2.46,2.01s-1.83-0.9-1.59-2.01
		C2.716,157.559,3.826,156.629,4.936,156.629z"/>
	<path fill="#FF0000" d="M29.313,131.464l-1.12,5.199l-2.76,5.159h-2.16l-0.6-5.159l1.12-5.199H29.313z M38.751,131.464l-1.12,5.199
		l-2.76,5.159h-2.16l-0.6-5.159l1.12-5.199H38.751z"/>
	<path fill="#FF0000" d="M-380.104,221.174v-0.6h3.54v0.6H-380.104z"/>
	<path fill="#FF0000" d="M-357.949,215.459v7.38c0,2.61-0.945,3.63-2.91,3.63c-1.74,0-2.7-0.93-2.7-3.465v-1.155h0.705v1.545
		c0,1.71,0.615,2.49,1.98,2.476c1.53-0.03,2.22-0.99,2.22-2.476v-7.334h-2.04v-0.601H-357.949z"/>
	<path fill="#FF0000" d="M-354.364,222.284c0-3.09,1.59-4.125,3.03-4.125c1.32,0,3.045,0.885,3.045,4.125
		c0,3.225-1.71,4.14-3.045,4.14S-354.364,225.523-354.364,222.284z M-348.994,222.284c0-1.545-0.39-3.525-2.34-3.525
		c-1.935,0-2.325,1.98-2.325,3.525c0,1.56,0.39,3.54,2.325,3.54C-349.384,225.824-348.994,223.829-348.994,222.284z"/>
	<path fill="#FF0000" d="M-344.313,226.259h-0.705v-3.975c0-1.351-0.045-2.7-0.315-4.05h0.66l0.285,2.279h0.03
		c0.3-1.185,1.56-2.354,2.82-2.354c1.44,0,1.845,1.245,1.845,2.445v5.654h-0.705v-5.325c0-0.915,0-2.175-1.23-2.175
		c-1.14,0-2.685,1.141-2.685,4.23V226.259z"/>
	<path fill="#FF0000" d="M-324.859,215.879c-0.465,0.136-0.975,0.42-1.17,0.886c0.105-0.016,0.195-0.046,0.285-0.046
		c0.555,0,0.915,0.375,0.915,0.931c0,0.569-0.45,0.975-0.99,0.975c-0.66,0-1.05-0.615-1.05-1.229c0-1.08,1.065-1.875,2.01-2.146
		V215.879z M-321.514,215.879c-0.465,0.136-0.975,0.42-1.17,0.886c0.105-0.016,0.195-0.046,0.285-0.046
		c0.555,0,0.915,0.375,0.915,0.931c0,0.569-0.45,0.975-0.99,0.975c-0.66,0-1.05-0.615-1.05-1.229c0-1.08,1.065-1.875,2.01-2.146
		V215.879z"/>
	<path fill="#FF0000" d="M-317.479,220.349h4.275v-4.89h0.705v10.8h-0.705v-5.31h-4.275v5.31h-0.705v-10.8h0.705V220.349z"/>
	<path fill="#FF0000" d="M-304.339,218.324h0.705v3.915c0,1.35,0.045,2.699,0.315,4.02h-0.66l-0.3-2.25h-0.03
		c-0.3,1.185-1.56,2.415-2.805,2.415c-1.44,0-1.845-1.305-1.845-2.505v-5.595h0.705v5.265c0,1.5,0.375,2.235,1.23,2.235
		c1.17,0,2.685-1.29,2.685-4.29V218.324z"/>
	<path fill="#FF0000" d="M-300.679,220.724c0-1.05-0.12-1.89-0.285-2.564h0.72l0.195,1.035c0.45-0.63,1.08-1.035,1.86-1.035
		c0.645,0,1.005,0.39,1.23,0.96c0.405-0.51,0.945-0.96,1.635-0.96c1.02,0,1.56,0.675,1.56,1.665v6.435h-0.705v-6.404
		c0-0.811-0.39-1.11-0.945-1.11c-0.63,0-1.155,0.495-1.455,1.02v6.495h-0.705v-6.09c0-0.6-0.045-1.41-0.84-1.41
		c-0.675,0-1.29,0.556-1.56,1.155v6.345h-0.705V220.724z"/>
	<path fill="#FF0000" d="M-290.943,221.099c0-0.96-0.075-1.92-0.36-2.85l0.66-0.09l0.27,1.305h0.03
		c0.405-0.825,1.17-1.305,2.1-1.305c1.32,0,3.075,1.064,3.075,4.185c0,3.18-2.04,4.08-3.12,4.08c-0.705,0-1.41-0.24-1.95-0.675
		v3.689h-0.705V221.099z M-290.239,225.044c0.495,0.435,1.095,0.78,1.77,0.78c0.9,0,2.595-0.631,2.595-3.525
		c0-2.76-1.485-3.54-2.385-3.54c-1.05,0-1.59,0.735-1.98,1.59V225.044z"/>
	<path fill="#FF0000" d="M-276.364,225.704c-0.915,0.404-1.815,0.72-2.835,0.72c-2.325,0-3.18-2.085-3.18-4.095
		s0.885-4.17,3.225-4.17c1.335,0,2.91,0.96,2.91,4.245h-5.43c0.135,2.789,1.29,3.42,2.505,3.42c0.9,0,1.755-0.33,2.505-0.78
		L-276.364,225.704z M-276.949,221.804c0.075-1.364-0.735-3.045-2.295-3.045c-1.545,0-2.475,1.65-2.43,3.045H-276.949z"/>
	<path fill="#FF0000" d="M-271.594,226.259h-0.705v-5.49l-0.285-2.534h0.675l0.27,2.25c0.525-1.096,1.35-2.325,2.715-2.325
		c1.32,0,1.665,1.32,1.665,2.399h-0.705c-0.015-0.734-0.06-1.8-1.02-1.8c-0.81,0-2.61,1.26-2.61,4.275V226.259z"/>
	<path fill="#FF0000" d="M-258.754,223.469c0,0.976,0.075,1.936,0.36,2.865l-0.66,0.09l-0.285-1.305
		c-0.42,0.824-1.185,1.305-2.115,1.305c-1.335,0-3.075-1.095-3.075-4.185c0-3.18,2.025-4.08,3.12-4.08c0.705,0,1.41,0.24,1.95,0.675
		v-3.705h0.705V223.469z M-259.459,219.539c-0.495-0.435-1.11-0.78-1.77-0.78c-0.9,0-2.595,0.615-2.595,3.525
		c0,2.745,1.485,3.54,2.385,3.54c1.005,0,1.65-0.735,1.979-1.591V219.539z"/>
	<path fill="#FF0000" d="M-252.499,218.924h-2.31v-0.6h3.015v7.935h-0.705V218.924z M-251.374,216.029c0,0.435-0.36,0.78-0.795,0.78
		c-0.435,0-0.78-0.346-0.78-0.78c0-0.436,0.345-0.78,0.78-0.78C-251.734,215.249-251.374,215.594-251.374,216.029z"/>
	<path fill="#FF0000" d="M-245.313,226.259h-0.705v-3.975c0-1.351-0.045-2.7-0.315-4.05h0.66l0.285,2.279h0.03
		c0.3-1.185,1.56-2.354,2.82-2.354c1.44,0,1.845,1.245,1.845,2.445v5.654h-0.705v-5.325c0-0.915,0-2.175-1.23-2.175
		c-1.14,0-2.685,1.141-2.685,4.23V226.259z"/>
	<path fill="#FF0000" d="M-231.514,218.324c-1.575,1.89-2.025,2.52-3.165,3.614l3.84,4.32h-0.945l-3.315-3.915l-0.75,0.735v3.18
		h-0.705v-11.13h0.705v7.11c1.23-1.17,2.445-2.476,3.42-3.915H-231.514z"/>
	<path fill="#FF0000" d="M-227.838,217.994c0.465-0.135,0.975-0.42,1.17-0.885c-0.105,0.015-0.195,0.045-0.285,0.045
		c-0.555,0-0.915-0.375-0.915-0.93c0-0.57,0.45-0.976,0.99-0.976c0.66,0,1.05,0.615,1.05,1.23c0,1.08-1.065,1.875-2.01,2.145
		V217.994z M-224.494,217.994c0.465-0.135,0.975-0.42,1.17-0.885c-0.105,0.015-0.195,0.045-0.285,0.045
		c-0.555,0-0.915-0.375-0.915-0.93c0-0.57,0.45-0.976,0.99-0.976c0.66,0,1.05,0.615,1.05,1.23c0,1.08-1.065,1.875-2.01,2.145
		V217.994z"/>
	<path fill="#FF0000" d="M-204.874,215.459h0.78v10.8h-0.705v-9.375h-0.03l-2.505,6l-2.505-6l-0.03,0.03v9.345h-0.705v-10.8h0.78
		l2.46,5.94L-204.874,215.459z"/>
	<path fill="#FF0000" d="M-198.499,218.924h-2.31v-0.6h3.015v7.935h-0.705V218.924z M-197.374,216.029c0,0.435-0.36,0.78-0.795,0.78
		c-0.435,0-0.78-0.346-0.78-0.78c0-0.436,0.345-0.78,0.78-0.78C-197.734,215.249-197.374,215.594-197.374,216.029z"/>
	<path fill="#FF0000" d="M-189.604,215.729h-2.34v-0.601h3.044v11.13h-0.705V215.729z"/>
	<path fill="#FF0000" d="M-180.604,215.729h-2.34v-0.601h3.044v11.13h-0.705V215.729z"/>
	<path fill="#FF0000" d="M-168.364,225.704c-0.915,0.404-1.815,0.72-2.835,0.72c-2.325,0-3.18-2.085-3.18-4.095
		s0.885-4.17,3.225-4.17c1.335,0,2.91,0.96,2.91,4.245h-5.43c0.135,2.789,1.29,3.42,2.505,3.42c0.9,0,1.755-0.33,2.505-0.78
		L-168.364,225.704z M-168.949,221.804c0.075-1.364-0.735-3.045-2.295-3.045c-1.545,0-2.475,1.65-2.43,3.045H-168.949z"/>
	<path fill="#FF0000" d="M-163.594,226.259h-0.705v-5.49l-0.285-2.534h0.675l0.27,2.25c0.525-1.096,1.35-2.325,2.715-2.325
		c1.32,0,1.665,1.32,1.665,2.399h-0.705c-0.015-0.734-0.06-1.8-1.02-1.8c-0.81,0-2.61,1.26-2.61,4.275V226.259z"/>
</g>
<g>
	<path fill="#FF0000" d="M-396.676,0l-1.12,5.199l-2.76,5.159h-2.16l-0.6-5.159l1.12-5.199H-396.676z M-387.238,0l-1.12,5.199
		l-2.76,5.159h-2.16l-0.6-5.159l1.12-5.199H-387.238z"/>
</g>
</svg>
