<?xml version="1.0" encoding="utf-8"?>
<!-- Generator: Adobe Illustrator 17.0.0, SVG Export Plug-In . SVG Version: 6.00 Build 0)  -->
<!DOCTYPE svg PUBLIC "-//W3C//DTD SVG 1.1//EN" "http://www.w3.org/Graphics/SVG/1.1/DTD/svg11.dtd">
<svg version="1.1" id="Layer_1" xmlns="http://www.w3.org/2000/svg" xmlns:xlink="http://www.w3.org/1999/xlink" x="0px" y="0px"
	 width="679.497px" height="252.329px" viewBox="0 0 679.497 252.329" enable-background="new 0 0 679.497 252.329"
	 xml:space="preserve">
<g>
	<path d="M13.109,19.95h0.06l5.37-19.289h1.65L13.89,22.47H12l-0.87-10.859L5.73,22.47H3.84L6.78,0.661h1.65L5.58,19.95h0.06
		l6.27-12L13.109,19.95z"/>
	<path d="M33.179,21.15c-2.01,0.81-3.93,1.44-5.97,1.44c-4.65,0-5.49-4.17-4.62-8.19c0.84-4.02,3.54-8.339,8.22-8.339
		c2.67,0,5.4,1.92,4.02,8.49H23.969c-0.93,5.58,1.11,6.839,3.54,6.839c1.8,0,3.66-0.66,5.34-1.56L33.179,21.15z M33.659,13.35
		c0.72-2.73-0.18-6.09-3.3-6.09c-3.09,0-5.64,3.3-6.149,6.09H33.659z"/>
	<path d="M58.648,11.19c0.45-2.1,0.57-3.78,0.54-5.13h1.44l-0.06,2.07c1.17-1.26,2.61-2.07,4.17-2.07c1.29,0,1.83,0.78,2.04,1.92
		c1.02-1.02,2.31-1.92,3.69-1.92c2.04,0,2.82,1.35,2.4,3.33l-2.73,12.87h-1.41l2.73-12.81c0.33-1.62-0.33-2.22-1.44-2.22
		c-1.26,0-2.52,0.99-3.33,2.04l-2.76,12.989h-1.41l2.58-12.18c0.24-1.2,0.51-2.82-1.08-2.82c-1.35,0-2.82,1.11-3.6,2.31l-2.7,12.689
		h-1.41L58.648,11.19z"/>
	<path d="M84.627,22.59c-0.12-0.87-0.15-1.8-0.03-2.7c-1.44,1.59-2.85,2.7-4.92,2.7c-2.91,0-3.93-2.37-3.36-5.04
		c0.66-3.03,2.91-5.64,5.97-5.64c1.29,0,2.67,0.51,3.66,1.05c0.93-4.02,0.57-5.7-2.04-5.7c-1.38,0-2.64,0.48-4.02,1.05l-0.06-1.29
		c1.5-0.54,2.94-0.96,4.44-0.96c2.91,0,4.2,2.04,3.36,5.58c-0.51,2.16-1.02,4.32-1.56,6.48c-0.36,1.53-0.27,2.97-0.12,4.29
		L84.627,22.59z M85.618,14.07c-0.87-0.51-1.98-0.96-3.24-0.96c-2.64,0-4.169,2.22-4.649,4.56c-0.39,1.77,0.18,3.72,2.189,3.72
		c1.98,0,3.51-1.59,4.83-3.209L85.618,14.07z"/>
	<path d="M107.997,6.391c-3.479,3.36-4.919,4.859-7.859,7.229l5.85,8.64h-1.89l-4.98-7.83l-1.8,1.47l-1.35,6.36h-1.41L99.297,0h1.41
		l-3.03,14.22c2.97-2.34,5.94-4.95,8.49-7.83H107.997z"/>
	<path d="M123.176,21.15c-2.01,0.81-3.93,1.44-5.97,1.44c-4.649,0-5.49-4.17-4.62-8.19c0.84-4.02,3.54-8.339,8.22-8.339
		c2.67,0,5.4,1.92,4.02,8.49h-10.859c-0.93,5.58,1.11,6.839,3.54,6.839c1.8,0,3.66-0.66,5.34-1.56L123.176,21.15z M123.656,13.35
		c0.72-2.73-0.18-6.09-3.3-6.09c-3.09,0-5.64,3.3-6.149,6.09H123.656z"/>
	<path d="M148.826,14.31c1.32-6.18,4.95-8.25,7.83-8.25c2.64,0,5.7,1.77,4.32,8.25c-1.35,6.45-5.16,8.28-7.83,8.28
		C150.476,22.59,147.446,20.79,148.826,14.31z M159.565,14.31c0.66-3.09,0.72-7.05-3.18-7.05c-3.87,0-5.49,3.96-6.15,7.05
		c-0.66,3.12-0.72,7.08,3.15,7.08C157.286,21.39,158.905,17.4,159.565,14.31z"/>
	<path d="M178.345,6.391h1.41l-1.65,7.83c-0.57,2.7-1.05,5.399-1.08,8.04h-1.32l0.36-4.5h-0.06c-1.11,2.37-4.14,4.83-6.629,4.83
		c-2.88,0-3.15-2.61-2.64-5.01l2.37-11.189h1.41l-2.22,10.529c-0.63,3-0.21,4.47,1.5,4.47c2.34,0,5.939-2.58,7.2-8.58L178.345,6.391
		z"/>
	<path d="M186.475,22.26h-1.41l2.34-10.979l0.51-5.07h1.35l-0.42,4.44l0.06,0.06c1.44-2.19,3.63-4.65,6.36-4.65
		c2.64,0,2.76,2.64,2.31,4.8h-1.41c0.27-1.47,0.63-3.6-1.29-3.6c-1.62,0-5.73,2.52-7.02,8.55L186.475,22.26z"/>
	<path d="M220.854,6.391h1.56l-0.72,13.709h0.06l4.86-9.63h1.53l0.72,9.63h0.06l5.1-13.709h1.53l-6.209,16.079h-1.53l-0.84-10.26
		l-5.16,10.26h-1.53L220.854,6.391z"/>
	<path d="M246.623,22.59c-0.12-0.87-0.15-1.8-0.03-2.7c-1.44,1.59-2.85,2.7-4.92,2.7c-2.91,0-3.93-2.37-3.36-5.04
		c0.66-3.03,2.91-5.64,5.97-5.64c1.29,0,2.67,0.51,3.66,1.05c0.93-4.02,0.57-5.7-2.04-5.7c-1.38,0-2.64,0.48-4.02,1.05l-0.06-1.29
		c1.5-0.54,2.94-0.96,4.44-0.96c2.91,0,4.2,2.04,3.36,5.58c-0.51,2.16-1.02,4.32-1.56,6.48c-0.36,1.53-0.27,2.97-0.12,4.29
		L246.623,22.59z M247.613,14.07c-0.87-0.51-1.98-0.96-3.24-0.96c-2.64,0-4.169,2.22-4.649,4.56c-0.39,1.77,0.18,3.72,2.19,3.72
		c1.979,0,3.51-1.59,4.83-3.209L247.613,14.07z"/>
	<path d="M270.712,6.391l-9.12,15.089c-1.32,2.16-3.45,5.85-6.24,5.85c-1.8,0-2.82-1.41-3-3.03l1.32-0.63
		c0.15,1.08,0.63,2.459,1.95,2.459c1.53,0,2.7-1.77,3.48-2.97l1.77-2.73l-2.189-14.039h1.56l1.71,12.179l7.14-12.179H270.712z"/>
	<path d="M304.642,7.59h-5.82l-2.31,10.83c-0.33,1.53-0.06,2.97,1.89,2.97c1.77,0,3.3-1.32,4.29-2.82l1.29,0.33
		c-1.44,2.04-3.51,3.69-5.88,3.69c-2.04,0-3.689-0.99-2.82-5.01l2.13-9.99h-3.57l0.24-1.2h3.57l1.11-5.1h1.41l-1.11,5.1h5.82
		L304.642,7.59z"/>
	<path d="M310.821,14.31c1.32-6.18,4.95-8.25,7.83-8.25c2.64,0,5.7,1.77,4.32,8.25c-1.35,6.45-5.16,8.28-7.83,8.28
		S309.441,20.79,310.821,14.31z M321.561,14.31c0.66-3.09,0.72-7.05-3.18-7.05c-3.87,0-5.49,3.96-6.15,7.05
		c-0.66,3.12-0.72,7.08,3.15,7.08C319.281,21.39,320.901,17.4,321.561,14.31z"/>
	<path d="M358.64,7.59h-5.82l-2.31,10.83c-0.33,1.53-0.06,2.97,1.89,2.97c1.77,0,3.3-1.32,4.29-2.82l1.29,0.33
		c-1.44,2.04-3.51,3.69-5.88,3.69c-2.04,0-3.689-0.99-2.82-5.01l2.13-9.99h-3.57l0.24-1.2h3.57l1.11-5.1h1.41l-1.11,5.1h5.82
		L358.64,7.59z"/>
	<path d="M368.63,0h1.41l-2.1,9.84H368c1.38-1.98,3.69-3.78,6.09-3.78c1.47,0,3.54,1.17,2.79,4.65l-2.46,11.549h-1.41l2.13-9.959
		c0.42-2.01,0.78-5.04-1.56-5.04c-2.67,0-5.79,3.33-6.57,7.02l-1.71,7.979h-1.41L368.63,0z"/>
	<path d="M393.169,21.15c-2.01,0.81-3.93,1.44-5.97,1.44c-4.65,0-5.49-4.17-4.62-8.19c0.84-4.02,3.54-8.339,8.22-8.339
		c2.67,0,5.4,1.92,4.02,8.49h-10.859c-0.93,5.58,1.11,6.839,3.54,6.839c1.8,0,3.66-0.66,5.34-1.56L393.169,21.15z M393.649,13.35
		c0.72-2.73-0.18-6.09-3.3-6.09c-3.09,0-5.64,3.3-6.149,6.09H393.649z"/>
	<path d="M422.628,0h1.41l-2.1,9.84h0.06c1.38-1.98,3.69-3.78,6.09-3.78c1.47,0,3.54,1.17,2.79,4.65l-2.46,11.549h-1.41l2.13-9.959
		c0.42-2.01,0.78-5.04-1.56-5.04c-2.67,0-5.79,3.33-6.57,7.02l-1.71,7.979h-1.41L422.628,0z"/>
	<path d="M436.818,14.31c1.32-6.18,4.95-8.25,7.83-8.25c2.64,0,5.7,1.77,4.32,8.25c-1.35,6.45-5.16,8.28-7.83,8.28
		C438.468,22.59,435.438,20.79,436.818,14.31z M447.558,14.31c0.66-3.09,0.72-7.05-3.18-7.05c-3.87,0-5.49,3.96-6.15,7.05
		c-0.66,3.12-0.72,7.08,3.15,7.08C445.278,21.39,446.897,17.4,447.558,14.31z"/>
	<path d="M466.637,7.59h-5.82l-2.31,10.83c-0.33,1.53-0.06,2.97,1.89,2.97c1.77,0,3.3-1.32,4.29-2.82l1.29,0.33
		c-1.44,2.04-3.51,3.69-5.88,3.69c-2.04,0-3.689-0.99-2.82-5.01l2.13-9.99h-3.57l0.24-1.2h3.57l1.11-5.1h1.41l-1.11,5.1h5.82
		L466.637,7.59z"/>
	<path d="M483.167,21.15c-2.01,0.81-3.93,1.44-5.97,1.44c-4.649,0-5.49-4.17-4.62-8.19c0.84-4.02,3.54-8.339,8.22-8.339
		c2.67,0,5.4,1.92,4.02,8.49h-10.859c-0.93,5.58,1.11,6.839,3.54,6.839c1.8,0,3.66-0.66,5.34-1.56L483.167,21.15z M483.646,13.35
		c0.72-2.73-0.18-6.09-3.3-6.09c-3.09,0-5.64,3.3-6.149,6.09H483.646z"/>
	<path d="M498.917,1.201h-4.68l0.27-1.2h6.09l-4.74,22.259h-1.41L498.917,1.201z"/>
	<path d="M514.846,5.73c0.99-0.27,2.13-0.84,2.73-1.77c-0.24,0.03-0.42,0.09-0.6,0.09c-1.11,0-1.68-0.75-1.44-1.86
		c0.24-1.14,1.32-1.95,2.4-1.95c1.32,0,1.86,1.23,1.59,2.46c-0.45,2.16-2.94,3.75-4.95,4.29L514.846,5.73z"/>
	<path d="M537.705,8.91c-1.08-0.9-2.34-1.65-3.93-1.65s-3.39,1.2-3.75,2.88c-0.39,1.86,1.5,2.73,2.82,3.27
		c2.22,0.93,4.56,1.89,3.9,4.98c-0.54,2.64-3.21,4.2-5.64,4.2c-1.98,0-4.29-1.23-5.43-2.55l1.02-1.14
		c1.02,1.29,2.85,2.49,4.709,2.49c1.77,0,3.51-0.99,3.93-2.91c0.51-2.37-1.2-3.06-2.91-3.78c-2.01-0.84-4.38-1.86-3.78-4.68
		c0.48-2.25,3.12-3.959,5.49-3.959c1.83,0,3.18,0.63,4.41,1.68L537.705,8.91z"/>
	<path d="M16.349,51.391h1.41l-1.65,7.83c-0.57,2.7-1.05,5.399-1.08,8.04h-1.32l0.36-4.5h-0.06c-1.11,2.37-4.14,4.83-6.629,4.83
		c-2.88,0-3.15-2.61-2.64-5.01l2.37-11.189h1.41L6.3,61.92c-0.63,3-0.21,4.47,1.5,4.47c2.34,0,5.939-2.58,7.2-8.58L16.349,51.391z"
		/>
	<path d="M23.04,67.26h-1.41l1.68-7.95c0.57-2.7,1.08-5.4,1.11-8.1h1.32l-0.42,4.56h0.06c1.11-2.37,4.14-4.709,6.66-4.709
		c2.88,0,3.15,2.49,2.64,4.89l-2.4,11.31h-1.41l2.25-10.649c0.39-1.83,0.93-4.35-1.53-4.35c-2.28,0-5.88,2.28-7.169,8.46
		L23.04,67.26z"/>
	<path d="M40.649,56.19c0.45-2.1,0.57-3.78,0.54-5.13h1.44l-0.06,2.07c1.17-1.26,2.61-2.07,4.17-2.07c1.29,0,1.83,0.78,2.04,1.92
		c1.02-1.02,2.31-1.92,3.69-1.92c2.04,0,2.82,1.35,2.4,3.33l-2.73,12.87h-1.41l2.73-12.81c0.33-1.62-0.33-2.22-1.44-2.22
		c-1.26,0-2.52,0.99-3.33,2.04l-2.76,12.989h-1.41l2.58-12.18c0.24-1.2,0.51-2.82-1.08-2.82c-1.35,0-2.82,1.11-3.6,2.31l-2.7,12.689
		h-1.41L40.649,56.19z"/>
	<path d="M66.628,67.59c-0.12-0.87-0.15-1.8-0.03-2.7c-1.44,1.59-2.85,2.7-4.92,2.7c-2.91,0-3.93-2.37-3.36-5.04
		c0.66-3.03,2.91-5.64,5.97-5.64c1.29,0,2.67,0.51,3.66,1.05c0.93-4.02,0.57-5.7-2.04-5.7c-1.38,0-2.64,0.48-4.02,1.05l-0.06-1.29
		c1.5-0.54,2.94-0.96,4.44-0.96c2.91,0,4.2,2.04,3.36,5.58c-0.51,2.16-1.02,4.32-1.56,6.48c-0.36,1.53-0.27,2.97-0.12,4.29
		L66.628,67.59z M67.618,59.07c-0.87-0.51-1.98-0.96-3.24-0.96c-2.64,0-4.169,2.22-4.649,4.56c-0.39,1.77,0.18,3.72,2.19,3.72
		c1.979,0,3.51-1.59,4.83-3.209L67.618,59.07z"/>
	<path d="M77.038,67.26h-1.41l1.68-7.95c0.57-2.7,1.08-5.4,1.11-8.1h1.32l-0.42,4.56h0.06c1.11-2.37,4.14-4.709,6.66-4.709
		c2.88,0,3.15,2.49,2.64,4.89l-2.4,11.31h-1.41l2.25-10.649c0.39-1.83,0.93-4.35-1.53-4.35c-2.28,0-5.88,2.28-7.169,8.46
		L77.038,67.26z"/>
	<path d="M95.038,67.26h-1.41l1.68-7.95c0.57-2.7,1.08-5.4,1.11-8.1h1.32l-0.42,4.56h0.06c1.11-2.37,4.14-4.709,6.66-4.709
		c2.88,0,3.15,2.49,2.64,4.89l-2.4,11.31h-1.41l2.25-10.649c0.39-1.83,0.93-4.35-1.53-4.35c-2.28,0-5.88,2.28-7.169,8.46
		L95.038,67.26z"/>
	<path d="M123.176,66.15c-2.01,0.81-3.93,1.44-5.97,1.44c-4.649,0-5.49-4.17-4.62-8.19c0.84-4.02,3.54-8.339,8.22-8.339
		c2.67,0,5.4,1.92,4.02,8.49h-10.859c-0.93,5.58,1.11,6.839,3.54,6.839c1.8,0,3.66-0.66,5.34-1.56L123.176,66.15z M123.656,58.35
		c0.72-2.73-0.18-6.09-3.3-6.09c-3.09,0-5.64,3.3-6.149,6.09H123.656z"/>
	<path d="M141.356,61.68c-0.42,1.95-0.69,3.87-0.51,5.729l-1.35,0.18l-0.03-2.61c-1.2,1.65-2.91,2.61-4.77,2.61
		c-2.67,0-5.7-2.19-4.38-8.37c1.35-6.36,5.79-8.16,7.979-8.16c1.41,0,2.7,0.48,3.6,1.35l1.59-7.41h1.41L141.356,61.68z
		 M141.596,53.82c-0.81-0.87-1.89-1.56-3.21-1.56c-1.8,0-5.43,1.23-6.69,7.05c-1.17,5.49,1.47,7.08,3.27,7.08
		c2.01,0,3.63-1.47,4.65-3.18L141.596,53.82z"/>
	<path d="M177.685,64.92c-1.83,1.59-3.57,2.67-5.82,2.67c-2.79,0-6.27-1.74-4.92-8.1c1.38-6.42,5.34-8.43,8.31-8.43
		c2.4,0,3.9,1.26,4.77,3.21l-1.44,0.84c-0.48-1.65-1.65-2.85-3.6-2.85c-1.979,0-5.339,1.23-6.569,6.99
		c-1.17,5.46,1.35,7.14,3.66,7.14c1.74,0,3.51-1.2,4.86-2.49L177.685,64.92z"/>
	<path d="M184.825,59.31c1.32-6.18,4.95-8.25,7.83-8.25c2.64,0,5.7,1.77,4.32,8.25c-1.35,6.45-5.16,8.28-7.83,8.28
		C186.475,67.59,183.445,65.79,184.825,59.31z M195.564,59.31c0.66-3.09,0.72-7.05-3.18-7.05c-3.87,0-5.49,3.96-6.15,7.05
		c-0.66,3.12-0.72,7.08,3.15,7.08C193.285,66.39,194.904,62.4,195.564,59.31z"/>
	<path d="M202.645,56.19c0.45-2.1,0.57-3.78,0.54-5.13h1.44l-0.06,2.07c1.17-1.26,2.61-2.07,4.17-2.07c1.29,0,1.83,0.78,2.04,1.92
		c1.02-1.02,2.31-1.92,3.69-1.92c2.04,0,2.82,1.35,2.4,3.33l-2.73,12.87h-1.41l2.73-12.81c0.33-1.62-0.33-2.22-1.44-2.22
		c-1.26,0-2.52,0.99-3.33,2.04l-2.76,12.989h-1.41l2.58-12.18c0.24-1.2,0.51-2.82-1.08-2.82c-1.35,0-2.82,1.11-3.6,2.31l-2.7,12.689
		h-1.41L202.645,56.19z"/>
	<path d="M221.964,56.94c0.42-1.92,0.66-3.84,0.51-5.7l1.35-0.18v2.61h0.06c1.14-1.65,2.88-2.61,4.74-2.61
		c2.64,0,5.7,2.13,4.35,8.37c-1.35,6.36-5.79,8.16-7.95,8.16c-1.41,0-2.73-0.48-3.63-1.35l-1.56,7.38h-1.41L221.964,56.94z
		 M221.694,64.83c0.81,0.87,1.86,1.56,3.21,1.56c1.8,0,5.46-1.26,6.689-7.049c1.17-5.52-1.47-7.08-3.27-7.08
		c-2.1,0-3.48,1.47-4.62,3.18L221.694,64.83z"/>
	<path d="M250.343,51.391h1.41l-1.65,7.83c-0.57,2.7-1.05,5.399-1.08,8.04h-1.32l0.36-4.5h-0.06c-1.11,2.37-4.14,4.83-6.629,4.83
		c-2.88,0-3.15-2.61-2.64-5.01l2.37-11.189h1.41l-2.22,10.529c-0.63,3-0.21,4.47,1.5,4.47c2.34,0,5.939-2.58,7.2-8.58
		L250.343,51.391z"/>
	<path d="M268.643,52.59h-5.82l-2.31,10.83c-0.33,1.53-0.06,2.97,1.89,2.97c1.77,0,3.3-1.32,4.29-2.82l1.29,0.33
		c-1.44,2.04-3.51,3.69-5.88,3.69c-2.04,0-3.689-0.99-2.82-5.01l2.13-9.99h-3.57l0.24-1.2h3.57l1.11-5.1h1.41l-1.11,5.1h5.82
		L268.643,52.59z"/>
	<path d="M285.172,66.15c-2.01,0.81-3.93,1.44-5.97,1.44c-4.65,0-5.49-4.17-4.62-8.19c0.84-4.02,3.54-8.339,8.22-8.339
		c2.67,0,5.4,1.92,4.02,8.49h-10.859c-0.93,5.58,1.11,6.839,3.54,6.839c1.8,0,3.66-0.66,5.34-1.56L285.172,66.15z M285.652,58.35
		c0.72-2.73-0.18-6.09-3.3-6.09c-3.09,0-5.64,3.3-6.149,6.09H285.652z"/>
	<path d="M294.472,67.26h-1.41l2.34-10.979l0.51-5.07h1.35l-0.42,4.44l0.06,0.06c1.44-2.19,3.63-4.65,6.36-4.65
		c2.64,0,2.76,2.64,2.31,4.8h-1.41c0.27-1.47,0.63-3.6-1.29-3.6c-1.62,0-5.73,2.52-7.02,8.55L294.472,67.26z"/>
	<path d="M330.471,67.26h-1.41l2.34-10.979l0.51-5.07h1.35l-0.42,4.44l0.06,0.06c1.44-2.19,3.63-4.65,6.36-4.65
		c2.64,0,2.76,2.64,2.31,4.8h-1.41c0.27-1.47,0.63-3.6-1.29-3.6c-1.62,0-5.73,2.52-7.02,8.55L330.471,67.26z"/>
	<path d="M346.82,59.31c1.32-6.18,4.95-8.25,7.83-8.25c2.64,0,5.7,1.77,4.32,8.25c-1.35,6.45-5.16,8.28-7.83,8.28
		S345.44,65.79,346.82,59.31z M357.56,59.31c0.66-3.09,0.72-7.05-3.18-7.05c-3.87,0-5.49,3.96-6.15,7.05
		c-0.66,3.12-0.72,7.08,3.15,7.08C355.28,66.39,356.9,62.4,357.56,59.31z"/>
	<path d="M364.82,59.31c1.32-6.18,4.95-8.25,7.83-8.25c2.64,0,5.7,1.77,4.32,8.25c-1.35,6.45-5.16,8.28-7.83,8.28
		C366.47,67.59,363.44,65.79,364.82,59.31z M375.56,59.31c0.66-3.09,0.72-7.05-3.18-7.05c-3.87,0-5.49,3.96-6.15,7.05
		c-0.66,3.12-0.72,7.08,3.15,7.08C373.28,66.39,374.899,62.4,375.56,59.31z"/>
	<path d="M382.64,56.19c0.45-2.1,0.57-3.78,0.54-5.13h1.44l-0.06,2.07c1.17-1.26,2.61-2.07,4.17-2.07c1.29,0,1.83,0.78,2.04,1.92
		c1.02-1.02,2.31-1.92,3.69-1.92c2.04,0,2.82,1.35,2.4,3.33l-2.73,12.87h-1.41l2.73-12.81c0.33-1.62-0.33-2.22-1.44-2.22
		c-1.26,0-2.52,0.99-3.33,2.04l-2.76,12.989h-1.41l2.58-12.18c0.24-1.2,0.51-2.82-1.08-2.82c-1.35,0-2.82,1.11-3.6,2.31l-2.7,12.689
		h-1.41L382.64,56.19z"/>
	<path d="M402.889,69.33c0.99-0.27,2.13-0.84,2.729-1.77c-0.18,0.06-0.36,0.09-0.6,0.09c-1.11,0-1.65-0.75-1.44-1.86
		c0.24-1.14,1.32-1.95,2.4-1.95c1.32,0,1.86,1.23,1.59,2.46c-0.48,2.16-2.94,3.75-4.95,4.29L402.889,69.33z"/>
	<path d="M436.848,51.391h1.56l-0.72,13.709h0.06l4.86-9.63h1.53l0.72,9.63h0.06l5.1-13.709h1.53l-6.209,16.079h-1.53l-0.84-10.26
		l-5.16,10.26h-1.53L436.848,51.391z"/>
	<path d="M458.627,45h1.41l-2.1,9.84h0.06c1.38-1.98,3.69-3.78,6.09-3.78c1.47,0,3.54,1.17,2.79,4.65l-2.46,11.549h-1.41l2.13-9.959
		c0.42-2.01,0.78-5.04-1.56-5.04c-2.67,0-5.79,3.33-6.57,7.02l-1.71,7.979h-1.41L458.627,45z"/>
	<path d="M483.167,66.15c-2.01,0.81-3.93,1.44-5.97,1.44c-4.649,0-5.49-4.17-4.62-8.19c0.84-4.02,3.54-8.339,8.22-8.339
		c2.67,0,5.4,1.92,4.02,8.49h-10.859c-0.93,5.58,1.11,6.839,3.54,6.839c1.8,0,3.66-0.66,5.34-1.56L483.167,66.15z M483.646,58.35
		c0.72-2.73-0.18-6.09-3.3-6.09c-3.09,0-5.64,3.3-6.149,6.09H483.646z"/>
	<path d="M492.466,67.26h-1.41l2.34-10.979l0.51-5.07h1.35l-0.42,4.44l0.06,0.06c1.44-2.19,3.63-4.65,6.36-4.65
		c2.64,0,2.76,2.64,2.31,4.8h-1.41c0.27-1.47,0.63-3.6-1.29-3.6c-1.62,0-5.73,2.52-7.02,8.55L492.466,67.26z"/>
	<path d="M519.166,66.15c-2.01,0.81-3.93,1.44-5.97,1.44c-4.649,0-5.49-4.17-4.62-8.19c0.84-4.02,3.54-8.339,8.22-8.339
		c2.67,0,5.4,1.92,4.02,8.49h-10.859c-0.93,5.58,1.11,6.839,3.54,6.839c1.8,0,3.66-0.66,5.34-1.56L519.166,66.15z M519.646,58.35
		c0.72-2.73-0.18-6.09-3.3-6.09c-3.09,0-5.64,3.3-6.149,6.09H519.646z"/>
	<path d="M551.775,52.59h-4.62l0.24-1.2h6.03l-3.36,15.869h-1.41L551.775,52.59z M555.255,46.801c-0.18,0.87-1.05,1.56-1.92,1.56
		c-0.87,0-1.41-0.69-1.23-1.56c0.18-0.87,1.02-1.56,1.89-1.56C554.865,45.241,555.435,45.931,555.255,46.801z"/>
	<path d="M563.025,67.26h-1.41l1.68-7.95c0.57-2.7,1.08-5.4,1.11-8.1h1.32l-0.42,4.56h0.06c1.11-2.37,4.14-4.709,6.659-4.709
		c2.88,0,3.15,2.49,2.641,4.89l-2.4,11.31h-1.41l2.25-10.649c0.391-1.83,0.931-4.35-1.529-4.35c-2.28,0-5.88,2.28-7.17,8.46
		L563.025,67.26z"/>
	<path d="M15.719,98.91c-1.08-0.9-2.34-1.65-3.93-1.65s-3.39,1.2-3.75,2.88c-0.39,1.86,1.5,2.73,2.82,3.27
		c2.22,0.93,4.56,1.89,3.9,4.98c-0.54,2.64-3.21,4.2-5.64,4.2c-1.98,0-4.29-1.23-5.43-2.55l1.02-1.14
		c1.02,1.29,2.85,2.49,4.709,2.49c1.77,0,3.51-0.99,3.93-2.91c0.51-2.37-1.2-3.06-2.91-3.78c-2.01-0.84-4.38-1.86-3.78-4.68
		c0.48-2.25,3.12-3.959,5.49-3.959c1.83,0,3.18,0.63,4.41,1.68L15.719,98.91z"/>
	<path d="M33.179,111.15c-2.01,0.81-3.93,1.44-5.97,1.44c-4.65,0-5.49-4.17-4.62-8.19c0.84-4.02,3.54-8.339,8.22-8.339
		c2.67,0,5.4,1.92,4.02,8.49H23.969c-0.93,5.58,1.11,6.839,3.54,6.839c1.8,0,3.66-0.66,5.34-1.56L33.179,111.15z M33.659,103.35
		c0.72-2.73-0.18-6.09-3.3-6.09c-3.09,0-5.64,3.3-6.149,6.09H33.659z"/>
	<path d="M51.688,109.92c-1.83,1.59-3.57,2.67-5.82,2.67c-2.79,0-6.27-1.74-4.92-8.1c1.38-6.42,5.34-8.43,8.31-8.43
		c2.4,0,3.9,1.26,4.77,3.21l-1.44,0.84c-0.48-1.65-1.65-2.85-3.6-2.85c-1.979,0-5.339,1.23-6.569,6.99
		c-1.17,5.46,1.35,7.14,3.66,7.14c1.74,0,3.51-1.2,4.86-2.49L51.688,109.92z"/>
	<path d="M58.828,104.31c1.32-6.18,4.95-8.25,7.83-8.25c2.64,0,5.7,1.77,4.32,8.25c-1.35,6.45-5.16,8.28-7.83,8.28
		S57.448,110.79,58.828,104.31z M69.568,104.31c0.66-3.09,0.72-7.05-3.18-7.05c-3.87,0-5.49,3.96-6.15,7.05
		c-0.66,3.12-0.72,7.08,3.15,7.08C67.288,111.39,68.908,107.4,69.568,104.31z"/>
	<path d="M77.038,112.26h-1.41l1.68-7.95c0.57-2.7,1.08-5.4,1.11-8.1h1.32l-0.42,4.56h0.06c1.11-2.37,4.14-4.709,6.66-4.709
		c2.88,0,3.15,2.49,2.64,4.89l-2.4,11.31h-1.41l2.25-10.649c0.39-1.83,0.93-4.35-1.53-4.35c-2.28,0-5.88,2.28-7.169,8.46
		L77.038,112.26z"/>
	<path d="M105.357,106.68c-0.42,1.95-0.69,3.87-0.51,5.729l-1.35,0.18l-0.03-2.61c-1.2,1.65-2.91,2.61-4.77,2.61
		c-2.67,0-5.7-2.19-4.38-8.37c1.35-6.36,5.79-8.16,7.979-8.16c1.41,0,2.7,0.48,3.6,1.35l1.59-7.41h1.41L105.357,106.68z
		 M105.597,98.82c-0.81-0.87-1.89-1.56-3.21-1.56c-1.8,0-5.43,1.23-6.69,7.05c-1.17,5.49,1.47,7.08,3.27,7.08
		c2.01,0,3.63-1.47,4.65-3.18L105.597,98.82z"/>
	<path d="M123.716,98.91c-1.08-0.9-2.34-1.65-3.93-1.65s-3.39,1.2-3.75,2.88c-0.39,1.86,1.5,2.73,2.82,3.27
		c2.22,0.93,4.56,1.89,3.9,4.98c-0.54,2.64-3.21,4.2-5.64,4.2c-1.98,0-4.29-1.23-5.43-2.55l1.02-1.14
		c1.02,1.29,2.85,2.49,4.709,2.49c1.77,0,3.51-0.99,3.93-2.91c0.51-2.37-1.2-3.06-2.91-3.78c-2.01-0.84-4.38-1.86-3.78-4.68
		c0.48-2.25,3.12-3.959,5.49-3.959c1.83,0,3.18,0.63,4.41,1.68L123.716,98.91z"/>
	<path d="M132.896,114.33c0.99-0.27,2.13-0.84,2.729-1.77c-0.18,0.06-0.36,0.09-0.6,0.09c-1.11,0-1.65-0.75-1.44-1.86
		c0.24-1.14,1.32-1.95,2.4-1.95c1.32,0,1.86,1.23,1.59,2.46c-0.48,2.16-2.94,3.75-4.95,4.29L132.896,114.33z"/>
	<path d="M179.695,93.721c-1.08-1.17-2.37-2.28-4.23-2.28c-2.19,0-4.32,1.5-4.8,3.78c-0.36,1.68,0.12,2.82,2.43,4.41l1.56,1.08
		c3,2.07,4.29,3.3,3.72,5.97c-0.78,3.72-3.72,6-7.41,6c-2.55,0-4.29-1.2-5.4-3.18l1.26-0.87c0.78,1.65,2.34,2.85,4.41,2.85
		c2.52,0,5.01-1.86,5.55-4.44c0.42-2.04,0.36-2.82-3.12-5.19l-1.77-1.2c-1.83-1.23-3.33-2.67-2.76-5.28
		c0.69-3.24,3.54-5.13,6.66-5.13c2.04,0,3.78,1.08,4.98,2.43L179.695,93.721z"/>
	<path d="M196.645,97.59h-5.82l-2.31,10.83c-0.33,1.53-0.06,2.97,1.89,2.97c1.77,0,3.3-1.32,4.29-2.82l1.29,0.33
		c-1.44,2.04-3.51,3.69-5.88,3.69c-2.04,0-3.689-0.99-2.82-5.01l2.13-9.99h-3.57l0.24-1.2h3.57l1.11-5.1h1.41l-1.11,5.1h5.82
		L196.645,97.59z"/>
	<path d="M204.474,112.26h-1.41l2.34-10.979l0.51-5.07h1.35l-0.42,4.44l0.06,0.06c1.44-2.19,3.63-4.65,6.36-4.65
		c2.64,0,2.76,2.64,2.31,4.8h-1.41c0.27-1.47,0.63-3.6-1.29-3.6c-1.62,0-5.73,2.52-7.02,8.55L204.474,112.26z"/>
	<path d="M231.173,111.15c-2.01,0.81-3.93,1.44-5.97,1.44c-4.649,0-5.49-4.17-4.62-8.19c0.84-4.02,3.54-8.339,8.22-8.339
		c2.67,0,5.4,1.92,4.02,8.49h-10.859c-0.93,5.58,1.11,6.839,3.54,6.839c1.8,0,3.66-0.66,5.34-1.56L231.173,111.15z M231.653,103.35
		c0.72-2.73-0.18-6.09-3.3-6.09c-3.09,0-5.64,3.3-6.149,6.09H231.653z"/>
	<path d="M249.173,111.15c-2.01,0.81-3.93,1.44-5.97,1.44c-4.65,0-5.49-4.17-4.62-8.19c0.84-4.02,3.54-8.339,8.22-8.339
		c2.67,0,5.4,1.92,4.02,8.49h-10.859c-0.93,5.58,1.11,6.839,3.54,6.839c1.8,0,3.66-0.66,5.34-1.56L249.173,111.15z M249.653,103.35
		c0.72-2.73-0.18-6.09-3.3-6.09c-3.09,0-5.64,3.3-6.149,6.09H249.653z"/>
	<path d="M268.643,97.59h-5.82l-2.31,10.83c-0.33,1.53-0.06,2.97,1.89,2.97c1.77,0,3.3-1.32,4.29-2.82l1.29,0.33
		c-1.44,2.04-3.51,3.69-5.88,3.69c-2.04,0-3.689-0.99-2.82-5.01l2.13-9.99h-3.57l0.24-1.2h3.57l1.11-5.1h1.41l-1.11,5.1h5.82
		L268.643,97.59z"/>
	<path d="M303.682,109.92c-1.83,1.59-3.57,2.67-5.82,2.67c-2.79,0-6.27-1.74-4.92-8.1c1.38-6.42,5.34-8.43,8.31-8.43
		c2.4,0,3.9,1.26,4.77,3.21l-1.44,0.84c-0.48-1.65-1.65-2.85-3.6-2.85c-1.979,0-5.339,1.23-6.569,6.99
		c-1.17,5.46,1.35,7.14,3.66,7.14c1.74,0,3.51-1.2,4.86-2.49L303.682,109.92z"/>
	<path d="M310.821,104.31c1.32-6.18,4.95-8.25,7.83-8.25c2.64,0,5.7,1.77,4.32,8.25c-1.35,6.45-5.16,8.28-7.83,8.28
		S309.441,110.79,310.821,104.31z M321.561,104.31c0.66-3.09,0.72-7.05-3.18-7.05c-3.87,0-5.49,3.96-6.15,7.05
		c-0.66,3.12-0.72,7.08,3.15,7.08C319.281,111.39,320.901,107.4,321.561,104.31z"/>
	<path d="M340.34,96.391h1.41l-1.65,7.83c-0.57,2.7-1.05,5.399-1.08,8.04h-1.32l0.36-4.5H338c-1.11,2.37-4.14,4.83-6.629,4.83
		c-2.88,0-3.15-2.61-2.64-5.01l2.37-11.189h1.41l-2.22,10.529c-0.63,3-0.21,4.47,1.5,4.47c2.34,0,5.939-2.58,7.2-8.58L340.34,96.391
		z"/>
	<path d="M354.92,91.201h-4.68l0.27-1.2h6.09l-4.74,22.259h-1.41L354.92,91.201z"/>
	<path d="M375.35,106.68c-0.42,1.95-0.69,3.87-0.51,5.729l-1.35,0.18l-0.03-2.61c-1.2,1.65-2.91,2.61-4.77,2.61
		c-2.67,0-5.7-2.19-4.38-8.37c1.35-6.36,5.79-8.16,7.979-8.16c1.41,0,2.7,0.48,3.6,1.35l1.59-7.41h1.41L375.35,106.68z
		 M375.589,98.82c-0.81-0.87-1.89-1.56-3.209-1.56c-1.8,0-5.43,1.23-6.69,7.05c-1.17,5.49,1.47,7.08,3.27,7.08
		c2.01,0,3.63-1.47,4.65-3.18L375.589,98.82z"/>
	<path d="M407.779,97.59h-4.62l0.24-1.2h6.03l-3.36,15.869h-1.41L407.779,97.59z M411.259,91.801c-0.18,0.87-1.05,1.56-1.92,1.56
		c-0.87,0-1.41-0.69-1.23-1.56c0.18-0.87,1.02-1.56,1.89-1.56C410.869,90.241,411.438,90.931,411.259,91.801z"/>
	<path d="M419.029,112.26h-1.41l1.68-7.95c0.57-2.7,1.08-5.4,1.11-8.1h1.32l-0.42,4.56h0.06c1.11-2.37,4.14-4.709,6.66-4.709
		c2.88,0,3.15,2.49,2.64,4.89l-2.4,11.31h-1.41l2.25-10.649c0.39-1.83,0.93-4.35-1.53-4.35c-2.28,0-5.88,2.28-7.169,8.46
		L419.029,112.26z"/>
	<path d="M447.708,98.91c-1.08-0.9-2.34-1.65-3.93-1.65s-3.39,1.2-3.75,2.88c-0.39,1.86,1.5,2.73,2.82,3.27
		c2.22,0.93,4.56,1.89,3.9,4.98c-0.54,2.64-3.21,4.2-5.64,4.2c-1.98,0-4.29-1.23-5.43-2.55l1.02-1.14
		c1.02,1.29,2.85,2.49,4.709,2.49c1.77,0,3.51-0.99,3.93-2.91c0.51-2.37-1.2-3.06-2.91-3.78c-2.01-0.84-4.38-1.86-3.78-4.68
		c0.48-2.25,3.12-3.959,5.49-3.959c1.83,0,3.18,0.63,4.41,1.68L447.708,98.91z"/>
	<path d="M466.637,97.59h-5.82l-2.31,10.83c-0.33,1.53-0.06,2.97,1.89,2.97c1.77,0,3.3-1.32,4.29-2.82l1.29,0.33
		c-1.44,2.04-3.51,3.69-5.88,3.69c-2.04,0-3.689-0.99-2.82-5.01l2.13-9.99h-3.57l0.24-1.2h3.57l1.11-5.1h1.41l-1.11,5.1h5.82
		L466.637,97.59z"/>
	<path d="M480.617,112.59c-0.12-0.87-0.15-1.8-0.03-2.7c-1.44,1.59-2.85,2.7-4.92,2.7c-2.91,0-3.93-2.37-3.36-5.04
		c0.66-3.03,2.91-5.64,5.97-5.64c1.29,0,2.67,0.51,3.66,1.05c0.93-4.02,0.57-5.7-2.04-5.7c-1.38,0-2.64,0.48-4.02,1.05l-0.06-1.29
		c1.5-0.54,2.94-0.96,4.44-0.96c2.91,0,4.2,2.04,3.36,5.58c-0.51,2.16-1.02,4.32-1.56,6.48c-0.36,1.53-0.27,2.97-0.12,4.29
		L480.617,112.59z M481.607,104.07c-0.87-0.51-1.98-0.96-3.24-0.96c-2.64,0-4.169,2.22-4.649,4.56c-0.39,1.77,0.18,3.72,2.189,3.72
		c1.98,0,3.51-1.59,4.83-3.209L481.607,104.07z"/>
	<path d="M498.917,91.201h-4.68l0.27-1.2h6.09l-4.74,22.259h-1.41L498.917,91.201z"/>
	<path d="M516.916,91.201h-4.68l0.27-1.2h6.09l-4.74,22.259h-1.41L516.916,91.201z"/>
	<path d="M544.635,101.19c0.45-2.1,0.57-3.78,0.54-5.13h1.44l-0.06,2.07c1.17-1.26,2.61-2.07,4.17-2.07c1.29,0,1.83,0.78,2.04,1.92
		c1.02-1.02,2.31-1.92,3.69-1.92c2.04,0,2.82,1.35,2.4,3.33l-2.73,12.87h-1.41l2.73-12.81c0.33-1.62-0.33-2.22-1.44-2.22
		c-1.26,0-2.52,0.99-3.33,2.04l-2.76,12.989h-1.41l2.58-12.18c0.24-1.2,0.51-2.82-1.08-2.82c-1.35,0-2.82,1.11-3.6,2.31l-2.7,12.689
		h-1.41L544.635,101.19z"/>
	<path d="M570.615,112.59c-0.12-0.87-0.15-1.8-0.03-2.7c-1.44,1.59-2.85,2.7-4.92,2.7c-2.91,0-3.93-2.37-3.36-5.04
		c0.66-3.03,2.91-5.64,5.97-5.64c1.29,0,2.67,0.51,3.66,1.05c0.931-4.02,0.57-5.7-2.04-5.7c-1.379,0-2.64,0.48-4.02,1.05l-0.06-1.29
		c1.5-0.54,2.94-0.96,4.44-0.96c2.91,0,4.2,2.04,3.359,5.58c-0.51,2.16-1.02,4.32-1.56,6.48c-0.36,1.53-0.27,2.97-0.12,4.29
		L570.615,112.59z M571.604,104.07c-0.87-0.51-1.979-0.96-3.24-0.96c-2.64,0-4.169,2.22-4.649,4.56c-0.39,1.77,0.18,3.72,2.19,3.72
		c1.979,0,3.51-1.59,4.829-3.209L571.604,104.07z"/>
	<path d="M588.915,91.201h-4.68l0.27-1.2h6.09l-4.74,22.259h-1.409L588.915,91.201z"/>
	<path d="M598.844,96.391h1.561l-0.72,13.709h0.06l4.859-9.63h1.53l0.72,9.63h0.061l5.1-13.709h1.53l-6.21,16.079h-1.53l-0.84-10.26
		l-5.16,10.26h-1.529L598.844,96.391z"/>
	<path d="M624.615,112.59c-0.12-0.87-0.15-1.8-0.03-2.7c-1.44,1.59-2.85,2.7-4.92,2.7c-2.91,0-3.93-2.37-3.36-5.04
		c0.66-3.03,2.91-5.64,5.971-5.64c1.289,0,2.67,0.51,3.659,1.05c0.931-4.02,0.57-5.7-2.04-5.7c-1.38,0-2.64,0.48-4.02,1.05
		l-0.06-1.29c1.5-0.54,2.939-0.96,4.439-0.96c2.91,0,4.2,2.04,3.359,5.58c-0.51,2.16-1.02,4.32-1.56,6.48
		c-0.36,1.53-0.27,2.97-0.12,4.29L624.615,112.59z M625.604,104.07c-0.87-0.51-1.979-0.96-3.239-0.96c-2.641,0-4.17,2.22-4.65,4.56
		c-0.39,1.77,0.181,3.72,2.19,3.72c1.979,0,3.51-1.59,4.829-3.209L625.604,104.07z"/>
	<path d="M636.464,112.26h-1.41l2.341-10.979l0.51-5.07h1.35l-0.42,4.44l0.06,0.06c1.44-2.19,3.63-4.65,6.36-4.65
		c2.64,0,2.76,2.64,2.31,4.8h-1.41c0.271-1.47,0.631-3.6-1.289-3.6c-1.62,0-5.73,2.52-7.021,8.55L636.464,112.26z"/>
	<path d="M663.165,111.15c-2.01,0.81-3.93,1.44-5.97,1.44c-4.65,0-5.49-4.17-4.62-8.19c0.84-4.02,3.54-8.339,8.22-8.339
		c2.67,0,5.399,1.92,4.02,8.49h-10.859c-0.93,5.58,1.11,6.839,3.54,6.839c1.8,0,3.66-0.66,5.34-1.56L663.165,111.15z
		 M663.644,103.35c0.72-2.73-0.18-6.09-3.3-6.09c-3.09,0-5.64,3.3-6.149,6.09H663.644z"/>
	<path d="M16.649,142.59h-5.82l-2.31,10.83c-0.33,1.53-0.06,2.97,1.89,2.97c1.77,0,3.3-1.32,4.29-2.82l1.29,0.33
		c-1.44,2.04-3.51,3.69-5.88,3.69c-2.04,0-3.689-0.99-2.82-5.01l2.13-9.99H5.85l0.24-1.2h3.57l1.11-5.1h1.41l-1.11,5.1h5.82
		L16.649,142.59z"/>
	<path d="M22.829,149.31c1.32-6.18,4.95-8.25,7.83-8.25c2.64,0,5.7,1.77,4.32,8.25c-1.35,6.45-5.16,8.28-7.83,8.28
		S21.449,155.79,22.829,149.31z M33.569,149.31c0.66-3.09,0.72-7.05-3.18-7.05c-3.87,0-5.49,3.96-6.15,7.05
		c-0.66,3.12-0.72,7.08,3.15,7.08C31.289,156.39,32.909,152.4,33.569,149.31z"/>
	<path d="M69.718,143.91c-1.08-0.9-2.34-1.65-3.93-1.65s-3.39,1.2-3.75,2.88c-0.39,1.86,1.5,2.73,2.82,3.27
		c2.22,0.93,4.56,1.89,3.9,4.98c-0.54,2.64-3.21,4.2-5.64,4.2c-1.98,0-4.29-1.23-5.43-2.55l1.02-1.14
		c1.02,1.29,2.85,2.49,4.709,2.49c1.77,0,3.51-0.99,3.93-2.91c0.51-2.37-1.2-3.06-2.91-3.78c-2.01-0.84-4.38-1.86-3.78-4.68
		c0.48-2.25,3.12-3.959,5.49-3.959c1.83,0,3.18,0.63,4.41,1.68L69.718,143.91z"/>
	<path d="M76.858,141.391h1.56l-0.72,13.709h0.06l4.86-9.63h1.53l0.72,9.63h0.06l5.1-13.709h1.53l-6.209,16.079h-1.53l-0.84-10.26
		l-5.16,10.26h-1.53L76.858,141.391z"/>
	<path d="M101.787,142.59h-4.62l0.24-1.2h6.03l-3.36,15.869h-1.41L101.787,142.59z M105.267,136.801c-0.18,0.87-1.05,1.56-1.92,1.56
		c-0.87,0-1.41-0.69-1.23-1.56c0.18-0.87,1.02-1.56,1.89-1.56C104.877,135.241,105.447,135.931,105.267,136.801z"/>
	<path d="M113.967,146.94c0.42-1.92,0.66-3.84,0.51-5.7l1.35-0.18v2.61h0.06c1.14-1.65,2.88-2.61,4.74-2.61
		c2.64,0,5.7,2.13,4.35,8.37c-1.35,6.36-5.79,8.16-7.95,8.16c-1.41,0-2.73-0.48-3.63-1.35l-1.56,7.38h-1.41L113.967,146.94z
		 M113.697,154.83c0.81,0.87,1.86,1.56,3.21,1.56c1.8,0,5.46-1.26,6.689-7.049c1.17-5.52-1.47-7.08-3.27-7.08
		c-2.1,0-3.48,1.47-4.62,3.18L113.697,154.83z"/>
	<path d="M141.176,156.15c-2.01,0.81-3.93,1.44-5.97,1.44c-4.65,0-5.49-4.17-4.62-8.19c0.84-4.02,3.54-8.339,8.22-8.339
		c2.67,0,5.4,1.92,4.02,8.49h-10.859c-0.93,5.58,1.11,6.839,3.54,6.839c1.8,0,3.66-0.66,5.34-1.56L141.176,156.15z M141.656,148.35
		c0.72-2.73-0.18-6.09-3.3-6.09c-3.09,0-5.64,3.3-6.149,6.09H141.656z"/>
	<path d="M177.175,156.15c-2.01,0.81-3.93,1.44-5.97,1.44c-4.65,0-5.49-4.17-4.62-8.19c0.84-4.02,3.54-8.339,8.22-8.339
		c2.67,0,5.4,1.92,4.02,8.49h-10.859c-0.93,5.58,1.11,6.839,3.54,6.839c1.8,0,3.66-0.66,5.34-1.56L177.175,156.15z M177.655,148.35
		c0.72-2.73-0.18-6.09-3.3-6.09c-3.09,0-5.64,3.3-6.149,6.09H177.655z"/>
	<path d="M198.145,141.391l-8.4,16.079h-1.65l-1.62-16.079h1.5l1.38,13.949l7.29-13.949H198.145z"/>
	<path d="M213.174,156.15c-2.01,0.81-3.93,1.44-5.97,1.44c-4.65,0-5.49-4.17-4.62-8.19c0.84-4.02,3.54-8.339,8.22-8.339
		c2.67,0,5.4,1.92,4.02,8.49h-10.859c-0.93,5.58,1.11,6.839,3.54,6.839c1.8,0,3.66-0.66,5.34-1.56L213.174,156.15z M213.654,148.35
		c0.72-2.73-0.18-6.09-3.3-6.09c-3.09,0-5.64,3.3-6.149,6.09H213.654z"/>
	<path d="M222.474,157.26h-1.41l2.34-10.979l0.51-5.07h1.35l-0.42,4.44l0.06,0.06c1.44-2.19,3.63-4.65,6.36-4.65
		c2.64,0,2.76,2.64,2.31,4.8h-1.41c0.27-1.47,0.63-3.6-1.29-3.6c-1.62,0-5.73,2.52-7.02,8.55L222.474,157.26z"/>
	<path d="M252.713,141.391l-9.12,15.089c-1.32,2.16-3.45,5.85-6.24,5.85c-1.8,0-2.82-1.41-3-3.03l1.32-0.63
		c0.15,1.08,0.63,2.459,1.95,2.459c1.53,0,2.7-1.77,3.48-2.97l1.77-2.73l-2.19-14.039h1.56l1.71,12.179l7.14-12.179H252.713z"/>
	<path d="M285.682,154.92c-1.83,1.59-3.57,2.67-5.82,2.67c-2.79,0-6.27-1.74-4.92-8.1c1.38-6.42,5.34-8.43,8.31-8.43
		c2.4,0,3.9,1.26,4.77,3.21l-1.44,0.84c-0.48-1.65-1.65-2.85-3.6-2.85c-1.979,0-5.339,1.23-6.569,6.99
		c-1.17,5.46,1.35,7.14,3.66,7.14c1.74,0,3.51-1.2,4.86-2.49L285.682,154.92z"/>
	<path d="M294.472,157.26h-1.41l2.34-10.979l0.51-5.07h1.35l-0.42,4.44l0.06,0.06c1.44-2.19,3.63-4.65,6.36-4.65
		c2.64,0,2.76,2.64,2.31,4.8h-1.41c0.27-1.47,0.63-3.6-1.29-3.6c-1.62,0-5.73,2.52-7.02,8.55L294.472,157.26z"/>
	<path d="M321.171,156.15c-2.01,0.81-3.93,1.44-5.97,1.44c-4.65,0-5.49-4.17-4.62-8.19c0.84-4.02,3.54-8.339,8.22-8.339
		c2.67,0,5.4,1.92,4.02,8.49h-10.859c-0.93,5.58,1.11,6.839,3.54,6.839c1.8,0,3.66-0.66,5.34-1.56L321.171,156.15z M321.651,148.35
		c0.72-2.73-0.18-6.09-3.3-6.09c-3.09,0-5.64,3.3-6.149,6.09H321.651z"/>
	<path d="M339.351,151.68c-0.42,1.95-0.69,3.87-0.51,5.729l-1.35,0.18l-0.03-2.61c-1.2,1.65-2.91,2.61-4.77,2.61
		c-2.67,0-5.7-2.19-4.38-8.37c1.35-6.36,5.79-8.16,7.979-8.16c1.41,0,2.7,0.48,3.6,1.35l1.59-7.41h1.41L339.351,151.68z
		 M339.59,143.82c-0.81-0.87-1.89-1.56-3.209-1.56c-1.8,0-5.43,1.23-6.69,7.05c-1.17,5.49,1.47,7.08,3.27,7.08
		c2.01,0,3.63-1.47,4.65-3.18L339.59,143.82z"/>
	<path d="M353.78,142.59h-4.62l0.24-1.2h6.03l-3.36,15.869h-1.41L353.78,142.59z M357.26,136.801c-0.18,0.87-1.05,1.56-1.92,1.56
		c-0.87,0-1.41-0.69-1.23-1.56c0.18-0.87,1.02-1.56,1.89-1.56C356.87,135.241,357.44,135.931,357.26,136.801z"/>
	<path d="M376.64,142.59h-5.82l-2.31,10.83c-0.33,1.53-0.06,2.97,1.89,2.97c1.77,0,3.3-1.32,4.29-2.82l1.29,0.33
		c-1.44,2.04-3.51,3.69-5.88,3.69c-2.04,0-3.689-0.99-2.82-5.01l2.13-9.99h-3.57l0.24-1.2h3.57l1.11-5.1h1.41l-1.11,5.1h5.82
		L376.64,142.59z"/>
	<path d="M411.679,154.92c-1.83,1.59-3.57,2.67-5.82,2.67c-2.79,0-6.27-1.74-4.92-8.1c1.38-6.42,5.34-8.43,8.31-8.43
		c2.4,0,3.9,1.26,4.77,3.21l-1.44,0.84c-0.48-1.65-1.65-2.85-3.6-2.85c-1.979,0-5.339,1.23-6.569,6.99
		c-1.17,5.46,1.35,7.14,3.66,7.14c1.74,0,3.51-1.2,4.86-2.49L411.679,154.92z"/>
	<path d="M426.618,157.59c-0.12-0.87-0.15-1.8-0.03-2.7c-1.44,1.59-2.85,2.7-4.92,2.7c-2.91,0-3.93-2.37-3.36-5.04
		c0.66-3.03,2.91-5.64,5.97-5.64c1.29,0,2.67,0.51,3.66,1.05c0.93-4.02,0.57-5.7-2.04-5.7c-1.38,0-2.64,0.48-4.02,1.05l-0.06-1.29
		c1.5-0.54,2.94-0.96,4.44-0.96c2.91,0,4.2,2.04,3.36,5.58c-0.51,2.16-1.02,4.32-1.56,6.48c-0.36,1.53-0.27,2.97-0.12,4.29
		L426.618,157.59z M427.608,149.07c-0.87-0.51-1.98-0.96-3.24-0.96c-2.64,0-4.169,2.22-4.649,4.56c-0.39,1.77,0.18,3.72,2.19,3.72
		c1.979,0,3.51-1.59,4.83-3.209L427.608,149.07z"/>
	<path d="M438.468,157.26h-1.41l2.34-10.979l0.51-5.07h1.35l-0.42,4.44l0.06,0.06c1.44-2.19,3.63-4.65,6.36-4.65
		c2.64,0,2.76,2.64,2.31,4.8h-1.41c0.27-1.47,0.63-3.6-1.29-3.6c-1.62,0-5.73,2.52-7.02,8.55L438.468,157.26z"/>
	<path d="M465.347,151.68c-0.42,1.95-0.69,3.87-0.51,5.729l-1.35,0.18l-0.03-2.61c-1.2,1.65-2.91,2.61-4.77,2.61
		c-2.67,0-5.7-2.19-4.38-8.37c1.35-6.36,5.79-8.16,7.979-8.16c1.41,0,2.7,0.48,3.6,1.35l1.59-7.41h1.41L465.347,151.68z
		 M465.587,143.82c-0.81-0.87-1.89-1.56-3.21-1.56c-1.8,0-5.43,1.23-6.69,7.05c-1.17,5.49,1.47,7.08,3.27,7.08
		c2.01,0,3.63-1.47,4.65-3.18L465.587,143.82z"/>
	<path d="M491.027,157.26h-1.41l1.68-7.95c0.57-2.7,1.08-5.4,1.11-8.1h1.32l-0.42,4.56h0.06c1.11-2.37,4.14-4.709,6.66-4.709
		c2.88,0,3.15,2.49,2.64,4.89l-2.4,11.31h-1.41l2.25-10.649c0.39-1.83,0.93-4.35-1.53-4.35c-2.28,0-5.88,2.28-7.169,8.46
		L491.027,157.26z"/>
	<path d="M520.335,141.391h1.41l-1.65,7.83c-0.57,2.7-1.05,5.399-1.08,8.04h-1.32l0.36-4.5h-0.06c-1.11,2.37-4.14,4.83-6.629,4.83
		c-2.88,0-3.15-2.61-2.64-5.01l2.37-11.189h1.41l-2.22,10.529c-0.63,3-0.21,4.47,1.5,4.47c2.34,0,5.939-2.58,7.2-8.58
		L520.335,141.391z"/>
	<path d="M526.636,146.19c0.45-2.1,0.57-3.78,0.54-5.13h1.44l-0.06,2.07c1.17-1.26,2.61-2.07,4.17-2.07c1.29,0,1.83,0.78,2.04,1.92
		c1.02-1.02,2.31-1.92,3.69-1.92c2.04,0,2.82,1.35,2.4,3.33l-2.73,12.87h-1.41l2.73-12.81c0.33-1.62-0.33-2.22-1.44-2.22
		c-1.26,0-2.52,0.99-3.33,2.04l-2.76,12.989h-1.41l2.58-12.18c0.24-1.2,0.51-2.82-1.08-2.82c-1.35,0-2.82,1.11-3.6,2.31l-2.7,12.689
		h-1.41L526.636,146.19z"/>
	<path d="M549.915,135l-1.59,7.41c1.26-0.87,2.79-1.35,4.2-1.35c2.19,0,5.85,1.8,4.5,8.16c-1.32,6.18-5.28,8.37-7.92,8.37
		c-1.86,0-3.21-0.96-3.69-2.61l-1.11,2.61l-1.29-0.18c0.96-1.86,1.53-3.78,1.95-5.729l3.54-16.68H549.915z M546.045,153.21
		c0.42,1.71,1.17,3.18,3.27,3.18c1.8,0,5.1-1.56,6.27-7.08c1.26-5.82-1.89-7.05-3.689-7.05c-1.35,0-2.7,0.69-3.87,1.56
		L546.045,153.21z"/>
	<path d="M573.165,156.15c-2.01,0.81-3.93,1.44-5.97,1.44c-4.65,0-5.49-4.17-4.62-8.19c0.84-4.02,3.54-8.339,8.22-8.339
		c2.67,0,5.399,1.92,4.02,8.49h-10.859c-0.93,5.58,1.11,6.839,3.54,6.839c1.8,0,3.66-0.66,5.34-1.56L573.165,156.15z
		 M573.644,148.35c0.72-2.73-0.18-6.09-3.3-6.09c-3.09,0-5.64,3.3-6.149,6.09H573.644z"/>
	<path d="M582.464,157.26h-1.41l2.341-10.979l0.51-5.07h1.35l-0.42,4.44l0.06,0.06c1.44-2.19,3.63-4.65,6.36-4.65
		c2.64,0,2.76,2.64,2.31,4.8h-1.41c0.271-1.47,0.631-3.6-1.289-3.6c-1.62,0-5.73,2.52-7.021,8.55L582.464,157.26z"/>
	<path d="M603.764,153.63c1.11,0,1.83,0.93,1.59,2.04c-0.239,1.11-1.35,2.01-2.46,2.01c-1.109,0-1.829-0.9-1.59-2.01
		C601.544,154.56,602.655,153.63,603.764,153.63z"/>
	<path d="M12.629,180.661l-0.72,3.33l-1.65,4.05h-1.2l0.03-4.05l0.72-3.33H12.629z M17.399,180.661l-0.72,3.33l-1.65,4.05h-1.2
		l0.03-4.05l0.72-3.33H17.399z"/>
	<path d="M38.279,181.861h-6.24l-4.35,20.399h-1.41l4.35-20.399h-6.209l0.24-1.2h13.859L38.279,181.861z"/>
	<path d="M44.639,180h1.41l-2.1,9.84h0.06c1.38-1.98,3.69-3.78,6.09-3.78c1.47,0,3.54,1.17,2.79,4.65l-2.46,11.549h-1.41l2.13-9.959
		c0.42-2.01,0.78-5.04-1.56-5.04c-2.67,0-5.79,3.33-6.57,7.02l-1.71,7.979h-1.41L44.639,180z"/>
	<path d="M69.178,201.15c-2.01,0.81-3.93,1.44-5.97,1.44c-4.65,0-5.49-4.17-4.62-8.19c0.84-4.02,3.54-8.339,8.22-8.339
		c2.67,0,5.4,1.92,4.02,8.49H59.968c-0.93,5.58,1.11,6.839,3.54,6.839c1.8,0,3.66-0.66,5.34-1.56L69.178,201.15z M69.658,193.35
		c0.72-2.73-0.18-6.09-3.3-6.09c-3.09,0-5.64,3.3-6.149,6.09H69.658z"/>
	<path d="M90.717,186.391l-9.12,15.089c-1.32,2.16-3.45,5.85-6.24,5.85c-1.8,0-2.82-1.41-3-3.03l1.32-0.63
		c0.15,1.08,0.63,2.459,1.95,2.459c1.53,0,2.7-1.77,3.48-2.97l1.77-2.73l-2.189-14.039h1.56l1.71,12.179l7.14-12.179H90.717z"/>
	<path d="M104.997,180.661l-0.72,3.33l-1.65,4.05h-1.2l0.03-4.05l0.72-3.33H104.997z"/>
	<path d="M114.477,202.26h-1.41l2.34-10.979l0.51-5.07h1.35l-0.42,4.44l0.06,0.06c1.44-2.19,3.63-4.65,6.36-4.65
		c2.64,0,2.76,2.64,2.31,4.8h-1.41c0.27-1.47,0.63-3.6-1.29-3.6c-1.62,0-5.73,2.52-7.02,8.55L114.477,202.26z"/>
	<path d="M141.176,201.15c-2.01,0.81-3.93,1.44-5.97,1.44c-4.65,0-5.49-4.17-4.62-8.19c0.84-4.02,3.54-8.339,8.22-8.339
		c2.67,0,5.4,1.92,4.02,8.49h-10.859c-0.93,5.58,1.11,6.839,3.54,6.839c1.8,0,3.66-0.66,5.34-1.56L141.176,201.15z M141.656,193.35
		c0.72-2.73-0.18-6.09-3.3-6.09c-3.09,0-5.64,3.3-6.149,6.09H141.656z"/>
	<path d="M174.925,181.201h-4.68l0.27-1.2h6.09l-4.74,22.259h-1.41L174.925,181.201z"/>
	<path d="M191.785,187.59h-4.62l0.24-1.2h6.03l-3.36,15.869h-1.41L191.785,187.59z M195.265,181.801c-0.18,0.87-1.05,1.56-1.92,1.56
		c-0.87,0-1.41-0.69-1.23-1.56c0.18-0.87,1.02-1.56,1.89-1.56C194.875,180.241,195.444,180.931,195.265,181.801z"/>
	<path d="M215.994,186.391c-3.479,3.36-4.919,4.859-7.859,7.229l5.85,8.64h-1.89l-4.98-7.83l-1.8,1.47l-1.35,6.36h-1.41l4.74-22.259
		h1.41l-3.03,14.22c2.97-2.34,5.94-4.95,8.49-7.83H215.994z"/>
	<path d="M231.173,201.15c-2.01,0.81-3.93,1.44-5.97,1.44c-4.649,0-5.49-4.17-4.62-8.19c0.84-4.02,3.54-8.339,8.22-8.339
		c2.67,0,5.4,1.92,4.02,8.49h-10.859c-0.93,5.58,1.11,6.839,3.54,6.839c1.8,0,3.66-0.66,5.34-1.56L231.173,201.15z M231.653,193.35
		c0.72-2.73-0.18-6.09-3.3-6.09c-3.09,0-5.64,3.3-6.149,6.09H231.653z"/>
	<path d="M267.172,201.15c-2.01,0.81-3.93,1.44-5.97,1.44c-4.649,0-5.49-4.17-4.62-8.19c0.84-4.02,3.54-8.339,8.22-8.339
		c2.67,0,5.4,1.92,4.02,8.49h-10.859c-0.93,5.58,1.11,6.839,3.54,6.839c1.8,0,3.66-0.66,5.34-1.56L267.172,201.15z M267.652,193.35
		c0.72-2.73-0.18-6.09-3.3-6.09c-3.09,0-5.64,3.3-6.149,6.09H267.652z"/>
	<path d="M288.142,186.391l-8.4,16.079h-1.65l-1.62-16.079h1.5l1.38,13.949l7.29-13.949H288.142z"/>
	<path d="M303.171,201.15c-2.01,0.81-3.93,1.44-5.97,1.44c-4.649,0-5.49-4.17-4.62-8.19c0.84-4.02,3.54-8.339,8.22-8.339
		c2.67,0,5.4,1.92,4.02,8.49h-10.859c-0.93,5.58,1.11,6.839,3.54,6.839c1.8,0,3.66-0.66,5.34-1.56L303.171,201.15z M303.651,193.35
		c0.72-2.73-0.18-6.09-3.3-6.09c-3.09,0-5.64,3.3-6.149,6.09H303.651z"/>
	<path d="M312.471,202.26h-1.41l2.34-10.979l0.51-5.07h1.35l-0.42,4.44l0.06,0.06c1.44-2.19,3.63-4.65,6.36-4.65
		c2.64,0,2.76,2.64,2.31,4.8h-1.41c0.27-1.47,0.63-3.6-1.29-3.6c-1.62,0-5.73,2.52-7.02,8.55L312.471,202.26z"/>
	<path d="M342.71,186.391l-9.12,15.089c-1.32,2.16-3.45,5.85-6.24,5.85c-1.8,0-2.82-1.41-3-3.03l1.32-0.63
		c0.15,1.08,0.63,2.459,1.95,2.459c1.53,0,2.7-1.77,3.48-2.97l1.77-2.73l-2.189-14.039h1.56l1.71,12.179l7.14-12.179H342.71z"/>
	<path d="M364.82,194.31c1.32-6.18,4.95-8.25,7.83-8.25c2.64,0,5.7,1.77,4.32,8.25c-1.35,6.45-5.16,8.28-7.83,8.28
		C366.47,202.59,363.44,200.79,364.82,194.31z M375.56,194.31c0.66-3.09,0.72-7.05-3.18-7.05c-3.87,0-5.49,3.96-6.15,7.05
		c-0.66,3.12-0.72,7.08,3.15,7.08C373.28,201.39,374.899,197.4,375.56,194.31z"/>
	<path d="M394.639,187.59h-5.82l-2.31,10.83c-0.33,1.53-0.06,2.97,1.89,2.97c1.77,0,3.3-1.32,4.29-2.82l1.29,0.33
		c-1.44,2.04-3.51,3.69-5.88,3.69c-2.04,0-3.689-0.99-2.82-5.01l2.13-9.99h-3.57l0.24-1.2h3.57l1.11-5.1h1.41l-1.11,5.1h5.82
		L394.639,187.59z"/>
	<path d="M404.629,180h1.41l-2.1,9.84h0.06c1.38-1.98,3.69-3.78,6.09-3.78c1.47,0,3.54,1.17,2.79,4.65l-2.46,11.549h-1.41
		l2.13-9.959c0.42-2.01,0.78-5.04-1.56-5.04c-2.67,0-5.79,3.33-6.57,7.02l-1.71,7.979h-1.41L404.629,180z"/>
	<path d="M429.168,201.15c-2.01,0.81-3.93,1.44-5.97,1.44c-4.65,0-5.49-4.17-4.62-8.19c0.84-4.02,3.54-8.339,8.22-8.339
		c2.67,0,5.4,1.92,4.02,8.49h-10.859c-0.93,5.58,1.11,6.839,3.54,6.839c1.8,0,3.66-0.66,5.34-1.56L429.168,201.15z M429.648,193.35
		c0.72-2.73-0.18-6.09-3.3-6.09c-3.09,0-5.64,3.3-6.149,6.09H429.648z"/>
	<path d="M438.468,202.26h-1.41l2.34-10.979l0.51-5.07h1.35l-0.42,4.44l0.06,0.06c1.44-2.19,3.63-4.65,6.36-4.65
		c2.64,0,2.76,2.64,2.31,4.8h-1.41c0.27-1.47,0.63-3.6-1.29-3.6c-1.62,0-5.73,2.52-7.02,8.55L438.468,202.26z"/>
	<path d="M476.627,180h1.41l-2.1,9.84h0.06c1.38-1.98,3.69-3.78,6.09-3.78c1.47,0,3.54,1.17,2.79,4.65l-2.46,11.549h-1.41
		l2.13-9.959c0.42-2.01,0.78-5.04-1.56-5.04c-2.67,0-5.79,3.33-6.57,7.02l-1.71,7.979h-1.41L476.627,180z"/>
	<path d="M490.816,194.31c1.32-6.18,4.95-8.25,7.83-8.25c2.64,0,5.7,1.77,4.32,8.25c-1.35,6.45-5.16,8.28-7.83,8.28
		S489.437,200.79,490.816,194.31z M501.556,194.31c0.66-3.09,0.72-7.05-3.18-7.05c-3.87,0-5.49,3.96-6.15,7.05
		c-0.66,3.12-0.72,7.08,3.15,7.08C499.276,201.39,500.896,197.4,501.556,194.31z"/>
	<path d="M520.636,187.59h-5.82l-2.31,10.83c-0.33,1.53-0.06,2.97,1.89,2.97c1.77,0,3.3-1.32,4.29-2.82l1.29,0.33
		c-1.44,2.04-3.51,3.69-5.88,3.69c-2.04,0-3.689-0.99-2.82-5.01l2.13-9.99h-3.57l0.24-1.2h3.57l1.11-5.1h1.41l-1.11,5.1h5.82
		L520.636,187.59z"/>
	<path d="M537.165,201.15c-2.01,0.81-3.93,1.44-5.97,1.44c-4.65,0-5.49-4.17-4.62-8.19c0.84-4.02,3.54-8.339,8.22-8.339
		c2.67,0,5.4,1.92,4.02,8.49h-10.859c-0.93,5.58,1.11,6.839,3.54,6.839c1.8,0,3.66-0.66,5.34-1.56L537.165,201.15z M537.645,193.35
		c0.72-2.73-0.18-6.09-3.3-6.09c-3.09,0-5.64,3.3-6.149,6.09H537.645z"/>
	<path d="M552.915,181.201h-4.68l0.27-1.2h6.09l-4.74,22.259h-1.41L552.915,181.201z"/>
	<path d="M593.024,181.861h-3l-4.079,19.199h3l-0.271,1.2h-7.409l0.27-1.2h3l4.08-19.199h-3l0.239-1.2h7.41L593.024,181.861z"/>
	<path d="M608.984,180.661l-0.72,3.33l-1.649,4.05h-1.2l0.03-4.05l0.72-3.33H608.984z"/>
	<path d="M630.134,186.391l-8.399,16.079h-1.65l-1.62-16.079h1.5l1.38,13.949l7.29-13.949H630.134z"/>
	<path d="M645.165,201.15c-2.01,0.81-3.93,1.44-5.97,1.44c-4.65,0-5.49-4.17-4.62-8.19c0.84-4.02,3.54-8.339,8.22-8.339
		c2.67,0,5.399,1.92,4.02,8.49h-10.859c-0.93,5.58,1.11,6.839,3.54,6.839c1.8,0,3.66-0.66,5.34-1.56L645.165,201.15z
		 M645.644,193.35c0.72-2.73-0.18-6.09-3.3-6.09c-3.09,0-5.64,3.3-6.149,6.09H645.644z"/>
	<path d="M16.649,232.59h-5.82l-2.31,10.829c-0.33,1.53-0.06,2.97,1.89,2.97c1.77,0,3.3-1.319,4.29-2.819l1.29,0.33
		c-1.44,2.039-3.51,3.689-5.88,3.689c-2.04,0-3.689-0.99-2.82-5.01l2.13-9.989H5.85l0.24-1.2h3.57l1.11-5.1h1.41l-1.11,5.1h5.82
		L16.649,232.59z"/>
	<path d="M24.479,247.259h-1.41l2.34-10.979l0.51-5.07h1.35l-0.42,4.44l0.06,0.06c1.44-2.189,3.63-4.649,6.36-4.649
		c2.64,0,2.76,2.64,2.31,4.8h-1.41c0.27-1.47,0.63-3.6-1.29-3.6c-1.62,0-5.73,2.52-7.02,8.549L24.479,247.259z"/>
	<path d="M47.789,232.59h-4.62l0.24-1.2h6.03l-3.36,15.869h-1.41L47.789,232.59z M51.269,226.8c-0.18,0.87-1.05,1.56-1.92,1.56
		c-0.87,0-1.41-0.689-1.23-1.56c0.18-0.87,1.02-1.561,1.89-1.561C50.878,225.24,51.448,225.93,51.269,226.8z"/>
	<path d="M69.178,246.149c-2.01,0.811-3.93,1.44-5.97,1.44c-4.65,0-5.49-4.17-4.62-8.189c0.84-4.021,3.54-8.34,8.22-8.34
		c2.67,0,5.4,1.92,4.02,8.489H59.968c-0.93,5.58,1.11,6.84,3.54,6.84c1.8,0,3.66-0.66,5.34-1.56L69.178,246.149z M69.658,238.35
		c0.72-2.73-0.18-6.09-3.3-6.09c-3.09,0-5.64,3.3-6.149,6.09H69.658z"/>
	<path d="M87.357,241.679c-0.42,1.95-0.69,3.87-0.51,5.73l-1.35,0.18l-0.03-2.61c-1.2,1.65-2.91,2.61-4.77,2.61
		c-2.67,0-5.7-2.19-4.38-8.37c1.35-6.359,5.79-8.159,7.979-8.159c1.41,0,2.7,0.479,3.6,1.35l1.59-7.409h1.41L87.357,241.679z
		 M87.597,233.82c-0.81-0.87-1.89-1.56-3.209-1.56c-1.8,0-5.43,1.229-6.69,7.05c-1.17,5.489,1.47,7.079,3.27,7.079
		c2.01,0,3.63-1.47,4.65-3.18L87.597,233.82z"/>
	<path d="M124.646,232.59h-5.82l-2.31,10.829c-0.33,1.53-0.06,2.97,1.89,2.97c1.77,0,3.3-1.319,4.29-2.819l1.29,0.33
		c-1.44,2.039-3.51,3.689-5.88,3.689c-2.04,0-3.689-0.99-2.82-5.01l2.13-9.989h-3.57l0.24-1.2h3.57l1.11-5.1h1.41l-1.11,5.1h5.82
		L124.646,232.59z"/>
	<path d="M130.826,239.31c1.32-6.181,4.95-8.25,7.83-8.25c2.64,0,5.7,1.77,4.32,8.25c-1.35,6.449-5.16,8.279-7.83,8.279
		S129.446,245.79,130.826,239.31z M141.566,239.31c0.66-3.09,0.72-7.05-3.18-7.05c-3.87,0-5.49,3.96-6.15,7.05
		c-0.66,3.119-0.72,7.079,3.15,7.079C139.286,246.389,140.906,242.4,141.566,239.31z"/>
	<path d="M166.555,249.33c0.69,1.109,2.07,1.8,3.54,1.8c1.77,0,4.29-1.29,5.16-5.28l0.42-1.949c-1.32,1.14-3.33,1.949-4.89,1.949
		c-3.78,0-4.68-3.779-3.99-7.079c0.78-3.66,3.15-7.71,7.47-7.71c1.77,0,2.79,0.78,3.93,1.83l0.81-1.83h1.44
		c-1.32,2.729-1.92,5.58-2.49,8.369l-1.38,6.601c-0.99,4.68-4.59,6.299-7.02,6.299c-1.65,0-3.3-0.96-4.17-2.13L166.555,249.33z
		 M177.595,234.57c-0.66-1.32-1.98-2.31-3.66-2.31c-3.27,0-5.1,3.539-5.67,6.239c-1.05,5.01,1.59,6.149,2.88,6.149
		c1.62,0,3.69-1.02,4.83-2.43L177.595,234.57z"/>
	<path d="M184.825,239.31c1.32-6.181,4.95-8.25,7.83-8.25c2.64,0,5.7,1.77,4.32,8.25c-1.35,6.449-5.16,8.279-7.83,8.279
		C186.475,247.589,183.445,245.79,184.825,239.31z M195.564,239.31c0.66-3.09,0.72-7.05-3.18-7.05c-3.87,0-5.49,3.96-6.15,7.05
		c-0.66,3.119-0.72,7.079,3.15,7.079C193.285,246.389,194.904,242.4,195.564,239.31z"/>
	<path d="M227.784,232.59h-4.62l0.24-1.2h6.03l-3.36,15.869h-1.41L227.784,232.59z M231.264,226.8c-0.18,0.87-1.05,1.56-1.92,1.56
		c-0.87,0-1.41-0.689-1.23-1.56c0.18-0.87,1.02-1.561,1.89-1.561C230.874,225.24,231.443,225.93,231.264,226.8z"/>
	<path d="M239.034,247.259h-1.41l1.68-7.949c0.57-2.7,1.08-5.4,1.11-8.101h1.32l-0.42,4.561h0.06c1.11-2.37,4.14-4.71,6.66-4.71
		c2.88,0,3.15,2.49,2.64,4.89l-2.4,11.31h-1.41l2.25-10.649c0.39-1.83,0.93-4.35-1.53-4.35c-2.28,0-5.88,2.279-7.169,8.459
		L239.034,247.259z"/>
	<path d="M268.643,232.59h-5.82l-2.31,10.829c-0.33,1.53-0.06,2.97,1.89,2.97c1.77,0,3.3-1.319,4.29-2.819l1.29,0.33
		c-1.44,2.039-3.51,3.689-5.88,3.689c-2.04,0-3.689-0.99-2.82-5.01l2.13-9.989h-3.57l0.24-1.2h3.57l1.11-5.1h1.41l-1.11,5.1h5.82
		L268.643,232.59z"/>
	<path d="M274.822,239.31c1.32-6.181,4.95-8.25,7.83-8.25c2.64,0,5.7,1.77,4.32,8.25c-1.35,6.449-5.16,8.279-7.83,8.279
		S273.442,245.79,274.822,239.31z M285.562,239.31c0.66-3.09,0.72-7.05-3.18-7.05c-3.87,0-5.49,3.96-6.15,7.05
		c-0.66,3.119-0.72,7.079,3.15,7.079C283.282,246.389,284.902,242.4,285.562,239.31z"/>
	<path d="M297.772,243.629c1.11,0,1.83,0.93,1.59,2.04c-0.24,1.109-1.35,2.01-2.46,2.01s-1.83-0.9-1.59-2.01
		C295.552,244.559,296.662,243.629,297.772,243.629z"/>
	<path d="M344.271,226.86h-6.24l-4.35,20.399h-1.41l4.35-20.399h-6.209l0.24-1.2h13.859L344.271,226.86z"/>
	<path d="M350.63,225h1.41l-2.1,9.839H350c1.38-1.979,3.69-3.779,6.09-3.779c1.47,0,3.54,1.17,2.79,4.649l-2.46,11.55h-1.41
		l2.13-9.96c0.42-2.01,0.78-5.039-1.56-5.039c-2.67,0-5.79,3.329-6.57,7.02l-1.71,7.979h-1.41L350.63,225z"/>
	<path d="M375.169,246.149c-2.01,0.811-3.93,1.44-5.97,1.44c-4.649,0-5.49-4.17-4.62-8.189c0.84-4.021,3.54-8.34,8.22-8.34
		c2.67,0,5.4,1.92,4.02,8.489H365.96c-0.93,5.58,1.11,6.84,3.54,6.84c1.8,0,3.66-0.66,5.34-1.56L375.169,246.149z M375.649,238.35
		c0.72-2.73-0.18-6.09-3.3-6.09c-3.09,0-5.64,3.3-6.149,6.09H375.649z"/>
	<path d="M396.709,231.39l-9.12,15.089c-1.32,2.16-3.45,5.85-6.24,5.85c-1.8,0-2.82-1.409-3-3.029l1.32-0.63
		c0.15,1.08,0.63,2.46,1.95,2.46c1.53,0,2.7-1.771,3.48-2.97l1.77-2.73l-2.19-14.039h1.56l1.71,12.18l7.14-12.18H396.709z"/>
	<path d="M433.908,227.73c-1.38-0.66-2.13-1.29-3.45-1.29c-2.07,0-3.57,1.11-4.02,3.24l-0.6,2.79h5.25l-0.27,1.199h-5.25
		l-2.88,13.59h-1.41l2.88-13.59h-4.08l0.27-1.199h4.08l0.39-1.8c0.9-4.11,3.48-5.431,5.73-5.431c1.32,0,2.61,0.48,3.689,0.99
		L433.908,227.73z"/>
	<path d="M444.618,247.589c-0.12-0.87-0.15-1.8-0.03-2.7c-1.44,1.59-2.85,2.7-4.92,2.7c-2.91,0-3.93-2.37-3.36-5.04
		c0.66-3.029,2.91-5.64,5.97-5.64c1.29,0,2.67,0.51,3.66,1.05c0.93-4.02,0.57-5.699-2.04-5.699c-1.38,0-2.64,0.479-4.02,1.05
		l-0.06-1.29c1.5-0.54,2.94-0.96,4.44-0.96c2.91,0,4.2,2.04,3.36,5.58c-0.51,2.159-1.02,4.319-1.56,6.479
		c-0.36,1.529-0.27,2.97-0.12,4.29L444.618,247.589z M445.608,239.07c-0.87-0.51-1.98-0.96-3.24-0.96c-2.64,0-4.169,2.22-4.649,4.56
		c-0.39,1.77,0.18,3.72,2.189,3.72c1.98,0,3.51-1.59,4.83-3.21L445.608,239.07z"/>
	<path d="M461.777,232.59h-4.62l0.24-1.2h6.03l-3.36,15.869h-1.41L461.777,232.59z M465.257,226.8c-0.18,0.87-1.05,1.56-1.92,1.56
		c-0.87,0-1.41-0.689-1.23-1.56c0.18-0.87,1.02-1.561,1.89-1.561C464.867,225.24,465.437,225.93,465.257,226.8z"/>
	<path d="M480.917,226.2h-4.68l0.27-1.199h6.09l-4.74,22.259h-1.41L480.917,226.2z"/>
	<path d="M495.767,243.629c1.11,0,1.83,0.93,1.59,2.04c-0.24,1.109-1.35,2.01-2.46,2.01s-1.83-0.9-1.59-2.01
		C493.546,244.559,494.656,243.629,495.767,243.629z"/>
	<path d="M516.616,225.66l-0.72,3.33l-1.65,4.05h-1.2l0.03-4.05l0.72-3.33H516.616z M521.386,225.66l-0.72,3.33l-1.65,4.05h-1.2
		l0.03-4.05l0.72-3.33H521.386z"/>
</g>
</svg>
