<?xml version="1.0" encoding="utf-8"?>
<!-- Generator: Adobe Illustrator 17.0.0, SVG Export Plug-In . SVG Version: 6.00 Build 0)  -->
<!DOCTYPE svg PUBLIC "-//W3C//DTD SVG 1.1//EN" "http://www.w3.org/Graphics/SVG/1.1/DTD/svg11.dtd">
<svg version="1.1" id="Layer_1" xmlns="http://www.w3.org/2000/svg" xmlns:xlink="http://www.w3.org/1999/xlink" x="0px" y="0px"
	 width="245.412px" height="161.074px" viewBox="0 0 245.412 161.074" enable-background="new 0 0 245.412 161.074"
	 xml:space="preserve">
<g>
	<path d="M16.349,11.974h0.036l3.223-11.578h0.99l-3.781,13.09h-1.134l-0.522-6.518l-3.241,6.518h-1.135l1.765-13.09h0.99
		l-1.71,11.577h0.036l3.762-7.202L16.349,11.974z"/>
	<path d="M28.391,12.694c-1.207,0.486-2.359,0.864-3.583,0.864c-2.791,0-3.295-2.503-2.773-4.916
		c0.504-2.412,2.125-5.005,4.934-5.005c1.603,0,3.241,1.152,2.413,5.096h-6.518c-0.558,3.349,0.666,4.104,2.125,4.104
		c1.081,0,2.197-0.396,3.205-0.936L28.391,12.694z M28.679,8.013c0.432-1.639-0.108-3.655-1.981-3.655
		c-1.854,0-3.385,1.98-3.691,3.655H28.679z"/>
	<path d="M46.84,0l-0.955,4.447c0.756-0.521,1.675-0.81,2.521-0.81c1.314,0,3.511,1.08,2.701,4.897
		c-0.792,3.709-3.169,5.023-4.753,5.023c-1.116,0-1.927-0.576-2.215-1.566l-0.666,1.566l-0.775-0.107
		c0.576-1.116,0.918-2.269,1.17-3.438L45.993,0H46.84z M44.517,10.93c0.252,1.026,0.702,1.908,1.962,1.908
		c1.081,0,3.061-0.936,3.763-4.249c0.757-3.493-1.134-4.232-2.214-4.232c-0.81,0-1.62,0.414-2.323,0.937L44.517,10.93z"/>
	<path d="M61.493,3.836h0.846l-0.99,4.699c-0.342,1.62-0.63,3.241-0.648,4.825h-0.793l0.216-2.701h-0.036
		c-0.667,1.423-2.485,2.899-3.979,2.899c-1.729,0-1.891-1.566-1.584-3.007l1.422-6.716h0.846l-1.332,6.319
		c-0.378,1.801-0.126,2.683,0.9,2.683c1.404,0,3.565-1.548,4.321-5.149L61.493,3.836z"/>
	<path d="M69.556,4.556h-2.773l0.144-0.72h3.619l-2.017,9.524h-0.846L69.556,4.556z M71.644,1.081
		c-0.108,0.521-0.63,0.936-1.152,0.936s-0.846-0.414-0.738-0.936s0.612-0.937,1.134-0.937C71.41,0.145,71.752,0.559,71.644,1.081z"
		/>
	<path d="M81.04,0.721h-2.809L78.393,0h3.655l-2.845,13.36h-0.846L81.04,0.721z"/>
	<path d="M94.072,4.556h-3.493l-1.387,6.5c-0.198,0.918-0.036,1.782,1.135,1.782c1.062,0,1.98-0.792,2.575-1.692l0.774,0.198
		c-0.864,1.225-2.106,2.215-3.529,2.215c-1.225,0-2.215-0.595-1.692-3.007l1.278-5.996H87.59l0.144-0.72h2.143l0.666-3.062h0.846
		l-0.666,3.062h3.493L94.072,4.556z"/>
	<path d="M113.259,13.559c-0.072-0.522-0.09-1.08-0.018-1.621c-0.864,0.955-1.711,1.621-2.953,1.621
		c-1.747,0-2.359-1.423-2.017-3.025c0.396-1.818,1.747-3.385,3.583-3.385c0.774,0,1.603,0.306,2.197,0.63
		c0.558-2.412,0.342-3.421-1.225-3.421c-0.828,0-1.584,0.288-2.413,0.631l-0.036-0.774c0.9-0.324,1.765-0.576,2.665-0.576
		c1.747,0,2.521,1.225,2.017,3.349c-0.306,1.297-0.612,2.593-0.937,3.89c-0.216,0.918-0.162,1.782-0.072,2.574L113.259,13.559z
		 M113.853,8.445c-0.522-0.307-1.188-0.576-1.944-0.576c-1.584,0-2.503,1.332-2.791,2.736c-0.234,1.062,0.108,2.232,1.314,2.232
		c1.188,0,2.106-0.954,2.899-1.927L113.853,8.445z"/>
	<path d="M119.503,13.36h-0.846l1.008-4.771c0.342-1.62,0.648-3.241,0.666-4.861h0.792l-0.252,2.736h0.036
		c0.667-1.422,2.485-2.826,3.998-2.826c1.729,0,1.89,1.494,1.584,2.935l-1.44,6.788h-0.846l1.35-6.392
		c0.234-1.099,0.559-2.611-0.918-2.611c-1.368,0-3.529,1.368-4.303,5.078L119.503,13.36z"/>
	<path d="M17.591,31.895c-1.207,0.486-2.359,0.864-3.583,0.864c-2.791,0-3.295-2.503-2.773-4.916
		c0.504-2.412,2.125-5.005,4.934-5.005c1.603,0,3.241,1.152,2.413,5.096h-6.518c-0.558,3.349,0.666,4.104,2.125,4.104
		c1.081,0,2.197-0.396,3.205-0.936L17.591,31.895z M17.879,27.213c0.432-1.639-0.108-3.655-1.981-3.655
		c-1.854,0-3.385,1.98-3.691,3.655H17.879z"/>
	<path d="M22.305,32.561h-0.846l1.008-4.771c0.342-1.62,0.648-3.241,0.666-4.861h0.792l-0.252,2.736h0.036
		c0.667-1.422,2.485-2.826,3.998-2.826c1.729,0,1.89,1.494,1.584,2.935l-1.44,6.788h-0.846l1.351-6.392
		c0.234-1.099,0.558-2.611-0.918-2.611c-1.368,0-3.529,1.369-4.303,5.078L22.305,32.561z"/>
	<path d="M40.973,23.036l-5.042,9.65h-0.99l-0.972-9.65h0.9l0.828,8.372l4.375-8.372C40.072,23.036,40.973,23.036,40.973,23.036z"/>
	<path d="M47.956,23.756h-2.773l0.144-0.72h3.619l-2.017,9.524h-0.846L47.956,23.756z M50.044,20.281
		c-0.108,0.521-0.63,0.936-1.152,0.936s-0.846-0.414-0.738-0.936c0.108-0.522,0.612-0.937,1.134-0.937
		C49.811,19.345,50.153,19.759,50.044,20.281z"/>
	<path d="M55.569,32.561h-0.846l1.404-6.59l0.306-3.043h0.81l-0.252,2.665l0.036,0.036c0.864-1.314,2.179-2.791,3.817-2.791
		c1.584,0,1.657,1.584,1.387,2.881h-0.846c0.162-0.883,0.378-2.161-0.774-2.161c-0.972,0-3.439,1.513-4.213,5.132L55.569,32.561z"/>
	<path d="M65.378,27.789c0.792-3.709,2.971-4.951,4.699-4.951c1.584,0,3.421,1.062,2.593,4.951c-0.81,3.871-3.097,4.97-4.699,4.97
		S64.55,31.679,65.378,27.789z M71.824,27.789c0.396-1.854,0.432-4.231-1.909-4.231c-2.323,0-3.295,2.377-3.691,4.231
		c-0.396,1.873-0.432,4.249,1.891,4.249C70.456,32.038,71.428,29.644,71.824,27.789z"/>
	<path d="M76.304,32.561h-0.846l1.008-4.771c0.342-1.62,0.648-3.241,0.666-4.861h0.792l-0.252,2.736h0.036
		c0.667-1.422,2.485-2.826,3.998-2.826c1.729,0,1.89,1.494,1.584,2.935l-1.44,6.788h-0.846l1.351-6.392
		c0.234-1.099,0.558-2.611-0.918-2.611c-1.368,0-3.529,1.369-4.303,5.078L76.304,32.561z"/>
	<path d="M86.87,25.917c0.27-1.261,0.342-2.27,0.324-3.079h0.864l-0.036,1.242c0.702-0.756,1.566-1.242,2.502-1.242
		c0.774,0,1.099,0.468,1.225,1.152c0.612-0.612,1.386-1.152,2.214-1.152c1.225,0,1.693,0.81,1.44,1.998l-1.638,7.725h-0.846
		l1.638-7.688c0.198-0.972-0.198-1.332-0.864-1.332c-0.756,0-1.512,0.594-1.999,1.225l-1.656,7.796h-0.847l1.549-7.311
		c0.144-0.72,0.306-1.692-0.648-1.692c-0.81,0-1.692,0.666-2.161,1.387l-1.621,7.616h-0.846L86.87,25.917z"/>
	<path d="M103.99,31.895c-1.207,0.486-2.359,0.864-3.583,0.864c-2.791,0-3.295-2.503-2.773-4.916
		c0.504-2.412,2.125-5.005,4.934-5.005c1.603,0,3.241,1.152,2.413,5.096h-6.518c-0.558,3.349,0.666,4.104,2.125,4.104
		c1.081,0,2.197-0.396,3.205-0.936L103.99,31.895z M104.278,27.213c0.432-1.639-0.108-3.655-1.981-3.655
		c-1.854,0-3.385,1.98-3.691,3.655H104.278z"/>
	<path d="M108.704,32.561h-0.846l1.008-4.771c0.342-1.62,0.648-3.241,0.666-4.861h0.792l-0.252,2.736h0.036
		c0.667-1.422,2.485-2.826,3.998-2.826c1.729,0,1.89,1.494,1.584,2.935l-1.44,6.788h-0.846l1.351-6.392
		c0.234-1.099,0.558-2.611-0.918-2.611c-1.368,0-3.529,1.369-4.303,5.078L108.704,32.561z"/>
	<path d="M126.472,23.756h-3.493l-1.387,6.5c-0.198,0.918-0.036,1.782,1.135,1.782c1.062,0,1.98-0.792,2.575-1.692l0.774,0.198
		c-0.864,1.225-2.106,2.215-3.529,2.215c-1.225,0-2.215-0.595-1.692-3.007l1.278-5.996h-2.143l0.144-0.72h2.143l0.666-3.062h0.846
		l-0.666,3.062h3.493L126.472,23.756z"/>
	<path d="M148.071,23.756h-3.493l-1.387,6.5c-0.198,0.918-0.036,1.782,1.135,1.782c1.062,0,1.98-0.792,2.574-1.692l0.774,0.198
		c-0.864,1.225-2.106,2.215-3.529,2.215c-1.224,0-2.214-0.595-1.692-3.007l1.278-5.996h-2.143l0.145-0.72h2.143l0.666-3.062h0.847
		l-0.667,3.062h3.493L148.071,23.756z"/>
	<path d="M154.064,19.2h0.847l-1.261,5.906h0.036c0.828-1.188,2.215-2.269,3.655-2.269c0.882,0,2.124,0.702,1.674,2.791
		l-1.477,6.932h-0.846l1.278-5.978c0.252-1.207,0.468-3.025-0.937-3.025c-1.603,0-3.475,1.999-3.943,4.214l-1.026,4.789h-0.846
		L154.064,19.2z"/>
	<path d="M167.258,32.759c-0.072-0.522-0.09-1.08-0.018-1.621c-0.864,0.955-1.711,1.621-2.953,1.621
		c-1.746,0-2.358-1.423-2.017-3.025c0.396-1.818,1.746-3.385,3.583-3.385c0.774,0,1.603,0.307,2.196,0.63
		c0.559-2.412,0.343-3.421-1.224-3.421c-0.828,0-1.585,0.288-2.413,0.631l-0.036-0.774c0.9-0.324,1.765-0.576,2.665-0.576
		c1.746,0,2.521,1.224,2.017,3.349c-0.307,1.297-0.612,2.593-0.937,3.89c-0.216,0.918-0.162,1.782-0.072,2.574L167.258,32.759z
		 M167.853,27.646c-0.522-0.307-1.188-0.576-1.945-0.576c-1.584,0-2.502,1.332-2.79,2.736c-0.234,1.062,0.107,2.232,1.314,2.232
		c1.188,0,2.106-0.954,2.898-1.926L167.853,27.646z"/>
	<path d="M180.471,23.756h-3.493l-1.387,6.5c-0.198,0.918-0.036,1.782,1.135,1.782c1.062,0,1.98-0.792,2.574-1.692l0.774,0.198
		c-0.864,1.225-2.106,2.215-3.529,2.215c-1.224,0-2.214-0.595-1.692-3.007l1.278-5.996h-2.143l0.145-0.72h2.143l0.666-3.062h0.847
		l-0.667,3.062h3.493L180.471,23.756z"/>
	<path d="M16.061,51.959c-0.072-0.522-0.09-1.08-0.018-1.621c-0.864,0.955-1.711,1.621-2.953,1.621
		c-1.747,0-2.359-1.423-2.017-3.025c0.396-1.818,1.747-3.385,3.583-3.385c0.774,0,1.603,0.306,2.197,0.63
		c0.558-2.413,0.342-3.421-1.225-3.421c-0.828,0-1.584,0.288-2.413,0.631l-0.036-0.774c0.9-0.324,1.765-0.576,2.665-0.576
		c1.747,0,2.521,1.225,2.017,3.349c-0.306,1.297-0.612,2.593-0.937,3.89c-0.216,0.918-0.162,1.782-0.072,2.574L16.061,51.959z
		 M16.655,46.846c-0.522-0.307-1.188-0.576-1.944-0.576c-1.584,0-2.503,1.332-2.791,2.736c-0.234,1.062,0.108,2.232,1.314,2.232
		c1.188,0,2.106-0.954,2.899-1.927L16.655,46.846z"/>
	<path d="M27.041,39.121h-2.809l0.162-0.721h3.655l-2.845,13.361h-0.846L27.041,39.121z"/>
	<path d="M37.84,39.121h-2.809l0.162-0.721h3.655l-2.845,13.361h-0.845L37.84,39.121z"/>
	<path d="M43.779,46.99c0.792-3.709,2.971-4.952,4.699-4.952c1.584,0,3.421,1.062,2.593,4.952c-0.81,3.871-3.097,4.97-4.699,4.97
		S42.951,50.879,43.779,46.99z M50.225,46.99c0.396-1.854,0.432-4.232-1.909-4.232c-2.323,0-3.295,2.377-3.691,4.232
		c-0.396,1.873-0.432,4.249,1.891,4.249C48.856,51.239,49.829,48.844,50.225,46.99z"/>
	<path d="M54.597,42.236h0.936l-0.432,8.228h0.036l2.917-5.779h0.918l0.432,5.779h0.036l3.061-8.228h0.918l-3.727,9.651h-0.918
		l-0.504-6.158l-3.097,6.158h-0.918L54.597,42.236z"/>
	<path d="M71.914,43.748c-0.648-0.54-1.404-0.99-2.358-0.99s-2.035,0.721-2.251,1.729c-0.234,1.116,0.9,1.639,1.693,1.963
		c1.333,0.558,2.737,1.134,2.34,2.989c-0.324,1.584-1.926,2.521-3.385,2.521c-1.188,0-2.575-0.738-3.259-1.53l0.612-0.685
		c0.612,0.774,1.71,1.494,2.827,1.494c1.062,0,2.106-0.594,2.358-1.746c0.306-1.423-0.72-1.837-1.747-2.269
		c-1.206-0.504-2.628-1.116-2.269-2.809c0.288-1.351,1.873-2.377,3.295-2.377c1.099,0,1.909,0.378,2.647,1.008L71.914,43.748z"/>
	<path d="M87.662,45.568c0.252-1.152,0.396-2.305,0.306-3.422l0.81-0.107v1.566h0.036c0.684-0.99,1.729-1.566,2.845-1.566
		c1.584,0,3.421,1.278,2.611,5.024c-0.81,3.817-3.475,4.897-4.771,4.897c-0.846,0-1.638-0.288-2.178-0.811l-0.937,4.43h-0.846
		L87.662,45.568z M87.5,50.303c0.486,0.521,1.116,0.936,1.927,0.936c1.08,0,3.277-0.756,4.015-4.231
		c0.702-3.313-0.882-4.25-1.962-4.25c-1.261,0-2.089,0.883-2.773,1.91L87.5,50.303z"/>
	<path d="M103.99,51.095c-1.207,0.486-2.359,0.864-3.583,0.864c-2.791,0-3.295-2.503-2.773-4.916
		c0.504-2.412,2.125-5.005,4.934-5.005c1.603,0,3.241,1.152,2.413,5.096h-6.518c-0.558,3.349,0.666,4.104,2.125,4.104
		c1.081,0,2.197-0.396,3.205-0.936L103.99,51.095z M104.278,46.414c0.432-1.639-0.108-3.656-1.981-3.656
		c-1.854,0-3.385,1.981-3.691,3.656H104.278z"/>
	<path d="M108.578,46.99c0.792-3.709,2.971-4.952,4.699-4.952c1.584,0,3.421,1.062,2.593,4.952c-0.81,3.871-3.097,4.97-4.699,4.97
		S107.75,50.879,108.578,46.99z M115.023,46.99c0.396-1.854,0.432-4.232-1.909-4.232c-2.323,0-3.295,2.377-3.691,4.232
		c-0.396,1.873-0.432,4.249,1.891,4.249C113.655,51.239,114.627,48.844,115.023,46.99z"/>
	<path d="M120.062,45.568c0.252-1.152,0.396-2.305,0.306-3.422l0.81-0.107v1.566h0.036c0.684-0.99,1.729-1.566,2.845-1.566
		c1.584,0,3.422,1.278,2.611,5.024c-0.811,3.817-3.476,4.897-4.772,4.897c-0.846,0-1.638-0.288-2.178-0.811l-0.937,4.43h-0.846
		L120.062,45.568z M119.899,50.303c0.486,0.521,1.116,0.936,1.927,0.936c1.08,0,3.277-0.756,4.016-4.231
		c0.701-3.313-0.883-4.25-1.963-4.25c-1.261,0-2.089,0.883-2.773,1.91L119.899,50.303z"/>
	<path d="M135.039,39.121h-2.809l0.161-0.721h3.655l-2.845,13.361h-0.847L135.039,39.121z"/>
	<path d="M147.189,51.095c-1.206,0.486-2.358,0.864-3.583,0.864c-2.791,0-3.295-2.503-2.772-4.916
		c0.504-2.412,2.125-5.005,4.934-5.005c1.603,0,3.241,1.152,2.412,5.096h-6.518c-0.558,3.349,0.666,4.104,2.125,4.104
		c1.08,0,2.196-0.396,3.205-0.936L147.189,51.095z M147.477,46.414c0.433-1.639-0.107-3.656-1.98-3.656
		c-1.854,0-3.385,1.981-3.69,3.656H147.477z"/>
	<path d="M169.671,42.956h-3.493l-1.387,6.5c-0.198,0.918-0.036,1.782,1.135,1.782c1.062,0,1.98-0.792,2.574-1.692l0.774,0.198
		c-0.864,1.225-2.106,2.215-3.529,2.215c-1.224,0-2.214-0.595-1.692-3.007l1.278-5.997h-2.143l0.145-0.72h2.143l0.666-3.062h0.847
		l-0.667,3.062h3.493L169.671,42.956z"/>
	<path d="M173.376,46.99c0.793-3.709,2.972-4.952,4.7-4.952c1.584,0,3.421,1.062,2.593,4.952c-0.811,3.871-3.098,4.97-4.7,4.97
		C174.367,51.959,172.548,50.879,173.376,46.99z M179.822,46.99c0.396-1.854,0.433-4.232-1.908-4.232
		c-2.323,0-3.295,2.377-3.691,4.232c-0.396,1.873-0.432,4.249,1.891,4.249C178.454,51.239,179.426,48.844,179.822,46.99z"/>
	<path d="M16.241,58.322h-2.809l0.162-0.721h3.655l-2.845,13.36h-0.846L16.241,58.322z"/>
	<path d="M28.391,70.295c-1.207,0.486-2.359,0.864-3.583,0.864c-2.791,0-3.295-2.503-2.773-4.916
		c0.504-2.412,2.125-5.005,4.934-5.005c1.603,0,3.241,1.152,2.413,5.096h-6.518c-0.558,3.349,0.666,4.104,2.125,4.104
		c1.081,0,2.197-0.396,3.205-0.936L28.391,70.295z M28.679,65.614c0.432-1.639-0.108-3.655-1.981-3.655
		c-1.854,0-3.385,1.98-3.691,3.655H28.679z"/>
	<path d="M32.817,72.204c0.414,0.666,1.242,1.08,2.125,1.08c1.062,0,2.575-0.773,3.097-3.169l0.252-1.17
		c-0.792,0.685-1.999,1.17-2.935,1.17c-2.269,0-2.809-2.269-2.395-4.249c0.468-2.196,1.891-4.627,4.483-4.627
		c1.062,0,1.674,0.468,2.358,1.098l0.486-1.098h0.864c-0.792,1.639-1.152,3.349-1.494,5.023l-0.829,3.961
		c-0.594,2.809-2.755,3.781-4.213,3.781c-0.99,0-1.98-0.576-2.502-1.278L32.817,72.204z M39.443,63.345
		c-0.396-0.792-1.188-1.387-2.197-1.387c-1.962,0-3.061,2.125-3.403,3.745c-0.63,3.007,0.954,3.691,1.729,3.691
		c0.972,0,2.214-0.612,2.899-1.458L39.443,63.345z"/>
	<path d="M48.46,71.16c-0.072-0.522-0.09-1.08-0.018-1.621c-0.864,0.955-1.711,1.621-2.953,1.621c-1.747,0-2.359-1.423-2.017-3.025
		c0.396-1.818,1.747-3.385,3.583-3.385c0.774,0,1.603,0.307,2.197,0.63c0.558-2.412,0.342-3.421-1.225-3.421
		c-0.828,0-1.584,0.288-2.413,0.631l-0.036-0.774c0.9-0.324,1.765-0.576,2.665-0.576c1.747,0,2.521,1.224,2.017,3.349
		c-0.306,1.297-0.612,2.593-0.937,3.89c-0.216,0.918-0.162,1.782-0.072,2.574L48.46,71.16z M49.054,66.046
		c-0.522-0.307-1.188-0.576-1.944-0.576c-1.584,0-2.503,1.332-2.791,2.736c-0.234,1.062,0.108,2.232,1.314,2.232
		c1.188,0,2.106-0.954,2.899-1.926L49.054,66.046z"/>
	<path d="M59.44,58.322h-2.809l0.162-0.721h3.655l-2.845,13.36h-0.846L59.44,58.322z"/>
	<path d="M70.24,58.322h-2.809l0.162-0.721h3.655l-2.845,13.36h-0.846L70.24,58.322z"/>
	<path d="M84.515,61.437l-5.474,9.057c-0.792,1.296-2.071,3.511-3.745,3.511c-1.08,0-1.692-0.847-1.801-1.818l0.792-0.378
		c0.09,0.647,0.378,1.476,1.17,1.476c0.918,0,1.621-1.062,2.088-1.782l1.062-1.639l-1.314-8.426h0.937l1.026,7.31l4.286-7.31h0.973
		V61.437z"/>
	<path d="M104.098,67.613c-0.252,1.17-0.414,2.322-0.306,3.438l-0.81,0.108l-0.018-1.566c-0.72,0.99-1.747,1.566-2.863,1.566
		c-1.603,0-3.421-1.314-2.629-5.023c0.81-3.817,3.475-4.897,4.79-4.897c0.846,0,1.621,0.288,2.161,0.81l0.954-4.447h0.846
		L104.098,67.613z M104.242,62.895c-0.486-0.522-1.134-0.937-1.927-0.937c-1.08,0-3.259,0.738-4.015,4.231
		c-0.702,3.295,0.882,4.249,1.963,4.249c1.206,0,2.179-0.882,2.791-1.908L104.242,62.895z"/>
	<path d="M108.578,66.19c0.792-3.709,2.971-4.951,4.699-4.951c1.584,0,3.421,1.062,2.593,4.951c-0.81,3.871-3.097,4.97-4.699,4.97
		S107.75,70.08,108.578,66.19z M115.023,66.19c0.396-1.854,0.432-4.231-1.909-4.231c-2.323,0-3.295,2.377-3.691,4.231
		c-0.396,1.873-0.432,4.249,1.891,4.249C113.655,70.439,114.627,68.044,115.023,66.19z"/>
	<path d="M137.272,62.157h-3.493l-1.387,6.5c-0.198,0.918-0.036,1.782,1.135,1.782c1.062,0,1.98-0.792,2.574-1.692l0.774,0.198
		c-0.864,1.225-2.106,2.215-3.529,2.215c-1.225,0-2.215-0.595-1.691-3.007l1.277-5.996h-2.143l0.145-0.72h2.143l0.666-3.062h0.847
		l-0.667,3.062h3.493L137.272,62.157z"/>
	<path d="M143.264,57.601h0.847l-1.261,5.906h0.036c0.828-1.188,2.215-2.269,3.655-2.269c0.882,0,2.124,0.702,1.674,2.791
		l-1.477,6.932h-0.846l1.278-5.978c0.252-1.207,0.468-3.025-0.937-3.025c-1.603,0-3.475,1.999-3.943,4.214l-1.026,4.789h-0.846
		L143.264,57.601z"/>
	<path d="M157.988,70.295c-1.206,0.486-2.358,0.864-3.583,0.864c-2.79,0-3.295-2.503-2.772-4.916
		c0.504-2.412,2.125-5.005,4.934-5.005c1.603,0,3.241,1.152,2.412,5.096h-6.518c-0.559,3.349,0.666,4.104,2.125,4.104
		c1.08,0,2.196-0.396,3.205-0.936L157.988,70.295z M158.276,65.614c0.433-1.639-0.107-3.655-1.98-3.655
		c-1.854,0-3.385,1.98-3.69,3.655H158.276z"/>
	<path d="M180.471,62.157h-3.493l-1.387,6.5c-0.198,0.918-0.036,1.782,1.135,1.782c1.062,0,1.98-0.792,2.574-1.692l0.774,0.198
		c-0.864,1.225-2.106,2.215-3.529,2.215c-1.224,0-2.214-0.595-1.692-3.007l1.278-5.996h-2.143l0.145-0.72h2.143l0.666-3.062h0.847
		l-0.667,3.062h3.493L180.471,62.157z"/>
	<path d="M186.463,57.601h0.847l-1.261,5.906h0.036c0.828-1.188,2.215-2.269,3.655-2.269c0.882,0,2.124,0.702,1.674,2.791
		l-1.477,6.932h-0.846l1.278-5.978c0.252-1.207,0.468-3.025-0.937-3.025c-1.603,0-3.475,1.999-3.943,4.214l-1.026,4.789h-0.846
		L186.463,57.601z"/>
	<path d="M199.153,62.157h-2.772l0.144-0.72h3.619l-2.017,9.524h-0.847L199.153,62.157z M201.242,58.682
		c-0.108,0.521-0.631,0.936-1.152,0.936c-0.522,0-0.847-0.414-0.738-0.936c0.107-0.522,0.612-0.937,1.134-0.937
		C201.008,57.746,201.35,58.16,201.242,58.682z"/>
	<path d="M205.902,70.961h-0.847l1.008-4.771c0.343-1.62,0.648-3.241,0.667-4.861h0.792l-0.252,2.736h0.036
		c0.666-1.422,2.484-2.826,3.997-2.826c1.729,0,1.891,1.494,1.584,2.935l-1.44,6.788h-0.846l1.35-6.392
		c0.234-1.099,0.559-2.611-0.918-2.611c-1.368,0-3.529,1.369-4.303,5.078L205.902,70.961z"/>
	<path d="M216.414,72.204c0.414,0.666,1.242,1.08,2.124,1.08c1.062,0,2.575-0.773,3.097-3.169l0.252-1.17
		c-0.792,0.685-1.998,1.17-2.935,1.17c-2.269,0-2.809-2.269-2.395-4.249c0.468-2.196,1.891-4.627,4.483-4.627
		c1.062,0,1.675,0.468,2.358,1.098l0.486-1.098h0.864c-0.792,1.639-1.152,3.349-1.494,5.023l-0.828,3.961
		c-0.595,2.809-2.755,3.781-4.214,3.781c-0.99,0-1.98-0.576-2.503-1.278L216.414,72.204z M223.039,63.345
		c-0.396-0.792-1.188-1.387-2.196-1.387c-1.963,0-3.061,2.125-3.403,3.745c-0.63,3.007,0.955,3.691,1.729,3.691
		c0.973,0,2.215-0.612,2.899-1.458L223.039,63.345z"/>
	<path d="M233.911,62.949c-0.647-0.54-1.404-0.99-2.358-0.99s-2.035,0.721-2.251,1.729c-0.233,1.116,0.9,1.639,1.692,1.963
		c1.333,0.559,2.737,1.135,2.341,2.989c-0.324,1.584-1.927,2.521-3.385,2.521c-1.188,0-2.575-0.738-3.259-1.53l0.612-0.685
		c0.612,0.774,1.71,1.494,2.826,1.494c1.062,0,2.107-0.594,2.359-1.746c0.306-1.423-0.721-1.837-1.747-2.269
		c-1.206-0.505-2.629-1.116-2.269-2.81c0.288-1.35,1.873-2.376,3.295-2.376c1.099,0,1.909,0.378,2.647,1.008L233.911,62.949z"/>
	<path d="M18.474,81.357h-3.493l-1.387,6.5c-0.198,0.918-0.036,1.782,1.135,1.782c1.062,0,1.98-0.792,2.575-1.692l0.774,0.198
		c-0.864,1.225-2.106,2.215-3.529,2.215c-1.225,0-2.215-0.595-1.692-3.007l1.278-5.996h-2.143l0.144-0.72h2.143l0.666-3.062h0.846
		l-0.666,3.062h3.493L18.474,81.357z"/>
	<path d="M24.466,76.801h0.846l-1.26,5.906h0.036c0.828-1.188,2.214-2.269,3.655-2.269c0.882,0,2.125,0.702,1.675,2.791
		l-1.477,6.932h-0.846l1.278-5.978c0.252-1.207,0.468-3.025-0.937-3.025c-1.603,0-3.475,1.999-3.943,4.214l-1.026,4.789h-0.846
		L24.466,76.801z"/>
	<path d="M37.66,90.36c-0.072-0.522-0.09-1.08-0.018-1.621c-0.864,0.955-1.711,1.621-2.953,1.621c-1.747,0-2.359-1.423-2.017-3.025
		c0.396-1.818,1.747-3.385,3.583-3.385c0.774,0,1.603,0.306,2.197,0.63c0.558-2.412,0.342-3.421-1.225-3.421
		c-0.828,0-1.584,0.288-2.413,0.631l-0.036-0.774c0.9-0.324,1.765-0.576,2.665-0.576c1.747,0,2.521,1.225,2.017,3.349
		c-0.306,1.297-0.612,2.593-0.937,3.89c-0.216,0.918-0.162,1.782-0.072,2.574L37.66,90.36z M38.254,85.247
		c-0.522-0.307-1.188-0.576-1.944-0.576c-1.584,0-2.503,1.332-2.791,2.736c-0.234,1.062,0.108,2.232,1.314,2.232
		c1.188,0,2.106-0.954,2.899-1.927L38.254,85.247z"/>
	<path d="M50.873,81.357H47.38l-1.387,6.5c-0.198,0.918-0.036,1.782,1.135,1.782c1.062,0,1.98-0.792,2.575-1.692l0.774,0.198
		c-0.864,1.225-2.106,2.215-3.529,2.215c-1.225,0-2.215-0.595-1.692-3.007l1.278-5.996h-2.143l0.144-0.72h2.143l0.666-3.062h0.846
		l-0.666,3.062h3.493L50.873,81.357z"/>
	<path d="M65.397,80.637h0.936l-0.432,8.228h0.036l2.917-5.779h0.918l0.432,5.779h0.036l3.061-8.228h0.918l-3.727,9.65h-0.918
		l-0.504-6.158l-3.097,6.158h-0.918L65.397,80.637z"/>
	<path d="M76.178,85.39c0.792-3.709,2.971-4.951,4.699-4.951c1.584,0,3.421,1.062,2.593,4.951c-0.81,3.871-3.097,4.97-4.699,4.97
		S75.35,89.28,76.178,85.39z M82.624,85.39c0.396-1.854,0.432-4.231-1.909-4.231c-2.323,0-3.295,2.377-3.691,4.231
		c-0.396,1.873-0.432,4.249,1.891,4.249C81.256,89.639,82.228,87.245,82.624,85.39z"/>
	<path d="M93.892,80.637h0.846l-0.99,4.699c-0.342,1.62-0.63,3.241-0.648,4.825h-0.792l0.216-2.701h-0.036
		c-0.667,1.423-2.485,2.899-3.979,2.899c-1.729,0-1.891-1.566-1.584-3.007l1.422-6.716h0.846l-1.332,6.319
		c-0.378,1.801-0.126,2.683,0.9,2.683c1.404,0,3.565-1.548,4.321-5.149L93.892,80.637z"/>
	<path d="M102.639,77.522H99.83l0.162-0.721h3.655l-2.845,13.36h-0.846L102.639,77.522z"/>
	<path d="M114.898,86.813c-0.252,1.17-0.414,2.322-0.306,3.438l-0.81,0.108l-0.018-1.566c-0.72,0.99-1.747,1.566-2.863,1.566
		c-1.603,0-3.421-1.314-2.629-5.023c0.81-3.817,3.475-4.897,4.79-4.897c0.846,0,1.621,0.288,2.161,0.81l0.954-4.447h0.846
		L114.898,86.813z M115.042,82.095c-0.486-0.522-1.134-0.937-1.927-0.937c-1.08,0-3.259,0.738-4.015,4.231
		c-0.702,3.295,0.882,4.249,1.963,4.249c1.206,0,2.179-0.882,2.791-1.908L115.042,82.095z"/>
	<path d="M130.861,83.968c0.252-1.152,0.396-2.305,0.307-3.422l0.81-0.107v1.566h0.036c0.685-0.99,1.729-1.566,2.845-1.566
		c1.585,0,3.421,1.278,2.611,5.023c-0.811,3.817-3.476,4.897-4.771,4.897c-0.847,0-1.639-0.288-2.179-0.811l-0.937,4.43h-0.847
		L130.861,83.968z M130.699,88.704c0.486,0.521,1.116,0.936,1.927,0.936c1.08,0,3.277-0.756,4.015-4.231
		c0.703-3.312-0.882-4.249-1.962-4.249c-1.261,0-2.089,0.883-2.772,1.909L130.699,88.704z"/>
	<path d="M147.891,80.637h0.847l-0.99,4.699c-0.342,1.62-0.63,3.241-0.648,4.825h-0.792l0.216-2.701h-0.036
		c-0.666,1.423-2.484,2.899-3.979,2.899c-1.729,0-1.891-1.566-1.585-3.007l1.423-6.716h0.846l-1.332,6.319
		c-0.378,1.801-0.126,2.683,0.9,2.683c1.404,0,3.564-1.548,4.321-5.149L147.891,80.637z"/>
	<path d="M158.871,81.357h-3.493l-1.387,6.5c-0.198,0.918-0.036,1.782,1.135,1.782c1.062,0,1.98-0.792,2.574-1.692l0.774,0.198
		c-0.864,1.225-2.106,2.215-3.529,2.215c-1.224,0-2.214-0.595-1.692-3.007l1.278-5.996h-2.143l0.145-0.72h2.143l0.666-3.062h0.847
		l-0.667,3.062h3.493L158.871,81.357z"/>
	<path d="M180.471,81.357h-3.493l-1.387,6.5c-0.198,0.918-0.036,1.782,1.135,1.782c1.062,0,1.98-0.792,2.574-1.692l0.774,0.198
		c-0.864,1.225-2.106,2.215-3.529,2.215c-1.224,0-2.214-0.595-1.692-3.007l1.278-5.996h-2.143l0.145-0.72h2.143l0.666-3.062h0.847
		l-0.667,3.062h3.493L180.471,81.357z"/>
	<path d="M186.463,76.801h0.847l-1.261,5.906h0.036c0.828-1.188,2.215-2.269,3.655-2.269c0.882,0,2.124,0.702,1.674,2.791
		l-1.477,6.932h-0.846l1.278-5.978c0.252-1.207,0.468-3.025-0.937-3.025c-1.603,0-3.475,1.999-3.943,4.214l-1.026,4.789h-0.846
		L186.463,76.801z"/>
	<path d="M201.188,89.496c-1.206,0.486-2.358,0.864-3.583,0.864c-2.79,0-3.295-2.503-2.772-4.916
		c0.504-2.412,2.125-5.005,4.934-5.005c1.603,0,3.241,1.152,2.412,5.096h-6.518c-0.559,3.349,0.666,4.104,2.125,4.104
		c1.08,0,2.196-0.396,3.205-0.936L201.188,89.496z M201.476,84.814c0.433-1.639-0.107-3.655-1.98-3.655
		c-1.854,0-3.385,1.98-3.69,3.655H201.476z"/>
	<path d="M205.668,83.518c0.27-1.261,0.342-2.27,0.324-3.079h0.864l-0.036,1.242c0.702-0.756,1.566-1.242,2.503-1.242
		c0.773,0,1.098,0.468,1.224,1.152c0.612-0.612,1.387-1.152,2.215-1.152c1.225,0,1.692,0.81,1.44,1.998l-1.639,7.725h-0.846
		l1.639-7.688c0.197-0.972-0.198-1.332-0.864-1.332c-0.757,0-1.513,0.594-1.999,1.225l-1.656,7.796h-0.847l1.549-7.311
		c0.144-0.72,0.306-1.692-0.648-1.692c-0.811,0-1.692,0.666-2.16,1.387l-1.621,7.616h-0.846L205.668,83.518z"/>
	<path d="M231.553,81.357h-2.772l0.144-0.72h3.619l-2.017,9.524h-0.847L231.553,81.357z M233.642,77.882
		c-0.108,0.521-0.631,0.936-1.152,0.936c-0.522,0-0.847-0.414-0.738-0.936c0.107-0.522,0.612-0.937,1.134-0.937
		C233.407,76.946,233.749,77.36,233.642,77.882z"/>
	<path d="M238.301,90.162h-0.846l1.008-4.771c0.343-1.62,0.648-3.241,0.667-4.861h0.792l-0.252,2.736h0.036
		c0.666-1.422,2.484-2.826,3.997-2.826c1.729,0,1.891,1.494,1.584,2.935l-1.44,6.788h-0.846l1.351-6.392
		c0.233-1.099,0.558-2.611-0.919-2.611c-1.368,0-3.529,1.368-4.303,5.078L238.301,90.162z"/>
	<path d="M10.983,108.857c-0.342,1.566-0.216,2.826,1.35,2.826c1.243,0,2.233-0.936,2.467-2.07l1.927-9.057h-2.863l0.144-0.72h3.709
		l-2.017,9.507c-0.36,1.71-1.854,3.061-3.511,3.061c-2.106,0-2.431-1.746-2.053-3.547H10.983z M18.726,97.082
		c-0.108,0.521-0.63,0.936-1.152,0.936c-0.522,0-0.846-0.414-0.738-0.936c0.108-0.522,0.612-0.937,1.134-0.937
		S18.834,96.559,18.726,97.082z"/>
	<path d="M26.86,109.559c-0.072-0.522-0.09-1.08-0.018-1.621c-0.864,0.955-1.711,1.621-2.953,1.621
		c-1.747,0-2.359-1.423-2.017-3.025c0.396-1.818,1.747-3.385,3.583-3.385c0.774,0,1.603,0.306,2.197,0.63
		c0.558-2.412,0.342-3.421-1.225-3.421c-0.828,0-1.584,0.288-2.413,0.631l-0.036-0.774c0.9-0.324,1.765-0.576,2.665-0.576
		c1.747,0,2.521,1.225,2.017,3.349c-0.306,1.297-0.612,2.593-0.937,3.89c-0.216,0.918-0.162,1.782-0.072,2.574L26.86,109.559z
		 M27.455,104.446c-0.522-0.307-1.188-0.576-1.944-0.576c-1.584,0-2.503,1.332-2.791,2.736c-0.234,1.062,0.108,2.232,1.314,2.232
		c1.188,0,2.106-0.954,2.899-1.927L27.455,104.446z"/>
	<path d="M37.156,100.556h-2.773l0.144-0.72h3.619l-2.017,9.524h-0.846L37.156,100.556z M39.245,97.082
		c-0.108,0.521-0.63,0.936-1.152,0.936s-0.846-0.414-0.738-0.936c0.108-0.522,0.612-0.937,1.134-0.937
		C39.011,96.145,39.353,96.559,39.245,97.082z"/>
	<path d="M48.64,96.721h-2.809L45.993,96h3.655l-2.845,13.36h-0.845L48.64,96.721z"/>
	<path d="M57.549,107.182c0.667,0,1.099,0.559,0.955,1.225s-0.811,1.206-1.477,1.206s-1.099-0.54-0.954-1.206
		C56.217,107.741,56.883,107.182,57.549,107.182z"/>
	<path d="M70.06,96.397l-0.432,1.999l-0.99,2.431h-0.72l0.018-2.431l0.432-1.999H70.06z M72.923,96.397l-0.433,1.999l-0.99,2.431
		h-0.72l0.018-2.431l0.432-1.999H72.923z"/>
</g>
<path d="M2.143,0L1.71,1.999L0.72,4.43H0l0.018-2.431L0.45,0H2.143z M5.006,0L4.573,1.999L3.583,4.43h-0.72l0.018-2.431L3.313,0
	H5.006z"/>
<g>
	<path d="M10,129.02v-0.56h3.306v0.56H10z"/>
	<path d="M17.574,123.683h2.521c1.177,0,1.989,0.645,2.41,1.43c0.336,0.616,0.616,1.778,0.616,3.613c0,2.563-0.63,3.656-0.812,3.922
		c-0.462,0.659-1.177,1.121-2.409,1.121h-2.325V123.683z M18.232,133.208h1.247c1.106,0,2.031-0.154,2.521-1.288
		c0.392-0.896,0.42-2.228,0.42-3.194c0-0.966-0.028-2.423-0.462-3.292c-0.532-1.064-1.415-1.19-2.479-1.19h-1.247V133.208z"/>
	<path d="M30.176,133.923c-0.14-0.406-0.238-0.841-0.28-1.261c-0.518,0.742-1.064,1.261-2.031,1.261
		c-1.358,0-2.059-1.106-2.059-2.354c0-1.415,0.799-2.634,2.228-2.634c0.602,0,1.289,0.238,1.807,0.49
		c0.042-1.877-0.294-2.661-1.513-2.661c-0.645,0-1.19,0.225-1.779,0.49l-0.154-0.603c0.645-0.252,1.275-0.448,1.975-0.448
		c1.359,0,2.171,0.953,2.129,2.605l-0.084,3.026c-0.014,0.714,0.168,1.387,0.364,2.003L30.176,133.923z M29.797,129.944
		c-0.462-0.238-1.022-0.448-1.611-0.448c-1.232,0-1.723,1.037-1.723,2.129c0,0.827,0.462,1.737,1.4,1.737
		c0.925,0,1.485-0.742,1.933-1.499V129.944z"/>
	<path d="M39.556,126.358l-2.339,7.508h-0.771l-2.339-7.508h0.701l2.017,6.514l2.031-6.514H39.556z"/>
	<path d="M45.099,126.919h-2.157v-0.561h2.815v7.41h-0.658V126.919z M46.149,124.216c0,0.406-0.336,0.728-0.742,0.728
		s-0.729-0.321-0.729-0.728s0.322-0.729,0.729-0.729S46.149,123.81,46.149,124.216z"/>
	<path d="M56.062,131.163c0,0.91,0.07,1.807,0.336,2.676l-0.616,0.084l-0.266-1.219c-0.393,0.771-1.107,1.219-1.975,1.219
		c-1.247,0-2.872-1.022-2.872-3.908c0-2.97,1.891-3.811,2.914-3.811c0.658,0,1.316,0.225,1.821,0.631v-3.46h0.659V131.163z
		 M55.403,127.493c-0.462-0.406-1.037-0.729-1.653-0.729c-0.84,0-2.423,0.574-2.423,3.292c0,2.563,1.387,3.306,2.227,3.306
		c0.938,0,1.541-0.687,1.849-1.484V127.493z"/>
	<path d="M67.917,133.769v-10.086h2.465c1.471,0,2.493,0.925,2.493,2.466c0,1.106-0.63,1.849-1.611,2.283
		c1.303,0.378,2.059,1.316,2.059,2.676c0,1.442-0.924,2.661-2.521,2.661H67.917z M69.598,128.235c1.723,0,2.62-0.84,2.62-2.129
		c0-1.078-0.462-1.863-2.143-1.863h-1.499v3.992H69.598z M70.69,133.208c0.827,0,1.975-0.603,1.975-2.073
		c0-1.219-0.854-2.339-2.354-2.339h-1.737v4.412H70.69z"/>
	<path d="M76.022,130.057c0-2.886,1.485-3.853,2.83-3.853c1.233,0,2.844,0.827,2.844,3.853c0,3.012-1.597,3.866-2.844,3.866
		S76.022,133.082,76.022,130.057z M81.038,130.057c0-1.442-0.364-3.292-2.186-3.292c-1.807,0-2.171,1.85-2.171,3.292
		c0,1.457,0.364,3.306,2.171,3.306C80.673,133.362,81.038,131.499,81.038,130.057z"/>
	<path d="M85.403,133.769h-0.659v-3.712c0-1.261-0.042-2.521-0.294-3.782h0.616l0.266,2.129h0.028
		c0.28-1.106,1.457-2.199,2.634-2.199c1.345,0,1.723,1.163,1.723,2.283v5.281h-0.658v-4.973c0-0.854,0-2.031-1.148-2.031
		c-1.065,0-2.507,1.064-2.507,3.95V133.769z"/>
	<path d="M98.355,126.358l-2.339,7.508h-0.771l-2.339-7.508h0.701l2.017,6.514l2.031-6.514H98.355z"/>
	<path d="M103.897,126.919h-2.157v-0.561h2.815v7.41h-0.658V126.919z M104.948,124.216c0,0.406-0.336,0.728-0.742,0.728
		s-0.729-0.321-0.729-0.728s0.322-0.729,0.729-0.729S104.948,123.81,104.948,124.216z"/>
	<path d="M112.2,123.936h-2.186v-0.561h2.844v10.394H112.2V123.936z"/>
	<path d="M120.599,123.936h-2.186v-0.561h2.844v10.394h-0.658V123.936z"/>
	<path d="M130.974,133.923c-0.14-0.406-0.237-0.841-0.279-1.261c-0.519,0.742-1.065,1.261-2.031,1.261
		c-1.359,0-2.06-1.106-2.06-2.354c0-1.415,0.799-2.634,2.228-2.634c0.603,0,1.288,0.238,1.807,0.49
		c0.042-1.877-0.294-2.661-1.513-2.661c-0.645,0-1.19,0.225-1.779,0.49l-0.153-0.603c0.644-0.252,1.274-0.448,1.975-0.448
		c1.358,0,2.171,0.953,2.129,2.605l-0.084,3.026c-0.014,0.714,0.168,1.387,0.364,2.003L130.974,133.923z M130.596,129.944
		c-0.462-0.238-1.022-0.448-1.61-0.448c-1.233,0-1.724,1.037-1.724,2.129c0,0.827,0.463,1.737,1.401,1.737
		c0.924,0,1.484-0.742,1.933-1.499V129.944z"/>
	<path d="M137.497,126.919h-2.157v-0.561h2.816v7.41h-0.659V126.919z M138.547,124.216c0,0.406-0.336,0.728-0.742,0.728
		s-0.729-0.321-0.729-0.728s0.322-0.729,0.729-0.729S138.547,123.81,138.547,124.216z"/>
	<path d="M144.203,133.769h-0.658v-3.712c0-1.261-0.042-2.521-0.295-3.782h0.617l0.266,2.129h0.028
		c0.28-1.106,1.456-2.199,2.633-2.199c1.345,0,1.724,1.163,1.724,2.283v5.281h-0.659v-4.973c0-0.854,0-2.031-1.148-2.031
		c-1.064,0-2.507,1.064-2.507,3.95V133.769z"/>
</g>
</svg>
