<?xml version="1.0" encoding="utf-8"?>
<!-- Generator: Adobe Illustrator 17.0.0, SVG Export Plug-In . SVG Version: 6.00 Build 0)  -->
<!DOCTYPE svg PUBLIC "-//W3C//DTD SVG 1.1//EN" "http://www.w3.org/Graphics/SVG/1.1/DTD/svg11.dtd">
<svg version="1.1" id="Layer_1" xmlns="http://www.w3.org/2000/svg" xmlns:xlink="http://www.w3.org/1999/xlink" x="0px" y="0px"
	 width="489.878px" height="202.424px" viewBox="0 0 489.878 202.424" enable-background="new 0 0 489.878 202.424"
	 xml:space="preserve">
<g>
	<path fill="#010101" d="M22.245,196.994v-0.6h3.54v0.6H22.245z"/>
	<g>
		<path fill="#010101" d="M25.109,19.949h0.06l5.37-19.289h1.65L25.89,22.469H24l-0.87-10.859L17.73,22.469h-1.89L18.78,0.66h1.65
			l-2.85,19.289h0.06l6.27-12L25.109,19.949z"/>
		<path fill="#010101" d="M45.179,21.149c-2.01,0.81-3.93,1.44-5.97,1.44c-4.649,0-5.49-4.17-4.62-8.19
			c0.84-4.02,3.54-8.339,8.22-8.339c2.67,0,5.4,1.92,4.02,8.49H35.969c-0.93,5.58,1.11,6.839,3.54,6.839c1.8,0,3.66-0.66,5.34-1.56
			L45.179,21.149z M45.659,13.35c0.72-2.73-0.18-6.09-3.3-6.09c-3.09,0-5.64,3.3-6.149,6.09H45.659z"/>
		<path fill="#010101" d="M75.928,0l-1.59,7.41c1.26-0.87,2.79-1.35,4.2-1.35c2.19,0,5.85,1.8,4.5,8.16
			c-1.32,6.18-5.28,8.37-7.92,8.37c-1.86,0-3.21-0.96-3.69-2.61l-1.11,2.61l-1.29-0.18c0.96-1.86,1.53-3.78,1.95-5.729L74.518,0
			H75.928z M72.058,18.209c0.42,1.71,1.17,3.18,3.27,3.18c1.8,0,5.1-1.56,6.27-7.08c1.26-5.82-1.89-7.05-3.689-7.05
			c-1.35,0-2.7,0.69-3.87,1.56L72.058,18.209z"/>
		<path fill="#010101" d="M100.347,6.39h1.41l-1.65,7.83c-0.57,2.7-1.05,5.4-1.08,8.04h-1.32l0.36-4.5h-0.06
			c-1.11,2.37-4.14,4.83-6.629,4.83c-2.88,0-3.15-2.61-2.64-5.01l2.37-11.189h1.41l-2.22,10.529c-0.63,3-0.21,4.47,1.5,4.47
			c2.34,0,5.939-2.58,7.2-8.58L100.347,6.39z"/>
		<path fill="#010101" d="M113.787,7.59h-4.62l0.24-1.2h6.03l-3.36,15.869h-1.41L113.787,7.59z M117.267,1.8
			c-0.18,0.87-1.05,1.56-1.92,1.56c-0.87,0-1.41-0.69-1.23-1.56c0.18-0.87,1.02-1.56,1.89-1.56
			C116.877,0.24,117.447,0.93,117.267,1.8z"/>
		<path fill="#010101" d="M132.927,1.2h-4.68l0.27-1.2h6.09l-4.74,22.259h-1.41L132.927,1.2z"/>
		<path fill="#010101" d="M154.646,7.59h-5.82l-2.31,10.83c-0.33,1.53-0.06,2.97,1.89,2.97c1.77,0,3.3-1.32,4.29-2.82l1.29,0.33
			c-1.44,2.04-3.51,3.69-5.88,3.69c-2.04,0-3.689-0.99-2.82-5.01l2.13-9.99h-3.57l0.24-1.2h3.57l1.11-5.1h1.41l-1.11,5.1h5.82
			L154.646,7.59z"/>
		<path fill="#010101" d="M186.625,22.589c-0.12-0.87-0.15-1.8-0.03-2.7c-1.44,1.59-2.85,2.7-4.92,2.7c-2.91,0-3.93-2.37-3.36-5.04
			c0.66-3.03,2.91-5.64,5.97-5.64c1.29,0,2.67,0.51,3.66,1.05c0.93-4.02,0.57-5.7-2.04-5.7c-1.38,0-2.64,0.48-4.02,1.05l-0.06-1.29
			c1.5-0.54,2.94-0.96,4.44-0.96c2.91,0,4.2,2.04,3.36,5.58c-0.51,2.16-1.02,4.32-1.56,6.48c-0.36,1.53-0.27,2.97-0.12,4.29
			L186.625,22.589z M187.615,14.07c-0.87-0.51-1.98-0.96-3.24-0.96c-2.64,0-4.169,2.22-4.649,4.56c-0.39,1.77,0.18,3.72,2.189,3.72
			c1.98,0,3.51-1.59,4.83-3.21L187.615,14.07z"/>
		<path fill="#010101" d="M197.035,22.259h-1.41l1.68-7.95c0.57-2.7,1.08-5.4,1.11-8.1h1.32l-0.42,4.56h0.06
			c1.11-2.37,4.14-4.709,6.66-4.709c2.88,0,3.15,2.49,2.64,4.89l-2.4,11.31h-1.41l2.25-10.649c0.39-1.83,0.93-4.35-1.53-4.35
			c-2.28,0-5.88,2.28-7.169,8.46L197.035,22.259z"/>
		<path fill="#010101" d="M243.173,21.149c-2.01,0.81-3.93,1.44-5.97,1.44c-4.65,0-5.49-4.17-4.62-8.19
			c0.84-4.02,3.54-8.339,8.22-8.339c2.67,0,5.4,1.92,4.02,8.49h-10.859c-0.93,5.58,1.11,6.839,3.54,6.839c1.8,0,3.66-0.66,5.34-1.56
			L243.173,21.149z M243.653,13.35c0.72-2.73-0.18-6.09-3.3-6.09c-3.09,0-5.64,3.3-6.149,6.09H243.653z"/>
		<path fill="#010101" d="M251.033,22.259h-1.41l1.68-7.95c0.57-2.7,1.08-5.4,1.11-8.1h1.32l-0.42,4.56h0.06
			c1.11-2.37,4.14-4.709,6.66-4.709c2.88,0,3.15,2.49,2.64,4.89l-2.4,11.31h-1.41l2.25-10.649c0.39-1.83,0.93-4.35-1.53-4.35
			c-2.28,0-5.88,2.28-7.169,8.46L251.033,22.259z"/>
		<path fill="#010101" d="M282.143,6.39l-8.4,16.079h-1.65l-1.62-16.079h1.5l1.38,13.949l7.29-13.949H282.143z"/>
		<path fill="#010101" d="M293.782,7.59h-4.62l0.24-1.2h6.03l-3.36,15.869h-1.41L293.782,7.59z M297.262,1.8
			c-0.18,0.87-1.05,1.56-1.92,1.56c-0.87,0-1.41-0.69-1.23-1.56c0.18-0.87,1.02-1.56,1.89-1.56
			C296.872,0.24,297.442,0.93,297.262,1.8z"/>
		<path fill="#010101" d="M306.472,22.259h-1.41l2.34-10.979l0.51-5.07h1.35l-0.42,4.44l0.06,0.06c1.44-2.19,3.63-4.65,6.36-4.65
			c2.64,0,2.76,2.64,2.31,4.8h-1.41c0.27-1.47,0.63-3.6-1.29-3.6c-1.62,0-5.73,2.52-7.02,8.55L306.472,22.259z"/>
		<path fill="#010101" d="M322.821,14.31c1.32-6.18,4.95-8.25,7.83-8.25c2.64,0,5.7,1.77,4.32,8.25c-1.35,6.45-5.16,8.28-7.83,8.28
			C324.472,22.589,321.441,20.79,322.821,14.31z M333.561,14.31c0.66-3.09,0.72-7.05-3.18-7.05c-3.87,0-5.49,3.96-6.15,7.05
			c-0.66,3.12-0.72,7.08,3.15,7.08C331.281,21.389,332.901,17.399,333.561,14.31z"/>
		<path fill="#010101" d="M341.031,22.259h-1.41l1.68-7.95c0.57-2.7,1.08-5.4,1.11-8.1h1.32l-0.42,4.56h0.06
			c1.11-2.37,4.14-4.709,6.66-4.709c2.88,0,3.15,2.49,2.64,4.89l-2.4,11.31h-1.41l2.25-10.649c0.39-1.83,0.93-4.35-1.53-4.35
			c-2.28,0-5.88,2.28-7.169,8.46L341.031,22.259z"/>
		<path fill="#010101" d="M358.641,11.19c0.45-2.1,0.57-3.78,0.54-5.13h1.44l-0.06,2.07c1.17-1.26,2.61-2.07,4.17-2.07
			c1.29,0,1.83,0.78,2.04,1.92c1.02-1.02,2.31-1.92,3.69-1.92c2.04,0,2.82,1.35,2.4,3.33l-2.73,12.87h-1.41l2.73-12.81
			c0.33-1.62-0.33-2.22-1.44-2.22c-1.26,0-2.52,0.99-3.33,2.04l-2.76,12.989h-1.41l2.58-12.18c0.24-1.2,0.51-2.82-1.08-2.82
			c-1.35,0-2.82,1.11-3.6,2.31l-2.7,12.689h-1.41L358.641,11.19z"/>
		<path fill="#010101" d="M387.169,21.149c-2.01,0.81-3.93,1.44-5.97,1.44c-4.65,0-5.49-4.17-4.62-8.19
			c0.84-4.02,3.54-8.339,8.22-8.339c2.67,0,5.4,1.92,4.02,8.49H377.96c-0.93,5.58,1.11,6.839,3.54,6.839c1.8,0,3.66-0.66,5.34-1.56
			L387.169,21.149z M387.649,13.35c0.72-2.73-0.18-6.09-3.3-6.09c-3.09,0-5.64,3.3-6.149,6.09H387.649z"/>
		<path fill="#010101" d="M395.029,22.259h-1.41l1.68-7.95c0.57-2.7,1.08-5.4,1.11-8.1h1.32l-0.42,4.56h0.06
			c1.11-2.37,4.14-4.709,6.66-4.709c2.88,0,3.15,2.49,2.64,4.89l-2.4,11.31h-1.41l2.25-10.649c0.39-1.83,0.93-4.35-1.53-4.35
			c-2.28,0-5.88,2.28-7.169,8.46L395.029,22.259z"/>
		<path fill="#010101" d="M424.639,7.59h-5.82l-2.31,10.83c-0.33,1.53-0.06,2.97,1.89,2.97c1.77,0,3.3-1.32,4.29-2.82l1.29,0.33
			c-1.44,2.04-3.51,3.69-5.88,3.69c-2.04,0-3.689-0.99-2.82-5.01l2.13-9.99h-3.57l0.24-1.2h3.57l1.11-5.1h1.41l-1.11,5.1h5.82
			L424.639,7.59z"/>
		<path fill="#010101" d="M28.649,52.59h-5.82l-2.31,10.83c-0.33,1.53-0.06,2.97,1.89,2.97c1.77,0,3.3-1.32,4.29-2.82l1.29,0.33
			c-1.44,2.04-3.51,3.69-5.88,3.69c-2.04,0-3.689-0.99-2.82-5.01l2.13-9.99h-3.57l0.24-1.2h3.57l1.11-5.1h1.41l-1.11,5.1h5.82
			L28.649,52.59z"/>
		<path fill="#010101" d="M38.639,45h1.41l-2.1,9.84h0.06c1.38-1.98,3.69-3.78,6.09-3.78c1.47,0,3.54,1.17,2.79,4.65l-2.46,11.549
			h-1.41l2.13-9.959c0.42-2.01,0.78-5.04-1.56-5.04c-2.67,0-5.79,3.33-6.57,7.02l-1.71,7.979h-1.41L38.639,45z"/>
		<path fill="#010101" d="M60.628,67.589c-0.12-0.87-0.15-1.8-0.03-2.7c-1.44,1.59-2.85,2.7-4.92,2.7c-2.91,0-3.93-2.37-3.36-5.04
			c0.66-3.03,2.91-5.64,5.97-5.64c1.29,0,2.67,0.51,3.66,1.05c0.93-4.02,0.57-5.7-2.04-5.7c-1.38,0-2.64,0.48-4.02,1.05l-0.06-1.29
			c1.5-0.54,2.94-0.96,4.44-0.96c2.91,0,4.2,2.04,3.36,5.58c-0.51,2.16-1.02,4.32-1.56,6.48c-0.36,1.53-0.27,2.97-0.12,4.29
			L60.628,67.589z M61.619,59.07c-0.87-0.51-1.98-0.96-3.24-0.96c-2.64,0-4.169,2.22-4.649,4.56c-0.39,1.77,0.18,3.72,2.19,3.72
			c1.979,0,3.51-1.59,4.83-3.21L61.619,59.07z"/>
		<path fill="#010101" d="M82.648,52.59h-5.82l-2.31,10.83c-0.33,1.53-0.06,2.97,1.89,2.97c1.77,0,3.3-1.32,4.29-2.82l1.29,0.33
			c-1.44,2.04-3.51,3.69-5.88,3.69c-2.04,0-3.689-0.99-2.82-5.01l2.13-9.99h-3.57l0.24-1.2h3.57l1.11-5.1h1.41l-1.11,5.1h5.82
			L82.648,52.59z"/>
		<path fill="#010101" d="M114.627,67.589c-0.12-0.87-0.15-1.8-0.03-2.7c-1.44,1.59-2.85,2.7-4.92,2.7c-2.91,0-3.93-2.37-3.36-5.04
			c0.66-3.03,2.91-5.64,5.97-5.64c1.29,0,2.67,0.51,3.66,1.05c0.93-4.02,0.57-5.7-2.04-5.7c-1.38,0-2.64,0.48-4.02,1.05l-0.06-1.29
			c1.5-0.54,2.94-0.96,4.44-0.96c2.91,0,4.2,2.04,3.36,5.58c-0.51,2.16-1.02,4.32-1.56,6.48c-0.36,1.53-0.27,2.97-0.12,4.29
			L114.627,67.589z M115.617,59.07c-0.87-0.51-1.98-0.96-3.24-0.96c-2.64,0-4.169,2.22-4.649,4.56c-0.39,1.77,0.18,3.72,2.189,3.72
			c1.98,0,3.51-1.59,4.83-3.21L115.617,59.07z"/>
		<path fill="#010101" d="M132.927,46.2h-4.68l0.27-1.2h6.09l-4.74,22.259h-1.41L132.927,46.2z"/>
		<path fill="#010101" d="M150.926,46.2h-4.68l0.27-1.2h6.09l-4.74,22.259h-1.41L150.926,46.2z"/>
		<path fill="#010101" d="M160.826,59.31c1.32-6.18,4.95-8.25,7.83-8.25c2.64,0,5.7,1.77,4.32,8.25c-1.35,6.45-5.16,8.28-7.83,8.28
			S159.446,65.79,160.826,59.31z M171.565,59.31c0.66-3.09,0.72-7.05-3.18-7.05c-3.87,0-5.49,3.96-6.15,7.05
			c-0.66,3.12-0.72,7.08,3.15,7.08C169.286,66.389,170.905,62.399,171.565,59.31z"/>
		<path fill="#010101" d="M178.855,51.39h1.56l-0.72,13.709h0.06l4.86-9.629h1.53l0.72,9.629h0.06l5.1-13.709h1.53l-6.209,16.079
			h-1.53l-0.84-10.26l-5.16,10.26h-1.53L178.855,51.39z"/>
		<path fill="#010101" d="M207.714,53.91c-1.08-0.9-2.34-1.65-3.93-1.65s-3.39,1.2-3.75,2.88c-0.39,1.86,1.5,2.73,2.82,3.27
			c2.22,0.93,4.56,1.89,3.9,4.98c-0.54,2.64-3.21,4.2-5.64,4.2c-1.98,0-4.29-1.23-5.43-2.55l1.02-1.14
			c1.02,1.29,2.85,2.49,4.709,2.49c1.77,0,3.51-0.99,3.93-2.91c0.51-2.37-1.2-3.06-2.91-3.78c-2.01-0.84-4.38-1.86-3.78-4.68
			c0.48-2.25,3.12-3.96,5.49-3.96c1.83,0,3.18,0.63,4.41,1.68L207.714,53.91z"/>
		<path fill="#010101" d="M233.964,56.94c0.42-1.92,0.66-3.84,0.51-5.7l1.35-0.18v2.61h0.06c1.14-1.65,2.88-2.61,4.74-2.61
			c2.64,0,5.7,2.13,4.35,8.37c-1.35,6.36-5.79,8.16-7.95,8.16c-1.41,0-2.73-0.48-3.63-1.35l-1.56,7.38h-1.41L233.964,56.94z
			 M233.694,64.83c0.81,0.87,1.86,1.56,3.21,1.56c1.8,0,5.46-1.26,6.69-7.05c1.17-5.52-1.47-7.08-3.27-7.08
			c-2.1,0-3.48,1.47-4.62,3.18L233.694,64.83z"/>
		<path fill="#010101" d="M261.173,66.149c-2.01,0.81-3.93,1.44-5.97,1.44c-4.649,0-5.49-4.17-4.62-8.19
			c0.84-4.02,3.54-8.339,8.22-8.339c2.67,0,5.4,1.92,4.02,8.49h-10.859c-0.93,5.58,1.11,6.839,3.54,6.839c1.8,0,3.66-0.66,5.34-1.56
			L261.173,66.149z M261.653,58.35c0.72-2.73-0.18-6.09-3.3-6.09c-3.09,0-5.64,3.3-6.149,6.09H261.653z"/>
		<path fill="#010101" d="M268.823,59.31c1.32-6.18,4.95-8.25,7.83-8.25c2.64,0,5.7,1.77,4.32,8.25c-1.35,6.45-5.16,8.28-7.83,8.28
			S267.443,65.79,268.823,59.31z M279.562,59.31c0.66-3.09,0.72-7.05-3.18-7.05c-3.87,0-5.49,3.96-6.15,7.05
			c-0.66,3.12-0.72,7.08,3.15,7.08C277.283,66.389,278.902,62.399,279.562,59.31z"/>
		<path fill="#010101" d="M287.962,56.94c0.42-1.92,0.66-3.84,0.51-5.7l1.35-0.18v2.61h0.06c1.14-1.65,2.88-2.61,4.74-2.61
			c2.64,0,5.7,2.13,4.35,8.37c-1.35,6.36-5.79,8.16-7.95,8.16c-1.41,0-2.73-0.48-3.63-1.35l-1.56,7.38h-1.41L287.962,56.94z
			 M287.692,64.83c0.81,0.87,1.86,1.56,3.21,1.56c1.8,0,5.46-1.26,6.689-7.05c1.17-5.52-1.47-7.08-3.27-7.08
			c-2.1,0-3.48,1.47-4.62,3.18L287.692,64.83z"/>
		<path fill="#010101" d="M312.922,46.2h-4.68l0.27-1.2h6.09l-4.74,22.259h-1.41L312.922,46.2z"/>
		<path fill="#010101" d="M333.171,66.149c-2.01,0.81-3.93,1.44-5.97,1.44c-4.649,0-5.49-4.17-4.62-8.19
			c0.84-4.02,3.54-8.339,8.22-8.339c2.67,0,5.4,1.92,4.02,8.49h-10.859c-0.93,5.58,1.11,6.839,3.54,6.839c1.8,0,3.66-0.66,5.34-1.56
			L333.171,66.149z M333.651,58.35c0.72-2.73-0.18-6.09-3.3-6.09c-3.09,0-5.64,3.3-6.149,6.09H333.651z"/>
		<path fill="#010101" d="M370.64,52.59h-5.82l-2.31,10.83c-0.33,1.53-0.06,2.97,1.89,2.97c1.77,0,3.3-1.32,4.29-2.82l1.29,0.33
			c-1.44,2.04-3.51,3.69-5.88,3.69c-2.04,0-3.689-0.99-2.82-5.01l2.13-9.99h-3.57l0.24-1.2h3.57l1.11-5.1h1.41l-1.11,5.1h5.82
			L370.64,52.59z"/>
		<path fill="#010101" d="M376.82,59.31c1.32-6.18,4.95-8.25,7.83-8.25c2.64,0,5.7,1.77,4.32,8.25c-1.35,6.45-5.16,8.28-7.83,8.28
			S375.44,65.79,376.82,59.31z M387.56,59.31c0.66-3.09,0.72-7.05-3.18-7.05c-3.87,0-5.49,3.96-6.15,7.05
			c-0.66,3.12-0.72,7.08,3.15,7.08C385.28,66.389,386.899,62.399,387.56,59.31z"/>
		<path fill="#010101" d="M24.93,91.2h-4.68l0.27-1.2h6.09l-4.74,22.259h-1.41L24.93,91.2z"/>
		<path fill="#010101" d="M45.179,111.149c-2.01,0.81-3.93,1.44-5.97,1.44c-4.649,0-5.49-4.17-4.62-8.19
			c0.84-4.02,3.54-8.339,8.22-8.339c2.67,0,5.4,1.92,4.02,8.49H35.969c-0.93,5.58,1.11,6.839,3.54,6.839c1.8,0,3.66-0.66,5.34-1.56
			L45.179,111.149z M45.659,103.35c0.72-2.73-0.18-6.09-3.3-6.09c-3.09,0-5.64,3.3-6.149,6.09H45.659z"/>
		<path fill="#010101" d="M52.559,114.329c0.69,1.11,2.07,1.8,3.54,1.8c1.77,0,4.29-1.29,5.16-5.28l0.42-1.95
			c-1.32,1.14-3.33,1.95-4.89,1.95c-3.78,0-4.68-3.78-3.99-7.08c0.78-3.66,3.15-7.709,7.47-7.709c1.77,0,2.79,0.78,3.93,1.83
			l0.81-1.83h1.44c-1.32,2.73-1.92,5.58-2.49,8.37l-1.38,6.6c-0.99,4.68-4.59,6.3-7.02,6.3c-1.65,0-3.3-0.96-4.17-2.13
			L52.559,114.329z M63.599,99.57c-0.66-1.32-1.98-2.31-3.66-2.31c-3.27,0-5.1,3.54-5.67,6.24c-1.05,5.01,1.59,6.15,2.88,6.15
			c1.62,0,3.69-1.02,4.83-2.43L63.599,99.57z"/>
		<path fill="#010101" d="M78.628,112.589c-0.12-0.87-0.15-1.8-0.03-2.7c-1.44,1.59-2.85,2.7-4.92,2.7c-2.91,0-3.93-2.37-3.36-5.04
			c0.66-3.03,2.91-5.64,5.97-5.64c1.29,0,2.67,0.51,3.66,1.05c0.93-4.02,0.57-5.7-2.04-5.7c-1.38,0-2.64,0.48-4.02,1.05l-0.06-1.29
			c1.5-0.54,2.94-0.96,4.44-0.96c2.91,0,4.2,2.04,3.36,5.58c-0.51,2.16-1.02,4.32-1.56,6.48c-0.36,1.53-0.27,2.97-0.12,4.29
			L78.628,112.589z M79.618,104.07c-0.87-0.51-1.98-0.96-3.24-0.96c-2.64,0-4.169,2.22-4.649,4.56c-0.39,1.77,0.18,3.72,2.189,3.72
			c1.98,0,3.51-1.59,4.83-3.21L79.618,104.07z"/>
		<path fill="#010101" d="M96.928,91.2h-4.68l0.27-1.2h6.09l-4.74,22.259h-1.41L96.928,91.2z"/>
		<path fill="#010101" d="M114.927,91.2h-4.68l0.27-1.2h6.09l-4.74,22.259h-1.41L114.927,91.2z"/>
		<path fill="#010101" d="M138.716,96.39l-9.12,15.089c-1.32,2.16-3.45,5.85-6.24,5.85c-1.8,0-2.82-1.41-3-3.03l1.32-0.63
			c0.15,1.08,0.63,2.459,1.95,2.459c1.53,0,2.7-1.77,3.48-2.97l1.77-2.73l-2.19-14.039h1.56l1.71,12.179l7.14-12.179H138.716z"/>
		<path fill="#010101" d="M171.355,106.68c-0.42,1.95-0.69,3.87-0.51,5.729l-1.35,0.18l-0.03-2.61c-1.2,1.65-2.91,2.61-4.77,2.61
			c-2.67,0-5.7-2.19-4.38-8.37c1.35-6.36,5.79-8.16,7.979-8.16c1.41,0,2.7,0.48,3.6,1.35l1.59-7.41h1.41L171.355,106.68z
			 M171.596,98.82c-0.81-0.87-1.89-1.56-3.21-1.56c-1.8,0-5.43,1.23-6.69,7.05c-1.17,5.49,1.47,7.08,3.27,7.08
			c2.01,0,3.63-1.47,4.65-3.18L171.596,98.82z"/>
		<path fill="#010101" d="M178.825,104.31c1.32-6.18,4.95-8.25,7.83-8.25c2.64,0,5.7,1.77,4.32,8.25c-1.35,6.45-5.16,8.28-7.83,8.28
			C180.476,112.589,177.445,110.79,178.825,104.31z M189.565,104.31c0.66-3.09,0.72-7.05-3.18-7.05c-3.87,0-5.49,3.96-6.15,7.05
			c-0.66,3.12-0.72,7.08,3.15,7.08C187.285,111.389,188.905,107.399,189.565,104.31z"/>
		<path fill="#010101" d="M226.644,97.59h-5.82l-2.31,10.83c-0.33,1.53-0.06,2.97,1.89,2.97c1.77,0,3.3-1.32,4.29-2.82l1.29,0.33
			c-1.44,2.04-3.51,3.69-5.88,3.69c-2.04,0-3.689-0.99-2.82-5.01l2.13-9.99h-3.57l0.24-1.2h3.57l1.11-5.1h1.41l-1.11,5.1h5.82
			L226.644,97.59z"/>
		<path fill="#010101" d="M236.634,90h1.41l-2.1,9.84h0.06c1.38-1.98,3.69-3.78,6.09-3.78c1.47,0,3.54,1.17,2.79,4.65l-2.46,11.549
			h-1.41l2.13-9.959c0.42-2.01,0.78-5.04-1.56-5.04c-2.67,0-5.79,3.33-6.57,7.02l-1.71,7.979h-1.41L236.634,90z"/>
		<path fill="#010101" d="M261.173,111.149c-2.01,0.81-3.93,1.44-5.97,1.44c-4.649,0-5.49-4.17-4.62-8.19
			c0.84-4.02,3.54-8.339,8.22-8.339c2.67,0,5.4,1.92,4.02,8.49h-10.859c-0.93,5.58,1.11,6.839,3.54,6.839c1.8,0,3.66-0.66,5.34-1.56
			L261.173,111.149z M261.653,103.35c0.72-2.73-0.18-6.09-3.3-6.09c-3.09,0-5.64,3.3-6.149,6.09H261.653z"/>
		<path fill="#010101" d="M298.642,97.59h-5.82l-2.31,10.83c-0.33,1.53-0.06,2.97,1.89,2.97c1.77,0,3.3-1.32,4.29-2.82l1.29,0.33
			c-1.44,2.04-3.51,3.69-5.88,3.69c-2.04,0-3.689-0.99-2.82-5.01l2.13-9.99h-3.57l0.24-1.2h3.57l1.11-5.1h1.41l-1.11,5.1h5.82
			L298.642,97.59z"/>
		<path fill="#010101" d="M308.632,90h1.41l-2.1,9.84h0.06c1.38-1.98,3.69-3.78,6.09-3.78c1.47,0,3.54,1.17,2.79,4.65l-2.46,11.549
			h-1.41l2.13-9.959c0.42-2.01,0.78-5.04-1.56-5.04c-2.67,0-5.79,3.33-6.57,7.02l-1.71,7.979h-1.41L308.632,90z"/>
		<path fill="#010101" d="M329.781,97.59h-4.62l0.24-1.2h6.03l-3.36,15.869h-1.41L329.781,97.59z M333.261,91.8
			c-0.18,0.87-1.05,1.56-1.92,1.56c-0.87,0-1.41-0.69-1.23-1.56c0.18-0.87,1.02-1.56,1.89-1.56
			C332.871,90.24,333.441,90.93,333.261,91.8z"/>
		<path fill="#010101" d="M341.031,112.259h-1.41l1.68-7.95c0.57-2.7,1.08-5.4,1.11-8.1h1.32l-0.42,4.56h0.06
			c1.11-2.37,4.14-4.709,6.66-4.709c2.88,0,3.15,2.49,2.64,4.89l-2.4,11.31h-1.41l2.25-10.649c0.39-1.83,0.93-4.35-1.53-4.35
			c-2.28,0-5.88,2.28-7.169,8.46L341.031,112.259z"/>
		<path fill="#010101" d="M358.551,114.329c0.69,1.11,2.07,1.8,3.54,1.8c1.77,0,4.29-1.29,5.16-5.28l0.42-1.95
			c-1.32,1.14-3.33,1.95-4.89,1.95c-3.78,0-4.68-3.78-3.99-7.08c0.78-3.66,3.15-7.709,7.47-7.709c1.77,0,2.79,0.78,3.93,1.83
			l0.81-1.83h1.44c-1.32,2.73-1.92,5.58-2.49,8.37l-1.38,6.6c-0.99,4.68-4.59,6.3-7.02,6.3c-1.65,0-3.3-0.96-4.17-2.13
			L358.551,114.329z M369.59,99.57c-0.66-1.32-1.979-2.31-3.66-2.31c-3.27,0-5.1,3.54-5.67,6.24c-1.05,5.01,1.59,6.15,2.88,6.15
			c1.62,0,3.69-1.02,4.83-2.43L369.59,99.57z"/>
		<path fill="#010101" d="M387.709,98.91c-1.08-0.9-2.34-1.65-3.93-1.65s-3.39,1.2-3.75,2.88c-0.39,1.86,1.5,2.73,2.82,3.27
			c2.22,0.93,4.56,1.89,3.9,4.98c-0.54,2.64-3.21,4.2-5.64,4.2c-1.98,0-4.29-1.23-5.43-2.55l1.02-1.14
			c1.02,1.29,2.85,2.49,4.709,2.49c1.77,0,3.51-0.99,3.93-2.91c0.51-2.37-1.2-3.06-2.91-3.78c-2.01-0.84-4.38-1.86-3.78-4.68
			c0.48-2.25,3.12-3.96,5.49-3.96c1.83,0,3.18,0.63,4.41,1.68L387.709,98.91z"/>
		<path fill="#010101" d="M424.639,97.59h-5.82l-2.31,10.83c-0.33,1.53-0.06,2.97,1.89,2.97c1.77,0,3.3-1.32,4.29-2.82l1.29,0.33
			c-1.44,2.04-3.51,3.69-5.88,3.69c-2.04,0-3.689-0.99-2.82-5.01l2.13-9.99h-3.57l0.24-1.2h3.57l1.11-5.1h1.41l-1.11,5.1h5.82
			L424.639,97.59z"/>
		<path fill="#010101" d="M434.629,90h1.409l-2.1,9.84h0.06c1.38-1.98,3.69-3.78,6.09-3.78c1.471,0,3.54,1.17,2.79,4.65
			l-2.46,11.549h-1.41l2.13-9.959c0.421-2.01,0.78-5.04-1.56-5.04c-2.67,0-5.79,3.33-6.569,7.02l-1.71,7.979h-1.41L434.629,90z"/>
		<path fill="#010101" d="M456.618,112.589c-0.12-0.87-0.15-1.8-0.03-2.7c-1.44,1.59-2.85,2.7-4.92,2.7
			c-2.91,0-3.93-2.37-3.359-5.04c0.659-3.03,2.909-5.64,5.97-5.64c1.289,0,2.669,0.51,3.659,1.05c0.93-4.02,0.57-5.7-2.04-5.7
			c-1.38,0-2.64,0.48-4.02,1.05l-0.06-1.29c1.5-0.54,2.939-0.96,4.439-0.96c2.91,0,4.2,2.04,3.359,5.58
			c-0.51,2.16-1.02,4.32-1.56,6.48c-0.36,1.53-0.27,2.97-0.12,4.29L456.618,112.589z M457.607,104.07
			c-0.87-0.51-1.979-0.96-3.239-0.96c-2.641,0-4.17,2.22-4.65,4.56c-0.39,1.77,0.181,3.72,2.19,3.72c1.979,0,3.51-1.59,4.829-3.21
			L457.607,104.07z"/>
		<path fill="#010101" d="M478.638,97.59h-5.82l-2.31,10.83c-0.33,1.53-0.06,2.97,1.89,2.97c1.771,0,3.3-1.32,4.29-2.82l1.29,0.33
			c-1.439,2.04-3.51,3.69-5.88,3.69c-2.04,0-3.689-0.99-2.819-5.01l2.13-9.99h-3.57l0.24-1.2h3.569l1.11-5.1h1.41l-1.11,5.1h5.82
			L478.638,97.59z"/>
		<path fill="#010101" d="M16.86,141.39h1.56l-0.72,13.709h0.06l4.86-9.629h1.53l0.72,9.629h0.06l5.1-13.709h1.53l-6.209,16.079
			h-1.53l-0.84-10.26l-5.16,10.26h-1.53L16.86,141.39z"/>
		<path fill="#010101" d="M34.829,149.31c1.32-6.18,4.95-8.25,7.83-8.25c2.64,0,5.7,1.77,4.32,8.25c-1.35,6.45-5.16,8.28-7.83,8.28
			C36.479,157.589,33.449,155.79,34.829,149.31z M45.569,149.31c0.66-3.09,0.72-7.05-3.18-7.05c-3.87,0-5.49,3.96-6.15,7.05
			c-0.66,3.12-0.72,7.08,3.15,7.08C43.289,156.389,44.909,152.399,45.569,149.31z"/>
		<path fill="#010101" d="M64.348,141.39h1.41l-1.65,7.83c-0.57,2.7-1.05,5.4-1.08,8.04h-1.32l0.36-4.5h-0.06
			c-1.11,2.37-4.14,4.83-6.629,4.83c-2.88,0-3.15-2.61-2.64-5.01l2.37-11.189h1.41l-2.22,10.529c-0.63,3-0.21,4.47,1.5,4.47
			c2.34,0,5.939-2.58,7.2-8.58L64.348,141.39z"/>
		<path fill="#010101" d="M78.928,136.2h-4.68l0.27-1.2h6.09l-4.74,22.259h-1.41L78.928,136.2z"/>
		<path fill="#010101" d="M99.357,151.68c-0.42,1.95-0.69,3.87-0.51,5.729l-1.35,0.18l-0.03-2.61c-1.2,1.65-2.91,2.61-4.77,2.61
			c-2.67,0-5.7-2.19-4.38-8.37c1.35-6.36,5.79-8.16,7.979-8.16c1.41,0,2.7,0.48,3.6,1.35l1.59-7.41h1.41L99.357,151.68z
			 M99.598,143.82c-0.81-0.87-1.89-1.56-3.21-1.56c-1.8,0-5.43,1.23-6.69,7.05c-1.17,5.49,1.47,7.08,3.27,7.08
			c2.01,0,3.63-1.47,4.65-3.18L99.598,143.82z"/>
		<path fill="#010101" d="M125.967,146.94c0.42-1.92,0.66-3.84,0.51-5.7l1.35-0.18v2.61h0.06c1.14-1.65,2.88-2.61,4.74-2.61
			c2.64,0,5.7,2.13,4.35,8.37c-1.35,6.36-5.79,8.16-7.95,8.16c-1.41,0-2.73-0.48-3.63-1.35l-1.56,7.38h-1.41L125.967,146.94z
			 M125.697,154.83c0.81,0.87,1.86,1.56,3.21,1.56c1.8,0,5.46-1.26,6.69-7.05c1.17-5.52-1.47-7.08-3.27-7.08
			c-2.1,0-3.48,1.47-4.62,3.18L125.697,154.83z"/>
		<path fill="#010101" d="M154.346,141.39h1.41l-1.65,7.83c-0.57,2.7-1.05,5.4-1.08,8.04h-1.32l0.36-4.5h-0.06
			c-1.11,2.37-4.14,4.83-6.629,4.83c-2.88,0-3.15-2.61-2.64-5.01l2.37-11.189h1.41l-2.22,10.529c-0.63,3-0.21,4.47,1.5,4.47
			c2.34,0,5.939-2.58,7.2-8.58L154.346,141.39z"/>
		<path fill="#010101" d="M172.646,142.59h-5.82l-2.31,10.83c-0.33,1.53-0.06,2.97,1.89,2.97c1.77,0,3.3-1.32,4.29-2.82l1.29,0.33
			c-1.44,2.04-3.51,3.69-5.88,3.69c-2.04,0-3.689-0.99-2.82-5.01l2.13-9.99h-3.57l0.24-1.2h3.57l1.11-5.1h1.41l-1.11,5.1h5.82
			L172.646,142.59z"/>
		<path fill="#010101" d="M208.645,142.59h-5.82l-2.31,10.83c-0.33,1.53-0.06,2.97,1.89,2.97c1.77,0,3.3-1.32,4.29-2.82l1.29,0.33
			c-1.44,2.04-3.51,3.69-5.88,3.69c-2.04,0-3.689-0.99-2.82-5.01l2.13-9.99h-3.57l0.24-1.2h3.57l1.11-5.1h1.41l-1.11,5.1h5.82
			L208.645,142.59z"/>
		<path fill="#010101" d="M218.634,135h1.41l-2.1,9.84h0.06c1.38-1.98,3.69-3.78,6.09-3.78c1.47,0,3.54,1.17,2.79,4.65l-2.46,11.549
			h-1.41l2.13-9.959c0.42-2.01,0.78-5.04-1.56-5.04c-2.67,0-5.79,3.33-6.57,7.02l-1.71,7.979h-1.41L218.634,135z"/>
		<path fill="#010101" d="M243.173,156.149c-2.01,0.81-3.93,1.44-5.97,1.44c-4.65,0-5.49-4.17-4.62-8.19
			c0.84-4.02,3.54-8.339,8.22-8.339c2.67,0,5.4,1.92,4.02,8.49h-10.859c-0.93,5.58,1.11,6.839,3.54,6.839c1.8,0,3.66-0.66,5.34-1.56
			L243.173,156.149z M243.653,148.35c0.72-2.73-0.18-6.09-3.3-6.09c-3.09,0-5.64,3.3-6.149,6.09H243.653z"/>
		<path fill="#010101" d="M250.644,146.19c0.45-2.1,0.57-3.78,0.54-5.13h1.44l-0.06,2.07c1.17-1.26,2.61-2.07,4.17-2.07
			c1.29,0,1.83,0.78,2.04,1.92c1.02-1.02,2.31-1.92,3.69-1.92c2.04,0,2.82,1.35,2.4,3.33l-2.73,12.87h-1.41l2.73-12.81
			c0.33-1.62-0.33-2.22-1.44-2.22c-1.26,0-2.52,0.99-3.33,2.04l-2.76,12.989h-1.41l2.58-12.18c0.24-1.2,0.51-2.82-1.08-2.82
			c-1.35,0-2.82,1.11-3.6,2.31l-2.7,12.689h-1.41L250.644,146.19z"/>
		<path fill="#010101" d="M293.782,142.59h-4.62l0.24-1.2h6.03l-3.36,15.869h-1.41L293.782,142.59z M297.262,136.8
			c-0.18,0.87-1.05,1.56-1.92,1.56c-0.87,0-1.41-0.69-1.23-1.56c0.18-0.87,1.02-1.56,1.89-1.56
			C296.872,135.24,297.442,135.93,297.262,136.8z"/>
		<path fill="#010101" d="M305.032,157.259h-1.41l1.68-7.95c0.57-2.7,1.08-5.4,1.11-8.1h1.32l-0.42,4.56h0.06
			c1.11-2.37,4.14-4.709,6.66-4.709c2.88,0,3.15,2.49,2.64,4.89l-2.4,11.31h-1.41l2.25-10.649c0.39-1.83,0.93-4.35-1.53-4.35
			c-2.28,0-5.88,2.28-7.169,8.46L305.032,157.259z"/>
		<path fill="#010101" d="M340.161,156.419c-0.57,2.61-0.36,4.709,2.25,4.709c2.07,0,3.72-1.56,4.11-3.45l3.209-15.089h-4.77
			l0.24-1.2h6.18l-3.36,15.839c-0.6,2.85-3.09,5.1-5.85,5.1c-3.51,0-4.05-2.91-3.42-5.91H340.161z M353.061,136.8
			c-0.18,0.87-1.05,1.56-1.92,1.56s-1.41-0.69-1.23-1.56c0.18-0.87,1.02-1.56,1.89-1.56C352.67,135.24,353.241,135.93,353.061,136.8
			z"/>
		<path fill="#010101" d="M366.62,157.589c-0.12-0.87-0.15-1.8-0.03-2.7c-1.44,1.59-2.85,2.7-4.92,2.7c-2.91,0-3.93-2.37-3.36-5.04
			c0.66-3.03,2.91-5.64,5.97-5.64c1.29,0,2.67,0.51,3.66,1.05c0.93-4.02,0.57-5.7-2.04-5.7c-1.38,0-2.64,0.48-4.02,1.05l-0.06-1.29
			c1.5-0.54,2.94-0.96,4.44-0.96c2.91,0,4.2,2.04,3.36,5.58c-0.51,2.16-1.02,4.32-1.56,6.48c-0.36,1.53-0.27,2.97-0.12,4.29
			L366.62,157.589z M367.61,149.07c-0.87-0.51-1.98-0.96-3.24-0.96c-2.64,0-4.169,2.22-4.649,4.56c-0.39,1.77,0.18,3.72,2.189,3.72
			c1.98,0,3.51-1.59,4.83-3.21L367.61,149.07z"/>
		<path fill="#010101" d="M383.78,142.59h-4.62l0.24-1.2h6.03l-3.36,15.869h-1.41L383.78,142.59z M387.26,136.8
			c-0.18,0.87-1.05,1.56-1.92,1.56c-0.87,0-1.41-0.69-1.23-1.56c0.18-0.87,1.02-1.56,1.89-1.56
			C386.87,135.24,387.439,135.93,387.26,136.8z"/>
		<path fill="#010101" d="M402.919,136.2h-4.68l0.27-1.2h6.09l-4.74,22.259h-1.41L402.919,136.2z"/>
		<path fill="#010101" d="M417.769,153.629c1.11,0,1.83,0.93,1.59,2.04c-0.24,1.11-1.35,2.01-2.46,2.01s-1.83-0.9-1.59-2.01
			C415.549,154.56,416.659,153.629,417.769,153.629z"/>
		<path fill="#010101" d="M438.618,135.66l-0.72,3.33l-1.65,4.05h-1.199l0.029-4.05l0.721-3.33H438.618z M443.388,135.66l-0.72,3.33
			l-1.649,4.05h-1.2l0.03-4.05l0.72-3.33H443.388z"/>
		<path fill="#010101" d="M31.845,191.459h2.7c1.26,0,2.13,0.69,2.58,1.53c0.36,0.66,0.66,1.905,0.66,3.87
			c0,2.745-0.675,3.915-0.87,4.2c-0.495,0.705-1.26,1.2-2.58,1.2h-2.49V191.459z M32.55,201.659h1.335c1.185,0,2.175-0.165,2.7-1.38
			c0.42-0.96,0.45-2.385,0.45-3.42c0-1.035-0.03-2.595-0.495-3.525c-0.57-1.14-1.515-1.275-2.655-1.275H32.55V201.659z"/>
		<path fill="#010101" d="M45.345,202.424c-0.15-0.435-0.255-0.9-0.3-1.35c-0.555,0.795-1.14,1.35-2.175,1.35
			c-1.455,0-2.205-1.185-2.205-2.52c0-1.515,0.855-2.82,2.385-2.82c0.645,0,1.38,0.255,1.935,0.525c0.045-2.01-0.315-2.85-1.62-2.85
			c-0.69,0-1.275,0.24-1.905,0.525l-0.165-0.645c0.69-0.27,1.365-0.48,2.115-0.48c1.455,0,2.325,1.02,2.28,2.79l-0.09,3.24
			c-0.015,0.765,0.18,1.485,0.39,2.145L45.345,202.424z M44.94,198.165c-0.495-0.255-1.095-0.48-1.725-0.48
			c-1.32,0-1.845,1.11-1.845,2.28c0,0.885,0.495,1.86,1.5,1.86c0.99,0,1.59-0.795,2.07-1.605V198.165z"/>
		<path fill="#010101" d="M55.395,194.325l-2.505,8.04h-0.825l-2.505-8.04h0.75l2.16,6.975l2.175-6.975H55.395z"/>
		<path fill="#010101" d="M61.335,194.925h-2.31v-0.6h3.015v7.935h-0.705V194.925z M62.46,192.03c0,0.435-0.36,0.78-0.795,0.78
			c-0.435,0-0.78-0.345-0.78-0.78s0.345-0.78,0.78-0.78C62.1,191.25,62.46,191.595,62.46,192.03z"/>
		<path fill="#010101" d="M73.08,199.469c0,0.975,0.075,1.935,0.36,2.865l-0.66,0.09l-0.285-1.305
			c-0.42,0.825-1.185,1.305-2.115,1.305c-1.335,0-3.075-1.095-3.075-4.185c0-3.18,2.025-4.08,3.12-4.08
			c0.705,0,1.41,0.24,1.95,0.675v-3.705h0.705V199.469z M72.375,195.54c-0.495-0.435-1.11-0.78-1.77-0.78
			c-0.9,0-2.595,0.615-2.595,3.525c0,2.745,1.485,3.54,2.385,3.54c1.005,0,1.65-0.735,1.979-1.59V195.54z"/>
		<path fill="#010101" d="M85.785,202.259v-10.8h2.64c1.575,0,2.67,0.99,2.67,2.64c0,1.185-0.675,1.98-1.725,2.445
			c1.395,0.405,2.205,1.41,2.205,2.865c0,1.545-0.99,2.85-2.7,2.85H85.785z M87.585,196.334c1.845,0,2.805-0.9,2.805-2.28
			c0-1.155-0.495-1.995-2.295-1.995H86.49v4.275H87.585z M88.755,201.659c0.885,0,2.115-0.645,2.115-2.22
			c0-1.305-0.915-2.505-2.52-2.505h-1.86v4.725H88.755z"/>
		<path fill="#010101" d="M94.47,198.285c0-3.09,1.59-4.125,3.03-4.125c1.32,0,3.045,0.885,3.045,4.125
			c0,3.225-1.71,4.14-3.045,4.14S94.47,201.524,94.47,198.285z M99.84,198.285c0-1.545-0.39-3.525-2.34-3.525
			c-1.935,0-2.325,1.98-2.325,3.525c0,1.56,0.39,3.54,2.325,3.54C99.45,201.824,99.84,199.83,99.84,198.285z"/>
		<path fill="#010101" d="M104.52,202.259h-0.705v-3.975c0-1.35-0.045-2.7-0.315-4.05h0.66l0.285,2.28h0.03
			c0.3-1.185,1.56-2.355,2.82-2.355c1.44,0,1.845,1.245,1.845,2.445v5.655h-0.705v-5.325c0-0.915,0-2.175-1.23-2.175
			c-1.14,0-2.685,1.14-2.685,4.229V202.259z"/>
		<path fill="#010101" d="M118.395,194.325l-2.505,8.04h-0.825l-2.505-8.04h0.75l2.16,6.975l2.175-6.975H118.395z"/>
		<path fill="#010101" d="M124.335,194.925h-2.31v-0.6h3.015v7.935h-0.705V194.925z M125.46,192.03c0,0.435-0.36,0.78-0.795,0.78
			c-0.435,0-0.78-0.345-0.78-0.78s0.345-0.78,0.78-0.78C125.1,191.25,125.46,191.595,125.46,192.03z"/>
		<path fill="#010101" d="M133.23,191.729h-2.34v-0.6h3.044v11.129h-0.705V191.729z"/>
		<path fill="#010101" d="M142.23,191.729h-2.34v-0.6h3.044v11.129h-0.705V191.729z"/>
		<path fill="#010101" d="M153.345,202.424c-0.15-0.435-0.255-0.9-0.3-1.35c-0.555,0.795-1.14,1.35-2.175,1.35
			c-1.455,0-2.205-1.185-2.205-2.52c0-1.515,0.855-2.82,2.385-2.82c0.645,0,1.38,0.255,1.935,0.525c0.045-2.01-0.315-2.85-1.62-2.85
			c-0.69,0-1.275,0.24-1.905,0.525l-0.165-0.645c0.69-0.27,1.365-0.48,2.115-0.48c1.455,0,2.325,1.02,2.28,2.79l-0.09,3.24
			c-0.015,0.765,0.18,1.485,0.39,2.145L153.345,202.424z M152.94,198.165c-0.495-0.255-1.095-0.48-1.725-0.48
			c-1.32,0-1.845,1.11-1.845,2.28c0,0.885,0.495,1.86,1.5,1.86c0.99,0,1.59-0.795,2.07-1.605V198.165z"/>
		<path fill="#010101" d="M160.335,194.925h-2.31v-0.6h3.015v7.935h-0.705V194.925z M161.46,192.03c0,0.435-0.36,0.78-0.795,0.78
			c-0.435,0-0.78-0.345-0.78-0.78s0.345-0.78,0.78-0.78C161.1,191.25,161.46,191.595,161.46,192.03z"/>
		<path fill="#010101" d="M167.52,202.259h-0.705v-3.975c0-1.35-0.045-2.7-0.315-4.05h0.66l0.285,2.28h0.03
			c0.3-1.185,1.56-2.355,2.82-2.355c1.44,0,1.845,1.245,1.845,2.445v5.655h-0.705v-5.325c0-0.915,0-2.175-1.23-2.175
			c-1.14,0-2.685,1.14-2.685,4.229V202.259z"/>
	</g>
</g>
<path fill="#010101" d="M3.569,0L2.85,3.33l-1.65,4.05H0l0.029-4.05L0.75,0H3.569z M8.339,0l-0.72,3.33L5.97,7.38h-1.2L4.8,3.33
	L5.52,0H8.339z"/>
</svg>
