<?xml version="1.0" encoding="utf-8"?>
<!-- Generator: Adobe Illustrator 15.1.0, SVG Export Plug-In . SVG Version: 6.00 Build 0)  -->
<!DOCTYPE svg PUBLIC "-//W3C//DTD SVG 1.1//EN" "http://www.w3.org/Graphics/SVG/1.1/DTD/svg11.dtd">
<svg version="1.1" xmlns="http://www.w3.org/2000/svg" xmlns:xlink="http://www.w3.org/1999/xlink" x="0px" y="0px"
	 width="662.154px" height="163.618px" viewBox="0 0 662.154 163.618" enable-background="new 0 0 662.154 163.618"
	 xml:space="preserve">
<g id="Layer_1">
	<g>
		<path fill="#FFFFFF" d="M3.72,21.059h9.48l-0.27,1.2H2.04l4.59-21.6h1.41L3.72,21.059z"/>
		<path fill="#FFFFFF" d="M26.759,7.59h-4.62l0.24-1.2h6.03l-3.36,15.869h-1.41L26.759,7.59z M30.239,1.8
			c-0.18,0.87-1.05,1.56-1.92,1.56c-0.87,0-1.41-0.689-1.23-1.56c0.18-0.87,1.02-1.561,1.89-1.561S30.419,0.93,30.239,1.8z"/>
		<path fill="#FFFFFF" d="M50.968,6.39c-3.479,3.359-4.919,4.859-7.859,7.229l5.85,8.64h-1.89l-4.98-7.83l-1.8,1.471l-1.35,6.359
			h-1.41L42.269,0h1.41l-3.03,14.219c2.97-2.34,5.94-4.949,8.49-7.829H50.968z"/>
		<path fill="#FFFFFF" d="M66.148,21.148c-2.01,0.811-3.93,1.44-5.97,1.44c-4.649,0-5.49-4.17-4.62-8.189
			c0.84-4.021,3.54-8.34,8.22-8.34c2.67,0,5.4,1.92,4.02,8.489h-10.86c-0.93,5.58,1.11,6.84,3.54,6.84c1.8,0,3.66-0.66,5.34-1.56
			L66.148,21.148z M66.628,13.35c0.72-2.73-0.18-6.09-3.3-6.09c-3.09,0-5.64,3.3-6.149,6.09H66.628z"/>
		<path fill="#FFFFFF" d="M91.618,11.189c0.45-2.101,0.57-3.78,0.54-5.13h1.44l-0.06,2.069c1.17-1.26,2.61-2.069,4.17-2.069
			c1.29,0,1.83,0.78,2.04,1.92c1.02-1.021,2.31-1.92,3.69-1.92c2.04,0,2.82,1.35,2.4,3.33l-2.73,12.869h-1.41l2.73-12.81
			c0.33-1.62-0.33-2.22-1.44-2.22c-1.26,0-2.52,0.99-3.33,2.04l-2.76,12.989h-1.41l2.58-12.18c0.24-1.2,0.51-2.819-1.08-2.819
			c-1.35,0-2.82,1.109-3.6,2.31l-2.7,12.689h-1.41L91.618,11.189z"/>
		<path fill="#FFFFFF" d="M109.797,14.31c1.32-6.181,4.95-8.25,7.83-8.25c2.64,0,5.7,1.77,4.32,8.25
			c-1.35,6.449-5.16,8.279-7.83,8.279C111.447,22.589,108.417,20.789,109.797,14.31z M120.537,14.31c0.66-3.09,0.72-7.05-3.18-7.05
			c-3.87,0-5.49,3.96-6.15,7.05c-0.66,3.119-0.72,7.079,3.15,7.079C118.257,21.389,119.876,17.399,120.537,14.31z"/>
		<path fill="#FFFFFF" d="M138.686,8.909c-1.08-0.899-2.34-1.649-3.93-1.649c-1.59,0-3.39,1.199-3.75,2.88
			c-0.39,1.859,1.5,2.729,2.82,3.27c2.22,0.93,4.56,1.89,3.9,4.979c-0.54,2.641-3.21,4.2-5.64,4.2c-1.98,0-4.29-1.23-5.43-2.55
			l1.02-1.14c1.02,1.289,2.85,2.489,4.709,2.489c1.77,0,3.51-0.99,3.93-2.91c0.51-2.369-1.2-3.06-2.91-3.779
			c-2.01-0.84-4.38-1.86-3.78-4.68c0.48-2.25,3.12-3.96,5.49-3.96c1.83,0,3.18,0.63,4.41,1.68L138.686,8.909z"/>
		<path fill="#FFFFFF" d="M157.616,7.59h-5.82l-2.31,10.829c-0.33,1.53-0.06,2.97,1.89,2.97c1.77,0,3.3-1.319,4.29-2.819l1.29,0.33
			c-1.44,2.039-3.51,3.689-5.88,3.689c-2.04,0-3.689-0.99-2.82-5.01l2.13-9.989h-3.57l0.24-1.2h3.57l1.11-5.1h1.41l-1.11,5.1h5.82
			L157.616,7.59z"/>
		<path fill="#FFFFFF" d="M185.605,0h1.41l-2.1,9.839h0.06c1.38-1.979,3.69-3.779,6.09-3.779c1.47,0,3.54,1.17,2.79,4.649
			l-2.46,11.55h-1.41l2.13-9.96c0.42-2.01,0.78-5.039-1.56-5.039c-2.67,0-5.79,3.329-6.57,7.021l-1.71,7.979h-1.41L185.605,0z"/>
		<path fill="#FFFFFF" d="M207.594,22.589c-0.12-0.87-0.15-1.8-0.03-2.7c-1.44,1.59-2.85,2.7-4.92,2.7c-2.91,0-3.93-2.37-3.36-5.04
			c0.66-3.029,2.91-5.64,5.97-5.64c1.29,0,2.67,0.51,3.66,1.05c0.93-4.02,0.57-5.699-2.04-5.699c-1.38,0-2.64,0.479-4.02,1.05
			l-0.06-1.29c1.5-0.54,2.94-0.96,4.44-0.96c2.91,0,4.2,2.04,3.36,5.58c-0.51,2.159-1.02,4.319-1.56,6.479
			c-0.36,1.529-0.27,2.97-0.12,4.29L207.594,22.589z M208.584,14.069c-0.87-0.51-1.98-0.96-3.24-0.96c-2.64,0-4.169,2.22-4.649,4.56
			c-0.39,1.77,0.18,3.72,2.189,3.72c1.98,0,3.51-1.59,4.83-3.21L208.584,14.069z"/>
		<path fill="#FFFFFF" d="M228.654,19.919c-1.83,1.59-3.57,2.67-5.82,2.67c-2.79,0-6.27-1.74-4.92-8.1
			c1.38-6.42,5.34-8.43,8.31-8.43c2.4,0,3.9,1.26,4.77,3.21l-1.44,0.84c-0.48-1.65-1.65-2.85-3.6-2.85
			c-1.979,0-5.339,1.229-6.569,6.989c-1.17,5.46,1.35,7.14,3.66,7.14c1.74,0,3.51-1.2,4.86-2.489L228.654,19.919z"/>
		<path fill="#FFFFFF" d="M248.963,6.39c-3.48,3.359-4.92,4.859-7.86,7.229l5.85,8.64h-1.89l-4.98-7.83l-1.8,1.471l-1.35,6.359
			h-1.41L240.264,0h1.41l-3.03,14.219c2.97-2.34,5.94-4.949,8.49-7.829H248.963z"/>
		<path fill="#FFFFFF" d="M264.143,21.148c-2.01,0.811-3.93,1.44-5.97,1.44c-4.65,0-5.49-4.17-4.62-8.189
			c0.84-4.021,3.54-8.34,8.22-8.34c2.67,0,5.4,1.92,4.02,8.489h-10.859c-0.93,5.58,1.11,6.84,3.54,6.84c1.8,0,3.66-0.66,5.34-1.56
			L264.143,21.148z M264.623,13.35c0.72-2.73-0.18-6.09-3.3-6.09c-3.09,0-5.64,3.3-6.149,6.09H264.623z"/>
		<path fill="#FFFFFF" d="M273.443,22.259h-1.41l2.34-10.979l0.51-5.07h1.35l-0.42,4.44l0.06,0.06c1.44-2.189,3.63-4.649,6.36-4.649
			c2.64,0,2.76,2.64,2.31,4.8h-1.41c0.27-1.47,0.63-3.6-1.29-3.6c-1.62,0-5.73,2.521-7.02,8.549L273.443,22.259z"/>
		<path fill="#FFFFFF" d="M300.682,8.909c-1.08-0.899-2.34-1.649-3.93-1.649s-3.39,1.199-3.75,2.88c-0.39,1.859,1.5,2.729,2.82,3.27
			c2.22,0.93,4.56,1.89,3.9,4.979c-0.54,2.641-3.21,4.2-5.64,4.2c-1.98,0-4.29-1.23-5.43-2.55l1.02-1.14
			c1.02,1.289,2.85,2.489,4.709,2.489c1.77,0,3.51-0.99,3.93-2.91c0.51-2.369-1.2-3.06-2.91-3.779c-2.01-0.84-4.38-1.86-3.78-4.68
			c0.48-2.25,3.12-3.96,5.49-3.96c1.83,0,3.18,0.63,4.41,1.68L300.682,8.909z"/>
		<path fill="#FFFFFF" d="M309.862,24.329c0.989-0.271,2.13-0.841,2.729-1.771c-0.18,0.061-0.359,0.09-0.6,0.09
			c-1.11,0-1.65-0.75-1.44-1.859c0.24-1.141,1.32-1.95,2.4-1.95c1.32,0,1.859,1.23,1.59,2.46c-0.48,2.16-2.94,3.75-4.95,4.29
			L309.862,24.329z"/>
		<path fill="#FFFFFF" d="M357.47,0.659h1.561l-4.59,21.6h-1.41L357.02,3.51h-0.06l-7.56,11.999L346.94,3.51l-0.091,0.06
			l-3.96,18.689h-1.409l4.59-21.6h1.56l2.4,11.88L357.47,0.659z"/>
		<path fill="#FFFFFF" d="M361.79,14.31c1.32-6.181,4.95-8.25,7.83-8.25c2.64,0,5.7,1.77,4.32,8.25
			c-1.351,6.449-5.16,8.279-7.83,8.279S360.41,20.789,361.79,14.31z M372.53,14.31c0.66-3.09,0.72-7.05-3.181-7.05
			c-3.869,0-5.489,3.96-6.149,7.05c-0.66,3.119-0.72,7.079,3.149,7.079C370.25,21.389,371.87,17.399,372.53,14.31z"/>
		<path fill="#FFFFFF" d="M384.89,0l-1.59,7.409c1.26-0.87,2.79-1.35,4.2-1.35c2.19,0,5.85,1.8,4.5,8.159
			c-1.32,6.18-5.28,8.37-7.92,8.37c-1.86,0-3.21-0.96-3.69-2.61l-1.109,2.61l-1.29-0.18c0.96-1.86,1.529-3.78,1.95-5.73L383.479,0
			H384.89z M381.02,18.209c0.421,1.71,1.171,3.18,3.271,3.18c1.8,0,5.1-1.56,6.27-7.079c1.261-5.82-1.89-7.05-3.688-7.05
			c-1.351,0-2.7,0.689-3.87,1.56L381.02,18.209z"/>
		<path fill="#FFFFFF" d="M397.609,11.189c0.449-2.101,0.569-3.78,0.54-5.13h1.439l-0.06,2.069c1.17-1.26,2.609-2.069,4.17-2.069
			c1.29,0,1.83,0.78,2.04,1.92c1.02-1.021,2.31-1.92,3.689-1.92c2.04,0,2.82,1.35,2.4,3.33l-2.73,12.869h-1.409l2.729-12.81
			c0.33-1.62-0.33-2.22-1.439-2.22c-1.261,0-2.521,0.99-3.33,2.04l-2.761,12.989h-1.409l2.579-12.18
			c0.24-1.2,0.511-2.819-1.079-2.819c-1.351,0-2.82,1.109-3.601,2.31l-2.7,12.689h-1.41L397.609,11.189z"/>
		<path fill="#FFFFFF" d="M423.588,22.589c-0.12-0.87-0.149-1.8-0.03-2.7c-1.439,1.59-2.85,2.7-4.92,2.7
			c-2.91,0-3.93-2.37-3.359-5.04c0.66-3.029,2.91-5.64,5.97-5.64c1.29,0,2.67,0.51,3.66,1.05c0.93-4.02,0.57-5.699-2.04-5.699
			c-1.38,0-2.641,0.479-4.021,1.05l-0.06-1.29c1.5-0.54,2.94-0.96,4.44-0.96c2.909,0,4.199,2.04,3.359,5.58
			c-0.51,2.159-1.02,4.319-1.56,6.479c-0.36,1.529-0.271,2.97-0.12,4.29L423.588,22.589z M424.579,14.069
			c-0.87-0.51-1.98-0.96-3.24-0.96c-2.64,0-4.169,2.22-4.648,4.56c-0.391,1.77,0.18,3.72,2.188,3.72c1.98,0,3.51-1.59,4.83-3.21
			L424.579,14.069z"/>
		<path fill="#FFFFFF" d="M433.999,22.259h-1.41l1.68-7.949c0.57-2.7,1.08-5.4,1.11-8.101h1.32l-0.42,4.561h0.06
			c1.11-2.37,4.14-4.71,6.66-4.71c2.88,0,3.15,2.49,2.64,4.89l-2.399,11.31h-1.41l2.25-10.649c0.39-1.83,0.93-4.35-1.53-4.35
			c-2.28,0-5.88,2.279-7.169,8.459L433.999,22.259z"/>
		<path fill="#FFFFFF" d="M476.747,7.59h-4.62l0.24-1.2h6.03l-3.36,15.869h-1.41L476.747,7.59z M480.227,1.8
			c-0.18,0.87-1.05,1.56-1.92,1.56s-1.41-0.689-1.229-1.56c0.18-0.87,1.02-1.561,1.89-1.561S480.407,0.93,480.227,1.8z"/>
		<path fill="#FFFFFF" d="M498.676,8.909c-1.08-0.899-2.34-1.649-3.93-1.649s-3.39,1.199-3.75,2.88c-0.39,1.859,1.5,2.729,2.82,3.27
			c2.22,0.93,4.56,1.89,3.899,4.979c-0.54,2.641-3.21,4.2-5.64,4.2c-1.98,0-4.29-1.23-5.43-2.55l1.02-1.14
			c1.02,1.289,2.85,2.489,4.709,2.489c1.77,0,3.51-0.99,3.93-2.91c0.511-2.369-1.199-3.06-2.91-3.779
			c-2.01-0.84-4.38-1.86-3.779-4.68c0.479-2.25,3.12-3.96,5.49-3.96c1.829,0,3.18,0.63,4.409,1.68L498.676,8.909z"/>
		<path fill="#FFFFFF" d="M534.315,16.679c-0.421,1.95-0.69,3.87-0.511,5.73l-1.35,0.18l-0.03-2.61c-1.2,1.65-2.91,2.61-4.77,2.61
			c-2.67,0-5.7-2.19-4.38-8.37c1.35-6.359,5.789-8.159,7.979-8.159c1.41,0,2.7,0.479,3.6,1.35L536.445,0h1.41L534.315,16.679z
			 M534.555,8.819c-0.81-0.87-1.89-1.56-3.209-1.56c-1.8,0-5.43,1.229-6.689,7.05c-1.17,5.489,1.47,7.079,3.27,7.079
			c2.01,0,3.63-1.47,4.65-3.18L534.555,8.819z"/>
		<path fill="#FFFFFF" d="M549.585,22.589c-0.12-0.87-0.15-1.8-0.03-2.7c-1.439,1.59-2.85,2.7-4.92,2.7
			c-2.91,0-3.93-2.37-3.359-5.04c0.659-3.029,2.909-5.64,5.97-5.64c1.29,0,2.67,0.51,3.66,1.05c0.93-4.02,0.569-5.699-2.04-5.699
			c-1.38,0-2.641,0.479-4.021,1.05l-0.06-1.29c1.5-0.54,2.939-0.96,4.439-0.96c2.91,0,4.2,2.04,3.36,5.58
			c-0.51,2.159-1.021,4.319-1.56,6.479c-0.36,1.529-0.271,2.97-0.12,4.29L549.585,22.589z M550.575,14.069
			c-0.87-0.51-1.98-0.96-3.24-0.96c-2.64,0-4.169,2.22-4.649,4.56c-0.39,1.77,0.181,3.72,2.19,3.72c1.979,0,3.51-1.59,4.83-3.21
			L550.575,14.069z"/>
		<path fill="#FFFFFF" d="M559.605,11.189c0.448-2.101,0.569-3.78,0.539-5.13h1.44l-0.061,2.069c1.17-1.26,2.608-2.069,4.17-2.069
			c1.289,0,1.83,0.78,2.04,1.92c1.02-1.021,2.31-1.92,3.688-1.92c2.04,0,2.82,1.35,2.4,3.33l-2.73,12.869h-1.41l2.73-12.81
			c0.33-1.62-0.33-2.22-1.44-2.22c-1.26,0-2.52,0.99-3.328,2.04l-2.762,12.989h-1.41l2.58-12.18c0.24-1.2,0.511-2.819-1.08-2.819
			c-1.35,0-2.818,1.109-3.6,2.31l-2.699,12.689h-1.41L559.605,11.189z"/>
		<path fill="#FFFFFF" d="M585.584,22.589c-0.12-0.87-0.15-1.8-0.03-2.7c-1.439,1.59-2.85,2.7-4.92,2.7
			c-2.91,0-3.93-2.37-3.358-5.04c0.658-3.029,2.908-5.64,5.97-5.64c1.289,0,2.669,0.51,3.659,1.05c0.93-4.02,0.569-5.699-2.04-5.699
			c-1.38,0-2.641,0.479-4.021,1.05l-0.06-1.29c1.5-0.54,2.938-0.96,4.438-0.96c2.91,0,4.2,2.04,3.359,5.58
			c-0.51,2.159-1.021,4.319-1.561,6.479c-0.359,1.529-0.27,2.97-0.119,4.29L585.584,22.589z M586.574,14.069
			c-0.87-0.51-1.979-0.96-3.239-0.96c-2.641,0-4.17,2.22-4.65,4.56c-0.39,1.77,0.182,3.72,2.19,3.72c1.979,0,3.51-1.59,4.829-3.21
			L586.574,14.069z"/>
		<path fill="#FFFFFF" d="M595.514,24.329c0.69,1.109,2.07,1.8,3.54,1.8c1.771,0,4.29-1.29,5.16-5.28l0.42-1.949
			c-1.32,1.14-3.33,1.949-4.89,1.949c-3.78,0-4.682-3.779-3.99-7.079c0.78-3.66,3.149-7.71,7.47-7.71c1.771,0,2.79,0.78,3.931,1.83
			l0.811-1.83h1.439c-1.32,2.729-1.92,5.58-2.49,8.369l-1.38,6.601c-0.989,4.68-4.591,6.299-7.021,6.299
			c-1.648,0-3.3-0.96-4.17-2.13L595.514,24.329z M606.554,9.569c-0.659-1.32-1.979-2.31-3.659-2.31
			c-3.271,0-5.101,3.539-5.671,6.239c-1.05,5.01,1.591,6.149,2.881,6.149c1.619,0,3.689-1.02,4.829-2.43L606.554,9.569z"/>
		<path fill="#FFFFFF" d="M624.134,21.148c-2.01,0.811-3.93,1.44-5.97,1.44c-4.65,0-5.49-4.17-4.62-8.189
			c0.84-4.021,3.54-8.34,8.22-8.34c2.67,0,5.399,1.92,4.021,8.489h-10.859c-0.93,5.58,1.11,6.84,3.54,6.84
			c1.8,0,3.66-0.66,5.34-1.56L624.134,21.148z M624.614,13.35c0.72-2.73-0.181-6.09-3.3-6.09c-3.091,0-5.641,3.3-6.149,6.09H624.614
			z"/>
		<path fill="#FFFFFF" d="M642.314,16.679c-0.42,1.95-0.69,3.87-0.511,5.73l-1.351,0.18l-0.029-2.61c-1.2,1.65-2.91,2.61-4.771,2.61
			c-2.67,0-5.699-2.19-4.379-8.37c1.35-6.359,5.788-8.159,7.979-8.159c1.409,0,2.699,0.479,3.6,1.35L644.444,0h1.409L642.314,16.679
			z M642.554,8.819c-0.811-0.87-1.891-1.56-3.21-1.56c-1.8,0-5.43,1.229-6.688,7.05c-1.17,5.489,1.47,7.079,3.27,7.079
			c2.01,0,3.63-1.47,4.649-3.18L642.554,8.819z"/>
		<path fill="#FFFFFF" d="M9.6,67.589c-0.12-0.87-0.15-1.8-0.03-2.7c-1.44,1.59-2.85,2.7-4.92,2.7c-2.91,0-3.93-2.37-3.36-5.04
			c0.66-3.029,2.91-5.64,5.97-5.64c1.29,0,2.67,0.51,3.66,1.05c0.93-4.02,0.57-5.699-2.04-5.699c-1.38,0-2.64,0.479-4.02,1.05
			L4.8,52.02c1.5-0.54,2.94-0.96,4.44-0.96c2.91,0,4.2,2.04,3.36,5.58c-0.51,2.159-1.02,4.319-1.56,6.479
			c-0.36,1.529-0.27,2.97-0.12,4.29L9.6,67.589z M10.59,59.069c-0.87-0.51-1.98-0.96-3.24-0.96c-2.64,0-4.169,2.22-4.649,4.56
			c-0.39,1.77,0.18,3.72,2.19,3.72c1.979,0,3.51-1.59,4.83-3.21L10.59,59.069z"/>
		<path fill="#FFFFFF" d="M20.009,67.259H18.6l1.68-7.949c0.57-2.7,1.08-5.4,1.11-8.101h1.32l-0.42,4.561h0.06
			c1.11-2.37,4.14-4.71,6.66-4.71c2.88,0,3.15,2.49,2.64,4.89l-2.4,11.31h-1.41l2.25-10.649c0.39-1.83,0.93-4.35-1.53-4.35
			c-2.28,0-5.88,2.279-7.169,8.459L20.009,67.259z"/>
		<path fill="#FFFFFF" d="M48.329,61.679c-0.42,1.95-0.69,3.87-0.51,5.73l-1.35,0.18l-0.03-2.61c-1.2,1.65-2.91,2.61-4.77,2.61
			c-2.67,0-5.7-2.19-4.38-8.37c1.35-6.359,5.79-8.159,7.979-8.159c1.41,0,2.7,0.479,3.6,1.35l1.59-7.41h1.41L48.329,61.679z
			 M48.569,53.819c-0.81-0.87-1.89-1.56-3.21-1.56c-1.8,0-5.43,1.229-6.69,7.05c-1.17,5.489,1.47,7.079,3.27,7.079
			c2.01,0,3.63-1.47,4.65-3.18L48.569,53.819z"/>
		<path fill="#FFFFFF" d="M77.608,45h1.41l-2.1,9.839h0.06c1.38-1.979,3.69-3.779,6.09-3.779c1.47,0,3.54,1.17,2.79,4.649
			l-2.46,11.55h-1.41l2.13-9.96c0.42-2.01,0.78-5.039-1.56-5.039c-2.67,0-5.79,3.329-6.57,7.021l-1.71,7.979h-1.41L77.608,45z"/>
		<path fill="#FFFFFF" d="M103.317,51.39h1.41l-1.65,7.829c-0.57,2.7-1.05,5.4-1.08,8.04h-1.32l0.36-4.5h-0.06
			c-1.11,2.37-4.14,4.83-6.629,4.83c-2.88,0-3.15-2.61-2.64-5.01l2.37-11.189h1.41l-2.22,10.529c-0.63,3-0.21,4.47,1.5,4.47
			c2.34,0,5.939-2.58,7.2-8.579L103.317,51.39z"/>
		<path fill="#FFFFFF" d="M110.007,67.259h-1.41l1.68-7.949c0.57-2.7,1.08-5.4,1.11-8.101h1.32l-0.42,4.561h0.06
			c1.11-2.37,4.14-4.71,6.66-4.71c2.88,0,3.15,2.49,2.64,4.89l-2.4,11.31h-1.41l2.25-10.649c0.39-1.83,0.93-4.35-1.53-4.35
			c-2.28,0-5.88,2.279-7.169,8.459L110.007,67.259z"/>
		<path fill="#FFFFFF" d="M127.527,69.329c0.69,1.109,2.07,1.8,3.54,1.8c1.77,0,4.29-1.29,5.16-5.28l0.42-1.949
			c-1.32,1.14-3.33,1.949-4.89,1.949c-3.78,0-4.68-3.779-3.99-7.079c0.78-3.66,3.15-7.71,7.47-7.71c1.77,0,2.79,0.78,3.93,1.83
			l0.81-1.83h1.44c-1.32,2.729-1.92,5.58-2.49,8.369l-1.38,6.601c-0.99,4.68-4.59,6.299-7.02,6.299c-1.65,0-3.3-0.96-4.17-2.13
			L127.527,69.329z M138.566,54.569c-0.66-1.32-1.979-2.31-3.66-2.31c-3.27,0-5.1,3.539-5.67,6.239
			c-1.05,5.01,1.59,6.149,2.88,6.149c1.62,0,3.69-1.02,4.83-2.43L138.566,54.569z"/>
		<path fill="#FFFFFF" d="M147.446,67.259h-1.41l2.34-10.979l0.51-5.07h1.35l-0.42,4.44l0.06,0.06c1.44-2.189,3.63-4.649,6.36-4.649
			c2.64,0,2.76,2.64,2.31,4.8h-1.41c0.27-1.47,0.63-3.6-1.29-3.6c-1.62,0-5.73,2.521-7.02,8.549L147.446,67.259z"/>
		<path fill="#FFFFFF" d="M177.685,51.39l-9.12,15.089c-1.32,2.16-3.45,5.85-6.24,5.85c-1.8,0-2.82-1.409-3-3.029l1.32-0.63
			c0.15,1.08,0.63,2.46,1.95,2.46c1.53,0,2.7-1.771,3.48-2.97l1.77-2.73l-2.189-14.039h1.56l1.71,12.18l7.14-12.18L177.685,51.39
			L177.685,51.39z"/>
		<path fill="#FFFFFF" d="M186.745,63.629c1.11,0,1.83,0.93,1.59,2.04c-0.24,1.109-1.35,2.01-2.46,2.01s-1.83-0.9-1.59-2.01
			C184.525,64.559,185.635,63.629,186.745,63.629z"/>
		<path fill="#FFFFFF" d="M220.194,55.439h8.55l2.07-9.78h1.41l-4.59,21.6h-1.41l2.25-10.619h-8.549l-2.25,10.619h-1.41l4.59-21.6
			h1.41L220.194,55.439z"/>
		<path fill="#FFFFFF" d="M246.143,66.148c-2.01,0.811-3.93,1.44-5.97,1.44c-4.649,0-5.49-4.17-4.62-8.189
			c0.84-4.021,3.54-8.34,8.22-8.34c2.67,0,5.4,1.92,4.02,8.489h-10.859c-0.93,5.58,1.11,6.84,3.54,6.84c1.8,0,3.66-0.66,5.34-1.56
			L246.143,66.148z M246.623,58.35c0.72-2.73-0.18-6.09-3.3-6.09c-3.09,0-5.64,3.3-6.149,6.09H246.623z"/>
		<path fill="#FFFFFF" d="M271.523,69.329c0.69,1.109,2.07,1.8,3.54,1.8c1.77,0,4.29-1.29,5.16-5.28l0.42-1.949
			c-1.32,1.14-3.33,1.949-4.89,1.949c-3.78,0-4.68-3.779-3.99-7.079c0.78-3.66,3.15-7.71,7.47-7.71c1.77,0,2.79,0.78,3.93,1.83
			l0.81-1.83h1.44c-1.32,2.729-1.92,5.58-2.49,8.369l-1.38,6.601c-0.99,4.68-4.59,6.299-7.02,6.299c-1.65,0-3.3-0.96-4.17-2.13
			L271.523,69.329z M282.562,54.569c-0.66-1.32-1.979-2.31-3.66-2.31c-3.27,0-5.1,3.539-5.67,6.239
			c-1.05,5.01,1.59,6.149,2.88,6.149c1.62,0,3.69-1.02,4.83-2.43L282.562,54.569z"/>
		<path fill="#FFFFFF" d="M289.792,59.31c1.32-6.181,4.95-8.25,7.83-8.25c2.64,0,5.7,1.77,4.32,8.25
			c-1.35,6.449-5.16,8.279-7.83,8.279C291.442,67.589,288.412,65.789,289.792,59.31z M300.532,59.31c0.66-3.09,0.72-7.05-3.18-7.05
			c-3.87,0-5.49,3.96-6.15,7.05c-0.66,3.119-0.72,7.079,3.15,7.079C298.252,66.389,299.872,62.399,300.532,59.31z"/>
		<path fill="#FFFFFF" d="M319.611,52.59h-5.82l-2.31,10.829c-0.33,1.53-0.061,2.97,1.89,2.97c1.77,0,3.3-1.319,4.29-2.819
			l1.29,0.33c-1.44,2.039-3.51,3.689-5.88,3.689c-2.04,0-3.689-0.99-2.82-5.01l2.13-9.989h-3.57l0.24-1.2h3.57l1.11-5.1h1.409
			l-1.109,5.1h5.819L319.611,52.59z"/>
		<path fill="#FFFFFF" d="M355.22,67.259h-1.59l-0.54-6.569h-7.35l-3.391,6.569h-1.56l11.97-22.469L355.22,67.259z M346.281,59.489
			h6.75l-1.08-10.859L346.281,59.489z"/>
		<path fill="#FFFFFF" d="M367.82,50.729c0.989-0.27,2.13-0.84,2.729-1.77c-0.24,0.029-0.42,0.09-0.6,0.09
			c-1.11,0-1.681-0.75-1.44-1.86c0.24-1.14,1.32-1.95,2.4-1.95c1.32,0,1.859,1.229,1.59,2.46c-0.45,2.16-2.94,3.75-4.95,4.29
			L367.82,50.729z"/>
		<path fill="#FFFFFF" d="M390.679,53.909c-1.08-0.899-2.34-1.649-3.93-1.649s-3.39,1.199-3.75,2.88
			c-0.39,1.859,1.5,2.729,2.82,3.27c2.22,0.93,4.56,1.89,3.899,4.979c-0.54,2.641-3.21,4.2-5.64,4.2c-1.98,0-4.29-1.23-5.43-2.55
			l1.02-1.14c1.021,1.289,2.85,2.489,4.709,2.489c1.771,0,3.51-0.99,3.93-2.91c0.511-2.369-1.199-3.06-2.909-3.779
			c-2.011-0.84-4.381-1.86-3.78-4.68c0.479-2.25,3.12-3.96,5.49-3.96c1.829,0,3.18,0.63,4.409,1.68L390.679,53.909z"/>
		<path fill="#FFFFFF" d="M422.749,52.59h-4.62l0.24-1.2h6.03l-3.36,15.869h-1.41L422.749,52.59z M426.229,46.8
			c-0.18,0.87-1.05,1.56-1.92,1.56c-0.869,0-1.409-0.689-1.229-1.56c0.18-0.87,1.02-1.561,1.89-1.561
			C425.838,45.239,426.408,45.93,426.229,46.8z"/>
		<path fill="#FFFFFF" d="M433.999,67.259h-1.41l1.68-7.949c0.57-2.7,1.08-5.4,1.11-8.101h1.32l-0.42,4.561h0.06
			c1.11-2.37,4.14-4.71,6.66-4.71c2.88,0,3.15,2.49,2.64,4.89l-2.399,11.31h-1.41l2.25-10.649c0.39-1.83,0.93-4.35-1.53-4.35
			c-2.28,0-5.88,2.279-7.169,8.459L433.999,67.259z"/>
		<path fill="#FFFFFF" d="M480.677,53.909c-1.08-0.899-2.34-1.649-3.93-1.649s-3.39,1.199-3.75,2.88
			c-0.39,1.859,1.5,2.729,2.82,3.27c2.22,0.93,4.56,1.89,3.899,4.979c-0.54,2.641-3.21,4.2-5.64,4.2c-1.98,0-4.29-1.23-5.43-2.55
			l1.02-1.14c1.02,1.289,2.85,2.489,4.709,2.489c1.771,0,3.51-0.99,3.93-2.91c0.511-2.369-1.199-3.06-2.909-3.779
			c-2.011-0.84-4.381-1.86-3.78-4.68c0.479-2.25,3.12-3.96,5.49-3.96c1.829,0,3.18,0.63,4.409,1.68L480.677,53.909z"/>
		<path fill="#FFFFFF" d="M498.646,64.919c-1.83,1.59-3.57,2.67-5.82,2.67c-2.79,0-6.271-1.74-4.92-8.1
			c1.38-6.42,5.34-8.43,8.31-8.43c2.4,0,3.9,1.26,4.771,3.21l-1.44,0.84c-0.479-1.65-1.65-2.85-3.6-2.85
			c-1.979,0-5.339,1.229-6.569,6.989c-1.17,5.46,1.35,7.14,3.66,7.14c1.74,0,3.51-1.2,4.859-2.489L498.646,64.919z"/>
		<path fill="#FFFFFF" d="M509.596,45h1.41l-2.1,9.839h0.06c1.38-1.979,3.69-3.779,6.09-3.779c1.471,0,3.54,1.17,2.79,4.649
			l-2.46,11.55h-1.41l2.131-9.96c0.42-2.01,0.779-5.039-1.561-5.039c-2.67,0-5.79,3.329-6.57,7.021l-1.71,7.979h-1.409L509.596,45z"
			/>
		<path fill="#FFFFFF" d="M523.786,59.31c1.32-6.181,4.95-8.25,7.83-8.25c2.64,0,5.7,1.77,4.319,8.25
			c-1.35,6.449-5.159,8.279-7.829,8.279C525.436,67.589,522.406,65.789,523.786,59.31z M534.525,59.31
			c0.659-3.09,0.72-7.05-3.181-7.05c-3.87,0-5.489,3.96-6.149,7.05c-0.66,3.119-0.721,7.079,3.149,7.079
			C532.246,66.389,533.865,62.399,534.525,59.31z"/>
		<path fill="#FFFFFF" d="M541.785,59.31c1.32-6.181,4.95-8.25,7.83-8.25c2.64,0,5.7,1.77,4.319,8.25
			c-1.35,6.449-5.159,8.279-7.829,8.279C543.435,67.589,540.405,65.789,541.785,59.31z M552.525,59.31
			c0.659-3.09,0.72-7.05-3.181-7.05c-3.87,0-5.489,3.96-6.149,7.05c-0.66,3.119-0.721,7.079,3.149,7.079
			C550.245,66.389,551.865,62.399,552.525,59.31z"/>
		<path fill="#FFFFFF" d="M567.884,46.199h-4.68l0.27-1.199h6.092l-4.74,22.259h-1.41L567.884,46.199z"/>
		<path fill="#FFFFFF" d="M577.814,51.39h1.561l-0.72,13.709h0.06l4.859-9.629h1.53l0.72,9.629h0.061l5.101-13.709h1.529
			l-6.21,16.079h-1.529l-0.841-10.26l-5.159,10.26h-1.529L577.814,51.39z"/>
		<path fill="#FFFFFF" d="M595.785,59.31c1.318-6.181,4.949-8.25,7.829-8.25c2.641,0,5.7,1.77,4.319,8.25
			c-1.351,6.449-5.159,8.279-7.83,8.279C597.434,67.589,594.405,65.789,595.785,59.31z M606.524,59.31
			c0.659-3.09,0.72-7.05-3.181-7.05c-3.87,0-5.49,3.96-6.148,7.05c-0.66,3.119-0.722,7.079,3.148,7.079
			C604.244,66.389,605.864,62.399,606.524,59.31z"/>
		<path fill="#FFFFFF" d="M615.434,67.259h-1.409l2.341-10.979l0.51-5.07h1.35l-0.42,4.44l0.061,0.06
			c1.439-2.189,3.63-4.649,6.359-4.649c2.641,0,2.761,2.64,2.311,4.8h-1.41c0.271-1.47,0.63-3.6-1.29-3.6
			c-1.619,0-5.729,2.521-7.02,8.549L615.434,67.259z"/>
		<path fill="#FFFFFF" d="M644.954,51.39c-3.479,3.359-4.92,4.859-7.859,7.229l5.851,8.64h-1.891l-4.979-7.83l-1.8,1.471
			l-1.351,6.359h-1.41L636.254,45h1.41l-3.03,14.219c2.97-2.34,5.939-4.949,8.489-7.829H644.954z"/>
		<path fill="#FFFFFF" d="M6.9,90l-1.59,7.408c1.26-0.869,2.79-1.35,4.2-1.35c2.19,0,5.85,1.8,4.5,8.158
			c-1.32,6.181-5.279,8.371-7.919,8.371c-1.86,0-3.21-0.961-3.69-2.61l-1.11,2.61L0,112.409c0.96-1.859,1.53-3.779,1.95-5.729
			L5.49,90H6.9z M3.03,108.209c0.42,1.709,1.17,3.18,3.27,3.18c1.8,0,5.1-1.561,6.27-7.079c1.26-5.819-1.89-7.05-3.69-7.05
			c-1.35,0-2.7,0.689-3.87,1.56L3.03,108.209z"/>
		<path fill="#FFFFFF" d="M31.319,96.39h1.41l-1.65,7.829c-0.57,2.699-1.05,5.4-1.08,8.039h-1.32l0.36-4.5h-0.06
			c-1.11,2.371-4.14,4.83-6.629,4.83c-2.88,0-3.15-2.609-2.64-5.01l2.37-11.188h1.41l-2.22,10.528c-0.63,3-0.21,4.471,1.5,4.471
			c2.34,0,5.939-2.58,7.2-8.579L31.319,96.39z"/>
		<path fill="#FFFFFF" d="M49.619,97.59h-5.82l-2.31,10.828c-0.33,1.531-0.06,2.971,1.89,2.971c1.77,0,3.3-1.319,4.29-2.819
			l1.29,0.33c-1.44,2.039-3.51,3.688-5.88,3.688c-2.04,0-3.689-0.989-2.82-5.01l2.13-9.988h-3.57l0.24-1.2h3.57l1.11-5.101h1.41
			l-1.11,5.101h5.82L49.619,97.59z"/>
		<path fill="#FFFFFF" d="M89.188,91.859h-9.66l-1.83,8.521h7.26l-0.24,1.199h-7.26l-2.28,10.68h-1.41l4.59-21.6h11.069
			L89.188,91.859z"/>
		<path fill="#FFFFFF" d="M97.827,95.729c0.99-0.27,2.13-0.84,2.73-1.77c-0.24,0.028-0.42,0.09-0.6,0.09
			c-1.11,0-1.68-0.75-1.44-1.86c0.24-1.14,1.32-1.95,2.4-1.95c1.32,0,1.86,1.23,1.59,2.461c-0.45,2.159-2.94,3.75-4.95,4.289
			L97.827,95.729z"/>
		<path fill="#FFFFFF" d="M120.687,98.909c-1.08-0.898-2.34-1.648-3.93-1.648c-1.59,0-3.39,1.199-3.75,2.88
			c-0.39,1.858,1.5,2.729,2.82,3.271c2.22,0.93,4.56,1.889,3.9,4.979c-0.54,2.641-3.21,4.199-5.64,4.199
			c-1.98,0-4.29-1.229-5.43-2.549l1.02-1.141c1.02,1.289,2.85,2.489,4.709,2.489c1.77,0,3.51-0.99,3.93-2.91
			c0.51-2.369-1.2-3.06-2.91-3.778c-2.01-0.841-4.38-1.861-3.78-4.681c0.48-2.25,3.12-3.96,5.49-3.96c1.83,0,3.18,0.63,4.41,1.68
			L120.687,98.909z"/>
		<path fill="#FFFFFF" d="M152.756,97.59h-4.62l0.24-1.2h6.03l-3.36,15.868h-1.41L152.756,97.59z M156.236,91.799
			c-0.18,0.871-1.05,1.561-1.92,1.561s-1.41-0.689-1.23-1.561c0.18-0.869,1.02-1.561,1.89-1.561S156.416,90.93,156.236,91.799z"/>
		<path fill="#FFFFFF" d="M164.005,112.258h-1.41l1.68-7.948c0.57-2.7,1.08-5.399,1.11-8.101h1.32l-0.42,4.561h0.06
			c1.11-2.37,4.14-4.71,6.66-4.71c2.88,0,3.15,2.489,2.64,4.89l-2.4,11.311h-1.41l2.25-10.649c0.39-1.829,0.93-4.351-1.53-4.351
			c-2.28,0-5.88,2.279-7.169,8.46L164.005,112.258z"/>
		<path fill="#FFFFFF" d="M210.654,109.918c-1.83,1.59-3.57,2.67-5.82,2.67c-2.79,0-6.27-1.739-4.92-8.1
			c1.38-6.42,5.34-8.43,8.31-8.43c2.4,0,3.9,1.26,4.77,3.21l-1.44,0.84c-0.48-1.649-1.65-2.851-3.6-2.851
			c-1.979,0-5.339,1.229-6.569,6.99c-1.17,5.459,1.35,7.14,3.66,7.14c1.74,0,3.51-1.2,4.86-2.489L210.654,109.918z"/>
		<path fill="#FFFFFF" d="M217.794,104.31c1.32-6.181,4.95-8.25,7.83-8.25c2.64,0,5.7,1.771,4.32,8.25
			c-1.35,6.448-5.16,8.278-7.83,8.278C219.444,112.588,216.414,110.79,217.794,104.31z M228.534,104.31
			c0.66-3.09,0.72-7.05-3.18-7.05c-3.87,0-5.49,3.96-6.15,7.05c-0.66,3.119-0.72,7.079,3.15,7.079
			C226.254,111.389,227.874,107.399,228.534,104.31z"/>
		<path fill="#FFFFFF" d="M236.003,112.258h-1.41l1.68-7.948c0.57-2.7,1.08-5.399,1.11-8.101h1.32l-0.42,4.561h0.06
			c1.11-2.37,4.14-4.71,6.66-4.71c2.88,0,3.15,2.489,2.64,4.89l-2.4,11.311h-1.41l2.25-10.649c0.39-1.829,0.93-4.351-1.53-4.351
			c-2.28,0-5.88,2.279-7.169,8.46L236.003,112.258z"/>
		<path fill="#FFFFFF" d="M264.323,106.679c-0.42,1.95-0.69,3.87-0.51,5.729l-1.35,0.18l-0.03-2.609
			c-1.2,1.65-2.91,2.609-4.77,2.609c-2.67,0-5.7-2.189-4.38-8.369c1.35-6.359,5.79-8.159,7.979-8.159c1.41,0,2.7,0.479,3.6,1.351
			l1.59-7.41h1.41L264.323,106.679z M264.563,98.819c-0.81-0.869-1.89-1.561-3.21-1.561c-1.8,0-5.43,1.229-6.69,7.051
			c-1.17,5.488,1.47,7.079,3.27,7.079c2.01,0,3.63-1.47,4.65-3.181L264.563,98.819z"/>
		<path fill="#FFFFFF" d="M283.312,96.39h1.41l-1.65,7.829c-0.57,2.699-1.05,5.4-1.08,8.039h-1.32l0.36-4.5h-0.06
			c-1.11,2.371-4.14,4.83-6.629,4.83c-2.88,0-3.15-2.609-2.64-5.01l2.37-11.188h1.41l-2.22,10.528c-0.63,3-0.21,4.471,1.5,4.471
			c2.34,0,5.939-2.58,7.2-8.579L283.312,96.39z"/>
		<path fill="#FFFFFF" d="M300.652,109.918c-1.83,1.59-3.57,2.67-5.82,2.67c-2.79,0-6.27-1.739-4.92-8.1
			c1.38-6.42,5.34-8.43,8.31-8.43c2.4,0,3.9,1.26,4.77,3.21l-1.44,0.84c-0.48-1.649-1.65-2.851-3.6-2.851
			c-1.979,0-5.339,1.229-6.569,6.99c-1.17,5.459,1.35,7.14,3.66,7.14c1.74,0,3.51-1.2,4.86-2.489L300.652,109.918z"/>
		<path fill="#FFFFFF" d="M319.611,97.59h-5.82l-2.31,10.828c-0.33,1.531-0.061,2.971,1.89,2.971c1.77,0,3.3-1.319,4.29-2.819
			l1.29,0.33c-1.44,2.039-3.51,3.688-5.88,3.688c-2.04,0-3.689-0.989-2.82-5.01l2.13-9.988h-3.57l0.24-1.2h3.57l1.11-5.101h1.409
			l-1.109,5.101h5.819L319.611,97.59z"/>
		<path fill="#FFFFFF" d="M330.741,108.629c1.109,0,1.83,0.93,1.59,2.039s-1.35,2.011-2.46,2.011s-1.83-0.9-1.59-2.011
			C328.521,109.559,329.631,108.629,330.741,108.629z"/>
		<path fill="#FFFFFF" d="M369.59,90.659l-0.72,3.33l-1.65,4.051h-1.2l0.03-4.051l0.72-3.33H369.59z M374.36,90.659l-0.721,3.33
			l-1.649,4.051h-1.2l0.03-4.051l0.72-3.33H374.36z"/>
		<path fill="#FFFFFF" d="M392,91.859h-3l-4.08,19.199h3l-0.27,1.2h-7.41l0.27-1.2h3l4.08-19.199h-3l0.24-1.2h7.41L392,91.859z"/>
		<path fill="#FFFFFF" d="M415.819,96.39h1.56l-0.72,13.709h0.06l4.86-9.629h1.53l0.72,9.629h0.06l5.101-13.709h1.529l-6.209,16.079
			h-1.529l-0.84-10.26l-5.16,10.26h-1.53L415.819,96.39z"/>
		<path fill="#FFFFFF" d="M441.588,112.588c-0.12-0.869-0.149-1.799-0.03-2.699c-1.439,1.59-2.85,2.699-4.92,2.699
			c-2.91,0-3.93-2.369-3.359-5.039c0.66-3.029,2.91-5.641,5.97-5.641c1.29,0,2.67,0.51,3.66,1.051c0.93-4.021,0.57-5.699-2.04-5.699
			c-1.38,0-2.641,0.479-4.021,1.05l-0.06-1.29c1.5-0.54,2.94-0.96,4.44-0.96c2.909,0,4.199,2.04,3.359,5.58
			c-0.51,2.159-1.02,4.319-1.56,6.479c-0.36,1.528-0.271,2.969-0.12,4.289L441.588,112.588z M442.578,104.069
			c-0.87-0.51-1.98-0.96-3.24-0.96c-2.64,0-4.169,2.22-4.648,4.56c-0.391,1.771,0.18,3.721,2.189,3.721c1.979,0,3.51-1.59,4.83-3.21
			L442.578,104.069z"/>
		<path fill="#FFFFFF" d="M462.677,98.909c-1.08-0.898-2.34-1.648-3.93-1.648s-3.39,1.199-3.75,2.88
			c-0.39,1.858,1.5,2.729,2.82,3.271c2.22,0.93,4.56,1.889,3.899,4.979c-0.54,2.641-3.21,4.199-5.64,4.199
			c-1.98,0-4.29-1.229-5.43-2.549l1.02-1.141c1.02,1.289,2.85,2.489,4.709,2.489c1.771,0,3.51-0.99,3.93-2.91
			c0.511-2.369-1.199-3.06-2.909-3.778c-2.011-0.841-4.381-1.861-3.78-4.681c0.479-2.25,3.12-3.96,5.49-3.96
			c1.829,0,3.18,0.63,4.409,1.68L462.677,98.909z"/>
		<path fill="#FFFFFF" d="M492.887,90l-1.59,7.408c1.26-0.869,2.79-1.35,4.2-1.35c2.19,0,5.85,1.8,4.5,8.158
			c-1.32,6.181-5.28,8.371-7.92,8.371c-1.86,0-3.21-0.961-3.69-2.61l-1.109,2.61l-1.29-0.18c0.96-1.861,1.529-3.781,1.95-5.73
			L491.477,90H492.887z M489.017,108.209c0.421,1.709,1.171,3.18,3.271,3.18c1.8,0,5.1-1.561,6.27-7.079
			c1.261-5.819-1.89-7.05-3.688-7.05c-1.351,0-2.7,0.689-3.87,1.56L489.017,108.209z"/>
		<path fill="#FFFFFF" d="M505.786,104.31c1.32-6.181,4.95-8.25,7.83-8.25c2.64,0,5.7,1.771,4.319,8.25
			c-1.35,6.448-5.159,8.278-7.829,8.278C507.436,112.588,504.406,110.79,505.786,104.31z M516.526,104.31
			c0.659-3.09,0.72-7.05-3.181-7.05c-3.87,0-5.489,3.96-6.149,7.05c-0.66,3.119-0.721,7.079,3.149,7.079
			C514.246,111.389,515.866,107.399,516.526,104.31z"/>
		<path fill="#FFFFFF" d="M525.436,112.258h-1.409l2.34-10.979l0.51-5.07h1.35l-0.42,4.44l0.061,0.06
			c1.439-2.188,3.63-4.648,6.359-4.648c2.641,0,2.761,2.641,2.311,4.8h-1.41c0.271-1.47,0.63-3.601-1.29-3.601
			c-1.62,0-5.729,2.521-7.02,8.55L525.436,112.258z"/>
		<path fill="#FFFFFF" d="M552.135,111.148c-2.01,0.812-3.93,1.44-5.97,1.44c-4.65,0-5.49-4.17-4.62-8.189
			c0.84-4.021,3.54-8.34,8.22-8.34c2.67,0,5.4,1.92,4.021,8.488h-10.859c-0.93,5.58,1.11,6.841,3.54,6.841
			c1.8,0,3.66-0.66,5.34-1.56L552.135,111.148z M552.615,103.35c0.72-2.73-0.181-6.09-3.3-6.09c-3.091,0-5.641,3.3-6.149,6.09
			H552.615L552.615,103.35z"/>
		<path fill="#FFFFFF" d="M570.314,106.679c-0.42,1.95-0.689,3.87-0.511,5.729l-1.35,0.18l-0.03-2.609
			c-1.2,1.65-2.909,2.609-4.77,2.609c-2.67,0-5.7-2.189-4.38-8.369c1.35-6.359,5.788-8.159,7.979-8.159c1.41,0,2.7,0.479,3.6,1.351
			l1.593-7.41h1.408L570.314,106.679z M570.554,98.819c-0.81-0.869-1.89-1.561-3.209-1.561c-1.801,0-5.431,1.229-6.689,7.051
			c-1.17,5.488,1.47,7.079,3.271,7.079c2.01,0,3.629-1.47,4.649-3.181L570.554,98.819z"/>
		<path fill="#FFFFFF" d="M579.854,114.329c0.99-0.271,2.131-0.841,2.73-1.771c-0.181,0.062-0.36,0.09-0.601,0.09
			c-1.109,0-1.649-0.75-1.439-1.858c0.24-1.142,1.319-1.951,2.399-1.951c1.319,0,1.859,1.23,1.59,2.461
			c-0.479,2.16-2.939,3.75-4.949,4.289L579.854,114.329z"/>
		<path fill="#FFFFFF" d="M603.584,90.659l-0.721,3.33l-1.649,4.051h-1.2l0.03-4.051l0.72-3.33H603.584z M608.354,90.659l-0.72,3.33
			l-1.649,4.051h-1.2l0.03-4.051l0.72-3.33H608.354z"/>
		<path fill="#FFFFFF" d="M635.594,90h1.41l-2.101,9.838h0.061c1.38-1.979,3.689-3.778,6.09-3.778c1.47,0,3.54,1.17,2.79,4.649
			l-2.46,11.549h-1.41l2.13-9.959c0.42-2.01,0.78-5.039-1.56-5.039c-2.67,0-5.79,3.328-6.57,7.02l-1.71,7.979h-1.41L635.594,90z"/>
		<path fill="#FFFFFF" d="M660.134,111.148c-2.01,0.812-3.93,1.44-5.97,1.44c-4.65,0-5.49-4.17-4.62-8.189
			c0.84-4.021,3.54-8.34,8.22-8.34c2.67,0,5.399,1.92,4.021,8.488h-10.859c-0.93,5.58,1.11,6.841,3.54,6.841
			c1.8,0,3.66-0.66,5.34-1.56L660.134,111.148z M660.614,103.35c0.72-2.73-0.181-6.09-3.3-6.09c-3.091,0-5.641,3.3-6.149,6.09
			H660.614L660.614,103.35z"/>
		<path fill="#FFFFFF" d="M9.9,136.2H5.22L5.49,135h6.09l-4.74,22.258H5.43L9.9,136.2z"/>
		<path fill="#FFFFFF" d="M27.599,157.588c-0.12-0.869-0.15-1.799-0.03-2.699c-1.44,1.59-2.85,2.699-4.92,2.699
			c-2.91,0-3.93-2.369-3.36-5.039c0.66-3.029,2.91-5.641,5.97-5.641c1.29,0,2.67,0.51,3.66,1.051c0.93-4.021,0.57-5.699-2.04-5.699
			c-1.38,0-2.64,0.479-4.02,1.05l-0.06-1.29c1.5-0.54,2.94-0.96,4.44-0.96c2.91,0,4.2,2.04,3.36,5.58
			c-0.51,2.159-1.02,4.319-1.56,6.479c-0.36,1.528-0.27,2.969-0.12,4.289L27.599,157.588z M28.589,149.069
			c-0.87-0.51-1.98-0.96-3.24-0.96c-2.64,0-4.169,2.22-4.649,4.56c-0.39,1.771,0.18,3.721,2.189,3.721c1.98,0,3.51-1.59,4.83-3.21
			L28.589,149.069z"/>
		<path fill="#FFFFFF" d="M37.619,146.189c0.45-2.101,0.57-3.78,0.54-5.13h1.44l-0.06,2.068c1.17-1.26,2.61-2.068,4.17-2.068
			c1.29,0,1.83,0.779,2.04,1.92c1.02-1.021,2.31-1.92,3.69-1.92c2.04,0,2.82,1.35,2.4,3.33l-2.73,12.869h-1.41l2.73-12.811
			c0.33-1.619-0.33-2.22-1.44-2.22c-1.26,0-2.52,0.989-3.33,2.04l-2.76,12.988h-1.41l2.58-12.18c0.24-1.199,0.51-2.818-1.08-2.818
			c-1.35,0-2.82,1.109-3.6,2.31l-2.7,12.688h-1.41L37.619,146.189z"/>
		<path fill="#FFFFFF" d="M66.148,156.148c-2.01,0.812-3.93,1.44-5.97,1.44c-4.649,0-5.49-4.17-4.62-8.189
			c0.84-4.021,3.54-8.34,8.22-8.34c2.67,0,5.4,1.92,4.02,8.488h-10.86c-0.93,5.58,1.11,6.841,3.54,6.841c1.8,0,3.66-0.66,5.34-1.56
			L66.148,156.148z M66.628,148.35c0.72-2.73-0.18-6.09-3.3-6.09c-3.09,0-5.64,3.3-6.149,6.09H66.628z"/>
		<path fill="#FFFFFF" d="M74.008,157.258h-1.41l1.68-7.948c0.57-2.7,1.08-5.399,1.11-8.101h1.32l-0.42,4.561h0.06
			c1.11-2.37,4.14-4.71,6.66-4.71c2.88,0,3.15,2.489,2.64,4.89l-2.4,11.311h-1.41l2.25-10.649c0.39-1.829,0.93-4.351-1.53-4.351
			c-2.28,0-5.88,2.279-7.169,8.459L74.008,157.258z"/>
		<path fill="#FFFFFF" d="M103.617,142.59h-5.82l-2.31,10.828c-0.33,1.531-0.06,2.971,1.89,2.971c1.77,0,3.3-1.319,4.29-2.819
			l1.29,0.33c-1.44,2.039-3.51,3.688-5.88,3.688c-2.04,0-3.689-0.989-2.82-5.01l2.13-9.988h-3.57l0.24-1.2h3.57l1.11-5.101h1.41
			l-1.11,5.101h5.82L103.617,142.59z"/>
		<path fill="#FFFFFF" d="M120.687,143.909c-1.08-0.898-2.34-1.648-3.93-1.648c-1.59,0-3.39,1.199-3.75,2.88
			c-0.39,1.858,1.5,2.729,2.82,3.271c2.22,0.93,4.56,1.889,3.9,4.979c-0.54,2.641-3.21,4.199-5.64,4.199
			c-1.98,0-4.29-1.229-5.43-2.549l1.02-1.141c1.02,1.289,2.85,2.489,4.709,2.489c1.77,0,3.51-0.99,3.93-2.91
			c0.51-2.369-1.2-3.06-2.91-3.778c-2.01-0.841-4.38-1.861-3.78-4.681c0.48-2.25,3.12-3.96,5.49-3.96c1.83,0,3.18,0.63,4.41,1.68
			L120.687,143.909z"/>
		<path fill="#FFFFFF" d="M171.595,135.659l-0.72,3.33l-1.65,4.051h-1.2l0.03-4.051l0.72-3.33H171.595z M176.365,135.659l-0.72,3.33
			l-1.65,4.051h-1.2l0.03-4.051l0.72-3.33H176.365z"/>
		<path fill="#FFFFFF" d="M197.245,136.859h-6.24l-4.35,20.399h-1.41l4.35-20.399h-6.209l0.24-1.2h13.859L197.245,136.859z"/>
		<path fill="#FFFFFF" d="M203.604,135h1.41l-2.1,9.838h0.06c1.38-1.979,3.69-3.778,6.09-3.778c1.47,0,3.54,1.17,2.79,4.649
			l-2.46,11.549h-1.41l2.13-9.959c0.42-2.01,0.78-5.039-1.56-5.039c-2.67,0-5.79,3.328-6.57,7.02l-1.71,7.979h-1.41L203.604,135z"/>
		<path fill="#FFFFFF" d="M228.144,156.148c-2.01,0.812-3.93,1.44-5.97,1.44c-4.65,0-5.49-4.17-4.62-8.189
			c0.84-4.021,3.54-8.34,8.22-8.34c2.67,0,5.4,1.92,4.02,8.488h-10.859c-0.93,5.58,1.11,6.841,3.54,6.841c1.8,0,3.66-0.66,5.34-1.56
			L228.144,156.148z M228.624,148.35c0.72-2.73-0.18-6.09-3.3-6.09c-3.09,0-5.64,3.3-6.149,6.09H228.624z"/>
		<path fill="#FFFFFF" d="M249.683,141.39l-9.12,15.089c-1.32,2.16-3.45,5.85-6.24,5.85c-1.8,0-2.82-1.408-3-3.029l1.32-0.629
			c0.15,1.08,0.63,2.459,1.95,2.459c1.53,0,2.7-1.771,3.48-2.969l1.77-2.73l-2.189-14.039h1.56l1.71,12.18l7.14-12.18
			L249.683,141.39L249.683,141.39z"/>
		<path fill="#FFFFFF" d="M282.322,151.679c-0.42,1.95-0.69,3.87-0.51,5.729l-1.35,0.18l-0.03-2.609
			c-1.2,1.65-2.91,2.609-4.77,2.609c-2.67,0-5.7-2.189-4.38-8.369c1.35-6.359,5.79-8.159,7.979-8.159c1.41,0,2.7,0.479,3.6,1.351
			l1.59-7.41h1.41L282.322,151.679z M282.562,143.819c-0.81-0.869-1.89-1.561-3.209-1.561c-1.8,0-5.43,1.229-6.69,7.051
			c-1.17,5.488,1.47,7.079,3.27,7.079c2.01,0,3.63-1.47,4.65-3.181L282.562,143.819z"/>
		<path fill="#FFFFFF" d="M296.752,142.59h-4.62l0.24-1.2h6.03l-3.36,15.868h-1.41L296.752,142.59z M300.232,136.799
			c-0.18,0.871-1.05,1.561-1.92,1.561s-1.41-0.689-1.23-1.561c0.18-0.869,1.02-1.561,1.89-1.561
			C299.842,135.239,300.412,135.93,300.232,136.799z"/>
		<path fill="#FFFFFF" d="M318.321,151.679c-0.42,1.95-0.69,3.87-0.511,5.729l-1.35,0.18l-0.03-2.609
			c-1.199,1.65-2.909,2.609-4.77,2.609c-2.67,0-5.7-2.189-4.38-8.369c1.35-6.359,5.79-8.159,7.979-8.159
			c1.41,0,2.7,0.479,3.601,1.351l1.59-7.41h1.41L318.321,151.679z M318.561,143.819c-0.81-0.869-1.89-1.561-3.209-1.561
			c-1.8,0-5.43,1.229-6.689,7.051c-1.17,5.488,1.47,7.079,3.27,7.079c2.011,0,3.63-1.47,4.65-3.181L318.561,143.819z"/>
		<path fill="#FFFFFF" d="M326.001,157.258h-1.41l1.681-7.948c0.569-2.7,1.079-5.399,1.109-8.101h1.32l-0.42,4.561h0.06
			c1.11-2.37,4.141-4.71,6.66-4.71c2.88,0,3.15,2.489,2.64,4.89l-2.399,11.311h-1.41l2.25-10.649c0.39-1.829,0.93-4.351-1.53-4.351
			c-2.279,0-5.88,2.279-7.169,8.459L326.001,157.258z"/>
		<path fill="#FFFFFF" d="M353.96,135.659l-0.72,3.33l-1.65,4.051h-1.2l0.03-4.051l0.72-3.33H353.96z"/>
		<path fill="#FFFFFF" d="M373.61,142.59h-5.82l-2.31,10.828c-0.33,1.531-0.061,2.971,1.89,2.971c1.77,0,3.3-1.319,4.29-2.819
			l1.29,0.33c-1.44,2.039-3.51,3.688-5.88,3.688c-2.04,0-3.689-0.989-2.82-5.01l2.13-9.988h-3.57l0.24-1.2h3.57l1.11-5.101h1.409
			l-1.109,5.101h5.819L373.61,142.59z"/>
		<path fill="#FFFFFF" d="M398.929,146.939c0.42-1.92,0.66-3.84,0.511-5.7l1.35-0.18v2.609h0.06c1.141-1.649,2.88-2.609,4.74-2.609
			c2.64,0,5.7,2.13,4.351,8.369c-1.351,6.359-5.79,8.16-7.95,8.16c-1.41,0-2.73-0.48-3.63-1.351l-1.561,7.38h-1.41L398.929,146.939z
			 M398.659,154.829c0.81,0.871,1.859,1.561,3.21,1.561c1.8,0,5.46-1.26,6.689-7.051c1.17-5.52-1.47-7.078-3.27-7.078
			c-2.1,0-3.48,1.47-4.62,3.18L398.659,154.829z"/>
		<path fill="#FFFFFF" d="M427.308,141.39h1.41l-1.649,7.829c-0.57,2.699-1.051,5.4-1.08,8.039h-1.32l0.36-4.5h-0.061
			c-1.109,2.371-4.14,4.83-6.629,4.83c-2.88,0-3.149-2.609-2.64-5.01l2.37-11.188h1.409l-2.22,10.528c-0.63,3-0.21,4.471,1.5,4.471
			c2.34,0,5.939-2.58,7.2-8.579L427.308,141.39z"/>
		<path fill="#FFFFFF" d="M444.678,143.909c-1.08-0.898-2.34-1.648-3.93-1.648s-3.39,1.199-3.75,2.88
			c-0.39,1.858,1.5,2.729,2.82,3.271c2.22,0.93,4.56,1.889,3.899,4.979c-0.54,2.641-3.21,4.199-5.64,4.199
			c-1.98,0-4.29-1.229-5.43-2.549l1.02-1.141c1.02,1.289,2.85,2.489,4.709,2.489c1.771,0,3.51-0.99,3.93-2.91
			c0.511-2.369-1.199-3.06-2.909-3.778c-2.011-0.841-4.381-1.861-3.78-4.681c0.479-2.25,3.12-3.96,5.49-3.96
			c1.829,0,3.18,0.63,4.409,1.68L444.678,143.909z"/>
		<path fill="#FFFFFF" d="M455.598,135h1.41l-2.1,9.838h0.06c1.38-1.979,3.69-3.778,6.09-3.778c1.471,0,3.54,1.17,2.79,4.649
			l-2.46,11.549h-1.41l2.131-9.959c0.42-2.01,0.779-5.039-1.561-5.039c-2.67,0-5.79,3.328-6.57,7.02l-1.71,7.979h-1.409L455.598,135
			z"/>
		<path fill="#FFFFFF" d="M487.607,146.189c0.449-2.101,0.569-3.78,0.54-5.13h1.439l-0.06,2.068c1.17-1.26,2.609-2.068,4.17-2.068
			c1.29,0,1.83,0.779,2.04,1.92c1.02-1.021,2.31-1.92,3.689-1.92c2.04,0,2.82,1.35,2.4,3.33l-2.73,12.869h-1.409l2.729-12.811
			c0.33-1.619-0.33-2.22-1.44-2.22c-1.26,0-2.52,0.989-3.329,2.04l-2.761,12.988h-1.41l2.58-12.18
			c0.24-1.199,0.511-2.818-1.08-2.818c-1.35,0-2.819,1.109-3.6,2.31l-2.7,12.688h-1.41L487.607,146.189z"/>
		<path fill="#FFFFFF" d="M516.136,156.148c-2.01,0.812-3.93,1.44-5.97,1.44c-4.65,0-5.49-4.17-4.62-8.189
			c0.84-4.021,3.54-8.34,8.22-8.34c2.67,0,5.4,1.92,4.021,8.488h-10.859c-0.93,5.58,1.11,6.841,3.54,6.841
			c1.8,0,3.66-0.66,5.34-1.56L516.136,156.148z M516.616,148.35c0.72-2.73-0.181-6.09-3.3-6.09c-3.091,0-5.641,3.3-6.149,6.09
			H516.616z"/>
		<path fill="#FFFFFF" d="M528.736,153.629c1.109,0,1.83,0.93,1.59,2.039s-1.35,2.011-2.46,2.011s-1.83-0.9-1.59-2.011
			C526.516,154.559,527.625,153.629,528.736,153.629z"/>
		<path fill="#FFFFFF" d="M549.585,135.659l-0.72,3.33l-1.65,4.051h-1.2l0.03-4.051l0.72-3.33H549.585z M554.355,135.659
			l-0.721,3.33l-1.649,4.051h-1.2l0.03-4.051l0.72-3.33H554.355z"/>
	</g>
</g>
<g id="Layer_2">
	<path fill="#FFFFFF" d="M129.92,153.629c1.109,0,1.83,0.93,1.59,2.039c-0.241,1.11-1.348,2.011-2.46,2.011
		c-1.11,0-1.83-0.9-1.59-2.011C127.699,154.559,128.809,153.629,129.92,153.629z"/>
</g>
</svg>
