<?xml version="1.0" encoding="utf-8"?>
<!-- Generator: Adobe Illustrator 15.0.0, SVG Export Plug-In . SVG Version: 6.00 Build 0)  -->
<!DOCTYPE svg PUBLIC "-//W3C//DTD SVG 1.1//EN" "http://www.w3.org/Graphics/SVG/1.1/DTD/svg11.dtd">
<svg version="1.1" id="Layer_1" xmlns="http://www.w3.org/2000/svg" xmlns:xlink="http://www.w3.org/1999/xlink" x="0px" y="0px"
	 width="236.097px" height="28.854px" viewBox="30.312 20.573 236.097 28.854"
	 enable-background="new 30.312 20.573 236.097 28.854" xml:space="preserve">
<g>
	<path fill="#FFFFFF" d="M33.973,20.837h2.495l-1.175,5.553c-0.228,1.068-0.671,3.25-3.142,3.25c-1.403,0-2.135-0.792-1.727-2.663
		l0.264-1.211h0.899l-0.335,1.547c-0.216,0.995,0.144,1.571,1.031,1.571c1.032,0,1.703-0.587,1.967-1.823l1.164-5.469h-1.595
		L33.973,20.837z"/>
	<path fill="#FFFFFF" d="M41.761,24.89c0.156-0.708-0.168-1.211-0.839-1.211c-0.564,0-1.151,0.264-1.715,0.48l-0.036-0.792
		c0.659-0.24,1.271-0.444,1.943-0.444c1.223,0,1.751,1.007,1.523,2.075l-0.588,2.783c-0.12,0.587-0.167,1.187-0.096,1.739
		l-0.863,0.108l-0.06-0.803c-0.54,0.516-1.08,0.779-1.751,0.779c-1.224,0-1.703-0.959-1.463-2.099
		c0.264-1.235,1.247-2.315,2.542-2.315c0.48,0,0.899,0.144,1.271,0.312L41.761,24.89z M41.473,26.258
		c-0.348-0.168-0.732-0.312-1.164-0.312c-0.912,0-1.439,0.792-1.607,1.607c-0.132,0.6,0.036,1.295,0.731,1.295
		c0.695,0,1.235-0.588,1.727-1.104L41.473,26.258z"/>
	<path fill="#FFFFFF" d="M51.06,23.055l-3.658,6.021c-0.564,0.924-1.439,2.351-2.615,2.351c-0.828,0-1.259-0.636-1.331-1.392
		l0.839-0.396c0.06,0.384,0.18,1.031,0.66,1.031c0.504,0,0.948-0.695,1.199-1.079l0.624-0.972l-0.875-5.565h0.971l0.624,4.366
		l2.603-4.366L51.06,23.055L51.06,23.055z"/>
	<path fill="#FFFFFF" d="M56.844,24.399c-0.432-0.36-0.912-0.72-1.559-0.72c-0.54,0-1.127,0.396-1.259,0.972
		c-0.132,0.624,0.552,0.936,1.007,1.115c0.923,0.372,1.895,0.792,1.619,2.063c-0.228,1.055-1.331,1.775-2.327,1.775
		c-0.972,0-1.835-0.479-2.411-1.115l0.647-0.72c0.396,0.54,1.104,1.08,1.859,1.08c0.6,0,1.188-0.336,1.319-0.983
		c0.18-0.84-0.443-1.067-1.043-1.319c-0.839-0.348-1.799-0.78-1.559-1.931c0.204-0.936,1.224-1.691,2.339-1.691
		c0.804,0,1.379,0.288,1.919,0.744L56.844,24.399z"/>
	<path fill="#FFFFFF" d="M59.619,26.27c0.527-2.483,2.027-3.346,3.25-3.346c2.267,0,2.063,2.303,1.847,3.346
		c-0.528,2.482-2.027,3.334-3.262,3.334C60.338,29.604,59.067,28.86,59.619,26.27z M63.816,26.27c0.228-1.104,0.3-2.591-1.103-2.591
		c-1.403,0-1.967,1.487-2.195,2.591c-0.24,1.104-0.312,2.579,1.091,2.579C63.012,28.849,63.576,27.373,63.816,26.27z"/>
	<path fill="#FFFFFF" d="M67.227,29.472h-0.9l0.684-3.226c0.228-1.08,0.42-2.171,0.396-3.19h0.864l-0.048,1.175
		c0.612-0.755,1.559-1.307,2.459-1.307c1.019,0,1.343,0.936,1.115,2.027l-0.959,4.521h-0.899l0.899-4.258
		c0.132-0.611,0.336-1.535-0.456-1.535c-0.852,0-2.111,0.864-2.591,3.119L67.227,29.472z"/>
	<path fill="#FFFFFF" d="M86.375,22.396c-0.419-0.468-0.911-0.971-1.655-0.971c-0.768,0-1.511,0.527-1.679,1.319
		c-0.096,0.456-0.096,0.864,0.912,1.571l0.6,0.42c1.391,0.971,1.715,1.427,1.499,2.435c-0.336,1.547-1.559,2.471-3.07,2.471
		c-1.115,0-1.823-0.54-2.314-1.403l0.815-0.552c0.276,0.672,0.828,1.199,1.655,1.199c0.9,0,1.787-0.671,1.991-1.595
		c0.144-0.696,0.132-0.924-1.188-1.847l-0.671-0.468c-0.732-0.516-1.367-1.091-1.14-2.171c0.288-1.355,1.487-2.135,2.783-2.135
		c0.899,0,1.631,0.48,2.146,1.08L86.375,22.396z"/>
	<path fill="#FFFFFF" d="M93.335,23.811h-2.291l-0.78,3.658c-0.132,0.624-0.276,1.379,0.54,1.379c0.684,0,1.224-0.564,1.595-1.127
		l0.815,0.216c-0.624,0.923-1.511,1.667-2.59,1.667c-1.043,0-1.595-0.503-1.188-2.422l0.708-3.371h-1.379l0.168-0.755h1.379
		l0.42-1.967h0.899l-0.419,1.967h2.291L93.335,23.811z"/>
	<path fill="#FFFFFF" d="M96.578,29.472h-0.9l0.78-3.682c0.228-1.055,0.324-1.931,0.336-2.734h0.875l-0.06,1.223
		c0.647-0.755,1.319-1.355,2.279-1.355c1.199,0,1.235,1.175,1.031,2.147h-0.899c0.084-0.48,0.348-1.392-0.336-1.392
		c-0.66,0-2.099,0.983-2.542,3.119L96.578,29.472z"/>
	<path fill="#FFFFFF" d="M103.574,26.497c-0.336,1.763,0.336,2.351,1.319,2.351c0.708,0,1.487-0.324,2.146-0.684l0.216,0.803
		c-0.875,0.36-1.703,0.636-2.591,0.636c-1.895,0-2.303-1.631-1.955-3.298c0.36-1.679,1.5-3.382,3.418-3.382
		c2.135,0,1.943,2.387,1.811,3.082l-0.096,0.492H103.574z M107.1,25.742c0.192-1.055-0.192-2.063-1.199-2.063
		c-1.007,0-1.667,0.768-2.183,2.063H107.1z"/>
	<path fill="#FFFFFF" d="M110.773,26.497c-0.336,1.763,0.336,2.351,1.319,2.351c0.708,0,1.487-0.324,2.147-0.684l0.216,0.803
		c-0.875,0.36-1.703,0.636-2.591,0.636c-1.895,0-2.303-1.631-1.955-3.298c0.36-1.679,1.5-3.382,3.418-3.382
		c2.135,0,1.943,2.387,1.811,3.082l-0.096,0.492H110.773z M114.299,25.742c0.192-1.055-0.192-2.063-1.199-2.063
		c-1.007,0-1.667,0.768-2.183,2.063H114.299z"/>
	<path fill="#FFFFFF" d="M122.135,23.811h-2.291l-0.78,3.658c-0.132,0.624-0.276,1.379,0.54,1.379c0.684,0,1.224-0.564,1.595-1.127
		l0.815,0.216c-0.624,0.923-1.511,1.667-2.59,1.667c-1.043,0-1.595-0.503-1.188-2.422l0.708-3.371h-1.379l0.168-0.755h1.379
		l0.42-1.967h0.899l-0.419,1.967h2.291L122.135,23.811z"/>
	<path fill="#FFFFFF" d="M131.582,23.055h1.007l-0.3,4.81h0.024l1.619-3.238h0.875l0.228,3.238h0.024l1.763-4.81h1.007l-2.507,6.5
		h-0.959l-0.312-3.478l-1.763,3.478h-0.959L131.582,23.055z"/>
	<path fill="#FFFFFF" d="M142.56,24.89c0.156-0.708-0.168-1.211-0.839-1.211c-0.564,0-1.151,0.264-1.715,0.48l-0.036-0.792
		c0.659-0.24,1.271-0.444,1.943-0.444c1.223,0,1.751,1.007,1.523,2.075l-0.588,2.783c-0.12,0.587-0.167,1.187-0.096,1.739
		l-0.863,0.108l-0.06-0.803c-0.54,0.516-1.08,0.779-1.751,0.779c-1.224,0-1.703-0.959-1.463-2.099
		c0.264-1.235,1.247-2.315,2.542-2.315c0.48,0,0.899,0.144,1.271,0.312L142.56,24.89z M142.272,26.258
		c-0.348-0.168-0.732-0.312-1.164-0.312c-0.912,0-1.439,0.792-1.607,1.607c-0.132,0.6,0.036,1.295,0.731,1.295
		c0.695,0,1.235-0.588,1.727-1.104L142.272,26.258z"/>
	<path fill="#FFFFFF" d="M149.136,21.328h-1.823l0.168-0.755h2.723l-1.895,8.899h-0.899L149.136,21.328z"/>
	<path fill="#FFFFFF" d="M158.89,23.055c-1.631,1.523-2.099,2.015-3.214,2.938l2.411,3.478h-1.188l-1.895-2.95l-0.492,0.408
		l-0.54,2.542h-0.899l1.895-8.899h0.899l-1.127,5.289c1.031-0.875,2.099-1.775,3.01-2.807L158.89,23.055L158.89,23.055z"/>
	<path fill="#FFFFFF" d="M164.843,24.399c-0.432-0.36-0.912-0.72-1.559-0.72c-0.54,0-1.127,0.396-1.259,0.972
		c-0.132,0.624,0.552,0.936,1.007,1.115c0.923,0.372,1.895,0.792,1.619,2.063c-0.228,1.055-1.331,1.775-2.327,1.775
		c-0.972,0-1.835-0.479-2.411-1.115l0.647-0.72c0.396,0.54,1.104,1.08,1.859,1.08c0.6,0,1.188-0.336,1.319-0.983
		c0.18-0.84-0.444-1.067-1.043-1.319c-0.839-0.348-1.799-0.78-1.559-1.931c0.204-0.936,1.224-1.691,2.339-1.691
		c0.804,0,1.379,0.288,1.919,0.744L164.843,24.399z"/>
	<path fill="#FFFFFF" d="M178.234,29.604l-0.047-0.72c-0.637,0.48-0.973,0.72-1.715,0.72c-1.127,0-2.388-0.863-1.848-3.382
		c0.516-2.447,2.255-3.298,3.298-3.298c0.54,0,0.888,0.132,1.271,0.372l0.588-2.722h0.9l-1.404,6.608
		c-0.168,0.792-0.264,1.583-0.168,2.314L178.234,29.604z M179.002,24.207c-0.288-0.288-0.636-0.528-1.091-0.528
		c-0.959,0-2.027,0.804-2.399,2.579c-0.443,2.087,0.54,2.591,1.141,2.591c0.695,0,1.234-0.516,1.606-1.104L179.002,24.207z"/>
	<path fill="#FFFFFF" d="M182.018,26.27c0.526-2.483,2.026-3.346,3.25-3.346c2.267,0,2.062,2.303,1.846,3.346
		c-0.527,2.482-2.026,3.334-3.262,3.334C182.736,29.604,181.465,28.86,182.018,26.27z M186.214,26.27
		c0.228-1.104,0.3-2.591-1.103-2.591c-1.403,0-1.967,1.487-2.195,2.591c-0.24,1.104-0.312,2.579,1.091,2.579
		S185.975,27.373,186.214,26.27z"/>
	<path fill="#FFFFFF" d="M189.182,23.055h1.006l-0.299,4.81h0.023l1.619-3.238h0.875l0.228,3.238h0.024l1.763-4.81h1.007l-2.507,6.5
		h-0.959l-0.312-3.478l-1.764,3.478h-0.959L189.182,23.055z"/>
	<path fill="#FFFFFF" d="M196.825,29.472h-0.9l0.685-3.226c0.228-1.08,0.418-2.171,0.396-3.19h0.864l-0.049,1.175
		c0.613-0.755,1.56-1.307,2.459-1.307c1.02,0,1.344,0.936,1.115,2.027l-0.959,4.521h-0.898l0.898-4.258
		c0.133-0.611,0.336-1.535-0.455-1.535c-0.853,0-2.111,0.864-2.592,3.119L196.825,29.472z"/>
	<path fill="#FFFFFF" d="M214.559,24.89c0.155-0.708-0.168-1.211-0.84-1.211c-0.564,0-1.15,0.264-1.715,0.48l-0.036-0.792
		c0.66-0.24,1.271-0.444,1.943-0.444c1.223,0,1.751,1.007,1.522,2.075l-0.586,2.783c-0.121,0.587-0.168,1.187-0.097,1.739
		l-0.864,0.108l-0.06-0.803c-0.54,0.516-1.08,0.779-1.751,0.779c-1.225,0-1.703-0.959-1.463-2.099
		c0.264-1.235,1.246-2.315,2.541-2.315c0.48,0,0.9,0.144,1.271,0.312L214.559,24.89z M214.27,26.258
		c-0.348-0.168-0.73-0.312-1.162-0.312c-0.912,0-1.439,0.792-1.607,1.607c-0.132,0.6,0.036,1.295,0.73,1.295
		c0.695,0,1.235-0.588,1.728-1.104L214.27,26.258z"/>
	<path fill="#FFFFFF" d="M229.643,24.399c-0.433-0.36-0.912-0.72-1.56-0.72c-0.54,0-1.127,0.396-1.259,0.972
		c-0.133,0.624,0.552,0.936,1.007,1.115c0.923,0.372,1.896,0.792,1.619,2.063c-0.228,1.055-1.331,1.775-2.327,1.775
		c-0.973,0-1.835-0.479-2.411-1.115l0.647-0.72c0.396,0.54,1.104,1.08,1.858,1.08c0.601,0,1.188-0.336,1.319-0.983
		c0.18-0.84-0.444-1.067-1.043-1.319c-0.84-0.348-1.799-0.78-1.559-1.931c0.203-0.936,1.224-1.691,2.338-1.691
		c0.805,0,1.379,0.288,1.92,0.744L229.643,24.399z"/>
	<path fill="#FFFFFF" d="M233.172,26.497c-0.336,1.763,0.336,2.351,1.319,2.351c0.708,0,1.487-0.324,2.147-0.684l0.215,0.803
		c-0.875,0.36-1.703,0.636-2.59,0.636c-1.896,0-2.304-1.631-1.955-3.298c0.359-1.679,1.5-3.382,3.418-3.382
		c2.135,0,1.942,2.387,1.811,3.082l-0.096,0.492H233.172z M236.698,25.742c0.192-1.055-0.192-2.063-1.199-2.063
		s-1.667,0.768-2.183,2.063H236.698z"/>
	<path fill="#FFFFFF" d="M244.257,28.428c-0.792,0.696-1.534,1.175-2.53,1.175c-1.188,0-2.615-0.731-2.074-3.274
		c0.539-2.567,2.171-3.406,3.453-3.406c1.057,0,1.68,0.576,2.063,1.427l-0.888,0.516c-0.192-0.647-0.54-1.188-1.331-1.188
		c-0.912,0-1.979,0.672-2.388,2.567c-0.42,2.003,0.479,2.603,1.308,2.603c0.708,0,1.379-0.54,1.919-1.056L244.257,28.428z"/>
	<path fill="#FFFFFF" d="M251.337,23.055h0.899l-0.66,3.106c-0.24,1.115-0.456,2.219-0.432,3.31h-0.853l0.06-1.235
		c-0.576,0.708-1.57,1.367-2.397,1.367c-1.14,0-1.415-0.971-1.175-2.087l0.947-4.461h0.898l-0.898,4.198
		c-0.133,0.6-0.336,1.595,0.455,1.595c0.887,0,2.123-0.996,2.59-3.167L251.337,23.055z"/>
	<path fill="#FFFFFF" d="M254.975,29.472h-0.898l0.779-3.682c0.229-1.055,0.324-1.931,0.336-2.734h0.875l-0.06,1.223
		c0.647-0.755,1.319-1.355,2.279-1.355c1.198,0,1.235,1.175,1.03,2.147h-0.898c0.084-0.48,0.348-1.392-0.336-1.392
		c-0.66,0-2.1,0.983-2.542,3.119L254.975,29.472z"/>
	<path fill="#FFFFFF" d="M261.971,26.497c-0.336,1.763,0.336,2.351,1.319,2.351c0.708,0,1.487-0.324,2.146-0.684l0.217,0.803
		c-0.875,0.36-1.703,0.636-2.592,0.636c-1.895,0-2.303-1.631-1.955-3.298c0.36-1.679,1.5-3.382,3.418-3.382
		c2.136,0,1.943,2.387,1.812,3.082l-0.096,0.492H261.971z M265.497,25.742c0.192-1.055-0.192-2.063-1.199-2.063
		s-1.667,0.768-2.183,2.063H265.497z"/>
	<path fill="#FFFFFF" d="M64.26,46.428c-0.792,0.696-1.535,1.176-2.531,1.176c-1.187,0-2.614-0.731-2.075-3.274
		c0.54-2.567,2.171-3.406,3.454-3.406c1.056,0,1.679,0.576,2.063,1.427l-0.888,0.517c-0.192-0.647-0.54-1.188-1.331-1.188
		c-0.912,0-1.979,0.672-2.387,2.567c-0.42,2.003,0.479,2.603,1.307,2.603c0.708,0,1.379-0.539,1.919-1.056L64.26,46.428z"/>
	<path fill="#FFFFFF" d="M66.818,44.27c0.528-2.482,2.027-3.346,3.25-3.346c2.267,0,2.063,2.303,1.847,3.346
		c-0.528,2.482-2.027,3.334-3.262,3.334C67.538,47.604,66.267,46.859,66.818,44.27z M71.016,44.27c0.228-1.104,0.3-2.59-1.103-2.59
		c-1.403,0-1.967,1.486-2.195,2.59c-0.24,1.104-0.312,2.58,1.091,2.58S70.776,45.373,71.016,44.27z"/>
	<path fill="#FFFFFF" d="M74.978,47.473h-0.9l0.78-3.683c0.228-1.056,0.324-1.931,0.336-2.733h0.875l-0.06,1.223
		c0.647-0.756,1.319-1.355,2.279-1.355c1.199,0,1.235,1.176,1.031,2.146H78.42c0.084-0.479,0.348-1.391-0.336-1.391
		c-0.66,0-2.099,0.982-2.542,3.118L74.978,47.473z"/>
	<path fill="#FFFFFF" d="M82.177,47.473h-0.899l0.78-3.683c0.228-1.056,0.324-1.931,0.336-2.733h0.875l-0.06,1.223
		c0.647-0.756,1.319-1.355,2.279-1.355c1.199,0,1.235,1.176,1.031,2.146H85.62c0.084-0.479,0.348-1.391-0.336-1.391
		c-0.66,0-2.099,0.982-2.542,3.118L82.177,47.473z"/>
	<path fill="#FFFFFF" d="M91.105,41.811h-1.823l0.168-0.754h2.723l-1.368,6.416h-0.899L91.105,41.811z M92.796,39.425
		c-0.096,0.433-0.504,0.755-0.923,0.755c-0.42,0-0.684-0.324-0.588-0.755c0.084-0.432,0.492-0.756,0.912-0.756
		C92.616,38.669,92.88,38.992,92.796,39.425z"/>
	<path fill="#FFFFFF" d="M99.036,47.604l-0.048-0.72c-0.636,0.48-0.972,0.72-1.715,0.72c-1.127,0-2.387-0.862-1.847-3.381
		c0.516-2.447,2.254-3.299,3.298-3.299c0.54,0,0.888,0.133,1.271,0.372l0.587-2.722h0.9l-1.403,6.607
		c-0.168,0.793-0.264,1.584-0.168,2.314L99.036,47.604z M99.804,42.207c-0.288-0.288-0.636-0.527-1.091-0.527
		c-0.959,0-2.027,0.803-2.399,2.578c-0.444,2.088,0.54,2.592,1.14,2.592c0.695,0,1.235-0.517,1.607-1.104L99.804,42.207z"/>
	<path fill="#FFFFFF" d="M102.818,44.27c0.527-2.482,2.027-3.346,3.25-3.346c2.267,0,2.063,2.303,1.847,3.346
		c-0.528,2.482-2.027,3.334-3.262,3.334C103.537,47.604,102.266,46.859,102.818,44.27z M107.015,44.27
		c0.228-1.104,0.3-2.59-1.103-2.59c-1.403,0-1.967,1.486-2.195,2.59c-0.24,1.104-0.312,2.58,1.091,2.58
		C106.211,46.85,106.775,45.373,107.015,44.27z"/>
	<path fill="#FFFFFF" d="M110.977,47.473h-0.899l0.78-3.683c0.228-1.056,0.324-1.931,0.336-2.733h0.875l-0.06,1.223
		c0.647-0.756,1.319-1.355,2.279-1.355c1.199,0,1.235,1.176,1.031,2.146h-0.899c0.084-0.479,0.348-1.391-0.336-1.391
		c-0.66,0-2.099,0.982-2.542,3.118L110.977,47.473z"/>
	<path fill="#FFFFFF" d="M124.417,44.27c0.527-2.482,2.027-3.346,3.25-3.346c2.267,0,2.063,2.303,1.847,3.346
		c-0.528,2.482-2.027,3.334-3.262,3.334C125.137,47.604,123.866,46.859,124.417,44.27z M128.615,44.27
		c0.228-1.104,0.3-2.59-1.103-2.59c-1.403,0-1.967,1.486-2.195,2.59c-0.24,1.104-0.312,2.58,1.091,2.58
		C127.811,46.85,128.375,45.373,128.615,44.27z"/>
	<path fill="#FFFFFF" d="M137.794,40.023c-0.456-0.215-0.947-0.6-1.499-0.6c-0.792,0-1.248,0.492-1.427,1.319l-0.156,0.72h2.062
		l-0.156,0.756h-2.063l-1.115,5.254h-0.899l1.115-5.254h-1.595l0.156-0.756h1.595l0.132-0.611c0.324-1.522,1.499-2.183,2.446-2.183
		c0.588,0,1.116,0.204,1.595,0.444L137.794,40.023z"/>
	<path fill="#FFFFFF" d="M151.438,38.837h0.887l-1.835,8.636h-0.899l1.391-6.572h-0.024l-2.674,4.232L147.42,40.9l-0.024,0.023
		l-1.391,6.549h-0.899l1.835-8.636h0.875l0.899,4.306L151.438,38.837z"/>
	<path fill="#FFFFFF" d="M155.904,41.811h-1.823l0.168-0.754h2.723l-1.368,6.416h-0.899L155.904,41.811z M157.595,39.425
		c-0.096,0.433-0.504,0.755-0.923,0.755c-0.42,0-0.684-0.324-0.588-0.755c0.084-0.432,0.492-0.756,0.912-0.756
		C157.415,38.669,157.679,38.992,157.595,39.425z"/>
	<path fill="#FFFFFF" d="M164.159,42.891c0.156-0.709-0.168-1.211-0.839-1.211c-0.564,0-1.151,0.264-1.715,0.479l-0.036-0.792
		c0.66-0.24,1.271-0.444,1.943-0.444c1.223,0,1.751,1.007,1.523,2.075l-0.587,2.783c-0.12,0.587-0.168,1.187-0.096,1.738
		l-0.864,0.108l-0.06-0.803c-0.54,0.516-1.08,0.778-1.751,0.778c-1.224,0-1.703-0.959-1.463-2.099
		c0.264-1.235,1.247-2.315,2.542-2.315c0.48,0,0.899,0.145,1.271,0.312L164.159,42.891z M163.871,44.258
		c-0.348-0.168-0.731-0.312-1.163-0.312c-0.912,0-1.439,0.793-1.607,1.607c-0.132,0.6,0.036,1.295,0.731,1.295
		s1.235-0.588,1.727-1.104L163.871,44.258z"/>
	<path fill="#FFFFFF" d="M167.545,43.046c0.18-0.875,0.191-1.45,0.191-2.123h0.9l0.012,0.576c0.455-0.336,0.838-0.576,1.379-0.576
		c0.586,0,0.719,0.144,0.971,0.587c0.443-0.335,0.828-0.6,1.355-0.6c0.862,0,1.295,0.564,1.114,1.427l-1.091,5.134h-0.898
		l1.09-5.134c0.097-0.433-0.084-0.671-0.443-0.671c-0.408,0-0.828,0.336-1.091,0.671l-1.091,5.134h-0.9l1.08-5.062
		c0.072-0.336,0.061-0.732-0.348-0.732c-0.433,0-0.948,0.384-1.199,0.78l-1.068,5.014h-0.898L167.545,43.046z"/>
	<path fill="#FFFFFF" d="M177.503,41.811h-1.823l0.168-0.754h2.723l-1.367,6.416h-0.898L177.503,41.811z M179.193,39.425
		c-0.096,0.433-0.504,0.755-0.922,0.755c-0.42,0-0.685-0.324-0.588-0.755c0.084-0.432,0.491-0.756,0.912-0.756
		C179.014,38.669,179.277,38.992,179.193,39.425z"/>
	<path fill="#FFFFFF" d="M190.523,42.615h2.998l0.805-3.778h0.898l-1.834,8.636h-0.899l0.875-4.103h-2.999l-0.875,4.103h-0.899
		l1.835-8.636h0.9L190.523,42.615z"/>
	<path fill="#FFFFFF" d="M196.417,44.27c0.526-2.482,2.026-3.346,3.25-3.346c2.267,0,2.063,2.303,1.847,3.346
		c-0.527,2.482-2.027,3.334-3.262,3.334C197.137,47.604,195.865,46.859,196.417,44.27z M200.613,44.27
		c0.229-1.104,0.301-2.59-1.102-2.59c-1.404,0-1.968,1.486-2.195,2.59c-0.24,1.104-0.312,2.58,1.091,2.58
		S200.374,45.373,200.613,44.27z"/>
	<path fill="#FFFFFF" d="M206.734,39.328h-1.822l0.168-0.755h2.723l-1.895,8.899h-0.899L206.734,39.328z"/>
	<path fill="#FFFFFF" d="M213.502,41.811h-1.822l0.168-0.754h2.723l-1.368,6.416h-0.899L213.502,41.811z M215.193,39.425
		c-0.096,0.433-0.504,0.755-0.924,0.755c-0.418,0-0.684-0.324-0.586-0.755c0.084-0.432,0.491-0.756,0.912-0.756
		C215.014,38.669,215.277,38.992,215.193,39.425z"/>
	<path fill="#FFFFFF" d="M221.434,47.604l-0.047-0.72c-0.637,0.48-0.973,0.72-1.716,0.72c-1.127,0-2.387-0.862-1.847-3.381
		c0.516-2.447,2.255-3.299,3.298-3.299c0.54,0,0.888,0.133,1.271,0.372l0.588-2.722h0.899l-1.403,6.607
		c-0.168,0.793-0.264,1.584-0.168,2.314L221.434,47.604z M222.202,42.207c-0.288-0.288-0.636-0.527-1.091-0.527
		c-0.959,0-2.027,0.803-2.399,2.578c-0.444,2.088,0.54,2.592,1.14,2.592c0.695,0,1.235-0.517,1.607-1.104L222.202,42.207z"/>
	<path fill="#FFFFFF" d="M228.958,42.891c0.155-0.709-0.168-1.211-0.839-1.211c-0.564,0-1.151,0.264-1.715,0.479l-0.036-0.792
		c0.659-0.24,1.271-0.444,1.942-0.444c1.224,0,1.752,1.007,1.523,2.075l-0.588,2.783c-0.12,0.587-0.167,1.187-0.096,1.738
		l-0.863,0.108l-0.061-0.803c-0.539,0.516-1.08,0.778-1.75,0.778c-1.225,0-1.703-0.959-1.463-2.099
		c0.264-1.235,1.246-2.315,2.541-2.315c0.48,0,0.899,0.145,1.271,0.312L228.958,42.891z M228.67,44.258
		c-0.348-0.168-0.732-0.312-1.164-0.312c-0.912,0-1.439,0.793-1.607,1.607c-0.131,0.6,0.037,1.295,0.731,1.295
		c0.695,0,1.235-0.588,1.728-1.104L228.67,44.258z"/>
	<path fill="#FFFFFF" d="M238.256,41.055l-3.658,6.021c-0.563,0.924-1.438,2.351-2.615,2.351c-0.828,0-1.258-0.636-1.33-1.392
		l0.839-0.396c0.06,0.385,0.18,1.031,0.659,1.031c0.504,0,0.949-0.695,1.199-1.079l0.625-0.972l-0.875-5.564h0.971l0.623,4.365
		l2.604-4.365H238.256L238.256,41.055z"/>
	<path fill="#FFFFFF" d="M251.889,39.592h-1.175l-1.522,7.125h1.175l-0.156,0.756h-3.237l0.155-0.756h1.164l1.522-7.125h-1.162
		l0.156-0.755h3.237L251.889,39.592z"/>
	<path fill="#FFFFFF" d="M254.423,47.473h-0.899l0.684-3.227c0.229-1.08,0.419-2.171,0.396-3.189h0.863l-0.048,1.174
		c0.612-0.754,1.56-1.307,2.459-1.307c1.019,0,1.343,0.936,1.115,2.027l-0.959,4.521h-0.899l0.899-4.259
		c0.132-0.61,0.336-1.534-0.456-1.534c-0.852,0-2.111,0.863-2.592,3.118L254.423,47.473z"/>
	<path fill="#FFFFFF" d="M261.623,47.473h-0.9l0.685-3.227c0.228-1.08,0.42-2.171,0.396-3.189h0.864l-0.048,1.174
		c0.611-0.754,1.559-1.307,2.459-1.307c1.02,0,1.343,0.936,1.115,2.027l-0.959,4.521h-0.899l0.899-4.259
		c0.132-0.61,0.336-1.534-0.457-1.534c-0.852,0-2.11,0.863-2.59,3.118L261.623,47.473z"/>
</g>
</svg>
