<?xml version="1.0" encoding="utf-8"?>
<!-- Generator: Adobe Illustrator 16.0.0, SVG Export Plug-In . SVG Version: 6.00 Build 0)  -->
<!DOCTYPE svg PUBLIC "-//W3C//DTD SVG 1.1//EN" "http://www.w3.org/Graphics/SVG/1.1/DTD/svg11.dtd">
<svg version="1.1" id="Layer_1" xmlns="http://www.w3.org/2000/svg" xmlns:xlink="http://www.w3.org/1999/xlink" x="0px" y="0px"
	 width="143.704px" height="27px" viewBox="0 0 143.704 27" enable-background="new 0 0 143.704 27" xml:space="preserve">
<path fill="#FFFFFF" d="M140.042,9.784c-0.231-0.638-0.742-1.289-1.484-1.361c-0.73-0.133-1.373,0.242-1.786,0.748
	c-0.633,0.771-0.844,1.672-0.881,2.72c-0.024,0.313-0.045,0.747,0.052,1.048c0.085,0.121,0.17,0.253,0.316,0.277
	c1.338-0.638,2.702-1.228,4.04-1.878C140.225,10.819,140.201,10.265,140.042,9.784 M139.179,13.216l-3.018,1.434
	c-0.06,0.289,0.049,0.578,0.134,0.843c0.328,1.06,1.107,1.963,2.117,2.42c0.803,0.265,1.739,0.108,2.36-0.397
	c0.292-0.241,0.584-0.566,0.742-0.915c-0.122-0.253-0.316-0.482-0.621-0.494c-0.316-0.18-0.474-0.554-0.401-0.939
	c0.061-0.481,0.426-0.94,0.864-1.108c0.438-0.181,1.07-0.181,1.459,0.108c0.548,0.409,0.597,1.216,0.462,1.891
	c-0.377,1.915-2.08,3.288-3.929,3.733c-1.946,0.409-4.136,0.084-5.28-1.518c-1.375-1.614-1.764-4.119-1.131-6.25
	c0.56-1.951,1.8-3.781,3.698-4.685c1.18-0.578,2.713-0.855,4.063-0.47c1.861,0.434,2.786,2.373,3.005,4.143v0.072L139.179,13.216z"
	/>
<path fill="#FFFFFF" d="M114.253,13.204c0.061-0.963,0.28-1.902,0.146-2.902c-0.049-0.783-0.596-1.433-1.289-1.758
	c-0.499-0.216-1.144-0.181-1.558,0.18c-1.107,0.844-1.338,2.277-1.703,3.542c-0.268,1.445-0.632,2.986-0.34,4.528
	c0.134,0.771,0.632,1.577,1.423,1.77c0.571,0.168,1.144-0.036,1.557-0.373c1.046-0.987,1.253-2.433,1.581-3.77L114.253,13.204z
	 M131.407,19.912l-6.449,0.012c0.024-0.385,0.109-0.783,0.195-1.156c0.669-0.084,1.387-0.397,1.63-1.071l0.146-0.59l0.815-5.094
	c0-0.723-0.523-1.265-1.107-1.602c-0.62-0.265-1.362-0.072-1.849,0.325c-0.669,0.53-1.119,1.301-1.265,2.156l-0.755,4.444
	c-0.012,0.59,0.366,1.084,0.876,1.325l0.243,0.072c0,0.409-0.117,0.845-0.166,1.242l-0.236-0.001H117.1l0.183-1.096
	c0.183-0.06,0.389-0.06,0.583-0.108c0.572-0.12,1.168-0.385,1.436-0.927l0.17-0.603l0.633-3.757
	c0.036-0.349,0.097-0.783-0.146-1.048c-0.316-0.301-0.754-0.578-1.229-0.41c-0.427,0.181-0.839,0.434-1.168,0.771
	c-0.353,2.541-1.46,5.058-3.613,6.527c-1.216,0.807-3.042,1.048-4.477,0.53c-1.119-0.385-2.032-1.132-2.859-2.011l-0.122,0.024
	c-1.654,1.325-3.589,2.625-5.96,2.614c-0.961-0.037-1.983-0.591-2.287-1.506c-0.353-1.06-0.256-2.433-0.025-3.517l0.973-5.311
	c-0.158-0.157-0.255-0.47-0.535-0.47l-0.012-0.024l-1.338-0.024l0.182-1l5.109-3.167l0.608-0.337
	c-0.109,0.867-0.292,1.722-0.438,2.577c0.133,0.181,0.268,0.35,0.425,0.482l3.382,0.012c-0.195,0.603-0.414,1.18-0.669,1.758
	c-0.243-0.036-0.474-0.145-0.742-0.168c-0.888-0.024-1.812-0.048-2.7-0.036l-0.073,0.181l-0.669,4.07l-0.268,1.542
	c-0.026,0.137-0.024,0.241-0.024,0.241c-0.109,0.868,0.304,1.638,0.949,2.12c0.815,0.397,1.679-0.072,2.384-0.409
	c0.438-0.265,0.876-0.506,1.253-0.832c-0.267-1.336-0.329-2.986,0.109-4.251c0.889-2.866,3.443-5.045,6.484-5.431
	c1.386-0.049,2.688,0.301,3.686,1.131c0.73,0.699,1.095,1.698,1.351,2.674l0.34,0.35c1.168-0.747,2.36-1.494,3.528-2.216
	l2.761-1.794c0.085-0.024,0.182-0.121,0.243-0.108c-0.073,0.686-0.243,1.336-0.329,2.023c0.085,0.169,0.231,0.337,0.39,0.458
	l0.134-0.06c1.082-1.145,2.384-2.18,3.966-2.529c0.899-0.157,1.812,0.073,2.359,0.747c0.669,0.987,0.425,2.42,0.207,3.541
	l-0.62,3.336l-0.487,2.601c-0.024,0.698,0.401,1.28,1.019,1.543l0.428,0.106C131.545,19.177,131.477,19.508,131.407,19.912"/>
<path fill="#FFFFFF" d="M97.478,6.58l-0.048,0.036l-1.253-0.047c0.134-1.012,0.134-2.156-0.584-2.879
	c-0.839-0.987-2.141-1.674-3.516-1.252c-0.888,0.265-1.667,0.952-1.861,1.879c-0.315,1.409,0.547,2.565,1.314,3.529
	c1.678,2.083,3.552,3.926,4.987,6.105c0.827,1.385,0.632,3.469-0.085,4.854c-0.669,1.698-2.36,3.155-4.196,3.492
	c-2.275,0.518-4.222-0.529-6.168-1.18c-0.316-0.084-0.767-0.193-1.07-0.012c-0.292,0.168-0.536,0.445-0.596,0.807
	c-0.268,0.145-0.56,0.241-0.876,0.301l-0.523-1.457l-1.557-4.468l0.012-0.023c0.462-0.157,0.924-0.313,1.375-0.422
	c1.058,2.3,3.163,4.167,5.851,4.264c1.436,0.072,2.798-0.627,3.418-1.831c0.462-0.855,0.572-2.156,0.049-3.035
	c-0.924-1.759-2.542-3.167-3.856-4.697c-1.24-1.421-2.08-3.131-1.873-5.179c0.146-1.324,0.669-2.625,1.751-3.456
	c1.204-0.976,2.81-1.589,4.501-1.277c0.888,0.145,1.716,0.47,2.579,0.687c0.681,0.108,1.411,0.024,1.8-0.53l0.17-0.241l1.241,0.024
	l0.036,0.037l-0.863,5.022L97.478,6.58z"/>
<path fill="#FFFFFF" d="M77.113,22.851c0.134-0.506-0.158-0.928-0.487-1.229c-0.754-0.771-2.019-0.337-2.992-0.277
	c-0.876,0.06-1.728,0.024-2.531-0.157c-0.632-0.132-1.205-0.409-1.801-0.65c-0.754,0.879-1.581,1.963-1.155,3.251
	c0.292,0.626,0.839,1.35,1.545,1.53c1.484,0.446,3.187,0.121,4.574-0.337l0.012,0.012c0.864-0.35,1.728-0.711,2.373-1.409
	C76.846,23.368,76.992,23.116,77.113,22.851 M77.356,12.698c0.292-1.084,0.633-2.541,0.061-3.589
	c-0.389-0.638-1.022-1.083-1.812-0.975c-0.779,0.156-1.216,0.855-1.508,1.518c-0.462,1.445-1.095,3.408-0.17,4.829
	c0.34,0.47,0.839,0.819,1.484,0.71c0.852-0.107,1.362-0.999,1.678-1.674L77.356,12.698z M84.048,9.482
	c-0.937-0.072-1.861,0.084-2.494,0.723c-0.949,0.891-0.937,2.312-1.569,3.384c-0.852,1.638-2.445,2.782-4.343,2.951
	c-1.156,0.096-2.239-0.157-3.236-0.518c-0.183,0.133-0.207,0.373-0.256,0.578c-0.194,0.59,0.024,1.217,0.438,1.613
	c0.56,0.687,1.629,0.482,2.481,0.458c1.776-0.157,3.869-0.422,5.486,0.24c0.475,0.349,0.718,0.928,0.572,1.53
	c-0.414,1.662-1.643,2.962-2.944,4.07c-2.81,2.457-7.518,3.264-11.083,1.65c-0.852-0.385-1.849-0.916-2.019-1.926
	c-0.17-1.145,0.681-2.06,1.459-2.698c0.669-0.506,1.46-0.891,2.202-1.264c0.061-0.065-0.145-0.283-0.2-0.369
	c-0.064-0.102-0.08-0.138-0.202-0.174l-6.789-0.012c0.012-0.313,0.073-0.638,0.146-0.939c0.669-0.145,1.375-0.422,1.691-1.048
	l0.097-0.374l0.912-5.275c0.049-0.373,0.024-0.783-0.207-1.06c-0.438-0.518-1.131-0.831-1.849-0.614
	c-1.095,0.385-1.995,1.361-2.202,2.481l-0.694,4.179c0,0.687,0.402,1.301,1.035,1.542c0,0.361-0.098,0.734-0.17,1.084h-6.095
	c0.024-0.289,0.085-0.626,0.146-0.928c0.693-0.18,1.411-0.506,1.593-1.252l0.827-4.685c-0.073-0.482-0.474-0.867-0.913-1
	l-0.547-0.012c-0.207-0.313-0.401-0.65-0.584-0.987l0.134-0.121l6.191-3.746c-0.072,1.012-0.328,1.963-0.462,2.951
	c0.122,0.121,0.207,0.265,0.365,0.289c0.803-0.927,1.716-1.747,2.713-2.469c0.985-0.723,2.64-1.012,3.759-0.325
	c0.669,0.518,0.775,1.252,0.69,2.095l-0.041,0.238l-1.124,7.458c-0.01,0.552,0.523,1.131,1.083,1.336
	c0.292,0.121,0.621,0.192,0.949,0.157c0.109-1.156,0.876-2.276,2.019-2.589c0.171-0.084,0.353-0.109,0.511-0.216
	c-0.171-0.241-0.426-0.434-0.62-0.675c-1.12-1.217-1.253-3.348-0.633-4.877c0.572-1.397,1.74-2.674,3.224-3.156
	c2.227-0.783,5.122-0.446,6.703,1.229c0.292,0.301,0.621,0.614,0.864,0.964c0.122-0.013,0.134-0.157,0.195-0.242
	c0.621-1.324,2.031-2.275,3.516-2.324C84.583,7.724,84.303,8.591,84.048,9.482"/>
<path fill="#FFFFFF" d="M53.027,5.039c-0.742,0.578-1.897,0.916-2.847,0.482c-0.426-0.422-0.486-1.181-0.267-1.734
	c0.474-1.084,1.629-1.674,2.786-1.807c0.596-0.012,1.241,0.181,1.521,0.723C54.523,3.714,53.66,4.473,53.027,5.039"/>
<path fill="#FFFFFF" d="M53.197,7.556l-0.523,3.119l-0.913,5.215c-0.085,0.674-0.426,1.563,0.061,2.166
	c0.255,0.458,0.778,0.664,1.301,0.712c0,0.301-0.061,0.614-0.134,0.904l-6.91-0.024c0.024-0.313,0.085-0.603,0.146-0.904
	c0.365-0.144,0.815-0.168,1.168-0.397c0.292-0.205,0.584-0.481,0.73-0.807c0.292-1.469,0.512-2.888,0.768-4.369
	c0-0.481-0.342-0.931-0.756-1.124c-0.17-0.048-0.365,0-0.535-0.048c-0.268-0.373-0.462-0.747-0.657-1.18l6.252-3.746l0.097-0.048
	C53.258,7.206,53.256,7.254,53.197,7.556"/>
<path fill="#FFFFFF" d="M43.916,16.612c-0.134,0.674,0.048,1.373,0.62,1.746c0.134,0.096,0.304,0.156,0.462,0.205
	c-0.012,0.361-0.085,0.734-0.17,1.084l-6.472-0.061l-0.037-0.024c0.024-0.349,0.085-0.674,0.134-1.023l0.098-0.06
	c0.633-0.108,1.277-0.325,1.63-0.88l0.134-0.396l0.73-4.12l0.864-4.985c0.061-0.53,0.353-1.132,0.037-1.638
	c-0.183-0.277-0.45-0.554-0.791-0.602c-0.207-0.036-0.401,0.024-0.608,0.012c-0.206-0.325-0.401-0.675-0.583-1l0.109-0.084
	l4.708-2.975l1.849-1.156l-0.28,1.843L43.916,16.612z"/>
<path fill="#FFFFFF" d="M28.32,9.241c-0.255-0.505-0.742-1.035-1.362-1.107C26.325,7.989,25.79,8.327,25.376,8.7
	c-1.167,1.494-1.545,3.372-1.812,5.275c-0.073,1-0.292,2.204,0.122,3.119c0.377,0.542,0.875,1.18,1.666,1.083
	c1.825-0.156,2.202-2.179,2.627-3.588C28.284,12.891,28.94,11.012,28.32,9.241 M29.914,17.106c-0.888,0.951-1.897,1.915-3.211,2.252
	c-1.046,0.289-2.323,0.481-3.382,0.061c-1.217-0.41-2.348-1.349-2.81-2.529c-0.584-1.276-0.767-2.891-0.487-4.372
	c0.207-1.144,0.693-2.228,1.448-3.107c1.021-1.12,2.312-2.131,3.795-2.601c1.947-0.639,4.27-0.253,5.645,1.216
	c1.375,1.686,1.605,4.625,0.62,6.624C31.094,15.54,30.546,16.359,29.914,17.106"/>
<path fill="#FFFFFF" d="M14.984,2.182c-0.939-0.358-2.037-0.431-3.111-0.431L11.82,1.754l-0.786,4.345l-0.693,3.926l-0.015,0.101
	c0.194,0.186,0.247,0.321,0.417,0.393c1.897,0,3.771-0.469,5.085-1.758c0.669-0.65,1.095-1.337,1.362-2.167
	c0.377-1.024,0.183-2.289-0.487-3.107C16.259,2.848,15.663,2.441,14.984,2.182 M14.841,0.201c0.496,0.051,0.987,0.11,1.472,0.177
	c0.889,0.192,1.837,0.277,2.604,0.758c1.338,0.867,2.445,2.24,2.579,3.891c0.231,2.517-1.205,4.733-3.37,5.756
	c-0.523,0.277-1.095,0.445-1.679,0.602c0.024,0.711,0.244,1.349,0.365,2.023c0.632,2.445,1.935,4.709,3.723,6.503
	c1.885,1.962,4.233,3.673,7.08,4.119c1.91,0.144,4.136,0.157,5.182-1.518c0.316-0.566,0.341-1.409-0.061-1.939
	c-0.474-0.734-1.313-1.012-2.177-1.06c0.037-0.325,0.061-0.698,0.158-1l0.037-0.036c0.657-0.036,1.302-0.301,1.606-0.88
	c0.158-0.373,0.194-0.782,0.268-1.192l0.718-3.986l1.058-5.72c0.037-0.385-0.194-0.771-0.535-0.916
	c-0.255-0.132-0.608-0.181-0.9-0.096c-0.232-0.289-0.438-0.602-0.597-0.952c0.11-0.181,0.329-0.217,0.487-0.337l5.9-3.721
	l-0.036,0.481l-2.737,15.523c-0.024,0.59,0.109,1.192,0.608,1.529c0.17,0.133,0.389,0.241,0.62,0.277l0.025,0.036l-0.159,1.024
	l-3.637,0.024c-0.037,0.036-0.012,0.084,0.012,0.121c0.268,0.241,0.438,0.505,0.681,0.758c0.742,0.205,1.545,0.651,1.74,1.458
	c0.231,0.903-0.097,1.794-0.681,2.409c-2.117,2.131-5.608,2.18-8.516,1.698c-2.433-0.494-4.817-1.276-6.788-2.746
	c-2.688-1.867-4.805-4.479-6.301-7.371c-0.475-1.023-0.839-2.095-1.217-3.167l-0.693-0.746c-0.535-0.073-1.083-0.109-1.63-0.121
	C10,11.879,9.939,11.928,9.939,11.988c-0.28,1.902-0.669,3.757-0.974,5.648c0.073,0.843,0.718,1.494,1.497,1.771
	c0.098,0.048,0.231,0.024,0.341,0.048c-0.024,0.446-0.122,0.891-0.195,1.325H9.963H1.131l-0.024-0.061
	c0.085-0.457,0.11-0.939,0.255-1.349c1.095-0.048,2.299-0.132,2.944-1.096c0.182-0.325,0.292-0.686,0.377-1.06l1.302-7.153
	l1.496-7.924C7.334,2,7.195,1.654,6.904,1.739C5.493,1.751,4.27,2.208,3.175,2.943C2.98,3.148,3.345,3.184,3.406,3.328
	c0.377,0.361,0.669,0.855,0.572,1.434C3.868,5.328,3.455,5.87,2.932,6.11C2.238,6.423,1.155,6.423,0.596,5.881
	c-0.645-0.65-0.754-1.794-0.389-2.613c0.681-1.505,2.409-2.011,3.904-2.445C5.937,0.414,7.81,0.101,9.769,0.029
	C11.465-0.046,13.176,0.03,14.841,0.201"/>
</svg>
