<?xml version="1.0" encoding="utf-8"?>
<!-- Generator: Adobe Illustrator 17.0.0, SVG Export Plug-In . SVG Version: 6.00 Build 0)  -->
<!DOCTYPE svg PUBLIC "-//W3C//DTD SVG 1.1//EN" "http://www.w3.org/Graphics/SVG/1.1/DTD/svg11.dtd">
<svg version="1.1" id="Layer_1" xmlns="http://www.w3.org/2000/svg" xmlns:xlink="http://www.w3.org/1999/xlink" x="0px" y="0px"
	 width="227.226px" height="9.283px" viewBox="0 0 227.226 9.283" enable-background="new 0 0 227.226 9.283" xml:space="preserve">
<g>
	<path fill="#FFFFFF" d="M0,9.283L3.55,0h0.552l-3.55,9.283H0z"/>
	<path fill="#FFFFFF" d="M33.621,0.804h-2.495v8.155h-0.564V0.804H28.08v-0.48h5.541V0.804z"/>
	<path fill="#FFFFFF" d="M36.011,0.06h0.564v3.934h0.024c0.384-0.792,1.151-1.511,2.111-1.511c0.587,0,1.511,0.468,1.511,1.859
		v4.618h-0.564V4.977c0-0.803-0.108-2.015-1.043-2.015c-1.067,0-2.039,1.331-2.039,2.806v3.19h-0.564V0.06z"/>
	<path fill="#FFFFFF" d="M47.625,8.515c-0.731,0.324-1.451,0.576-2.267,0.576c-1.859,0-2.542-1.667-2.542-3.274
		c0-1.607,0.708-3.334,2.579-3.334c1.067,0,2.327,0.768,2.327,3.394h-4.342c0.108,2.231,1.031,2.735,2.003,2.735
		c0.72,0,1.403-0.264,2.003-0.624L47.625,8.515z M47.157,5.397c0.06-1.091-0.587-2.435-1.835-2.435
		c-1.235,0-1.979,1.319-1.943,2.435H47.157z"/>
	<path fill="#FFFFFF" d="M59.673,5.277V4.797h2.639v4.33h-0.563V7.76h-0.024c-0.264,0.852-1.115,1.367-2.002,1.367
		c-1.367,0-2.471-0.899-2.471-4.21c0-3.826,1.127-4.761,2.59-4.761c1.332,0,1.979,0.912,2.088,2.147h-0.601
		c0.036-0.864-0.491-1.667-1.427-1.667c-2.003,0-2.051,2.638-2.051,4.078c0,1.331,0.048,3.934,1.918,3.934
		c0.912,0,1.979-0.611,1.979-2.674V5.277H59.673z"/>
	<path fill="#FFFFFF" d="M69.224,8.515c-0.731,0.324-1.451,0.576-2.267,0.576c-1.858,0-2.542-1.667-2.542-3.274
		c0-1.607,0.707-3.334,2.578-3.334c1.067,0,2.326,0.768,2.326,3.394h-4.342c0.108,2.231,1.031,2.735,2.004,2.735
		c0.719,0,1.402-0.264,2.002-0.624L69.224,8.515z M68.756,5.397c0.06-1.091-0.587-2.435-1.835-2.435
		c-1.235,0-1.979,1.319-1.943,2.435H68.756z"/>
	<path fill="#FFFFFF" d="M76.424,8.515c-0.731,0.324-1.451,0.576-2.267,0.576c-1.859,0-2.543-1.667-2.543-3.274
		c0-1.607,0.708-3.334,2.579-3.334c1.067,0,2.327,0.768,2.327,3.394h-4.342c0.107,2.231,1.031,2.735,2.002,2.735
		c0.721,0,1.404-0.264,2.004-0.624L76.424,8.515z M75.957,5.397c0.061-1.091-0.588-2.435-1.835-2.435
		c-1.235,0-1.979,1.319-1.942,2.435H75.957z"/>
	<path fill="#FFFFFF" d="M83.504,2.614c-1.26,1.511-1.619,2.015-2.53,2.891l3.07,3.454h-0.756l-2.65-3.13l-0.6,0.588v2.542h-0.564
		V0.06h0.564v5.685c0.982-0.936,1.955-1.979,2.734-3.13H83.504z"/>
	<path fill="#FFFFFF" d="M89.996,3.622c-0.503-0.36-1.066-0.66-1.703-0.66c-0.635,0-1.259,0.479-1.259,1.151
		c0,0.744,0.827,1.091,1.403,1.307c0.972,0.372,1.991,0.756,1.991,1.991c0,1.056-0.936,1.679-1.907,1.679
		c-0.791,0-1.811-0.492-2.387-1.02l0.312-0.456c0.516,0.516,1.354,0.996,2.098,0.996c0.708,0,1.32-0.396,1.32-1.164
		c0-0.947-0.732-1.223-1.488-1.511c-0.875-0.336-1.906-0.744-1.906-1.871c0-0.899,0.912-1.583,1.859-1.583
		c0.73,0,1.331,0.252,1.906,0.672L89.996,3.622z"/>
	<path fill="#FFFFFF" d="M100.427,5.781c0-2.471,1.271-3.298,2.422-3.298c1.056,0,2.435,0.708,2.435,3.298
		c0,2.579-1.367,3.31-2.435,3.31S100.427,8.371,100.427,5.781z M104.72,5.781c0-1.235-0.312-2.818-1.871-2.818
		c-1.547,0-1.858,1.583-1.858,2.818c0,1.247,0.312,2.831,1.858,2.831C104.409,8.611,104.72,7.016,104.72,5.781z"/>
	<path fill="#FFFFFF" d="M108.465,8.959h-0.563V5.781c0-1.08-0.036-2.159-0.252-3.238h0.527l0.229,1.823h0.023
		c0.24-0.948,1.248-1.883,2.255-1.883c1.151,0,1.476,0.996,1.476,1.955v4.521h-0.563V4.701c0-0.731,0-1.739-0.983-1.739
		c-0.912,0-2.147,0.912-2.147,3.382V8.959z"/>
	<path fill="#FFFFFF" d="M126.26,3.094h-2.327v4.33c0,0.612,0.229,1.188,1.008,1.188c0.707,0,1.199-0.528,1.475-1.127l0.54,0.132
		c-0.396,0.815-1.091,1.475-2.039,1.475c-0.815,0-1.547-0.396-1.547-2.003V3.094h-1.427v-0.48h1.427V0.576h0.563v2.039h2.327V3.094z
		"/>
	<path fill="#FFFFFF" d="M129.61,0.06h0.563v3.934h0.023c0.384-0.792,1.151-1.511,2.111-1.511c0.588,0,1.511,0.468,1.511,1.859
		v4.618h-0.563V4.977c0-0.803-0.107-2.015-1.043-2.015c-1.067,0-2.039,1.331-2.039,2.806v3.19h-0.563V0.06z"/>
	<path fill="#FFFFFF" d="M141.223,8.515c-0.731,0.324-1.451,0.576-2.267,0.576c-1.859,0-2.543-1.667-2.543-3.274
		c0-1.607,0.708-3.334,2.579-3.334c1.067,0,2.326,0.768,2.326,3.394h-4.341c0.107,2.231,1.031,2.735,2.002,2.735
		c0.72,0,1.403-0.264,2.003-0.624L141.223,8.515z M140.755,5.397c0.061-1.091-0.588-2.435-1.835-2.435
		c-1.235,0-1.979,1.319-1.942,2.435H140.755z"/>
	<path fill="#FFFFFF" d="M155.995,0.804h-3.862v3.406h2.902v0.48h-2.902v4.27h-0.563V0.324h4.426V0.804z"/>
	<path fill="#FFFFFF" d="M159.441,8.959h-0.563v-4.39l-0.229-2.027h0.54l0.216,1.799c0.42-0.875,1.079-1.859,2.171-1.859
		c1.056,0,1.331,1.056,1.331,1.919h-0.563c-0.012-0.587-0.048-1.439-0.815-1.439c-0.647,0-2.087,1.007-2.087,3.418V8.959z"/>
	<path fill="#FFFFFF" d="M165.226,5.781c0-2.471,1.271-3.298,2.422-3.298c1.056,0,2.435,0.708,2.435,3.298
		c0,2.579-1.367,3.31-2.435,3.31S165.226,8.371,165.226,5.781z M169.519,5.781c0-1.235-0.312-2.818-1.871-2.818
		c-1.547,0-1.858,1.583-1.858,2.818c0,1.247,0.312,2.831,1.858,2.831C169.208,8.611,169.519,7.016,169.519,5.781z"/>
	<path fill="#FFFFFF" d="M173.264,8.959h-0.563V5.781c0-1.08-0.036-2.159-0.252-3.238h0.527l0.229,1.823h0.023
		c0.24-0.948,1.248-1.883,2.255-1.883c1.151,0,1.476,0.996,1.476,1.955v4.521h-0.563V4.701c0-0.731,0-1.739-0.983-1.739
		c-0.912,0-2.147,0.912-2.147,3.382V8.959z"/>
	<path fill="#FFFFFF" d="M183.859,3.094h-2.327v4.33c0,0.612,0.229,1.188,1.008,1.188c0.708,0,1.199-0.528,1.476-1.127l0.539,0.132
		c-0.396,0.815-1.091,1.475-2.039,1.475c-0.815,0-1.547-0.396-1.547-2.003V3.094h-1.427v-0.48h1.427V0.576h0.563v2.039h2.327V3.094z
		"/>
	<path fill="#FFFFFF" d="M195.441,8.479h3.79v0.479h-4.354V0.324h0.563V8.479z"/>
	<path fill="#FFFFFF" d="M203.515,3.094h-1.847v-0.48h2.411v6.345h-0.564V3.094z M204.415,0.779c0,0.348-0.287,0.624-0.636,0.624
		c-0.348,0-0.623-0.276-0.623-0.624c0-0.348,0.275-0.624,0.623-0.624C204.127,0.156,204.415,0.432,204.415,0.779z"/>
	<path fill="#FFFFFF" d="M209.264,8.959h-0.563V5.781c0-1.08-0.036-2.159-0.252-3.238h0.527l0.229,1.823h0.023
		c0.24-0.948,1.248-1.883,2.255-1.883c1.151,0,1.476,0.996,1.476,1.955v4.521h-0.563V4.701c0-0.731,0-1.739-0.983-1.739
		c-0.912,0-2.147,0.912-2.147,3.382V8.959z"/>
	<path fill="#FFFFFF" d="M220.422,8.515c-0.731,0.324-1.451,0.576-2.267,0.576c-1.859,0-2.543-1.667-2.543-3.274
		c0-1.607,0.708-3.334,2.579-3.334c1.067,0,2.326,0.768,2.326,3.394h-4.341c0.107,2.231,1.031,2.735,2.002,2.735
		c0.72,0,1.403-0.264,2.003-0.624L220.422,8.515z M219.955,5.397c0.061-1.091-0.588-2.435-1.835-2.435
		c-1.235,0-1.979,1.319-1.942,2.435H219.955z"/>
	<path fill="#FFFFFF" d="M226.794,3.622c-0.504-0.36-1.067-0.66-1.703-0.66s-1.26,0.479-1.26,1.151c0,0.744,0.828,1.091,1.403,1.307
		c0.972,0.372,1.991,0.756,1.991,1.991c0,1.056-0.936,1.679-1.907,1.679c-0.792,0-1.811-0.492-2.387-1.02l0.312-0.456
		c0.516,0.516,1.355,0.996,2.1,0.996c0.707,0,1.319-0.396,1.319-1.164c0-0.947-0.732-1.223-1.487-1.511
		c-0.876-0.336-1.907-0.744-1.907-1.871c0-0.899,0.911-1.583,1.859-1.583c0.731,0,1.331,0.252,1.906,0.672L226.794,3.622z"/>
</g>
</svg>
