<?xml version="1.0" encoding="utf-8"?>
<!-- Generator: Adobe Illustrator 16.0.0, SVG Export Plug-In . SVG Version: 6.00 Build 0)  -->
<!DOCTYPE svg PUBLIC "-//W3C//DTD SVG 1.1//EN" "http://www.w3.org/Graphics/SVG/1.1/DTD/svg11.dtd">
<svg version="1.1" id="Layer_1" xmlns="http://www.w3.org/2000/svg" xmlns:xlink="http://www.w3.org/1999/xlink" x="0px" y="0px"
	 width="244.074px" height="10.282px" viewBox="0 0 244.074 10.282" enable-background="new 0 0 244.074 10.282"
	 xml:space="preserve">
<g>
	<g>
		<path fill="#FFFFFF" d="M0,10.282h0.997L4.995,0H3.999L0,10.282z M31.208,1.195h2.67v8.728h0.996V1.195h2.723V0.358h-6.389V1.195z
			 M43.088,2.67c-0.877,0-1.634,0.492-2.139,1.169V0.066h-0.996v9.856h0.996V7.279c0-0.89-0.026-1.687,0.359-2.484
			c0.305-0.625,0.97-1.289,1.713-1.289c0.903,0,0.903,1.607,0.903,2.258v4.158h0.996V5.845C44.921,2.936,43.938,2.67,43.088,2.67z
			 M50.504,2.67c-2.125,0-2.989,1.886-2.989,3.746c0,1.847,0.837,3.653,2.936,3.653c0.983,0,1.833-0.306,2.723-0.705L52.75,8.476
			c-0.651,0.398-1.435,0.756-2.218,0.756c-1.089,0-1.966-0.65-2.019-2.604h4.729V6.084C53.241,5.313,52.869,2.67,50.504,2.67z
			 M48.499,5.792c0.266-1.435,0.811-2.285,1.926-2.285s1.78,1.116,1.82,2.285H48.499z M66.122,5.978h2.258v0.638
			c0,1.913-1.023,2.657-1.953,2.657c-1.873,0-1.939-2.736-1.939-4.065c0-1.421,0.08-4.198,2.072-4.198
			c1.01,0,1.435,0.917,1.355,1.793h0.996c-0.026-1.488-0.784-2.63-2.404-2.63c-1.86,0-3.015,1.395-3.015,5.181
			c0,4.623,2.112,4.755,2.882,4.755c0.784,0,1.514-0.332,2.006-0.93v0.93h0.997V5.141h-3.255V5.978z M74.428,2.67
			c-2.125,0-2.989,1.886-2.989,3.746c0,1.847,0.837,3.653,2.936,3.653c0.983,0,1.833-0.306,2.724-0.705l-0.425-0.889
			c-0.651,0.398-1.435,0.756-2.218,0.756c-1.089,0-1.966-0.65-2.019-2.604h4.729V6.084C77.165,5.313,76.793,2.67,74.428,2.67z
			 M72.422,5.792c0.266-1.435,0.811-2.285,1.926-2.285s1.78,1.116,1.82,2.285H72.422z M82.403,2.67
			c-2.125,0-2.989,1.886-2.989,3.746c0,1.847,0.837,3.653,2.936,3.653c0.983,0,1.833-0.306,2.724-0.705l-0.425-0.889
			c-0.651,0.398-1.435,0.756-2.218,0.756c-1.089,0-1.966-0.65-2.019-2.604h4.729V6.084C85.14,5.313,84.768,2.67,82.403,2.67z
			 M80.397,5.792c0.266-1.435,0.811-2.285,1.926-2.285s1.78,1.116,1.82,2.285H80.397z M93.021,2.816h-1.262
			c-0.757,1.143-1.727,2.139-2.67,3.109V0.066h-0.996v9.856h0.996V7.106l0.452-0.451l2.79,3.268h1.315L90.152,6.07
			C91.201,5.008,91.613,4.45,93.021,2.816z M98.246,5.818c-0.545-0.199-1.368-0.545-1.368-1.235c0-0.638,0.558-1.076,1.155-1.076
			c0.717,0,1.342,0.398,1.9,0.797l0.438-0.81c-0.704-0.505-1.408-0.824-2.298-0.824c-1.235,0-2.192,0.837-2.192,1.873
			c0,1.275,1.169,1.753,2.179,2.139c0.73,0.278,1.475,0.531,1.475,1.461c0,0.718-0.571,1.089-1.236,1.089
			c-0.837,0-1.753-0.598-2.311-1.195l-0.545,0.797c0.784,0.705,1.847,1.236,2.923,1.236c1.103,0,2.165-0.797,2.165-1.967
			C100.531,6.694,99.362,6.229,98.246,5.818z M114.142,2.67c-1.355,0-2.816,0.957-2.816,3.706c0,2.869,1.581,3.693,2.816,3.693
			c1.368,0,2.829-0.943,2.829-3.693C116.971,5.221,116.653,2.67,114.142,2.67z M114.142,9.231c-1.554,0-1.82-1.633-1.82-2.855
			c0-1.222,0.266-2.869,1.82-2.869s1.833,1.647,1.833,2.869C115.975,7.599,115.696,9.231,114.142,9.231z M122.887,2.67
			c-0.997,0-1.913,0.611-2.418,1.448l-0.226-1.302h-0.957c0.266,1.129,0.319,2.338,0.319,3.534v3.573h0.996V6.96
			c0-2.497,1.183-3.453,2.125-3.453c0.877,0,0.877,1.023,0.877,1.7v4.716h0.996V4.915C124.601,3.706,124.016,2.67,122.887,2.67z
			 M138.597,9.231c-0.903,0-0.916-0.836-0.916-1.527V3.653h2.537V2.816h-2.537V0.638h-0.997v2.178h-1.527v0.837h1.527v3.733
			c0,2.125,0.731,2.684,1.886,2.684c1.196,0,2.007-0.824,2.484-1.847l-0.956-0.239C139.82,8.608,139.355,9.231,138.597,9.231z
			 M146.757,2.67c-0.877,0-1.634,0.492-2.139,1.169V0.066h-0.996v9.856h0.996V7.279c0-0.89-0.026-1.687,0.359-2.484
			c0.305-0.625,0.969-1.289,1.713-1.289c0.904,0,0.904,1.607,0.904,2.258v4.158h0.996V5.845
			C148.591,2.936,147.608,2.67,146.757,2.67z M154.174,2.67c-2.126,0-2.989,1.886-2.989,3.746c0,1.847,0.838,3.653,2.936,3.653
			c0.983,0,1.834-0.306,2.724-0.705l-0.425-0.889c-0.65,0.398-1.435,0.756-2.219,0.756c-1.089,0-1.966-0.65-2.02-2.604h4.729V6.084
			C156.911,5.313,156.539,2.67,154.174,2.67z M152.168,5.792c0.266-1.435,0.811-2.285,1.927-2.285c1.115,0,1.779,1.116,1.819,2.285
			H152.168z M167.998,9.923h0.997v-4.57h3.095V4.517h-3.095V1.195h4.131V0.358h-5.128V9.923z M179.161,2.67
			c-1.062,0-1.66,0.664-2.205,1.501l-0.226-1.355h-0.97c0.187,0.89,0.278,1.847,0.278,3.029v4.078h0.997V6.96
			c0-2.337,1.341-3.453,2.072-3.453c0.757,0,0.677,1.01,0.704,1.541h0.996C180.808,3.972,180.49,2.67,179.161,2.67z M185.914,2.67
			c-1.355,0-2.816,0.957-2.816,3.706c0,2.869,1.58,3.693,2.816,3.693c1.368,0,2.829-0.943,2.829-3.693
			C188.743,5.221,188.423,2.67,185.914,2.67z M185.914,9.231c-1.555,0-1.82-1.633-1.82-2.855c0-1.222,0.266-2.869,1.82-2.869
			s1.833,1.647,1.833,2.869C187.747,7.599,187.468,9.231,185.914,9.231z M194.658,2.67c-0.996,0-1.912,0.611-2.417,1.448
			l-0.226-1.302h-0.957c0.266,1.129,0.319,2.338,0.319,3.534v3.573h0.996V6.96c0-2.497,1.183-3.453,2.126-3.453
			c0.876,0,0.876,1.023,0.876,1.7v4.716h0.997V4.915C196.373,3.706,195.788,2.67,194.658,2.67z M202.394,9.231
			c-0.903,0-0.916-0.836-0.916-1.527V3.653h2.537V2.816h-2.537V0.638h-0.997v2.178h-1.527v0.837h1.527v3.733
			c0,2.125,0.73,2.684,1.886,2.684c1.196,0,2.006-0.824,2.484-1.847l-0.956-0.239C203.617,8.608,203.151,9.231,202.394,9.231z
			 M207.393,0.903h2.019v9.02h0.996V0.066h-3.015V0.903z M217.958,0.172c-0.466,0-0.838,0.359-0.838,0.837
			c0,0.479,0.372,0.837,0.838,0.837c0.465,0,0.836-0.358,0.836-0.837C218.794,0.531,218.423,0.172,217.958,0.172z M215.474,3.653
			h2.019v6.27h0.997V2.816h-3.016V3.653z M226.556,2.67c-0.996,0-1.912,0.611-2.417,1.448l-0.226-1.302h-0.957
			c0.266,1.129,0.319,2.338,0.319,3.534v3.573h0.996V6.96c0-2.497,1.183-3.453,2.126-3.453c0.877,0,0.877,1.023,0.877,1.7v4.716
			h0.996V4.915C228.271,3.706,227.686,2.67,226.556,2.67z M233.92,2.67c-2.126,0-2.989,1.886-2.989,3.746
			c0,1.847,0.837,3.653,2.936,3.653c0.983,0,1.834-0.306,2.724-0.705l-0.425-0.889c-0.65,0.398-1.435,0.756-2.219,0.756
			c-1.09,0-1.966-0.65-2.02-2.604h4.729V6.084C236.657,5.313,236.285,2.67,233.92,2.67z M231.915,5.792
			c0.266-1.435,0.81-2.285,1.927-2.285c1.115,0,1.779,1.116,1.819,2.285H231.915z M241.789,5.818
			c-0.545-0.199-1.368-0.545-1.368-1.235c0-0.638,0.558-1.076,1.155-1.076c0.718,0,1.342,0.398,1.9,0.797l0.438-0.81
			c-0.703-0.505-1.408-0.824-2.297-0.824c-1.236,0-2.192,0.837-2.192,1.873c0,1.275,1.169,1.753,2.179,2.139
			c0.73,0.278,1.475,0.531,1.475,1.461c0,0.718-0.572,1.089-1.236,1.089c-0.836,0-1.753-0.598-2.311-1.195l-0.545,0.797
			c0.783,0.705,1.846,1.236,2.922,1.236c1.104,0,2.166-0.797,2.166-1.967C244.074,6.694,242.904,6.229,241.789,5.818z"/>
	</g>
</g>
</svg>
