<?xml version="1.0" encoding="utf-8"?>
<!-- Generator: Adobe Illustrator 15.1.0, SVG Export Plug-In . SVG Version: 6.00 Build 0)  -->
<!DOCTYPE svg PUBLIC "-//W3C//DTD SVG 1.1//EN" "http://www.w3.org/Graphics/SVG/1.1/DTD/svg11.dtd">
<svg version="1.1" xmlns="http://www.w3.org/2000/svg" xmlns:xlink="http://www.w3.org/1999/xlink" x="0px" y="0px"
	 width="328.677px" height="65.044px" viewBox="0.326 -0.813 328.677 65.044" enable-background="new 0.326 -0.813 328.677 65.044"
	 xml:space="preserve">
<g id="Layer_1">
	<g>
		<path d="M8.797-0.549h2.075c1.559,0,2.267,0.937,1.907,2.64c-0.384,1.822-1.751,2.603-3.442,2.603H8.581L7.862,8.088h-0.9
			L8.797-0.549z M9.745,3.936c1.043,0,1.883-0.624,2.135-1.835c0.288-1.355-0.216-1.896-1.283-1.896H9.541l-0.792,3.73H9.745z"/>
		<path d="M15.337,8.086h-0.9l0.78-3.682c0.228-1.055,0.324-1.931,0.336-2.734h0.875l-0.06,1.224
			c0.647-0.755,1.319-1.355,2.279-1.355c1.199,0,1.235,1.176,1.031,2.147H18.78c0.084-0.48,0.348-1.393-0.336-1.393
			c-0.66,0-2.099,0.983-2.542,3.119L15.337,8.086z"/>
		<path d="M22.333,5.112c-0.336,1.763,0.336,2.352,1.319,2.352c0.708,0,1.487-0.324,2.147-0.685l0.216,0.803
			c-0.875,0.36-1.703,0.637-2.591,0.637c-1.896,0-2.303-1.631-1.955-3.299c0.36-1.679,1.5-3.382,3.418-3.382
			c2.135,0,1.943,2.388,1.811,3.082l-0.096,0.492H22.333z M25.858,4.356c0.192-1.055-0.192-2.063-1.199-2.063
			c-1.007,0-1.667,0.769-2.183,2.063H25.858z"/>
		<path d="M33.203,3.013c-0.432-0.36-0.912-0.721-1.559-0.721c-0.54,0-1.127,0.396-1.259,0.973
			c-0.132,0.624,0.552,0.936,1.007,1.115c0.923,0.371,1.895,0.792,1.619,2.062c-0.228,1.055-1.331,1.775-2.327,1.775
			c-0.972,0-1.835-0.479-2.411-1.115l0.647-0.72c0.396,0.54,1.104,1.08,1.859,1.08c0.6,0,1.188-0.337,1.319-0.983
			c0.18-0.84-0.443-1.067-1.043-1.319c-0.839-0.348-1.799-0.779-1.559-1.931c0.204-0.937,1.224-1.691,2.339-1.691
			c0.804,0,1.379,0.288,1.919,0.744L33.203,3.013z"/>
		<path d="M38.664,2.426h-1.823l0.168-0.757h2.723l-1.368,6.417h-0.899L38.664,2.426z M40.354,0.038
			c-0.096,0.433-0.504,0.755-0.923,0.755c-0.42,0-0.684-0.323-0.588-0.755c0.084-0.432,0.492-0.756,0.912-0.756
			C40.175-0.717,40.438-0.394,40.354,0.038z"/>
		<path d="M46.595,8.219l-0.048-0.721c-0.636,0.48-0.972,0.721-1.715,0.721c-1.127,0-2.387-0.863-1.847-3.383
			c0.516-2.446,2.254-3.298,3.298-3.298c0.54,0,0.888,0.132,1.271,0.372l0.587-2.722h0.9l-1.403,6.608
			C47.47,6.589,47.374,7.38,47.47,8.11L46.595,8.219z M47.363,2.821c-0.288-0.288-0.636-0.528-1.091-0.528
			c-0.959,0-2.027,0.805-2.399,2.579c-0.444,2.087,0.54,2.592,1.14,2.592c0.695,0,1.235-0.517,1.607-1.104L47.363,2.821z"/>
		<path d="M51.132,5.112c-0.336,1.763,0.336,2.352,1.319,2.352c0.708,0,1.487-0.324,2.147-0.685l0.216,0.803
			c-0.875,0.36-1.703,0.637-2.591,0.637c-1.895,0-2.303-1.631-1.955-3.299c0.36-1.679,1.5-3.382,3.418-3.382
			c2.135,0,1.943,2.388,1.811,3.082L55.4,5.112H51.132z M54.658,4.356c0.192-1.055-0.192-2.063-1.199-2.063
			c-1.007,0-1.667,0.769-2.183,2.063H54.658z"/>
		<path d="M57.983,8.086h-0.9l0.684-3.226c0.228-1.08,0.419-2.171,0.396-3.19h0.864l-0.048,1.176
			c0.612-0.755,1.559-1.308,2.459-1.308c1.019,0,1.343,0.937,1.115,2.027l-0.959,4.521h-0.899l0.899-4.258
			c0.132-0.61,0.336-1.535-0.456-1.535c-0.852,0-2.111,0.864-2.591,3.119L57.983,8.086z"/>
		<path d="M69.692,2.426h-2.291l-0.78,3.657c-0.132,0.624-0.276,1.38,0.54,1.38c0.684,0,1.224-0.564,1.595-1.128l0.815,0.217
			c-0.624,0.923-1.511,1.667-2.59,1.667c-1.043,0-1.595-0.503-1.188-2.422l0.708-3.37h-1.379l0.168-0.757h1.379l0.42-1.967h0.899
			L67.57,1.67h2.291L69.692,2.426z"/>
		<path d="M82.821-0.717c2.519,0,2.051,2.878,1.703,4.485c-0.24,1.15-0.875,4.486-3.61,4.486c-2.663,0-1.955-3.263-1.691-4.486
			C79.991,0.158,81.37-0.717,82.821-0.717z M83.625,3.768c0.168-0.792,0.912-3.729-0.959-3.729c-1.919,0-2.435,3.227-2.542,3.729
			c-0.204,0.983-0.852,3.729,0.947,3.729C81.97,7.498,82.954,6.898,83.625,3.768z"/>
		<path d="M88.713-0.813l-0.576,2.71c0.504-0.24,0.912-0.36,1.439-0.36c1.031,0,2.435,0.839,1.919,3.286
			c-0.54,2.52-2.171,3.395-3.298,3.395c-0.744,0-0.983-0.252-1.415-0.731l-0.348,0.72l-0.828-0.107
			c0.42-0.756,0.648-1.571,0.816-2.388l1.391-6.523H88.713z M87.19,6.335c0.156,0.588,0.419,1.128,1.151,1.128
			c0.587,0,1.799-0.505,2.243-2.604c0.384-1.787-0.348-2.567-1.307-2.567c-0.444,0-0.912,0.229-1.332,0.517L87.19,6.335z"/>
		<path d="M97.316,3.505c0.156-0.708-0.168-1.212-0.839-1.212c-0.564,0-1.151,0.265-1.715,0.48l-0.036-0.792
			c0.659-0.24,1.271-0.444,1.943-0.444c1.223,0,1.751,1.007,1.523,2.075l-0.588,2.783c-0.12,0.587-0.167,1.187-0.096,1.739
			l-0.863,0.107l-0.06-0.803c-0.54,0.516-1.08,0.779-1.751,0.779c-1.224,0-1.703-0.959-1.463-2.1
			c0.264-1.234,1.247-2.314,2.542-2.314c0.48,0,0.899,0.144,1.271,0.312L97.316,3.505z M97.029,4.871
			c-0.348-0.168-0.732-0.312-1.164-0.312c-0.912,0-1.439,0.792-1.607,1.606c-0.132,0.601,0.036,1.295,0.731,1.295
			c0.695,0,1.235-0.588,1.727-1.104L97.029,4.871z"/>
		<path d="M100.703,3.66c0.18-0.875,0.192-1.451,0.192-2.123h0.899l0.012,0.576c0.456-0.336,0.839-0.576,1.379-0.576
			c0.587,0,0.719,0.145,0.971,0.587c0.444-0.335,0.828-0.6,1.355-0.6c0.863,0,1.295,0.564,1.115,1.427l-1.091,5.133h-0.899
			l1.091-5.133c0.096-0.432-0.084-0.671-0.444-0.671c-0.408,0-0.828,0.335-1.091,0.671l-1.091,5.133h-0.9l1.08-5.061
			c0.072-0.336,0.06-0.732-0.348-0.732c-0.432,0-0.948,0.385-1.199,0.78l-1.068,5.013h-0.899L100.703,3.66z"/>
		<path d="M111.716,3.505c0.156-0.708-0.168-1.212-0.839-1.212c-0.564,0-1.151,0.265-1.715,0.48l-0.036-0.792
			c0.659-0.24,1.271-0.444,1.943-0.444c1.223,0,1.751,1.007,1.523,2.075l-0.588,2.783c-0.12,0.587-0.167,1.187-0.096,1.739
			l-0.863,0.107l-0.06-0.803c-0.54,0.516-1.08,0.779-1.751,0.779c-1.224,0-1.703-0.959-1.463-2.1
			c0.264-1.234,1.247-2.314,2.542-2.314c0.48,0,0.899,0.144,1.271,0.312L111.716,3.505z M111.429,4.871
			c-0.348-0.168-0.732-0.312-1.164-0.312c-0.912,0-1.439,0.792-1.607,1.606c-0.132,0.601,0.036,1.295,0.731,1.295
			c0.695,0,1.235-0.588,1.727-1.104L111.429,4.871z"/>
		<path d="M125.792,8.219l-0.048-0.721c-0.636,0.48-0.972,0.721-1.715,0.721c-1.127,0-2.387-0.863-1.847-3.383
			c0.516-2.446,2.255-3.298,3.298-3.298c0.54,0,0.888,0.132,1.271,0.372l0.587-2.722h0.9l-1.403,6.608
			c-0.168,0.792-0.264,1.583-0.168,2.313L125.792,8.219z M126.559,2.821c-0.288-0.288-0.636-0.528-1.091-0.528
			c-0.959,0-2.027,0.805-2.399,2.579c-0.444,2.087,0.54,2.592,1.14,2.592c0.695,0,1.235-0.517,1.607-1.104L126.559,2.821z"/>
		<path d="M132.26,2.426h-1.823l0.168-0.757h2.723l-1.368,6.417h-0.899L132.26,2.426z M133.951,0.038
			c-0.096,0.433-0.504,0.755-0.924,0.755c-0.419,0-0.684-0.323-0.587-0.755c0.084-0.432,0.492-0.756,0.912-0.756
			C133.771-0.717,134.035-0.394,133.951,0.038z"/>
		<path d="M141.199,3.013c-0.432-0.36-0.912-0.721-1.559-0.721c-0.54,0-1.127,0.396-1.259,0.973
			c-0.132,0.624,0.552,0.936,1.007,1.115c0.923,0.371,1.895,0.792,1.619,2.062c-0.228,1.055-1.331,1.775-2.327,1.775
			c-0.972,0-1.835-0.479-2.411-1.115l0.647-0.72c0.396,0.54,1.104,1.08,1.859,1.08c0.6,0,1.188-0.337,1.319-0.983
			c0.18-0.84-0.444-1.067-1.043-1.319c-0.839-0.348-1.799-0.779-1.559-1.931c0.204-0.937,1.224-1.691,2.339-1.691
			c0.804,0,1.379,0.288,1.919,0.744L141.199,3.013z"/>
		<path d="M148.614,7.042c-0.792,0.696-1.535,1.176-2.53,1.176c-1.188,0-2.615-0.731-2.075-3.274
			c0.54-2.567,2.171-3.406,3.454-3.406c1.056,0,1.679,0.576,2.063,1.428l-0.888,0.516c-0.192-0.647-0.54-1.188-1.331-1.188
			c-0.912,0-1.979,0.673-2.387,2.567c-0.42,2.003,0.479,2.604,1.307,2.604c0.708,0,1.379-0.54,1.919-1.057L148.614,7.042z"/>
		<path d="M155.693,1.669h0.899l-0.66,3.106c-0.24,1.115-0.456,2.219-0.432,3.31h-0.852l0.06-1.234
			c-0.576,0.708-1.571,1.367-2.398,1.367c-1.139,0-1.415-0.972-1.175-2.087l0.947-4.462h0.899l-0.899,4.198
			c-0.132,0.601-0.336,1.595,0.456,1.595c0.887,0,2.123-0.995,2.59-3.167L155.693,1.669z"/>
		<path d="M162.798,3.013c-0.432-0.36-0.912-0.721-1.559-0.721c-0.54,0-1.127,0.396-1.259,0.973
			c-0.132,0.624,0.552,0.936,1.007,1.115c0.923,0.371,1.895,0.792,1.619,2.062c-0.228,1.055-1.331,1.775-2.327,1.775
			c-0.972,0-1.835-0.479-2.411-1.115l0.647-0.72c0.396,0.54,1.104,1.08,1.859,1.08c0.6,0,1.188-0.337,1.319-0.983
			c0.18-0.84-0.443-1.067-1.043-1.319c-0.839-0.348-1.799-0.779-1.559-1.931c0.204-0.937,1.224-1.691,2.339-1.691
			c0.804,0,1.379,0.288,1.919,0.744L162.798,3.013z"/>
		<path d="M169.997,3.013c-0.433-0.36-0.912-0.721-1.56-0.721c-0.539,0-1.127,0.396-1.258,0.973
			c-0.133,0.624,0.551,0.936,1.006,1.115c0.924,0.371,1.896,0.792,1.619,2.062c-0.228,1.055-1.33,1.775-2.326,1.775
			c-0.973,0-1.836-0.479-2.412-1.115l0.647-0.72c0.396,0.54,1.104,1.08,1.859,1.08c0.6,0,1.188-0.337,1.319-0.983
			c0.18-0.84-0.444-1.067-1.043-1.319c-0.84-0.348-1.799-0.779-1.56-1.931c0.204-0.937,1.224-1.691,2.339-1.691
			c0.805,0,1.379,0.288,1.919,0.744L169.997,3.013z"/>
		<path d="M173.527,5.112c-0.336,1.763,0.336,2.352,1.318,2.352c0.709,0,1.487-0.324,2.146-0.685l0.216,0.803
			c-0.875,0.36-1.703,0.637-2.591,0.637c-1.895,0-2.303-1.631-1.955-3.299c0.359-1.679,1.5-3.382,3.418-3.382
			c2.135,0,1.943,2.388,1.811,3.082l-0.096,0.492H173.527z M177.052,4.356c0.192-1.055-0.191-2.063-1.199-2.063
			c-1.006,0-1.666,0.769-2.183,2.063H177.052z"/>
		<path d="M184.396,3.013c-0.432-0.36-0.912-0.721-1.559-0.721c-0.539,0-1.127,0.396-1.259,0.973
			c-0.132,0.624,0.552,0.936,1.007,1.115c0.924,0.371,1.895,0.792,1.619,2.062c-0.229,1.055-1.331,1.775-2.327,1.775
			c-0.972,0-1.835-0.479-2.411-1.115l0.647-0.72c0.396,0.54,1.104,1.08,1.858,1.08c0.601,0,1.188-0.337,1.319-0.983
			c0.181-0.84-0.444-1.067-1.043-1.319c-0.839-0.348-1.799-0.779-1.56-1.931c0.205-0.937,1.225-1.691,2.34-1.691
			c0.804,0,1.379,0.288,1.919,0.744L184.396,3.013z"/>
		<path d="M198.795,3.013c-0.432-0.36-0.911-0.721-1.56-0.721c-0.539,0-1.127,0.396-1.258,0.973
			c-0.133,0.624,0.552,0.936,1.006,1.115c0.924,0.371,1.896,0.792,1.619,2.062c-0.228,1.055-1.33,1.775-2.326,1.775
			c-0.973,0-1.836-0.479-2.411-1.115l0.647-0.72c0.396,0.54,1.104,1.08,1.858,1.08c0.601,0,1.188-0.337,1.319-0.983
			c0.18-0.84-0.444-1.067-1.043-1.319c-0.84-0.348-1.799-0.779-1.56-1.931c0.204-0.937,1.224-1.691,2.339-1.691
			c0.805,0,1.379,0.288,1.92,0.744L198.795,3.013z"/>
		<path d="M202.326,5.112c-0.336,1.763,0.336,2.352,1.318,2.352c0.709,0,1.488-0.324,2.146-0.685l0.217,0.803
			c-0.875,0.36-1.703,0.637-2.592,0.637c-1.895,0-2.303-1.631-1.955-3.299c0.36-1.679,1.5-3.382,3.418-3.382
			c2.135,0,1.943,2.388,1.811,3.082l-0.096,0.492H202.326z M205.851,4.356c0.192-1.055-0.191-2.063-1.199-2.063
			c-1.006,0-1.666,0.769-2.182,2.063H205.851z"/>
		<path d="M213.412,7.042c-0.792,0.696-1.535,1.176-2.531,1.176c-1.188,0-2.613-0.731-2.074-3.274
			c0.539-2.567,2.17-3.406,3.453-3.406c1.057,0,1.68,0.576,2.063,1.428l-0.888,0.516c-0.192-0.647-0.541-1.188-1.332-1.188
			c-0.912,0-1.979,0.673-2.387,2.567c-0.42,2.003,0.479,2.604,1.307,2.604c0.709,0,1.379-0.54,1.92-1.057L213.412,7.042z"/>
		<path d="M220.492,1.669h0.898l-0.66,3.106c-0.239,1.115-0.455,2.219-0.432,3.31h-0.852l0.061-1.234
			c-0.576,0.708-1.572,1.367-2.398,1.367c-1.141,0-1.416-0.972-1.176-2.087l0.947-4.462h0.899l-0.899,4.198
			c-0.132,0.601-0.335,1.595,0.456,1.595c0.888,0,2.123-0.995,2.591-3.167L220.492,1.669z"/>
		<path d="M224.128,8.086h-0.898l0.779-3.682c0.229-1.055,0.324-1.931,0.336-2.734h0.875l-0.06,1.224
			c0.647-0.755,1.319-1.355,2.278-1.355c1.199,0,1.236,1.176,1.031,2.147h-0.898c0.084-0.48,0.348-1.393-0.336-1.393
			c-0.66,0-2.1,0.983-2.543,3.119L224.128,8.086z"/>
		<path d="M233.056,2.426h-1.824l0.168-0.757h2.724l-1.368,6.417h-0.898L233.056,2.426z M234.747,0.038
			c-0.097,0.433-0.504,0.755-0.924,0.755c-0.419,0-0.685-0.323-0.587-0.755c0.084-0.432,0.492-0.756,0.912-0.756
			C234.566-0.717,234.831-0.394,234.747,0.038z"/>
		<path d="M242.486,2.426h-2.291l-0.78,3.657c-0.132,0.624-0.276,1.38,0.54,1.38c0.684,0,1.225-0.564,1.596-1.128l0.814,0.217
			c-0.624,0.923-1.512,1.667-2.59,1.667c-1.043,0-1.596-0.503-1.188-2.422l0.708-3.37h-1.379l0.168-0.757h1.379l0.42-1.967h0.899
			l-0.419,1.967h2.291L242.486,2.426z"/>
		<path d="M250.609,1.669l-3.658,6.021c-0.564,0.924-1.439,2.351-2.615,2.351c-0.828,0-1.259-0.636-1.331-1.392l0.839-0.396
			c0.061,0.385,0.18,1.031,0.66,1.031c0.504,0,0.948-0.694,1.199-1.079l0.624-0.972l-0.875-5.565h0.972l0.623,4.366l2.604-4.366
			L250.609,1.669L250.609,1.669z"/>
		<path d="M260.679,2.258c0.647-0.48,0.983-0.721,1.727-0.721c1.127,0,2.398,0.863,1.859,3.382
			c-0.517,2.436-2.279,3.299-3.312,3.299c-0.526,0-0.888-0.133-1.295-0.372l-0.576,2.697h-0.899l1.392-6.512
			c0.18-0.814,0.3-1.631,0.204-2.411l0.863-0.107L260.679,2.258z M259.851,6.934c0.301,0.288,0.672,0.528,1.115,0.528
			c1.055,0,2.051-0.912,2.411-2.579c0.444-2.1-0.552-2.592-1.14-2.592c-0.73,0-1.235,0.528-1.631,1.116L259.851,6.934z"/>
		<path d="M269.486-0.058h-1.823l0.168-0.755h2.724l-1.896,8.898h-0.899L269.486-0.058z"/>
		<path d="M277.308,3.505c0.156-0.708-0.168-1.212-0.838-1.212c-0.564,0-1.152,0.265-1.716,0.48l-0.036-0.792
			c0.66-0.24,1.271-0.444,1.943-0.444c1.223,0,1.751,1.007,1.523,2.075l-0.588,2.783c-0.119,0.587-0.168,1.187-0.096,1.739
			l-0.863,0.107l-0.061-0.803c-0.54,0.516-1.08,0.779-1.751,0.779c-1.224,0-1.703-0.959-1.463-2.1
			c0.264-1.234,1.247-2.314,2.542-2.314c0.48,0,0.898,0.144,1.271,0.312L277.308,3.505z M277.021,4.871
			c-0.348-0.168-0.731-0.312-1.164-0.312c-0.911,0-1.438,0.792-1.606,1.606c-0.132,0.601,0.036,1.295,0.731,1.295
			s1.234-0.588,1.727-1.104L277.021,4.871z"/>
		<path d="M281.175,8.086h-0.9l0.684-3.226c0.229-1.08,0.42-2.171,0.396-3.19h0.863l-0.048,1.176
			c0.612-0.755,1.56-1.308,2.459-1.308c1.019,0,1.343,0.937,1.115,2.027l-0.959,4.521h-0.899l0.899-4.258
			c0.132-0.61,0.336-1.535-0.456-1.535c-0.852,0-2.111,0.864-2.591,3.119L281.175,8.086z"/>
		<path d="M292.392,3.013c-0.433-0.36-0.912-0.721-1.56-0.721c-0.54,0-1.127,0.396-1.259,0.973
			c-0.133,0.624,0.552,0.936,1.007,1.115c0.923,0.371,1.896,0.792,1.619,2.062c-0.228,1.055-1.331,1.775-2.327,1.775
			c-0.973,0-1.835-0.479-2.411-1.115l0.647-0.72c0.396,0.54,1.104,1.08,1.859,1.08c0.6,0,1.188-0.337,1.318-0.983
			c0.18-0.84-0.443-1.067-1.043-1.319c-0.839-0.348-1.799-0.779-1.559-1.931c0.203-0.937,1.224-1.691,2.338-1.691
			c0.805,0,1.379,0.288,1.92,0.744L292.392,3.013z"/>
		<path d="M302.33,1.669h1.007l-0.3,4.811h0.023l1.619-3.238h0.875l0.229,3.238h0.023l1.764-4.811h1.007l-2.507,6.5h-0.959
			l-0.312-3.478l-1.763,3.478h-0.959L302.33,1.669z"/>
		<path d="M312.252,2.426h-1.823l0.168-0.757h2.724l-1.368,6.417h-0.898L312.252,2.426z M313.943,0.038
			c-0.096,0.433-0.504,0.755-0.922,0.755c-0.42,0-0.685-0.323-0.588-0.755c0.084-0.432,0.492-0.756,0.912-0.756
			C313.763-0.717,314.027-0.394,313.943,0.038z"/>
		<path d="M321.683,2.426h-2.291l-0.78,3.657c-0.132,0.624-0.276,1.38,0.54,1.38c0.684,0,1.224-0.564,1.595-1.128l0.815,0.217
			c-0.623,0.923-1.51,1.667-2.59,1.667c-1.043,0-1.596-0.503-1.188-2.422l0.708-3.37h-1.379l0.168-0.757h1.379l0.42-1.967h0.898
			L319.56,1.67h2.291L321.683,2.426z"/>
		<path d="M325.453-0.813h0.898l-0.73,3.406c0.588-0.611,1.367-1.056,2.159-1.056c0.768,0,1.595,0.24,1.043,2.866l-0.779,3.682
			h-0.899l0.804-3.754c0.12-0.588,0.432-2.039-0.384-2.039c-0.672,0-1.403,0.601-1.799,1.164c-0.504,0.721-0.637,1.439-0.805,2.243
			l-0.503,2.387h-0.899L325.453-0.813z"/>
		<path d="M4.896,20.426H2.604l-0.78,3.657c-0.132,0.624-0.276,1.38,0.54,1.38c0.684,0,1.224-0.564,1.595-1.128l0.816,0.217
			c-0.624,0.923-1.511,1.667-2.591,1.667c-1.043,0-1.595-0.503-1.188-2.422l0.708-3.37H0.326l0.168-0.757h1.379l0.42-1.967h0.899
			L2.772,19.67h2.291L4.896,20.426z"/>
		<path d="M8.665,17.187h0.899l-0.731,3.406c0.588-0.611,1.367-1.056,2.159-1.056c0.768,0,1.595,0.24,1.043,2.866l-0.779,3.682
			h-0.899l0.803-3.754c0.12-0.588,0.432-2.039-0.384-2.039c-0.671,0-1.403,0.601-1.799,1.164c-0.504,0.721-0.636,1.439-0.804,2.243
			l-0.503,2.388h-0.9L8.665,17.187z"/>
		<path d="M15.134,23.112c-0.336,1.763,0.336,2.352,1.319,2.352c0.708,0,1.487-0.324,2.146-0.685l0.216,0.803
			c-0.875,0.36-1.703,0.637-2.591,0.637c-1.895,0-2.303-1.631-1.955-3.299c0.36-1.679,1.5-3.382,3.418-3.382
			c2.135,0,1.943,2.388,1.811,3.082l-0.096,0.492H15.134z M18.66,22.356c0.192-1.055-0.192-2.063-1.199-2.063
			c-1.007,0-1.667,0.769-2.183,2.063H18.66z"/>
		<path d="M21.985,26.086h-0.9l0.684-3.226c0.228-1.08,0.42-2.171,0.396-3.19h0.864l-0.048,1.176
			c0.612-0.755,1.559-1.308,2.459-1.308c1.019,0,1.343,0.937,1.115,2.027l-0.959,4.521h-0.899l0.899-4.258
			c0.132-0.61,0.336-1.535-0.456-1.535c-0.852,0-2.111,0.864-2.591,3.119L21.985,26.086z"/>
		<path d="M29.833,22.164l0.156-0.755h3.119l-0.156,0.755H29.833z"/>
		<path d="M37.285,21.228h2.998l0.804-3.778h0.899l-1.835,8.635h-0.899l0.875-4.102h-2.998l-0.876,4.102h-0.899l1.835-8.635h0.899
			L37.285,21.228z"/>
		<path d="M43.177,22.885c0.528-2.483,2.027-3.347,3.25-3.347c2.267,0,2.063,2.304,1.847,3.347
			c-0.528,2.481-2.027,3.334-3.262,3.334C43.896,26.219,42.625,25.474,43.177,22.885z M47.374,22.885
			c0.228-1.104,0.3-2.592-1.103-2.592c-1.403,0-1.967,1.487-2.195,2.592c-0.24,1.104-0.312,2.579,1.091,2.579
			C46.57,25.464,47.135,23.987,47.374,22.885z"/>
		<path d="M50.305,21.66c0.18-0.875,0.192-1.451,0.192-2.123h0.899l0.012,0.576c0.456-0.336,0.839-0.576,1.379-0.576
			c0.587,0,0.719,0.145,0.971,0.587c0.444-0.335,0.828-0.6,1.355-0.6c0.863,0,1.295,0.564,1.115,1.427l-1.091,5.133h-0.899
			l1.091-5.133c0.096-0.432-0.084-0.671-0.444-0.671c-0.408,0-0.828,0.335-1.091,0.671l-1.091,5.133h-0.9l1.08-5.061
			c0.072-0.336,0.06-0.732-0.348-0.732c-0.432,0-0.948,0.385-1.2,0.78l-1.067,5.013h-0.899L50.305,21.66z"/>
		<path d="M58.332,23.112c-0.336,1.763,0.336,2.352,1.319,2.352c0.708,0,1.487-0.324,2.146-0.685l0.216,0.803
			c-0.875,0.36-1.703,0.637-2.591,0.637c-1.895,0-2.303-1.631-1.955-3.299c0.36-1.679,1.5-3.382,3.418-3.382
			c2.135,0,1.943,2.388,1.811,3.082L62.6,23.112H58.332z M61.857,22.356c0.192-1.055-0.192-2.063-1.199-2.063
			c-1.007,0-1.667,0.769-2.183,2.063H61.857z"/>
		<path d="M67.894,17.942h-1.823l0.168-0.755h2.723l-1.895,8.898h-0.899L67.894,17.942z"/>
		<path d="M75.718,21.505c0.156-0.708-0.168-1.212-0.839-1.212c-0.564,0-1.151,0.265-1.715,0.48l-0.036-0.792
			c0.66-0.24,1.271-0.444,1.943-0.444c1.223,0,1.751,1.007,1.523,2.075l-0.587,2.783c-0.12,0.587-0.168,1.187-0.096,1.739
			l-0.864,0.107l-0.06-0.803c-0.54,0.516-1.08,0.779-1.751,0.779c-1.224,0-1.703-0.959-1.463-2.1
			c0.264-1.234,1.247-2.314,2.542-2.314c0.48,0,0.899,0.144,1.271,0.312L75.718,21.505z M75.43,22.871
			c-0.348-0.168-0.731-0.312-1.163-0.312c-0.912,0-1.439,0.792-1.607,1.606c-0.132,0.601,0.036,1.295,0.731,1.295
			s1.235-0.588,1.727-1.104L75.43,22.871z"/>
		<path d="M79.583,26.086h-0.9l0.684-3.226c0.228-1.08,0.42-2.171,0.396-3.19h0.864l-0.048,1.176
			c0.612-0.755,1.559-1.308,2.459-1.308c1.019,0,1.343,0.937,1.115,2.027l-0.959,4.521h-0.899l0.899-4.258
			c0.132-0.61,0.336-1.535-0.456-1.535c-0.852,0-2.111,0.864-2.591,3.119L79.583,26.086z"/>
		<path d="M89.792,26.219l-0.048-0.721c-0.636,0.48-0.972,0.721-1.715,0.721c-1.127,0-2.387-0.863-1.847-3.383
			c0.516-2.446,2.254-3.298,3.298-3.298c0.54,0,0.888,0.132,1.271,0.372l0.587-2.722h0.9l-1.403,6.608
			c-0.168,0.792-0.264,1.583-0.168,2.313L89.792,26.219z M90.561,20.821c-0.288-0.288-0.636-0.528-1.091-0.528
			c-0.959,0-2.027,0.805-2.399,2.579c-0.444,2.087,0.54,2.592,1.14,2.592c0.695,0,1.235-0.517,1.607-1.104L90.561,20.821z"/>
		<path d="M105.932,19.01c-0.419-0.469-0.911-0.972-1.655-0.972c-0.768,0-1.511,0.527-1.679,1.319
			c-0.096,0.456-0.096,0.864,0.912,1.571l0.6,0.42c1.391,0.971,1.715,1.427,1.499,2.435c-0.336,1.547-1.559,2.472-3.07,2.472
			c-1.115,0-1.823-0.54-2.314-1.403l0.815-0.552c0.276,0.672,0.828,1.198,1.655,1.198c0.9,0,1.787-0.671,1.991-1.595
			c0.144-0.696,0.132-0.924-1.188-1.847l-0.671-0.468c-0.732-0.517-1.367-1.092-1.14-2.172c0.288-1.354,1.487-2.135,2.783-2.135
			c0.899,0,1.631,0.48,2.146,1.08L105.932,19.01z"/>
		<path d="M108.729,23.112c-0.336,1.763,0.336,2.352,1.319,2.352c0.708,0,1.487-0.324,2.147-0.685l0.216,0.803
			c-0.875,0.36-1.703,0.637-2.591,0.637c-1.895,0-2.303-1.631-1.955-3.299c0.36-1.679,1.5-3.382,3.418-3.382
			c2.135,0,1.943,2.388,1.811,3.082l-0.096,0.492H108.729z M112.255,22.356c0.192-1.055-0.192-2.063-1.199-2.063
			s-1.667,0.769-2.183,2.063H112.255z"/>
		<path d="M119.814,25.042c-0.792,0.696-1.535,1.176-2.53,1.176c-1.188,0-2.615-0.731-2.075-3.274
			c0.54-2.567,2.171-3.406,3.454-3.406c1.056,0,1.679,0.576,2.063,1.428l-0.888,0.516c-0.192-0.647-0.54-1.188-1.331-1.188
			c-0.912,0-1.979,0.673-2.387,2.567c-0.42,2.003,0.479,2.604,1.307,2.604c0.708,0,1.379-0.54,1.919-1.057L119.814,25.042z"/>
		<path d="M126.895,19.669h0.899l-0.66,3.106c-0.24,1.115-0.456,2.219-0.432,3.31h-0.852l0.06-1.234
			c-0.576,0.708-1.571,1.367-2.398,1.367c-1.139,0-1.415-0.972-1.175-2.087l0.947-4.462h0.9l-0.899,4.198
			c-0.132,0.601-0.336,1.596,0.456,1.596c0.887,0,2.123-0.996,2.59-3.168L126.895,19.669z"/>
		<path d="M130.533,26.086h-0.9l0.78-3.682c0.228-1.055,0.324-1.931,0.336-2.734h0.875l-0.06,1.224
			c0.647-0.755,1.319-1.355,2.279-1.355c1.199,0,1.235,1.176,1.031,2.147h-0.899c0.084-0.48,0.348-1.393-0.336-1.393
			c-0.66,0-2.099,0.983-2.542,3.119L130.533,26.086z"/>
		<path d="M139.459,20.426h-1.823l0.168-0.757h2.723l-1.368,6.417h-0.899L139.459,20.426z M141.15,18.038
			c-0.096,0.433-0.504,0.755-0.923,0.755c-0.42,0-0.684-0.323-0.588-0.755c0.084-0.432,0.492-0.756,0.912-0.756
			C140.971,17.283,141.234,17.606,141.15,18.038z"/>
		<path d="M148.89,20.426h-2.291l-0.78,3.657c-0.132,0.624-0.276,1.38,0.54,1.38c0.684,0,1.224-0.564,1.595-1.128l0.816,0.217
			c-0.624,0.923-1.511,1.667-2.591,1.667c-1.043,0-1.595-0.503-1.188-2.422l0.708-3.37h-1.379l0.168-0.757h1.379l0.42-1.967h0.899
			l-0.419,1.967h2.291L148.89,20.426z"/>
		<path d="M157.013,19.669l-3.658,6.021c-0.564,0.924-1.439,2.351-2.615,2.351c-0.828,0-1.259-0.636-1.331-1.392l0.839-0.396
			c0.06,0.385,0.18,1.031,0.66,1.031c0.504,0,0.948-0.694,1.199-1.079l0.624-0.972l-0.875-5.565h0.971l0.624,4.366l2.603-4.366
			L157.013,19.669L157.013,19.669z"/>
		<path d="M170.212,25.042c-0.792,0.696-1.535,1.176-2.531,1.176c-1.187,0-2.614-0.731-2.074-3.274
			c0.539-2.567,2.17-3.406,3.453-3.406c1.057,0,1.68,0.576,2.063,1.428l-0.888,0.516c-0.192-0.647-0.541-1.188-1.331-1.188
			c-0.912,0-1.979,0.673-2.388,2.567c-0.42,2.003,0.479,2.604,1.308,2.604c0.708,0,1.379-0.54,1.919-1.057L170.212,25.042z"/>
		<path d="M174.259,17.187h0.898l-0.73,3.406c0.588-0.611,1.366-1.056,2.158-1.056c0.768,0,1.596,0.24,1.043,2.866l-0.779,3.682
			h-0.898l0.803-3.754c0.12-0.588,0.432-2.039-0.384-2.039c-0.671,0-1.403,0.601-1.799,1.164c-0.505,0.721-0.636,1.439-0.804,2.243
			l-0.504,2.388h-0.899L174.259,17.187z"/>
		<path d="M182.658,20.426h-1.823l0.168-0.757h2.724l-1.369,6.417h-0.898L182.658,20.426z M184.349,18.038
			c-0.097,0.433-0.504,0.755-0.924,0.755s-0.684-0.323-0.588-0.755c0.084-0.432,0.492-0.756,0.912-0.756
			C184.168,17.283,184.433,17.606,184.349,18.038z"/>
		<path d="M187.927,23.112c-0.336,1.763,0.336,2.352,1.318,2.352c0.708,0,1.486-0.324,2.146-0.685l0.215,0.803
			c-0.875,0.36-1.702,0.637-2.59,0.637c-1.896,0-2.304-1.631-1.955-3.299c0.359-1.679,1.5-3.382,3.418-3.382
			c2.135,0,1.943,2.388,1.811,3.082l-0.096,0.492H187.927z M191.453,22.356c0.191-1.055-0.191-2.063-1.199-2.063
			c-1.007,0-1.667,0.769-2.183,2.063H191.453z"/>
		<path d="M200.546,18.638c-0.455-0.216-0.947-0.601-1.498-0.601c-0.793,0-1.248,0.492-1.428,1.319l-0.156,0.72h2.062l-0.156,0.756
			h-2.062l-1.115,5.253h-0.899l1.115-5.253h-1.595l0.156-0.756h1.594l0.133-0.611c0.324-1.523,1.499-2.184,2.445-2.184
			c0.588,0,1.117,0.204,1.596,0.444L200.546,18.638z"/>
		<path d="M211.923,17.451h2.495l-1.175,5.554c-0.229,1.066-0.671,3.25-3.143,3.25c-1.402,0-2.135-0.792-1.727-2.663l0.264-1.211
			h0.9l-0.336,1.547c-0.217,0.995,0.145,1.57,1.031,1.57c1.031,0,1.703-0.587,1.967-1.822l1.164-5.47h-1.596L211.923,17.451z"/>
		<path d="M219.711,21.505c0.156-0.708-0.168-1.212-0.839-1.212c-0.564,0-1.15,0.265-1.715,0.48l-0.036-0.792
			c0.66-0.24,1.271-0.444,1.942-0.444c1.224,0,1.752,1.007,1.523,2.075L220,24.395c-0.12,0.587-0.168,1.187-0.096,1.739
			l-0.864,0.107l-0.061-0.803c-0.539,0.516-1.08,0.779-1.75,0.779c-1.225,0-1.703-0.959-1.463-2.1
			c0.264-1.234,1.246-2.314,2.541-2.314c0.48,0,0.899,0.144,1.271,0.312L219.711,21.505z M219.423,22.871
			c-0.348-0.168-0.73-0.312-1.162-0.312c-0.912,0-1.439,0.792-1.607,1.606c-0.133,0.601,0.035,1.295,0.73,1.295
			s1.235-0.588,1.728-1.104L219.423,22.871z"/>
		<path d="M223.578,26.086h-0.9l0.685-3.226c0.228-1.08,0.42-2.171,0.396-3.19h0.864l-0.048,1.176
			c0.611-0.755,1.559-1.308,2.459-1.308c1.02,0,1.343,0.937,1.115,2.027l-0.959,4.521h-0.899l0.899-4.258
			c0.132-0.61,0.336-1.535-0.457-1.535c-0.852,0-2.11,0.864-2.59,3.119L223.578,26.086z"/>
		<path d="M231.125,23.112c-0.336,1.763,0.336,2.352,1.318,2.352c0.709,0,1.488-0.324,2.146-0.685l0.217,0.803
			c-0.875,0.36-1.703,0.637-2.592,0.637c-1.895,0-2.303-1.631-1.955-3.299c0.36-1.679,1.5-3.382,3.418-3.382
			c2.135,0,1.943,2.388,1.812,3.082l-0.097,0.492H231.125z M234.65,22.356c0.193-1.055-0.191-2.063-1.198-2.063
			s-1.667,0.769-2.183,2.063H234.65z"/>
		<path d="M242.486,20.426h-2.291l-0.78,3.657c-0.132,0.624-0.276,1.38,0.54,1.38c0.684,0,1.225-0.564,1.596-1.128l0.814,0.217
			c-0.624,0.923-1.512,1.667-2.59,1.667c-1.043,0-1.596-0.503-1.188-2.422l0.708-3.37h-1.379l0.168-0.757h1.379l0.42-1.967h0.899
			l-0.419,1.967h2.291L242.486,20.426z"/>
		<path d="M253.359,17.451h1.043l1.26,6.453h0.036l1.368-6.453h0.898l-1.847,8.719h-0.853l-1.354-6.968l-0.024,0.024l-1.463,6.859
			h-0.898L253.359,17.451z"/>
		<path d="M262.91,21.505c0.156-0.708-0.168-1.212-0.839-1.212c-0.563,0-1.151,0.265-1.716,0.48l-0.035-0.792
			c0.66-0.24,1.271-0.444,1.943-0.444c1.223,0,1.75,1.007,1.522,2.075l-0.587,2.783c-0.12,0.587-0.168,1.187-0.096,1.739
			l-0.864,0.107l-0.06-0.803c-0.541,0.516-1.08,0.779-1.752,0.779c-1.224,0-1.703-0.959-1.463-2.1
			c0.264-1.234,1.247-2.314,2.543-2.314c0.479,0,0.898,0.144,1.27,0.312L262.91,21.505z M262.622,22.871
			c-0.349-0.168-0.731-0.312-1.163-0.312c-0.912,0-1.439,0.792-1.607,1.606c-0.131,0.601,0.037,1.295,0.731,1.295
			c0.695,0,1.235-0.588,1.728-1.104L262.622,22.871z"/>
		<path d="M267.878,20.258c0.648-0.48,0.983-0.721,1.727-0.721c1.127,0,2.399,0.863,1.859,3.382
			c-0.516,2.436-2.279,3.299-3.311,3.299c-0.527,0-0.887-0.133-1.295-0.372l-0.576,2.697h-0.9l1.393-6.512
			c0.18-0.814,0.3-1.631,0.203-2.411l0.865-0.107L267.878,20.258z M267.052,24.934c0.299,0.288,0.67,0.528,1.114,0.528
			c1.056,0,2.052-0.912,2.411-2.579c0.443-2.1-0.553-2.592-1.139-2.592c-0.732,0-1.235,0.528-1.631,1.116L267.052,24.934z"/>
		<path d="M273.566,22.885c0.529-2.483,2.027-3.347,3.25-3.347c2.268,0,2.063,2.304,1.848,3.347
			c-0.527,2.481-2.027,3.334-3.262,3.334C274.287,26.219,273.015,25.474,273.566,22.885z M277.765,22.885
			c0.228-1.104,0.299-2.592-1.104-2.592s-1.967,1.487-2.195,2.592c-0.24,1.104-0.312,2.579,1.092,2.579
			C276.96,25.464,277.525,23.987,277.765,22.885z"/>
		<path d="M283.886,17.942h-1.824l0.168-0.755h2.724l-1.896,8.898h-0.898L283.886,17.942z"/>
		<path d="M290.652,20.426h-1.822l0.168-0.757h2.723l-1.367,6.417h-0.899L290.652,20.426z M292.345,18.038
			c-0.097,0.433-0.504,0.755-0.925,0.755c-0.419,0-0.685-0.323-0.587-0.755c0.084-0.432,0.492-0.756,0.912-0.756
			C292.164,17.283,292.429,17.606,292.345,18.038z"/>
		<path d="M300.083,20.426h-2.291l-0.779,3.657c-0.133,0.624-0.277,1.38,0.539,1.38c0.684,0,1.225-0.564,1.596-1.128l0.814,0.217
			c-0.624,0.923-1.511,1.667-2.59,1.667c-1.043,0-1.596-0.503-1.188-2.422l0.707-3.37h-1.379l0.168-0.757h1.379l0.42-1.967h0.899
			l-0.419,1.967h2.291L300.083,20.426z"/>
		<path d="M306.107,21.505c0.156-0.708-0.168-1.212-0.838-1.212c-0.564,0-1.151,0.265-1.715,0.48l-0.037-0.792
			c0.66-0.24,1.271-0.444,1.943-0.444c1.223,0,1.751,1.007,1.523,2.075l-0.588,2.783c-0.119,0.587-0.168,1.187-0.096,1.739
			l-0.863,0.107l-0.061-0.803c-0.54,0.516-1.08,0.779-1.751,0.779c-1.224,0-1.703-0.959-1.463-2.1
			c0.265-1.234,1.247-2.314,2.542-2.314c0.48,0,0.898,0.144,1.271,0.312L306.107,21.505z M305.82,22.871
			c-0.348-0.168-0.731-0.312-1.163-0.312c-0.912,0-1.438,0.792-1.606,1.606c-0.133,0.601,0.035,1.295,0.73,1.295
			s1.234-0.588,1.727-1.104L305.82,22.871z"/>
		<path d="M309.974,26.086h-0.9l0.684-3.226c0.229-1.08,0.42-2.171,0.396-3.19h0.863l-0.047,1.176
			c0.611-0.755,1.559-1.308,2.459-1.308c1.019,0,1.342,0.937,1.114,2.027l-0.959,4.521h-0.899l0.899-4.258
			c0.132-0.61,0.336-1.535-0.456-1.535c-0.852,0-2.111,0.864-2.591,3.119L309.974,26.086z"/>
		<path d="M316.765,22.885c0.528-2.483,2.027-3.347,3.25-3.347c2.268,0,2.063,2.304,1.848,3.347
			c-0.528,2.481-2.027,3.334-3.262,3.334C317.484,26.219,316.213,25.474,316.765,22.885z M320.962,22.885
			c0.229-1.104,0.301-2.592-1.104-2.592c-1.402,0-1.967,1.487-2.194,2.592c-0.239,1.104-0.312,2.579,1.091,2.579
			C320.159,25.464,320.724,23.987,320.962,22.885z"/>
		<path d="M326.112,24.395c0.516,0,0.875,0.396,0.768,0.923c-0.12,0.528-0.647,0.937-1.163,0.937c-0.527,0-0.888-0.408-0.768-0.937
			C325.056,24.79,325.597,24.395,326.112,24.395z"/>
	</g>
</g>
<g id="Layer_2">
	<g>
		<path fill="#B3B3B3" d="M80.789,53.642h2.075c1.559,0,2.267,0.936,1.907,2.639c-0.384,1.822-1.751,2.602-3.442,2.602h-0.756
			l-0.719,3.395h-0.9L80.789,53.642z M81.736,58.126c1.043,0,1.883-0.625,2.135-1.836c0.288-1.354-0.216-1.895-1.283-1.895h-1.056
			l-0.792,3.73H81.736z"/>
		<path fill="#B3B3B3" d="M87.856,53.376h0.899l-0.731,3.406c0.588-0.611,1.367-1.055,2.159-1.055c0.768,0,1.595,0.24,1.043,2.867
			l-0.779,3.682h-0.899l0.803-3.754c0.12-0.588,0.432-2.039-0.384-2.039c-0.671,0-1.403,0.6-1.799,1.164
			c-0.504,0.719-0.636,1.438-0.804,2.242l-0.503,2.387h-0.9L87.856,53.376z"/>
		<path fill="#B3B3B3" d="M93.569,59.073c0.527-2.482,2.027-3.346,3.25-3.346c2.267,0,2.063,2.303,1.847,3.346
			c-0.528,2.482-2.027,3.334-3.262,3.334C94.289,62.407,93.018,61.663,93.569,59.073z M97.767,59.073
			c0.228-1.104,0.3-2.59-1.103-2.59c-1.403,0-1.967,1.486-2.195,2.59c-0.24,1.105-0.312,2.58,1.091,2.58
			C96.962,61.654,97.526,60.177,97.767,59.073z"/>
		<path fill="#B3B3B3" d="M105.686,56.615h-2.291l-0.78,3.658c-0.132,0.625-0.276,1.379,0.54,1.379c0.684,0,1.224-0.564,1.595-1.127
			l0.816,0.217c-0.624,0.922-1.511,1.666-2.591,1.666c-1.043,0-1.595-0.502-1.188-2.422l0.708-3.369h-1.379l0.168-0.756h1.379
			l0.42-1.967h0.899l-0.419,1.967h2.291L105.686,56.615z"/>
		<path fill="#B3B3B3" d="M107.968,59.073c0.527-2.482,2.027-3.346,3.25-3.346c2.267,0,2.063,2.303,1.847,3.346
			c-0.528,2.482-2.027,3.334-3.262,3.334C108.688,62.407,107.417,61.663,107.968,59.073z M112.166,59.073
			c0.228-1.104,0.3-2.59-1.103-2.59s-1.967,1.486-2.195,2.59c-0.24,1.105-0.312,2.58,1.091,2.58S111.926,60.177,112.166,59.073z"/>
		<path fill="#B3B3B3" d="M124.707,53.376l-0.576,2.711c0.504-0.24,0.912-0.359,1.439-0.359c1.031,0,2.435,0.838,1.919,3.285
			c-0.54,2.52-2.171,3.395-3.298,3.395c-0.744,0-0.983-0.252-1.415-0.732l-0.348,0.721l-0.827-0.107
			c0.419-0.756,0.647-1.572,0.815-2.387l1.391-6.525H124.707z M123.184,60.525c0.156,0.588,0.419,1.127,1.151,1.127
			c0.587,0,1.799-0.504,2.243-2.604c0.384-1.785-0.348-2.566-1.307-2.566c-0.444,0-0.912,0.229-1.332,0.516L123.184,60.525z"/>
		<path fill="#B3B3B3" d="M135.408,55.859l-3.658,6.021c-0.564,0.924-1.439,2.352-2.615,2.352c-0.828,0-1.259-0.637-1.331-1.393
			l0.839-0.396c0.06,0.385,0.18,1.031,0.66,1.031c0.504,0,0.948-0.695,1.199-1.078l0.624-0.973l-0.875-5.564h0.971l0.624,4.365
			l2.603-4.365H135.408L135.408,55.859z"/>
		<path fill="#B3B3B3" d="M145.585,53.642h2.075c1.559,0,2.267,0.936,1.907,2.639c-0.384,1.822-1.751,2.602-3.442,2.602h-0.756
			l-0.719,3.395h-0.9L145.585,53.642z M146.533,58.126c1.043,0,1.883-0.625,2.135-1.836c0.288-1.354-0.216-1.895-1.283-1.895h-1.056
			l-0.792,3.73H146.533z"/>
		<path fill="#B3B3B3" d="M151.922,59.302c-0.336,1.764,0.336,2.352,1.319,2.352c0.708,0,1.487-0.324,2.147-0.684l0.216,0.803
			c-0.875,0.359-1.703,0.635-2.591,0.635c-1.895,0-2.303-1.631-1.955-3.297c0.36-1.68,1.5-3.383,3.418-3.383
			c2.135,0,1.943,2.387,1.811,3.082l-0.096,0.492H151.922z M155.448,58.546c0.192-1.055-0.192-2.062-1.199-2.062
			s-1.667,0.768-2.183,2.062H155.448z"/>
		<path fill="#B3B3B3" d="M163.283,56.615h-2.291l-0.78,3.658c-0.132,0.625-0.276,1.379,0.54,1.379c0.684,0,1.224-0.564,1.595-1.127
			l0.816,0.217c-0.624,0.922-1.511,1.666-2.591,1.666c-1.043,0-1.595-0.502-1.188-2.422l0.708-3.369h-1.379l0.168-0.756h1.379
			l0.42-1.967h0.899l-0.419,1.967h2.291L163.283,56.615z"/>
		<path fill="#B3B3B3" d="M166.322,59.302c-0.336,1.764,0.336,2.352,1.318,2.352c0.709,0,1.487-0.324,2.147-0.684l0.216,0.803
			c-0.875,0.359-1.703,0.635-2.591,0.635c-1.896,0-2.303-1.631-1.955-3.297c0.36-1.68,1.5-3.383,3.418-3.383
			c2.135,0,1.942,2.387,1.812,3.082l-0.097,0.492H166.322z M169.847,58.546c0.192-1.055-0.191-2.062-1.199-2.062
			c-1.006,0-1.666,0.768-2.183,2.062H169.847z"/>
		<path fill="#B3B3B3" d="M185.123,55.2c-0.419-0.469-0.911-0.971-1.655-0.971c-0.769,0-1.511,0.525-1.679,1.318
			c-0.096,0.455-0.096,0.863,0.912,1.57l0.6,0.42c1.391,0.971,1.715,1.428,1.499,2.436c-0.336,1.547-1.56,2.471-3.069,2.471
			c-1.115,0-1.824-0.539-2.314-1.402l0.814-0.553c0.276,0.672,0.828,1.199,1.655,1.199c0.899,0,1.787-0.67,1.991-1.594
			c0.145-0.697,0.132-0.926-1.188-1.848l-0.672-0.469c-0.731-0.516-1.367-1.09-1.14-2.17c0.288-1.355,1.487-2.135,2.783-2.135
			c0.899,0,1.631,0.479,2.146,1.08L185.123,55.2z"/>
		<path fill="#B3B3B3" d="M187.165,59.073c0.528-2.482,2.026-3.346,3.25-3.346c2.267,0,2.063,2.303,1.847,3.346
			c-0.527,2.482-2.027,3.334-3.262,3.334C187.884,62.407,186.613,61.663,187.165,59.073z M191.363,59.073
			c0.228-1.104,0.3-2.59-1.104-2.59c-1.402,0-1.967,1.486-2.195,2.59c-0.24,1.105-0.312,2.58,1.092,2.58
			C190.558,61.654,191.123,60.177,191.363,59.073z"/>
		<path fill="#B3B3B3" d="M198.886,55.859h0.899l-0.66,3.105c-0.24,1.115-0.456,2.221-0.433,3.311h-0.852l0.061-1.234
			c-0.576,0.707-1.571,1.367-2.398,1.367c-1.139,0-1.415-0.971-1.175-2.088l0.946-4.461h0.899l-0.899,4.199
			c-0.131,0.6-0.336,1.594,0.457,1.594c0.887,0,2.123-0.996,2.59-3.166L198.886,55.859z"/>
		<path fill="#B3B3B3" d="M206.914,56.531l-4.749,4.99h3.826l-0.156,0.754h-4.989l0.145-0.66l4.761-5h-3.179l0.168-0.756h4.317
			L206.914,56.531z"/>
		<path fill="#B3B3B3" d="M212.506,57.695c0.156-0.709-0.168-1.211-0.839-1.211c-0.563,0-1.151,0.264-1.715,0.479l-0.036-0.791
			c0.658-0.24,1.271-0.443,1.943-0.443c1.223,0,1.75,1.006,1.522,2.074l-0.588,2.783c-0.12,0.586-0.167,1.188-0.097,1.738
			l-0.862,0.109l-0.06-0.805c-0.541,0.518-1.08,0.779-1.752,0.779c-1.224,0-1.703-0.959-1.463-2.098
			c0.264-1.236,1.248-2.316,2.543-2.316c0.479,0,0.898,0.145,1.271,0.312L212.506,57.695z M212.218,59.062
			c-0.348-0.168-0.731-0.312-1.164-0.312c-0.911,0-1.438,0.791-1.606,1.607c-0.133,0.6,0.035,1.295,0.73,1.295
			s1.235-0.588,1.727-1.105L212.218,59.062z"/>
		<path fill="#B3B3B3" d="M215.485,62.601l3.609-9.283h0.9l-3.61,9.283H215.485z"/>
		<path fill="#B3B3B3" d="M229.508,54.396h-2.459l-1.679,7.881h-0.899l1.68-7.881h-2.412l0.156-0.754h5.77L229.508,54.396z"/>
		<path fill="#B3B3B3" d="M231.85,53.376h0.899l-0.731,3.406c0.588-0.611,1.367-1.055,2.159-1.055c0.769,0,1.595,0.24,1.043,2.867
			l-0.778,3.682h-0.899l0.803-3.754c0.12-0.588,0.433-2.039-0.384-2.039c-0.671,0-1.402,0.6-1.799,1.164
			c-0.504,0.719-0.637,1.438-0.805,2.242l-0.502,2.387h-0.9L231.85,53.376z"/>
		<path fill="#B3B3B3" d="M238.319,59.302c-0.336,1.764,0.336,2.352,1.318,2.352c0.708,0,1.487-0.324,2.147-0.684L242,61.773
			c-0.875,0.359-1.703,0.635-2.591,0.635c-1.896,0-2.304-1.631-1.955-3.297c0.36-1.68,1.5-3.383,3.418-3.383
			c2.135,0,1.942,2.387,1.812,3.082l-0.097,0.492H238.319z M241.844,58.546c0.192-1.055-0.191-2.062-1.199-2.062
			c-1.006,0-1.666,0.768-2.183,2.062H241.844z"/>
		<path fill="#B3B3B3" d="M255.464,60.38h0.022l1.859-6.738h0.973l-2.506,8.719h-1.031l-0.301-3.742l-1.895,3.742h-0.996
			l1.127-8.719h0.971l-0.971,6.738h0.023l2.279-4.33L255.464,60.38z"/>
		<path fill="#B3B3B3" d="M260.651,53.376h0.898l-0.73,3.406c0.586-0.611,1.367-1.055,2.158-1.055c0.768,0,1.596,0.24,1.043,2.867
			l-0.779,3.682h-0.899l0.804-3.754c0.121-0.588,0.433-2.039-0.384-2.039c-0.672,0-1.403,0.6-1.799,1.164
			c-0.504,0.719-0.636,1.438-0.804,2.242l-0.504,2.387h-0.899L260.651,53.376z"/>
		<path fill="#B3B3B3" d="M269.049,56.615h-1.822l0.168-0.756h2.723l-1.367,6.418h-0.898L269.049,56.615z M270.741,54.228
			c-0.096,0.432-0.504,0.756-0.924,0.756s-0.684-0.324-0.588-0.756c0.084-0.432,0.492-0.756,0.912-0.756
			C270.561,53.474,270.825,53.796,270.741,54.228z"/>
		<path fill="#B3B3B3" d="M278.481,56.615h-2.291l-0.779,3.658c-0.133,0.625-0.275,1.379,0.539,1.379
			c0.685,0,1.224-0.564,1.596-1.127l0.814,0.217c-0.623,0.922-1.51,1.666-2.59,1.666c-1.043,0-1.596-0.502-1.188-2.422l0.707-3.369
			h-1.379l0.168-0.756h1.379l0.42-1.967h0.898l-0.42,1.967h2.291L278.481,56.615z"/>
		<path fill="#B3B3B3" d="M281.518,59.302c-0.334,1.764,0.336,2.352,1.319,2.352c0.708,0,1.487-0.324,2.147-0.684l0.216,0.803
			c-0.876,0.359-1.703,0.635-2.591,0.635c-1.896,0-2.303-1.631-1.955-3.297c0.359-1.68,1.498-3.383,3.418-3.383
			c2.135,0,1.943,2.387,1.812,3.082l-0.096,0.492H281.518z M285.044,58.546c0.192-1.055-0.19-2.062-1.199-2.062
			c-1.008,0-1.667,0.768-2.183,2.062H285.044z"/>
		<path fill="#B3B3B3" d="M296.47,57.417h2.999l0.805-3.777h0.898l-1.835,8.635h-0.899l0.875-4.102h-2.998l-0.875,4.102h-0.899
			l1.835-8.635h0.898L296.47,57.417z"/>
		<path fill="#B3B3B3" d="M302.364,59.073c0.527-2.482,2.027-3.346,3.25-3.346c2.268,0,2.062,2.303,1.848,3.346
			c-0.527,2.482-2.025,3.334-3.262,3.334C303.083,62.407,301.813,61.663,302.364,59.073z M306.561,59.073
			c0.229-1.104,0.301-2.59-1.104-2.59s-1.967,1.486-2.194,2.59c-0.239,1.105-0.312,2.58,1.091,2.58
			C305.757,61.652,306.323,60.177,306.561,59.073z"/>
		<path fill="#B3B3B3" d="M314.085,55.859h0.899l-0.66,3.105c-0.239,1.115-0.455,2.221-0.432,3.311h-0.853l0.062-1.234
			c-0.576,0.707-1.572,1.367-2.399,1.367c-1.14,0-1.415-0.971-1.175-2.088l0.947-4.461h0.898l-0.898,4.199
			c-0.133,0.6-0.337,1.594,0.455,1.594c0.889,0,2.123-0.996,2.592-3.166L314.085,55.859z"/>
		<path fill="#B3B3B3" d="M321.19,57.202c-0.433-0.359-0.912-0.719-1.56-0.719c-0.54,0-1.127,0.395-1.26,0.971
			c-0.132,0.625,0.552,0.938,1.008,1.115c0.924,0.373,1.896,0.793,1.619,2.062c-0.228,1.057-1.331,1.775-2.327,1.775
			c-0.971,0-1.835-0.479-2.41-1.115l0.646-0.719c0.396,0.539,1.104,1.08,1.859,1.08c0.6,0,1.188-0.336,1.319-0.984
			c0.181-0.84-0.444-1.066-1.044-1.318c-0.839-0.348-1.799-0.779-1.559-1.932c0.203-0.936,1.223-1.689,2.338-1.689
			c0.804,0,1.379,0.287,1.918,0.744L321.19,57.202z"/>
		<path fill="#B3B3B3" d="M324.719,59.302c-0.335,1.764,0.336,2.352,1.319,2.352c0.708,0,1.487-0.324,2.147-0.684l0.215,0.803
			c-0.875,0.359-1.703,0.635-2.59,0.635c-1.896,0-2.304-1.631-1.955-3.297c0.359-1.68,1.498-3.383,3.418-3.383
			c2.135,0,1.942,2.387,1.812,3.082l-0.097,0.492H324.719z M328.246,58.546c0.192-1.055-0.191-2.062-1.199-2.062
			s-1.667,0.768-2.183,2.062H328.246z"/>
	</g>
</g>
</svg>
