<?xml version="1.0" encoding="utf-8"?>
<!-- Generator: Adobe Illustrator 17.0.0, SVG Export Plug-In . SVG Version: 6.00 Build 0)  -->
<!DOCTYPE svg PUBLIC "-//W3C//DTD SVG 1.1//EN" "http://www.w3.org/Graphics/SVG/1.1/DTD/svg11.dtd">
<svg version="1.1" id="Layer_1" xmlns="http://www.w3.org/2000/svg" xmlns:xlink="http://www.w3.org/1999/xlink" x="0px" y="0px"
	 width="244.415px" height="47.357px" viewBox="0 0 244.415 47.357" enable-background="new 0 0 244.415 47.357"
	 xml:space="preserve">
<g>
	<path fill="#FFFFFF" d="M2.603,0.264h2.075c1.559,0,2.267,0.936,1.907,2.639C6.201,4.725,4.833,5.505,3.143,5.505H2.387
		L1.667,8.899h-0.9L2.603,0.264z M3.55,4.749c1.043,0,1.883-0.624,2.135-1.835c0.288-1.355-0.216-1.895-1.283-1.895H3.346
		l-0.792,3.73H3.55z"/>
	<path fill="#FFFFFF" d="M9.143,8.899h-0.9l0.78-3.682c0.228-1.055,0.324-1.931,0.336-2.734h0.875l-0.06,1.223
		c0.647-0.755,1.319-1.355,2.279-1.355c1.199,0,1.235,1.175,1.031,2.147h-0.899c0.084-0.48,0.348-1.392-0.336-1.392
		c-0.66,0-2.099,0.983-2.542,3.119L9.143,8.899z"/>
	<path fill="#FFFFFF" d="M16.139,5.924c-0.336,1.763,0.336,2.351,1.319,2.351c0.708,0,1.487-0.324,2.147-0.684l0.216,0.803
		c-0.875,0.36-1.703,0.636-2.591,0.636c-1.895,0-2.303-1.631-1.955-3.298c0.36-1.679,1.5-3.382,3.418-3.382
		c2.135,0,1.943,2.387,1.811,3.082l-0.096,0.492H16.139z M19.665,5.169c0.192-1.055-0.192-2.063-1.199-2.063
		s-1.667,0.768-2.183,2.063H19.665z"/>
	<path fill="#FFFFFF" d="M27.008,3.826c-0.432-0.36-0.912-0.72-1.559-0.72c-0.54,0-1.127,0.396-1.259,0.972
		c-0.132,0.624,0.552,0.936,1.007,1.115c0.923,0.372,1.895,0.792,1.619,2.063c-0.228,1.055-1.331,1.775-2.327,1.775
		c-0.972,0-1.835-0.479-2.411-1.115l0.647-0.72c0.396,0.54,1.104,1.08,1.859,1.08c0.6,0,1.188-0.336,1.319-0.983
		c0.18-0.84-0.443-1.067-1.043-1.319c-0.839-0.348-1.799-0.78-1.559-1.931c0.204-0.936,1.224-1.691,2.339-1.691
		c0.804,0,1.379,0.288,1.919,0.744L27.008,3.826z"/>
	<path fill="#FFFFFF" d="M32.469,3.238h-1.823l0.168-0.755h2.723l-1.368,6.417H31.27L32.469,3.238z M34.16,0.852
		c-0.096,0.432-0.504,0.755-0.923,0.755c-0.42,0-0.684-0.324-0.588-0.755c0.084-0.432,0.492-0.756,0.912-0.756
		C33.98,0.096,34.244,0.419,34.16,0.852z"/>
	<path fill="#FFFFFF" d="M40.4,9.031l-0.048-0.72c-0.636,0.48-0.972,0.72-1.715,0.72c-1.127,0-2.387-0.863-1.847-3.382
		c0.516-2.447,2.254-3.298,3.298-3.298c0.54,0,0.888,0.132,1.271,0.372L41.947,0h0.9l-1.403,6.608
		C41.276,7.4,41.18,8.191,41.276,8.923L40.4,9.031z M41.168,3.634c-0.288-0.288-0.636-0.528-1.091-0.528
		c-0.959,0-2.027,0.804-2.399,2.579c-0.444,2.087,0.54,2.591,1.14,2.591c0.695,0,1.235-0.516,1.607-1.104L41.168,3.634z"/>
	<path fill="#FFFFFF" d="M44.938,5.924c-0.336,1.763,0.336,2.351,1.319,2.351c0.708,0,1.487-0.324,2.147-0.684l0.216,0.803
		c-0.875,0.36-1.703,0.636-2.591,0.636c-1.895,0-2.303-1.631-1.955-3.298c0.36-1.679,1.5-3.382,3.418-3.382
		c2.135,0,1.943,2.387,1.811,3.082l-0.096,0.492H44.938z M48.463,5.169c0.192-1.055-0.192-2.063-1.199-2.063
		s-1.667,0.768-2.183,2.063H48.463z"/>
	<path fill="#FFFFFF" d="M51.79,8.899h-0.9l0.684-3.226c0.228-1.08,0.419-2.171,0.396-3.19h0.864l-0.048,1.175
		c0.612-0.755,1.559-1.307,2.459-1.307c1.019,0,1.343,0.936,1.115,2.027l-0.959,4.521H54.5l0.899-4.258
		c0.132-0.611,0.336-1.535-0.456-1.535c-0.852,0-2.111,0.864-2.591,3.119L51.79,8.899z"/>
	<path fill="#FFFFFF" d="M63.499,3.238h-2.291l-0.78,3.658c-0.132,0.624-0.276,1.379,0.54,1.379c0.684,0,1.224-0.564,1.595-1.127
		l0.815,0.216c-0.624,0.923-1.511,1.667-2.59,1.667c-1.043,0-1.595-0.503-1.188-2.422l0.708-3.371h-1.379l0.168-0.755h1.379
		l0.42-1.967h0.899l-0.419,1.967h2.291L63.499,3.238z"/>
	<path fill="#FFFFFF" d="M76.626,0.096c2.519,0,2.051,2.878,1.703,4.486c-0.24,1.151-0.875,4.485-3.61,4.485
		c-2.663,0-1.955-3.262-1.691-4.485C73.796,0.971,75.175,0.096,76.626,0.096z M77.43,4.582c0.168-0.792,0.912-3.73-0.959-3.73
		c-1.919,0-2.435,3.226-2.542,3.73c-0.204,0.983-0.852,3.729,0.947,3.729C75.775,8.311,76.759,7.711,77.43,4.582z"/>
	<path fill="#FFFFFF" d="M82.519,0l-0.576,2.71c0.504-0.24,0.912-0.36,1.439-0.36c1.031,0,2.435,0.839,1.919,3.286
		c-0.54,2.519-2.171,3.394-3.298,3.394c-0.744,0-0.983-0.252-1.415-0.731l-0.348,0.72l-0.828-0.108
		c0.42-0.756,0.648-1.571,0.816-2.387L81.62,0H82.519z M80.996,7.148c0.156,0.587,0.419,1.127,1.151,1.127
		c0.587,0,1.799-0.504,2.243-2.603c0.384-1.787-0.348-2.567-1.307-2.567c-0.444,0-0.912,0.228-1.332,0.516L80.996,7.148z"/>
	<path fill="#FFFFFF" d="M91.122,4.317c0.156-0.708-0.168-1.211-0.839-1.211c-0.564,0-1.151,0.264-1.715,0.48l-0.036-0.792
		c0.659-0.24,1.271-0.444,1.943-0.444c1.223,0,1.751,1.007,1.523,2.075L91.41,7.208c-0.12,0.587-0.167,1.187-0.096,1.739
		l-0.863,0.108l-0.06-0.803c-0.54,0.516-1.08,0.779-1.751,0.779c-1.224,0-1.703-0.959-1.463-2.099
		c0.264-1.235,1.247-2.315,2.542-2.315c0.48,0,0.899,0.144,1.271,0.312L91.122,4.317z M90.834,5.685
		c-0.348-0.168-0.732-0.312-1.164-0.312c-0.912,0-1.439,0.792-1.607,1.607c-0.132,0.6,0.036,1.295,0.731,1.295
		c0.695,0,1.235-0.588,1.727-1.104L90.834,5.685z"/>
	<path fill="#FFFFFF" d="M94.508,4.473c0.18-0.875,0.192-1.451,0.192-2.123h0.899l0.012,0.576c0.456-0.336,0.839-0.576,1.379-0.576
		c0.587,0,0.719,0.144,0.971,0.587c0.444-0.335,0.828-0.6,1.355-0.6c0.863,0,1.295,0.564,1.115,1.427l-1.091,5.133h-0.899
		l1.091-5.133c0.096-0.432-0.084-0.671-0.444-0.671c-0.408,0-0.828,0.336-1.091,0.671l-1.091,5.133h-0.9l1.08-5.061
		c0.072-0.336,0.06-0.732-0.348-0.732c-0.432,0-0.948,0.384-1.199,0.78l-1.068,5.013h-0.899L94.508,4.473z"/>
	<path fill="#FFFFFF" d="M105.521,4.317c0.156-0.708-0.168-1.211-0.839-1.211c-0.564,0-1.151,0.264-1.715,0.48l-0.036-0.792
		c0.659-0.24,1.271-0.444,1.943-0.444c1.223,0,1.751,1.007,1.523,2.075l-0.588,2.783c-0.12,0.587-0.167,1.187-0.096,1.739
		l-0.863,0.108l-0.06-0.803c-0.54,0.516-1.08,0.779-1.751,0.779c-1.224,0-1.703-0.959-1.463-2.099
		c0.264-1.235,1.247-2.315,2.542-2.315c0.48,0,0.899,0.144,1.271,0.312L105.521,4.317z M105.234,5.685
		c-0.348-0.168-0.732-0.312-1.164-0.312c-0.912,0-1.439,0.792-1.607,1.607c-0.132,0.6,0.036,1.295,0.731,1.295
		c0.695,0,1.235-0.588,1.727-1.104L105.234,5.685z"/>
	<path fill="#FFFFFF" d="M119.597,9.031l-0.048-0.72c-0.636,0.48-0.972,0.72-1.715,0.72c-1.127,0-2.387-0.863-1.847-3.382
		c0.516-2.447,2.255-3.298,3.298-3.298c0.54,0,0.888,0.132,1.271,0.372L121.144,0h0.9l-1.403,6.608
		c-0.168,0.792-0.264,1.583-0.168,2.314L119.597,9.031z M120.365,3.634c-0.288-0.288-0.636-0.528-1.091-0.528
		c-0.959,0-2.027,0.804-2.399,2.579c-0.444,2.087,0.54,2.591,1.14,2.591c0.695,0,1.235-0.516,1.607-1.104L120.365,3.634z"/>
	<path fill="#FFFFFF" d="M126.065,3.238h-1.823l0.168-0.755h2.723l-1.368,6.417h-0.899L126.065,3.238z M127.756,0.852
		c-0.096,0.432-0.504,0.755-0.924,0.755c-0.419,0-0.684-0.324-0.587-0.755c0.084-0.432,0.492-0.756,0.912-0.756
		C127.576,0.096,127.84,0.419,127.756,0.852z"/>
	<path fill="#FFFFFF" d="M135.004,3.826c-0.432-0.36-0.912-0.72-1.559-0.72c-0.54,0-1.127,0.396-1.259,0.972
		c-0.132,0.624,0.552,0.936,1.007,1.115c0.923,0.372,1.895,0.792,1.619,2.063c-0.228,1.055-1.331,1.775-2.327,1.775
		c-0.972,0-1.835-0.479-2.411-1.115l0.647-0.72c0.396,0.54,1.104,1.08,1.859,1.08c0.6,0,1.188-0.336,1.319-0.983
		c0.18-0.84-0.444-1.067-1.043-1.319c-0.839-0.348-1.799-0.78-1.559-1.931c0.204-0.936,1.224-1.691,2.339-1.691
		c0.804,0,1.379,0.288,1.919,0.744L135.004,3.826z"/>
	<path fill="#FFFFFF" d="M142.419,7.855c-0.792,0.696-1.535,1.175-2.53,1.175c-1.188,0-2.615-0.731-2.075-3.274
		c0.54-2.567,2.171-3.406,3.454-3.406c1.056,0,1.679,0.576,2.063,1.427l-0.888,0.516c-0.192-0.647-0.54-1.188-1.331-1.188
		c-0.912,0-1.979,0.672-2.387,2.567c-0.42,2.003,0.479,2.603,1.307,2.603c0.708,0,1.379-0.54,1.919-1.056L142.419,7.855z"/>
	<path fill="#FFFFFF" d="M149.5,2.482h0.899l-0.66,3.106c-0.24,1.115-0.456,2.219-0.432,3.31h-0.852l0.06-1.235
		c-0.576,0.708-1.571,1.367-2.398,1.367c-1.139,0-1.415-0.971-1.175-2.087l0.947-4.461h0.899l-0.899,4.198
		c-0.132,0.6-0.336,1.595,0.456,1.595c0.887,0,2.123-0.996,2.59-3.167L149.5,2.482z"/>
	<path fill="#FFFFFF" d="M156.603,3.826c-0.432-0.36-0.912-0.72-1.559-0.72c-0.54,0-1.127,0.396-1.259,0.972
		c-0.132,0.624,0.552,0.936,1.007,1.115c0.923,0.372,1.895,0.792,1.619,2.063c-0.228,1.055-1.331,1.775-2.327,1.775
		c-0.972,0-1.835-0.479-2.411-1.115l0.647-0.72c0.396,0.54,1.104,1.08,1.859,1.08c0.6,0,1.188-0.336,1.319-0.983
		c0.18-0.84-0.443-1.067-1.043-1.319c-0.839-0.348-1.799-0.78-1.559-1.931c0.204-0.936,1.224-1.691,2.339-1.691
		c0.804,0,1.379,0.288,1.919,0.744L156.603,3.826z"/>
	<path fill="#FFFFFF" d="M163.803,3.826c-0.432-0.36-0.912-0.72-1.559-0.72c-0.54,0-1.127,0.396-1.259,0.972
		c-0.132,0.624,0.552,0.936,1.007,1.115c0.923,0.372,1.895,0.792,1.619,2.063c-0.228,1.055-1.331,1.775-2.327,1.775
		c-0.972,0-1.835-0.479-2.411-1.115l0.647-0.72c0.396,0.54,1.104,1.08,1.859,1.08c0.6,0,1.188-0.336,1.319-0.983
		c0.18-0.84-0.444-1.067-1.043-1.319c-0.839-0.348-1.799-0.78-1.559-1.931c0.204-0.936,1.224-1.691,2.339-1.691
		c0.804,0,1.379,0.288,1.919,0.744L163.803,3.826z"/>
	<path fill="#FFFFFF" d="M167.333,5.924c-0.336,1.763,0.336,2.351,1.319,2.351c0.708,0,1.487-0.324,2.146-0.684l0.216,0.803
		c-0.875,0.36-1.703,0.636-2.591,0.636c-1.895,0-2.303-1.631-1.955-3.298c0.36-1.679,1.5-3.382,3.418-3.382
		c2.135,0,1.943,2.387,1.811,3.082l-0.096,0.492H167.333z M170.858,5.169c0.192-1.055-0.192-2.063-1.199-2.063
		s-1.667,0.768-2.183,2.063H170.858z"/>
	<path fill="#FFFFFF" d="M178.202,3.826c-0.432-0.36-0.912-0.72-1.559-0.72c-0.54,0-1.127,0.396-1.259,0.972
		c-0.132,0.624,0.552,0.936,1.007,1.115c0.923,0.372,1.895,0.792,1.619,2.063c-0.228,1.055-1.331,1.775-2.327,1.775
		c-0.972,0-1.835-0.479-2.411-1.115l0.647-0.72c0.396,0.54,1.104,1.08,1.859,1.08c0.6,0,1.188-0.336,1.319-0.983
		c0.18-0.84-0.444-1.067-1.043-1.319c-0.839-0.348-1.799-0.78-1.559-1.931c0.204-0.936,1.224-1.691,2.339-1.691
		c0.804,0,1.379,0.288,1.919,0.744L178.202,3.826z"/>
	<path fill="#FFFFFF" d="M192.602,3.826c-0.432-0.36-0.912-0.72-1.559-0.72c-0.54,0-1.127,0.396-1.259,0.972
		c-0.132,0.624,0.552,0.936,1.007,1.115c0.923,0.372,1.895,0.792,1.619,2.063c-0.228,1.055-1.331,1.775-2.327,1.775
		c-0.972,0-1.835-0.479-2.411-1.115l0.647-0.72c0.396,0.54,1.104,1.08,1.859,1.08c0.6,0,1.188-0.336,1.319-0.983
		c0.18-0.84-0.444-1.067-1.043-1.319c-0.839-0.348-1.799-0.78-1.559-1.931c0.204-0.936,1.224-1.691,2.339-1.691
		c0.804,0,1.379,0.288,1.919,0.744L192.602,3.826z"/>
	<path fill="#FFFFFF" d="M196.131,5.924c-0.336,1.763,0.336,2.351,1.319,2.351c0.708,0,1.487-0.324,2.146-0.684l0.216,0.803
		c-0.875,0.36-1.703,0.636-2.591,0.636c-1.895,0-2.303-1.631-1.955-3.298c0.36-1.679,1.5-3.382,3.418-3.382
		c2.135,0,1.943,2.387,1.811,3.082l-0.096,0.492H196.131z M199.657,5.169c0.192-1.055-0.192-2.063-1.199-2.063
		s-1.667,0.768-2.183,2.063H199.657z"/>
	<path fill="#FFFFFF" d="M207.217,7.855c-0.792,0.696-1.535,1.175-2.531,1.175c-1.187,0-2.614-0.731-2.075-3.274
		c0.54-2.567,2.171-3.406,3.454-3.406c1.056,0,1.679,0.576,2.063,1.427l-0.888,0.516c-0.192-0.647-0.54-1.188-1.331-1.188
		c-0.912,0-1.979,0.672-2.387,2.567c-0.42,2.003,0.479,2.603,1.307,2.603c0.708,0,1.379-0.54,1.919-1.056L207.217,7.855z"/>
	<path fill="#FFFFFF" d="M214.297,2.482h0.899l-0.66,3.106c-0.24,1.115-0.456,2.219-0.432,3.31h-0.852l0.06-1.235
		c-0.576,0.708-1.571,1.367-2.398,1.367c-1.14,0-1.415-0.971-1.175-2.087l0.947-4.461h0.899l-0.899,4.198
		c-0.132,0.6-0.335,1.595,0.456,1.595c0.887,0,2.123-0.996,2.59-3.167L214.297,2.482z"/>
	<path fill="#FFFFFF" d="M217.934,8.899h-0.899l0.78-3.682c0.228-1.055,0.324-1.931,0.336-2.734h0.875l-0.06,1.223
		c0.647-0.755,1.319-1.355,2.279-1.355c1.199,0,1.235,1.175,1.031,2.147h-0.899c0.084-0.48,0.348-1.392-0.336-1.392
		c-0.66,0-2.099,0.983-2.542,3.119L217.934,8.899z"/>
	<path fill="#FFFFFF" d="M226.861,3.238h-1.823l0.168-0.755h2.723l-1.368,6.417h-0.899L226.861,3.238z M228.552,0.852
		c-0.096,0.432-0.504,0.755-0.924,0.755c-0.419,0-0.684-0.324-0.587-0.755c0.084-0.432,0.492-0.756,0.912-0.756
		C228.372,0.096,228.636,0.419,228.552,0.852z"/>
	<path fill="#FFFFFF" d="M236.292,3.238h-2.291l-0.78,3.658c-0.132,0.624-0.276,1.379,0.54,1.379c0.684,0,1.224-0.564,1.595-1.127
		l0.815,0.216c-0.624,0.923-1.511,1.667-2.59,1.667c-1.043,0-1.595-0.503-1.188-2.422l0.708-3.371h-1.379l0.168-0.755h1.379
		l0.42-1.967h0.899l-0.419,1.967h2.291L236.292,3.238z"/>
	<path fill="#FFFFFF" d="M244.415,2.482l-3.658,6.021c-0.564,0.924-1.439,2.351-2.615,2.351c-0.828,0-1.259-0.636-1.331-1.392
		l0.839-0.396c0.06,0.384,0.18,1.031,0.66,1.031c0.504,0,0.948-0.695,1.199-1.079l0.624-0.972l-0.875-5.565h0.971l0.624,4.366
		l2.603-4.366H244.415z"/>
	<path fill="#FFFFFF" d="M2.495,21.07c0.648-0.48,0.983-0.72,1.727-0.72c1.127,0,2.399,0.863,1.859,3.382
		c-0.516,2.435-2.279,3.298-3.311,3.298c-0.527,0-0.887-0.132-1.295-0.372L0.9,29.357H0l1.392-6.512
		c0.18-0.815,0.3-1.631,0.204-2.411l0.864-0.108L2.495,21.07z M1.667,25.748c0.3,0.288,0.671,0.528,1.115,0.528
		c1.055,0,2.051-0.912,2.411-2.579c0.444-2.099-0.552-2.591-1.139-2.591c-0.732,0-1.235,0.528-1.631,1.116L1.667,25.748z"/>
	<path fill="#FFFFFF" d="M11.302,18.755H9.479L9.646,18h2.723l-1.895,8.899H9.575L11.302,18.755z"/>
	<path fill="#FFFFFF" d="M19.125,22.317c0.156-0.708-0.168-1.211-0.839-1.211c-0.564,0-1.151,0.264-1.715,0.48l-0.036-0.792
		c0.659-0.24,1.271-0.444,1.943-0.444c1.223,0,1.751,1.007,1.523,2.075l-0.588,2.783c-0.12,0.587-0.167,1.187-0.096,1.739
		l-0.863,0.108l-0.06-0.803c-0.54,0.516-1.08,0.779-1.751,0.779c-1.224,0-1.703-0.959-1.463-2.099
		c0.264-1.235,1.247-2.315,2.542-2.315c0.48,0,0.899,0.144,1.271,0.312L19.125,22.317z M18.837,23.685
		c-0.348-0.168-0.732-0.312-1.164-0.312c-0.912,0-1.439,0.792-1.607,1.607c-0.132,0.6,0.036,1.295,0.731,1.295
		c0.695,0,1.235-0.588,1.727-1.104L18.837,23.685z"/>
	<path fill="#FFFFFF" d="M22.991,26.899h-0.9l0.684-3.226c0.228-1.08,0.419-2.171,0.396-3.19h0.864l-0.048,1.175
		c0.612-0.755,1.559-1.307,2.459-1.307c1.019,0,1.343,0.936,1.115,2.027l-0.959,4.521h-0.899l0.899-4.258
		c0.132-0.611,0.336-1.535-0.456-1.535c-0.852,0-2.111,0.864-2.591,3.119L22.991,26.899z"/>
	<path fill="#FFFFFF" d="M34.208,21.826c-0.432-0.36-0.912-0.72-1.559-0.72c-0.54,0-1.127,0.396-1.259,0.972
		c-0.132,0.624,0.552,0.936,1.007,1.115c0.923,0.372,1.895,0.792,1.619,2.063c-0.228,1.055-1.331,1.775-2.327,1.775
		c-0.972,0-1.835-0.479-2.411-1.115l0.647-0.72c0.396,0.54,1.104,1.08,1.859,1.08c0.6,0,1.188-0.336,1.319-0.983
		c0.18-0.84-0.444-1.067-1.043-1.319c-0.839-0.348-1.799-0.78-1.559-1.931c0.204-0.936,1.224-1.691,2.339-1.691
		c0.804,0,1.379,0.288,1.919,0.744L34.208,21.826z"/>
	<path fill="#FFFFFF" d="M44.146,20.482h1.007l-0.3,4.81h0.024l1.619-3.238h0.875l0.228,3.238h0.024l1.763-4.81h1.007l-2.507,6.5
		h-0.959l-0.312-3.478l-1.763,3.478h-0.959L44.146,20.482z"/>
	<path fill="#FFFFFF" d="M54.068,21.238h-1.823l0.168-0.755h2.723l-1.368,6.417h-0.899L54.068,21.238z M55.759,18.852
		c-0.096,0.432-0.504,0.755-0.924,0.755c-0.419,0-0.684-0.324-0.587-0.755c0.084-0.432,0.492-0.756,0.912-0.756
		C55.579,18.096,55.843,18.419,55.759,18.852z"/>
	<path fill="#FFFFFF" d="M63.499,21.238h-2.291l-0.78,3.658c-0.132,0.624-0.276,1.379,0.54,1.379c0.684,0,1.224-0.564,1.595-1.127
		l0.815,0.216c-0.624,0.923-1.511,1.667-2.59,1.667c-1.043,0-1.595-0.503-1.188-2.422l0.708-3.371h-1.379l0.168-0.755h1.379
		l0.42-1.967h0.899l-0.419,1.967h2.291L63.499,21.238z"/>
	<path fill="#FFFFFF" d="M67.268,18h0.899l-0.731,3.406c0.588-0.611,1.367-1.055,2.159-1.055c0.768,0,1.595,0.24,1.043,2.866
		l-0.779,3.682h-0.899l0.803-3.754c0.12-0.588,0.432-2.039-0.384-2.039c-0.671,0-1.403,0.6-1.799,1.164
		c-0.504,0.72-0.636,1.439-0.804,2.243l-0.503,2.387h-0.9L67.268,18z"/>
	<path fill="#FFFFFF" d="M85.098,21.238h-2.291l-0.78,3.658c-0.132,0.624-0.276,1.379,0.54,1.379c0.684,0,1.224-0.564,1.595-1.127
		l0.816,0.216c-0.624,0.923-1.511,1.667-2.591,1.667c-1.043,0-1.595-0.503-1.188-2.422l0.708-3.371h-1.379l0.168-0.755h1.379
		l0.42-1.967h0.899l-0.419,1.967h2.291L85.098,21.238z"/>
	<path fill="#FFFFFF" d="M88.867,18h0.899l-0.731,3.406c0.588-0.611,1.367-1.055,2.159-1.055c0.768,0,1.595,0.24,1.043,2.866
		l-0.779,3.682h-0.899l0.803-3.754c0.12-0.588,0.432-2.039-0.384-2.039c-0.671,0-1.403,0.6-1.799,1.164
		c-0.504,0.72-0.636,1.439-0.804,2.243l-0.503,2.387h-0.9L88.867,18z"/>
	<path fill="#FFFFFF" d="M95.335,23.924c-0.336,1.763,0.336,2.351,1.319,2.351c0.708,0,1.487-0.324,2.146-0.684l0.216,0.803
		c-0.875,0.36-1.703,0.636-2.591,0.636c-1.895,0-2.303-1.631-1.955-3.298c0.36-1.679,1.5-3.382,3.418-3.382
		c2.135,0,1.943,2.387,1.811,3.082l-0.096,0.492H95.335z M98.861,23.169c0.192-1.055-0.192-2.063-1.199-2.063
		s-1.667,0.768-2.183,2.063H98.861z"/>
	<path fill="#FFFFFF" d="M102.188,26.899h-0.9l0.684-3.226c0.228-1.08,0.42-2.171,0.396-3.19h0.864l-0.048,1.175
		c0.612-0.755,1.559-1.307,2.459-1.307c1.019,0,1.343,0.936,1.115,2.027l-0.959,4.521h-0.899l0.899-4.258
		c0.132-0.611,0.336-1.535-0.456-1.535c-0.852,0-2.111,0.864-2.591,3.119L102.188,26.899z"/>
	<path fill="#FFFFFF" d="M110.035,22.977l0.156-0.755h3.119l-0.156,0.755H110.035z"/>
	<path fill="#FFFFFF" d="M117.486,22.042h2.998l0.804-3.778h0.899l-1.835,8.635h-0.899l0.875-4.102h-2.998l-0.876,4.102h-0.899
		l1.835-8.635h0.899L117.486,22.042z"/>
	<path fill="#FFFFFF" d="M123.378,23.697c0.528-2.483,2.027-3.346,3.25-3.346c2.267,0,2.063,2.303,1.847,3.346
		c-0.528,2.482-2.027,3.334-3.262,3.334C124.098,27.031,122.827,26.287,123.378,23.697z M127.576,23.697
		c0.228-1.104,0.3-2.591-1.103-2.591c-1.403,0-1.967,1.487-2.195,2.591c-0.24,1.104-0.312,2.579,1.091,2.579
		S127.336,24.8,127.576,23.697z"/>
	<path fill="#FFFFFF" d="M130.506,22.473c0.18-0.875,0.192-1.451,0.192-2.123h0.899l0.012,0.576
		c0.456-0.336,0.839-0.576,1.379-0.576c0.587,0,0.719,0.144,0.971,0.587c0.444-0.335,0.828-0.6,1.355-0.6
		c0.863,0,1.295,0.564,1.115,1.427l-1.091,5.133h-0.899l1.091-5.133c0.096-0.432-0.084-0.671-0.444-0.671
		c-0.408,0-0.828,0.336-1.091,0.671l-1.091,5.133h-0.9l1.08-5.061c0.072-0.336,0.06-0.732-0.348-0.732
		c-0.432,0-0.948,0.384-1.2,0.78l-1.067,5.013h-0.899L130.506,22.473z"/>
	<path fill="#FFFFFF" d="M138.534,23.924c-0.336,1.763,0.336,2.351,1.319,2.351c0.708,0,1.487-0.324,2.146-0.684l0.216,0.803
		c-0.875,0.36-1.703,0.636-2.591,0.636c-1.895,0-2.303-1.631-1.955-3.298c0.36-1.679,1.5-3.382,3.418-3.382
		c2.135,0,1.943,2.387,1.811,3.082l-0.096,0.492H138.534z M142.06,23.169c0.192-1.055-0.192-2.063-1.199-2.063
		s-1.667,0.768-2.183,2.063H142.06z"/>
	<path fill="#FFFFFF" d="M148.096,18.755h-1.823L146.441,18h2.723l-1.895,8.899h-0.899L148.096,18.755z"/>
	<path fill="#FFFFFF" d="M155.919,22.317c0.156-0.708-0.168-1.211-0.839-1.211c-0.564,0-1.151,0.264-1.715,0.48l-0.036-0.792
		c0.66-0.24,1.271-0.444,1.943-0.444c1.223,0,1.751,1.007,1.523,2.075l-0.587,2.783c-0.12,0.587-0.168,1.187-0.096,1.739
		l-0.864,0.108l-0.06-0.803c-0.54,0.516-1.08,0.779-1.751,0.779c-1.224,0-1.703-0.959-1.463-2.099
		c0.264-1.235,1.247-2.315,2.542-2.315c0.48,0,0.899,0.144,1.271,0.312L155.919,22.317z M155.631,23.685
		c-0.348-0.168-0.731-0.312-1.163-0.312c-0.912,0-1.439,0.792-1.607,1.607c-0.132,0.6,0.036,1.295,0.731,1.295
		s1.235-0.588,1.727-1.104L155.631,23.685z"/>
	<path fill="#FFFFFF" d="M159.785,26.899h-0.9l0.684-3.226c0.228-1.08,0.42-2.171,0.396-3.19h0.864l-0.048,1.175
		c0.612-0.755,1.559-1.307,2.459-1.307c1.019,0,1.343,0.936,1.115,2.027l-0.959,4.521h-0.899l0.899-4.258
		c0.132-0.611,0.336-1.535-0.456-1.535c-0.852,0-2.111,0.864-2.591,3.119L159.785,26.899z"/>
	<path fill="#FFFFFF" d="M169.995,27.031l-0.048-0.72c-0.636,0.48-0.972,0.72-1.715,0.72c-1.127,0-2.387-0.863-1.847-3.382
		c0.516-2.447,2.254-3.298,3.298-3.298c0.54,0,0.888,0.132,1.271,0.372L171.542,18h0.9l-1.403,6.608
		c-0.168,0.792-0.264,1.583-0.168,2.314L169.995,27.031z M170.763,21.634c-0.288-0.288-0.636-0.528-1.091-0.528
		c-0.959,0-2.027,0.804-2.399,2.579c-0.444,2.087,0.54,2.591,1.14,2.591c0.695,0,1.235-0.516,1.607-1.104L170.763,21.634z"/>
	<path fill="#FFFFFF" d="M186.133,19.823c-0.419-0.468-0.911-0.971-1.655-0.971c-0.768,0-1.511,0.527-1.679,1.319
		c-0.096,0.456-0.096,0.864,0.912,1.571l0.6,0.42c1.391,0.971,1.715,1.427,1.499,2.435c-0.336,1.547-1.559,2.471-3.07,2.471
		c-1.115,0-1.823-0.54-2.314-1.403l0.815-0.552c0.276,0.672,0.828,1.199,1.655,1.199c0.9,0,1.787-0.671,1.991-1.595
		c0.144-0.696,0.132-0.924-1.188-1.847l-0.671-0.468c-0.732-0.516-1.367-1.091-1.14-2.171c0.288-1.355,1.487-2.135,2.783-2.135
		c0.899,0,1.631,0.48,2.146,1.08L186.133,19.823z"/>
	<path fill="#FFFFFF" d="M188.932,23.924c-0.336,1.763,0.336,2.351,1.319,2.351c0.708,0,1.487-0.324,2.147-0.684l0.216,0.803
		c-0.875,0.36-1.703,0.636-2.591,0.636c-1.895,0-2.303-1.631-1.955-3.298c0.36-1.679,1.5-3.382,3.418-3.382
		c2.135,0,1.943,2.387,1.811,3.082l-0.096,0.492H188.932z M192.458,23.169c0.192-1.055-0.192-2.063-1.199-2.063
		s-1.667,0.768-2.183,2.063H192.458z"/>
	<path fill="#FFFFFF" d="M200.017,25.855c-0.792,0.696-1.535,1.175-2.53,1.175c-1.188,0-2.615-0.731-2.075-3.274
		c0.54-2.567,2.171-3.406,3.454-3.406c1.056,0,1.679,0.576,2.063,1.427l-0.888,0.516c-0.192-0.647-0.54-1.188-1.331-1.188
		c-0.912,0-1.979,0.672-2.387,2.567c-0.42,2.003,0.479,2.603,1.307,2.603c0.708,0,1.379-0.54,1.919-1.056L200.017,25.855z"/>
	<path fill="#FFFFFF" d="M207.097,20.482h0.899l-0.66,3.106c-0.24,1.115-0.456,2.219-0.432,3.31h-0.852l0.06-1.235
		c-0.576,0.708-1.571,1.367-2.398,1.367c-1.139,0-1.415-0.971-1.175-2.087l0.947-4.461h0.899l-0.899,4.198
		c-0.132,0.6-0.336,1.595,0.456,1.595c0.887,0,2.123-0.996,2.59-3.167L207.097,20.482z"/>
	<path fill="#FFFFFF" d="M210.735,26.899h-0.9l0.78-3.682c0.228-1.055,0.324-1.931,0.336-2.734h0.875l-0.06,1.223
		c0.647-0.755,1.319-1.355,2.279-1.355c1.199,0,1.235,1.175,1.031,2.147h-0.899c0.084-0.48,0.348-1.392-0.336-1.392
		c-0.66,0-2.099,0.983-2.542,3.119L210.735,26.899z"/>
	<path fill="#FFFFFF" d="M219.662,21.238h-1.823l0.168-0.755h2.723l-1.368,6.417h-0.899L219.662,21.238z M221.353,18.852
		c-0.096,0.432-0.504,0.755-0.923,0.755c-0.42,0-0.684-0.324-0.588-0.755c0.084-0.432,0.492-0.756,0.912-0.756
		C221.172,18.096,221.437,18.419,221.353,18.852z"/>
	<path fill="#FFFFFF" d="M229.092,21.238h-2.291l-0.78,3.658c-0.132,0.624-0.276,1.379,0.54,1.379c0.684,0,1.224-0.564,1.595-1.127
		l0.816,0.216c-0.624,0.923-1.511,1.667-2.591,1.667c-1.043,0-1.595-0.503-1.188-2.422l0.708-3.371h-1.379l0.168-0.755h1.379
		l0.42-1.967h0.899l-0.419,1.967h2.291L229.092,21.238z"/>
	<path fill="#FFFFFF" d="M237.215,20.482l-3.658,6.021c-0.564,0.924-1.439,2.351-2.615,2.351c-0.828,0-1.259-0.636-1.331-1.392
		l0.839-0.396c0.06,0.384,0.18,1.031,0.66,1.031c0.504,0,0.948-0.695,1.199-1.079l0.624-0.972l-0.875-5.565h0.971l0.624,4.366
		l2.603-4.366H237.215z"/>
	<path fill="#FFFFFF" d="M5.625,43.855c-0.792,0.696-1.535,1.175-2.531,1.175c-1.187,0-2.614-0.731-2.075-3.274
		c0.54-2.567,2.171-3.406,3.454-3.406c1.056,0,1.679,0.576,2.063,1.427l-0.888,0.516c-0.192-0.647-0.54-1.188-1.331-1.188
		c-0.912,0-1.979,0.672-2.387,2.567c-0.42,2.003,0.479,2.603,1.307,2.603c0.708,0,1.379-0.54,1.919-1.056L5.625,43.855z"/>
	<path fill="#FFFFFF" d="M9.67,36h0.899l-0.731,3.406c0.588-0.611,1.367-1.055,2.159-1.055c0.768,0,1.595,0.24,1.043,2.866
		l-0.779,3.682h-0.899l0.803-3.754c0.12-0.588,0.432-2.039-0.384-2.039c-0.671,0-1.403,0.6-1.799,1.164
		c-0.504,0.72-0.636,1.439-0.804,2.243l-0.503,2.387h-0.9L9.67,36z"/>
	<path fill="#FFFFFF" d="M18.07,39.238h-1.823l0.168-0.755h2.723l-1.368,6.417H16.87L18.07,39.238z M19.761,36.852
		c-0.096,0.432-0.504,0.755-0.923,0.755c-0.42,0-0.684-0.324-0.588-0.755c0.084-0.432,0.492-0.756,0.912-0.756
		C19.581,36.096,19.845,36.419,19.761,36.852z"/>
	<path fill="#FFFFFF" d="M23.338,41.924c-0.336,1.763,0.336,2.351,1.319,2.351c0.708,0,1.487-0.324,2.146-0.684l0.216,0.803
		c-0.875,0.36-1.703,0.636-2.591,0.636c-1.895,0-2.303-1.631-1.955-3.298c0.36-1.679,1.5-3.382,3.418-3.382
		c2.135,0,1.943,2.387,1.811,3.082l-0.096,0.492H23.338z M26.864,41.169c0.192-1.055-0.192-2.063-1.199-2.063
		s-1.667,0.768-2.183,2.063H26.864z"/>
	<path fill="#FFFFFF" d="M35.959,37.451c-0.456-0.216-0.947-0.6-1.499-0.6c-0.792,0-1.248,0.492-1.427,1.319l-0.156,0.72h2.062
		l-0.156,0.756h-2.063l-1.115,5.253h-0.899l1.115-5.253h-1.595l0.156-0.756h1.595l0.132-0.611c0.324-1.523,1.499-2.183,2.446-2.183
		c0.588,0,1.116,0.204,1.595,0.444L35.959,37.451z"/>
	<path fill="#FFFFFF" d="M47.336,36.264h2.495l-1.175,5.553c-0.228,1.068-0.671,3.25-3.142,3.25c-1.403,0-2.135-0.792-1.727-2.663
		l0.264-1.211h0.9l-0.336,1.547c-0.216,0.995,0.144,1.571,1.031,1.571c1.031,0,1.703-0.587,1.967-1.823l1.164-5.469H47.18
		L47.336,36.264z"/>
	<path fill="#FFFFFF" d="M55.124,40.317c0.156-0.708-0.168-1.211-0.839-1.211c-0.564,0-1.151,0.264-1.715,0.48l-0.036-0.792
		c0.66-0.24,1.271-0.444,1.943-0.444c1.223,0,1.751,1.007,1.523,2.075l-0.587,2.783c-0.12,0.587-0.168,1.187-0.096,1.739
		l-0.864,0.108l-0.06-0.803c-0.54,0.516-1.08,0.779-1.751,0.779c-1.224,0-1.703-0.959-1.463-2.099
		c0.264-1.235,1.247-2.315,2.542-2.315c0.48,0,0.899,0.144,1.271,0.312L55.124,40.317z M54.835,41.685
		c-0.348-0.168-0.731-0.312-1.163-0.312c-0.912,0-1.439,0.792-1.607,1.607c-0.132,0.6,0.036,1.295,0.731,1.295
		s1.235-0.588,1.727-1.104L54.835,41.685z"/>
	<path fill="#FFFFFF" d="M58.989,44.899h-0.9l0.684-3.226c0.228-1.08,0.42-2.171,0.396-3.19h0.864l-0.048,1.175
		c0.612-0.755,1.559-1.307,2.459-1.307c1.019,0,1.343,0.936,1.115,2.027l-0.959,4.521H61.7l0.899-4.258
		c0.132-0.611,0.336-1.535-0.456-1.535c-0.852,0-2.111,0.864-2.591,3.119L58.989,44.899z"/>
	<path fill="#FFFFFF" d="M66.537,41.924c-0.336,1.763,0.336,2.351,1.319,2.351c0.708,0,1.487-0.324,2.146-0.684l0.216,0.803
		c-0.875,0.36-1.703,0.636-2.591,0.636c-1.895,0-2.303-1.631-1.955-3.298c0.36-1.679,1.5-3.382,3.418-3.382
		c2.135,0,1.943,2.387,1.811,3.082l-0.096,0.492H66.537z M70.062,41.169c0.192-1.055-0.192-2.063-1.199-2.063
		s-1.667,0.768-2.183,2.063H70.062z"/>
	<path fill="#FFFFFF" d="M77.898,39.238h-2.291l-0.78,3.658c-0.132,0.624-0.276,1.379,0.54,1.379c0.684,0,1.224-0.564,1.595-1.127
		l0.815,0.216c-0.624,0.923-1.511,1.667-2.59,1.667c-1.043,0-1.595-0.503-1.188-2.422l0.708-3.371h-1.379l0.168-0.755h1.379
		l0.42-1.967h0.899l-0.419,1.967h2.291L77.898,39.238z"/>
	<path fill="#FFFFFF" d="M88.771,36.264h1.043l1.259,6.453h0.036l1.368-6.453h0.899l-1.847,8.719h-0.852l-1.355-6.968l-0.024,0.024
		l-1.463,6.86h-0.899L88.771,36.264z"/>
	<path fill="#FFFFFF" d="M98.322,40.317c0.156-0.708-0.168-1.211-0.839-1.211c-0.564,0-1.151,0.264-1.715,0.48l-0.036-0.792
		c0.66-0.24,1.271-0.444,1.943-0.444c1.223,0,1.751,1.007,1.523,2.075l-0.587,2.783c-0.12,0.587-0.168,1.187-0.096,1.739
		l-0.864,0.108l-0.06-0.803c-0.54,0.516-1.08,0.779-1.751,0.779c-1.224,0-1.703-0.959-1.463-2.099
		c0.264-1.235,1.247-2.315,2.542-2.315c0.48,0,0.899,0.144,1.271,0.312L98.322,40.317z M98.034,41.685
		c-0.348-0.168-0.731-0.312-1.163-0.312c-0.912,0-1.439,0.792-1.607,1.607c-0.132,0.6,0.036,1.295,0.731,1.295
		s1.235-0.588,1.727-1.104L98.034,41.685z"/>
	<path fill="#FFFFFF" d="M103.291,39.07c0.648-0.48,0.983-0.72,1.727-0.72c1.127,0,2.399,0.863,1.859,3.382
		c-0.516,2.435-2.279,3.298-3.311,3.298c-0.527,0-0.887-0.132-1.295-0.372l-0.576,2.698h-0.9l1.392-6.512
		c0.18-0.815,0.3-1.631,0.204-2.411l0.864-0.108L103.291,39.07z M102.463,43.748c0.3,0.288,0.671,0.528,1.115,0.528
		c1.055,0,2.051-0.912,2.411-2.579c0.444-2.099-0.552-2.591-1.139-2.591c-0.732,0-1.235,0.528-1.631,1.116L102.463,43.748z"/>
	<path fill="#FFFFFF" d="M108.979,41.697c0.528-2.483,2.027-3.346,3.25-3.346c2.267,0,2.063,2.303,1.847,3.346
		c-0.528,2.482-2.027,3.334-3.262,3.334C109.699,45.031,108.428,44.287,108.979,41.697z M113.177,41.697
		c0.228-1.104,0.3-2.591-1.103-2.591c-1.403,0-1.967,1.487-2.195,2.591c-0.24,1.104-0.312,2.579,1.091,2.579
		S112.937,42.8,113.177,41.697z"/>
	<path fill="#FFFFFF" d="M119.297,36.755h-1.823L117.642,36h2.723l-1.895,8.899h-0.899L119.297,36.755z"/>
	<path fill="#FFFFFF" d="M126.065,39.238h-1.823l0.168-0.755h2.723l-1.368,6.417h-0.899L126.065,39.238z M127.756,36.852
		c-0.096,0.432-0.504,0.755-0.924,0.755c-0.419,0-0.684-0.324-0.587-0.755c0.084-0.432,0.492-0.756,0.912-0.756
		C127.576,36.096,127.84,36.419,127.756,36.852z"/>
	<path fill="#FFFFFF" d="M135.496,39.238h-2.291l-0.78,3.658c-0.132,0.624-0.276,1.379,0.54,1.379c0.684,0,1.224-0.564,1.595-1.127
		l0.815,0.216c-0.624,0.923-1.511,1.667-2.59,1.667c-1.043,0-1.595-0.503-1.188-2.422l0.708-3.371h-1.379l0.168-0.755h1.379
		l0.42-1.967h0.899l-0.419,1.967h2.291L135.496,39.238z"/>
	<path fill="#FFFFFF" d="M141.52,40.317c0.156-0.708-0.168-1.211-0.839-1.211c-0.564,0-1.151,0.264-1.715,0.48l-0.036-0.792
		c0.66-0.24,1.271-0.444,1.943-0.444c1.223,0,1.751,1.007,1.523,2.075l-0.587,2.783c-0.12,0.587-0.168,1.187-0.096,1.739
		l-0.864,0.108l-0.06-0.803c-0.54,0.516-1.08,0.779-1.751,0.779c-1.224,0-1.703-0.959-1.463-2.099
		c0.264-1.235,1.247-2.315,2.542-2.315c0.48,0,0.899,0.144,1.271,0.312L141.52,40.317z M141.232,41.685
		c-0.348-0.168-0.731-0.312-1.163-0.312c-0.912,0-1.439,0.792-1.607,1.607c-0.132,0.6,0.036,1.295,0.731,1.295
		s1.235-0.588,1.727-1.104L141.232,41.685z"/>
	<path fill="#FFFFFF" d="M145.386,44.899h-0.9l0.684-3.226c0.228-1.08,0.42-2.171,0.396-3.19h0.864l-0.048,1.175
		c0.612-0.755,1.559-1.307,2.459-1.307c1.019,0,1.343,0.936,1.115,2.027l-0.959,4.521h-0.899l0.899-4.258
		c0.132-0.611,0.336-1.535-0.456-1.535c-0.852,0-2.111,0.864-2.591,3.119L145.386,44.899z"/>
	<path fill="#FFFFFF" d="M152.177,41.697c0.528-2.483,2.027-3.346,3.25-3.346c2.267,0,2.063,2.303,1.847,3.346
		c-0.528,2.482-2.027,3.334-3.262,3.334C152.897,45.031,151.626,44.287,152.177,41.697z M156.375,41.697
		c0.228-1.104,0.3-2.591-1.103-2.591c-1.403,0-1.967,1.487-2.195,2.591c-0.24,1.104-0.312,2.579,1.091,2.579
		S156.135,42.8,156.375,41.697z"/>
	<path fill="#FFFFFF" d="M161.524,43.208c0.516,0,0.875,0.396,0.768,0.923c-0.12,0.528-0.647,0.936-1.163,0.936
		c-0.528,0-0.888-0.408-0.768-0.936C160.469,43.604,161.008,43.208,161.524,43.208z"/>
</g>
</svg>
