<?xml version="1.0" encoding="utf-8"?>
<!-- Generator: Adobe Illustrator 17.0.0, SVG Export Plug-In . SVG Version: 6.00 Build 0)  -->
<!DOCTYPE svg PUBLIC "-//W3C//DTD SVG 1.1//EN" "http://www.w3.org/Graphics/SVG/1.1/DTD/svg11.dtd">
<svg version="1.1" id="Layer_1" xmlns="http://www.w3.org/2000/svg" xmlns:xlink="http://www.w3.org/1999/xlink" x="0px" y="0px"
	 width="250.205px" height="10.914px" viewBox="-84.966 -55.598 250.205 10.914"
	 enable-background="new -84.966 -55.598 250.205 10.914" xml:space="preserve">
<g>
	<path fill="#B3B3B3" d="M-83.131-55.274h2.075c1.559,0,2.267,0.936,1.907,2.639c-0.384,1.823-1.751,2.603-3.442,2.603h-0.756
		l-0.719,3.394h-0.9L-83.131-55.274z M-82.183-50.789c1.043,0,1.883-0.624,2.135-1.835c0.288-1.355-0.216-1.895-1.283-1.895h-1.056
		l-0.792,3.73H-82.183z"/>
	<path fill="#B3B3B3" d="M-76.063-55.538h0.899l-0.731,3.406c0.588-0.611,1.367-1.055,2.159-1.055c0.768,0,1.595,0.24,1.043,2.866
		l-0.779,3.682h-0.899l0.803-3.754c0.12-0.588,0.432-2.039-0.384-2.039c-0.671,0-1.403,0.6-1.799,1.164
		c-0.504,0.72-0.636,1.439-0.804,2.243l-0.503,2.387h-0.9L-76.063-55.538z"/>
	<path fill="#B3B3B3" d="M-70.35-49.841c0.527-2.483,2.027-3.346,3.25-3.346c2.267,0,2.063,2.303,1.847,3.346
		c-0.528,2.482-2.027,3.334-3.262,3.334C-69.631-46.507-70.902-47.251-70.35-49.841z M-66.153-49.841
		c0.228-1.104,0.3-2.591-1.103-2.591c-1.403,0-1.967,1.487-2.195,2.591c-0.24,1.104-0.312,2.579,1.091,2.579
		S-66.393-48.738-66.153-49.841z"/>
	<path fill="#B3B3B3" d="M-58.234-52.3h-2.291l-0.78,3.658c-0.132,0.624-0.276,1.379,0.54,1.379c0.684,0,1.224-0.564,1.595-1.127
		l0.816,0.216c-0.624,0.923-1.511,1.667-2.591,1.667c-1.043,0-1.595-0.503-1.188-2.422l0.708-3.37h-1.379l0.168-0.756h1.379
		l0.42-1.967h0.899l-0.419,1.967h2.291L-58.234-52.3z"/>
	<path fill="#B3B3B3" d="M-55.951-49.841c0.527-2.483,2.027-3.346,3.25-3.346c2.267,0,2.063,2.303,1.847,3.346
		c-0.528,2.482-2.027,3.334-3.262,3.334C-55.232-46.507-56.503-47.251-55.951-49.841z M-51.754-49.841
		c0.228-1.104,0.3-2.591-1.103-2.591c-1.403,0-1.967,1.487-2.195,2.591c-0.24,1.104-0.312,2.579,1.091,2.579
		S-51.993-48.738-51.754-49.841z"/>
	<path fill="#B3B3B3" d="M-39.213-55.538l-0.576,2.71c0.504-0.24,0.912-0.36,1.439-0.36c1.031,0,2.435,0.839,1.919,3.286
		c-0.54,2.519-2.171,3.394-3.298,3.394c-0.744,0-0.983-0.252-1.415-0.731l-0.348,0.72l-0.827-0.108
		c0.419-0.756,0.647-1.571,0.815-2.387l1.391-6.524H-39.213z M-40.736-48.39c0.156,0.587,0.419,1.127,1.151,1.127
		c0.587,0,1.799-0.504,2.243-2.603c0.384-1.787-0.348-2.567-1.307-2.567c-0.444,0-0.912,0.228-1.332,0.516L-40.736-48.39z"/>
	<path fill="#B3B3B3" d="M-28.511-53.056l-3.658,6.021c-0.564,0.924-1.439,2.351-2.615,2.351c-0.828,0-1.259-0.636-1.331-1.392
		l0.839-0.396c0.06,0.384,0.18,1.031,0.66,1.031c0.504,0,0.948-0.695,1.199-1.079l0.624-0.972l-0.875-5.565h0.971l0.624,4.366
		l2.603-4.366H-28.511z"/>
	<path fill="#B3B3B3" d="M-18.334-55.274h2.075c1.559,0,2.267,0.936,1.907,2.639c-0.384,1.823-1.751,2.603-3.442,2.603h-0.756
		l-0.719,3.394h-0.9L-18.334-55.274z M-17.386-50.789c1.043,0,1.883-0.624,2.135-1.835c0.288-1.355-0.216-1.895-1.283-1.895h-1.056
		l-0.792,3.73H-17.386z"/>
	<path fill="#B3B3B3" d="M-11.997-49.613c-0.336,1.763,0.336,2.351,1.319,2.351c0.708,0,1.487-0.324,2.147-0.684l0.216,0.803
		c-0.875,0.36-1.703,0.636-2.591,0.636c-1.895,0-2.303-1.631-1.955-3.298c0.36-1.679,1.5-3.382,3.418-3.382
		c2.135,0,1.943,2.387,1.811,3.082l-0.096,0.492H-11.997z M-8.471-50.369c0.192-1.055-0.192-2.063-1.199-2.063
		s-1.667,0.768-2.183,2.063H-8.471z"/>
	<path fill="#B3B3B3" d="M-0.636-52.3h-2.291l-0.78,3.658c-0.132,0.624-0.276,1.379,0.54,1.379c0.684,0,1.224-0.564,1.595-1.127
		l0.816,0.216c-0.624,0.923-1.511,1.667-2.591,1.667c-1.043,0-1.595-0.503-1.188-2.422l0.708-3.37h-1.379l0.168-0.756h1.379
		l0.42-1.967h0.899l-0.419,1.967h2.291L-0.636-52.3z"/>
	<path fill="#B3B3B3" d="M2.402-49.613c-0.336,1.763,0.336,2.351,1.319,2.351c0.708,0,1.487-0.324,2.147-0.684l0.216,0.803
		c-0.875,0.36-1.703,0.636-2.591,0.636c-1.895,0-2.303-1.631-1.955-3.298c0.36-1.679,1.5-3.382,3.418-3.382
		c2.135,0,1.943,2.387,1.811,3.082l-0.096,0.492H2.402z M5.928-50.369c0.192-1.055-0.192-2.063-1.199-2.063
		s-1.667,0.768-2.183,2.063H5.928z"/>
	<path fill="#B3B3B3" d="M21.203-53.715c-0.419-0.468-0.911-0.971-1.655-0.971c-0.768,0-1.511,0.527-1.679,1.319
		c-0.096,0.456-0.096,0.864,0.912,1.571l0.6,0.42c1.391,0.971,1.715,1.427,1.499,2.435c-0.336,1.547-1.559,2.471-3.07,2.471
		c-1.115,0-1.823-0.54-2.314-1.403l0.815-0.552c0.276,0.672,0.828,1.199,1.655,1.199c0.899,0,1.787-0.671,1.991-1.595
		c0.144-0.696,0.132-0.924-1.188-1.847l-0.671-0.468c-0.732-0.516-1.367-1.091-1.14-2.171c0.288-1.355,1.487-2.135,2.783-2.135
		c0.899,0,1.631,0.48,2.146,1.08L21.203-53.715z"/>
	<path fill="#B3B3B3" d="M23.245-49.841c0.528-2.483,2.027-3.346,3.25-3.346c2.267,0,2.063,2.303,1.847,3.346
		c-0.528,2.482-2.027,3.334-3.262,3.334C23.965-46.507,22.694-47.251,23.245-49.841z M27.443-49.841
		c0.228-1.104,0.3-2.591-1.103-2.591c-1.403,0-1.967,1.487-2.195,2.591c-0.24,1.104-0.312,2.579,1.091,2.579
		S27.203-48.738,27.443-49.841z"/>
	<path fill="#B3B3B3" d="M34.967-53.056h0.899l-0.66,3.106c-0.24,1.115-0.456,2.219-0.432,3.31h-0.852l0.06-1.235
		c-0.576,0.708-1.571,1.367-2.398,1.367c-1.139,0-1.415-0.971-1.175-2.087l0.947-4.461h0.899l-0.899,4.198
		c-0.132,0.6-0.336,1.595,0.456,1.595c0.887,0,2.123-0.996,2.59-3.167L34.967-53.056z"/>
	<path fill="#B3B3B3" d="M42.994-52.384l-4.749,4.989h3.826l-0.156,0.755h-4.989l0.144-0.66l4.761-5.001h-3.178l0.168-0.756h4.317
		L42.994-52.384z"/>
	<path fill="#B3B3B3" d="M48.587-51.221c0.156-0.708-0.168-1.211-0.839-1.211c-0.564,0-1.151,0.264-1.715,0.48l-0.036-0.792
		c0.659-0.24,1.271-0.444,1.943-0.444c1.223,0,1.751,1.007,1.523,2.075l-0.588,2.783c-0.12,0.587-0.167,1.187-0.096,1.739
		l-0.863,0.108l-0.06-0.803c-0.54,0.516-1.08,0.779-1.751,0.779c-1.224,0-1.703-0.959-1.463-2.099
		c0.264-1.235,1.247-2.315,2.542-2.315c0.48,0,0.899,0.144,1.271,0.312L48.587-51.221z M48.299-49.854
		c-0.348-0.168-0.732-0.312-1.164-0.312c-0.912,0-1.439,0.792-1.607,1.607c-0.132,0.6,0.036,1.295,0.731,1.295
		c0.695,0,1.235-0.588,1.727-1.104L48.299-49.854z"/>
	<path fill="#B3B3B3" d="M51.565-46.315l3.61-9.283h0.9l-3.61,9.283H51.565z"/>
	<path fill="#B3B3B3" d="M65.589-54.519H63.13l-1.679,7.88h-0.899l1.679-7.88H59.82l0.156-0.755h5.769L65.589-54.519z"/>
	<path fill="#B3B3B3" d="M67.931-55.538h0.899l-0.731,3.406c0.588-0.611,1.367-1.055,2.159-1.055c0.768,0,1.595,0.24,1.043,2.866
		l-0.779,3.682h-0.899l0.803-3.754c0.12-0.588,0.432-2.039-0.384-2.039c-0.671,0-1.403,0.6-1.799,1.164
		c-0.504,0.72-0.636,1.439-0.804,2.243l-0.503,2.387h-0.9L67.931-55.538z"/>
	<path fill="#B3B3B3" d="M74.399-49.613c-0.336,1.763,0.336,2.351,1.319,2.351c0.708,0,1.487-0.324,2.147-0.684l0.216,0.803
		c-0.875,0.36-1.703,0.636-2.591,0.636c-1.895,0-2.303-1.631-1.955-3.298c0.36-1.679,1.5-3.382,3.418-3.382
		c2.135,0,1.943,2.387,1.811,3.082l-0.096,0.492H74.399z M77.925-50.369c0.192-1.055-0.192-2.063-1.199-2.063
		s-1.667,0.768-2.183,2.063H77.925z"/>
	<path fill="#B3B3B3" d="M91.545-48.534h0.023l1.859-6.74H94.4l-2.507,8.719h-1.031l-0.3-3.742l-1.895,3.742h-0.996l1.127-8.719
		h0.971l-0.971,6.74h0.024l2.278-4.33L91.545-48.534z"/>
	<path fill="#B3B3B3" d="M96.731-55.538h0.899l-0.731,3.406c0.587-0.611,1.367-1.055,2.158-1.055c0.768,0,1.596,0.24,1.044,2.866
		l-0.78,3.682h-0.899l0.804-3.754c0.12-0.588,0.432-2.039-0.384-2.039c-0.672,0-1.403,0.6-1.799,1.164
		c-0.504,0.72-0.636,1.439-0.804,2.243l-0.504,2.387h-0.899L96.731-55.538z"/>
	<path fill="#B3B3B3" d="M105.13-52.3h-1.823l0.168-0.756h2.723l-1.367,6.417h-0.899L105.13-52.3z M106.821-54.687
		c-0.096,0.432-0.503,0.755-0.923,0.755s-0.684-0.324-0.588-0.755c0.084-0.432,0.492-0.756,0.911-0.756
		C106.641-55.442,106.905-55.119,106.821-54.687z"/>
	<path fill="#B3B3B3" d="M114.561-52.3h-2.291l-0.779,3.658c-0.132,0.624-0.275,1.379,0.54,1.379c0.684,0,1.223-0.564,1.595-1.127
		l0.815,0.216c-0.623,0.923-1.511,1.667-2.59,1.667c-1.044,0-1.596-0.503-1.188-2.422l0.707-3.37h-1.379l0.168-0.756h1.379
		l0.42-1.967h0.899l-0.42,1.967h2.291L114.561-52.3z"/>
	<path fill="#B3B3B3" d="M117.599-49.613c-0.335,1.763,0.336,2.351,1.319,2.351c0.708,0,1.487-0.324,2.147-0.684l0.216,0.803
		c-0.876,0.36-1.703,0.636-2.591,0.636c-1.895,0-2.303-1.631-1.955-3.298c0.36-1.679,1.499-3.382,3.418-3.382
		c2.135,0,1.943,2.387,1.812,3.082l-0.096,0.492H117.599z M121.125-50.369c0.192-1.055-0.191-2.063-1.199-2.063
		s-1.667,0.768-2.183,2.063H121.125z"/>
	<path fill="#B3B3B3" d="M132.551-51.497h2.999l0.804-3.778h0.899l-1.835,8.635h-0.899l0.875-4.102h-2.998l-0.876,4.102h-0.899
		l1.835-8.635h0.899L132.551-51.497z"/>
	<path fill="#B3B3B3" d="M138.445-49.841c0.527-2.483,2.026-3.346,3.25-3.346c2.267,0,2.062,2.303,1.847,3.346
		c-0.527,2.482-2.026,3.334-3.262,3.334C139.164-46.507,137.893-47.251,138.445-49.841z M142.642-49.841
		c0.229-1.104,0.3-2.591-1.104-2.591s-1.967,1.487-2.194,2.591c-0.24,1.104-0.312,2.579,1.091,2.579
		C141.838-47.263,142.403-48.738,142.642-49.841z"/>
	<path fill="#B3B3B3" d="M150.166-53.056h0.899l-0.66,3.106c-0.239,1.115-0.455,2.219-0.432,3.31h-0.852l0.061-1.235
		c-0.576,0.708-1.571,1.367-2.399,1.367c-1.139,0-1.415-0.971-1.175-2.087l0.947-4.461h0.899l-0.899,4.198
		c-0.132,0.6-0.336,1.595,0.456,1.595c0.888,0,2.123-0.996,2.591-3.167L150.166-53.056z"/>
	<path fill="#B3B3B3" d="M157.271-51.712c-0.433-0.36-0.912-0.72-1.56-0.72c-0.54,0-1.127,0.396-1.26,0.972
		c-0.132,0.624,0.552,0.936,1.008,1.115c0.924,0.372,1.896,0.792,1.619,2.063c-0.228,1.055-1.331,1.775-2.327,1.775
		c-0.971,0-1.835-0.479-2.41-1.115l0.647-0.72c0.396,0.54,1.104,1.08,1.859,1.08c0.6,0,1.188-0.336,1.319-0.983
		c0.18-0.84-0.444-1.067-1.044-1.319c-0.839-0.348-1.799-0.78-1.559-1.931c0.203-0.936,1.223-1.691,2.338-1.691
		c0.804,0,1.38,0.288,1.919,0.744L157.271-51.712z"/>
	<path fill="#B3B3B3" d="M160.8-49.613c-0.335,1.763,0.336,2.351,1.319,2.351c0.708,0,1.487-0.324,2.147-0.684l0.216,0.803
		c-0.876,0.36-1.703,0.636-2.591,0.636c-1.895,0-2.303-1.631-1.955-3.298c0.36-1.679,1.499-3.382,3.418-3.382
		c2.135,0,1.943,2.387,1.812,3.082l-0.096,0.492H160.8z M164.326-50.369c0.192-1.055-0.191-2.063-1.199-2.063
		s-1.667,0.768-2.183,2.063H164.326z"/>
</g>
</svg>
