<?xml version="1.0" encoding="utf-8"?>
<!-- Generator: Adobe Illustrator 17.0.0, SVG Export Plug-In . SVG Version: 6.00 Build 0)  -->
<!DOCTYPE svg PUBLIC "-//W3C//DTD SVG 1.1//EN" "http://www.w3.org/Graphics/SVG/1.1/DTD/svg11.dtd">
<svg version="1.1" id="Layer_1" xmlns="http://www.w3.org/2000/svg" xmlns:xlink="http://www.w3.org/1999/xlink" x="0px" y="0px"
	 width="65.803px" height="12.761px" viewBox="0 0 65.803 12.761" enable-background="new 0 0 65.803 12.761" xml:space="preserve">
<g>
	<path fill="#FFFFFF" d="M0,12.145v-0.7h8.404v0.7H0z"/>
	<path fill="#FFFFFF" d="M12.35,0.56h-2.185V0h2.843v10.394H12.35V0.56z"/>
	<path fill="#FFFFFF" d="M18.172,6.682c0-2.886,1.485-3.852,2.83-3.852c1.233,0,2.844,0.826,2.844,3.852
		c0,3.012-1.597,3.866-2.844,3.866S18.172,9.707,18.172,6.682z M23.188,6.682c0-1.443-0.364-3.292-2.186-3.292
		c-1.807,0-2.171,1.849-2.171,3.292c0,1.457,0.364,3.306,2.171,3.306C22.823,9.987,23.188,8.125,23.188,6.682z"/>
	<path fill="#FFFFFF" d="M31.125,10.548c-0.14-0.406-0.238-0.841-0.28-1.261c-0.518,0.742-1.064,1.261-2.031,1.261
		c-1.358,0-2.059-1.107-2.059-2.354c0-1.415,0.798-2.633,2.228-2.633c0.602,0,1.289,0.238,1.807,0.49
		c0.042-1.877-0.294-2.662-1.513-2.662c-0.645,0-1.19,0.224-1.779,0.49l-0.154-0.602c0.645-0.252,1.275-0.448,1.975-0.448
		c1.359,0,2.171,0.953,2.129,2.605L31.363,8.46c-0.014,0.714,0.168,1.387,0.364,2.003L31.125,10.548z M30.747,6.569
		c-0.462-0.238-1.022-0.448-1.611-0.448c-1.232,0-1.723,1.037-1.723,2.129c0,0.826,0.462,1.737,1.4,1.737
		c0.925,0,1.485-0.742,1.933-1.499V6.569z"/>
	<path fill="#FFFFFF" d="M40.211,7.788c0,0.911,0.07,1.807,0.336,2.675l-0.616,0.084l-0.266-1.219
		c-0.393,0.771-1.107,1.219-1.975,1.219c-1.247,0-2.872-1.023-2.872-3.908c0-2.97,1.891-3.81,2.914-3.81
		c0.658,0,1.316,0.224,1.821,0.63V0h0.658V7.788z M39.553,4.118C39.091,3.712,38.516,3.39,37.9,3.39
		c-0.84,0-2.423,0.574-2.423,3.292c0,2.563,1.387,3.306,2.227,3.306c0.939,0,1.541-0.687,1.849-1.485V4.118z"/>
	<path fill="#FFFFFF" d="M46.048,3.544h-2.157V2.983h2.815v7.41h-0.658V3.544z M47.098,0.84c0,0.406-0.336,0.729-0.742,0.729
		s-0.729-0.322-0.729-0.729s0.322-0.729,0.729-0.729S47.098,0.434,47.098,0.84z"/>
	<path fill="#FFFFFF" d="M52.753,10.394h-0.659V6.682c0-1.261-0.042-2.521-0.294-3.782h0.616l0.266,2.129h0.028
		c0.28-1.107,1.457-2.199,2.634-2.199c1.345,0,1.723,1.163,1.723,2.283v5.281h-0.658V5.421c0-0.854,0-2.031-1.148-2.031
		c-1.065,0-2.507,1.064-2.507,3.95V10.394z"/>
	<path fill="#FFFFFF" d="M61.139,11.36c0.434,0.519,1.135,0.841,1.821,0.841c0.827,0,1.891-0.603,1.891-2.465V8.825
		c-0.504,0.532-1.359,0.911-2.087,0.911c-1.765,0-2.563-1.765-2.563-3.306c0-1.708,0.7-3.6,2.717-3.6
		c0.827,0,1.387,0.364,2.017,0.854l0.196-0.854h0.672c-0.336,1.274-0.322,2.605-0.322,3.908v3.082c0,2.185-1.513,2.941-2.647,2.941
		c-0.771,0-1.639-0.448-2.157-0.995L61.139,11.36z M64.823,4.468C64.388,3.852,63.674,3.39,62.89,3.39
		c-1.527,0-2.031,1.653-2.031,2.914c0,2.339,1.359,2.872,1.961,2.872c0.756,0,1.611-0.476,2.003-1.135V4.468z"/>
</g>
</svg>
