<?xml version="1.0" encoding="utf-8"?>
<!-- Generator: Adobe Illustrator 15.1.0, SVG Export Plug-In . SVG Version: 6.00 Build 0)  -->
<!DOCTYPE svg PUBLIC "-//W3C//DTD SVG 1.1//EN" "http://www.w3.org/Graphics/SVG/1.1/DTD/svg11.dtd">
<svg version="1.1" id="Untitled-Page_x25_201" xmlns="http://www.w3.org/2000/svg" xmlns:xlink="http://www.w3.org/1999/xlink"
	 x="0px" y="0px" width="276px" height="37px" viewBox="0 0 276 37" enable-background="new 0 0 276 37" xml:space="preserve">
<path fill="none" d="z"/>
<g id="Layer_x25_201">
	<g id="byline">
		<path d="M3.038,10.88c0.99,0,1.98-0.585,1.98-1.935c0-1.2-0.75-2.265-2.46-2.265h-1.41v4.199L3.038,10.88L3.038,10.88L3.038,10.88
			z M1.148,5.735h1.305c1.005,0,2.1-0.735,2.1-2.024c0-1.785-1.5-1.74-2.19-1.74H1.148V5.735L1.148,5.735z M0.023,11.825v-10.8
			h2.265c1.245,0,3.39,0.15,3.39,2.73c0,1.034-0.54,1.83-1.425,2.324c1.23,0.601,1.89,1.41,1.89,2.806
			c0,1.574-1.14,2.939-3.03,2.939L0.023,11.825L0.023,11.825L0.023,11.825z"/>
		<path d="M13.703,1.025h1.245l-2.76,6.24v4.56h-1.125v-4.56l-2.76-6.24h1.245l2.085,4.89L13.703,1.025L13.703,1.025z"/>
		<path d="M28.208,10.88h1.38c1.56,0,2.595-0.435,2.595-4.454c0-4.141-1.185-4.455-2.625-4.455h-1.35V10.88L28.208,10.88z
			 M27.083,1.025h2.745c2.085,0,3.48,1.186,3.48,5.4c0,4.154-1.29,5.399-3.645,5.399h-2.58V1.025L27.083,1.025z"/>
		<path d="M37.553,7.7h2.745l-1.38-4.364L37.553,7.7L37.553,7.7z M42.743,11.825h-1.215l-0.96-3.18h-3.285l-0.96,3.18h-1.215
			l3.81-11.699L42.743,11.825L42.743,11.825z"/>
		<path d="M49.792,1.025h1.245L48.593,11.93h-1.545l-2.4-10.905h1.23l1.95,9.165h0.03L49.792,1.025L49.792,1.025z"/>
		<path d="M58.928,1.971h-1.47v8.909h1.47v0.945h-4.05V10.88h1.455V1.971h-1.455V1.026h4.05V1.971L58.928,1.971z"/>
		<path d="M64.207,10.88h1.38c1.56,0,2.595-0.435,2.595-4.454c0-4.141-1.185-4.455-2.625-4.455h-1.35V10.88L64.207,10.88z
			 M63.083,1.025h2.745c2.085,0,3.48,1.186,3.48,5.4c0,4.154-1.29,5.399-3.645,5.399h-2.58V1.025L63.083,1.025z"/>
		<path d="M82.461,5.78c0.78-0.09,2.625-1.965,3.675-4.89l1.11,0.585L86.361,2.96c-1.425,2.385-2.16,2.984-2.85,3.42l4.665,5.444
			h-1.5l-4.125-5.085h-0.09v5.085h-1.125v-10.8h1.125V5.78L82.461,5.78z"/>
		<path d="M95.887,1.025V8.99c0,2.04-1.53,3.045-2.985,3.045c-1.17,0-3-0.66-3-3.645V1.025h1.125V8.99c0,1.56,1.005,2.1,1.875,2.1
			c1.38,0,1.86-1.02,1.86-2.234v-7.83L95.887,1.025L95.887,1.025L95.887,1.025z"/>
		<path d="M104.257,2.976c-0.66-0.585-1.41-1.215-2.34-1.215c-0.96,0-1.74,0.66-1.74,1.649c0,0.57,0.105,1.08,1.56,1.965
			l0.855,0.525c1.98,1.215,2.52,1.785,2.52,3.045c0,1.935-1.29,3.09-3.18,3.09c-1.395,0-2.43-0.675-3.27-1.755l0.87-0.69
			c0.525,0.841,1.365,1.5,2.4,1.5c1.125,0,2.055-0.84,2.055-1.994c0-0.87-0.06-1.17-1.965-2.311L101.047,6.2
			c-1.065-0.63-1.995-1.364-1.995-2.715c0-1.694,1.29-2.67,2.91-2.67c1.125,0,2.16,0.601,2.97,1.351L104.257,2.976L104.257,2.976z"
			/>
		<path d="M109.027,5.75h3.75V1.025h1.125v10.8h-1.125v-5.13h-3.75v5.13h-1.125v-10.8h1.125V5.75L109.027,5.75z"/>
		<path d="M117.739,1.077h1.305l3.286,8.07h0.045v-8.07h1.125v10.905h-1.065l-3.54-8.715l-0.03,0.029v8.58h-1.125L117.739,1.077
			L117.739,1.077L117.739,1.077z"/>
		<path d="M132.709,2.023h-4.485v3.84h3.226v0.945h-3.226v4.124h4.591v0.945h-5.716v-10.8h5.61V2.023L132.709,2.023z"/>
		<path d="M138.168,6.448c1.529,0,2.43-0.78,2.43-2.37c0-1.439-0.6-2.055-2.385-2.055h-1.11v4.425H138.168L138.168,6.448z
			 M135.979,1.077h2.805c2.7,0,2.938,2.43,2.938,3.061c0,1.109-0.42,2.13-1.92,2.984l2.91,4.755h-1.365l-2.625-4.5
			c-0.541,0.016-1.081,0.016-1.62,0.03v4.47h-1.125L135.979,1.077L135.979,1.077L135.979,1.077z"/>
		<path d="M2.784,30.636c1.305,0,2.19-0.78,2.19-2.295c0-1.694-0.78-2.37-2.115-2.37h-1.32v4.666L2.784,30.636L2.784,30.636
			L2.784,30.636z M0.413,25.025h2.595c1.95,0,3.09,1.17,3.09,3.3c0,2.28-1.5,3.255-3.615,3.255H1.538v4.245H0.413V25.025
			L0.413,25.025L0.413,25.025z"/>
		<path d="M10.029,29.75h3.75v-4.725h1.125v10.8h-1.125v-5.13h-3.75v5.13H8.904v-10.8h1.125V29.75L10.029,29.75z"/>
		<path d="M23.093,30.426c0-0.99,0.15-4.665-2.19-4.665c-2.4,0-2.19,4.035-2.19,4.665c0,1.229-0.06,4.664,2.19,4.664
			C22.028,35.09,23.093,34.34,23.093,30.426L23.093,30.426z M20.903,24.814c3.15,0,3.314,3.601,3.314,5.608
			c0,1.438,0.105,5.609-3.314,5.609c-3.33,0-3.315-4.08-3.315-5.609C17.587,25.91,19.087,24.814,20.903,24.814L20.903,24.814z"/>
		<path d="M33.518,25.971h-3.075v9.854h-1.125v-9.854h-3.015v-0.945h7.215V25.971L33.518,25.971z"/>
		<path d="M41.093,30.426c0-0.99,0.15-4.665-2.19-4.665c-2.4,0-2.19,4.035-2.19,4.665c0,1.229-0.06,4.664,2.19,4.664
			C40.028,35.09,41.093,34.34,41.093,30.426L41.093,30.426z M38.903,24.814c3.15,0,3.314,3.601,3.314,5.608
			c0,1.438,0.105,5.609-3.314,5.609c-3.33,0-3.315-4.08-3.315-5.609C35.587,25.91,37.087,24.814,38.903,24.814L38.903,24.814z"/>
		<path d="M47.708,31.37v-0.944h3.675v5.609h-1.125v-1.051c-0.555,0.676-1.38,1.051-2.265,1.051c-0.87,0-3.255-0.15-3.255-5.37
			c0-4.274,1.305-5.851,3.405-5.851c1.83,0,2.685,1.291,2.715,2.971h-1.125c0.09-0.989-0.39-2.024-1.53-2.024
			c-2.25,0-2.34,3.136-2.34,4.739c0,1.5,0.075,4.59,2.19,4.59c1.05,0,2.205-0.84,2.205-2.999V31.37H47.708L47.708,31.37z"/>
		<path d="M56.557,30.396c1.53,0,2.43-0.78,2.43-2.371c0-1.438-0.6-2.057-2.385-2.057h-1.11v4.428H56.557L56.557,30.396z
			 M54.368,25.025h2.805c2.7,0,2.939,2.43,2.939,3.061c0,1.109-0.42,2.13-1.92,2.984l2.91,4.755h-1.365l-2.625-4.5
			c-0.54,0.016-1.08,0.016-1.62,0.03v4.47h-1.125L54.368,25.025L54.368,25.025L54.368,25.025z"/>
		<path d="M64.553,31.7h2.745l-1.38-4.364L64.553,31.7L64.553,31.7z M69.743,35.825h-1.215l-0.96-3.181h-3.285l-0.96,3.181h-1.215
			l3.81-11.699L69.743,35.825L69.743,35.825z"/>
		<path d="M74.783,30.636c1.305,0,2.19-0.78,2.19-2.295c0-1.694-0.78-2.37-2.115-2.37h-1.32v4.666L74.783,30.636L74.783,30.636
			L74.783,30.636z M72.412,25.025h2.595c1.95,0,3.09,1.17,3.09,3.3c0,2.28-1.5,3.255-3.615,3.255h-0.945v4.245h-1.125V25.025
			L72.412,25.025z"/>
		<path d="M82.027,29.75h3.75v-4.725h1.125v10.8h-1.125v-5.13h-3.75v5.13h-1.125v-10.8h1.125V29.75L82.027,29.75z"/>
		<path d="M111.037,34.88c0.99,0,1.98-0.585,1.98-1.935c0-1.2-0.75-2.266-2.46-2.266h-1.41v4.197L111.037,34.88L111.037,34.88
			L111.037,34.88z M109.146,29.734h1.305c1.005,0,2.1-0.734,2.1-2.023c0-1.785-1.5-1.74-2.19-1.74h-1.215V29.734L109.146,29.734z
			 M108.021,35.825v-10.8h2.265c1.245,0,3.39,0.147,3.39,2.729c0,1.034-0.54,1.83-1.425,2.324c1.23,0.602,1.89,1.41,1.89,2.806
			c0,1.574-1.14,2.939-3.03,2.939L108.021,35.825L108.021,35.825L108.021,35.825z"/>
		<path d="M121.702,25.025h1.245l-2.76,6.24v4.56h-1.125v-4.56l-2.76-6.24h1.245l2.085,4.89L121.702,25.025L121.702,25.025z"/>
		<path d="M139.852,27.365c-0.018-0.899-0.66-1.604-1.576-1.604c-2.28,0-2.43,3.091-2.43,4.755c0,1.575,0.165,4.574,2.324,4.574
			c1.125,0,1.803-0.84,1.814-1.904h1.125c-0.119,1.756-1.185,2.853-2.984,2.853c-2.97,0-3.405-3.255-3.405-5.552
			c0-2.368,0.495-5.67,3.541-5.67c1.5,0,2.625,1.052,2.715,2.552L139.852,27.365L139.852,27.365L139.852,27.365z"/>
		<path d="M145.025,29.75h3.75v-4.725h1.125v10.8h-1.125v-5.13h-3.75v5.13H143.9v-10.8h1.125V29.75L145.025,29.75z"/>
		<path d="M154.551,31.7h2.744l-1.381-4.364L154.551,31.7L154.551,31.7z M159.741,35.825h-1.216l-0.959-3.181h-3.284l-0.962,3.181
			h-1.215l3.812-11.699L159.741,35.825L159.741,35.825z"/>
		<path d="M164.557,30.396c1.527,0,2.43-0.78,2.43-2.371c0-1.438-0.602-2.057-2.385-2.057h-1.11v4.428H164.557L164.557,30.396z
			 M162.366,25.025h2.805c2.701,0,2.938,2.43,2.938,3.061c0,1.109-0.42,2.13-1.92,2.984l2.91,4.755h-1.365l-2.625-4.5
			c-0.539,0.016-1.08,0.016-1.618,0.03v4.47h-1.125V25.025L162.366,25.025L162.366,25.025z"/>
		<path d="M172.85,34.88h4.683v0.945h-5.808v-10.8h1.125V34.88L172.85,34.88z"/>
		<path d="M186.096,25.971h-4.484v3.84h3.226v0.945h-3.226v4.124h4.591v0.945h-5.716v-10.8h5.609V25.971L186.096,25.971z"/>
		<path d="M194.254,26.977c-0.66-0.586-1.41-1.216-2.34-1.216c-0.959,0-1.74,0.66-1.74,1.649c0,0.57,0.104,1.08,1.561,1.965
			l0.855,0.525c1.979,1.215,2.521,1.785,2.521,3.045c0,1.935-1.291,3.09-3.182,3.09c-1.396,0-2.432-0.676-3.271-1.756l0.871-0.689
			c0.522,0.842,1.363,1.5,2.397,1.5c1.125,0,2.058-0.84,2.058-1.994c0-0.869-0.062-1.17-1.967-2.311l-0.976-0.585
			c-1.063-0.63-1.994-1.364-1.994-2.716c0-1.693,1.289-2.67,2.91-2.67c1.125,0,2.16,0.602,2.969,1.352L194.254,26.977
			L194.254,26.977z"/>
		<path d="M94.771,26.977c-0.66-0.586-1.41-1.216-2.34-1.216c-0.959,0-1.74,0.66-1.74,1.649c0,0.57,0.104,1.08,1.561,1.965
			l0.855,0.525c1.979,1.215,2.521,1.785,2.521,3.045c0,1.935-1.291,3.09-3.182,3.09c-1.396,0-2.432-0.676-3.271-1.756l0.871-0.689
			c0.522,0.842,1.363,1.5,2.397,1.5c1.125,0,2.058-0.84,2.058-1.994c0-0.869-0.062-1.17-1.967-2.311L91.56,30.2
			c-1.063-0.63-1.994-1.364-1.994-2.716c0-1.693,1.289-2.67,2.91-2.67c1.125,0,2.16,0.602,2.969,1.352L94.771,26.977L94.771,26.977z
			"/>
		<path d="M212.09,30.426c0-0.99,0.15-4.665-2.189-4.665c-2.399,0-2.188,4.035-2.188,4.665c0,1.229-0.062,4.664,2.188,4.664
			C211.025,35.09,212.09,34.34,212.09,30.426L212.09,30.426z M209.9,24.814c3.15,0,3.314,3.601,3.314,5.608
			c0,1.438,0.104,5.609-3.314,5.609c-3.33,0-3.313-4.08-3.313-5.609C206.586,25.91,208.086,24.814,209.9,24.814L209.9,24.814z"/>
		<path d="M221.165,25.025h1.108v10.8h-1.125v-8.22h-0.028l-2.222,5.295l-2.203-5.295l-0.03,0.027v8.189h-1.125V25.021h1.097
			l2.264,5.387L221.165,25.025L221.165,25.025z"/>
		<path d="M230.165,25.025h1.108v10.8h-1.125v-8.22h-0.028l-2.222,5.295l-2.203-5.295l-0.03,0.027v8.189h-1.125V25.021h1.097
			l2.264,5.387L230.165,25.025L230.165,25.025z"/>
		<path d="M235.549,31.7h2.746l-1.381-4.364L235.549,31.7L235.549,31.7z M240.741,35.825h-1.218l-0.959-3.181h-3.285l-0.959,3.181
			h-1.217l3.812-11.699L240.741,35.825L240.741,35.825z"/>
		<path d="M243.125,25.025h1.305l3.285,8.068h0.045v-8.068h1.125V35.93h-1.064l-3.541-8.715l-0.028,0.029v8.58h-1.125
			L243.125,25.025L243.125,25.025L243.125,25.025z"/>
		<path d="M252.125,25.025h1.305l3.285,8.068h0.045v-8.068h1.125V35.93h-1.064l-3.541-8.715l-0.028,0.029v8.58h-1.125
			L252.125,25.025L252.125,25.025L252.125,25.025z"/>
		<path d="M267.094,25.971h-4.484v3.84h3.226v0.945h-3.226v4.124h4.591v0.945h-5.716v-10.8h5.609V25.971L267.094,25.971z"/>
		<path d="M274.7,25.025h1.245l-2.762,6.24v4.56h-1.125v-4.56l-2.76-6.24h1.246l2.084,4.89L274.7,25.025L274.7,25.025z"/>
	</g>
</g>
<path fill="none" d="z"/>
</svg>
