<?xml version="1.0" encoding="utf-8"?>
<!-- Generator: Adobe Illustrator 17.0.0, SVG Export Plug-In . SVG Version: 6.00 Build 0)  -->
<!DOCTYPE svg PUBLIC "-//W3C//DTD SVG 1.1//EN" "http://www.w3.org/Graphics/SVG/1.1/DTD/svg11.dtd">
<svg version="1.1" id="Layer_1" xmlns="http://www.w3.org/2000/svg" xmlns:xlink="http://www.w3.org/1999/xlink" x="0px" y="0px"
	 width="257.189px" height="11.31px" viewBox="-143.154 -9.946 257.189 11.31"
	 enable-background="new -143.154 -9.946 257.189 11.31" xml:space="preserve">
<g>
	<path fill="#7F7F7F" d="M-141.319-9.226h2.075c1.559,0,2.267,0.936,1.907,2.639c-0.384,1.823-1.751,2.603-3.442,2.603h-0.756
		l-0.719,3.394h-0.9L-141.319-9.226z M-140.371-4.741c1.043,0,1.883-0.624,2.135-1.835c0.288-1.355-0.216-1.895-1.283-1.895h-1.056
		l-0.792,3.73H-140.371z"/>
	<path fill="#7F7F7F" d="M-134.251-9.49h0.899l-0.731,3.406c0.588-0.611,1.367-1.055,2.159-1.055c0.768,0,1.595,0.24,1.043,2.866
		l-0.779,3.682h-0.899l0.803-3.754c0.12-0.588,0.432-2.039-0.384-2.039c-0.671,0-1.403,0.6-1.799,1.164
		c-0.504,0.72-0.636,1.439-0.804,2.243l-0.503,2.387h-0.9L-134.251-9.49z"/>
	<path fill="#7F7F7F" d="M-128.538-3.793c0.528-2.483,2.027-3.346,3.25-3.346c2.267,0,2.063,2.303,1.847,3.346
		c-0.528,2.482-2.027,3.334-3.262,3.334C-127.818-0.459-129.089-1.203-128.538-3.793z M-124.34-3.793
		c0.228-1.104,0.3-2.591-1.103-2.591c-1.403,0-1.967,1.487-2.195,2.591c-0.24,1.104-0.312,2.579,1.091,2.579
		S-124.58-2.69-124.34-3.793z"/>
	<path fill="#7F7F7F" d="M-116.421-6.252h-2.291l-0.78,3.658c-0.132,0.624-0.276,1.379,0.54,1.379c0.684,0,1.224-0.564,1.595-1.127
		l0.815,0.216c-0.624,0.923-1.511,1.667-2.59,1.667c-1.043,0-1.595-0.503-1.188-2.422l0.708-3.371h-1.379l0.168-0.755h1.379
		l0.42-1.967h0.899l-0.419,1.967h2.291L-116.421-6.252z"/>
	<path fill="#7F7F7F" d="M-114.137-3.793c0.527-2.483,2.027-3.346,3.25-3.346c2.267,0,2.063,2.303,1.847,3.346
		c-0.528,2.482-2.027,3.334-3.262,3.334C-113.418-0.459-114.689-1.203-114.137-3.793z M-109.94-3.793
		c0.228-1.104,0.3-2.591-1.103-2.591c-1.403,0-1.967,1.487-2.195,2.591c-0.24,1.104-0.312,2.579,1.091,2.579
		S-110.18-2.69-109.94-3.793z"/>
	<path fill="#7F7F7F" d="M-97.4-9.49l-0.576,2.71c0.504-0.24,0.912-0.36,1.439-0.36c1.031,0,2.435,0.839,1.919,3.286
		c-0.54,2.519-2.171,3.394-3.298,3.394c-0.744,0-0.983-0.252-1.415-0.731l-0.348,0.72l-0.827-0.108
		c0.419-0.756,0.647-1.571,0.815-2.387l1.391-6.524H-97.4z M-98.923-2.342c0.156,0.587,0.419,1.127,1.151,1.127
		c0.587,0,1.799-0.504,2.243-2.603c0.384-1.787-0.348-2.567-1.307-2.567c-0.444,0-0.912,0.228-1.332,0.516L-98.923-2.342z"/>
	<path fill="#7F7F7F" d="M-86.698-7.008l-3.658,6.021c-0.564,0.924-1.439,2.351-2.615,2.351c-0.828,0-1.259-0.636-1.331-1.392
		l0.839-0.396c0.06,0.384,0.18,1.031,0.66,1.031c0.504,0,0.948-0.695,1.199-1.079l0.624-0.972l-0.875-5.565h0.971l0.624,4.366
		l2.603-4.366H-86.698z"/>
	<path fill="#7F7F7F" d="M-74.985-9.226h2.495l-1.175,5.553c-0.228,1.068-0.671,3.25-3.142,3.25c-1.403,0-2.135-0.792-1.727-2.663
		l0.264-1.211h0.9l-0.336,1.547c-0.216,0.995,0.144,1.571,1.031,1.571c1.031,0,1.703-0.587,1.967-1.823l1.164-5.469h-1.595
		L-74.985-9.226z"/>
	<path fill="#7F7F7F" d="M-68.252-6.252h-1.823l0.168-0.755h2.723l-1.368,6.417h-0.899L-68.252-6.252z M-66.561-8.638
		c-0.096,0.432-0.504,0.755-0.923,0.755c-0.42,0-0.684-0.324-0.588-0.755c0.084-0.432,0.492-0.756,0.912-0.756
		C-66.741-9.394-66.477-9.07-66.561-8.638z"/>
	<path fill="#7F7F7F" d="M-63.811-5.017c0.18-0.875,0.192-1.451,0.192-2.123h0.899l0.012,0.576c0.456-0.336,0.839-0.576,1.379-0.576
		c0.587,0,0.719,0.144,0.971,0.587c0.444-0.335,0.828-0.6,1.355-0.6c0.863,0,1.295,0.564,1.115,1.427l-1.091,5.133h-0.899
		l1.091-5.133c0.096-0.432-0.084-0.671-0.444-0.671c-0.408,0-0.828,0.336-1.091,0.671l-1.091,5.133h-0.9l1.08-5.061
		c0.072-0.336,0.06-0.732-0.348-0.732c-0.432,0-0.948,0.384-1.199,0.78l-1.068,5.013h-0.899L-63.811-5.017z"/>
	<path fill="#7F7F7F" d="M-45.837-2.486h0.024l1.859-6.74h0.972l-2.507,8.719h-1.031l-0.3-3.742l-1.895,3.742h-0.996l1.127-8.719
		h0.971l-0.971,6.74h0.024l2.279-4.33L-45.837-2.486z"/>
	<path fill="#7F7F7F" d="M-38.397-5.173c0.156-0.708-0.168-1.211-0.839-1.211c-0.564,0-1.151,0.264-1.715,0.48l-0.036-0.792
		c0.66-0.24,1.271-0.444,1.943-0.444c1.223,0,1.751,1.007,1.523,2.075l-0.587,2.783c-0.12,0.587-0.168,1.187-0.096,1.739
		l-0.864,0.108l-0.06-0.803c-0.54,0.516-1.08,0.779-1.751,0.779c-1.224,0-1.703-0.959-1.463-2.099
		c0.264-1.235,1.247-2.315,2.542-2.315c0.48,0,0.899,0.144,1.271,0.312L-38.397-5.173z M-38.685-3.805
		c-0.348-0.168-0.731-0.312-1.163-0.312c-0.912,0-1.439,0.792-1.607,1.607c-0.132,0.6,0.036,1.295,0.731,1.295
		s1.235-0.588,1.727-1.104L-38.685-3.805z"/>
	<path fill="#7F7F7F" d="M-30.022-6.252h-2.291l-0.78,3.658c-0.132,0.624-0.276,1.379,0.54,1.379c0.684,0,1.224-0.564,1.595-1.127
		l0.816,0.216c-0.624,0.923-1.511,1.667-2.591,1.667c-1.043,0-1.595-0.503-1.188-2.422l0.708-3.371h-1.379l0.168-0.755h1.379
		l0.42-1.967h0.899l-0.419,1.967h2.291L-30.022-6.252z"/>
	<path fill="#7F7F7F" d="M-23.314-5.664c-0.432-0.36-0.912-0.72-1.559-0.72c-0.54,0-1.127,0.396-1.259,0.972
		c-0.132,0.624,0.552,0.936,1.007,1.115c0.923,0.372,1.895,0.792,1.619,2.063c-0.228,1.055-1.331,1.775-2.327,1.775
		c-0.972,0-1.835-0.479-2.411-1.115l0.647-0.72c0.396,0.54,1.104,1.08,1.859,1.08c0.6,0,1.188-0.336,1.319-0.983
		c0.18-0.84-0.444-1.067-1.043-1.319c-0.839-0.348-1.799-0.78-1.559-1.931c0.204-0.936,1.224-1.691,2.339-1.691
		c0.804,0,1.379,0.288,1.919,0.744L-23.314-5.664z"/>
	<path fill="#7F7F7F" d="M-20.54-3.793c0.528-2.483,2.027-3.346,3.25-3.346c2.267,0,2.063,2.303,1.847,3.346
		c-0.528,2.482-2.027,3.334-3.262,3.334C-19.82-0.459-21.091-1.203-20.54-3.793z M-16.342-3.793c0.228-1.104,0.3-2.591-1.103-2.591
		c-1.403,0-1.967,1.487-2.195,2.591c-0.24,1.104-0.312,2.579,1.091,2.579S-16.582-2.69-16.342-3.793z"/>
	<path fill="#7F7F7F" d="M-12.931-0.591h-0.9l0.684-3.226c0.228-1.08,0.419-2.171,0.396-3.19h0.864l-0.048,1.175
		c0.612-0.755,1.559-1.307,2.459-1.307c1.019,0,1.343,0.936,1.115,2.027l-0.959,4.521h-0.899l0.899-4.258
		C-9.19-5.46-8.986-6.384-9.777-6.384c-0.852,0-2.111,0.864-2.591,3.119L-12.931-0.591z"/>
	<path fill="#7F7F7F" d="M-6.619-0.267l3.61-9.283h0.899l-3.61,9.283H-6.619z"/>
	<path fill="#7F7F7F" d="M5.906-0.591H4.934L4.706-3.133H2.08L0.773-0.591h-0.972l5.038-9.355L5.906-0.591z M2.452-3.889h2.195
		l-0.36-3.49L2.452-3.889z"/>
	<path fill="#7F7F7F" d="M14.569-8.471h-3.73l-0.635,2.999h2.794L12.83-4.717h-2.794L9.16-0.591h-0.9l1.835-8.635h4.629
		L14.569-8.471z"/>
	<path fill="#7F7F7F" d="M17.079-9.226h2.075c1.559,0,2.267,0.936,1.907,2.639c-0.384,1.823-1.751,2.603-3.442,2.603h-0.756
		l-0.719,3.394h-0.9L17.079-9.226z M18.027-4.741c1.043,0,1.883-0.624,2.135-1.835c0.288-1.355-0.216-1.895-1.283-1.895h-1.056
		l-0.792,3.73H18.027z"/>
	<path fill="#7F7F7F" d="M22.18-0.267l3.61-9.283h0.899l-3.61,9.283H22.18z"/>
	<path fill="#7F7F7F" d="M32.235-4.153l0.168-0.755h2.938l-0.959,4.485h-0.9l0.18-0.84c-0.564,0.54-1.283,0.84-1.991,0.84
		c-0.695,0-2.579-0.12-1.691-4.294c0.731-3.418,2.039-4.677,3.718-4.677c1.463,0,1.931,1.032,1.667,2.375h-0.9
		c0.24-0.792,0.036-1.619-0.875-1.619c-1.799,0-2.411,2.506-2.687,3.79c-0.251,1.2-0.719,3.67,0.972,3.67
		c0.839,0,1.919-0.671,2.279-2.398l0.12-0.576H32.235z"/>
	<path fill="#7F7F7F" d="M37.815-3.566c-0.336,1.763,0.336,2.351,1.319,2.351c0.708,0,1.487-0.324,2.147-0.684l0.216,0.803
		c-0.875,0.36-1.703,0.636-2.591,0.636c-1.895,0-2.303-1.631-1.955-3.298c0.36-1.679,1.5-3.382,3.418-3.382
		c2.135,0,1.943,2.387,1.811,3.082l-0.096,0.492H37.815z M41.341-4.321c0.192-1.055-0.192-2.063-1.199-2.063
		s-1.667,0.768-2.183,2.063H41.341z"/>
	<path fill="#7F7F7F" d="M49.177-6.252h-2.291l-0.78,3.658c-0.132,0.624-0.276,1.379,0.54,1.379c0.684,0,1.224-0.564,1.595-1.127
		l0.815,0.216c-0.624,0.923-1.511,1.667-2.59,1.667c-1.043,0-1.595-0.503-1.188-2.422l0.708-3.371h-1.379l0.168-0.755h1.379
		l0.42-1.967h0.899l-0.419,1.967h2.291L49.177-6.252z"/>
	<path fill="#7F7F7F" d="M56.377-6.252h-2.291l-0.78,3.658c-0.132,0.624-0.276,1.379,0.54,1.379c0.684,0,1.224-0.564,1.595-1.127
		l0.816,0.216c-0.624,0.923-1.511,1.667-2.591,1.667c-1.043,0-1.595-0.503-1.188-2.422l0.708-3.371h-1.379l0.168-0.755h1.379
		l0.42-1.967h0.899l-0.419,1.967h2.291L56.377-6.252z"/>
	<path fill="#7F7F7F" d="M64.5-7.008l-3.658,6.021c-0.564,0.924-1.439,2.351-2.615,2.351c-0.828,0-1.259-0.636-1.331-1.392
		l0.839-0.396c0.06,0.384,0.18,1.031,0.66,1.031c0.504,0,0.948-0.695,1.199-1.079l0.624-0.972l-0.875-5.565h0.971l0.624,4.366
		l2.603-4.366H64.5z"/>
	<path fill="#7F7F7F" d="M78.132-8.471h-1.175l-1.523,7.125h1.175l-0.156,0.755h-3.238l0.156-0.755h1.164l1.523-7.125h-1.163
		l0.156-0.755h3.238L78.132-8.471z"/>
	<path fill="#7F7F7F" d="M80.187-5.017c0.18-0.875,0.192-1.451,0.192-2.123h0.899l0.012,0.576C81.746-6.9,82.13-7.139,82.67-7.139
		c0.587,0,0.719,0.144,0.971,0.587c0.444-0.335,0.828-0.6,1.355-0.6c0.863,0,1.295,0.564,1.115,1.427l-1.091,5.133h-0.899
		l1.091-5.133c0.096-0.432-0.084-0.671-0.444-0.671c-0.408,0-0.828,0.336-1.091,0.671l-1.091,5.133h-0.9l1.08-5.061
		c0.072-0.336,0.06-0.732-0.348-0.732c-0.432,0-0.948,0.384-1.199,0.78l-1.068,5.013h-0.899L80.187-5.017z"/>
	<path fill="#7F7F7F" d="M91.201-5.173c0.156-0.708-0.168-1.211-0.839-1.211c-0.564,0-1.151,0.264-1.715,0.48l-0.036-0.792
		c0.659-0.24,1.271-0.444,1.943-0.444c1.223,0,1.751,1.007,1.523,2.075l-0.588,2.783c-0.12,0.587-0.167,1.187-0.096,1.739
		L90.53-0.435l-0.06-0.803c-0.54,0.516-1.08,0.779-1.751,0.779c-1.224,0-1.703-0.959-1.463-2.099
		c0.264-1.235,1.247-2.315,2.542-2.315c0.48,0,0.899,0.144,1.271,0.312L91.201-5.173z M90.913-3.805
		c-0.348-0.168-0.732-0.312-1.164-0.312c-0.912,0-1.439,0.792-1.607,1.607c-0.132,0.6,0.036,1.295,0.731,1.295
		c0.695,0,1.235-0.588,1.727-1.104L90.913-3.805z"/>
	<path fill="#7F7F7F" d="M100.344-7.139c-0.384,0.779-0.601,1.583-0.78,2.398l-0.755,3.526c-0.433,2.003-2.016,2.579-2.939,2.579
		c-0.755,0-1.439-0.432-1.823-0.983l0.755-0.552c0.252,0.468,0.744,0.779,1.343,0.779c0.947,0,1.56-0.863,1.751-1.775l0.108-0.504
		c-0.564,0.324-1.008,0.54-1.644,0.54c-1.571,0-2.015-1.5-1.715-2.891c0.324-1.523,1.331-3.118,3.106-3.118
		c0.611,0,1.031,0.204,1.451,0.563l0.288-0.563H100.344z M98.844-5.592c-0.203-0.432-0.684-0.792-1.235-0.792
		c-1.187,0-1.834,1.271-2.039,2.255c-0.264,1.248,0.12,2.243,0.996,2.243c0.552,0,1.295-0.372,1.667-0.839L98.844-5.592z"/>
	<path fill="#7F7F7F" d="M102.614-3.566c-0.335,1.763,0.336,2.351,1.319,2.351c0.708,0,1.487-0.324,2.147-0.684l0.216,0.803
		c-0.876,0.36-1.703,0.636-2.591,0.636c-1.895,0-2.303-1.631-1.955-3.298c0.36-1.679,1.499-3.382,3.418-3.382
		c2.135,0,1.943,2.387,1.812,3.082l-0.096,0.492H102.614z M106.14-4.321c0.192-1.055-0.191-2.063-1.199-2.063
		s-1.667,0.768-2.183,2.063H106.14z"/>
	<path fill="#7F7F7F" d="M113.485-5.664c-0.433-0.36-0.912-0.72-1.56-0.72c-0.54,0-1.127,0.396-1.26,0.972
		c-0.132,0.624,0.552,0.936,1.008,1.115c0.924,0.372,1.895,0.792,1.619,2.063c-0.228,1.055-1.331,1.775-2.327,1.775
		c-0.971,0-1.835-0.479-2.41-1.115l0.647-0.72c0.396,0.54,1.104,1.08,1.859,1.08c0.6,0,1.188-0.336,1.319-0.983
		c0.18-0.84-0.444-1.067-1.044-1.319c-0.84-0.348-1.799-0.78-1.559-1.931c0.203-0.936,1.223-1.691,2.338-1.691
		c0.804,0,1.38,0.288,1.919,0.744L113.485-5.664z"/>
</g>
</svg>
