<?xml version="1.0" encoding="utf-8"?>
<!-- Generator: Adobe Illustrator 17.0.0, SVG Export Plug-In . SVG Version: 6.00 Build 0)  -->
<!DOCTYPE svg PUBLIC "-//W3C//DTD SVG 1.1//EN" "http://www.w3.org/Graphics/SVG/1.1/DTD/svg11.dtd">
<svg version="1.1" id="Layer_1" xmlns="http://www.w3.org/2000/svg" xmlns:xlink="http://www.w3.org/1999/xlink" x="0px" y="0px"
	 width="191.106px" height="27.847px" viewBox="0 0 191.106 27.847" enable-background="new 0 0 191.106 27.847"
	 xml:space="preserve">
<g>
	<path fill="#7F7F7F" d="M1.835,0.324h1.943c1.787,0,2.099,1.271,1.823,2.579C5.229,4.606,4.018,5.445,2.399,5.445H1.307
		L0.563,8.959H0L1.835,0.324z M2.302,0.804L1.414,4.966h1.007c1.511,0,2.315-0.828,2.579-2.051c0.348-1.619-0.408-2.11-1.283-2.11
		L2.302,0.804L2.302,0.804z"/>
	<path fill="#7F7F7F" d="M8.914,0.061h0.563L8.638,3.995h0.024c0.552-0.792,1.475-1.511,2.435-1.511
		c0.588,0,1.416,0.468,1.116,1.859L11.23,8.961h-0.564l0.852-3.982c0.168-0.803,0.312-2.015-0.624-2.015
		c-1.067,0-2.315,1.331-2.626,2.806L7.584,8.96H7.02L8.914,0.061z"/>
	<path fill="#7F7F7F" d="M14.592,5.781c0.527-2.471,1.979-3.298,3.13-3.298c1.056,0,2.279,0.708,1.727,3.298
		c-0.54,2.579-2.062,3.31-3.13,3.31S14.04,8.372,14.592,5.781z M18.885,5.781c0.264-1.235,0.288-2.818-1.271-2.818
		c-1.547,0-2.195,1.583-2.458,2.818c-0.264,1.247-0.288,2.831,1.259,2.831C17.973,8.612,18.621,7.017,18.885,5.781z"/>
	<path fill="#7F7F7F" d="M26.516,3.095h-2.327l-0.923,4.33c-0.132,0.612-0.024,1.188,0.755,1.188c0.708,0,1.319-0.528,1.715-1.127
		l0.516,0.132c-0.576,0.815-1.403,1.475-2.351,1.475c-0.816,0-1.476-0.396-1.127-2.003l0.852-3.994h-1.427l0.096-0.48h1.427
		l0.444-2.039h0.563l-0.443,2.039h2.327L26.516,3.095z"/>
	<path fill="#7F7F7F" d="M28.991,5.781c0.527-2.471,1.979-3.298,3.13-3.298c1.056,0,2.279,0.708,1.727,3.298
		c-0.54,2.579-2.062,3.31-3.13,3.31S28.439,8.372,28.991,5.781z M33.284,5.781c0.264-1.235,0.288-2.818-1.271-2.818
		c-1.547,0-2.195,1.583-2.458,2.818c-0.264,1.247-0.288,2.831,1.259,2.831C32.373,8.612,33.021,7.017,33.284,5.781z"/>
	<path fill="#7F7F7F" d="M45.429,0.061l-0.636,2.962c0.504-0.348,1.116-0.54,1.679-0.54c0.875,0,2.339,0.72,1.799,3.262
		c-0.527,2.471-2.11,3.346-3.166,3.346c-0.744,0-1.283-0.384-1.475-1.043l-0.444,1.043L42.67,9.019
		c0.384-0.744,0.611-1.511,0.779-2.291l1.416-6.668L45.429,0.061L45.429,0.061z M43.883,7.34c0.167,0.684,0.468,1.271,1.307,1.271
		c0.72,0,2.039-0.624,2.507-2.831c0.503-2.327-0.756-2.818-1.476-2.818c-0.54,0-1.079,0.276-1.547,0.624L43.883,7.34z"/>
	<path fill="#7F7F7F" d="M56.144,2.615l-3.646,6.033c-0.528,0.864-1.379,2.339-2.495,2.339c-0.72,0-1.127-0.563-1.199-1.211
		l0.527-0.252c0.06,0.432,0.252,0.984,0.78,0.984c0.612,0,1.08-0.708,1.391-1.188l0.708-1.091l-0.876-5.613h0.624l0.684,4.87
		l2.854-4.87L56.144,2.615L56.144,2.615z"/>
	<path fill="#7F7F7F" d="M69.884,1.956C70.016,1.2,69.5,0.637,68.745,0.637c-2.003,0-2.723,2.603-3.035,4.065
		c-0.3,1.427-0.684,3.946,1.259,3.946c0.9,0,1.715-0.671,1.943-1.559h0.563c-0.384,1.271-1.379,2.039-2.663,2.039
		c-2.279,0-2.087-2.615-1.715-4.366c0.396-1.835,1.307-4.605,3.742-4.605c1.056,0,1.739,0.744,1.607,1.799
		C70.446,1.956,69.884,1.956,69.884,1.956z"/>
	<path fill="#7F7F7F" d="M73.714,0.061h0.563l-0.839,3.934h0.024c0.552-0.792,1.475-1.511,2.435-1.511
		c0.588,0,1.416,0.468,1.116,1.859L76.03,8.961h-0.564l0.852-3.982c0.168-0.803,0.312-2.015-0.624-2.015
		c-1.067,0-2.315,1.331-2.626,2.806l-0.684,3.19H71.82L73.714,0.061z"/>
	<path fill="#7F7F7F" d="M82.509,9.091c-0.048-0.348-0.06-0.72-0.012-1.079c-0.576,0.635-1.139,1.079-1.967,1.079
		c-1.164,0-1.571-0.947-1.343-2.015c0.264-1.211,1.164-2.255,2.387-2.255c0.516,0,1.067,0.204,1.463,0.42
		c0.372-1.607,0.228-2.279-0.816-2.279c-0.552,0-1.055,0.192-1.607,0.419L80.59,2.865c0.6-0.216,1.175-0.384,1.775-0.384
		c1.164,0,1.679,0.815,1.343,2.231c-0.204,0.863-0.408,1.727-0.624,2.59c-0.144,0.612-0.108,1.188-0.048,1.715L82.509,9.091z
		 M82.904,5.685c-0.348-0.204-0.792-0.384-1.295-0.384c-1.056,0-1.667,0.888-1.859,1.823c-0.156,0.708,0.072,1.487,0.875,1.487
		c0.792,0,1.403-0.636,1.931-1.283L82.904,5.685z"/>
	<path fill="#7F7F7F" d="M87.25,8.959h-0.564l0.936-4.39l0.204-2.027h0.54l-0.168,1.775l0.024,0.024
		c0.576-0.875,1.451-1.859,2.542-1.859c1.056,0,1.104,1.056,0.924,1.919h-0.564c0.108-0.587,0.252-1.439-0.516-1.439
		c-0.647,0-2.291,1.007-2.807,3.418L87.25,8.959z"/>
	<path fill="#7F7F7F" d="M97.028,0.54h-1.871l0.108-0.479H97.7L95.805,8.96h-0.564L97.028,0.54z"/>
	<path fill="#7F7F7F" d="M105.128,8.516c-0.804,0.324-1.571,0.576-2.387,0.576c-1.859,0-2.195-1.667-1.847-3.274
		c0.336-1.607,1.415-3.334,3.286-3.334c1.067,0,2.159,0.768,1.607,3.394h-4.342c-0.372,2.231,0.444,2.735,1.415,2.735
		c0.72,0,1.463-0.264,2.135-0.624L105.128,8.516z M105.32,5.397c0.288-1.091-0.072-2.435-1.319-2.435
		c-1.235,0-2.255,1.319-2.459,2.435H105.32z"/>
	<path fill="#7F7F7F" d="M112.544,3.623c-0.432-0.36-0.936-0.66-1.571-0.66s-1.355,0.479-1.499,1.151
		c-0.156,0.744,0.6,1.091,1.127,1.307c0.887,0.372,1.823,0.756,1.559,1.991c-0.216,1.056-1.283,1.679-2.255,1.679
		c-0.792,0-1.715-0.492-2.171-1.02l0.408-0.456c0.408,0.516,1.14,0.996,1.883,0.996c0.708,0,1.403-0.396,1.571-1.164
		c0.204-0.947-0.479-1.223-1.163-1.511c-0.804-0.336-1.751-0.744-1.511-1.871c0.192-0.899,1.247-1.583,2.195-1.583
		c0.731,0,1.271,0.252,1.763,0.672L112.544,3.623z"/>
	<path fill="#7F7F7F" d="M122.614,4.642c0.419-1.967,1.187-4.486,3.514-4.486c2.543,0,1.895,3.022,1.583,4.486
		c-0.78,3.67-2.111,4.485-3.49,4.485C122.853,9.127,121.834,8.336,122.614,4.642z M124.328,8.647c1.151,0,2.123-0.899,2.783-4.005
		c0.684-3.214,0.024-4.006-1.08-4.006c-1.247,0-2.183,1.031-2.818,4.006C122.53,7.868,123.249,8.647,124.328,8.647z"/>
	<path fill="#7F7F7F" d="M129.718,4.534c0.18-0.839,0.228-1.511,0.216-2.051h0.576l-0.024,0.828
		c0.468-0.504,1.043-0.828,1.667-0.828c0.516,0,0.732,0.312,0.816,0.768c0.408-0.408,0.923-0.768,1.475-0.768
		c0.815,0,1.127,0.54,0.959,1.332l-1.091,5.145h-0.564l1.091-5.121c0.132-0.648-0.132-0.888-0.576-0.888
		c-0.503,0-1.007,0.396-1.331,0.815l-1.104,5.193h-0.563l1.031-4.869c0.096-0.48,0.204-1.127-0.432-1.127
		c-0.54,0-1.127,0.444-1.439,0.923l-1.079,5.073h-0.564L129.718,4.534z"/>
	<path fill="#7F7F7F" d="M136.917,4.534c0.18-0.839,0.228-1.511,0.216-2.051h0.576l-0.024,0.828
		c0.468-0.504,1.043-0.828,1.667-0.828c0.516,0,0.732,0.312,0.816,0.768c0.408-0.408,0.923-0.768,1.475-0.768
		c0.815,0,1.127,0.54,0.959,1.332l-1.091,5.145h-0.564l1.091-5.121c0.132-0.648-0.132-0.888-0.576-0.888
		c-0.503,0-1.007,0.396-1.331,0.815l-1.104,5.193h-0.563l1.031-4.869c0.096-0.48,0.204-1.127-0.432-1.127
		c-0.54,0-1.127,0.444-1.439,0.923l-1.079,5.073h-0.564L136.917,4.534z"/>
	<path fill="#7F7F7F" d="M147.307,9.091c-0.048-0.348-0.06-0.72-0.012-1.079c-0.576,0.635-1.139,1.079-1.967,1.079
		c-1.164,0-1.571-0.947-1.343-2.015c0.264-1.211,1.164-2.255,2.387-2.255c0.516,0,1.067,0.204,1.463,0.42
		c0.372-1.607,0.228-2.279-0.816-2.279c-0.552,0-1.055,0.192-1.607,0.419l-0.024-0.516c0.6-0.216,1.175-0.384,1.775-0.384
		c1.164,0,1.679,0.815,1.343,2.231c-0.204,0.863-0.408,1.727-0.624,2.59c-0.144,0.612-0.108,1.188-0.048,1.715L147.307,9.091z
		 M147.703,5.685c-0.348-0.204-0.792-0.384-1.295-0.384c-1.056,0-1.667,0.888-1.859,1.823c-0.156,0.708,0.072,1.487,0.875,1.487
		c0.792,0,1.403-0.636,1.931-1.283L147.703,5.685z"/>
	<path fill="#7F7F7F" d="M151.473,8.959h-0.563l0.672-3.178c0.228-1.08,0.432-2.159,0.443-3.238h0.528l-0.168,1.823h0.024
		c0.444-0.948,1.655-1.883,2.663-1.883c1.151,0,1.259,0.996,1.055,1.955l-0.959,4.521h-0.564l0.9-4.258
		c0.155-0.731,0.371-1.739-0.612-1.739c-0.912,0-2.351,0.912-2.867,3.382L151.473,8.959z"/>
	<path fill="#7F7F7F" d="M158.673,8.959h-0.563l0.672-3.178c0.228-1.08,0.432-2.159,0.443-3.238h0.528l-0.168,1.823h0.023
		c0.444-0.948,1.655-1.883,2.663-1.883c1.151,0,1.259,0.996,1.055,1.955l-0.959,4.521h-0.563l0.899-4.258
		c0.155-0.731,0.371-1.739-0.612-1.739c-0.911,0-2.351,0.912-2.866,3.382L158.673,8.959z"/>
	<path fill="#7F7F7F" d="M169.926,8.516c-0.804,0.324-1.571,0.576-2.387,0.576c-1.858,0-2.194-1.667-1.847-3.274
		c0.336-1.607,1.415-3.334,3.286-3.334c1.067,0,2.159,0.768,1.607,3.394h-4.342c-0.372,2.231,0.443,2.735,1.415,2.735
		c0.72,0,1.463-0.264,2.135-0.624L169.926,8.516z M170.118,5.397c0.288-1.091-0.072-2.435-1.319-2.435
		c-1.235,0-2.255,1.319-2.459,2.435H170.118z"/>
	<path fill="#7F7F7F" d="M178.542,2.615l-3.646,6.033c-0.527,0.864-1.379,2.339-2.494,2.339c-0.72,0-1.128-0.563-1.2-1.211
		l0.528-0.252c0.06,0.432,0.252,0.984,0.779,0.984c0.611,0,1.079-0.708,1.392-1.188l0.707-1.091l-0.875-5.613h0.623l0.684,4.87
		l2.854-4.87L178.542,2.615L178.542,2.615z"/>
	<path fill="#7F7F7F" d="M187.004,9.283L190.555,0h0.551l-3.55,9.283H187.004z"/>
</g>
<g>
	<path fill="#7F7F7F" d="M1.834,16.669h2.051c1.451,0,2.087,0.972,1.787,2.375c-0.229,1.092-1.056,2.063-2.184,2.399L5,25.305H4.292
		l-1.355-3.73H1.354l-0.791,3.73H0L1.834,16.669z M1.462,21.095h1.403c0.768,0,1.895-0.588,2.219-2.099
		C5.3,17.989,5,17.149,3.788,17.149H2.302L1.462,21.095z"/>
	<path fill="#7F7F7F" d="M11.539,24.861c-0.804,0.324-1.571,0.576-2.387,0.576c-1.858,0-2.194-1.667-1.847-3.274
		c0.336-1.607,1.415-3.334,3.286-3.334c1.067,0,2.159,0.768,1.607,3.394H7.856c-0.372,2.231,0.443,2.735,1.415,2.735
		c0.72,0,1.463-0.264,2.135-0.624L11.539,24.861z M11.732,21.742c0.288-1.091-0.072-2.435-1.319-2.435
		c-1.235,0-2.255,1.319-2.459,2.435H11.732z"/>
	<path fill="#7F7F7F" d="M15.058,21.179c0.168-0.768,0.264-1.535,0.204-2.278l0.539-0.072v1.043h0.024
		c0.456-0.66,1.151-1.043,1.895-1.043c1.056,0,2.279,0.852,1.739,3.346c-0.539,2.542-2.314,3.262-3.178,3.262
		c-0.564,0-1.092-0.192-1.451-0.54l-0.624,2.95h-0.563L15.058,21.179z M14.949,24.333c0.324,0.348,0.744,0.624,1.284,0.624
		c0.719,0,2.183-0.504,2.674-2.818c0.468-2.207-0.588-2.831-1.307-2.831c-0.84,0-1.392,0.587-1.848,1.271L14.949,24.333z"/>
	<path fill="#7F7F7F" d="M21.802,22.126c0.528-2.471,1.979-3.298,3.131-3.298c1.055,0,2.278,0.708,1.727,3.298
		c-0.539,2.579-2.062,3.31-3.13,3.31S21.25,24.717,21.802,22.126z M26.096,22.126c0.264-1.235,0.288-2.818-1.271-2.818
		c-1.547,0-2.194,1.583-2.458,2.818c-0.265,1.247-0.288,2.831,1.259,2.831C25.185,24.957,25.832,23.362,26.096,22.126z"/>
	<path fill="#7F7F7F" d="M29.662,25.304h-0.563l0.935-4.39l0.204-2.027h0.54l-0.168,1.775l0.024,0.024
		c0.575-0.875,1.451-1.859,2.542-1.859c1.056,0,1.104,1.056,0.924,1.919h-0.563c0.107-0.587,0.252-1.439-0.516-1.439
		c-0.648,0-2.291,1.007-2.807,3.418L29.662,25.304z"/>
	<path fill="#7F7F7F" d="M40.927,19.44h-2.326l-0.924,4.33c-0.132,0.612-0.024,1.188,0.756,1.188c0.707,0,1.319-0.528,1.715-1.127
		l0.516,0.132c-0.576,0.815-1.403,1.475-2.351,1.475c-0.815,0-1.476-0.396-1.128-2.003l0.852-3.994H36.61l0.096-0.48h1.428
		l0.443-2.039h0.563l-0.443,2.039h2.326L40.927,19.44z"/>
	<path fill="#7F7F7F" d="M46.52,25.436c-0.048-0.348-0.06-0.72-0.012-1.079c-0.575,0.635-1.14,1.079-1.967,1.079
		c-1.163,0-1.571-0.947-1.343-2.015c0.264-1.211,1.163-2.255,2.386-2.255c0.517,0,1.067,0.204,1.464,0.42
		c0.371-1.607,0.228-2.279-0.815-2.279c-0.552,0-1.056,0.192-1.607,0.419l-0.024-0.516c0.6-0.216,1.176-0.384,1.775-0.384
		c1.163,0,1.679,0.815,1.344,2.231c-0.204,0.863-0.408,1.727-0.624,2.59c-0.144,0.612-0.108,1.188-0.048,1.715L46.52,25.436z
		 M46.916,22.03c-0.348-0.204-0.792-0.384-1.296-0.384c-1.055,0-1.667,0.888-1.858,1.823c-0.156,0.708,0.071,1.487,0.875,1.487
		c0.792,0,1.403-0.636,1.932-1.283L46.916,22.03z"/>
	<path fill="#7F7F7F" d="M50.494,26.132c0.275,0.444,0.827,0.72,1.415,0.72c0.708,0,1.715-0.516,2.062-2.111l0.168-0.78
		c-0.527,0.456-1.331,0.78-1.955,0.78c-1.511,0-1.87-1.511-1.595-2.831c0.312-1.463,1.26-3.083,2.986-3.083
		c0.708,0,1.115,0.312,1.571,0.732l0.323-0.732h0.576c-0.527,1.091-0.768,2.231-0.995,3.346l-0.552,2.639
		c-0.396,1.871-1.835,2.519-2.807,2.519c-0.66,0-1.319-0.384-1.667-0.852L50.494,26.132z M54.907,20.231
		c-0.264-0.528-0.791-0.923-1.463-0.923c-1.308,0-2.039,1.415-2.267,2.495c-0.42,2.003,0.636,2.458,1.151,2.458
		c0.647,0,1.475-0.408,1.931-0.971L54.907,20.231z"/>
	<path fill="#7F7F7F" d="M61.939,24.861c-0.804,0.324-1.571,0.576-2.387,0.576c-1.858,0-2.194-1.667-1.847-3.274
		c0.336-1.607,1.415-3.334,3.286-3.334c1.067,0,2.159,0.768,1.607,3.394h-4.342c-0.372,2.231,0.443,2.735,1.415,2.735
		c0.72,0,1.463-0.264,2.135-0.624L61.939,24.861z M62.131,21.742c0.288-1.091-0.072-2.435-1.319-2.435
		c-1.235,0-2.255,1.319-2.459,2.435H62.131z"/>
	<path fill="#7F7F7F" d="M74.24,16.406l-0.636,2.962c0.504-0.348,1.115-0.54,1.68-0.54c0.875,0,2.338,0.72,1.799,3.262
		c-0.528,2.471-2.111,3.346-3.166,3.346c-0.744,0-1.284-0.384-1.476-1.043l-0.444,1.043l-0.516-0.072
		c0.384-0.744,0.612-1.511,0.78-2.291l1.415-6.668L74.24,16.406L74.24,16.406z M72.694,23.685c0.168,0.684,0.468,1.271,1.307,1.271
		c0.72,0,2.039-0.624,2.507-2.831c0.504-2.327-0.755-2.818-1.475-2.818c-0.54,0-1.08,0.276-1.548,0.624L72.694,23.685z"/>
	<path fill="#7F7F7F" d="M84.954,18.96l-3.646,6.033c-0.527,0.864-1.379,2.339-2.494,2.339c-0.72,0-1.128-0.563-1.2-1.211
		l0.528-0.252c0.06,0.432,0.252,0.984,0.779,0.984c0.611,0,1.079-0.708,1.392-1.188l0.707-1.091l-0.875-5.613h0.623l0.684,4.87
		l2.854-4.87L84.954,18.96L84.954,18.96z"/>
	<path fill="#7F7F7F" d="M96.272,21.622l0.108-0.479h2.639l-0.924,4.33h-0.563l0.288-1.367h-0.024
		c-0.443,0.852-1.403,1.367-2.291,1.367c-1.367,0-2.267-0.899-1.571-4.21c0.816-3.826,2.135-4.761,3.599-4.761
		c1.331,0,1.787,0.912,1.631,2.147h-0.6c0.216-0.864-0.132-1.667-1.067-1.667c-2.003,0-2.627,2.638-2.927,4.078
		c-0.287,1.331-0.779,3.934,1.092,3.934c0.911,0,2.11-0.611,2.542-2.674l0.145-0.696h-2.077V21.622z"/>
	<path fill="#7F7F7F" d="M105.138,24.861c-0.804,0.324-1.571,0.576-2.387,0.576c-1.858,0-2.194-1.667-1.847-3.274
		c0.336-1.607,1.415-3.334,3.286-3.334c1.067,0,2.159,0.768,1.607,3.394h-4.342c-0.372,2.231,0.443,2.735,1.415,2.735
		c0.72,0,1.463-0.264,2.135-0.624L105.138,24.861z M105.33,21.742c0.288-1.091-0.072-2.435-1.319-2.435
		c-1.235,0-2.255,1.319-2.459,2.435H105.33z"/>
	<path fill="#7F7F7F" d="M112.926,19.44H110.6l-0.924,4.33c-0.132,0.612-0.024,1.188,0.756,1.188c0.707,0,1.319-0.528,1.715-1.127
		l0.516,0.132c-0.576,0.815-1.403,1.475-2.351,1.475c-0.815,0-1.476-0.396-1.128-2.003l0.852-3.994h-1.427l0.096-0.48h1.428
		l0.443-2.039h0.563l-0.443,2.039h2.326L112.926,19.44z"/>
	<path fill="#7F7F7F" d="M120.126,19.44H117.8l-0.924,4.33c-0.132,0.612-0.024,1.188,0.756,1.188c0.707,0,1.319-0.528,1.715-1.127
		l0.516,0.132c-0.576,0.815-1.403,1.475-2.351,1.475c-0.815,0-1.476-0.396-1.128-2.003l0.852-3.994h-1.427l0.096-0.48h1.428
		l0.443-2.039h0.563l-0.443,2.039h2.326L120.126,19.44z"/>
	<path fill="#7F7F7F" d="M128.153,18.96l-3.646,6.033c-0.527,0.864-1.379,2.339-2.494,2.339c-0.72,0-1.128-0.563-1.2-1.211
		l0.528-0.252c0.06,0.432,0.252,0.984,0.779,0.984c0.611,0,1.079-0.708,1.392-1.188l0.707-1.091l-0.875-5.613h0.623l0.684,4.87
		l2.854-4.87L128.153,18.96L128.153,18.96z"/>
	<path fill="#7F7F7F" d="M141.882,17.149h-1.199l-1.632,7.676h1.2l-0.108,0.479h-2.962l0.107-0.479h1.199l1.631-7.676h-1.199
		l0.097-0.48h2.962L141.882,17.149z"/>
	<path fill="#7F7F7F" d="M144.128,20.879c0.18-0.839,0.228-1.511,0.216-2.051h0.575l-0.023,0.828
		c0.468-0.504,1.043-0.828,1.667-0.828c0.516,0,0.731,0.312,0.815,0.768c0.407-0.408,0.923-0.768,1.475-0.768
		c0.816,0,1.128,0.54,0.96,1.332l-1.092,5.145h-0.563l1.092-5.121c0.132-0.648-0.132-0.888-0.576-0.888
		c-0.504,0-1.007,0.396-1.331,0.815l-1.104,5.193h-0.563l1.031-4.869c0.096-0.48,0.204-1.127-0.432-1.127
		c-0.54,0-1.127,0.444-1.439,0.923l-1.079,5.073h-0.563L144.128,20.879z"/>
	<path fill="#7F7F7F" d="M154.518,25.436c-0.048-0.348-0.06-0.72-0.012-1.079c-0.575,0.635-1.14,1.079-1.967,1.079
		c-1.163,0-1.571-0.947-1.343-2.015c0.264-1.211,1.163-2.255,2.386-2.255c0.517,0,1.067,0.204,1.464,0.42
		c0.371-1.607,0.228-2.279-0.815-2.279c-0.552,0-1.056,0.192-1.607,0.419L152.6,19.21c0.6-0.216,1.176-0.384,1.775-0.384
		c1.163,0,1.679,0.815,1.344,2.231c-0.204,0.863-0.408,1.727-0.624,2.59c-0.144,0.612-0.108,1.188-0.048,1.715L154.518,25.436z
		 M154.914,22.03c-0.348-0.204-0.792-0.384-1.296-0.384c-1.055,0-1.667,0.888-1.858,1.823c-0.156,0.708,0.071,1.487,0.875,1.487
		c0.792,0,1.403-0.636,1.932-1.283L154.914,22.03z"/>
	<path fill="#7F7F7F" d="M158.492,26.132c0.275,0.444,0.827,0.72,1.415,0.72c0.708,0,1.715-0.516,2.062-2.111l0.168-0.78
		c-0.527,0.456-1.331,0.78-1.955,0.78c-1.511,0-1.87-1.511-1.595-2.831c0.312-1.463,1.26-3.083,2.986-3.083
		c0.708,0,1.115,0.312,1.571,0.732l0.323-0.732h0.576c-0.527,1.091-0.768,2.231-0.995,3.346l-0.552,2.639
		c-0.396,1.871-1.835,2.519-2.807,2.519c-0.66,0-1.319-0.384-1.667-0.852L158.492,26.132z M162.905,20.231
		c-0.264-0.528-0.791-0.923-1.463-0.923c-1.308,0-2.039,1.415-2.267,2.495c-0.42,2.003,0.636,2.458,1.151,2.458
		c0.647,0,1.475-0.408,1.931-0.971L162.905,20.231z"/>
	<path fill="#7F7F7F" d="M169.938,24.861c-0.804,0.324-1.571,0.576-2.387,0.576c-1.858,0-2.194-1.667-1.847-3.274
		c0.336-1.607,1.415-3.334,3.286-3.334c1.067,0,2.159,0.768,1.607,3.394h-4.342c-0.372,2.231,0.443,2.735,1.415,2.735
		c0.72,0,1.463-0.264,2.135-0.624L169.938,24.861z M170.13,21.742c0.288-1.091-0.072-2.435-1.319-2.435
		c-1.235,0-2.255,1.319-2.459,2.435H170.13z"/>
	<path fill="#7F7F7F" d="M177.353,19.968c-0.432-0.36-0.936-0.66-1.57-0.66c-0.636,0-1.355,0.479-1.5,1.151
		c-0.155,0.744,0.6,1.091,1.128,1.307c0.888,0.372,1.823,0.756,1.559,1.991c-0.216,1.056-1.283,1.679-2.255,1.679
		c-0.791,0-1.715-0.492-2.17-1.02l0.407-0.456c0.408,0.516,1.14,0.996,1.883,0.996c0.708,0,1.403-0.396,1.571-1.164
		c0.204-0.947-0.479-1.223-1.163-1.511c-0.804-0.336-1.751-0.744-1.512-1.871c0.192-0.899,1.248-1.583,2.195-1.583
		c0.731,0,1.271,0.252,1.763,0.672L177.353,19.968z"/>
</g>
</svg>
