<?xml version="1.0" encoding="utf-8"?>
<!-- Generator: Adobe Illustrator 15.1.0, SVG Export Plug-In . SVG Version: 6.00 Build 0)  -->
<!DOCTYPE svg PUBLIC "-//W3C//DTD SVG 1.1//EN" "http://www.w3.org/Graphics/SVG/1.1/DTD/svg11.dtd">
<svg version="1.1" xmlns="http://www.w3.org/2000/svg" xmlns:xlink="http://www.w3.org/1999/xlink" x="0px" y="0px" width="233px"
	 height="50px" viewBox="0 0 233 50" enable-background="new 0 0 233 50" xml:space="preserve">
<g id="Layer_2">
	<g>
		<path fill-rule="evenodd" clip-rule="evenodd" fill="#ED1F24" d="M0,0h233v50H0V0z"/>
	</g>
</g>
<g id="Layer_1">
	<g>
		<path fill="#FFFFFF" d="M26.032,20.979c-0.756-0.7-1.723-1.261-2.773-1.261c-1.513,0-2.717,0.911-2.717,2.494
			c0,1.261,0.868,1.947,1.863,2.535l0.911,0.546c1.779,1.064,1.835,1.345,1.835,2.158c0,1.078-0.869,1.862-1.919,1.862
			c-0.967,0-1.751-0.616-2.241-1.4l-0.812,0.644c0.784,1.01,1.751,1.64,3.054,1.64c1.765,0,2.969-1.079,2.969-2.886
			c0-1.177-0.504-1.709-2.353-2.844l-0.798-0.49c-1.359-0.826-1.457-1.302-1.457-1.835c0-0.924,0.729-1.541,1.625-1.541
			c0.868,0,1.569,0.588,2.185,1.135L26.032,20.979z"/>
		<path fill="#FFFFFF" d="M33.983,28.039c-0.504,0.602-1.148,1.232-1.975,1.232c-0.966,0-2.171-0.7-2.171-3.039
			c0-2.214,1.079-2.998,2.144-2.998c0.924,0,1.471,0.63,1.849,1.387l0.91-0.603c-0.658-0.994-1.527-1.667-2.759-1.667
			c-1.499,0-3.194,0.98-3.194,3.978c0,2.97,1.849,3.824,3.236,3.824c1.163,0,1.919-0.561,2.675-1.373L33.983,28.039z"/>
		<path fill="#FFFFFF" d="M39.049,26.877c0-2.466,1.415-3.643,2.186-3.643c0.798,0,0.714,1.064,0.742,1.625h1.051
			c0-1.135-0.336-2.507-1.737-2.507c-1.121,0-1.75,0.7-2.325,1.583l-0.238-1.429h-1.023c0.196,0.938,0.294,1.947,0.294,3.194V30
			h1.05V26.877z"/>
		<path fill="#FFFFFF" d="M48.402,30.154c1.443,0,2.984-0.994,2.984-3.895c0-1.218-0.336-3.908-2.984-3.908
			c-1.429,0-2.97,1.008-2.97,3.908C45.432,29.285,47.099,30.154,48.402,30.154z M48.402,29.271c-1.639,0-1.919-1.723-1.919-3.012
			c0-1.289,0.28-3.025,1.919-3.025c1.639,0,1.933,1.737,1.933,3.025C50.335,27.549,50.041,29.271,48.402,29.271z"/>
		<path fill="#FFFFFF" d="M56.354,30h1.051V19.606h-3.18v0.882h2.129V30z"/>
		<path fill="#FFFFFF" d="M64.753,30h1.05V19.606h-3.18v0.882h2.129V30z"/>
		<path fill="#FFFFFF" d="M84.943,30.027c-0.294-0.854-0.378-1.778-0.378-2.703v-7.718h-1.051v3.18
			c-0.518-0.28-0.953-0.434-1.583-0.434c-1.219,0-3.04,0.994-3.04,3.852c0,2.941,1.681,3.95,2.998,3.95
			c0.869,0,1.205-0.28,1.835-0.841l0.224,0.841L84.943,30.027z M83.514,27.982c-0.28,0.688-0.784,1.289-1.597,1.289
			c-0.701,0-1.975-0.588-1.975-3.025c0-2.073,1.036-3.012,2.157-3.012c0.532,0,1.008,0.28,1.415,0.616V27.982z"/>
		<path fill="#FFFFFF" d="M90.401,30.154c1.443,0,2.983-0.994,2.983-3.895c0-1.218-0.336-3.908-2.983-3.908
			c-1.429,0-2.97,1.008-2.97,3.908C87.432,29.285,89.099,30.154,90.401,30.154z M90.401,29.271c-1.639,0-1.919-1.723-1.919-3.012
			c0-1.289,0.28-3.025,1.919-3.025c1.639,0,1.933,1.737,1.933,3.025C92.334,27.549,92.04,29.271,90.401,29.271z"/>
		<path fill="#FFFFFF" d="M96.406,30.098h1.121l1.205-4.062l1.219,4.062h1.121l1.317-7.592h-1.177l-0.854,5.617h-0.028l-1.079-3.782
			h-1.023l-1.078,3.782H97.12l-0.854-5.617h-1.176L96.406,30.098z"/>
		<path fill="#FFFFFF" d="M105.604,26.877c0-2.634,1.247-3.643,2.241-3.643c0.925,0,0.925,1.079,0.925,1.793V30h1.05v-5.281
			c0-1.275-0.616-2.367-1.807-2.367c-1.05,0-2.017,0.644-2.549,1.527l-0.238-1.373h-1.009c0.28,1.191,0.336,2.465,0.336,3.727V30
			h1.05V26.877z"/>
		<path fill="#FFFFFF" d="M126.27,22.506h-2.675v-2.297h-1.051v2.297h-1.61v0.882h1.61v3.936c0,2.242,0.771,2.83,1.989,2.83
			c1.261,0,2.115-0.869,2.619-1.947l-1.009-0.252c-0.294,0.658-0.784,1.316-1.582,1.316c-0.953,0-0.967-0.883-0.967-1.611v-4.272
			h2.675V22.506z"/>
		<path fill="#FFFFFF" d="M132.4,30.154c1.443,0,2.984-0.994,2.984-3.895c0-1.218-0.337-3.908-2.984-3.908
			c-1.429,0-2.97,1.008-2.97,3.908C129.431,29.285,131.098,30.154,132.4,30.154z M132.4,29.271c-1.639,0-1.919-1.723-1.919-3.012
			c0-1.289,0.28-3.025,1.919-3.025s1.934,1.737,1.934,3.025C134.334,27.549,134.039,29.271,132.4,29.271z"/>
		<path fill="#FFFFFF" d="M151.582,28.039c-0.505,0.602-1.149,1.232-1.976,1.232c-0.967,0-2.171-0.7-2.171-3.039
			c0-2.214,1.078-2.998,2.143-2.998c0.925,0,1.472,0.63,1.85,1.387l0.91-0.603c-0.658-0.994-1.526-1.667-2.76-1.667
			c-1.498,0-3.193,0.98-3.193,3.978c0,2.97,1.849,3.824,3.236,3.824c1.162,0,1.919-0.561,2.675-1.373L151.582,28.039z"/>
		<path fill="#FFFFFF" d="M157.601,30.154c1.442,0,2.983-0.994,2.983-3.895c0-1.218-0.336-3.908-2.983-3.908
			c-1.429,0-2.97,1.008-2.97,3.908C154.631,29.285,156.298,30.154,157.601,30.154z M157.601,29.271c-1.64,0-1.919-1.723-1.919-3.012
			c0-1.289,0.279-3.025,1.919-3.025c1.639,0,1.933,1.737,1.933,3.025C159.533,27.549,159.239,29.271,157.601,29.271z"/>
		<path fill="#FFFFFF" d="M164.403,26.877c0-2.634,1.247-3.643,2.241-3.643c0.925,0,0.925,1.079,0.925,1.793V30h1.05v-5.281
			c0-1.275-0.616-2.367-1.807-2.367c-1.051,0-2.018,0.644-2.549,1.527l-0.238-1.373h-1.009c0.28,1.191,0.336,2.465,0.336,3.727V30
			h1.051V26.877z"/>
		<path fill="#FFFFFF" d="M176.669,22.506h-2.675v-2.297h-1.051v2.297h-1.611v0.882h1.611v3.936c0,2.242,0.771,2.83,1.989,2.83
			c1.261,0,2.114-0.869,2.619-1.947l-1.009-0.252c-0.294,0.658-0.784,1.316-1.583,1.316c-0.952,0-0.966-0.883-0.966-1.611v-4.272
			h2.675V22.506z"/>
		<path fill="#FFFFFF" d="M182.464,30h1.05v-7.494h-3.18v0.882h2.13V30z M182.954,19.718c-0.49,0-0.883,0.378-0.883,0.883
			s0.393,0.882,0.883,0.882s0.882-0.378,0.882-0.882S183.444,19.718,182.954,19.718z"/>
		<path fill="#FFFFFF" d="M189.603,26.877c0-2.634,1.247-3.643,2.241-3.643c0.925,0,0.925,1.079,0.925,1.793V30h1.051v-5.281
			c0-1.275-0.616-2.367-1.808-2.367c-1.05,0-2.017,0.644-2.549,1.527l-0.238-1.373h-1.009c0.28,1.191,0.337,2.465,0.337,3.727V30
			h1.05V26.877z"/>
		<path fill="#FFFFFF" d="M201.21,25.574c0,2.536-1.204,3.698-2.241,3.698c-0.924,0-0.924-1.162-0.924-1.863v-4.902h-1.051v5.211
			c0,1.303,0.561,2.438,1.891,2.438c0.967,0,1.976-0.771,2.466-1.598L201.589,30h0.994c-0.294-1.275-0.322-2.563-0.322-3.866v-3.628
			h-1.051V25.574z"/>
		<path fill="#FFFFFF" d="M211.053,26.526v-0.575c0-0.812-0.392-3.6-2.885-3.6c-2.242,0-3.152,1.989-3.152,3.95
			c0,1.947,0.883,3.853,3.096,3.853c1.037,0,1.934-0.322,2.872-0.742l-0.448-0.939c-0.687,0.421-1.514,0.799-2.34,0.799
			c-1.148,0-2.073-0.687-2.129-2.745H211.053z M206.053,25.644c0.28-1.513,0.854-2.409,2.031-2.409c1.176,0,1.877,1.177,1.919,2.409
			H206.053z"/>
	</g>
</g>
</svg>
